<?xml version="1.0" encoding="utf-8" standalone="no"?>
<!DOCTYPE svg PUBLIC "-//W3C//DTD SVG 1.1//EN"
  "http://www.w3.org/Graphics/SVG/1.1/DTD/svg11.dtd">
<svg xmlns:xlink="http://www.w3.org/1999/xlink" width="425.22937pt" height="309.675pt" viewBox="0 0 425.22937 309.675" xmlns="http://www.w3.org/2000/svg" version="1.1">
 <metadata>
  <rdf:RDF xmlns:dc="http://purl.org/dc/elements/1.1/" xmlns:cc="http://creativecommons.org/ns#" xmlns:rdf="http://www.w3.org/1999/02/22-rdf-syntax-ns#">
   <cc:Work>
    <dc:type rdf:resource="http://purl.org/dc/dcmitype/StillImage"/>
    <dc:date>2024-07-06T12:09:53.701637</dc:date>
    <dc:format>image/svg+xml</dc:format>
    <dc:creator>
     <cc:Agent>
      <dc:title>Matplotlib v3.9.0, https://matplotlib.org/</dc:title>
     </cc:Agent>
    </dc:creator>
   </cc:Work>
  </rdf:RDF>
 </metadata>
 <defs>
  <style type="text/css">*{stroke-linejoin: round; stroke-linecap: butt}</style>
 </defs>
 <g id="figure_1">
  <g id="patch_1">
   <path d="M 0 309.675 
L 425.22937 309.675 
L 425.22937 0 
L 0 0 
z
" style="fill: #ffffff"/>
  </g>
  <g id="axes_1">
   <g id="patch_2">
    <path d="M 36.2 119.675 
L 185.149244 119.675 
L 185.149244 18.8 
L 36.2 18.8 
z
" style="fill: #ffffff"/>
   </g>
   <g id="PathCollection_1">
    <defs>
     <path id="md8a41971f6" d="M 0 2.236068 
C 0.593012 2.236068 1.161816 2.000462 1.581139 1.581139 
C 2.000462 1.161816 2.236068 0.593012 2.236068 0 
C 2.236068 -0.593012 2.000462 -1.161816 1.581139 -1.581139 
C 1.161816 -2.000462 0.593012 -2.236068 0 -2.236068 
C -0.593012 -2.236068 -1.161816 -2.000462 -1.581139 -1.581139 
C -2.000462 -1.161816 -2.236068 -0.593012 -2.236068 0 
C -2.236068 0.593012 -2.000462 1.161816 -1.581139 1.581139 
C -1.161816 2.000462 -0.593012 2.236068 0 2.236068 
z
" style="stroke: #ffffff; stroke-width: 0.357771"/>
    </defs>
    <g clip-path="url(#p327e401166)">
     <use xlink:href="#md8a41971f6" x="70.458326" y="115.089773" style="stroke: #ffffff; stroke-width: 0.357771"/>
     <use xlink:href="#md8a41971f6" x="165.785842" y="54.885122" style="stroke: #ffffff; stroke-width: 0.357771"/>
     <use xlink:href="#md8a41971f6" x="119.611577" y="76.39947" style="stroke: #ffffff; stroke-width: 0.357771"/>
     <use xlink:href="#md8a41971f6" x="185.149244" y="23.385227" style="stroke: #ffffff; stroke-width: 0.357771"/>
     <use xlink:href="#md8a41971f6" x="179.191274" y="31.945087" style="stroke: #ffffff; stroke-width: 0.357771"/>
     <use xlink:href="#md8a41971f6" x="144.932948" y="60.853922" style="stroke: #ffffff; stroke-width: 0.357771"/>
     <use xlink:href="#md8a41971f6" x="94.290205" y="96.192052" style="stroke: #ffffff; stroke-width: 0.357771"/>
    </g>
   </g>
   <g id="matplotlib.axis_1">
    <g id="xtick_1">
     <g id="line2d_1">
      <defs>
       <path id="m21a8f878bf" d="M 0 0 
L 0 -4 
" style="stroke: #000000; stroke-width: 0.6"/>
      </defs>
      <g>
       <use xlink:href="#m21a8f878bf" x="36.2" y="119.675" style="stroke: #000000; stroke-width: 0.6"/>
      </g>
     </g>
     <g id="line2d_2">
      <defs>
       <path id="m2f18b3f6f9" d="M 0 0 
L 0 4 
" style="stroke: #000000; stroke-width: 0.6"/>
      </defs>
      <g>
       <use xlink:href="#m2f18b3f6f9" x="36.2" y="18.8" style="stroke: #000000; stroke-width: 0.6"/>
      </g>
     </g>
    </g>
    <g id="xtick_2">
     <g id="line2d_3">
      <g>
       <use xlink:href="#m21a8f878bf" x="73.437311" y="119.675" style="stroke: #000000; stroke-width: 0.6"/>
      </g>
     </g>
     <g id="line2d_4">
      <g>
       <use xlink:href="#m2f18b3f6f9" x="73.437311" y="18.8" style="stroke: #000000; stroke-width: 0.6"/>
      </g>
     </g>
    </g>
    <g id="xtick_3">
     <g id="line2d_5">
      <g>
       <use xlink:href="#m21a8f878bf" x="110.674622" y="119.675" style="stroke: #000000; stroke-width: 0.6"/>
      </g>
     </g>
     <g id="line2d_6">
      <g>
       <use xlink:href="#m2f18b3f6f9" x="110.674622" y="18.8" style="stroke: #000000; stroke-width: 0.6"/>
      </g>
     </g>
    </g>
    <g id="xtick_4">
     <g id="line2d_7">
      <g>
       <use xlink:href="#m21a8f878bf" x="147.911933" y="119.675" style="stroke: #000000; stroke-width: 0.6"/>
      </g>
     </g>
     <g id="line2d_8">
      <g>
       <use xlink:href="#m2f18b3f6f9" x="147.911933" y="18.8" style="stroke: #000000; stroke-width: 0.6"/>
      </g>
     </g>
    </g>
    <g id="xtick_5">
     <g id="line2d_9">
      <g>
       <use xlink:href="#m21a8f878bf" x="185.149244" y="119.675" style="stroke: #000000; stroke-width: 0.6"/>
      </g>
     </g>
     <g id="line2d_10">
      <g>
       <use xlink:href="#m2f18b3f6f9" x="185.149244" y="18.8" style="stroke: #000000; stroke-width: 0.6"/>
      </g>
     </g>
    </g>
   </g>
   <g id="matplotlib.axis_2">
    <g id="ytick_1">
     <g id="line2d_11">
      <defs>
       <path id="m7b623ab747" d="M 0 0 
L 4 0 
" style="stroke: #000000; stroke-width: 0.6"/>
      </defs>
      <g>
       <use xlink:href="#m7b623ab747" x="36.2" y="87.672556" style="stroke: #000000; stroke-width: 0.6"/>
      </g>
     </g>
     <g id="line2d_12">
      <defs>
       <path id="m7c9ffe7a99" d="M 0 0 
L -4 0 
" style="stroke: #000000; stroke-width: 0.6"/>
      </defs>
      <g>
       <use xlink:href="#m7c9ffe7a99" x="185.149244" y="87.672556" style="stroke: #000000; stroke-width: 0.6"/>
      </g>
     </g>
     <g id="text_1">
      <!-- $\mathdefault{2}$ -->
      <g transform="translate(26.9 91.472556) scale(0.1 -0.1)">
       <defs>
        <path id="NotoSans-Regular-32" d="M 3328 0 
L 307 0 
L 307 467 
L 1504 1677 
Q 1850 2022 2086 2291 
Q 2323 2560 2444 2819 
Q 2566 3078 2566 3386 
Q 2566 3763 2342 3958 
Q 2118 4154 1760 4154 
Q 1427 4154 1174 4038 
Q 922 3923 659 3718 
L 358 4096 
Q 538 4250 752 4371 
Q 966 4493 1219 4563 
Q 1472 4634 1760 4634 
Q 2189 4634 2496 4486 
Q 2803 4339 2972 4067 
Q 3142 3795 3142 3418 
Q 3142 3059 2995 2745 
Q 2848 2432 2585 2128 
Q 2323 1824 1971 1478 
L 1018 538 
L 1018 512 
L 3328 512 
L 3328 0 
z
" transform="scale(0.015625)"/>
       </defs>
       <use xlink:href="#NotoSans-Regular-32" transform="translate(0 0.59375)"/>
      </g>
     </g>
    </g>
    <g id="ytick_2">
     <g id="line2d_13">
      <g>
       <use xlink:href="#m7b623ab747" x="36.2" y="51.474391" style="stroke: #000000; stroke-width: 0.6"/>
      </g>
     </g>
     <g id="line2d_14">
      <g>
       <use xlink:href="#m7c9ffe7a99" x="185.149244" y="51.474391" style="stroke: #000000; stroke-width: 0.6"/>
      </g>
     </g>
     <g id="text_2">
      <!-- $\mathdefault{4}$ -->
      <g transform="translate(26.9 55.274391) scale(0.1 -0.1)">
       <defs>
        <path id="NotoSans-Regular-34" d="M 3533 1037 
L 2867 1037 
L 2867 0 
L 2323 0 
L 2323 1037 
L 134 1037 
L 134 1517 
L 2285 4595 
L 2867 4595 
L 2867 1542 
L 3533 1542 
L 3533 1037 
z
M 2323 2982 
Q 2323 3149 2326 3286 
Q 2330 3424 2336 3545 
Q 2342 3667 2345 3779 
Q 2349 3891 2355 3994 
L 2330 3994 
Q 2278 3872 2201 3731 
Q 2125 3590 2054 3494 
L 685 1542 
L 2323 1542 
L 2323 2982 
z
" transform="scale(0.015625)"/>
       </defs>
       <use xlink:href="#NotoSans-Regular-34" transform="translate(0 0.203125)"/>
      </g>
     </g>
    </g>
    <g id="text_3">
     <!-- value -->
     <g transform="translate(20.5 81.782031) rotate(-90) scale(0.1 -0.1)">
      <defs>
       <path id="NotoSans-Regular-76" d="M 1299 0 
L 0 3430 
L 602 3430 
L 1331 1408 
Q 1382 1267 1440 1094 
Q 1498 922 1542 765 
Q 1587 608 1606 499 
L 1632 499 
Q 1658 608 1706 768 
Q 1754 928 1814 1101 
Q 1875 1274 1920 1408 
L 2650 3430 
L 3251 3430 
L 1946 0 
L 1299 0 
z
" transform="scale(0.015625)"/>
       <path id="NotoSans-Regular-61" d="M 1843 3488 
Q 2470 3488 2771 3213 
Q 3072 2938 3072 2336 
L 3072 0 
L 2662 0 
L 2554 486 
L 2528 486 
Q 2381 301 2224 176 
Q 2067 51 1865 -6 
Q 1664 -64 1376 -64 
Q 1069 -64 822 45 
Q 576 154 435 381 
Q 294 608 294 954 
Q 294 1466 697 1744 
Q 1101 2022 1939 2048 
L 2522 2067 
L 2522 2272 
Q 2522 2701 2336 2867 
Q 2150 3034 1811 3034 
Q 1542 3034 1299 2954 
Q 1056 2874 845 2771 
L 672 3194 
Q 896 3315 1203 3401 
Q 1510 3488 1843 3488 
z
M 2010 1658 
Q 1370 1632 1123 1453 
Q 877 1274 877 947 
Q 877 659 1053 524 
Q 1229 390 1504 390 
Q 1939 390 2227 630 
Q 2515 870 2515 1370 
L 2515 1677 
L 2010 1658 
z
" transform="scale(0.015625)"/>
       <path id="NotoSans-Regular-6c" d="M 1107 0 
L 544 0 
L 544 4864 
L 1107 4864 
L 1107 0 
z
" transform="scale(0.015625)"/>
       <path id="NotoSans-Regular-75" d="M 3411 3430 
L 3411 0 
L 2950 0 
L 2867 454 
L 2842 454 
Q 2733 275 2560 160 
Q 2387 45 2182 -9 
Q 1978 -64 1754 -64 
Q 1344 -64 1065 67 
Q 787 198 646 473 
Q 506 749 506 1184 
L 506 3430 
L 1075 3430 
L 1075 1222 
Q 1075 813 1260 608 
Q 1446 403 1837 403 
Q 2221 403 2441 547 
Q 2662 691 2755 969 
Q 2848 1248 2848 1645 
L 2848 3430 
L 3411 3430 
z
" transform="scale(0.015625)"/>
       <path id="NotoSans-Regular-65" d="M 1869 3494 
Q 2310 3494 2627 3302 
Q 2944 3110 3113 2761 
Q 3283 2413 3283 1946 
L 3283 1606 
L 934 1606 
Q 947 1024 1232 720 
Q 1517 416 2029 416 
Q 2355 416 2608 477 
Q 2861 538 3130 653 
L 3130 160 
Q 2867 45 2611 -9 
Q 2355 -64 2003 -64 
Q 1517 -64 1142 134 
Q 768 333 560 726 
Q 352 1120 352 1690 
Q 352 2253 541 2656 
Q 730 3059 1072 3276 
Q 1414 3494 1869 3494 
z
M 1862 3034 
Q 1459 3034 1225 2774 
Q 992 2515 947 2054 
L 2694 2054 
Q 2694 2349 2604 2566 
Q 2515 2784 2332 2909 
Q 2150 3034 1862 3034 
z
" transform="scale(0.015625)"/>
      </defs>
      <use xlink:href="#NotoSans-Regular-76"/>
      <use xlink:href="#NotoSans-Regular-61" x="50.799988"/>
      <use xlink:href="#NotoSans-Regular-6c" x="106.899979"/>
      <use xlink:href="#NotoSans-Regular-75" x="132.699966"/>
      <use xlink:href="#NotoSans-Regular-65" x="194.499954"/>
     </g>
    </g>
    <g id="text_4">
     <!-- $\times\mathdefault{10^{4}}\mathdefault{}$ -->
     <g transform="translate(36.2 15.8) scale(0.1 -0.1)">
      <defs>
       <path id="NotoSans-Regular-d7" d="M 2918 3674 
L 3238 3347 
L 2150 2259 
L 3232 1171 
L 2912 845 
L 1818 1926 
L 749 845 
L 416 1171 
L 1498 2259 
L 410 3341 
L 742 3674 
L 1824 2579 
L 2918 3674 
z
" transform="scale(0.015625)"/>
       <path id="NotoSans-Regular-31" d="M 2272 0 
L 1722 0 
L 1722 3194 
Q 1722 3379 1725 3507 
Q 1728 3635 1734 3747 
Q 1741 3859 1747 3981 
Q 1645 3878 1561 3808 
Q 1478 3738 1350 3629 
L 864 3232 
L 570 3610 
L 1805 4570 
L 2272 4570 
L 2272 0 
z
" transform="scale(0.015625)"/>
       <path id="NotoSans-Regular-30" d="M 3347 2291 
Q 3347 1734 3264 1299 
Q 3181 864 2998 560 
Q 2816 256 2525 96 
Q 2234 -64 1824 -64 
Q 1312 -64 976 217 
Q 640 499 477 1027 
Q 314 1555 314 2291 
Q 314 3034 464 3558 
Q 614 4083 947 4361 
Q 1280 4640 1824 4640 
Q 2336 4640 2675 4361 
Q 3014 4083 3180 3558 
Q 3347 3034 3347 2291 
z
M 877 2291 
Q 877 1664 969 1248 
Q 1062 832 1270 624 
Q 1478 416 1824 416 
Q 2170 416 2378 621 
Q 2586 826 2682 1245 
Q 2778 1664 2778 2291 
Q 2778 2918 2682 3331 
Q 2586 3744 2378 3952 
Q 2170 4160 1824 4160 
Q 1478 4160 1270 3952 
Q 1062 3744 969 3331 
Q 877 2918 877 2291 
z
" transform="scale(0.015625)"/>
      </defs>
      <use xlink:href="#NotoSans-Regular-d7" transform="translate(0 0.226562)"/>
      <use xlink:href="#NotoSans-Regular-31" transform="translate(57.199997 0.226562)"/>
      <use xlink:href="#NotoSans-Regular-30" transform="translate(114.399994 0.226562)"/>
      <use xlink:href="#NotoSans-Regular-34" transform="translate(172.537881 37.742188) scale(0.7)"/>
     </g>
    </g>
   </g>
   <g id="patch_3">
    <path d="M 36.2 119.675 
L 36.2 18.8 
" style="fill: none; stroke: #000000; stroke-width: 0.6; stroke-linejoin: miter; stroke-linecap: square"/>
   </g>
   <g id="patch_4">
    <path d="M 185.149244 119.675 
L 185.149244 18.8 
" style="fill: none; stroke: #000000; stroke-width: 0.6; stroke-linejoin: miter; stroke-linecap: square"/>
   </g>
   <g id="patch_5">
    <path d="M 36.2 119.675 
L 185.149244 119.675 
" style="fill: none; stroke: #000000; stroke-width: 0.6; stroke-linejoin: miter; stroke-linecap: square"/>
   </g>
   <g id="patch_6">
    <path d="M 36.2 18.8 
L 185.149244 18.8 
" style="fill: none; stroke: #000000; stroke-width: 0.6; stroke-linejoin: miter; stroke-linecap: square"/>
   </g>
   <g id="text_5">
    <!-- $a_1$ (S/m) -->
    <g transform="translate(92.074622 14.8) scale(0.1 -0.1)">
     <defs>
      <path id="NotoSans-Italic-61" d="M 1235 -64 
Q 960 -64 752 67 
Q 544 198 425 460 
Q 307 723 307 1107 
Q 307 1491 387 1846 
Q 467 2202 614 2502 
Q 762 2803 970 3024 
Q 1178 3245 1437 3369 
Q 1696 3494 1990 3494 
Q 2214 3494 2384 3411 
Q 2554 3328 2669 3193 
Q 2784 3059 2854 2899 
L 2886 2899 
L 3091 3430 
L 3520 3430 
L 2790 0 
L 2342 0 
L 2426 634 
L 2400 634 
Q 2253 448 2073 288 
Q 1894 128 1686 32 
Q 1478 -64 1235 -64 
z
M 1421 403 
Q 1658 403 1885 576 
Q 2112 749 2297 1043 
Q 2483 1338 2579 1702 
Q 2630 1888 2646 2045 
Q 2662 2202 2662 2336 
Q 2662 2637 2496 2829 
Q 2330 3021 2048 3021 
Q 1850 3021 1674 2918 
Q 1498 2816 1350 2633 
Q 1203 2451 1100 2208 
Q 998 1965 940 1680 
Q 883 1395 883 1094 
Q 883 749 1024 576 
Q 1165 403 1421 403 
z
" transform="scale(0.015625)"/>
      <path id="NotoSans-Regular-20" transform="scale(0.015625)"/>
      <path id="NotoSans-Regular-28" d="M 256 1754 
Q 256 2278 355 2777 
Q 454 3277 665 3731 
Q 877 4186 1197 4570 
L 1728 4570 
Q 1280 3968 1053 3245 
Q 826 2522 826 1760 
Q 826 1267 928 780 
Q 1030 294 1228 -157 
Q 1427 -608 1722 -1011 
L 1197 -1011 
Q 877 -634 665 -189 
Q 454 256 355 749 
Q 256 1242 256 1754 
z
" transform="scale(0.015625)"/>
      <path id="NotoSans-Regular-53" d="M 3213 1222 
Q 3213 813 3014 528 
Q 2816 243 2448 89 
Q 2080 -64 1581 -64 
Q 1325 -64 1091 -38 
Q 858 -13 666 35 
Q 474 83 326 154 
L 326 704 
Q 557 602 899 518 
Q 1242 435 1606 435 
Q 1946 435 2176 524 
Q 2406 614 2521 780 
Q 2637 947 2637 1171 
Q 2637 1395 2541 1548 
Q 2445 1702 2211 1833 
Q 1978 1965 1562 2112 
Q 1267 2221 1046 2345 
Q 826 2470 678 2630 
Q 531 2790 457 2995 
Q 384 3200 384 3469 
Q 384 3834 569 4093 
Q 755 4352 1084 4493 
Q 1414 4634 1843 4634 
Q 2221 4634 2534 4563 
Q 2848 4493 3104 4378 
L 2925 3885 
Q 2688 3987 2409 4057 
Q 2131 4128 1830 4128 
Q 1542 4128 1350 4045 
Q 1158 3962 1062 3811 
Q 966 3661 966 3462 
Q 966 3232 1062 3078 
Q 1158 2925 1376 2803 
Q 1594 2682 1965 2541 
Q 2368 2394 2646 2224 
Q 2925 2054 3069 1817 
Q 3213 1581 3213 1222 
z
" transform="scale(0.015625)"/>
      <path id="NotoSans-Regular-2f" d="M 2317 4570 
L 614 0 
L 64 0 
L 1766 4570 
L 2317 4570 
z
" transform="scale(0.015625)"/>
      <path id="NotoSans-Regular-6d" d="M 4307 3494 
Q 4890 3494 5178 3196 
Q 5466 2899 5466 2234 
L 5466 0 
L 4909 0 
L 4909 2208 
Q 4909 2611 4739 2816 
Q 4570 3021 4211 3021 
Q 3712 3021 3497 2733 
Q 3283 2445 3283 1894 
L 3283 0 
L 2726 0 
L 2726 2208 
Q 2726 2477 2649 2659 
Q 2573 2842 2419 2931 
Q 2266 3021 2022 3021 
Q 1677 3021 1478 2877 
Q 1280 2733 1193 2457 
Q 1107 2182 1107 1779 
L 1107 0 
L 544 0 
L 544 3430 
L 998 3430 
L 1082 2963 
L 1114 2963 
Q 1222 3142 1379 3260 
Q 1536 3379 1728 3436 
Q 1920 3494 2125 3494 
Q 2522 3494 2787 3353 
Q 3053 3213 3174 2918 
L 3206 2918 
Q 3379 3213 3676 3353 
Q 3974 3494 4307 3494 
z
" transform="scale(0.015625)"/>
      <path id="NotoSans-Regular-29" d="M 1664 1754 
Q 1664 1242 1565 749 
Q 1466 256 1258 -189 
Q 1050 -634 723 -1011 
L 198 -1011 
Q 493 -608 691 -157 
Q 890 294 992 780 
Q 1094 1267 1094 1760 
Q 1094 2266 992 2758 
Q 890 3251 691 3712 
Q 493 4173 192 4570 
L 723 4570 
Q 1050 4186 1258 3731 
Q 1466 3277 1565 2777 
Q 1664 2278 1664 1754 
z
" transform="scale(0.015625)"/>
     </defs>
     <use xlink:href="#NotoSans-Italic-61" transform="translate(0 0.59375)"/>
     <use xlink:href="#NotoSans-Regular-31" transform="translate(56.799988 -15.484375) scale(0.7)"/>
     <use xlink:href="#NotoSans-Regular-20" transform="translate(99.519673 0.59375)"/>
     <use xlink:href="#NotoSans-Regular-28" transform="translate(125.519658 0.59375)"/>
     <use xlink:href="#NotoSans-Regular-53" transform="translate(155.519643 0.59375)"/>
     <use xlink:href="#NotoSans-Regular-2f" transform="translate(210.419637 0.59375)"/>
     <use xlink:href="#NotoSans-Regular-6d" transform="translate(247.619633 0.59375)"/>
     <use xlink:href="#NotoSans-Regular-29" transform="translate(341.119618 0.59375)"/>
    </g>
   </g>
  </g>
  <g id="axes_2">
   <g id="patch_7">
    <path d="M 259.130126 119.675 
L 408.07937 119.675 
L 408.07937 18.8 
L 259.130126 18.8 
z
" style="fill: #ffffff"/>
   </g>
   <g id="PathCollection_2">
    <g clip-path="url(#p1ee60251bf)">
     <use xlink:href="#md8a41971f6" x="293.388452" y="115.089773" style="stroke: #ffffff; stroke-width: 0.357771"/>
     <use xlink:href="#md8a41971f6" x="388.715968" y="40.78572" style="stroke: #ffffff; stroke-width: 0.357771"/>
     <use xlink:href="#md8a41971f6" x="342.541703" y="80.707494" style="stroke: #ffffff; stroke-width: 0.357771"/>
     <use xlink:href="#md8a41971f6" x="408.07937" y="32.219708" style="stroke: #ffffff; stroke-width: 0.357771"/>
     <use xlink:href="#md8a41971f6" x="402.1214" y="23.385227" style="stroke: #ffffff; stroke-width: 0.357771"/>
     <use xlink:href="#md8a41971f6" x="367.863074" y="57.265805" style="stroke: #ffffff; stroke-width: 0.357771"/>
     <use xlink:href="#md8a41971f6" x="317.220331" y="101.650952" style="stroke: #ffffff; stroke-width: 0.357771"/>
    </g>
   </g>
   <g id="matplotlib.axis_3">
    <g id="xtick_6">
     <g id="line2d_15">
      <g>
       <use xlink:href="#m21a8f878bf" x="259.130126" y="119.675" style="stroke: #000000; stroke-width: 0.6"/>
      </g>
     </g>
     <g id="line2d_16">
      <g>
       <use xlink:href="#m2f18b3f6f9" x="259.130126" y="18.8" style="stroke: #000000; stroke-width: 0.6"/>
      </g>
     </g>
    </g>
    <g id="xtick_7">
     <g id="line2d_17">
      <g>
       <use xlink:href="#m21a8f878bf" x="296.367437" y="119.675" style="stroke: #000000; stroke-width: 0.6"/>
      </g>
     </g>
     <g id="line2d_18">
      <g>
       <use xlink:href="#m2f18b3f6f9" x="296.367437" y="18.8" style="stroke: #000000; stroke-width: 0.6"/>
      </g>
     </g>
    </g>
    <g id="xtick_8">
     <g id="line2d_19">
      <g>
       <use xlink:href="#m21a8f878bf" x="333.604748" y="119.675" style="stroke: #000000; stroke-width: 0.6"/>
      </g>
     </g>
     <g id="line2d_20">
      <g>
       <use xlink:href="#m2f18b3f6f9" x="333.604748" y="18.8" style="stroke: #000000; stroke-width: 0.6"/>
      </g>
     </g>
    </g>
    <g id="xtick_9">
     <g id="line2d_21">
      <g>
       <use xlink:href="#m21a8f878bf" x="370.842059" y="119.675" style="stroke: #000000; stroke-width: 0.6"/>
      </g>
     </g>
     <g id="line2d_22">
      <g>
       <use xlink:href="#m2f18b3f6f9" x="370.842059" y="18.8" style="stroke: #000000; stroke-width: 0.6"/>
      </g>
     </g>
    </g>
    <g id="xtick_10">
     <g id="line2d_23">
      <g>
       <use xlink:href="#m21a8f878bf" x="408.07937" y="119.675" style="stroke: #000000; stroke-width: 0.6"/>
      </g>
     </g>
     <g id="line2d_24">
      <g>
       <use xlink:href="#m2f18b3f6f9" x="408.07937" y="18.8" style="stroke: #000000; stroke-width: 0.6"/>
      </g>
     </g>
    </g>
   </g>
   <g id="matplotlib.axis_4">
    <g id="ytick_3">
     <g id="line2d_25">
      <g>
       <use xlink:href="#m7b623ab747" x="259.130126" y="99.933113" style="stroke: #000000; stroke-width: 0.6"/>
      </g>
     </g>
     <g id="line2d_26">
      <g>
       <use xlink:href="#m7c9ffe7a99" x="408.07937" y="99.933113" style="stroke: #000000; stroke-width: 0.6"/>
      </g>
     </g>
     <g id="text_6">
      <!-- $\mathdefault{0.5}$ -->
      <g transform="translate(241.430126 103.733113) scale(0.1 -0.1)">
       <defs>
        <path id="NotoSans-Regular-2e" d="M 461 346 
Q 461 582 576 678 
Q 691 774 851 774 
Q 1018 774 1136 678 
Q 1254 582 1254 346 
Q 1254 115 1136 12 
Q 1018 -90 851 -90 
Q 691 -90 576 12 
Q 461 115 461 346 
z
" transform="scale(0.015625)"/>
        <path id="NotoSans-Regular-35" d="M 1760 2803 
Q 2227 2803 2572 2643 
Q 2918 2483 3107 2185 
Q 3296 1888 3296 1459 
Q 3296 986 3091 643 
Q 2886 301 2505 118 
Q 2125 -64 1587 -64 
Q 1235 -64 924 0 
Q 614 64 403 186 
L 403 717 
Q 634 576 963 496 
Q 1293 416 1594 416 
Q 1933 416 2185 521 
Q 2438 627 2579 848 
Q 2720 1069 2720 1402 
Q 2720 1850 2445 2090 
Q 2170 2330 1574 2330 
Q 1395 2330 1164 2298 
Q 934 2266 794 2234 
L 512 2413 
L 685 4570 
L 2976 4570 
L 2976 4058 
L 1165 4058 
L 1056 2733 
Q 1165 2752 1350 2777 
Q 1536 2803 1760 2803 
z
" transform="scale(0.015625)"/>
       </defs>
       <use xlink:href="#NotoSans-Regular-30" transform="translate(0 0.5)"/>
       <use xlink:href="#NotoSans-Regular-2e" transform="translate(57.199997 0.5)"/>
       <use xlink:href="#NotoSans-Regular-35" transform="translate(83.999985 0.5)"/>
      </g>
     </g>
    </g>
    <g id="ytick_4">
     <g id="line2d_27">
      <g>
       <use xlink:href="#m7b623ab747" x="259.130126" y="76.924894" style="stroke: #000000; stroke-width: 0.6"/>
      </g>
     </g>
     <g id="line2d_28">
      <g>
       <use xlink:href="#m7c9ffe7a99" x="408.07937" y="76.924894" style="stroke: #000000; stroke-width: 0.6"/>
      </g>
     </g>
     <g id="text_7">
      <!-- $\mathdefault{1.0}$ -->
      <g transform="translate(241.430126 80.724894) scale(0.1 -0.1)">
       <use xlink:href="#NotoSans-Regular-31" transform="translate(0 0.5)"/>
       <use xlink:href="#NotoSans-Regular-2e" transform="translate(57.199997 0.5)"/>
       <use xlink:href="#NotoSans-Regular-30" transform="translate(83.999985 0.5)"/>
      </g>
     </g>
    </g>
    <g id="ytick_5">
     <g id="line2d_29">
      <g>
       <use xlink:href="#m7b623ab747" x="259.130126" y="53.916675" style="stroke: #000000; stroke-width: 0.6"/>
      </g>
     </g>
     <g id="line2d_30">
      <g>
       <use xlink:href="#m7c9ffe7a99" x="408.07937" y="53.916675" style="stroke: #000000; stroke-width: 0.6"/>
      </g>
     </g>
     <g id="text_8">
      <!-- $\mathdefault{1.5}$ -->
      <g transform="translate(241.430126 57.716675) scale(0.1 -0.1)">
       <use xlink:href="#NotoSans-Regular-31" transform="translate(0 0.59375)"/>
       <use xlink:href="#NotoSans-Regular-2e" transform="translate(57.199997 0.59375)"/>
       <use xlink:href="#NotoSans-Regular-35" transform="translate(83.999985 0.59375)"/>
      </g>
     </g>
    </g>
    <g id="ytick_6">
     <g id="line2d_31">
      <g>
       <use xlink:href="#m7b623ab747" x="259.130126" y="30.908456" style="stroke: #000000; stroke-width: 0.6"/>
      </g>
     </g>
     <g id="line2d_32">
      <g>
       <use xlink:href="#m7c9ffe7a99" x="408.07937" y="30.908456" style="stroke: #000000; stroke-width: 0.6"/>
      </g>
     </g>
     <g id="text_9">
      <!-- $\mathdefault{2.0}$ -->
      <g transform="translate(241.430126 34.708456) scale(0.1 -0.1)">
       <use xlink:href="#NotoSans-Regular-32" transform="translate(0 0.5)"/>
       <use xlink:href="#NotoSans-Regular-2e" transform="translate(57.199997 0.5)"/>
       <use xlink:href="#NotoSans-Regular-30" transform="translate(83.999985 0.5)"/>
      </g>
     </g>
    </g>
    <g id="text_10">
     <!-- $\times\mathdefault{10^{4}}\mathdefault{}$ -->
     <g transform="translate(259.130126 15.8) scale(0.1 -0.1)">
      <use xlink:href="#NotoSans-Regular-d7" transform="translate(0 0.226562)"/>
      <use xlink:href="#NotoSans-Regular-31" transform="translate(57.199997 0.226562)"/>
      <use xlink:href="#NotoSans-Regular-30" transform="translate(114.399994 0.226562)"/>
      <use xlink:href="#NotoSans-Regular-34" transform="translate(172.537881 37.742188) scale(0.7)"/>
     </g>
    </g>
   </g>
   <g id="patch_8">
    <path d="M 259.130126 119.675 
L 259.130126 18.8 
" style="fill: none; stroke: #000000; stroke-width: 0.6; stroke-linejoin: miter; stroke-linecap: square"/>
   </g>
   <g id="patch_9">
    <path d="M 408.07937 119.675 
L 408.07937 18.8 
" style="fill: none; stroke: #000000; stroke-width: 0.6; stroke-linejoin: miter; stroke-linecap: square"/>
   </g>
   <g id="patch_10">
    <path d="M 259.130126 119.675 
L 408.07937 119.675 
" style="fill: none; stroke: #000000; stroke-width: 0.6; stroke-linejoin: miter; stroke-linecap: square"/>
   </g>
   <g id="patch_11">
    <path d="M 259.130126 18.8 
L 408.07937 18.8 
" style="fill: none; stroke: #000000; stroke-width: 0.6; stroke-linejoin: miter; stroke-linecap: square"/>
   </g>
   <g id="text_11">
    <!-- $a_2$ (S/m) -->
    <g transform="translate(315.004748 14.8) scale(0.1 -0.1)">
     <use xlink:href="#NotoSans-Italic-61" transform="translate(0 0.59375)"/>
     <use xlink:href="#NotoSans-Regular-32" transform="translate(56.799988 -15.484375) scale(0.7)"/>
     <use xlink:href="#NotoSans-Regular-20" transform="translate(99.519673 0.59375)"/>
     <use xlink:href="#NotoSans-Regular-28" transform="translate(125.519658 0.59375)"/>
     <use xlink:href="#NotoSans-Regular-53" transform="translate(155.519643 0.59375)"/>
     <use xlink:href="#NotoSans-Regular-2f" transform="translate(210.419637 0.59375)"/>
     <use xlink:href="#NotoSans-Regular-6d" transform="translate(247.619633 0.59375)"/>
     <use xlink:href="#NotoSans-Regular-29" transform="translate(341.119618 0.59375)"/>
    </g>
   </g>
  </g>
  <g id="axes_3">
   <g id="patch_12">
    <path d="M 36.2 274.925 
L 185.149244 274.925 
L 185.149244 174.05 
L 36.2 174.05 
z
" style="fill: #ffffff"/>
   </g>
   <g id="PathCollection_3">
    <g clip-path="url(#pf2005f0154)">
     <use xlink:href="#md8a41971f6" x="70.458326" y="267.20463" style="stroke: #ffffff; stroke-width: 0.357771"/>
     <use xlink:href="#md8a41971f6" x="165.785842" y="223.590973" style="stroke: #ffffff; stroke-width: 0.357771"/>
     <use xlink:href="#md8a41971f6" x="119.611577" y="266.880552" style="stroke: #ffffff; stroke-width: 0.357771"/>
     <use xlink:href="#md8a41971f6" x="185.149244" y="178.635227" style="stroke: #ffffff; stroke-width: 0.357771"/>
     <use xlink:href="#md8a41971f6" x="179.191274" y="218.201853" style="stroke: #ffffff; stroke-width: 0.357771"/>
     <use xlink:href="#md8a41971f6" x="144.932948" y="254.102902" style="stroke: #ffffff; stroke-width: 0.357771"/>
     <use xlink:href="#md8a41971f6" x="94.290205" y="270.339773" style="stroke: #ffffff; stroke-width: 0.357771"/>
    </g>
   </g>
   <g id="matplotlib.axis_5">
    <g id="xtick_11">
     <g id="line2d_33">
      <g>
       <use xlink:href="#m21a8f878bf" x="36.2" y="274.925" style="stroke: #000000; stroke-width: 0.6"/>
      </g>
     </g>
     <g id="line2d_34">
      <g>
       <use xlink:href="#m2f18b3f6f9" x="36.2" y="174.05" style="stroke: #000000; stroke-width: 0.6"/>
      </g>
     </g>
     <g id="text_12">
      <!-- $\mathdefault{0.00}$ -->
      <g transform="translate(26.25 286.025) scale(0.1 -0.1)">
       <use xlink:href="#NotoSans-Regular-30" transform="translate(0 0.5)"/>
       <use xlink:href="#NotoSans-Regular-2e" transform="translate(57.199997 0.5)"/>
       <use xlink:href="#NotoSans-Regular-30" transform="translate(83.999985 0.5)"/>
       <use xlink:href="#NotoSans-Regular-30" transform="translate(141.199982 0.5)"/>
      </g>
     </g>
    </g>
    <g id="xtick_12">
     <g id="line2d_35">
      <g>
       <use xlink:href="#m21a8f878bf" x="73.437311" y="274.925" style="stroke: #000000; stroke-width: 0.6"/>
      </g>
     </g>
     <g id="line2d_36">
      <g>
       <use xlink:href="#m2f18b3f6f9" x="73.437311" y="174.05" style="stroke: #000000; stroke-width: 0.6"/>
      </g>
     </g>
     <g id="text_13">
      <!-- $\mathdefault{0.25}$ -->
      <g transform="translate(63.487311 286.025) scale(0.1 -0.1)">
       <use xlink:href="#NotoSans-Regular-30" transform="translate(0 0.5)"/>
       <use xlink:href="#NotoSans-Regular-2e" transform="translate(57.199997 0.5)"/>
       <use xlink:href="#NotoSans-Regular-32" transform="translate(83.999985 0.5)"/>
       <use xlink:href="#NotoSans-Regular-35" transform="translate(141.199982 0.5)"/>
      </g>
     </g>
    </g>
    <g id="xtick_13">
     <g id="line2d_37">
      <g>
       <use xlink:href="#m21a8f878bf" x="110.674622" y="274.925" style="stroke: #000000; stroke-width: 0.6"/>
      </g>
     </g>
     <g id="line2d_38">
      <g>
       <use xlink:href="#m2f18b3f6f9" x="110.674622" y="174.05" style="stroke: #000000; stroke-width: 0.6"/>
      </g>
     </g>
     <g id="text_14">
      <!-- $\mathdefault{0.50}$ -->
      <g transform="translate(100.724622 286.025) scale(0.1 -0.1)">
       <use xlink:href="#NotoSans-Regular-30" transform="translate(0 0.5)"/>
       <use xlink:href="#NotoSans-Regular-2e" transform="translate(57.199997 0.5)"/>
       <use xlink:href="#NotoSans-Regular-35" transform="translate(83.999985 0.5)"/>
       <use xlink:href="#NotoSans-Regular-30" transform="translate(141.199982 0.5)"/>
      </g>
     </g>
    </g>
    <g id="xtick_14">
     <g id="line2d_39">
      <g>
       <use xlink:href="#m21a8f878bf" x="147.911933" y="274.925" style="stroke: #000000; stroke-width: 0.6"/>
      </g>
     </g>
     <g id="line2d_40">
      <g>
       <use xlink:href="#m2f18b3f6f9" x="147.911933" y="174.05" style="stroke: #000000; stroke-width: 0.6"/>
      </g>
     </g>
     <g id="text_15">
      <!-- $\mathdefault{0.75}$ -->
      <g transform="translate(137.961933 286.025) scale(0.1 -0.1)">
       <defs>
        <path id="NotoSans-Regular-37" d="M 870 0 
L 2746 4058 
L 282 4058 
L 282 4570 
L 3347 4570 
L 3347 4134 
L 1491 0 
L 870 0 
z
" transform="scale(0.015625)"/>
       </defs>
       <use xlink:href="#NotoSans-Regular-30" transform="translate(0 0.5)"/>
       <use xlink:href="#NotoSans-Regular-2e" transform="translate(57.199997 0.5)"/>
       <use xlink:href="#NotoSans-Regular-37" transform="translate(83.999985 0.5)"/>
       <use xlink:href="#NotoSans-Regular-35" transform="translate(141.199982 0.5)"/>
      </g>
     </g>
    </g>
    <g id="xtick_15">
     <g id="line2d_41">
      <g>
       <use xlink:href="#m21a8f878bf" x="185.149244" y="274.925" style="stroke: #000000; stroke-width: 0.6"/>
      </g>
     </g>
     <g id="line2d_42">
      <g>
       <use xlink:href="#m2f18b3f6f9" x="185.149244" y="174.05" style="stroke: #000000; stroke-width: 0.6"/>
      </g>
     </g>
     <g id="text_16">
      <!-- $\mathdefault{1.00}$ -->
      <g transform="translate(175.199244 286.025) scale(0.1 -0.1)">
       <use xlink:href="#NotoSans-Regular-31" transform="translate(0 0.5)"/>
       <use xlink:href="#NotoSans-Regular-2e" transform="translate(57.199997 0.5)"/>
       <use xlink:href="#NotoSans-Regular-30" transform="translate(83.999985 0.5)"/>
       <use xlink:href="#NotoSans-Regular-30" transform="translate(141.199982 0.5)"/>
      </g>
     </g>
    </g>
    <g id="text_17">
     <!-- field_strength -->
     <g transform="translate(78.114466 300.075) scale(0.1 -0.1)">
      <defs>
       <path id="NotoSans-Regular-66" d="M 2125 2995 
L 1261 2995 
L 1261 0 
L 698 0 
L 698 2995 
L 96 2995 
L 96 3258 
L 698 3450 
L 698 3648 
Q 698 4090 829 4365 
Q 960 4640 1209 4768 
Q 1459 4896 1811 4896 
Q 2016 4896 2185 4861 
Q 2355 4826 2477 4781 
L 2330 4339 
Q 2227 4371 2092 4403 
Q 1958 4435 1818 4435 
Q 1536 4435 1398 4246 
Q 1261 4058 1261 3654 
L 1261 3430 
L 2125 3430 
L 2125 2995 
z
" transform="scale(0.015625)"/>
       <path id="NotoSans-Regular-69" d="M 1107 3430 
L 1107 0 
L 544 0 
L 544 3430 
L 1107 3430 
z
M 832 4717 
Q 960 4717 1059 4630 
Q 1158 4544 1158 4358 
Q 1158 4179 1059 4089 
Q 960 4000 832 4000 
Q 691 4000 595 4089 
Q 499 4179 499 4358 
Q 499 4544 595 4630 
Q 691 4717 832 4717 
z
" transform="scale(0.015625)"/>
       <path id="NotoSans-Regular-64" d="M 1760 -64 
Q 1120 -64 736 381 
Q 352 826 352 1709 
Q 352 2592 739 3043 
Q 1126 3494 1766 3494 
Q 2035 3494 2233 3427 
Q 2432 3360 2579 3245 
Q 2726 3130 2829 2989 
L 2867 2989 
Q 2861 3072 2845 3235 
Q 2829 3398 2829 3494 
L 2829 4864 
L 3392 4864 
L 3392 0 
L 2938 0 
L 2854 461 
L 2829 461 
Q 2726 314 2579 195 
Q 2432 77 2230 6 
Q 2029 -64 1760 -64 
z
M 1850 403 
Q 2394 403 2614 700 
Q 2835 998 2835 1600 
L 2835 1702 
Q 2835 2342 2624 2684 
Q 2413 3027 1843 3027 
Q 1389 3027 1161 2665 
Q 934 2304 934 1696 
Q 934 1082 1161 742 
Q 1389 403 1850 403 
z
" transform="scale(0.015625)"/>
       <path id="NotoSans-Regular-5f" d="M 2854 -986 
L -13 -986 
L -13 -576 
L 2854 -576 
L 2854 -986 
z
" transform="scale(0.015625)"/>
       <path id="NotoSans-Regular-73" d="M 2778 947 
Q 2778 614 2611 390 
Q 2445 166 2137 51 
Q 1830 -64 1408 -64 
Q 1050 -64 790 -6 
Q 531 51 333 154 
L 333 666 
Q 538 563 829 476 
Q 1120 390 1421 390 
Q 1850 390 2042 528 
Q 2234 666 2234 896 
Q 2234 1024 2163 1126 
Q 2093 1229 1910 1331 
Q 1728 1434 1389 1562 
Q 1056 1690 819 1818 
Q 582 1946 454 2125 
Q 326 2304 326 2586 
Q 326 3021 681 3257 
Q 1037 3494 1613 3494 
Q 1926 3494 2198 3433 
Q 2470 3373 2707 3264 
L 2515 2816 
Q 2298 2906 2061 2970 
Q 1824 3034 1574 3034 
Q 1229 3034 1046 2922 
Q 864 2810 864 2618 
Q 864 2477 947 2377 
Q 1030 2278 1225 2185 
Q 1421 2093 1747 1965 
Q 2074 1843 2304 1715 
Q 2534 1587 2656 1404 
Q 2778 1222 2778 947 
z
" transform="scale(0.015625)"/>
       <path id="NotoSans-Regular-74" d="M 1690 397 
Q 1818 397 1952 419 
Q 2086 442 2170 467 
L 2170 38 
Q 2080 -6 1913 -35 
Q 1747 -64 1594 -64 
Q 1325 -64 1097 29 
Q 870 122 729 352 
Q 589 582 589 998 
L 589 2995 
L 102 2995 
L 102 3264 
L 595 3488 
L 819 4218 
L 1152 4218 
L 1152 3430 
L 2144 3430 
L 2144 2995 
L 1152 2995 
L 1152 1011 
Q 1152 698 1302 547 
Q 1453 397 1690 397 
z
" transform="scale(0.015625)"/>
       <path id="NotoSans-Regular-72" d="M 2144 3494 
Q 2240 3494 2352 3484 
Q 2464 3475 2547 3456 
L 2477 2938 
Q 2394 2957 2294 2969 
Q 2195 2982 2106 2982 
Q 1907 2982 1728 2899 
Q 1549 2816 1408 2665 
Q 1267 2515 1187 2304 
Q 1107 2093 1107 1830 
L 1107 0 
L 544 0 
L 544 3430 
L 1005 3430 
L 1069 2803 
L 1094 2803 
Q 1203 2995 1356 3152 
Q 1510 3309 1708 3401 
Q 1907 3494 2144 3494 
z
" transform="scale(0.015625)"/>
       <path id="NotoSans-Regular-6e" d="M 2195 3494 
Q 2810 3494 3123 3196 
Q 3437 2899 3437 2234 
L 3437 0 
L 2880 0 
L 2880 2195 
Q 2880 2611 2694 2816 
Q 2509 3021 2112 3021 
Q 1542 3021 1324 2701 
Q 1107 2381 1107 1779 
L 1107 0 
L 544 0 
L 544 3430 
L 998 3430 
L 1082 2963 
L 1114 2963 
Q 1229 3142 1398 3260 
Q 1568 3379 1773 3436 
Q 1978 3494 2195 3494 
z
" transform="scale(0.015625)"/>
       <path id="NotoSans-Regular-67" d="M 1760 3494 
Q 2099 3494 2371 3366 
Q 2643 3238 2835 2976 
L 2867 2976 
L 2944 3430 
L 3392 3430 
L 3392 -58 
Q 3392 -544 3225 -873 
Q 3059 -1203 2720 -1369 
Q 2381 -1536 1856 -1536 
Q 1485 -1536 1174 -1481 
Q 864 -1427 621 -1318 
L 621 -800 
Q 864 -928 1190 -998 
Q 1517 -1069 1888 -1069 
Q 2330 -1069 2582 -809 
Q 2835 -550 2835 -102 
L 2835 32 
Q 2835 109 2841 253 
Q 2848 397 2854 454 
L 2829 454 
Q 2650 192 2384 64 
Q 2118 -64 1766 -64 
Q 1101 -64 726 403 
Q 352 870 352 1709 
Q 352 2528 726 3011 
Q 1101 3494 1760 3494 
z
M 1837 3021 
Q 1549 3021 1347 2867 
Q 1146 2714 1040 2419 
Q 934 2125 934 1702 
Q 934 1069 1168 733 
Q 1402 397 1850 397 
Q 2112 397 2297 464 
Q 2483 531 2604 675 
Q 2726 819 2784 1043 
Q 2842 1267 2842 1574 
L 2842 1709 
Q 2842 2176 2736 2464 
Q 2630 2752 2406 2886 
Q 2182 3021 1837 3021 
z
" transform="scale(0.015625)"/>
       <path id="NotoSans-Regular-68" d="M 1107 3437 
Q 1107 3315 1097 3187 
Q 1088 3059 1075 2957 
L 1114 2957 
Q 1222 3136 1388 3251 
Q 1555 3366 1760 3427 
Q 1965 3488 2182 3488 
Q 2598 3488 2876 3357 
Q 3155 3226 3296 2950 
Q 3437 2675 3437 2234 
L 3437 0 
L 2880 0 
L 2880 2195 
Q 2880 2611 2694 2816 
Q 2509 3021 2112 3021 
Q 1728 3021 1510 2877 
Q 1293 2733 1200 2454 
Q 1107 2176 1107 1773 
L 1107 0 
L 544 0 
L 544 4864 
L 1107 4864 
L 1107 3437 
z
" transform="scale(0.015625)"/>
      </defs>
      <use xlink:href="#NotoSans-Regular-66"/>
      <use xlink:href="#NotoSans-Regular-69" x="34.399994"/>
      <use xlink:href="#NotoSans-Regular-65" x="60.199982"/>
      <use xlink:href="#NotoSans-Regular-6c" x="116.599976"/>
      <use xlink:href="#NotoSans-Regular-64" x="142.399963"/>
      <use xlink:href="#NotoSans-Regular-5f" x="203.899948"/>
      <use xlink:href="#NotoSans-Regular-73" x="248.299942"/>
      <use xlink:href="#NotoSans-Regular-74" x="296.199936"/>
      <use xlink:href="#NotoSans-Regular-72" x="332.299927"/>
      <use xlink:href="#NotoSans-Regular-65" x="373.599915"/>
      <use xlink:href="#NotoSans-Regular-6e" x="429.999908"/>
      <use xlink:href="#NotoSans-Regular-67" x="491.799896"/>
      <use xlink:href="#NotoSans-Regular-74" x="553.299881"/>
      <use xlink:href="#NotoSans-Regular-68" x="589.399872"/>
     </g>
    </g>
   </g>
   <g id="matplotlib.axis_6">
    <g id="ytick_7">
     <g id="line2d_43">
      <g>
       <use xlink:href="#m7b623ab747" x="36.2" y="264.642776" style="stroke: #000000; stroke-width: 0.6"/>
      </g>
     </g>
     <g id="line2d_44">
      <g>
       <use xlink:href="#m7c9ffe7a99" x="185.149244" y="264.642776" style="stroke: #000000; stroke-width: 0.6"/>
      </g>
     </g>
     <g id="text_18">
      <!-- $\mathdefault{20}$ -->
      <g transform="translate(21.2 268.442776) scale(0.1 -0.1)">
       <use xlink:href="#NotoSans-Regular-32" transform="translate(0 0.5)"/>
       <use xlink:href="#NotoSans-Regular-30" transform="translate(57.199997 0.5)"/>
      </g>
     </g>
    </g>
    <g id="ytick_8">
     <g id="line2d_45">
      <g>
       <use xlink:href="#m7b623ab747" x="36.2" y="240.970155" style="stroke: #000000; stroke-width: 0.6"/>
      </g>
     </g>
     <g id="line2d_46">
      <g>
       <use xlink:href="#m7c9ffe7a99" x="185.149244" y="240.970155" style="stroke: #000000; stroke-width: 0.6"/>
      </g>
     </g>
     <g id="text_19">
      <!-- $\mathdefault{40}$ -->
      <g transform="translate(21.2 244.770155) scale(0.1 -0.1)">
       <use xlink:href="#NotoSans-Regular-34" transform="translate(0 0.5)"/>
       <use xlink:href="#NotoSans-Regular-30" transform="translate(57.199997 0.5)"/>
      </g>
     </g>
    </g>
    <g id="ytick_9">
     <g id="line2d_47">
      <g>
       <use xlink:href="#m7b623ab747" x="36.2" y="217.297533" style="stroke: #000000; stroke-width: 0.6"/>
      </g>
     </g>
     <g id="line2d_48">
      <g>
       <use xlink:href="#m7c9ffe7a99" x="185.149244" y="217.297533" style="stroke: #000000; stroke-width: 0.6"/>
      </g>
     </g>
     <g id="text_20">
      <!-- $\mathdefault{60}$ -->
      <g transform="translate(21.2 221.097533) scale(0.1 -0.1)">
       <defs>
        <path id="NotoSans-Regular-36" d="M 352 1952 
Q 352 2349 406 2733 
Q 461 3117 595 3459 
Q 730 3802 966 4067 
Q 1203 4333 1564 4483 
Q 1926 4634 2445 4634 
Q 2579 4634 2742 4621 
Q 2906 4608 3008 4576 
L 3008 4096 
Q 2893 4134 2749 4153 
Q 2605 4173 2458 4173 
Q 2016 4173 1721 4025 
Q 1427 3878 1257 3622 
Q 1088 3366 1011 3033 
Q 934 2701 915 2323 
L 954 2323 
Q 1050 2477 1197 2598 
Q 1344 2720 1552 2790 
Q 1760 2861 2035 2861 
Q 2432 2861 2729 2697 
Q 3027 2534 3193 2224 
Q 3360 1914 3360 1472 
Q 3360 998 3181 652 
Q 3002 307 2678 121 
Q 2355 -64 1907 -64 
Q 1581 -64 1299 57 
Q 1018 179 803 428 
Q 589 678 470 1059 
Q 352 1440 352 1952 
z
M 1901 410 
Q 2304 410 2553 669 
Q 2803 928 2803 1472 
Q 2803 1907 2582 2163 
Q 2362 2419 1920 2419 
Q 1619 2419 1395 2294 
Q 1171 2170 1046 1978 
Q 922 1786 922 1581 
Q 922 1370 982 1165 
Q 1043 960 1168 787 
Q 1293 614 1475 512 
Q 1658 410 1901 410 
z
" transform="scale(0.015625)"/>
       </defs>
       <use xlink:href="#NotoSans-Regular-36" transform="translate(0 0.5)"/>
       <use xlink:href="#NotoSans-Regular-30" transform="translate(57.199997 0.5)"/>
      </g>
     </g>
    </g>
    <g id="ytick_10">
     <g id="line2d_49">
      <g>
       <use xlink:href="#m7b623ab747" x="36.2" y="193.624912" style="stroke: #000000; stroke-width: 0.6"/>
      </g>
     </g>
     <g id="line2d_50">
      <g>
       <use xlink:href="#m7c9ffe7a99" x="185.149244" y="193.624912" style="stroke: #000000; stroke-width: 0.6"/>
      </g>
     </g>
     <g id="text_21">
      <!-- $\mathdefault{80}$ -->
      <g transform="translate(21.2 197.424912) scale(0.1 -0.1)">
       <defs>
        <path id="NotoSans-Regular-38" d="M 1824 4634 
Q 2227 4634 2534 4509 
Q 2842 4384 3018 4141 
Q 3194 3898 3194 3539 
Q 3194 3264 3075 3059 
Q 2957 2854 2758 2697 
Q 2560 2541 2323 2419 
Q 2605 2285 2835 2115 
Q 3066 1946 3203 1722 
Q 3341 1498 3341 1184 
Q 3341 800 3155 521 
Q 2970 243 2634 89 
Q 2298 -64 1843 -64 
Q 1350 -64 1008 83 
Q 666 230 490 502 
Q 314 774 314 1165 
Q 314 1478 445 1708 
Q 576 1939 793 2105 
Q 1011 2272 1261 2387 
Q 1037 2515 854 2678 
Q 672 2842 566 3053 
Q 461 3264 461 3546 
Q 461 3898 640 4138 
Q 819 4378 1126 4506 
Q 1434 4634 1824 4634 
z
M 864 1158 
Q 864 826 1101 605 
Q 1338 384 1830 384 
Q 2298 384 2544 605 
Q 2790 826 2790 1178 
Q 2790 1402 2672 1571 
Q 2554 1741 2339 1875 
Q 2125 2010 1830 2118 
L 1728 2157 
Q 1446 2035 1254 1894 
Q 1062 1754 963 1574 
Q 864 1395 864 1158 
z
M 1818 4179 
Q 1466 4179 1238 4009 
Q 1011 3840 1011 3520 
Q 1011 3283 1123 3123 
Q 1235 2963 1427 2851 
Q 1619 2739 1850 2637 
Q 2074 2733 2250 2848 
Q 2426 2963 2531 3126 
Q 2637 3290 2637 3520 
Q 2637 3840 2413 4009 
Q 2189 4179 1818 4179 
z
" transform="scale(0.015625)"/>
       </defs>
       <use xlink:href="#NotoSans-Regular-38" transform="translate(0 0.5)"/>
       <use xlink:href="#NotoSans-Regular-30" transform="translate(57.199997 0.5)"/>
      </g>
     </g>
    </g>
    <g id="text_22">
     <!-- value -->
     <g transform="translate(14.8 237.032031) rotate(-90) scale(0.1 -0.1)">
      <use xlink:href="#NotoSans-Regular-76"/>
      <use xlink:href="#NotoSans-Regular-61" x="50.799988"/>
      <use xlink:href="#NotoSans-Regular-6c" x="106.899979"/>
      <use xlink:href="#NotoSans-Regular-75" x="132.699966"/>
      <use xlink:href="#NotoSans-Regular-65" x="194.499954"/>
     </g>
    </g>
   </g>
   <g id="patch_13">
    <path d="M 36.2 274.925 
L 36.2 174.05 
" style="fill: none; stroke: #000000; stroke-width: 0.6; stroke-linejoin: miter; stroke-linecap: square"/>
   </g>
   <g id="patch_14">
    <path d="M 185.149244 274.925 
L 185.149244 174.05 
" style="fill: none; stroke: #000000; stroke-width: 0.6; stroke-linejoin: miter; stroke-linecap: square"/>
   </g>
   <g id="patch_15">
    <path d="M 36.2 274.925 
L 185.149244 274.925 
" style="fill: none; stroke: #000000; stroke-width: 0.6; stroke-linejoin: miter; stroke-linecap: square"/>
   </g>
   <g id="patch_16">
    <path d="M 36.2 174.05 
L 185.149244 174.05 
" style="fill: none; stroke: #000000; stroke-width: 0.6; stroke-linejoin: miter; stroke-linecap: square"/>
   </g>
   <g id="text_23">
    <!-- $\tau_1$ (ps) -->
    <g transform="translate(96.674622 170.05) scale(0.1 -0.1)">
     <defs>
      <path id="NotoSans-Italic-3c4" d="M 1613 -64 
Q 1267 -64 1030 102 
Q 794 269 794 685 
Q 794 794 819 954 
Q 845 1114 877 1267 
L 1235 2950 
L 269 2950 
L 371 3430 
L 2938 3430 
L 2835 2950 
L 1798 2950 
L 1434 1254 
Q 1402 1107 1382 979 
Q 1363 851 1363 749 
Q 1363 602 1443 499 
Q 1523 397 1702 397 
Q 1811 397 1920 419 
Q 2029 442 2157 480 
L 2157 51 
Q 2080 13 1917 -25 
Q 1754 -64 1613 -64 
z
" transform="scale(0.015625)"/>
      <path id="NotoSans-Regular-70" d="M 2176 3494 
Q 2810 3494 3197 3052 
Q 3584 2611 3584 1722 
Q 3584 1139 3408 739 
Q 3232 339 2915 137 
Q 2598 -64 2170 -64 
Q 1907 -64 1702 6 
Q 1498 77 1354 189 
Q 1210 301 1107 435 
L 1069 435 
Q 1082 326 1094 160 
Q 1107 -6 1107 -128 
L 1107 -1536 
L 544 -1536 
L 544 3430 
L 1005 3430 
L 1082 2963 
L 1107 2963 
Q 1210 3110 1354 3232 
Q 1498 3354 1699 3424 
Q 1901 3494 2176 3494 
z
M 2074 3021 
Q 1728 3021 1517 2889 
Q 1306 2758 1210 2496 
Q 1114 2234 1107 1830 
L 1107 1722 
Q 1107 1299 1196 1004 
Q 1286 710 1500 556 
Q 1715 403 2086 403 
Q 2400 403 2601 576 
Q 2803 749 2902 1046 
Q 3002 1344 3002 1728 
Q 3002 2317 2774 2669 
Q 2547 3021 2074 3021 
z
" transform="scale(0.015625)"/>
     </defs>
     <use xlink:href="#NotoSans-Italic-3c4" transform="translate(0 0.59375)"/>
     <use xlink:href="#NotoSans-Regular-31" transform="translate(40.999985 -15.484375) scale(0.7)"/>
     <use xlink:href="#NotoSans-Regular-20" transform="translate(83.71967 0.59375)"/>
     <use xlink:href="#NotoSans-Regular-28" transform="translate(109.719655 0.59375)"/>
     <use xlink:href="#NotoSans-Regular-70" transform="translate(139.71964 0.59375)"/>
     <use xlink:href="#NotoSans-Regular-73" transform="translate(201.219624 0.59375)"/>
     <use xlink:href="#NotoSans-Regular-29" transform="translate(249.119618 0.59375)"/>
    </g>
   </g>
  </g>
  <g id="axes_4">
   <g id="patch_17">
    <path d="M 259.130126 274.925 
L 408.07937 274.925 
L 408.07937 174.05 
L 259.130126 174.05 
z
" style="fill: #ffffff"/>
   </g>
   <g id="PathCollection_4">
    <g clip-path="url(#pc7c62ed018)">
     <use xlink:href="#md8a41971f6" x="293.388452" y="178.635227" style="stroke: #ffffff; stroke-width: 0.357771"/>
     <use xlink:href="#md8a41971f6" x="388.715968" y="237.131279" style="stroke: #ffffff; stroke-width: 0.357771"/>
     <use xlink:href="#md8a41971f6" x="342.541703" y="246.814971" style="stroke: #ffffff; stroke-width: 0.357771"/>
     <use xlink:href="#md8a41971f6" x="408.07937" y="233.708263" style="stroke: #ffffff; stroke-width: 0.357771"/>
     <use xlink:href="#md8a41971f6" x="402.1214" y="266.590765" style="stroke: #ffffff; stroke-width: 0.357771"/>
     <use xlink:href="#md8a41971f6" x="367.863074" y="270.339773" style="stroke: #ffffff; stroke-width: 0.357771"/>
     <use xlink:href="#md8a41971f6" x="317.220331" y="262.217155" style="stroke: #ffffff; stroke-width: 0.357771"/>
    </g>
   </g>
   <g id="matplotlib.axis_7">
    <g id="xtick_16">
     <g id="line2d_51">
      <g>
       <use xlink:href="#m21a8f878bf" x="259.130126" y="274.925" style="stroke: #000000; stroke-width: 0.6"/>
      </g>
     </g>
     <g id="line2d_52">
      <g>
       <use xlink:href="#m2f18b3f6f9" x="259.130126" y="174.05" style="stroke: #000000; stroke-width: 0.6"/>
      </g>
     </g>
     <g id="text_24">
      <!-- $\mathdefault{0.00}$ -->
      <g transform="translate(249.180126 286.025) scale(0.1 -0.1)">
       <use xlink:href="#NotoSans-Regular-30" transform="translate(0 0.5)"/>
       <use xlink:href="#NotoSans-Regular-2e" transform="translate(57.199997 0.5)"/>
       <use xlink:href="#NotoSans-Regular-30" transform="translate(83.999985 0.5)"/>
       <use xlink:href="#NotoSans-Regular-30" transform="translate(141.199982 0.5)"/>
      </g>
     </g>
    </g>
    <g id="xtick_17">
     <g id="line2d_53">
      <g>
       <use xlink:href="#m21a8f878bf" x="296.367437" y="274.925" style="stroke: #000000; stroke-width: 0.6"/>
      </g>
     </g>
     <g id="line2d_54">
      <g>
       <use xlink:href="#m2f18b3f6f9" x="296.367437" y="174.05" style="stroke: #000000; stroke-width: 0.6"/>
      </g>
     </g>
     <g id="text_25">
      <!-- $\mathdefault{0.25}$ -->
      <g transform="translate(286.417437 286.025) scale(0.1 -0.1)">
       <use xlink:href="#NotoSans-Regular-30" transform="translate(0 0.5)"/>
       <use xlink:href="#NotoSans-Regular-2e" transform="translate(57.199997 0.5)"/>
       <use xlink:href="#NotoSans-Regular-32" transform="translate(83.999985 0.5)"/>
       <use xlink:href="#NotoSans-Regular-35" transform="translate(141.199982 0.5)"/>
      </g>
     </g>
    </g>
    <g id="xtick_18">
     <g id="line2d_55">
      <g>
       <use xlink:href="#m21a8f878bf" x="333.604748" y="274.925" style="stroke: #000000; stroke-width: 0.6"/>
      </g>
     </g>
     <g id="line2d_56">
      <g>
       <use xlink:href="#m2f18b3f6f9" x="333.604748" y="174.05" style="stroke: #000000; stroke-width: 0.6"/>
      </g>
     </g>
     <g id="text_26">
      <!-- $\mathdefault{0.50}$ -->
      <g transform="translate(323.654748 286.025) scale(0.1 -0.1)">
       <use xlink:href="#NotoSans-Regular-30" transform="translate(0 0.5)"/>
       <use xlink:href="#NotoSans-Regular-2e" transform="translate(57.199997 0.5)"/>
       <use xlink:href="#NotoSans-Regular-35" transform="translate(83.999985 0.5)"/>
       <use xlink:href="#NotoSans-Regular-30" transform="translate(141.199982 0.5)"/>
      </g>
     </g>
    </g>
    <g id="xtick_19">
     <g id="line2d_57">
      <g>
       <use xlink:href="#m21a8f878bf" x="370.842059" y="274.925" style="stroke: #000000; stroke-width: 0.6"/>
      </g>
     </g>
     <g id="line2d_58">
      <g>
       <use xlink:href="#m2f18b3f6f9" x="370.842059" y="174.05" style="stroke: #000000; stroke-width: 0.6"/>
      </g>
     </g>
     <g id="text_27">
      <!-- $\mathdefault{0.75}$ -->
      <g transform="translate(360.892059 286.025) scale(0.1 -0.1)">
       <use xlink:href="#NotoSans-Regular-30" transform="translate(0 0.5)"/>
       <use xlink:href="#NotoSans-Regular-2e" transform="translate(57.199997 0.5)"/>
       <use xlink:href="#NotoSans-Regular-37" transform="translate(83.999985 0.5)"/>
       <use xlink:href="#NotoSans-Regular-35" transform="translate(141.199982 0.5)"/>
      </g>
     </g>
    </g>
    <g id="xtick_20">
     <g id="line2d_59">
      <g>
       <use xlink:href="#m21a8f878bf" x="408.07937" y="274.925" style="stroke: #000000; stroke-width: 0.6"/>
      </g>
     </g>
     <g id="line2d_60">
      <g>
       <use xlink:href="#m2f18b3f6f9" x="408.07937" y="174.05" style="stroke: #000000; stroke-width: 0.6"/>
      </g>
     </g>
     <g id="text_28">
      <!-- $\mathdefault{1.00}$ -->
      <g transform="translate(398.12937 286.025) scale(0.1 -0.1)">
       <use xlink:href="#NotoSans-Regular-31" transform="translate(0 0.5)"/>
       <use xlink:href="#NotoSans-Regular-2e" transform="translate(57.199997 0.5)"/>
       <use xlink:href="#NotoSans-Regular-30" transform="translate(83.999985 0.5)"/>
       <use xlink:href="#NotoSans-Regular-30" transform="translate(141.199982 0.5)"/>
      </g>
     </g>
    </g>
    <g id="text_29">
     <!-- field_strength -->
     <g transform="translate(301.044592 300.075) scale(0.1 -0.1)">
      <use xlink:href="#NotoSans-Regular-66"/>
      <use xlink:href="#NotoSans-Regular-69" x="34.399994"/>
      <use xlink:href="#NotoSans-Regular-65" x="60.199982"/>
      <use xlink:href="#NotoSans-Regular-6c" x="116.599976"/>
      <use xlink:href="#NotoSans-Regular-64" x="142.399963"/>
      <use xlink:href="#NotoSans-Regular-5f" x="203.899948"/>
      <use xlink:href="#NotoSans-Regular-73" x="248.299942"/>
      <use xlink:href="#NotoSans-Regular-74" x="296.199936"/>
      <use xlink:href="#NotoSans-Regular-72" x="332.299927"/>
      <use xlink:href="#NotoSans-Regular-65" x="373.599915"/>
      <use xlink:href="#NotoSans-Regular-6e" x="429.999908"/>
      <use xlink:href="#NotoSans-Regular-67" x="491.799896"/>
      <use xlink:href="#NotoSans-Regular-74" x="553.299881"/>
      <use xlink:href="#NotoSans-Regular-68" x="589.399872"/>
     </g>
    </g>
   </g>
   <g id="matplotlib.axis_8">
    <g id="ytick_11">
     <g id="line2d_61">
      <g>
       <use xlink:href="#m7b623ab747" x="259.130126" y="268.881326" style="stroke: #000000; stroke-width: 0.6"/>
      </g>
     </g>
     <g id="line2d_62">
      <g>
       <use xlink:href="#m7c9ffe7a99" x="408.07937" y="268.881326" style="stroke: #000000; stroke-width: 0.6"/>
      </g>
     </g>
     <g id="text_30">
      <!-- $\mathdefault{0.8}$ -->
      <g transform="translate(241.430126 272.681326) scale(0.1 -0.1)">
       <use xlink:href="#NotoSans-Regular-30" transform="translate(0 0.5)"/>
       <use xlink:href="#NotoSans-Regular-2e" transform="translate(57.199997 0.5)"/>
       <use xlink:href="#NotoSans-Regular-38" transform="translate(83.999985 0.5)"/>
      </g>
     </g>
    </g>
    <g id="ytick_12">
     <g id="line2d_63">
      <g>
       <use xlink:href="#m7b623ab747" x="259.130126" y="229.916743" style="stroke: #000000; stroke-width: 0.6"/>
      </g>
     </g>
     <g id="line2d_64">
      <g>
       <use xlink:href="#m7c9ffe7a99" x="408.07937" y="229.916743" style="stroke: #000000; stroke-width: 0.6"/>
      </g>
     </g>
     <g id="text_31">
      <!-- $\mathdefault{1.0}$ -->
      <g transform="translate(241.430126 233.716743) scale(0.1 -0.1)">
       <use xlink:href="#NotoSans-Regular-31" transform="translate(0 0.5)"/>
       <use xlink:href="#NotoSans-Regular-2e" transform="translate(57.199997 0.5)"/>
       <use xlink:href="#NotoSans-Regular-30" transform="translate(83.999985 0.5)"/>
      </g>
     </g>
    </g>
    <g id="ytick_13">
     <g id="line2d_65">
      <g>
       <use xlink:href="#m7b623ab747" x="259.130126" y="190.952161" style="stroke: #000000; stroke-width: 0.6"/>
      </g>
     </g>
     <g id="line2d_66">
      <g>
       <use xlink:href="#m7c9ffe7a99" x="408.07937" y="190.952161" style="stroke: #000000; stroke-width: 0.6"/>
      </g>
     </g>
     <g id="text_32">
      <!-- $\mathdefault{1.2}$ -->
      <g transform="translate(241.430126 194.752161) scale(0.1 -0.1)">
       <use xlink:href="#NotoSans-Regular-31" transform="translate(0 0.59375)"/>
       <use xlink:href="#NotoSans-Regular-2e" transform="translate(57.199997 0.59375)"/>
       <use xlink:href="#NotoSans-Regular-32" transform="translate(83.999985 0.59375)"/>
      </g>
     </g>
    </g>
    <g id="text_33">
     <!-- $\times\mathdefault{10^{3}}\mathdefault{}$ -->
     <g transform="translate(259.130126 171.05) scale(0.1 -0.1)">
      <defs>
       <path id="NotoSans-Regular-33" d="M 3155 3501 
Q 3155 3194 3040 2970 
Q 2925 2746 2710 2605 
Q 2496 2464 2208 2406 
L 2208 2381 
Q 2758 2317 3027 2035 
Q 3296 1754 3296 1299 
Q 3296 902 3110 592 
Q 2925 282 2537 109 
Q 2150 -64 1542 -64 
Q 1184 -64 877 -9 
Q 570 45 288 186 
L 288 710 
Q 576 570 909 490 
Q 1242 410 1549 410 
Q 2163 410 2435 650 
Q 2707 890 2707 1312 
Q 2707 1600 2556 1776 
Q 2406 1952 2118 2035 
Q 1830 2118 1427 2118 
L 986 2118 
L 986 2598 
L 1434 2598 
Q 1811 2598 2064 2707 
Q 2317 2816 2448 3011 
Q 2579 3206 2579 3462 
Q 2579 3795 2355 3977 
Q 2131 4160 1747 4160 
Q 1504 4160 1305 4112 
Q 1107 4064 937 3977 
Q 768 3891 595 3776 
L 314 4160 
Q 557 4352 918 4493 
Q 1280 4634 1741 4634 
Q 2458 4634 2806 4314 
Q 3155 3994 3155 3501 
z
" transform="scale(0.015625)"/>
      </defs>
      <use xlink:href="#NotoSans-Regular-d7" transform="translate(0 0.8)"/>
      <use xlink:href="#NotoSans-Regular-31" transform="translate(57.199997 0.8)"/>
      <use xlink:href="#NotoSans-Regular-30" transform="translate(114.399994 0.8)"/>
      <use xlink:href="#NotoSans-Regular-33" transform="translate(172.537881 38.315625) scale(0.7)"/>
     </g>
    </g>
   </g>
   <g id="patch_18">
    <path d="M 259.130126 274.925 
L 259.130126 174.05 
" style="fill: none; stroke: #000000; stroke-width: 0.6; stroke-linejoin: miter; stroke-linecap: square"/>
   </g>
   <g id="patch_19">
    <path d="M 408.07937 274.925 
L 408.07937 174.05 
" style="fill: none; stroke: #000000; stroke-width: 0.6; stroke-linejoin: miter; stroke-linecap: square"/>
   </g>
   <g id="patch_20">
    <path d="M 259.130126 274.925 
L 408.07937 274.925 
" style="fill: none; stroke: #000000; stroke-width: 0.6; stroke-linejoin: miter; stroke-linecap: square"/>
   </g>
   <g id="patch_21">
    <path d="M 259.130126 174.05 
L 408.07937 174.05 
" style="fill: none; stroke: #000000; stroke-width: 0.6; stroke-linejoin: miter; stroke-linecap: square"/>
   </g>
   <g id="text_34">
    <!-- $\tau_2$ (ps) -->
    <g transform="translate(319.604748 170.05) scale(0.1 -0.1)">
     <use xlink:href="#NotoSans-Italic-3c4" transform="translate(0 0.59375)"/>
     <use xlink:href="#NotoSans-Regular-32" transform="translate(40.999985 -15.484375) scale(0.7)"/>
     <use xlink:href="#NotoSans-Regular-20" transform="translate(83.71967 0.59375)"/>
     <use xlink:href="#NotoSans-Regular-28" transform="translate(109.719655 0.59375)"/>
     <use xlink:href="#NotoSans-Regular-70" transform="translate(139.71964 0.59375)"/>
     <use xlink:href="#NotoSans-Regular-73" transform="translate(201.219624 0.59375)"/>
     <use xlink:href="#NotoSans-Regular-29" transform="translate(249.119618 0.59375)"/>
    </g>
   </g>
  </g>
 </g>
 <defs>
  <clipPath id="p327e401166">
   <rect x="36.2" y="18.8" width="148.949244" height="100.875"/>
  </clipPath>
  <clipPath id="p1ee60251bf">
   <rect x="259.130126" y="18.8" width="148.949244" height="100.875"/>
  </clipPath>
  <clipPath id="pf2005f0154">
   <rect x="36.2" y="174.05" width="148.949244" height="100.875"/>
  </clipPath>
  <clipPath id="pc7c62ed018">
   <rect x="259.130126" y="174.05" width="148.949244" height="100.875"/>
  </clipPath>
 </defs>
</svg>
