<?xml version="1.0" encoding="utf-8" standalone="no"?>
<!DOCTYPE svg PUBLIC "-//W3C//DTD SVG 1.1//EN"
  "http://www.w3.org/Graphics/SVG/1.1/DTD/svg11.dtd">
<svg xmlns:xlink="http://www.w3.org/1999/xlink" width="253.19952pt" height="253.19952pt" viewBox="0 0 253.19952 253.19952" xmlns="http://www.w3.org/2000/svg" version="1.1">
 <metadata>
  <rdf:RDF xmlns:dc="http://purl.org/dc/elements/1.1/" xmlns:cc="http://creativecommons.org/ns#" xmlns:rdf="http://www.w3.org/1999/02/22-rdf-syntax-ns#">
   <cc:Work>
    <dc:type rdf:resource="http://purl.org/dc/dcmitype/StillImage"/>
    <dc:date>2024-07-06T12:09:31.269206</dc:date>
    <dc:format>image/svg+xml</dc:format>
    <dc:creator>
     <cc:Agent>
      <dc:title>Matplotlib v3.9.0, https://matplotlib.org/</dc:title>
     </cc:Agent>
    </dc:creator>
   </cc:Work>
  </rdf:RDF>
 </metadata>
 <defs>
  <style type="text/css">*{stroke-linejoin: round; stroke-linecap: butt}</style>
 </defs>
 <g id="figure_1">
  <g id="patch_1">
   <path d="M 0 253.19952 
L 253.19952 253.19952 
L 253.19952 0 
L 0 0 
z
" style="fill: #ffffff"/>
  </g>
  <g id="axes_1">
   <g id="patch_2">
    <path d="M 33.7 115.14952 
L 245.99952 115.14952 
L 245.99952 17.8 
L 33.7 17.8 
z
" style="fill: #ffffff"/>
   </g>
   <g id="matplotlib.axis_1">
    <g id="xtick_1">
     <g id="line2d_1">
      <defs>
       <path id="m6881185fe2" d="M 0 0 
L 0 -4 
" style="stroke: #000000; stroke-width: 0.6"/>
      </defs>
      <g>
       <use xlink:href="#m6881185fe2" x="68.246041" y="115.14952" style="stroke: #000000; stroke-width: 0.6"/>
      </g>
     </g>
     <g id="line2d_2">
      <defs>
       <path id="mef05b57d15" d="M 0 0 
L 0 4 
" style="stroke: #000000; stroke-width: 0.6"/>
      </defs>
      <g>
       <use xlink:href="#mef05b57d15" x="68.246041" y="17.8" style="stroke: #000000; stroke-width: 0.6"/>
      </g>
     </g>
    </g>
    <g id="xtick_2">
     <g id="line2d_3">
      <g>
       <use xlink:href="#m6881185fe2" x="114.145861" y="115.14952" style="stroke: #000000; stroke-width: 0.6"/>
      </g>
     </g>
     <g id="line2d_4">
      <g>
       <use xlink:href="#mef05b57d15" x="114.145861" y="17.8" style="stroke: #000000; stroke-width: 0.6"/>
      </g>
     </g>
    </g>
    <g id="xtick_3">
     <g id="line2d_5">
      <g>
       <use xlink:href="#m6881185fe2" x="160.045681" y="115.14952" style="stroke: #000000; stroke-width: 0.6"/>
      </g>
     </g>
     <g id="line2d_6">
      <g>
       <use xlink:href="#mef05b57d15" x="160.045681" y="17.8" style="stroke: #000000; stroke-width: 0.6"/>
      </g>
     </g>
    </g>
    <g id="xtick_4">
     <g id="line2d_7">
      <g>
       <use xlink:href="#m6881185fe2" x="205.945501" y="115.14952" style="stroke: #000000; stroke-width: 0.6"/>
      </g>
     </g>
     <g id="line2d_8">
      <g>
       <use xlink:href="#mef05b57d15" x="205.945501" y="17.8" style="stroke: #000000; stroke-width: 0.6"/>
      </g>
     </g>
    </g>
   </g>
   <g id="matplotlib.axis_2">
    <g id="ytick_1">
     <g id="line2d_9">
      <defs>
       <path id="m5504ebe06c" d="M 0 0 
L 4 0 
" style="stroke: #000000; stroke-width: 0.6"/>
      </defs>
      <g>
       <use xlink:href="#m5504ebe06c" x="33.7" y="108.837882" style="stroke: #000000; stroke-width: 0.6"/>
      </g>
     </g>
     <g id="line2d_10">
      <defs>
       <path id="m9275e6e344" d="M 0 0 
L -4 0 
" style="stroke: #000000; stroke-width: 0.6"/>
      </defs>
      <g>
       <use xlink:href="#m9275e6e344" x="245.99952" y="108.837882" style="stroke: #000000; stroke-width: 0.6"/>
      </g>
     </g>
     <g id="text_1">
      <!-- $\mathdefault{−4}$ -->
      <g transform="translate(21.2 112.637882) scale(0.1 -0.1)">
       <defs>
        <path id="NotoSans-Regular-2212" d="M 256 1466 
L 256 1965 
L 1805 1965 
L 1805 1466 
L 256 1466 
z
" transform="scale(0.015625)"/>
        <path id="NotoSans-Regular-34" d="M 3533 1037 
L 2867 1037 
L 2867 0 
L 2323 0 
L 2323 1037 
L 134 1037 
L 134 1517 
L 2285 4595 
L 2867 4595 
L 2867 1542 
L 3533 1542 
L 3533 1037 
z
M 2323 2982 
Q 2323 3149 2326 3286 
Q 2330 3424 2336 3545 
Q 2342 3667 2345 3779 
Q 2349 3891 2355 3994 
L 2330 3994 
Q 2278 3872 2201 3731 
Q 2125 3590 2054 3494 
L 685 1542 
L 2323 1542 
L 2323 2982 
z
" transform="scale(0.015625)"/>
       </defs>
       <use xlink:href="#NotoSans-Regular-2212" transform="translate(0 0.203125)"/>
       <use xlink:href="#NotoSans-Regular-34" transform="translate(32.199997 0.203125)"/>
      </g>
     </g>
    </g>
    <g id="ytick_2">
     <g id="line2d_11">
      <g>
       <use xlink:href="#m5504ebe06c" x="33.7" y="69.115561" style="stroke: #000000; stroke-width: 0.6"/>
      </g>
     </g>
     <g id="line2d_12">
      <g>
       <use xlink:href="#m9275e6e344" x="245.99952" y="69.115561" style="stroke: #000000; stroke-width: 0.6"/>
      </g>
     </g>
     <g id="text_2">
      <!-- $\mathdefault{−2}$ -->
      <g transform="translate(21.2 72.915561) scale(0.1 -0.1)">
       <defs>
        <path id="NotoSans-Regular-32" d="M 3328 0 
L 307 0 
L 307 467 
L 1504 1677 
Q 1850 2022 2086 2291 
Q 2323 2560 2444 2819 
Q 2566 3078 2566 3386 
Q 2566 3763 2342 3958 
Q 2118 4154 1760 4154 
Q 1427 4154 1174 4038 
Q 922 3923 659 3718 
L 358 4096 
Q 538 4250 752 4371 
Q 966 4493 1219 4563 
Q 1472 4634 1760 4634 
Q 2189 4634 2496 4486 
Q 2803 4339 2972 4067 
Q 3142 3795 3142 3418 
Q 3142 3059 2995 2745 
Q 2848 2432 2585 2128 
Q 2323 1824 1971 1478 
L 1018 538 
L 1018 512 
L 3328 512 
L 3328 0 
z
" transform="scale(0.015625)"/>
       </defs>
       <use xlink:href="#NotoSans-Regular-2212" transform="translate(0 0.59375)"/>
       <use xlink:href="#NotoSans-Regular-32" transform="translate(32.199997 0.59375)"/>
      </g>
     </g>
    </g>
    <g id="ytick_3">
     <g id="line2d_13">
      <g>
       <use xlink:href="#m5504ebe06c" x="33.7" y="29.393241" style="stroke: #000000; stroke-width: 0.6"/>
      </g>
     </g>
     <g id="line2d_14">
      <g>
       <use xlink:href="#m9275e6e344" x="245.99952" y="29.393241" style="stroke: #000000; stroke-width: 0.6"/>
      </g>
     </g>
     <g id="text_3">
      <!-- $\mathdefault{0}$ -->
      <g transform="translate(24.4 33.193241) scale(0.1 -0.1)">
       <defs>
        <path id="NotoSans-Regular-30" d="M 3347 2291 
Q 3347 1734 3264 1299 
Q 3181 864 2998 560 
Q 2816 256 2525 96 
Q 2234 -64 1824 -64 
Q 1312 -64 976 217 
Q 640 499 477 1027 
Q 314 1555 314 2291 
Q 314 3034 464 3558 
Q 614 4083 947 4361 
Q 1280 4640 1824 4640 
Q 2336 4640 2675 4361 
Q 3014 4083 3180 3558 
Q 3347 3034 3347 2291 
z
M 877 2291 
Q 877 1664 969 1248 
Q 1062 832 1270 624 
Q 1478 416 1824 416 
Q 2170 416 2378 621 
Q 2586 826 2682 1245 
Q 2778 1664 2778 2291 
Q 2778 2918 2682 3331 
Q 2586 3744 2378 3952 
Q 2170 4160 1824 4160 
Q 1478 4160 1270 3952 
Q 1062 3744 969 3331 
Q 877 2918 877 2291 
z
" transform="scale(0.015625)"/>
       </defs>
       <use xlink:href="#NotoSans-Regular-30" transform="translate(0 0.5)"/>
      </g>
     </g>
    </g>
    <g id="text_4">
     <!-- $\sigma_\mathrm{LD}$ (S/m) -->
     <g transform="translate(14.8 87.37476) rotate(-90) scale(0.1 -0.1)">
      <defs>
       <path id="NotoSans-Italic-3c3" d="M 1517 -64 
Q 1082 -64 787 163 
Q 493 390 377 803 
Q 262 1216 352 1766 
Q 461 2413 733 2774 
Q 1005 3136 1421 3283 
Q 1837 3430 2355 3430 
L 3808 3430 
L 3706 2950 
L 3002 2950 
Q 3200 2714 3270 2374 
Q 3341 2035 3264 1574 
Q 3206 1229 3062 928 
Q 2918 627 2694 406 
Q 2470 186 2176 61 
Q 1882 -64 1517 -64 
z
M 1613 403 
Q 2080 403 2342 729 
Q 2605 1056 2682 1562 
Q 2733 1837 2723 2083 
Q 2714 2330 2650 2547 
Q 2586 2765 2464 2950 
L 2266 2950 
Q 1888 2950 1616 2838 
Q 1344 2726 1171 2457 
Q 998 2189 922 1702 
Q 870 1344 918 1046 
Q 966 749 1136 576 
Q 1306 403 1613 403 
z
" transform="scale(0.015625)"/>
       <path id="NotoSans-Regular-4c" d="M 621 0 
L 621 4570 
L 1197 4570 
L 1197 512 
L 3194 512 
L 3194 0 
L 621 0 
z
" transform="scale(0.015625)"/>
       <path id="NotoSans-Regular-44" d="M 4282 2330 
Q 4282 1562 3997 1043 
Q 3712 525 3181 262 
Q 2650 0 1894 0 
L 621 0 
L 621 4570 
L 2029 4570 
Q 2720 4570 3225 4314 
Q 3731 4058 4006 3562 
Q 4282 3066 4282 2330 
z
M 3674 2310 
Q 3674 2918 3472 3308 
Q 3270 3699 2883 3888 
Q 2496 4077 1946 4077 
L 1197 4077 
L 1197 493 
L 1818 493 
Q 2746 493 3210 950 
Q 3674 1408 3674 2310 
z
" transform="scale(0.015625)"/>
       <path id="NotoSans-Regular-20" transform="scale(0.015625)"/>
       <path id="NotoSans-Regular-28" d="M 256 1754 
Q 256 2278 355 2777 
Q 454 3277 665 3731 
Q 877 4186 1197 4570 
L 1728 4570 
Q 1280 3968 1053 3245 
Q 826 2522 826 1760 
Q 826 1267 928 780 
Q 1030 294 1228 -157 
Q 1427 -608 1722 -1011 
L 1197 -1011 
Q 877 -634 665 -189 
Q 454 256 355 749 
Q 256 1242 256 1754 
z
" transform="scale(0.015625)"/>
       <path id="NotoSans-Regular-53" d="M 3213 1222 
Q 3213 813 3014 528 
Q 2816 243 2448 89 
Q 2080 -64 1581 -64 
Q 1325 -64 1091 -38 
Q 858 -13 666 35 
Q 474 83 326 154 
L 326 704 
Q 557 602 899 518 
Q 1242 435 1606 435 
Q 1946 435 2176 524 
Q 2406 614 2521 780 
Q 2637 947 2637 1171 
Q 2637 1395 2541 1548 
Q 2445 1702 2211 1833 
Q 1978 1965 1562 2112 
Q 1267 2221 1046 2345 
Q 826 2470 678 2630 
Q 531 2790 457 2995 
Q 384 3200 384 3469 
Q 384 3834 569 4093 
Q 755 4352 1084 4493 
Q 1414 4634 1843 4634 
Q 2221 4634 2534 4563 
Q 2848 4493 3104 4378 
L 2925 3885 
Q 2688 3987 2409 4057 
Q 2131 4128 1830 4128 
Q 1542 4128 1350 4045 
Q 1158 3962 1062 3811 
Q 966 3661 966 3462 
Q 966 3232 1062 3078 
Q 1158 2925 1376 2803 
Q 1594 2682 1965 2541 
Q 2368 2394 2646 2224 
Q 2925 2054 3069 1817 
Q 3213 1581 3213 1222 
z
" transform="scale(0.015625)"/>
       <path id="NotoSans-Regular-2f" d="M 2317 4570 
L 614 0 
L 64 0 
L 1766 4570 
L 2317 4570 
z
" transform="scale(0.015625)"/>
       <path id="NotoSans-Regular-6d" d="M 4307 3494 
Q 4890 3494 5178 3196 
Q 5466 2899 5466 2234 
L 5466 0 
L 4909 0 
L 4909 2208 
Q 4909 2611 4739 2816 
Q 4570 3021 4211 3021 
Q 3712 3021 3497 2733 
Q 3283 2445 3283 1894 
L 3283 0 
L 2726 0 
L 2726 2208 
Q 2726 2477 2649 2659 
Q 2573 2842 2419 2931 
Q 2266 3021 2022 3021 
Q 1677 3021 1478 2877 
Q 1280 2733 1193 2457 
Q 1107 2182 1107 1779 
L 1107 0 
L 544 0 
L 544 3430 
L 998 3430 
L 1082 2963 
L 1114 2963 
Q 1222 3142 1379 3260 
Q 1536 3379 1728 3436 
Q 1920 3494 2125 3494 
Q 2522 3494 2787 3353 
Q 3053 3213 3174 2918 
L 3206 2918 
Q 3379 3213 3676 3353 
Q 3974 3494 4307 3494 
z
" transform="scale(0.015625)"/>
       <path id="NotoSans-Regular-29" d="M 1664 1754 
Q 1664 1242 1565 749 
Q 1466 256 1258 -189 
Q 1050 -634 723 -1011 
L 198 -1011 
Q 493 -608 691 -157 
Q 890 294 992 780 
Q 1094 1267 1094 1760 
Q 1094 2266 992 2758 
Q 890 3251 691 3712 
Q 493 4173 192 4570 
L 723 4570 
Q 1050 4186 1258 3731 
Q 1466 3277 1565 2777 
Q 1664 2278 1664 1754 
z
" transform="scale(0.015625)"/>
      </defs>
      <use xlink:href="#NotoSans-Italic-3c3" transform="translate(0 0.59375)"/>
      <use xlink:href="#NotoSans-Regular-4c" transform="translate(55.599991 -15.484375) scale(0.7)"/>
      <use xlink:href="#NotoSans-Regular-44" transform="translate(92.279987 -15.484375) scale(0.7)"/>
      <use xlink:href="#NotoSans-Regular-20" transform="translate(146.059663 0.59375)"/>
      <use xlink:href="#NotoSans-Regular-28" transform="translate(172.059648 0.59375)"/>
      <use xlink:href="#NotoSans-Regular-53" transform="translate(202.059633 0.59375)"/>
      <use xlink:href="#NotoSans-Regular-2f" transform="translate(256.959627 0.59375)"/>
      <use xlink:href="#NotoSans-Regular-6d" transform="translate(294.159624 0.59375)"/>
      <use xlink:href="#NotoSans-Regular-29" transform="translate(387.659608 0.59375)"/>
     </g>
    </g>
    <g id="text_5">
     <!-- $\times\mathdefault{10^{4}}\mathdefault{}$ -->
     <g transform="translate(33.7 14.8) scale(0.1 -0.1)">
      <defs>
       <path id="NotoSans-Regular-d7" d="M 2918 3674 
L 3238 3347 
L 2150 2259 
L 3232 1171 
L 2912 845 
L 1818 1926 
L 749 845 
L 416 1171 
L 1498 2259 
L 410 3341 
L 742 3674 
L 1824 2579 
L 2918 3674 
z
" transform="scale(0.015625)"/>
       <path id="NotoSans-Regular-31" d="M 2272 0 
L 1722 0 
L 1722 3194 
Q 1722 3379 1725 3507 
Q 1728 3635 1734 3747 
Q 1741 3859 1747 3981 
Q 1645 3878 1561 3808 
Q 1478 3738 1350 3629 
L 864 3232 
L 570 3610 
L 1805 4570 
L 2272 4570 
L 2272 0 
z
" transform="scale(0.015625)"/>
      </defs>
      <use xlink:href="#NotoSans-Regular-d7" transform="translate(0 0.226562)"/>
      <use xlink:href="#NotoSans-Regular-31" transform="translate(57.199997 0.226562)"/>
      <use xlink:href="#NotoSans-Regular-30" transform="translate(114.399994 0.226562)"/>
      <use xlink:href="#NotoSans-Regular-34" transform="translate(172.537881 37.742188) scale(0.7)"/>
     </g>
    </g>
   </g>
   <g id="LineCollection_1">
    <path d="M 72.836023 40.39203 
L 72.836023 29.599942 
" clip-path="url(#peff8bfe286)" style="fill: none; stroke: #1f77b4"/>
    <path d="M 78.344001 46.659774 
L 78.344001 34.968064 
" clip-path="url(#peff8bfe286)" style="fill: none; stroke: #1f77b4"/>
    <path d="M 91.195951 37.779667 
L 91.195951 32.913284 
" clip-path="url(#peff8bfe286)" style="fill: none; stroke: #1f77b4"/>
    <path d="M 138.013767 69.675781 
L 138.013767 49.599092 
" clip-path="url(#peff8bfe286)" style="fill: none; stroke: #1f77b4"/>
    <path d="M 160.963677 73.417214 
L 160.963677 63.40781 
" clip-path="url(#peff8bfe286)" style="fill: none; stroke: #1f77b4"/>
    <path d="M 183.913587 99.455885 
L 183.913587 85.423384 
" clip-path="url(#peff8bfe286)" style="fill: none; stroke: #1f77b4"/>
    <path d="M 206.863497 103.349578 
L 206.863497 98.948346 
" clip-path="url(#peff8bfe286)" style="fill: none; stroke: #1f77b4"/>
   </g>
   <g id="line2d_15">
    <defs>
     <path id="m6f26630d91" d="M 0 1.5 
C 0.397805 1.5 0.77937 1.341951 1.06066 1.06066 
C 1.341951 0.77937 1.5 0.397805 1.5 0 
C 1.5 -0.397805 1.341951 -0.77937 1.06066 -1.06066 
C 0.77937 -1.341951 0.397805 -1.5 0 -1.5 
C -0.397805 -1.5 -0.77937 -1.341951 -1.06066 -1.06066 
C -1.341951 -0.77937 -1.5 -0.397805 -1.5 0 
C -1.5 0.397805 -1.341951 0.77937 -1.06066 1.06066 
C -0.77937 1.341951 -0.397805 1.5 0 1.5 
z
" style="stroke: #1f77b4"/>
    </defs>
    <g clip-path="url(#peff8bfe286)">
     <use xlink:href="#m6f26630d91" x="72.836023" y="34.995986" style="fill: #1f77b4; stroke: #1f77b4"/>
     <use xlink:href="#m6f26630d91" x="78.344001" y="40.813919" style="fill: #1f77b4; stroke: #1f77b4"/>
     <use xlink:href="#m6f26630d91" x="91.195951" y="35.346476" style="fill: #1f77b4; stroke: #1f77b4"/>
     <use xlink:href="#m6f26630d91" x="138.013767" y="59.637437" style="fill: #1f77b4; stroke: #1f77b4"/>
     <use xlink:href="#m6f26630d91" x="160.963677" y="68.412512" style="fill: #1f77b4; stroke: #1f77b4"/>
     <use xlink:href="#m6f26630d91" x="183.913587" y="92.439635" style="fill: #1f77b4; stroke: #1f77b4"/>
     <use xlink:href="#m6f26630d91" x="206.863497" y="101.148962" style="fill: #1f77b4; stroke: #1f77b4"/>
    </g>
   </g>
   <g id="patch_3">
    <path d="M 33.7 115.14952 
L 33.7 17.8 
" style="fill: none; stroke: #000000; stroke-width: 0.6; stroke-linejoin: miter; stroke-linecap: square"/>
   </g>
   <g id="patch_4">
    <path d="M 245.99952 115.14952 
L 245.99952 17.8 
" style="fill: none; stroke: #000000; stroke-width: 0.6; stroke-linejoin: miter; stroke-linecap: square"/>
   </g>
   <g id="patch_5">
    <path d="M 33.7 115.14952 
L 245.99952 115.14952 
" style="fill: none; stroke: #000000; stroke-width: 0.6; stroke-linejoin: miter; stroke-linecap: square"/>
   </g>
   <g id="patch_6">
    <path d="M 33.7 17.8 
L 245.99952 17.8 
" style="fill: none; stroke: #000000; stroke-width: 0.6; stroke-linejoin: miter; stroke-linecap: square"/>
   </g>
  </g>
  <g id="axes_2">
   <g id="patch_7">
    <path d="M 33.7 218.49952 
L 245.99952 218.49952 
L 245.99952 121.15 
L 33.7 121.15 
z
" style="fill: #ffffff"/>
   </g>
   <g id="matplotlib.axis_3">
    <g id="xtick_5">
     <g id="line2d_16">
      <g>
       <use xlink:href="#m6881185fe2" x="68.246041" y="218.49952" style="stroke: #000000; stroke-width: 0.6"/>
      </g>
     </g>
     <g id="line2d_17">
      <g>
       <use xlink:href="#mef05b57d15" x="68.246041" y="121.15" style="stroke: #000000; stroke-width: 0.6"/>
      </g>
     </g>
     <g id="text_6">
      <!-- $\mathdefault{0}$ -->
      <g transform="translate(65.346041 229.59952) scale(0.1 -0.1)">
       <use xlink:href="#NotoSans-Regular-30" transform="translate(0 0.5)"/>
      </g>
     </g>
    </g>
    <g id="xtick_6">
     <g id="line2d_18">
      <g>
       <use xlink:href="#m6881185fe2" x="114.145861" y="218.49952" style="stroke: #000000; stroke-width: 0.6"/>
      </g>
     </g>
     <g id="line2d_19">
      <g>
       <use xlink:href="#mef05b57d15" x="114.145861" y="121.15" style="stroke: #000000; stroke-width: 0.6"/>
      </g>
     </g>
     <g id="text_7">
      <!-- $\mathdefault{50}$ -->
      <g transform="translate(108.395861 229.59952) scale(0.1 -0.1)">
       <defs>
        <path id="NotoSans-Regular-35" d="M 1760 2803 
Q 2227 2803 2572 2643 
Q 2918 2483 3107 2185 
Q 3296 1888 3296 1459 
Q 3296 986 3091 643 
Q 2886 301 2505 118 
Q 2125 -64 1587 -64 
Q 1235 -64 924 0 
Q 614 64 403 186 
L 403 717 
Q 634 576 963 496 
Q 1293 416 1594 416 
Q 1933 416 2185 521 
Q 2438 627 2579 848 
Q 2720 1069 2720 1402 
Q 2720 1850 2445 2090 
Q 2170 2330 1574 2330 
Q 1395 2330 1164 2298 
Q 934 2266 794 2234 
L 512 2413 
L 685 4570 
L 2976 4570 
L 2976 4058 
L 1165 4058 
L 1056 2733 
Q 1165 2752 1350 2777 
Q 1536 2803 1760 2803 
z
" transform="scale(0.015625)"/>
       </defs>
       <use xlink:href="#NotoSans-Regular-35" transform="translate(0 0.5)"/>
       <use xlink:href="#NotoSans-Regular-30" transform="translate(57.199997 0.5)"/>
      </g>
     </g>
    </g>
    <g id="xtick_7">
     <g id="line2d_20">
      <g>
       <use xlink:href="#m6881185fe2" x="160.045681" y="218.49952" style="stroke: #000000; stroke-width: 0.6"/>
      </g>
     </g>
     <g id="line2d_21">
      <g>
       <use xlink:href="#mef05b57d15" x="160.045681" y="121.15" style="stroke: #000000; stroke-width: 0.6"/>
      </g>
     </g>
     <g id="text_8">
      <!-- $\mathdefault{100}$ -->
      <g transform="translate(151.445681 229.59952) scale(0.1 -0.1)">
       <use xlink:href="#NotoSans-Regular-31" transform="translate(0 0.5)"/>
       <use xlink:href="#NotoSans-Regular-30" transform="translate(57.199997 0.5)"/>
       <use xlink:href="#NotoSans-Regular-30" transform="translate(114.399994 0.5)"/>
      </g>
     </g>
    </g>
    <g id="xtick_8">
     <g id="line2d_22">
      <g>
       <use xlink:href="#m6881185fe2" x="205.945501" y="218.49952" style="stroke: #000000; stroke-width: 0.6"/>
      </g>
     </g>
     <g id="line2d_23">
      <g>
       <use xlink:href="#mef05b57d15" x="205.945501" y="121.15" style="stroke: #000000; stroke-width: 0.6"/>
      </g>
     </g>
     <g id="text_9">
      <!-- $\mathdefault{150}$ -->
      <g transform="translate(197.345501 229.59952) scale(0.1 -0.1)">
       <use xlink:href="#NotoSans-Regular-31" transform="translate(0 0.5)"/>
       <use xlink:href="#NotoSans-Regular-35" transform="translate(57.199997 0.5)"/>
       <use xlink:href="#NotoSans-Regular-30" transform="translate(114.399994 0.5)"/>
      </g>
     </g>
    </g>
    <g id="text_10">
     <!-- $T$ (K) -->
     <g transform="translate(129.94976 243.59952) scale(0.1 -0.1)">
      <defs>
       <path id="NotoSans-Italic-54" d="M 973 0 
L 1830 4064 
L 576 4064 
L 685 4570 
L 3770 4570 
L 3667 4064 
L 2413 4064 
L 1549 0 
L 973 0 
z
" transform="scale(0.015625)"/>
       <path id="NotoSans-Regular-4b" d="M 3962 0 
L 3283 0 
L 1664 2182 
L 1197 1773 
L 1197 0 
L 621 0 
L 621 4570 
L 1197 4570 
L 1197 2317 
Q 1389 2534 1587 2752 
Q 1786 2970 1984 3187 
L 3219 4570 
L 3891 4570 
L 2080 2579 
L 3962 0 
z
" transform="scale(0.015625)"/>
      </defs>
      <use xlink:href="#NotoSans-Italic-54" transform="translate(0 0.59375)"/>
      <use xlink:href="#NotoSans-Regular-20" transform="translate(50.099991 0.59375)"/>
      <use xlink:href="#NotoSans-Regular-28" transform="translate(76.099976 0.59375)"/>
      <use xlink:href="#NotoSans-Regular-4b" transform="translate(106.09996 0.59375)"/>
      <use xlink:href="#NotoSans-Regular-29" transform="translate(167.999954 0.59375)"/>
     </g>
    </g>
   </g>
   <g id="matplotlib.axis_4">
    <g id="ytick_4">
     <g id="line2d_24">
      <g>
       <use xlink:href="#m5504ebe06c" x="33.7" y="188.378338" style="stroke: #000000; stroke-width: 0.6"/>
      </g>
     </g>
     <g id="line2d_25">
      <g>
       <use xlink:href="#m9275e6e344" x="245.99952" y="188.378338" style="stroke: #000000; stroke-width: 0.6"/>
      </g>
     </g>
     <g id="text_11">
      <!-- $\mathdefault{0}$ -->
      <g transform="translate(24.4 192.178338) scale(0.1 -0.1)">
       <use xlink:href="#NotoSans-Regular-30" transform="translate(0 0.5)"/>
      </g>
     </g>
    </g>
    <g id="ytick_5">
     <g id="line2d_26">
      <g>
       <use xlink:href="#m5504ebe06c" x="33.7" y="151.271182" style="stroke: #000000; stroke-width: 0.6"/>
      </g>
     </g>
     <g id="line2d_27">
      <g>
       <use xlink:href="#m9275e6e344" x="245.99952" y="151.271182" style="stroke: #000000; stroke-width: 0.6"/>
      </g>
     </g>
     <g id="text_12">
      <!-- $\mathdefault{2}$ -->
      <g transform="translate(24.4 155.071182) scale(0.1 -0.1)">
       <use xlink:href="#NotoSans-Regular-32" transform="translate(0 0.59375)"/>
      </g>
     </g>
    </g>
    <g id="text_13">
     <!-- $\mathscr{E}_0$ -->
     <g transform="translate(18 175.72476) rotate(-90) scale(0.1 -0.1)">
      <defs>
       <path id="STIXGeneral-Italic-2130" d="M 2694 4211 
L 2630 4096 
Q 2349 4205 1926 4205 
Q 1466 4205 1184 4006 
Q 902 3808 902 3494 
Q 902 3155 1254 2960 
Q 1606 2765 2125 2765 
Q 2163 3181 2483 3520 
Q 2803 3859 3228 4035 
Q 3654 4211 4058 4211 
Q 4698 4211 4698 3744 
Q 4698 3347 4074 2985 
Q 3450 2624 2579 2560 
Q 2586 2522 2605 2483 
Q 3085 2464 3085 2285 
Q 3085 2106 2816 2106 
Q 2637 2106 2477 2195 
Q 1914 2048 1571 1664 
Q 1229 1280 1229 858 
Q 1229 544 1478 320 
Q 1728 96 2150 96 
Q 2752 96 3104 480 
Q 3328 723 3328 1024 
Q 3328 1242 3174 1370 
Q 3021 1498 2771 1498 
Q 2432 1498 2134 1245 
Q 1837 992 1722 589 
L 1587 627 
Q 1715 1152 2064 1459 
Q 2413 1766 2880 1766 
Q 3302 1766 3520 1564 
Q 3738 1363 3738 1030 
Q 3738 595 3238 249 
Q 2739 -96 2086 -96 
Q 1504 -96 1104 189 
Q 704 474 704 986 
Q 704 1491 1107 1884 
Q 1510 2278 2221 2426 
L 2221 2438 
Q 2208 2451 2195 2483 
Q 2182 2515 2172 2540 
Q 2163 2566 2150 2566 
Q 1466 2579 1053 2832 
Q 640 3085 640 3514 
Q 640 3878 976 4137 
Q 1312 4397 1850 4397 
Q 2330 4397 2694 4211 
z
M 4435 3763 
Q 4435 3859 4339 3916 
Q 4243 3974 4102 3974 
Q 3642 3974 3142 3577 
Q 2643 3181 2579 2752 
Q 3334 2797 3884 3120 
Q 4435 3443 4435 3763 
z
" transform="scale(0.015625)"/>
      </defs>
      <use xlink:href="#STIXGeneral-Italic-2130" transform="translate(0 0.296875)"/>
      <use xlink:href="#NotoSans-Regular-30" transform="translate(74.999985 -15.78125) scale(0.7)"/>
     </g>
    </g>
   </g>
   <g id="LineCollection_2">
    <path d="M 72.836023 170.301652 
L 72.836023 169.347868 
" clip-path="url(#p3699932a39)" style="fill: none; stroke: #1f77b4"/>
    <path d="M 78.344001 206.699578 
L 78.344001 132.949942 
" clip-path="url(#p3699932a39)" style="fill: none; stroke: #1f77b4"/>
    <path d="M 91.195951 177.910016 
L 91.195951 173.713625 
" clip-path="url(#p3699932a39)" style="fill: none; stroke: #1f77b4"/>
    <path d="M 138.013767 173.317703 
L 138.013767 169.820426 
" clip-path="url(#p3699932a39)" style="fill: none; stroke: #1f77b4"/>
    <path d="M 160.963677 176.553354 
L 160.963677 175.237544 
" clip-path="url(#p3699932a39)" style="fill: none; stroke: #1f77b4"/>
    <path d="M 183.913587 176.715935 
L 183.913587 175.576647 
" clip-path="url(#p3699932a39)" style="fill: none; stroke: #1f77b4"/>
    <path d="M 206.863497 182.47749 
L 206.863497 182.191563 
" clip-path="url(#p3699932a39)" style="fill: none; stroke: #1f77b4"/>
   </g>
   <g id="line2d_28">
    <g clip-path="url(#p3699932a39)">
     <use xlink:href="#m6f26630d91" x="72.836023" y="169.82476" style="fill: #1f77b4; stroke: #1f77b4"/>
     <use xlink:href="#m6f26630d91" x="78.344001" y="169.82476" style="fill: #1f77b4; stroke: #1f77b4"/>
     <use xlink:href="#m6f26630d91" x="91.195951" y="175.811821" style="fill: #1f77b4; stroke: #1f77b4"/>
     <use xlink:href="#m6f26630d91" x="138.013767" y="171.569064" style="fill: #1f77b4; stroke: #1f77b4"/>
     <use xlink:href="#m6f26630d91" x="160.963677" y="175.895449" style="fill: #1f77b4; stroke: #1f77b4"/>
     <use xlink:href="#m6f26630d91" x="183.913587" y="176.146291" style="fill: #1f77b4; stroke: #1f77b4"/>
     <use xlink:href="#m6f26630d91" x="206.863497" y="182.334527" style="fill: #1f77b4; stroke: #1f77b4"/>
    </g>
   </g>
   <g id="patch_8">
    <path d="M 33.7 218.49952 
L 33.7 121.15 
" style="fill: none; stroke: #000000; stroke-width: 0.6; stroke-linejoin: miter; stroke-linecap: square"/>
   </g>
   <g id="patch_9">
    <path d="M 245.99952 218.49952 
L 245.99952 121.15 
" style="fill: none; stroke: #000000; stroke-width: 0.6; stroke-linejoin: miter; stroke-linecap: square"/>
   </g>
   <g id="patch_10">
    <path d="M 33.7 218.49952 
L 245.99952 218.49952 
" style="fill: none; stroke: #000000; stroke-width: 0.6; stroke-linejoin: miter; stroke-linecap: square"/>
   </g>
   <g id="patch_11">
    <path d="M 33.7 121.15 
L 245.99952 121.15 
" style="fill: none; stroke: #000000; stroke-width: 0.6; stroke-linejoin: miter; stroke-linecap: square"/>
   </g>
  </g>
 </g>
 <defs>
  <clipPath id="peff8bfe286">
   <rect x="33.7" y="17.8" width="212.29952" height="97.34952"/>
  </clipPath>
  <clipPath id="p3699932a39">
   <rect x="33.7" y="121.15" width="212.29952" height="97.34952"/>
  </clipPath>
 </defs>
</svg>
