<?xml version="1.0" encoding="utf-8" standalone="no"?>
<!DOCTYPE svg PUBLIC "-//W3C//DTD SVG 1.1//EN"
  "http://www.w3.org/Graphics/SVG/1.1/DTD/svg11.dtd">
<svg xmlns:xlink="http://www.w3.org/1999/xlink" width="253.19952pt" height="253.19952pt" viewBox="0 0 253.19952 253.19952" xmlns="http://www.w3.org/2000/svg" version="1.1">
 <metadata>
  <rdf:RDF xmlns:dc="http://purl.org/dc/elements/1.1/" xmlns:cc="http://creativecommons.org/ns#" xmlns:rdf="http://www.w3.org/1999/02/22-rdf-syntax-ns#">
   <cc:Work>
    <dc:type rdf:resource="http://purl.org/dc/dcmitype/StillImage"/>
    <dc:date>2024-07-06T12:08:59.921344</dc:date>
    <dc:format>image/svg+xml</dc:format>
    <dc:creator>
     <cc:Agent>
      <dc:title>Matplotlib v3.9.0, https://matplotlib.org/</dc:title>
     </cc:Agent>
    </dc:creator>
   </cc:Work>
  </rdf:RDF>
 </metadata>
 <defs>
  <style type="text/css">*{stroke-linejoin: round; stroke-linecap: butt}</style>
 </defs>
 <g id="figure_1">
  <g id="patch_1">
   <path d="M 0 253.19952 
L 253.19952 253.19952 
L 253.19952 0 
L 0 0 
z
" style="fill: #ffffff"/>
  </g>
  <g id="axes_1">
   <g id="patch_2">
    <path d="M 38.9 218.49952 
L 245.99952 218.49952 
L 245.99952 7.2 
L 38.9 7.2 
z
" style="fill: #ffffff"/>
   </g>
   <g id="PolyCollection_1"/>
   <g id="PolyCollection_2"/>
   <g id="PolyCollection_3"/>
   <g id="PolyCollection_4"/>
   <g id="matplotlib.axis_1">
    <g id="xtick_1">
     <g id="line2d_1">
      <defs>
       <path id="m4cec0a39f5" d="M 0 0 
L 0 -4 
" style="stroke: #000000; stroke-width: 0.6"/>
      </defs>
      <g>
       <use xlink:href="#m4cec0a39f5" x="48.349557" y="218.49952" style="stroke: #000000; stroke-width: 0.6"/>
      </g>
     </g>
     <g id="line2d_2">
      <defs>
       <path id="m2dcaf02bd0" d="M 0 0 
L 0 4 
" style="stroke: #000000; stroke-width: 0.6"/>
      </defs>
      <g>
       <use xlink:href="#m2dcaf02bd0" x="48.349557" y="7.2" style="stroke: #000000; stroke-width: 0.6"/>
      </g>
     </g>
     <g id="text_1">
      <!-- $\mathdefault{−2}$ -->
      <g transform="translate(43.849557 229.59952) scale(0.1 -0.1)">
       <defs>
        <path id="NotoSans-Regular-2212" d="M 256 1466 
L 256 1965 
L 1805 1965 
L 1805 1466 
L 256 1466 
z
" transform="scale(0.015625)"/>
        <path id="NotoSans-Regular-32" d="M 3328 0 
L 307 0 
L 307 467 
L 1504 1677 
Q 1850 2022 2086 2291 
Q 2323 2560 2444 2819 
Q 2566 3078 2566 3386 
Q 2566 3763 2342 3958 
Q 2118 4154 1760 4154 
Q 1427 4154 1174 4038 
Q 922 3923 659 3718 
L 358 4096 
Q 538 4250 752 4371 
Q 966 4493 1219 4563 
Q 1472 4634 1760 4634 
Q 2189 4634 2496 4486 
Q 2803 4339 2972 4067 
Q 3142 3795 3142 3418 
Q 3142 3059 2995 2745 
Q 2848 2432 2585 2128 
Q 2323 1824 1971 1478 
L 1018 538 
L 1018 512 
L 3328 512 
L 3328 0 
z
" transform="scale(0.015625)"/>
       </defs>
       <use xlink:href="#NotoSans-Regular-2212" transform="translate(0 0.59375)"/>
       <use xlink:href="#NotoSans-Regular-32" transform="translate(32.199997 0.59375)"/>
      </g>
     </g>
    </g>
    <g id="xtick_2">
     <g id="line2d_3">
      <g>
       <use xlink:href="#m4cec0a39f5" x="99.660603" y="218.49952" style="stroke: #000000; stroke-width: 0.6"/>
      </g>
     </g>
     <g id="line2d_4">
      <g>
       <use xlink:href="#m2dcaf02bd0" x="99.660603" y="7.2" style="stroke: #000000; stroke-width: 0.6"/>
      </g>
     </g>
     <g id="text_2">
      <!-- $\mathdefault{0}$ -->
      <g transform="translate(96.760603 229.59952) scale(0.1 -0.1)">
       <defs>
        <path id="NotoSans-Regular-30" d="M 3347 2291 
Q 3347 1734 3264 1299 
Q 3181 864 2998 560 
Q 2816 256 2525 96 
Q 2234 -64 1824 -64 
Q 1312 -64 976 217 
Q 640 499 477 1027 
Q 314 1555 314 2291 
Q 314 3034 464 3558 
Q 614 4083 947 4361 
Q 1280 4640 1824 4640 
Q 2336 4640 2675 4361 
Q 3014 4083 3180 3558 
Q 3347 3034 3347 2291 
z
M 877 2291 
Q 877 1664 969 1248 
Q 1062 832 1270 624 
Q 1478 416 1824 416 
Q 2170 416 2378 621 
Q 2586 826 2682 1245 
Q 2778 1664 2778 2291 
Q 2778 2918 2682 3331 
Q 2586 3744 2378 3952 
Q 2170 4160 1824 4160 
Q 1478 4160 1270 3952 
Q 1062 3744 969 3331 
Q 877 2918 877 2291 
z
" transform="scale(0.015625)"/>
       </defs>
       <use xlink:href="#NotoSans-Regular-30" transform="translate(0 0.5)"/>
      </g>
     </g>
    </g>
    <g id="xtick_3">
     <g id="line2d_5">
      <g>
       <use xlink:href="#m4cec0a39f5" x="150.971649" y="218.49952" style="stroke: #000000; stroke-width: 0.6"/>
      </g>
     </g>
     <g id="line2d_6">
      <g>
       <use xlink:href="#m2dcaf02bd0" x="150.971649" y="7.2" style="stroke: #000000; stroke-width: 0.6"/>
      </g>
     </g>
     <g id="text_3">
      <!-- $\mathdefault{2}$ -->
      <g transform="translate(148.071649 229.59952) scale(0.1 -0.1)">
       <use xlink:href="#NotoSans-Regular-32" transform="translate(0 0.59375)"/>
      </g>
     </g>
    </g>
    <g id="xtick_4">
     <g id="line2d_7">
      <g>
       <use xlink:href="#m4cec0a39f5" x="202.282694" y="218.49952" style="stroke: #000000; stroke-width: 0.6"/>
      </g>
     </g>
     <g id="line2d_8">
      <g>
       <use xlink:href="#m2dcaf02bd0" x="202.282694" y="7.2" style="stroke: #000000; stroke-width: 0.6"/>
      </g>
     </g>
     <g id="text_4">
      <!-- $\mathdefault{4}$ -->
      <g transform="translate(199.382694 229.59952) scale(0.1 -0.1)">
       <defs>
        <path id="NotoSans-Regular-34" d="M 3533 1037 
L 2867 1037 
L 2867 0 
L 2323 0 
L 2323 1037 
L 134 1037 
L 134 1517 
L 2285 4595 
L 2867 4595 
L 2867 1542 
L 3533 1542 
L 3533 1037 
z
M 2323 2982 
Q 2323 3149 2326 3286 
Q 2330 3424 2336 3545 
Q 2342 3667 2345 3779 
Q 2349 3891 2355 3994 
L 2330 3994 
Q 2278 3872 2201 3731 
Q 2125 3590 2054 3494 
L 685 1542 
L 2323 1542 
L 2323 2982 
z
" transform="scale(0.015625)"/>
       </defs>
       <use xlink:href="#NotoSans-Regular-34" transform="translate(0 0.203125)"/>
      </g>
     </g>
    </g>
    <g id="text_5">
     <!-- time -->
     <g transform="translate(131.859916 243.59952) scale(0.1 -0.1)">
      <defs>
       <path id="NotoSans-Regular-74" d="M 1690 397 
Q 1818 397 1952 419 
Q 2086 442 2170 467 
L 2170 38 
Q 2080 -6 1913 -35 
Q 1747 -64 1594 -64 
Q 1325 -64 1097 29 
Q 870 122 729 352 
Q 589 582 589 998 
L 589 2995 
L 102 2995 
L 102 3264 
L 595 3488 
L 819 4218 
L 1152 4218 
L 1152 3430 
L 2144 3430 
L 2144 2995 
L 1152 2995 
L 1152 1011 
Q 1152 698 1302 547 
Q 1453 397 1690 397 
z
" transform="scale(0.015625)"/>
       <path id="NotoSans-Regular-69" d="M 1107 3430 
L 1107 0 
L 544 0 
L 544 3430 
L 1107 3430 
z
M 832 4717 
Q 960 4717 1059 4630 
Q 1158 4544 1158 4358 
Q 1158 4179 1059 4089 
Q 960 4000 832 4000 
Q 691 4000 595 4089 
Q 499 4179 499 4358 
Q 499 4544 595 4630 
Q 691 4717 832 4717 
z
" transform="scale(0.015625)"/>
       <path id="NotoSans-Regular-6d" d="M 4307 3494 
Q 4890 3494 5178 3196 
Q 5466 2899 5466 2234 
L 5466 0 
L 4909 0 
L 4909 2208 
Q 4909 2611 4739 2816 
Q 4570 3021 4211 3021 
Q 3712 3021 3497 2733 
Q 3283 2445 3283 1894 
L 3283 0 
L 2726 0 
L 2726 2208 
Q 2726 2477 2649 2659 
Q 2573 2842 2419 2931 
Q 2266 3021 2022 3021 
Q 1677 3021 1478 2877 
Q 1280 2733 1193 2457 
Q 1107 2182 1107 1779 
L 1107 0 
L 544 0 
L 544 3430 
L 998 3430 
L 1082 2963 
L 1114 2963 
Q 1222 3142 1379 3260 
Q 1536 3379 1728 3436 
Q 1920 3494 2125 3494 
Q 2522 3494 2787 3353 
Q 3053 3213 3174 2918 
L 3206 2918 
Q 3379 3213 3676 3353 
Q 3974 3494 4307 3494 
z
" transform="scale(0.015625)"/>
       <path id="NotoSans-Regular-65" d="M 1869 3494 
Q 2310 3494 2627 3302 
Q 2944 3110 3113 2761 
Q 3283 2413 3283 1946 
L 3283 1606 
L 934 1606 
Q 947 1024 1232 720 
Q 1517 416 2029 416 
Q 2355 416 2608 477 
Q 2861 538 3130 653 
L 3130 160 
Q 2867 45 2611 -9 
Q 2355 -64 2003 -64 
Q 1517 -64 1142 134 
Q 768 333 560 726 
Q 352 1120 352 1690 
Q 352 2253 541 2656 
Q 730 3059 1072 3276 
Q 1414 3494 1869 3494 
z
M 1862 3034 
Q 1459 3034 1225 2774 
Q 992 2515 947 2054 
L 2694 2054 
Q 2694 2349 2604 2566 
Q 2515 2784 2332 2909 
Q 2150 3034 1862 3034 
z
" transform="scale(0.015625)"/>
      </defs>
      <use xlink:href="#NotoSans-Regular-74"/>
      <use xlink:href="#NotoSans-Regular-69" x="36.099991"/>
      <use xlink:href="#NotoSans-Regular-6d" x="61.899979"/>
      <use xlink:href="#NotoSans-Regular-65" x="155.399963"/>
     </g>
    </g>
   </g>
   <g id="matplotlib.axis_2">
    <g id="ytick_1">
     <g id="line2d_9">
      <defs>
       <path id="med2fff4163" d="M 0 0 
L 4 0 
" style="stroke: #000000; stroke-width: 0.6"/>
      </defs>
      <g>
       <use xlink:href="#med2fff4163" x="38.9" y="198.757955" style="stroke: #000000; stroke-width: 0.6"/>
      </g>
     </g>
     <g id="line2d_10">
      <defs>
       <path id="m9c4d069341" d="M 0 0 
L -4 0 
" style="stroke: #000000; stroke-width: 0.6"/>
      </defs>
      <g>
       <use xlink:href="#m9c4d069341" x="245.99952" y="198.757955" style="stroke: #000000; stroke-width: 0.6"/>
      </g>
     </g>
     <g id="text_6">
      <!-- $\mathdefault{0.0}$ -->
      <g transform="translate(21.2 202.557955) scale(0.1 -0.1)">
       <defs>
        <path id="NotoSans-Regular-2e" d="M 461 346 
Q 461 582 576 678 
Q 691 774 851 774 
Q 1018 774 1136 678 
Q 1254 582 1254 346 
Q 1254 115 1136 12 
Q 1018 -90 851 -90 
Q 691 -90 576 12 
Q 461 115 461 346 
z
" transform="scale(0.015625)"/>
       </defs>
       <use xlink:href="#NotoSans-Regular-30" transform="translate(0 0.5)"/>
       <use xlink:href="#NotoSans-Regular-2e" transform="translate(57.199997 0.5)"/>
       <use xlink:href="#NotoSans-Regular-30" transform="translate(83.999985 0.5)"/>
      </g>
     </g>
    </g>
    <g id="ytick_2">
     <g id="line2d_11">
      <g>
       <use xlink:href="#med2fff4163" x="38.9" y="162.367269" style="stroke: #000000; stroke-width: 0.6"/>
      </g>
     </g>
     <g id="line2d_12">
      <g>
       <use xlink:href="#m9c4d069341" x="245.99952" y="162.367269" style="stroke: #000000; stroke-width: 0.6"/>
      </g>
     </g>
     <g id="text_7">
      <!-- $\mathdefault{0.2}$ -->
      <g transform="translate(21.2 166.167269) scale(0.1 -0.1)">
       <use xlink:href="#NotoSans-Regular-30" transform="translate(0 0.5)"/>
       <use xlink:href="#NotoSans-Regular-2e" transform="translate(57.199997 0.5)"/>
       <use xlink:href="#NotoSans-Regular-32" transform="translate(83.999985 0.5)"/>
      </g>
     </g>
    </g>
    <g id="ytick_3">
     <g id="line2d_13">
      <g>
       <use xlink:href="#med2fff4163" x="38.9" y="125.976582" style="stroke: #000000; stroke-width: 0.6"/>
      </g>
     </g>
     <g id="line2d_14">
      <g>
       <use xlink:href="#m9c4d069341" x="245.99952" y="125.976582" style="stroke: #000000; stroke-width: 0.6"/>
      </g>
     </g>
     <g id="text_8">
      <!-- $\mathdefault{0.4}$ -->
      <g transform="translate(21.2 129.776582) scale(0.1 -0.1)">
       <use xlink:href="#NotoSans-Regular-30" transform="translate(0 0.5)"/>
       <use xlink:href="#NotoSans-Regular-2e" transform="translate(57.199997 0.5)"/>
       <use xlink:href="#NotoSans-Regular-34" transform="translate(83.999985 0.5)"/>
      </g>
     </g>
    </g>
    <g id="ytick_4">
     <g id="line2d_15">
      <g>
       <use xlink:href="#med2fff4163" x="38.9" y="89.585896" style="stroke: #000000; stroke-width: 0.6"/>
      </g>
     </g>
     <g id="line2d_16">
      <g>
       <use xlink:href="#m9c4d069341" x="245.99952" y="89.585896" style="stroke: #000000; stroke-width: 0.6"/>
      </g>
     </g>
     <g id="text_9">
      <!-- $\mathdefault{0.6}$ -->
      <g transform="translate(21.2 93.385896) scale(0.1 -0.1)">
       <defs>
        <path id="NotoSans-Regular-36" d="M 352 1952 
Q 352 2349 406 2733 
Q 461 3117 595 3459 
Q 730 3802 966 4067 
Q 1203 4333 1564 4483 
Q 1926 4634 2445 4634 
Q 2579 4634 2742 4621 
Q 2906 4608 3008 4576 
L 3008 4096 
Q 2893 4134 2749 4153 
Q 2605 4173 2458 4173 
Q 2016 4173 1721 4025 
Q 1427 3878 1257 3622 
Q 1088 3366 1011 3033 
Q 934 2701 915 2323 
L 954 2323 
Q 1050 2477 1197 2598 
Q 1344 2720 1552 2790 
Q 1760 2861 2035 2861 
Q 2432 2861 2729 2697 
Q 3027 2534 3193 2224 
Q 3360 1914 3360 1472 
Q 3360 998 3181 652 
Q 3002 307 2678 121 
Q 2355 -64 1907 -64 
Q 1581 -64 1299 57 
Q 1018 179 803 428 
Q 589 678 470 1059 
Q 352 1440 352 1952 
z
M 1901 410 
Q 2304 410 2553 669 
Q 2803 928 2803 1472 
Q 2803 1907 2582 2163 
Q 2362 2419 1920 2419 
Q 1619 2419 1395 2294 
Q 1171 2170 1046 1978 
Q 922 1786 922 1581 
Q 922 1370 982 1165 
Q 1043 960 1168 787 
Q 1293 614 1475 512 
Q 1658 410 1901 410 
z
" transform="scale(0.015625)"/>
       </defs>
       <use xlink:href="#NotoSans-Regular-30" transform="translate(0 0.5)"/>
       <use xlink:href="#NotoSans-Regular-2e" transform="translate(57.199997 0.5)"/>
       <use xlink:href="#NotoSans-Regular-36" transform="translate(83.999985 0.5)"/>
      </g>
     </g>
    </g>
    <g id="ytick_5">
     <g id="line2d_17">
      <g>
       <use xlink:href="#med2fff4163" x="38.9" y="53.19521" style="stroke: #000000; stroke-width: 0.6"/>
      </g>
     </g>
     <g id="line2d_18">
      <g>
       <use xlink:href="#m9c4d069341" x="245.99952" y="53.19521" style="stroke: #000000; stroke-width: 0.6"/>
      </g>
     </g>
     <g id="text_10">
      <!-- $\mathdefault{0.8}$ -->
      <g transform="translate(21.2 56.99521) scale(0.1 -0.1)">
       <defs>
        <path id="NotoSans-Regular-38" d="M 1824 4634 
Q 2227 4634 2534 4509 
Q 2842 4384 3018 4141 
Q 3194 3898 3194 3539 
Q 3194 3264 3075 3059 
Q 2957 2854 2758 2697 
Q 2560 2541 2323 2419 
Q 2605 2285 2835 2115 
Q 3066 1946 3203 1722 
Q 3341 1498 3341 1184 
Q 3341 800 3155 521 
Q 2970 243 2634 89 
Q 2298 -64 1843 -64 
Q 1350 -64 1008 83 
Q 666 230 490 502 
Q 314 774 314 1165 
Q 314 1478 445 1708 
Q 576 1939 793 2105 
Q 1011 2272 1261 2387 
Q 1037 2515 854 2678 
Q 672 2842 566 3053 
Q 461 3264 461 3546 
Q 461 3898 640 4138 
Q 819 4378 1126 4506 
Q 1434 4634 1824 4634 
z
M 864 1158 
Q 864 826 1101 605 
Q 1338 384 1830 384 
Q 2298 384 2544 605 
Q 2790 826 2790 1178 
Q 2790 1402 2672 1571 
Q 2554 1741 2339 1875 
Q 2125 2010 1830 2118 
L 1728 2157 
Q 1446 2035 1254 1894 
Q 1062 1754 963 1574 
Q 864 1395 864 1158 
z
M 1818 4179 
Q 1466 4179 1238 4009 
Q 1011 3840 1011 3520 
Q 1011 3283 1123 3123 
Q 1235 2963 1427 2851 
Q 1619 2739 1850 2637 
Q 2074 2733 2250 2848 
Q 2426 2963 2531 3126 
Q 2637 3290 2637 3520 
Q 2637 3840 2413 4009 
Q 2189 4179 1818 4179 
z
" transform="scale(0.015625)"/>
       </defs>
       <use xlink:href="#NotoSans-Regular-30" transform="translate(0 0.5)"/>
       <use xlink:href="#NotoSans-Regular-2e" transform="translate(57.199997 0.5)"/>
       <use xlink:href="#NotoSans-Regular-38" transform="translate(83.999985 0.5)"/>
      </g>
     </g>
    </g>
    <g id="ytick_6">
     <g id="line2d_19">
      <g>
       <use xlink:href="#med2fff4163" x="38.9" y="16.804524" style="stroke: #000000; stroke-width: 0.6"/>
      </g>
     </g>
     <g id="line2d_20">
      <g>
       <use xlink:href="#m9c4d069341" x="245.99952" y="16.804524" style="stroke: #000000; stroke-width: 0.6"/>
      </g>
     </g>
     <g id="text_11">
      <!-- $\mathdefault{1.0}$ -->
      <g transform="translate(21.2 20.604524) scale(0.1 -0.1)">
       <defs>
        <path id="NotoSans-Regular-31" d="M 2272 0 
L 1722 0 
L 1722 3194 
Q 1722 3379 1725 3507 
Q 1728 3635 1734 3747 
Q 1741 3859 1747 3981 
Q 1645 3878 1561 3808 
Q 1478 3738 1350 3629 
L 864 3232 
L 570 3610 
L 1805 4570 
L 2272 4570 
L 2272 0 
z
" transform="scale(0.015625)"/>
       </defs>
       <use xlink:href="#NotoSans-Regular-31" transform="translate(0 0.5)"/>
       <use xlink:href="#NotoSans-Regular-2e" transform="translate(57.199997 0.5)"/>
       <use xlink:href="#NotoSans-Regular-30" transform="translate(83.999985 0.5)"/>
      </g>
     </g>
    </g>
    <g id="text_12">
     <!-- X -->
     <g transform="translate(14.8 115.779448) rotate(-90) scale(0.1 -0.1)">
      <defs>
       <path id="NotoSans-Regular-58" d="M 3725 0 
L 3072 0 
L 1862 1984 
L 634 0 
L 26 0 
L 1542 2381 
L 122 4570 
L 762 4570 
L 1882 2778 
L 3008 4570 
L 3616 4570 
L 2202 2394 
L 3725 0 
z
" transform="scale(0.015625)"/>
      </defs>
      <use xlink:href="#NotoSans-Regular-58"/>
     </g>
    </g>
   </g>
   <g id="line2d_21">
    <path d="M 48.313615 199.38371 
L 49.169398 189.0339 
L 50.025181 194.778221 
L 50.880964 195.67929 
L 51.736747 191.637006 
L 52.59253 191.436765 
L 53.448313 197.881914 
L 54.304097 201.849132 
L 55.15988 197.65665 
L 56.015663 195.791915 
L 56.871446 182.538697 
L 57.727229 208.894996 
L 59.438795 193.814575 
L 60.294579 188.645947 
L 61.150362 203.738858 
L 62.006145 187.419504 
L 62.861928 190.58575 
L 63.717711 198.820529 
L 64.573494 197.781794 
L 65.429277 190.635807 
L 66.28506 195.403963 
L 67.140844 192.362839 
L 67.996627 193.126256 
L 68.85241 194.227573 
L 69.708193 187.782401 
L 70.563976 202.29965 
L 72.275542 186.81878 
L 73.987109 189.859883 
L 74.842892 203.663777 
L 75.698675 189.859882 
L 76.554458 203.613724 
L 77.410241 194.790749 
L 78.266024 196.630432 
L 79.121808 196.667971 
L 79.977591 189.246656 
L 80.833374 187.794928 
L 81.689157 188.670976 
L 82.54494 186.017825 
L 83.400723 185.905181 
L 84.256506 189.40935 
L 85.11229 178.308653 
L 85.968073 184.440967 
L 86.823856 174.454091 
L 87.679639 181.324773 
L 88.535422 175.642984 
L 89.391205 172.439196 
L 90.246988 165.531 
L 91.102772 168.50954 
L 91.958555 167.73362 
L 92.814338 156.219958 
L 93.670121 146.283137 
L 95.381687 122.204551 
L 96.23747 114.633055 
L 97.093254 113.606864 
L 97.949037 116.547834 
L 98.80482 121.491205 
L 99.660603 139.262278 
L 100.516386 142.165737 
L 102.227952 122.279625 
L 103.083736 107.361936 
L 103.939519 96.824385 
L 105.651085 59.40496 
L 106.506868 57.465148 
L 107.362651 61.682649 
L 108.218434 64.47343 
L 109.074218 76.637889 
L 109.930001 84.810116 
L 110.785784 77.01329 
L 111.641567 75.962095 
L 112.49735 69.654611 
L 113.353133 52.884698 
L 114.208916 43.073063 
L 115.0647 25.965331 
L 115.920483 30.958726 
L 116.776266 26.966496 
L 117.632049 16.804524 
L 118.487832 33.974811 
L 119.343615 36.953352 
L 120.199398 46.164255 
L 121.055181 59.692761 
L 121.910965 52.74704 
L 122.766748 62.571188 
L 123.622531 63.822714 
L 124.478314 50.807241 
L 125.334097 40.832937 
L 126.18988 47.553334 
L 127.045663 37.941971 
L 127.901447 42.397282 
L 128.75723 49.130257 
L 129.613013 46.514638 
L 130.468796 59.705319 
L 131.324579 55.512803 
L 132.180362 52.108804 
L 133.036145 66.601002 
L 133.891929 65.474654 
L 134.747712 60.356022 
L 135.603495 66.062827 
L 136.459278 66.988955 
L 137.315061 61.019316 
L 138.170844 61.257106 
L 139.026627 73.92217 
L 139.882411 69.567024 
L 140.738194 66.97645 
L 141.593977 69.516928 
L 142.44976 64.223147 
L 143.305543 78.815504 
L 144.161326 69.717187 
L 145.017109 74.059827 
L 145.872893 88.777348 
L 146.728676 84.634889 
L 147.584459 83.007994 
L 148.440242 88.276776 
L 149.296025 88.12654 
L 150.151808 88.451931 
L 151.007591 98.651605 
L 151.863375 82.282105 
L 152.719158 86.386961 
L 153.574941 83.483535 
L 154.430724 97.312432 
L 155.286507 89.22789 
L 156.14229 99.30234 
L 156.998073 88.727278 
L 157.853857 92.794624 
L 158.70964 95.034736 
L 159.565423 91.430505 
L 160.421206 97.950721 
L 161.276989 98.889342 
L 162.132772 91.705832 
L 163.844339 106.560952 
L 164.700122 99.302365 
L 165.555905 104.783887 
L 166.411688 109.038966 
L 167.267471 90.929867 
L 168.123254 91.956148 
L 168.979037 108.050215 
L 169.83482 97.825543 
L 171.546387 102.543722 
L 172.40217 103.657513 
L 173.257953 112.518053 
L 174.113736 101.930452 
L 174.969519 103.131902 
L 175.825302 113.519237 
L 176.681086 119.163453 
L 177.536869 114.182506 
L 178.392652 117.323734 
L 179.248435 111.74213 
L 180.104218 109.577054 
L 180.960001 119.188457 
L 181.815784 113.156328 
L 182.671568 113.068708 
L 183.527351 113.819583 
L 184.383134 119.526361 
L 185.238917 120.690251 
L 186.0947 117.161091 
L 186.950483 117.336266 
L 187.806266 118.475101 
L 188.66205 113.106245 
L 189.517833 114.532934 
L 190.373616 117.186103 
L 191.229399 117.974555 
L 192.085182 110.227824 
L 192.940965 117.035927 
L 193.796748 115.459036 
L 194.652532 119.826734 
L 195.508315 126.559713 
L 196.364098 128.224199 
L 197.219881 121.165819 
L 198.075664 117.361318 
L 198.931447 127.548389 
L 199.78723 122.554947 
L 200.643014 129.300474 
L 201.498797 121.353547 
L 202.35458 133.205115 
L 203.210363 128.749801 
L 204.066146 131.978622 
L 204.921929 121.916723 
L 205.777712 125.596062 
L 206.633496 130.989979 
L 207.489279 134.093661 
L 208.345062 122.880389 
L 209.200845 126.609803 
L 210.056628 133.230134 
L 210.912411 120.640224 
L 211.768194 129.037667 
L 212.623978 126.684881 
L 213.479761 136.509015 
L 214.335544 126.034091 
L 215.191327 125.03294 
L 216.04711 121.616344 
L 216.902893 124.244462 
L 217.758676 128.699747 
L 218.61446 122.692622 
L 219.470243 132.066254 
L 220.326026 127.723628 
L 221.181809 133.89342 
L 222.037592 133.568047 
L 222.893375 133.943516 
L 223.749158 133.943472 
L 224.604941 139.575184 
L 225.460725 133.3803 
L 226.316508 135.870748 
L 227.172291 136.734293 
L 228.028074 134.919659 
L 228.883857 134.018613 
L 229.73964 130.752191 
L 230.595423 135.645496 
L 231.451207 137.360048 
L 232.30699 133.455456 
L 233.162773 135.007244 
L 234.018556 129.200379 
L 234.874339 131.152669 
L 235.730122 137.64788 
L 236.585905 139.299835 
L 236.585905 139.299835 
" clip-path="url(#pe1dd41b6ce)" style="fill: none; stroke: #fff5f0; stroke-linecap: square"/>
   </g>
   <g id="line2d_22">
    <path d="M 48.313615 196.555338 
L 49.169398 200.722769 
L 50.025181 196.53032 
L 50.880964 184.015453 
L 51.736747 195.566655 
L 52.59253 198.532676 
L 53.448313 196.705514 
L 54.304097 204.45221 
L 55.15988 198.319931 
L 56.015663 206.404514 
L 56.871446 196.267501 
L 57.727229 199.283577 
L 58.583012 198.582754 
L 59.438795 202.337218 
L 60.294579 191.586939 
L 61.150362 200.597639 
L 62.006145 204.777604 
L 63.717711 193.802065 
L 65.429277 204.164377 
L 66.28506 194.878354 
L 67.140844 198.495118 
L 67.996627 206.129207 
L 68.85241 194.5905 
L 69.708193 193.689454 
L 70.563976 194.102423 
L 71.419759 192.963566 
L 72.275542 198.019571 
L 73.131326 203.763908 
L 73.987109 196.555343 
L 74.842892 198.319929 
L 75.698675 194.477876 
L 76.554458 196.968327 
L 77.410241 192.738303 
L 78.266024 194.765693 
L 79.121808 191.486816 
L 79.977591 198.657843 
L 80.833374 192.725788 
L 81.689157 189.972519 
L 82.54494 193.026138 
L 83.400723 184.065513 
L 84.256506 188.057758 
L 85.11229 185.955249 
L 85.968073 193.889685 
L 86.823856 178.408792 
L 87.679639 176.418908 
L 88.535422 181.48743 
L 89.391205 169.260422 
L 90.246988 176.83193 
L 91.102772 167.207997 
L 91.958555 167.333122 
L 92.814338 163.728883 
L 93.670121 151.576918 
L 94.525904 151.952347 
L 96.23747 131.853493 
L 97.093254 139.362424 
L 97.949037 132.429214 
L 98.80482 139.462556 
L 99.660603 140.914269 
L 100.516386 145.469666 
L 101.372169 143.529872 
L 102.227952 141.227154 
L 103.083736 122.842792 
L 103.939519 107.937583 
L 104.795302 87.550854 
L 105.651085 87.826221 
L 106.506868 78.289854 
L 108.218434 80.50504 
L 109.074218 96.599134 
L 109.930001 97.137316 
L 110.785784 98.476384 
L 112.49735 84.872685 
L 113.353133 71.394138 
L 114.208916 62.2959 
L 115.0647 47.353134 
L 115.920483 37.116014 
L 116.776266 32.147664 
L 117.632049 44.462207 
L 118.487832 48.028953 
L 119.343615 67.451964 
L 120.199398 66.876303 
L 121.055181 78.327379 
L 121.910965 78.815458 
L 122.766748 83.445971 
L 124.478314 62.633737 
L 125.334097 60.155868 
L 126.18988 65.875126 
L 127.045663 60.055663 
L 127.901447 58.378698 
L 128.75723 63.297071 
L 129.613013 74.823254 
L 130.468796 66.726134 
L 131.324579 71.656947 
L 132.180362 79.403697 
L 133.036145 71.419229 
L 133.891929 78.878034 
L 134.747712 94.033558 
L 135.603495 76.763092 
L 136.459278 84.272 
L 137.315061 85.986554 
L 138.170844 83.909039 
L 139.026627 77.689142 
L 139.882411 80.993093 
L 140.738194 81.230884 
L 142.44976 94.759468 
L 143.305543 94.709424 
L 144.161326 92.606903 
L 145.017109 96.774342 
L 145.872893 93.733199 
L 146.728676 95.36016 
L 147.584459 106.723687 
L 148.440242 111.254109 
L 149.296025 99.552663 
L 150.151808 98.376225 
L 151.007591 104.383376 
L 151.863375 102.34349 
L 152.719158 105.885178 
L 153.574941 100.178386 
L 154.430724 97.737995 
L 155.286507 105.196813 
L 156.14229 103.269579 
L 156.998073 110.978693 
L 157.853857 103.407249 
L 158.70964 113.656867 
L 159.565423 108.012704 
L 160.421206 105.409611 
L 161.276989 115.571675 
L 162.132772 110.252863 
L 162.988555 117.987053 
L 163.844339 121.741519 
L 164.700122 110.665841 
L 165.555905 118.775501 
L 166.411688 117.649125 
L 167.267471 115.759408 
L 168.123254 109.777269 
L 168.979037 114.532927 
L 169.83482 112.355364 
L 170.690604 116.998376 
L 171.546387 117.599081 
L 172.40217 122.805288 
L 173.257953 115.634224 
L 174.113736 129.050173 
L 174.969519 125.345764 
L 175.825302 119.926854 
L 176.681086 122.605048 
L 177.536869 128.086545 
L 180.104218 123.881547 
L 180.960001 125.621113 
L 181.815784 124.732553 
L 182.671568 130.476877 
L 183.527351 132.6044 
L 184.383134 127.26058 
L 185.238917 126.822548 
L 186.0947 129.400559 
L 186.950483 128.512028 
L 187.806266 131.628244 
L 188.66205 128.512046 
L 189.517833 127.060322 
L 190.373616 130.489377 
L 191.229399 132.391623 
L 192.085182 129.951241 
L 192.940965 134.719369 
L 193.796748 131.115137 
L 194.652532 135.895812 
L 195.508315 132.554302 
L 196.364098 131.002475 
L 197.219881 144.6562 
L 198.075664 136.746799 
L 198.931447 132.879744 
L 199.78723 136.171137 
L 200.643014 138.98699 
L 201.498797 132.942299 
L 202.35458 139.437497 
L 203.210363 134.669342 
L 204.066146 138.461364 
L 204.921929 136.721818 
L 205.777712 147.997684 
L 206.633496 144.268234 
L 207.489279 138.135975 
L 208.345062 133.442905 
L 209.200845 140.451225 
L 210.056628 140.150847 
L 210.912411 131.578164 
L 211.768194 135.220005 
L 212.623978 143.705081 
L 213.479761 142.441053 
L 214.335544 134.093681 
L 215.191327 137.910709 
L 216.04711 138.674091 
L 216.902893 141.602575 
L 217.758676 139.712841 
L 219.470243 138.786735 
L 220.326026 136.959576 
L 221.181809 143.642483 
L 222.037592 146.12043 
L 222.893375 152.077514 
L 223.749158 145.069168 
L 224.604941 146.183021 
L 225.460725 135.958372 
L 226.316508 145.945236 
L 227.172291 144.493496 
L 228.028074 146.896353 
L 228.883857 150.438063 
L 229.73964 143.129375 
L 230.595423 145.281969 
L 231.451207 148.798614 
L 232.30699 139.712839 
L 233.162773 149.687195 
L 234.018556 152.853446 
L 234.874339 145.156806 
L 235.730122 147.57216 
L 236.585905 144.743787 
L 236.585905 144.743787 
" clip-path="url(#pe1dd41b6ce)" style="fill: none; stroke: #fca78b; stroke-linecap: square"/>
   </g>
   <g id="line2d_23">
    <path d="M 48.313615 204.064238 
L 49.169398 196.730547 
L 50.025181 206.617287 
L 50.880964 196.417671 
L 51.736747 207.155427 
L 52.59253 190.961201 
L 53.448313 202.349703 
L 54.304097 188.72103 
L 55.15988 197.806819 
L 56.015663 201.210867 
L 56.871446 197.581555 
L 57.727229 196.04224 
L 58.583012 199.208491 
L 59.438795 201.511237 
L 60.294579 200.322304 
L 61.150362 197.681675 
L 62.006145 195.867022 
L 62.861928 203.013009 
L 63.717711 199.896808 
L 64.573494 191.849754 
L 65.429277 205.153043 
L 66.28506 190.110184 
L 67.140844 205.328266 
L 67.996627 199.208489 
L 68.85241 200.197156 
L 69.708193 195.75439 
L 70.563976 190.11018 
L 71.419759 197.143539 
L 72.275542 200.547584 
L 73.131326 198.019579 
L 73.987109 197.518975 
L 74.842892 195.71684 
L 76.554458 200.184645 
L 77.410241 199.508835 
L 78.266024 191.812191 
L 79.121808 193.814602 
L 79.977591 194.089926 
L 80.833374 198.482634 
L 81.689157 190.785991 
L 82.54494 198.970706 
L 83.400723 199.784169 
L 84.256506 191.211495 
L 85.11229 185.91771 
L 85.968073 184.979092 
L 86.823856 185.992795 
L 87.679639 189.071453 
L 88.535422 187.794932 
L 89.391205 188.057763 
L 90.246988 186.017832 
L 91.102772 182.075643 
L 91.958555 174.867059 
L 92.814338 172.514287 
L 93.670121 169.335504 
L 94.525904 162.164493 
L 95.381687 161.814088 
L 96.23747 151.739581 
L 97.093254 149.023865 
L 97.949037 142.829046 
L 98.80482 155.794423 
L 99.660603 156.532808 
L 100.516386 159.74913 
L 101.372169 161.351022 
L 102.227952 161.501204 
L 103.083736 141.940496 
L 103.939519 127.110364 
L 104.795302 116.685511 
L 105.651085 116.047229 
L 106.506868 108.913769 
L 107.362651 117.724239 
L 108.218434 105.134272 
L 109.074218 121.766553 
L 109.930001 128.799893 
L 110.785784 137.347538 
L 111.641567 126.48462 
L 112.49735 120.352364 
L 113.353133 103.645007 
L 114.208916 97.662894 
L 115.0647 90.191517 
L 115.920483 85.298202 
L 116.776266 85.598575 
L 117.632049 79.954385 
L 118.487832 91.50558 
L 119.343615 94.859554 
L 120.199398 96.661703 
L 121.055181 116.159874 
L 121.910965 112.155151 
L 122.766748 111.829721 
L 123.622531 109.164098 
L 124.478314 108.901263 
L 125.334097 103.181972 
L 126.18988 103.657519 
L 127.045663 94.133724 
L 127.901447 105.622409 
L 128.75723 112.518033 
L 129.613013 96.937018 
L 130.468796 107.124172 
L 131.324579 103.20697 
L 132.180362 103.457319 
L 133.036145 112.530565 
L 133.891929 112.480469 
L 134.747712 115.959641 
L 135.603495 113.944747 
L 136.459278 119.839259 
L 137.315061 108.137843 
L 138.170844 121.491225 
L 139.026627 116.99837 
L 139.882411 115.108607 
L 140.738194 118.324924 
L 141.593977 118.938162 
L 142.44976 110.615778 
L 143.305543 120.790387 
L 144.161326 122.529958 
L 145.017109 127.5609 
L 145.872893 126.847586 
L 146.728676 122.655106 
L 147.584459 122.742673 
L 148.440242 112.180159 
L 149.296025 124.519803 
L 150.151808 127.711087 
L 151.863375 123.668795 
L 152.719158 133.80578 
L 153.574941 117.711714 
L 154.430724 127.022762 
L 156.14229 137.998286 
L 156.998073 125.020408 
L 157.853857 128.211694 
L 158.70964 137.810564 
L 159.565423 133.180044 
L 160.421206 132.80466 
L 161.276989 128.048994 
L 162.132772 133.455385 
L 162.988555 134.093661 
L 163.844339 135.708081 
L 164.700122 133.905955 
L 165.555905 137.497721 
L 167.267471 129.500693 
L 168.123254 126.797525 
L 168.979037 138.599009 
L 170.690604 137.097232 
L 171.546387 135.920808 
L 172.40217 148.235443 
L 173.257953 134.431571 
L 174.113736 139.687808 
L 174.969519 150.82604 
L 175.825302 140.351103 
L 176.681086 143.504833 
L 177.536869 139.137164 
L 178.392652 134.031092 
L 179.248435 143.892803 
L 180.104218 138.523926 
L 180.960001 137.735474 
L 181.815784 141.051922 
L 182.671568 145.732466 
L 183.527351 141.652606 
L 184.383134 142.040633 
L 185.238917 142.128195 
L 186.0947 142.628795 
L 186.950483 141.640145 
L 187.806266 142.25334 
L 188.66205 138.43633 
L 189.517833 146.90887 
L 190.373616 138.135974 
L 191.229399 142.929175 
L 192.085182 137.422623 
L 192.940965 141.727731 
L 193.796748 146.883842 
L 194.652532 144.981602 
L 195.508315 146.771223 
L 196.364098 140.939303 
L 197.219881 141.06444 
L 198.075664 151.013752 
L 198.931447 140.100813 
L 199.78723 143.292111 
L 200.643014 144.831414 
L 201.498797 153.904692 
L 202.35458 140.476226 
L 203.210363 148.548311 
L 204.066146 144.768851 
L 204.921929 147.659773 
L 205.777712 149.461914 
L 206.633496 143.755144 
L 207.489279 148.798647 
L 208.345062 148.035232 
L 209.200845 157.333747 
L 210.056628 143.967879 
L 210.912411 153.16633 
L 211.768194 146.996485 
L 212.623978 142.178275 
L 213.479761 155.043537 
L 214.335544 144.893975 
L 215.191327 147.1717 
L 216.04711 146.658567 
L 216.902893 151.551881 
L 217.758676 146.946417 
L 218.61446 151.652017 
L 219.470243 149.987532 
L 220.326026 139.950629 
L 221.181809 152.014945 
L 222.037592 157.133516 
L 223.749158 145.156796 
L 224.604941 143.091831 
L 225.460725 154.317673 
L 226.316508 143.492296 
L 227.172291 156.858206 
L 228.028074 145.745015 
L 228.883857 146.570953 
L 229.73964 150.650833 
L 230.595423 157.471421 
L 231.451207 151.889788 
L 232.30699 152.840927 
L 233.162773 157.033408 
L 234.018556 157.671653 
L 234.874339 148.82367 
L 235.730122 149.011395 
L 236.585905 153.591809 
L 236.585905 153.591809 
" clip-path="url(#pe1dd41b6ce)" style="fill: none; stroke: #e63328; stroke-linecap: square"/>
   </g>
   <g id="line2d_24">
    <path d="M 48.313615 200.222184 
L 49.169398 200.647688 
L 50.025181 202.44984 
L 50.880964 202.587512 
L 51.736747 199.996934 
L 52.59253 201.648887 
L 53.448313 195.303856 
L 54.304097 196.930786 
L 55.15988 199.809195 
L 56.015663 199.446275 
L 56.871446 192.825902 
L 57.727229 197.931975 
L 58.583012 192.700763 
L 59.438795 201.273454 
L 60.294579 202.024337 
L 61.150362 198.945686 
L 62.006145 207.067824 
L 62.861928 194.828281 
L 63.717711 202.612523 
L 64.573494 196.955801 
L 65.429277 194.415296 
L 66.28506 193.26393 
L 67.140844 204.715021 
L 67.996627 199.283577 
L 68.85241 190.69839 
L 69.708193 196.667968 
L 70.563976 192.750812 
L 71.419759 195.791925 
L 72.275542 195.929599 
L 73.131326 196.918264 
L 73.987109 192.150094 
L 74.842892 197.644126 
L 75.698675 199.596458 
L 76.554458 194.490384 
L 78.266024 201.586329 
L 79.121808 197.406356 
L 79.977591 194.415292 
L 80.833374 206.404538 
L 81.689157 197.656634 
L 82.54494 192.575613 
L 83.400723 192.125078 
L 84.256506 202.074388 
L 85.11229 198.094656 
L 85.968073 197.368819 
L 86.823856 196.042223 
L 87.679639 195.066064 
L 88.535422 192.187652 
L 89.391205 197.76929 
L 90.246988 189.934976 
L 91.102772 194.728171 
L 91.958555 194.03984 
L 92.814338 198.332443 
L 93.670121 192.212679 
L 94.525904 188.871215 
L 95.381687 184.803872 
L 96.23747 185.780053 
L 97.093254 181.56254 
L 97.949037 188.220443 
L 98.80482 183.952883 
L 99.660603 183.552404 
L 100.516386 192.037471 
L 101.372169 188.558351 
L 102.227952 189.246648 
L 103.083736 178.120963 
L 103.939519 179.973132 
L 104.795302 175.067319 
L 105.651085 165.956491 
L 106.506868 169.635883 
L 107.362651 161.826582 
L 108.218434 162.815261 
L 109.074218 170.186519 
L 109.930001 182.275879 
L 110.785784 172.163871 
L 111.641567 166.16925 
L 112.49735 178.796749 
L 113.353133 171.175219 
L 114.208916 167.057815 
L 115.0647 159.636476 
L 115.920483 155.644246 
L 116.776266 158.37249 
L 117.632049 165.706191 
L 118.487832 157.146025 
L 119.343615 158.247364 
L 120.199398 161.225873 
L 121.055181 168.346848 
L 121.910965 164.004192 
L 122.766748 164.492237 
L 123.622531 164.529797 
L 124.478314 170.561967 
L 125.334097 160.862941 
L 127.045663 161.188343 
L 127.901447 162.039353 
L 128.75723 155.594177 
L 129.613013 164.96784 
L 130.468796 158.047105 
L 131.324579 161.889146 
L 132.180362 158.44758 
L 133.036145 160.424927 
L 133.891929 164.479743 
L 135.603495 157.158549 
L 136.459278 165.455915 
L 137.315061 165.405866 
L 138.170844 162.965445 
L 139.026627 162.740196 
L 139.882411 160.299744 
L 140.738194 160.587629 
L 141.593977 156.657936 
L 142.44976 161.275942 
L 143.305543 163.053055 
L 144.161326 162.564944 
L 145.017109 160.262251 
L 145.872893 170.349226 
L 146.728676 162.527399 
L 147.584459 161.538741 
L 148.440242 166.632314 
L 149.296025 162.452322 
L 150.151808 166.557197 
L 151.007591 165.105476 
L 151.863375 165.168073 
L 152.719158 171.988647 
L 154.430724 150.42556 
L 155.286507 167.645997 
L 156.14229 163.265808 
L 156.998073 161.300966 
L 157.853857 166.094155 
L 159.565423 164.179377 
L 160.421206 165.143027 
L 161.276989 170.787238 
L 162.988555 162.514929 
L 163.844339 167.958868 
L 164.700122 168.68475 
L 165.555905 162.927895 
L 166.411688 167.057817 
L 167.267471 165.443383 
L 168.123254 160.249716 
L 168.979037 164.292019 
L 169.83482 156.244977 
L 170.690604 162.99047 
L 171.546387 166.36949 
L 172.40217 164.292019 
L 173.257953 161.651415 
L 174.113736 163.040551 
L 174.969519 170.123945 
L 175.825302 159.799207 
L 176.681086 168.922532 
L 177.536869 167.520869 
L 178.392652 170.39928 
L 179.248435 160.024442 
L 180.104218 162.990469 
L 180.960001 166.644834 
L 181.815784 181.099498 
L 182.671568 166.331941 
L 183.527351 165.380812 
L 184.383134 159.774165 
L 185.238917 167.270559 
L 186.0947 169.310465 
L 186.950483 161.388557 
L 187.806266 180.085794 
L 188.66205 168.522047 
L 189.517833 165.994053 
L 190.373616 167.408232 
L 191.229399 158.710392 
L 192.085182 161.889181 
L 192.940965 166.89511 
L 193.796748 175.367685 
L 194.652532 163.791415 
L 195.508315 171.850993 
L 196.364098 157.246149 
L 197.219881 166.907655 
L 198.075664 170.424313 
L 198.931447 180.361105 
L 199.78723 176.256193 
L 200.643014 172.964812 
L 201.498797 166.557189 
L 202.35458 169.948722 
L 203.210363 163.70384 
L 204.066146 175.117388 
L 204.921929 158.585226 
L 205.777712 170.26164 
L 206.633496 177.720468 
L 207.489279 169.022656 
L 208.345062 162.640037 
L 209.200845 172.17639 
L 210.056628 171.575662 
L 211.768194 166.519692 
L 212.623978 173.790813 
L 213.479761 165.96902 
L 214.335544 170.787243 
L 215.191327 170.937419 
L 216.04711 162.59001 
L 216.902893 177.357515 
L 217.758676 172.401655 
L 218.61446 162.790231 
L 220.326026 172.526814 
L 221.181809 164.629929 
L 222.037592 174.967206 
L 222.893375 164.942785 
L 223.749158 168.94754 
L 224.604941 166.857561 
L 225.460725 167.833728 
L 226.316508 172.151351 
L 227.172291 167.608468 
L 228.028074 171.362909 
L 228.883857 173.928474 
L 229.73964 171.450504 
L 230.595423 169.886194 
L 231.451207 171.550644 
L 232.30699 169.072712 
L 233.162773 170.424291 
L 234.018556 166.144215 
L 234.874339 166.532165 
L 235.730122 158.435082 
L 236.585905 167.858767 
L 236.585905 167.858767 
" clip-path="url(#pe1dd41b6ce)" style="fill: none; stroke: #67000d; stroke-linecap: square"/>
   </g>
   <g id="line2d_25"/>
   <g id="line2d_26"/>
   <g id="line2d_27"/>
   <g id="line2d_28"/>
   <g id="patch_3">
    <path d="M 38.9 218.49952 
L 38.9 7.2 
" style="fill: none; stroke: #000000; stroke-width: 0.6; stroke-linejoin: miter; stroke-linecap: square"/>
   </g>
   <g id="patch_4">
    <path d="M 245.99952 218.49952 
L 245.99952 7.2 
" style="fill: none; stroke: #000000; stroke-width: 0.6; stroke-linejoin: miter; stroke-linecap: square"/>
   </g>
   <g id="patch_5">
    <path d="M 38.9 218.49952 
L 245.99952 218.49952 
" style="fill: none; stroke: #000000; stroke-width: 0.6; stroke-linejoin: miter; stroke-linecap: square"/>
   </g>
   <g id="patch_6">
    <path d="M 38.9 7.2 
L 245.99952 7.2 
" style="fill: none; stroke: #000000; stroke-width: 0.6; stroke-linejoin: miter; stroke-linecap: square"/>
   </g>
   <g id="legend_1">
    <g id="patch_7">
     <path d="M 169.310457 94.2 
L 240.99952 94.2 
L 240.99952 12.2 
L 169.310457 12.2 
z
" style="fill: #ffffff; opacity: 0.9"/>
    </g>
    <g id="text_13">
     <!-- temperature -->
     <g transform="translate(175.310457 25.8) scale(0.1 -0.1)">
      <defs>
       <path id="NotoSans-Regular-70" d="M 2176 3494 
Q 2810 3494 3197 3052 
Q 3584 2611 3584 1722 
Q 3584 1139 3408 739 
Q 3232 339 2915 137 
Q 2598 -64 2170 -64 
Q 1907 -64 1702 6 
Q 1498 77 1354 189 
Q 1210 301 1107 435 
L 1069 435 
Q 1082 326 1094 160 
Q 1107 -6 1107 -128 
L 1107 -1536 
L 544 -1536 
L 544 3430 
L 1005 3430 
L 1082 2963 
L 1107 2963 
Q 1210 3110 1354 3232 
Q 1498 3354 1699 3424 
Q 1901 3494 2176 3494 
z
M 2074 3021 
Q 1728 3021 1517 2889 
Q 1306 2758 1210 2496 
Q 1114 2234 1107 1830 
L 1107 1722 
Q 1107 1299 1196 1004 
Q 1286 710 1500 556 
Q 1715 403 2086 403 
Q 2400 403 2601 576 
Q 2803 749 2902 1046 
Q 3002 1344 3002 1728 
Q 3002 2317 2774 2669 
Q 2547 3021 2074 3021 
z
" transform="scale(0.015625)"/>
       <path id="NotoSans-Regular-72" d="M 2144 3494 
Q 2240 3494 2352 3484 
Q 2464 3475 2547 3456 
L 2477 2938 
Q 2394 2957 2294 2969 
Q 2195 2982 2106 2982 
Q 1907 2982 1728 2899 
Q 1549 2816 1408 2665 
Q 1267 2515 1187 2304 
Q 1107 2093 1107 1830 
L 1107 0 
L 544 0 
L 544 3430 
L 1005 3430 
L 1069 2803 
L 1094 2803 
Q 1203 2995 1356 3152 
Q 1510 3309 1708 3401 
Q 1907 3494 2144 3494 
z
" transform="scale(0.015625)"/>
       <path id="NotoSans-Regular-61" d="M 1843 3488 
Q 2470 3488 2771 3213 
Q 3072 2938 3072 2336 
L 3072 0 
L 2662 0 
L 2554 486 
L 2528 486 
Q 2381 301 2224 176 
Q 2067 51 1865 -6 
Q 1664 -64 1376 -64 
Q 1069 -64 822 45 
Q 576 154 435 381 
Q 294 608 294 954 
Q 294 1466 697 1744 
Q 1101 2022 1939 2048 
L 2522 2067 
L 2522 2272 
Q 2522 2701 2336 2867 
Q 2150 3034 1811 3034 
Q 1542 3034 1299 2954 
Q 1056 2874 845 2771 
L 672 3194 
Q 896 3315 1203 3401 
Q 1510 3488 1843 3488 
z
M 2010 1658 
Q 1370 1632 1123 1453 
Q 877 1274 877 947 
Q 877 659 1053 524 
Q 1229 390 1504 390 
Q 1939 390 2227 630 
Q 2515 870 2515 1370 
L 2515 1677 
L 2010 1658 
z
" transform="scale(0.015625)"/>
       <path id="NotoSans-Regular-75" d="M 3411 3430 
L 3411 0 
L 2950 0 
L 2867 454 
L 2842 454 
Q 2733 275 2560 160 
Q 2387 45 2182 -9 
Q 1978 -64 1754 -64 
Q 1344 -64 1065 67 
Q 787 198 646 473 
Q 506 749 506 1184 
L 506 3430 
L 1075 3430 
L 1075 1222 
Q 1075 813 1260 608 
Q 1446 403 1837 403 
Q 2221 403 2441 547 
Q 2662 691 2755 969 
Q 2848 1248 2848 1645 
L 2848 3430 
L 3411 3430 
z
" transform="scale(0.015625)"/>
      </defs>
      <use xlink:href="#NotoSans-Regular-74"/>
      <use xlink:href="#NotoSans-Regular-65" x="36.099991"/>
      <use xlink:href="#NotoSans-Regular-6d" x="92.499985"/>
      <use xlink:href="#NotoSans-Regular-70" x="185.999969"/>
      <use xlink:href="#NotoSans-Regular-65" x="247.499954"/>
      <use xlink:href="#NotoSans-Regular-72" x="303.899948"/>
      <use xlink:href="#NotoSans-Regular-61" x="345.199936"/>
      <use xlink:href="#NotoSans-Regular-74" x="401.299927"/>
      <use xlink:href="#NotoSans-Regular-75" x="437.399918"/>
      <use xlink:href="#NotoSans-Regular-72" x="499.199905"/>
      <use xlink:href="#NotoSans-Regular-65" x="540.499893"/>
     </g>
    </g>
    <g id="line2d_29">
     <path d="M 178.37452 37.3 
L 188.37452 37.3 
L 198.37452 37.3 
" style="fill: none; stroke: #fff5f0; stroke-linecap: square"/>
    </g>
    <g id="text_14">
     <!-- 5.0 -->
     <g transform="translate(206.37452 40.8) scale(0.1 -0.1)">
      <defs>
       <path id="NotoSans-Regular-35" d="M 1760 2803 
Q 2227 2803 2572 2643 
Q 2918 2483 3107 2185 
Q 3296 1888 3296 1459 
Q 3296 986 3091 643 
Q 2886 301 2505 118 
Q 2125 -64 1587 -64 
Q 1235 -64 924 0 
Q 614 64 403 186 
L 403 717 
Q 634 576 963 496 
Q 1293 416 1594 416 
Q 1933 416 2185 521 
Q 2438 627 2579 848 
Q 2720 1069 2720 1402 
Q 2720 1850 2445 2090 
Q 2170 2330 1574 2330 
Q 1395 2330 1164 2298 
Q 934 2266 794 2234 
L 512 2413 
L 685 4570 
L 2976 4570 
L 2976 4058 
L 1165 4058 
L 1056 2733 
Q 1165 2752 1350 2777 
Q 1536 2803 1760 2803 
z
" transform="scale(0.015625)"/>
      </defs>
      <use xlink:href="#NotoSans-Regular-35"/>
      <use xlink:href="#NotoSans-Regular-2e" x="57.199997"/>
      <use xlink:href="#NotoSans-Regular-30" x="83.999985"/>
     </g>
    </g>
    <g id="line2d_30">
     <path d="M 178.37452 52.3 
L 188.37452 52.3 
L 198.37452 52.3 
" style="fill: none; stroke: #fca78b; stroke-linecap: square"/>
    </g>
    <g id="text_15">
     <!-- 50.0 -->
     <g transform="translate(206.37452 55.8) scale(0.1 -0.1)">
      <use xlink:href="#NotoSans-Regular-35"/>
      <use xlink:href="#NotoSans-Regular-30" x="57.199997"/>
      <use xlink:href="#NotoSans-Regular-2e" x="114.399994"/>
      <use xlink:href="#NotoSans-Regular-30" x="141.199982"/>
     </g>
    </g>
    <g id="line2d_31">
     <path d="M 178.37452 67.3 
L 188.37452 67.3 
L 198.37452 67.3 
" style="fill: none; stroke: #e63328; stroke-linecap: square"/>
    </g>
    <g id="text_16">
     <!-- 100.0 -->
     <g transform="translate(206.37452 70.8) scale(0.1 -0.1)">
      <use xlink:href="#NotoSans-Regular-31"/>
      <use xlink:href="#NotoSans-Regular-30" x="57.199997"/>
      <use xlink:href="#NotoSans-Regular-30" x="114.399994"/>
      <use xlink:href="#NotoSans-Regular-2e" x="171.599991"/>
      <use xlink:href="#NotoSans-Regular-30" x="198.399979"/>
     </g>
    </g>
    <g id="line2d_32">
     <path d="M 178.37452 82.3 
L 188.37452 82.3 
L 198.37452 82.3 
" style="fill: none; stroke: #67000d; stroke-linecap: square"/>
    </g>
    <g id="text_17">
     <!-- 150.0 -->
     <g transform="translate(206.37452 85.8) scale(0.1 -0.1)">
      <use xlink:href="#NotoSans-Regular-31"/>
      <use xlink:href="#NotoSans-Regular-35" x="57.199997"/>
      <use xlink:href="#NotoSans-Regular-30" x="114.399994"/>
      <use xlink:href="#NotoSans-Regular-2e" x="171.599991"/>
      <use xlink:href="#NotoSans-Regular-30" x="198.399979"/>
     </g>
    </g>
   </g>
  </g>
 </g>
 <defs>
  <clipPath id="pe1dd41b6ce">
   <rect x="38.9" y="7.2" width="207.09952" height="211.29952"/>
  </clipPath>
 </defs>
</svg>
