<?xml version="1.0" encoding="utf-8" standalone="no"?>
<!DOCTYPE svg PUBLIC "-//W3C//DTD SVG 1.1//EN"
  "http://www.w3.org/Graphics/SVG/1.1/DTD/svg11.dtd">
<svg xmlns:xlink="http://www.w3.org/1999/xlink" width="253.19952pt" height="253.19952pt" viewBox="0 0 253.19952 253.19952" xmlns="http://www.w3.org/2000/svg" version="1.1">
 <metadata>
  <rdf:RDF xmlns:dc="http://purl.org/dc/elements/1.1/" xmlns:cc="http://creativecommons.org/ns#" xmlns:rdf="http://www.w3.org/1999/02/22-rdf-syntax-ns#">
   <cc:Work>
    <dc:type rdf:resource="http://purl.org/dc/dcmitype/StillImage"/>
    <dc:date>2024-07-06T12:08:59.741240</dc:date>
    <dc:format>image/svg+xml</dc:format>
    <dc:creator>
     <cc:Agent>
      <dc:title>Matplotlib v3.9.0, https://matplotlib.org/</dc:title>
     </cc:Agent>
    </dc:creator>
   </cc:Work>
  </rdf:RDF>
 </metadata>
 <defs>
  <style type="text/css">*{stroke-linejoin: round; stroke-linecap: butt}</style>
 </defs>
 <g id="figure_1">
  <g id="patch_1">
   <path d="M 0 253.19952 
L 253.19952 253.19952 
L 253.19952 0 
L 0 0 
z
" style="fill: #ffffff"/>
  </g>
  <g id="axes_1">
   <g id="patch_2">
    <path d="M 42.1 218.49952 
L 245.99952 218.49952 
L 245.99952 7.2 
L 42.1 7.2 
z
" style="fill: #ffffff"/>
   </g>
   <g id="PolyCollection_1"/>
   <g id="PolyCollection_2"/>
   <g id="PolyCollection_3"/>
   <g id="PolyCollection_4"/>
   <g id="matplotlib.axis_1">
    <g id="xtick_1">
     <g id="line2d_1">
      <defs>
       <path id="m57233570c1" d="M 0 0 
L 0 -4 
" style="stroke: #000000; stroke-width: 0.6"/>
      </defs>
      <g>
       <use xlink:href="#m57233570c1" x="77.876157" y="218.49952" style="stroke: #000000; stroke-width: 0.6"/>
      </g>
     </g>
     <g id="line2d_2">
      <defs>
       <path id="m91bf46b3b0" d="M 0 0 
L 0 4 
" style="stroke: #000000; stroke-width: 0.6"/>
      </defs>
      <g>
       <use xlink:href="#m91bf46b3b0" x="77.876157" y="7.2" style="stroke: #000000; stroke-width: 0.6"/>
      </g>
     </g>
     <g id="text_1">
      <!-- $\mathdefault{−1}$ -->
      <g transform="translate(73.376157 229.59952) scale(0.1 -0.1)">
       <defs>
        <path id="NotoSans-Regular-2212" d="M 256 1466 
L 256 1965 
L 1805 1965 
L 1805 1466 
L 256 1466 
z
" transform="scale(0.015625)"/>
        <path id="NotoSans-Regular-31" d="M 2272 0 
L 1722 0 
L 1722 3194 
Q 1722 3379 1725 3507 
Q 1728 3635 1734 3747 
Q 1741 3859 1747 3981 
Q 1645 3878 1561 3808 
Q 1478 3738 1350 3629 
L 864 3232 
L 570 3610 
L 1805 4570 
L 2272 4570 
L 2272 0 
z
" transform="scale(0.015625)"/>
       </defs>
       <use xlink:href="#NotoSans-Regular-2212" transform="translate(0 0.59375)"/>
       <use xlink:href="#NotoSans-Regular-31" transform="translate(32.199997 0.59375)"/>
      </g>
     </g>
    </g>
    <g id="xtick_2">
     <g id="line2d_3">
      <g>
       <use xlink:href="#m57233570c1" x="117.569303" y="218.49952" style="stroke: #000000; stroke-width: 0.6"/>
      </g>
     </g>
     <g id="line2d_4">
      <g>
       <use xlink:href="#m91bf46b3b0" x="117.569303" y="7.2" style="stroke: #000000; stroke-width: 0.6"/>
      </g>
     </g>
     <g id="text_2">
      <!-- $\mathdefault{0}$ -->
      <g transform="translate(114.669303 229.59952) scale(0.1 -0.1)">
       <defs>
        <path id="NotoSans-Regular-30" d="M 3347 2291 
Q 3347 1734 3264 1299 
Q 3181 864 2998 560 
Q 2816 256 2525 96 
Q 2234 -64 1824 -64 
Q 1312 -64 976 217 
Q 640 499 477 1027 
Q 314 1555 314 2291 
Q 314 3034 464 3558 
Q 614 4083 947 4361 
Q 1280 4640 1824 4640 
Q 2336 4640 2675 4361 
Q 3014 4083 3180 3558 
Q 3347 3034 3347 2291 
z
M 877 2291 
Q 877 1664 969 1248 
Q 1062 832 1270 624 
Q 1478 416 1824 416 
Q 2170 416 2378 621 
Q 2586 826 2682 1245 
Q 2778 1664 2778 2291 
Q 2778 2918 2682 3331 
Q 2586 3744 2378 3952 
Q 2170 4160 1824 4160 
Q 1478 4160 1270 3952 
Q 1062 3744 969 3331 
Q 877 2918 877 2291 
z
" transform="scale(0.015625)"/>
       </defs>
       <use xlink:href="#NotoSans-Regular-30" transform="translate(0 0.5)"/>
      </g>
     </g>
    </g>
    <g id="xtick_3">
     <g id="line2d_5">
      <g>
       <use xlink:href="#m57233570c1" x="157.262449" y="218.49952" style="stroke: #000000; stroke-width: 0.6"/>
      </g>
     </g>
     <g id="line2d_6">
      <g>
       <use xlink:href="#m91bf46b3b0" x="157.262449" y="7.2" style="stroke: #000000; stroke-width: 0.6"/>
      </g>
     </g>
     <g id="text_3">
      <!-- $\mathdefault{1}$ -->
      <g transform="translate(154.362449 229.59952) scale(0.1 -0.1)">
       <use xlink:href="#NotoSans-Regular-31" transform="translate(0 0.59375)"/>
      </g>
     </g>
    </g>
    <g id="xtick_4">
     <g id="line2d_7">
      <g>
       <use xlink:href="#m57233570c1" x="196.955595" y="218.49952" style="stroke: #000000; stroke-width: 0.6"/>
      </g>
     </g>
     <g id="line2d_8">
      <g>
       <use xlink:href="#m91bf46b3b0" x="196.955595" y="7.2" style="stroke: #000000; stroke-width: 0.6"/>
      </g>
     </g>
     <g id="text_4">
      <!-- $\mathdefault{2}$ -->
      <g transform="translate(194.055595 229.59952) scale(0.1 -0.1)">
       <defs>
        <path id="NotoSans-Regular-32" d="M 3328 0 
L 307 0 
L 307 467 
L 1504 1677 
Q 1850 2022 2086 2291 
Q 2323 2560 2444 2819 
Q 2566 3078 2566 3386 
Q 2566 3763 2342 3958 
Q 2118 4154 1760 4154 
Q 1427 4154 1174 4038 
Q 922 3923 659 3718 
L 358 4096 
Q 538 4250 752 4371 
Q 966 4493 1219 4563 
Q 1472 4634 1760 4634 
Q 2189 4634 2496 4486 
Q 2803 4339 2972 4067 
Q 3142 3795 3142 3418 
Q 3142 3059 2995 2745 
Q 2848 2432 2585 2128 
Q 2323 1824 1971 1478 
L 1018 538 
L 1018 512 
L 3328 512 
L 3328 0 
z
" transform="scale(0.015625)"/>
       </defs>
       <use xlink:href="#NotoSans-Regular-32" transform="translate(0 0.59375)"/>
      </g>
     </g>
    </g>
    <g id="xtick_5">
     <g id="line2d_9">
      <g>
       <use xlink:href="#m57233570c1" x="236.648741" y="218.49952" style="stroke: #000000; stroke-width: 0.6"/>
      </g>
     </g>
     <g id="line2d_10">
      <g>
       <use xlink:href="#m91bf46b3b0" x="236.648741" y="7.2" style="stroke: #000000; stroke-width: 0.6"/>
      </g>
     </g>
     <g id="text_5">
      <!-- $\mathdefault{3}$ -->
      <g transform="translate(233.748741 229.59952) scale(0.1 -0.1)">
       <defs>
        <path id="NotoSans-Regular-33" d="M 3155 3501 
Q 3155 3194 3040 2970 
Q 2925 2746 2710 2605 
Q 2496 2464 2208 2406 
L 2208 2381 
Q 2758 2317 3027 2035 
Q 3296 1754 3296 1299 
Q 3296 902 3110 592 
Q 2925 282 2537 109 
Q 2150 -64 1542 -64 
Q 1184 -64 877 -9 
Q 570 45 288 186 
L 288 710 
Q 576 570 909 490 
Q 1242 410 1549 410 
Q 2163 410 2435 650 
Q 2707 890 2707 1312 
Q 2707 1600 2556 1776 
Q 2406 1952 2118 2035 
Q 1830 2118 1427 2118 
L 986 2118 
L 986 2598 
L 1434 2598 
Q 1811 2598 2064 2707 
Q 2317 2816 2448 3011 
Q 2579 3206 2579 3462 
Q 2579 3795 2355 3977 
Q 2131 4160 1747 4160 
Q 1504 4160 1305 4112 
Q 1107 4064 937 3977 
Q 768 3891 595 3776 
L 314 4160 
Q 557 4352 918 4493 
Q 1280 4634 1741 4634 
Q 2458 4634 2806 4314 
Q 3155 3994 3155 3501 
z
" transform="scale(0.015625)"/>
       </defs>
       <use xlink:href="#NotoSans-Regular-33" transform="translate(0 0.59375)"/>
      </g>
     </g>
    </g>
    <g id="text_6">
     <!-- time -->
     <g transform="translate(133.459916 243.59952) scale(0.1 -0.1)">
      <defs>
       <path id="NotoSans-Regular-74" d="M 1690 397 
Q 1818 397 1952 419 
Q 2086 442 2170 467 
L 2170 38 
Q 2080 -6 1913 -35 
Q 1747 -64 1594 -64 
Q 1325 -64 1097 29 
Q 870 122 729 352 
Q 589 582 589 998 
L 589 2995 
L 102 2995 
L 102 3264 
L 595 3488 
L 819 4218 
L 1152 4218 
L 1152 3430 
L 2144 3430 
L 2144 2995 
L 1152 2995 
L 1152 1011 
Q 1152 698 1302 547 
Q 1453 397 1690 397 
z
" transform="scale(0.015625)"/>
       <path id="NotoSans-Regular-69" d="M 1107 3430 
L 1107 0 
L 544 0 
L 544 3430 
L 1107 3430 
z
M 832 4717 
Q 960 4717 1059 4630 
Q 1158 4544 1158 4358 
Q 1158 4179 1059 4089 
Q 960 4000 832 4000 
Q 691 4000 595 4089 
Q 499 4179 499 4358 
Q 499 4544 595 4630 
Q 691 4717 832 4717 
z
" transform="scale(0.015625)"/>
       <path id="NotoSans-Regular-6d" d="M 4307 3494 
Q 4890 3494 5178 3196 
Q 5466 2899 5466 2234 
L 5466 0 
L 4909 0 
L 4909 2208 
Q 4909 2611 4739 2816 
Q 4570 3021 4211 3021 
Q 3712 3021 3497 2733 
Q 3283 2445 3283 1894 
L 3283 0 
L 2726 0 
L 2726 2208 
Q 2726 2477 2649 2659 
Q 2573 2842 2419 2931 
Q 2266 3021 2022 3021 
Q 1677 3021 1478 2877 
Q 1280 2733 1193 2457 
Q 1107 2182 1107 1779 
L 1107 0 
L 544 0 
L 544 3430 
L 998 3430 
L 1082 2963 
L 1114 2963 
Q 1222 3142 1379 3260 
Q 1536 3379 1728 3436 
Q 1920 3494 2125 3494 
Q 2522 3494 2787 3353 
Q 3053 3213 3174 2918 
L 3206 2918 
Q 3379 3213 3676 3353 
Q 3974 3494 4307 3494 
z
" transform="scale(0.015625)"/>
       <path id="NotoSans-Regular-65" d="M 1869 3494 
Q 2310 3494 2627 3302 
Q 2944 3110 3113 2761 
Q 3283 2413 3283 1946 
L 3283 1606 
L 934 1606 
Q 947 1024 1232 720 
Q 1517 416 2029 416 
Q 2355 416 2608 477 
Q 2861 538 3130 653 
L 3130 160 
Q 2867 45 2611 -9 
Q 2355 -64 2003 -64 
Q 1517 -64 1142 134 
Q 768 333 560 726 
Q 352 1120 352 1690 
Q 352 2253 541 2656 
Q 730 3059 1072 3276 
Q 1414 3494 1869 3494 
z
M 1862 3034 
Q 1459 3034 1225 2774 
Q 992 2515 947 2054 
L 2694 2054 
Q 2694 2349 2604 2566 
Q 2515 2784 2332 2909 
Q 2150 3034 1862 3034 
z
" transform="scale(0.015625)"/>
      </defs>
      <use xlink:href="#NotoSans-Regular-74"/>
      <use xlink:href="#NotoSans-Regular-69" x="36.099991"/>
      <use xlink:href="#NotoSans-Regular-6d" x="61.899979"/>
      <use xlink:href="#NotoSans-Regular-65" x="155.399963"/>
     </g>
    </g>
   </g>
   <g id="matplotlib.axis_2">
    <g id="ytick_1">
     <g id="line2d_11">
      <defs>
       <path id="me3248ebf1e" d="M 0 0 
L 4 0 
" style="stroke: #000000; stroke-width: 0.6"/>
      </defs>
      <g>
       <use xlink:href="#me3248ebf1e" x="42.1" y="205.190123" style="stroke: #000000; stroke-width: 0.6"/>
      </g>
     </g>
     <g id="line2d_12">
      <defs>
       <path id="m2f830abd74" d="M 0 0 
L -4 0 
" style="stroke: #000000; stroke-width: 0.6"/>
      </defs>
      <g>
       <use xlink:href="#m2f830abd74" x="245.99952" y="205.190123" style="stroke: #000000; stroke-width: 0.6"/>
      </g>
     </g>
     <g id="text_7">
      <!-- $\mathdefault{−0.2}$ -->
      <g transform="translate(21.2 208.990123) scale(0.1 -0.1)">
       <defs>
        <path id="NotoSans-Regular-2e" d="M 461 346 
Q 461 582 576 678 
Q 691 774 851 774 
Q 1018 774 1136 678 
Q 1254 582 1254 346 
Q 1254 115 1136 12 
Q 1018 -90 851 -90 
Q 691 -90 576 12 
Q 461 115 461 346 
z
" transform="scale(0.015625)"/>
       </defs>
       <use xlink:href="#NotoSans-Regular-2212" transform="translate(0 0.5)"/>
       <use xlink:href="#NotoSans-Regular-30" transform="translate(32.199997 0.5)"/>
       <use xlink:href="#NotoSans-Regular-2e" transform="translate(89.399994 0.5)"/>
       <use xlink:href="#NotoSans-Regular-32" transform="translate(116.199982 0.5)"/>
      </g>
     </g>
    </g>
    <g id="ytick_2">
     <g id="line2d_13">
      <g>
       <use xlink:href="#me3248ebf1e" x="42.1" y="173.792523" style="stroke: #000000; stroke-width: 0.6"/>
      </g>
     </g>
     <g id="line2d_14">
      <g>
       <use xlink:href="#m2f830abd74" x="245.99952" y="173.792523" style="stroke: #000000; stroke-width: 0.6"/>
      </g>
     </g>
     <g id="text_8">
      <!-- $\mathdefault{0.0}$ -->
      <g transform="translate(24.4 177.592523) scale(0.1 -0.1)">
       <use xlink:href="#NotoSans-Regular-30" transform="translate(0 0.5)"/>
       <use xlink:href="#NotoSans-Regular-2e" transform="translate(57.199997 0.5)"/>
       <use xlink:href="#NotoSans-Regular-30" transform="translate(83.999985 0.5)"/>
      </g>
     </g>
    </g>
    <g id="ytick_3">
     <g id="line2d_15">
      <g>
       <use xlink:href="#me3248ebf1e" x="42.1" y="142.394923" style="stroke: #000000; stroke-width: 0.6"/>
      </g>
     </g>
     <g id="line2d_16">
      <g>
       <use xlink:href="#m2f830abd74" x="245.99952" y="142.394923" style="stroke: #000000; stroke-width: 0.6"/>
      </g>
     </g>
     <g id="text_9">
      <!-- $\mathdefault{0.2}$ -->
      <g transform="translate(24.4 146.194923) scale(0.1 -0.1)">
       <use xlink:href="#NotoSans-Regular-30" transform="translate(0 0.5)"/>
       <use xlink:href="#NotoSans-Regular-2e" transform="translate(57.199997 0.5)"/>
       <use xlink:href="#NotoSans-Regular-32" transform="translate(83.999985 0.5)"/>
      </g>
     </g>
    </g>
    <g id="ytick_4">
     <g id="line2d_17">
      <g>
       <use xlink:href="#me3248ebf1e" x="42.1" y="110.997323" style="stroke: #000000; stroke-width: 0.6"/>
      </g>
     </g>
     <g id="line2d_18">
      <g>
       <use xlink:href="#m2f830abd74" x="245.99952" y="110.997323" style="stroke: #000000; stroke-width: 0.6"/>
      </g>
     </g>
     <g id="text_10">
      <!-- $\mathdefault{0.4}$ -->
      <g transform="translate(24.4 114.797323) scale(0.1 -0.1)">
       <defs>
        <path id="NotoSans-Regular-34" d="M 3533 1037 
L 2867 1037 
L 2867 0 
L 2323 0 
L 2323 1037 
L 134 1037 
L 134 1517 
L 2285 4595 
L 2867 4595 
L 2867 1542 
L 3533 1542 
L 3533 1037 
z
M 2323 2982 
Q 2323 3149 2326 3286 
Q 2330 3424 2336 3545 
Q 2342 3667 2345 3779 
Q 2349 3891 2355 3994 
L 2330 3994 
Q 2278 3872 2201 3731 
Q 2125 3590 2054 3494 
L 685 1542 
L 2323 1542 
L 2323 2982 
z
" transform="scale(0.015625)"/>
       </defs>
       <use xlink:href="#NotoSans-Regular-30" transform="translate(0 0.5)"/>
       <use xlink:href="#NotoSans-Regular-2e" transform="translate(57.199997 0.5)"/>
       <use xlink:href="#NotoSans-Regular-34" transform="translate(83.999985 0.5)"/>
      </g>
     </g>
    </g>
    <g id="ytick_5">
     <g id="line2d_19">
      <g>
       <use xlink:href="#me3248ebf1e" x="42.1" y="79.599724" style="stroke: #000000; stroke-width: 0.6"/>
      </g>
     </g>
     <g id="line2d_20">
      <g>
       <use xlink:href="#m2f830abd74" x="245.99952" y="79.599724" style="stroke: #000000; stroke-width: 0.6"/>
      </g>
     </g>
     <g id="text_11">
      <!-- $\mathdefault{0.6}$ -->
      <g transform="translate(24.4 83.399724) scale(0.1 -0.1)">
       <defs>
        <path id="NotoSans-Regular-36" d="M 352 1952 
Q 352 2349 406 2733 
Q 461 3117 595 3459 
Q 730 3802 966 4067 
Q 1203 4333 1564 4483 
Q 1926 4634 2445 4634 
Q 2579 4634 2742 4621 
Q 2906 4608 3008 4576 
L 3008 4096 
Q 2893 4134 2749 4153 
Q 2605 4173 2458 4173 
Q 2016 4173 1721 4025 
Q 1427 3878 1257 3622 
Q 1088 3366 1011 3033 
Q 934 2701 915 2323 
L 954 2323 
Q 1050 2477 1197 2598 
Q 1344 2720 1552 2790 
Q 1760 2861 2035 2861 
Q 2432 2861 2729 2697 
Q 3027 2534 3193 2224 
Q 3360 1914 3360 1472 
Q 3360 998 3181 652 
Q 3002 307 2678 121 
Q 2355 -64 1907 -64 
Q 1581 -64 1299 57 
Q 1018 179 803 428 
Q 589 678 470 1059 
Q 352 1440 352 1952 
z
M 1901 410 
Q 2304 410 2553 669 
Q 2803 928 2803 1472 
Q 2803 1907 2582 2163 
Q 2362 2419 1920 2419 
Q 1619 2419 1395 2294 
Q 1171 2170 1046 1978 
Q 922 1786 922 1581 
Q 922 1370 982 1165 
Q 1043 960 1168 787 
Q 1293 614 1475 512 
Q 1658 410 1901 410 
z
" transform="scale(0.015625)"/>
       </defs>
       <use xlink:href="#NotoSans-Regular-30" transform="translate(0 0.5)"/>
       <use xlink:href="#NotoSans-Regular-2e" transform="translate(57.199997 0.5)"/>
       <use xlink:href="#NotoSans-Regular-36" transform="translate(83.999985 0.5)"/>
      </g>
     </g>
    </g>
    <g id="ytick_6">
     <g id="line2d_21">
      <g>
       <use xlink:href="#me3248ebf1e" x="42.1" y="48.202124" style="stroke: #000000; stroke-width: 0.6"/>
      </g>
     </g>
     <g id="line2d_22">
      <g>
       <use xlink:href="#m2f830abd74" x="245.99952" y="48.202124" style="stroke: #000000; stroke-width: 0.6"/>
      </g>
     </g>
     <g id="text_12">
      <!-- $\mathdefault{0.8}$ -->
      <g transform="translate(24.4 52.002124) scale(0.1 -0.1)">
       <defs>
        <path id="NotoSans-Regular-38" d="M 1824 4634 
Q 2227 4634 2534 4509 
Q 2842 4384 3018 4141 
Q 3194 3898 3194 3539 
Q 3194 3264 3075 3059 
Q 2957 2854 2758 2697 
Q 2560 2541 2323 2419 
Q 2605 2285 2835 2115 
Q 3066 1946 3203 1722 
Q 3341 1498 3341 1184 
Q 3341 800 3155 521 
Q 2970 243 2634 89 
Q 2298 -64 1843 -64 
Q 1350 -64 1008 83 
Q 666 230 490 502 
Q 314 774 314 1165 
Q 314 1478 445 1708 
Q 576 1939 793 2105 
Q 1011 2272 1261 2387 
Q 1037 2515 854 2678 
Q 672 2842 566 3053 
Q 461 3264 461 3546 
Q 461 3898 640 4138 
Q 819 4378 1126 4506 
Q 1434 4634 1824 4634 
z
M 864 1158 
Q 864 826 1101 605 
Q 1338 384 1830 384 
Q 2298 384 2544 605 
Q 2790 826 2790 1178 
Q 2790 1402 2672 1571 
Q 2554 1741 2339 1875 
Q 2125 2010 1830 2118 
L 1728 2157 
Q 1446 2035 1254 1894 
Q 1062 1754 963 1574 
Q 864 1395 864 1158 
z
M 1818 4179 
Q 1466 4179 1238 4009 
Q 1011 3840 1011 3520 
Q 1011 3283 1123 3123 
Q 1235 2963 1427 2851 
Q 1619 2739 1850 2637 
Q 2074 2733 2250 2848 
Q 2426 2963 2531 3126 
Q 2637 3290 2637 3520 
Q 2637 3840 2413 4009 
Q 2189 4179 1818 4179 
z
" transform="scale(0.015625)"/>
       </defs>
       <use xlink:href="#NotoSans-Regular-30" transform="translate(0 0.5)"/>
       <use xlink:href="#NotoSans-Regular-2e" transform="translate(57.199997 0.5)"/>
       <use xlink:href="#NotoSans-Regular-38" transform="translate(83.999985 0.5)"/>
      </g>
     </g>
    </g>
    <g id="ytick_7">
     <g id="line2d_23">
      <g>
       <use xlink:href="#me3248ebf1e" x="42.1" y="16.804524" style="stroke: #000000; stroke-width: 0.6"/>
      </g>
     </g>
     <g id="line2d_24">
      <g>
       <use xlink:href="#m2f830abd74" x="245.99952" y="16.804524" style="stroke: #000000; stroke-width: 0.6"/>
      </g>
     </g>
     <g id="text_13">
      <!-- $\mathdefault{1.0}$ -->
      <g transform="translate(24.4 20.604524) scale(0.1 -0.1)">
       <use xlink:href="#NotoSans-Regular-31" transform="translate(0 0.5)"/>
       <use xlink:href="#NotoSans-Regular-2e" transform="translate(57.199997 0.5)"/>
       <use xlink:href="#NotoSans-Regular-30" transform="translate(83.999985 0.5)"/>
      </g>
     </g>
    </g>
    <g id="text_14">
     <!-- X -->
     <g transform="translate(14.8 115.779448) rotate(-90) scale(0.1 -0.1)">
      <defs>
       <path id="NotoSans-Regular-58" d="M 3725 0 
L 3072 0 
L 1862 1984 
L 634 0 
L 26 0 
L 1542 2381 
L 122 4570 
L 762 4570 
L 1882 2778 
L 3008 4570 
L 3616 4570 
L 2202 2394 
L 3725 0 
z
" transform="scale(0.015625)"/>
      </defs>
      <use xlink:href="#NotoSans-Regular-58"/>
     </g>
    </g>
   </g>
   <g id="line2d_25">
    <path d="M 51.36816 181.704271 
L 52.692183 172.974295 
L 54.016206 173.64283 
L 55.340229 173.539383 
L 56.664251 173.107414 
L 57.988274 179.221524 
L 59.312297 164.763964 
L 60.63632 174.299337 
L 61.960343 170.359231 
L 63.284366 168.158764 
L 64.608389 172.255771 
L 65.932411 170.423655 
L 67.256434 163.828654 
L 68.580457 175.936596 
L 69.90448 167.646339 
L 71.228503 171.773825 
L 72.552526 172.260052 
L 73.876549 172.553828 
L 75.200571 170.387839 
L 76.524594 169.824084 
L 77.848617 174.18787 
L 79.17264 170.902126 
L 80.496663 171.033647 
L 81.820686 168.216771 
L 83.144709 175.156323 
L 84.468731 174.057692 
L 85.792754 170.287858 
L 87.116777 172.118115 
L 88.4408 165.601176 
L 89.764823 167.603576 
L 91.088846 166.395879 
L 92.412869 166.518034 
L 93.736891 161.358202 
L 95.060914 167.463507 
L 96.384937 159.989073 
L 97.70896 161.796335 
L 99.032983 163.035294 
L 101.681029 150.626387 
L 103.005051 156.308255 
L 106.97712 142.180015 
L 108.301143 137.044519 
L 109.625166 125.785546 
L 110.949189 117.323441 
L 112.273211 118.536482 
L 113.597234 113.938552 
L 114.921257 116.115504 
L 116.24528 122.023746 
L 117.569303 132.004736 
L 120.217349 123.963868 
L 121.541371 113.8375 
L 122.865394 96.219023 
L 124.189417 75.759329 
L 125.51344 66.503075 
L 126.837463 67.570141 
L 128.161486 66.63243 
L 129.485509 77.932522 
L 130.809531 86.985115 
L 132.133554 92.875814 
L 133.457577 90.898514 
L 134.7816 85.034011 
L 136.105623 70.904524 
L 138.753669 48.145879 
L 141.401714 38.460059 
L 142.725737 44.460798 
L 145.373783 61.124069 
L 146.697806 72.226887 
L 148.021829 71.389663 
L 149.345851 69.863626 
L 150.669874 71.567161 
L 151.993897 65.233626 
L 153.31792 66.382223 
L 154.641943 63.823584 
L 155.965966 65.895738 
L 157.289989 62.341918 
L 159.938034 64.740446 
L 161.262057 70.49848 
L 162.58608 70.422026 
L 163.910103 67.907745 
L 165.234126 76.174705 
L 166.558149 75.797005 
L 167.882171 73.737439 
L 169.206194 82.024715 
L 170.530217 76.041319 
L 171.85424 78.469253 
L 173.178263 81.460171 
L 174.502286 76.894571 
L 175.826309 76.813031 
L 177.150331 78.668147 
L 178.474354 82.452433 
L 181.1224 84.953588 
L 182.446423 82.205683 
L 183.770446 80.706325 
L 185.094469 88.515767 
L 186.418491 85.221702 
L 187.742514 84.273326 
L 189.066537 90.83677 
L 190.39056 96.825265 
L 191.714583 93.747718 
L 193.038606 98.680932 
L 194.362629 95.72691 
L 195.686651 91.238257 
L 197.010674 96.062388 
L 198.334697 94.413355 
L 199.65872 92.518684 
L 200.982743 99.066405 
L 202.306766 98.175213 
L 203.630789 96.749084 
L 204.954811 102.300004 
L 206.278834 99.304033 
L 207.602857 97.373772 
L 208.92688 103.637104 
L 210.250903 104.671298 
L 211.574926 96.104884 
L 212.898949 107.039653 
L 214.222971 96.941045 
L 215.546994 100.93353 
L 216.871017 100.484461 
L 218.19504 107.237968 
L 219.519063 101.17654 
L 220.843086 108.59189 
L 222.167109 102.542188 
L 223.491131 107.60178 
L 224.815154 102.163183 
L 226.139177 108.47828 
L 227.4632 109.718601 
L 228.787223 105.542456 
L 230.111246 113.282844 
L 231.435269 107.219537 
L 232.759291 114.032375 
L 234.083314 106.847446 
L 236.73136 114.240319 
L 236.73136 114.240319 
" clip-path="url(#pdfbd519238)" style="fill: none; stroke: #66c2a5; stroke-linecap: square"/>
   </g>
   <g id="line2d_26">
    <path d="M 51.36816 172.540182 
L 52.692183 175.146966 
L 54.016206 170.986604 
L 55.340229 169.654878 
L 56.664251 175.880992 
L 57.988274 174.547398 
L 59.312297 174.09084 
L 60.63632 168.208752 
L 61.960343 170.52577 
L 63.284366 169.917915 
L 64.608389 166.327451 
L 65.932411 165.556266 
L 67.256434 175.421488 
L 68.580457 169.836916 
L 69.90448 167.766626 
L 71.228503 173.836361 
L 72.552526 170.608364 
L 73.876549 173.747884 
L 75.200571 169.279586 
L 76.524594 168.645261 
L 77.848617 175.539645 
L 79.17264 168.92941 
L 80.496663 175.839562 
L 81.820686 168.697659 
L 83.144709 175.219677 
L 84.468731 172.951571 
L 85.792754 175.23571 
L 87.116777 172.399854 
L 88.4408 167.470185 
L 89.764823 168.377422 
L 91.088846 168.643388 
L 92.412869 164.877845 
L 93.736891 161.886137 
L 95.060914 159.966617 
L 96.384937 160.481452 
L 97.70896 162.596111 
L 99.032983 149.945825 
L 100.357006 145.902266 
L 101.681029 147.786247 
L 103.005051 145.358568 
L 104.329074 143.509078 
L 105.653097 140.008183 
L 106.97712 133.903133 
L 108.301143 130.611798 
L 110.949189 108.170903 
L 112.273211 100.850964 
L 113.597234 103.323282 
L 114.921257 106.351849 
L 116.24528 115.976493 
L 117.569303 123.700023 
L 120.217349 114.813712 
L 121.541371 98.57775 
L 122.865394 72.933096 
L 124.189417 60.337661 
L 125.51344 52.386145 
L 126.837463 38.975421 
L 128.161486 44.137617 
L 129.485509 62.948703 
L 130.809531 74.623787 
L 132.133554 72.938693 
L 133.457577 71.706158 
L 134.7816 66.134725 
L 136.105623 56.268201 
L 137.429646 42.303099 
L 138.753669 32.592964 
L 140.077691 31.959194 
L 141.401714 23.169729 
L 142.725737 30.665699 
L 144.04976 40.774922 
L 145.373783 47.408905 
L 146.697806 45.914933 
L 148.021829 56.811112 
L 149.345851 56.800958 
L 150.669874 56.193891 
L 151.993897 56.109158 
L 153.31792 52.434248 
L 154.641943 48.024507 
L 155.965966 52.890273 
L 157.289989 46.244249 
L 158.614011 46.030663 
L 159.938034 47.376566 
L 161.262057 50.746745 
L 162.58608 57.348654 
L 163.910103 55.501046 
L 165.234126 57.185337 
L 166.558149 62.790471 
L 167.882171 57.572639 
L 169.206194 57.16046 
L 170.530217 58.332866 
L 171.85424 60.694782 
L 173.178263 58.209117 
L 174.502286 57.454774 
L 175.826309 53.65824 
L 177.150331 62.99655 
L 178.474354 61.827359 
L 179.798377 64.852446 
L 181.1224 64.948152 
L 182.446423 58.042033 
L 183.770446 62.464887 
L 185.094469 64.386541 
L 186.418491 69.522547 
L 187.742514 62.431207 
L 189.066537 71.181719 
L 190.39056 63.679246 
L 191.714583 62.671512 
L 193.038606 71.307078 
L 194.362629 71.698673 
L 195.686651 70.381929 
L 197.010674 72.487234 
L 198.334697 73.326309 
L 199.65872 69.965472 
L 200.982743 63.87679 
L 202.306766 74.687971 
L 203.630789 69.474157 
L 204.954811 70.424972 
L 206.278834 73.842204 
L 207.602857 72.12531 
L 208.92688 75.748871 
L 210.250903 76.677783 
L 211.574926 73.48642 
L 214.222971 74.828291 
L 215.546994 75.829873 
L 216.871017 76.043727 
L 218.19504 79.872617 
L 219.519063 73.832845 
L 220.843086 73.707737 
L 222.167109 77.321715 
L 224.815154 79.659059 
L 226.139177 80.976341 
L 227.4632 78.286154 
L 228.787223 80.471137 
L 230.111246 81.659024 
L 231.435269 79.860854 
L 232.759291 83.619744 
L 234.083314 83.685471 
L 235.407337 86.943709 
L 236.73136 83.990211 
L 236.73136 83.990211 
" clip-path="url(#pdfbd519238)" style="fill: none; stroke: #fc8d62; stroke-linecap: square"/>
   </g>
   <g id="line2d_27">
    <path d="M 51.36816 173.889826 
L 52.692183 171.734791 
L 54.016206 175.756421 
L 55.340229 171.226384 
L 56.664251 175.924289 
L 57.988274 173.772742 
L 59.312297 168.891452 
L 60.63632 166.630042 
L 61.960343 170.066001 
L 63.284366 170.326363 
L 65.932411 164.288162 
L 67.256434 170.74095 
L 68.580457 170.378482 
L 69.90448 169.189233 
L 71.228503 167.421803 
L 72.552526 169.555442 
L 73.876549 173.988997 
L 75.200571 170.205797 
L 76.524594 170.789331 
L 77.848617 165.092214 
L 79.17264 168.434097 
L 80.496663 173.71046 
L 81.820686 175.014645 
L 83.144709 177.586135 
L 84.468731 173.562105 
L 85.792754 173.070262 
L 87.116777 173.292923 
L 88.4408 168.955345 
L 89.764823 166.813957 
L 91.088846 163.026743 
L 92.412869 156.704131 
L 93.736891 164.336811 
L 95.060914 149.241461 
L 96.384937 151.938867 
L 97.70896 150.243322 
L 99.032983 146.993965 
L 100.357006 146.325948 
L 101.681029 141.365263 
L 103.005051 151.692941 
L 104.329074 139.363677 
L 105.653097 135.80609 
L 106.97712 127.58986 
L 108.301143 118.380381 
L 109.625166 110.159365 
L 110.949189 98.596199 
L 112.273211 91.775826 
L 113.597234 98.212601 
L 114.921257 101.164498 
L 116.24528 113.499905 
L 117.569303 109.064746 
L 118.893326 116.851379 
L 120.217349 105.425632 
L 121.541371 92.924934 
L 122.865394 62.350475 
L 124.189417 49.863841 
L 125.51344 34.389254 
L 126.837463 30.33041 
L 128.161486 42.796284 
L 130.809531 60.246233 
L 132.133554 66.257676 
L 133.457577 61.596158 
L 134.7816 58.053262 
L 136.105623 46.983353 
L 137.429646 32.003812 
L 138.753669 28.032925 
L 140.077691 22.686258 
L 141.401714 22.530138 
L 142.725737 27.738028 
L 144.04976 35.76829 
L 145.373783 36.130177 
L 146.697806 43.694696 
L 148.021829 46.234638 
L 149.345851 51.025277 
L 150.669874 44.828081 
L 151.993897 44.618773 
L 153.31792 44.926702 
L 154.641943 40.304677 
L 155.965966 34.695815 
L 157.289989 40.495597 
L 158.614011 43.823548 
L 159.938034 43.115698 
L 161.262057 41.946794 
L 163.910103 52.361529 
L 165.234126 48.617398 
L 166.558149 49.751833 
L 167.882171 51.407539 
L 169.206194 44.364571 
L 170.530217 51.653705 
L 171.85424 49.227386 
L 173.178263 53.424079 
L 174.502286 45.811764 
L 175.826309 51.130868 
L 177.150331 46.216471 
L 178.474354 49.63904 
L 179.798377 50.66817 
L 181.1224 52.087285 
L 182.446423 49.484257 
L 183.770446 47.258674 
L 185.094469 52.15463 
L 186.418491 49.324671 
L 187.742514 52.51711 
L 189.066537 50.384279 
L 190.39056 58.775527 
L 191.714583 50.943478 
L 193.038606 53.708495 
L 194.362629 53.228692 
L 195.686651 58.79238 
L 197.010674 55.196848 
L 198.334697 54.148752 
L 199.65872 52.752334 
L 200.982743 56.63174 
L 202.306766 56.221965 
L 203.630789 53.627758 
L 204.954811 61.216552 
L 206.278834 54.497038 
L 207.602857 57.288232 
L 208.92688 57.239578 
L 210.250903 58.019865 
L 212.898949 62.143585 
L 214.222971 58.91373 
L 215.546994 57.9271 
L 216.871017 57.19388 
L 218.19504 56.28879 
L 219.519063 64.692326 
L 220.843086 57.704707 
L 222.167109 63.085022 
L 223.491131 60.26309 
L 224.815154 66.791747 
L 226.139177 58.212324 
L 227.4632 61.51034 
L 228.787223 59.445128 
L 230.111246 59.704157 
L 231.435269 62.492947 
L 232.759291 68.278768 
L 234.083314 61.747699 
L 235.407337 69.872985 
L 236.73136 65.469124 
L 236.73136 65.469124 
" clip-path="url(#pdfbd519238)" style="fill: none; stroke: #8da0cb; stroke-linecap: square"/>
   </g>
   <g id="line2d_28">
    <path d="M 51.36816 176.709641 
L 54.016206 166.710226 
L 55.340229 171.428734 
L 56.664251 173.914686 
L 57.988274 167.913378 
L 59.312297 163.793916 
L 60.63632 169.59715 
L 61.960343 174.550873 
L 63.284366 176.243993 
L 64.608389 169.461349 
L 65.932411 170.798418 
L 67.256434 172.473633 
L 68.580457 167.41752 
L 69.90448 170.465088 
L 71.228503 170.302573 
L 72.552526 165.097837 
L 73.876549 166.947338 
L 75.200571 170.264607 
L 76.524594 169.00212 
L 77.848617 166.95722 
L 79.17264 173.109021 
L 80.496663 169.264082 
L 81.820686 170.547416 
L 83.144709 172.738799 
L 84.468731 167.498517 
L 85.792754 172.455989 
L 87.116777 168.970308 
L 88.4408 169.550363 
L 89.764823 165.236024 
L 91.088846 164.901358 
L 92.412869 162.499614 
L 93.736891 156.691832 
L 95.060914 159.528495 
L 96.384937 151.807354 
L 97.70896 146.668105 
L 99.032983 146.56947 
L 100.357006 150.622099 
L 101.681029 185.683396 
L 103.005051 208.894996 
L 104.329074 166.040356 
L 105.653097 134.464757 
L 110.949189 96.391192 
L 112.273211 89.268209 
L 113.597234 90.327822 
L 114.921257 96.332888 
L 116.24528 107.51172 
L 117.569303 109.424041 
L 120.217349 97.084302 
L 121.541371 85.83568 
L 122.865394 63.448301 
L 124.189417 47.868939 
L 125.51344 35.708348 
L 126.837463 30.095746 
L 128.161486 34.939614 
L 130.809531 54.483669 
L 132.133554 56.717804 
L 133.457577 62.156675 
L 134.7816 54.439585 
L 136.105623 45.545515 
L 137.429646 33.218723 
L 138.753669 23.696624 
L 140.077691 18.451444 
L 141.401714 16.804524 
L 142.725737 20.150522 
L 145.373783 38.477433 
L 146.697806 41.768229 
L 148.021829 43.314596 
L 149.345851 47.635325 
L 150.669874 49.467157 
L 151.993897 38.759104 
L 153.31792 46.506484 
L 154.641943 35.219271 
L 155.965966 35.288474 
L 157.289989 40.439462 
L 158.614011 35.287424 
L 159.938034 38.692615 
L 161.262057 35.46328 
L 162.58608 39.282542 
L 163.910103 39.073262 
L 165.234126 41.854308 
L 166.558149 40.071641 
L 167.882171 44.785297 
L 169.206194 42.739885 
L 170.530217 41.641794 
L 171.85424 39.391084 
L 173.178263 43.306577 
L 174.502286 40.449351 
L 175.826309 44.239203 
L 177.150331 43.902402 
L 178.474354 40.976489 
L 179.798377 41.426872 
L 181.1224 44.204469 
L 182.446423 47.442863 
L 183.770446 41.499564 
L 185.094469 44.069199 
L 187.742514 41.488603 
L 189.066537 47.081993 
L 190.39056 41.633237 
L 191.714583 43.434609 
L 193.038606 47.993778 
L 194.362629 46.669016 
L 195.686651 43.470145 
L 197.010674 46.826718 
L 198.334697 50.553758 
L 199.65872 49.653211 
L 200.982743 50.246618 
L 202.306766 51.762781 
L 203.630789 47.544955 
L 204.954811 45.69014 
L 207.602857 53.159176 
L 208.92688 52.065099 
L 210.250903 48.74892 
L 211.574926 51.016452 
L 212.898949 50.112694 
L 214.222971 48.565543 
L 215.546994 51.572179 
L 216.871017 52.437463 
L 218.19504 54.563052 
L 219.519063 55.695629 
L 220.843086 51.509367 
L 222.167109 56.243877 
L 223.491131 56.2217 
L 224.815154 48.924 
L 226.139177 52.232964 
L 227.4632 50.427062 
L 228.787223 59.595346 
L 230.111246 54.91671 
L 231.435269 53.920466 
L 232.759291 51.201972 
L 234.083314 53.822113 
L 235.407337 57.686253 
L 236.73136 55.981386 
L 236.73136 55.981386 
" clip-path="url(#pdfbd519238)" style="fill: none; stroke: #e78ac3; stroke-linecap: square"/>
   </g>
   <g id="line2d_29"/>
   <g id="line2d_30"/>
   <g id="line2d_31"/>
   <g id="line2d_32"/>
   <g id="patch_3">
    <path d="M 42.1 218.49952 
L 42.1 7.2 
" style="fill: none; stroke: #000000; stroke-width: 0.6; stroke-linejoin: miter; stroke-linecap: square"/>
   </g>
   <g id="patch_4">
    <path d="M 245.99952 218.49952 
L 245.99952 7.2 
" style="fill: none; stroke: #000000; stroke-width: 0.6; stroke-linejoin: miter; stroke-linecap: square"/>
   </g>
   <g id="patch_5">
    <path d="M 42.1 218.49952 
L 245.99952 218.49952 
" style="fill: none; stroke: #000000; stroke-width: 0.6; stroke-linejoin: miter; stroke-linecap: square"/>
   </g>
   <g id="patch_6">
    <path d="M 42.1 7.2 
L 245.99952 7.2 
" style="fill: none; stroke: #000000; stroke-width: 0.6; stroke-linejoin: miter; stroke-linecap: square"/>
   </g>
   <g id="legend_1">
    <g id="patch_7">
     <path d="M 163.879208 213.49952 
L 240.99952 213.49952 
L 240.99952 131.44952 
L 163.879208 131.44952 
z
" style="fill: #ffffff; opacity: 0.9"/>
    </g>
    <g id="text_15">
     <!-- field_strength -->
     <g transform="translate(169.879208 145.09952) scale(0.1 -0.1)">
      <defs>
       <path id="NotoSans-Regular-66" d="M 2125 2995 
L 1261 2995 
L 1261 0 
L 698 0 
L 698 2995 
L 96 2995 
L 96 3258 
L 698 3450 
L 698 3648 
Q 698 4090 829 4365 
Q 960 4640 1209 4768 
Q 1459 4896 1811 4896 
Q 2016 4896 2185 4861 
Q 2355 4826 2477 4781 
L 2330 4339 
Q 2227 4371 2092 4403 
Q 1958 4435 1818 4435 
Q 1536 4435 1398 4246 
Q 1261 4058 1261 3654 
L 1261 3430 
L 2125 3430 
L 2125 2995 
z
" transform="scale(0.015625)"/>
       <path id="NotoSans-Regular-6c" d="M 1107 0 
L 544 0 
L 544 4864 
L 1107 4864 
L 1107 0 
z
" transform="scale(0.015625)"/>
       <path id="NotoSans-Regular-64" d="M 1760 -64 
Q 1120 -64 736 381 
Q 352 826 352 1709 
Q 352 2592 739 3043 
Q 1126 3494 1766 3494 
Q 2035 3494 2233 3427 
Q 2432 3360 2579 3245 
Q 2726 3130 2829 2989 
L 2867 2989 
Q 2861 3072 2845 3235 
Q 2829 3398 2829 3494 
L 2829 4864 
L 3392 4864 
L 3392 0 
L 2938 0 
L 2854 461 
L 2829 461 
Q 2726 314 2579 195 
Q 2432 77 2230 6 
Q 2029 -64 1760 -64 
z
M 1850 403 
Q 2394 403 2614 700 
Q 2835 998 2835 1600 
L 2835 1702 
Q 2835 2342 2624 2684 
Q 2413 3027 1843 3027 
Q 1389 3027 1161 2665 
Q 934 2304 934 1696 
Q 934 1082 1161 742 
Q 1389 403 1850 403 
z
" transform="scale(0.015625)"/>
       <path id="NotoSans-Regular-5f" d="M 2854 -986 
L -13 -986 
L -13 -576 
L 2854 -576 
L 2854 -986 
z
" transform="scale(0.015625)"/>
       <path id="NotoSans-Regular-73" d="M 2778 947 
Q 2778 614 2611 390 
Q 2445 166 2137 51 
Q 1830 -64 1408 -64 
Q 1050 -64 790 -6 
Q 531 51 333 154 
L 333 666 
Q 538 563 829 476 
Q 1120 390 1421 390 
Q 1850 390 2042 528 
Q 2234 666 2234 896 
Q 2234 1024 2163 1126 
Q 2093 1229 1910 1331 
Q 1728 1434 1389 1562 
Q 1056 1690 819 1818 
Q 582 1946 454 2125 
Q 326 2304 326 2586 
Q 326 3021 681 3257 
Q 1037 3494 1613 3494 
Q 1926 3494 2198 3433 
Q 2470 3373 2707 3264 
L 2515 2816 
Q 2298 2906 2061 2970 
Q 1824 3034 1574 3034 
Q 1229 3034 1046 2922 
Q 864 2810 864 2618 
Q 864 2477 947 2377 
Q 1030 2278 1225 2185 
Q 1421 2093 1747 1965 
Q 2074 1843 2304 1715 
Q 2534 1587 2656 1404 
Q 2778 1222 2778 947 
z
" transform="scale(0.015625)"/>
       <path id="NotoSans-Regular-72" d="M 2144 3494 
Q 2240 3494 2352 3484 
Q 2464 3475 2547 3456 
L 2477 2938 
Q 2394 2957 2294 2969 
Q 2195 2982 2106 2982 
Q 1907 2982 1728 2899 
Q 1549 2816 1408 2665 
Q 1267 2515 1187 2304 
Q 1107 2093 1107 1830 
L 1107 0 
L 544 0 
L 544 3430 
L 1005 3430 
L 1069 2803 
L 1094 2803 
Q 1203 2995 1356 3152 
Q 1510 3309 1708 3401 
Q 1907 3494 2144 3494 
z
" transform="scale(0.015625)"/>
       <path id="NotoSans-Regular-6e" d="M 2195 3494 
Q 2810 3494 3123 3196 
Q 3437 2899 3437 2234 
L 3437 0 
L 2880 0 
L 2880 2195 
Q 2880 2611 2694 2816 
Q 2509 3021 2112 3021 
Q 1542 3021 1324 2701 
Q 1107 2381 1107 1779 
L 1107 0 
L 544 0 
L 544 3430 
L 998 3430 
L 1082 2963 
L 1114 2963 
Q 1229 3142 1398 3260 
Q 1568 3379 1773 3436 
Q 1978 3494 2195 3494 
z
" transform="scale(0.015625)"/>
       <path id="NotoSans-Regular-67" d="M 1760 3494 
Q 2099 3494 2371 3366 
Q 2643 3238 2835 2976 
L 2867 2976 
L 2944 3430 
L 3392 3430 
L 3392 -58 
Q 3392 -544 3225 -873 
Q 3059 -1203 2720 -1369 
Q 2381 -1536 1856 -1536 
Q 1485 -1536 1174 -1481 
Q 864 -1427 621 -1318 
L 621 -800 
Q 864 -928 1190 -998 
Q 1517 -1069 1888 -1069 
Q 2330 -1069 2582 -809 
Q 2835 -550 2835 -102 
L 2835 32 
Q 2835 109 2841 253 
Q 2848 397 2854 454 
L 2829 454 
Q 2650 192 2384 64 
Q 2118 -64 1766 -64 
Q 1101 -64 726 403 
Q 352 870 352 1709 
Q 352 2528 726 3011 
Q 1101 3494 1760 3494 
z
M 1837 3021 
Q 1549 3021 1347 2867 
Q 1146 2714 1040 2419 
Q 934 2125 934 1702 
Q 934 1069 1168 733 
Q 1402 397 1850 397 
Q 2112 397 2297 464 
Q 2483 531 2604 675 
Q 2726 819 2784 1043 
Q 2842 1267 2842 1574 
L 2842 1709 
Q 2842 2176 2736 2464 
Q 2630 2752 2406 2886 
Q 2182 3021 1837 3021 
z
" transform="scale(0.015625)"/>
       <path id="NotoSans-Regular-68" d="M 1107 3437 
Q 1107 3315 1097 3187 
Q 1088 3059 1075 2957 
L 1114 2957 
Q 1222 3136 1388 3251 
Q 1555 3366 1760 3427 
Q 1965 3488 2182 3488 
Q 2598 3488 2876 3357 
Q 3155 3226 3296 2950 
Q 3437 2675 3437 2234 
L 3437 0 
L 2880 0 
L 2880 2195 
Q 2880 2611 2694 2816 
Q 2509 3021 2112 3021 
Q 1728 3021 1510 2877 
Q 1293 2733 1200 2454 
Q 1107 2176 1107 1773 
L 1107 0 
L 544 0 
L 544 4864 
L 1107 4864 
L 1107 3437 
z
" transform="scale(0.015625)"/>
      </defs>
      <use xlink:href="#NotoSans-Regular-66"/>
      <use xlink:href="#NotoSans-Regular-69" x="34.399994"/>
      <use xlink:href="#NotoSans-Regular-65" x="60.199982"/>
      <use xlink:href="#NotoSans-Regular-6c" x="116.599976"/>
      <use xlink:href="#NotoSans-Regular-64" x="142.399963"/>
      <use xlink:href="#NotoSans-Regular-5f" x="203.899948"/>
      <use xlink:href="#NotoSans-Regular-73" x="248.299942"/>
      <use xlink:href="#NotoSans-Regular-74" x="296.199936"/>
      <use xlink:href="#NotoSans-Regular-72" x="332.299927"/>
      <use xlink:href="#NotoSans-Regular-65" x="373.599915"/>
      <use xlink:href="#NotoSans-Regular-6e" x="429.999908"/>
      <use xlink:href="#NotoSans-Regular-67" x="491.799896"/>
      <use xlink:href="#NotoSans-Regular-74" x="553.299881"/>
      <use xlink:href="#NotoSans-Regular-68" x="589.399872"/>
     </g>
    </g>
    <g id="line2d_33">
     <path d="M 178.519051 156.59952 
L 188.519051 156.59952 
L 198.519051 156.59952 
" style="fill: none; stroke: #66c2a5; stroke-linecap: square"/>
    </g>
    <g id="text_16">
     <!-- 0.56 -->
     <g transform="translate(206.519051 160.09952) scale(0.1 -0.1)">
      <defs>
       <path id="NotoSans-Regular-35" d="M 1760 2803 
Q 2227 2803 2572 2643 
Q 2918 2483 3107 2185 
Q 3296 1888 3296 1459 
Q 3296 986 3091 643 
Q 2886 301 2505 118 
Q 2125 -64 1587 -64 
Q 1235 -64 924 0 
Q 614 64 403 186 
L 403 717 
Q 634 576 963 496 
Q 1293 416 1594 416 
Q 1933 416 2185 521 
Q 2438 627 2579 848 
Q 2720 1069 2720 1402 
Q 2720 1850 2445 2090 
Q 2170 2330 1574 2330 
Q 1395 2330 1164 2298 
Q 934 2266 794 2234 
L 512 2413 
L 685 4570 
L 2976 4570 
L 2976 4058 
L 1165 4058 
L 1056 2733 
Q 1165 2752 1350 2777 
Q 1536 2803 1760 2803 
z
" transform="scale(0.015625)"/>
      </defs>
      <use xlink:href="#NotoSans-Regular-30"/>
      <use xlink:href="#NotoSans-Regular-2e" x="57.199997"/>
      <use xlink:href="#NotoSans-Regular-35" x="83.999985"/>
      <use xlink:href="#NotoSans-Regular-36" x="141.199982"/>
     </g>
    </g>
    <g id="line2d_34">
     <path d="M 178.519051 171.59952 
L 188.519051 171.59952 
L 198.519051 171.59952 
" style="fill: none; stroke: #fc8d62; stroke-linecap: square"/>
    </g>
    <g id="text_17">
     <!-- 0.73 -->
     <g transform="translate(206.519051 175.09952) scale(0.1 -0.1)">
      <defs>
       <path id="NotoSans-Regular-37" d="M 870 0 
L 2746 4058 
L 282 4058 
L 282 4570 
L 3347 4570 
L 3347 4134 
L 1491 0 
L 870 0 
z
" transform="scale(0.015625)"/>
      </defs>
      <use xlink:href="#NotoSans-Regular-30"/>
      <use xlink:href="#NotoSans-Regular-2e" x="57.199997"/>
      <use xlink:href="#NotoSans-Regular-37" x="83.999985"/>
      <use xlink:href="#NotoSans-Regular-33" x="141.199982"/>
     </g>
    </g>
    <g id="line2d_35">
     <path d="M 178.519051 186.59952 
L 188.519051 186.59952 
L 198.519051 186.59952 
" style="fill: none; stroke: #8da0cb; stroke-linecap: square"/>
    </g>
    <g id="text_18">
     <!-- 0.87 -->
     <g transform="translate(206.519051 190.09952) scale(0.1 -0.1)">
      <use xlink:href="#NotoSans-Regular-30"/>
      <use xlink:href="#NotoSans-Regular-2e" x="57.199997"/>
      <use xlink:href="#NotoSans-Regular-38" x="83.999985"/>
      <use xlink:href="#NotoSans-Regular-37" x="141.199982"/>
     </g>
    </g>
    <g id="line2d_36">
     <path d="M 178.519051 201.59952 
L 188.519051 201.59952 
L 198.519051 201.59952 
" style="fill: none; stroke: #e78ac3; stroke-linecap: square"/>
    </g>
    <g id="text_19">
     <!-- 0.96 -->
     <g transform="translate(206.519051 205.09952) scale(0.1 -0.1)">
      <defs>
       <path id="NotoSans-Regular-39" d="M 3328 2618 
Q 3328 2227 3273 1840 
Q 3219 1453 3084 1110 
Q 2950 768 2713 502 
Q 2477 237 2112 86 
Q 1747 -64 1229 -64 
Q 1101 -64 931 -48 
Q 762 -32 653 0 
L 653 480 
Q 768 442 921 419 
Q 1075 397 1216 397 
Q 1664 397 1955 544 
Q 2246 691 2419 944 
Q 2592 1197 2669 1533 
Q 2746 1869 2758 2240 
L 2720 2240 
Q 2624 2093 2477 1971 
Q 2330 1850 2122 1779 
Q 1914 1709 1632 1709 
Q 1242 1709 944 1872 
Q 646 2035 483 2342 
Q 320 2650 320 3091 
Q 320 3571 502 3916 
Q 685 4262 1011 4448 
Q 1338 4634 1779 4634 
Q 2106 4634 2387 4509 
Q 2669 4384 2880 4134 
Q 3091 3885 3209 3507 
Q 3328 3130 3328 2618 
z
M 1779 4160 
Q 1382 4160 1129 3897 
Q 877 3635 877 3098 
Q 877 2656 1091 2403 
Q 1306 2150 1754 2150 
Q 2061 2150 2285 2275 
Q 2509 2400 2633 2592 
Q 2758 2784 2758 2989 
Q 2758 3194 2697 3402 
Q 2637 3610 2515 3782 
Q 2394 3955 2208 4057 
Q 2022 4160 1779 4160 
z
" transform="scale(0.015625)"/>
      </defs>
      <use xlink:href="#NotoSans-Regular-30"/>
      <use xlink:href="#NotoSans-Regular-2e" x="57.199997"/>
      <use xlink:href="#NotoSans-Regular-39" x="83.999985"/>
      <use xlink:href="#NotoSans-Regular-36" x="141.199982"/>
     </g>
    </g>
   </g>
  </g>
 </g>
 <defs>
  <clipPath id="pdfbd519238">
   <rect x="42.1" y="7.2" width="203.89952" height="211.29952"/>
  </clipPath>
 </defs>
</svg>
