<?xml version="1.0" encoding="utf-8" standalone="no"?>
<!DOCTYPE svg PUBLIC "-//W3C//DTD SVG 1.1//EN"
  "http://www.w3.org/Graphics/SVG/1.1/DTD/svg11.dtd">
<svg xmlns:xlink="http://www.w3.org/1999/xlink" width="497.99952pt" height="375.59952pt" viewBox="0 0 497.99952 375.59952" xmlns="http://www.w3.org/2000/svg" version="1.1">
 <metadata>
  <rdf:RDF xmlns:dc="http://purl.org/dc/elements/1.1/" xmlns:cc="http://creativecommons.org/ns#" xmlns:rdf="http://www.w3.org/1999/02/22-rdf-syntax-ns#">
   <cc:Work>
    <dc:type rdf:resource="http://purl.org/dc/dcmitype/StillImage"/>
    <dc:date>2024-07-06T12:08:59.611411</dc:date>
    <dc:format>image/svg+xml</dc:format>
    <dc:creator>
     <cc:Agent>
      <dc:title>Matplotlib v3.9.0, https://matplotlib.org/</dc:title>
     </cc:Agent>
    </dc:creator>
   </cc:Work>
  </rdf:RDF>
 </metadata>
 <defs>
  <style type="text/css">*{stroke-linejoin: round; stroke-linecap: butt}</style>
 </defs>
 <g id="figure_1">
  <g id="patch_1">
   <path d="M 0 375.59952 
L 497.99952 375.59952 
L 497.99952 0 
L 0 0 
z
" style="fill: #ffffff"/>
  </g>
  <g id="axes_1">
   <g id="patch_2">
    <path d="M 38.9 157.29952 
L 239.167098 157.29952 
L 239.167098 22.2 
L 38.9 22.2 
z
" style="fill: #ffffff"/>
   </g>
   <g id="PolyCollection_1"/>
   <g id="PolyCollection_2"/>
   <g id="matplotlib.axis_1">
    <g id="xtick_1">
     <g id="line2d_1">
      <defs>
       <path id="m54f99dba85" d="M 0 0 
L 0 -4 
" style="stroke: #000000; stroke-width: 0.6"/>
      </defs>
      <g>
       <use xlink:href="#m54f99dba85" x="38.9" y="157.29952" style="stroke: #000000; stroke-width: 0.6"/>
      </g>
     </g>
     <g id="line2d_2">
      <defs>
       <path id="m48cf622409" d="M 0 0 
L 0 4 
" style="stroke: #000000; stroke-width: 0.6"/>
      </defs>
      <g>
       <use xlink:href="#m48cf622409" x="38.9" y="22.2" style="stroke: #000000; stroke-width: 0.6"/>
      </g>
     </g>
     <g id="text_1">
      <!-- $\mathdefault{−1}$ -->
      <g transform="translate(34.4 168.39952) scale(0.1 -0.1)">
       <defs>
        <path id="NotoSans-Regular-2212" d="M 256 1466 
L 256 1965 
L 1805 1965 
L 1805 1466 
L 256 1466 
z
" transform="scale(0.015625)"/>
        <path id="NotoSans-Regular-31" d="M 2272 0 
L 1722 0 
L 1722 3194 
Q 1722 3379 1725 3507 
Q 1728 3635 1734 3747 
Q 1741 3859 1747 3981 
Q 1645 3878 1561 3808 
Q 1478 3738 1350 3629 
L 864 3232 
L 570 3610 
L 1805 4570 
L 2272 4570 
L 2272 0 
z
" transform="scale(0.015625)"/>
       </defs>
       <use xlink:href="#NotoSans-Regular-2212" transform="translate(0 0.59375)"/>
       <use xlink:href="#NotoSans-Regular-31" transform="translate(32.199997 0.59375)"/>
      </g>
     </g>
    </g>
    <g id="xtick_2">
     <g id="line2d_3">
      <g>
       <use xlink:href="#m54f99dba85" x="78.95342" y="157.29952" style="stroke: #000000; stroke-width: 0.6"/>
      </g>
     </g>
     <g id="line2d_4">
      <g>
       <use xlink:href="#m48cf622409" x="78.95342" y="22.2" style="stroke: #000000; stroke-width: 0.6"/>
      </g>
     </g>
     <g id="text_2">
      <!-- $\mathdefault{0}$ -->
      <g transform="translate(76.05342 168.39952) scale(0.1 -0.1)">
       <defs>
        <path id="NotoSans-Regular-30" d="M 3347 2291 
Q 3347 1734 3264 1299 
Q 3181 864 2998 560 
Q 2816 256 2525 96 
Q 2234 -64 1824 -64 
Q 1312 -64 976 217 
Q 640 499 477 1027 
Q 314 1555 314 2291 
Q 314 3034 464 3558 
Q 614 4083 947 4361 
Q 1280 4640 1824 4640 
Q 2336 4640 2675 4361 
Q 3014 4083 3180 3558 
Q 3347 3034 3347 2291 
z
M 877 2291 
Q 877 1664 969 1248 
Q 1062 832 1270 624 
Q 1478 416 1824 416 
Q 2170 416 2378 621 
Q 2586 826 2682 1245 
Q 2778 1664 2778 2291 
Q 2778 2918 2682 3331 
Q 2586 3744 2378 3952 
Q 2170 4160 1824 4160 
Q 1478 4160 1270 3952 
Q 1062 3744 969 3331 
Q 877 2918 877 2291 
z
" transform="scale(0.015625)"/>
       </defs>
       <use xlink:href="#NotoSans-Regular-30" transform="translate(0 0.5)"/>
      </g>
     </g>
    </g>
    <g id="xtick_3">
     <g id="line2d_5">
      <g>
       <use xlink:href="#m54f99dba85" x="119.006839" y="157.29952" style="stroke: #000000; stroke-width: 0.6"/>
      </g>
     </g>
     <g id="line2d_6">
      <g>
       <use xlink:href="#m48cf622409" x="119.006839" y="22.2" style="stroke: #000000; stroke-width: 0.6"/>
      </g>
     </g>
     <g id="text_3">
      <!-- $\mathdefault{1}$ -->
      <g transform="translate(116.106839 168.39952) scale(0.1 -0.1)">
       <use xlink:href="#NotoSans-Regular-31" transform="translate(0 0.59375)"/>
      </g>
     </g>
    </g>
    <g id="xtick_4">
     <g id="line2d_7">
      <g>
       <use xlink:href="#m54f99dba85" x="159.060259" y="157.29952" style="stroke: #000000; stroke-width: 0.6"/>
      </g>
     </g>
     <g id="line2d_8">
      <g>
       <use xlink:href="#m48cf622409" x="159.060259" y="22.2" style="stroke: #000000; stroke-width: 0.6"/>
      </g>
     </g>
     <g id="text_4">
      <!-- $\mathdefault{2}$ -->
      <g transform="translate(156.160259 168.39952) scale(0.1 -0.1)">
       <defs>
        <path id="NotoSans-Regular-32" d="M 3328 0 
L 307 0 
L 307 467 
L 1504 1677 
Q 1850 2022 2086 2291 
Q 2323 2560 2444 2819 
Q 2566 3078 2566 3386 
Q 2566 3763 2342 3958 
Q 2118 4154 1760 4154 
Q 1427 4154 1174 4038 
Q 922 3923 659 3718 
L 358 4096 
Q 538 4250 752 4371 
Q 966 4493 1219 4563 
Q 1472 4634 1760 4634 
Q 2189 4634 2496 4486 
Q 2803 4339 2972 4067 
Q 3142 3795 3142 3418 
Q 3142 3059 2995 2745 
Q 2848 2432 2585 2128 
Q 2323 1824 1971 1478 
L 1018 538 
L 1018 512 
L 3328 512 
L 3328 0 
z
" transform="scale(0.015625)"/>
       </defs>
       <use xlink:href="#NotoSans-Regular-32" transform="translate(0 0.59375)"/>
      </g>
     </g>
    </g>
    <g id="xtick_5">
     <g id="line2d_9">
      <g>
       <use xlink:href="#m54f99dba85" x="199.113679" y="157.29952" style="stroke: #000000; stroke-width: 0.6"/>
      </g>
     </g>
     <g id="line2d_10">
      <g>
       <use xlink:href="#m48cf622409" x="199.113679" y="22.2" style="stroke: #000000; stroke-width: 0.6"/>
      </g>
     </g>
     <g id="text_5">
      <!-- $\mathdefault{3}$ -->
      <g transform="translate(196.213679 168.39952) scale(0.1 -0.1)">
       <defs>
        <path id="NotoSans-Regular-33" d="M 3155 3501 
Q 3155 3194 3040 2970 
Q 2925 2746 2710 2605 
Q 2496 2464 2208 2406 
L 2208 2381 
Q 2758 2317 3027 2035 
Q 3296 1754 3296 1299 
Q 3296 902 3110 592 
Q 2925 282 2537 109 
Q 2150 -64 1542 -64 
Q 1184 -64 877 -9 
Q 570 45 288 186 
L 288 710 
Q 576 570 909 490 
Q 1242 410 1549 410 
Q 2163 410 2435 650 
Q 2707 890 2707 1312 
Q 2707 1600 2556 1776 
Q 2406 1952 2118 2035 
Q 1830 2118 1427 2118 
L 986 2118 
L 986 2598 
L 1434 2598 
Q 1811 2598 2064 2707 
Q 2317 2816 2448 3011 
Q 2579 3206 2579 3462 
Q 2579 3795 2355 3977 
Q 2131 4160 1747 4160 
Q 1504 4160 1305 4112 
Q 1107 4064 937 3977 
Q 768 3891 595 3776 
L 314 4160 
Q 557 4352 918 4493 
Q 1280 4634 1741 4634 
Q 2458 4634 2806 4314 
Q 3155 3994 3155 3501 
z
" transform="scale(0.015625)"/>
       </defs>
       <use xlink:href="#NotoSans-Regular-33" transform="translate(0 0.59375)"/>
      </g>
     </g>
    </g>
    <g id="xtick_6">
     <g id="line2d_11">
      <g>
       <use xlink:href="#m54f99dba85" x="239.167098" y="157.29952" style="stroke: #000000; stroke-width: 0.6"/>
      </g>
     </g>
     <g id="line2d_12">
      <g>
       <use xlink:href="#m48cf622409" x="239.167098" y="22.2" style="stroke: #000000; stroke-width: 0.6"/>
      </g>
     </g>
     <g id="text_6">
      <!-- $\mathdefault{4}$ -->
      <g transform="translate(236.267098 168.39952) scale(0.1 -0.1)">
       <defs>
        <path id="NotoSans-Regular-34" d="M 3533 1037 
L 2867 1037 
L 2867 0 
L 2323 0 
L 2323 1037 
L 134 1037 
L 134 1517 
L 2285 4595 
L 2867 4595 
L 2867 1542 
L 3533 1542 
L 3533 1037 
z
M 2323 2982 
Q 2323 3149 2326 3286 
Q 2330 3424 2336 3545 
Q 2342 3667 2345 3779 
Q 2349 3891 2355 3994 
L 2330 3994 
Q 2278 3872 2201 3731 
Q 2125 3590 2054 3494 
L 685 1542 
L 2323 1542 
L 2323 2982 
z
" transform="scale(0.015625)"/>
       </defs>
       <use xlink:href="#NotoSans-Regular-34" transform="translate(0 0.203125)"/>
      </g>
     </g>
    </g>
    <g id="text_7">
     <!-- $\tau$ (ps) -->
     <g transform="translate(127.183549 182.39952) scale(0.1 -0.1)">
      <defs>
       <path id="NotoSans-Italic-3c4" d="M 1613 -64 
Q 1267 -64 1030 102 
Q 794 269 794 685 
Q 794 794 819 954 
Q 845 1114 877 1267 
L 1235 2950 
L 269 2950 
L 371 3430 
L 2938 3430 
L 2835 2950 
L 1798 2950 
L 1434 1254 
Q 1402 1107 1382 979 
Q 1363 851 1363 749 
Q 1363 602 1443 499 
Q 1523 397 1702 397 
Q 1811 397 1920 419 
Q 2029 442 2157 480 
L 2157 51 
Q 2080 13 1917 -25 
Q 1754 -64 1613 -64 
z
" transform="scale(0.015625)"/>
       <path id="NotoSans-Regular-20" transform="scale(0.015625)"/>
       <path id="NotoSans-Regular-28" d="M 256 1754 
Q 256 2278 355 2777 
Q 454 3277 665 3731 
Q 877 4186 1197 4570 
L 1728 4570 
Q 1280 3968 1053 3245 
Q 826 2522 826 1760 
Q 826 1267 928 780 
Q 1030 294 1228 -157 
Q 1427 -608 1722 -1011 
L 1197 -1011 
Q 877 -634 665 -189 
Q 454 256 355 749 
Q 256 1242 256 1754 
z
" transform="scale(0.015625)"/>
       <path id="NotoSans-Regular-70" d="M 2176 3494 
Q 2810 3494 3197 3052 
Q 3584 2611 3584 1722 
Q 3584 1139 3408 739 
Q 3232 339 2915 137 
Q 2598 -64 2170 -64 
Q 1907 -64 1702 6 
Q 1498 77 1354 189 
Q 1210 301 1107 435 
L 1069 435 
Q 1082 326 1094 160 
Q 1107 -6 1107 -128 
L 1107 -1536 
L 544 -1536 
L 544 3430 
L 1005 3430 
L 1082 2963 
L 1107 2963 
Q 1210 3110 1354 3232 
Q 1498 3354 1699 3424 
Q 1901 3494 2176 3494 
z
M 2074 3021 
Q 1728 3021 1517 2889 
Q 1306 2758 1210 2496 
Q 1114 2234 1107 1830 
L 1107 1722 
Q 1107 1299 1196 1004 
Q 1286 710 1500 556 
Q 1715 403 2086 403 
Q 2400 403 2601 576 
Q 2803 749 2902 1046 
Q 3002 1344 3002 1728 
Q 3002 2317 2774 2669 
Q 2547 3021 2074 3021 
z
" transform="scale(0.015625)"/>
       <path id="NotoSans-Regular-73" d="M 2778 947 
Q 2778 614 2611 390 
Q 2445 166 2137 51 
Q 1830 -64 1408 -64 
Q 1050 -64 790 -6 
Q 531 51 333 154 
L 333 666 
Q 538 563 829 476 
Q 1120 390 1421 390 
Q 1850 390 2042 528 
Q 2234 666 2234 896 
Q 2234 1024 2163 1126 
Q 2093 1229 1910 1331 
Q 1728 1434 1389 1562 
Q 1056 1690 819 1818 
Q 582 1946 454 2125 
Q 326 2304 326 2586 
Q 326 3021 681 3257 
Q 1037 3494 1613 3494 
Q 1926 3494 2198 3433 
Q 2470 3373 2707 3264 
L 2515 2816 
Q 2298 2906 2061 2970 
Q 1824 3034 1574 3034 
Q 1229 3034 1046 2922 
Q 864 2810 864 2618 
Q 864 2477 947 2377 
Q 1030 2278 1225 2185 
Q 1421 2093 1747 1965 
Q 2074 1843 2304 1715 
Q 2534 1587 2656 1404 
Q 2778 1222 2778 947 
z
" transform="scale(0.015625)"/>
       <path id="NotoSans-Regular-29" d="M 1664 1754 
Q 1664 1242 1565 749 
Q 1466 256 1258 -189 
Q 1050 -634 723 -1011 
L 198 -1011 
Q 493 -608 691 -157 
Q 890 294 992 780 
Q 1094 1267 1094 1760 
Q 1094 2266 992 2758 
Q 890 3251 691 3712 
Q 493 4173 192 4570 
L 723 4570 
Q 1050 4186 1258 3731 
Q 1466 3277 1565 2777 
Q 1664 2278 1664 1754 
z
" transform="scale(0.015625)"/>
      </defs>
      <use xlink:href="#NotoSans-Italic-3c4" transform="translate(0 0.59375)"/>
      <use xlink:href="#NotoSans-Regular-20" transform="translate(40.999985 0.59375)"/>
      <use xlink:href="#NotoSans-Regular-28" transform="translate(66.999969 0.59375)"/>
      <use xlink:href="#NotoSans-Regular-70" transform="translate(96.999954 0.59375)"/>
      <use xlink:href="#NotoSans-Regular-73" transform="translate(158.499939 0.59375)"/>
      <use xlink:href="#NotoSans-Regular-29" transform="translate(206.399933 0.59375)"/>
     </g>
    </g>
   </g>
   <g id="matplotlib.axis_2">
    <g id="ytick_1">
     <g id="line2d_13">
      <defs>
       <path id="mc91ad777d7" d="M 0 0 
L 4 0 
" style="stroke: #000000; stroke-width: 0.6"/>
      </defs>
      <g>
       <use xlink:href="#mc91ad777d7" x="38.9" y="146.041227" style="stroke: #000000; stroke-width: 0.6"/>
      </g>
     </g>
     <g id="text_8">
      <!-- $\mathdefault{0.0}$ -->
      <g transform="translate(21.2 149.841227) scale(0.1 -0.1)">
       <defs>
        <path id="NotoSans-Regular-2e" d="M 461 346 
Q 461 582 576 678 
Q 691 774 851 774 
Q 1018 774 1136 678 
Q 1254 582 1254 346 
Q 1254 115 1136 12 
Q 1018 -90 851 -90 
Q 691 -90 576 12 
Q 461 115 461 346 
z
" transform="scale(0.015625)"/>
       </defs>
       <use xlink:href="#NotoSans-Regular-30" transform="translate(0 0.5)"/>
       <use xlink:href="#NotoSans-Regular-2e" transform="translate(57.199997 0.5)"/>
       <use xlink:href="#NotoSans-Regular-30" transform="translate(83.999985 0.5)"/>
      </g>
     </g>
    </g>
    <g id="ytick_2">
     <g id="line2d_14">
      <g>
       <use xlink:href="#mc91ad777d7" x="38.9" y="123.52464" style="stroke: #000000; stroke-width: 0.6"/>
      </g>
     </g>
     <g id="text_9">
      <!-- $\mathdefault{0.2}$ -->
      <g transform="translate(21.2 127.32464) scale(0.1 -0.1)">
       <use xlink:href="#NotoSans-Regular-30" transform="translate(0 0.5)"/>
       <use xlink:href="#NotoSans-Regular-2e" transform="translate(57.199997 0.5)"/>
       <use xlink:href="#NotoSans-Regular-32" transform="translate(83.999985 0.5)"/>
      </g>
     </g>
    </g>
    <g id="ytick_3">
     <g id="line2d_15">
      <g>
       <use xlink:href="#mc91ad777d7" x="38.9" y="101.008053" style="stroke: #000000; stroke-width: 0.6"/>
      </g>
     </g>
     <g id="text_10">
      <!-- $\mathdefault{0.4}$ -->
      <g transform="translate(21.2 104.808053) scale(0.1 -0.1)">
       <use xlink:href="#NotoSans-Regular-30" transform="translate(0 0.5)"/>
       <use xlink:href="#NotoSans-Regular-2e" transform="translate(57.199997 0.5)"/>
       <use xlink:href="#NotoSans-Regular-34" transform="translate(83.999985 0.5)"/>
      </g>
     </g>
    </g>
    <g id="ytick_4">
     <g id="line2d_16">
      <g>
       <use xlink:href="#mc91ad777d7" x="38.9" y="78.491467" style="stroke: #000000; stroke-width: 0.6"/>
      </g>
     </g>
     <g id="text_11">
      <!-- $\mathdefault{0.6}$ -->
      <g transform="translate(21.2 82.291467) scale(0.1 -0.1)">
       <defs>
        <path id="NotoSans-Regular-36" d="M 352 1952 
Q 352 2349 406 2733 
Q 461 3117 595 3459 
Q 730 3802 966 4067 
Q 1203 4333 1564 4483 
Q 1926 4634 2445 4634 
Q 2579 4634 2742 4621 
Q 2906 4608 3008 4576 
L 3008 4096 
Q 2893 4134 2749 4153 
Q 2605 4173 2458 4173 
Q 2016 4173 1721 4025 
Q 1427 3878 1257 3622 
Q 1088 3366 1011 3033 
Q 934 2701 915 2323 
L 954 2323 
Q 1050 2477 1197 2598 
Q 1344 2720 1552 2790 
Q 1760 2861 2035 2861 
Q 2432 2861 2729 2697 
Q 3027 2534 3193 2224 
Q 3360 1914 3360 1472 
Q 3360 998 3181 652 
Q 3002 307 2678 121 
Q 2355 -64 1907 -64 
Q 1581 -64 1299 57 
Q 1018 179 803 428 
Q 589 678 470 1059 
Q 352 1440 352 1952 
z
M 1901 410 
Q 2304 410 2553 669 
Q 2803 928 2803 1472 
Q 2803 1907 2582 2163 
Q 2362 2419 1920 2419 
Q 1619 2419 1395 2294 
Q 1171 2170 1046 1978 
Q 922 1786 922 1581 
Q 922 1370 982 1165 
Q 1043 960 1168 787 
Q 1293 614 1475 512 
Q 1658 410 1901 410 
z
" transform="scale(0.015625)"/>
       </defs>
       <use xlink:href="#NotoSans-Regular-30" transform="translate(0 0.5)"/>
       <use xlink:href="#NotoSans-Regular-2e" transform="translate(57.199997 0.5)"/>
       <use xlink:href="#NotoSans-Regular-36" transform="translate(83.999985 0.5)"/>
      </g>
     </g>
    </g>
    <g id="ytick_5">
     <g id="line2d_17">
      <g>
       <use xlink:href="#mc91ad777d7" x="38.9" y="55.97488" style="stroke: #000000; stroke-width: 0.6"/>
      </g>
     </g>
     <g id="text_12">
      <!-- $\mathdefault{0.8}$ -->
      <g transform="translate(21.2 59.77488) scale(0.1 -0.1)">
       <defs>
        <path id="NotoSans-Regular-38" d="M 1824 4634 
Q 2227 4634 2534 4509 
Q 2842 4384 3018 4141 
Q 3194 3898 3194 3539 
Q 3194 3264 3075 3059 
Q 2957 2854 2758 2697 
Q 2560 2541 2323 2419 
Q 2605 2285 2835 2115 
Q 3066 1946 3203 1722 
Q 3341 1498 3341 1184 
Q 3341 800 3155 521 
Q 2970 243 2634 89 
Q 2298 -64 1843 -64 
Q 1350 -64 1008 83 
Q 666 230 490 502 
Q 314 774 314 1165 
Q 314 1478 445 1708 
Q 576 1939 793 2105 
Q 1011 2272 1261 2387 
Q 1037 2515 854 2678 
Q 672 2842 566 3053 
Q 461 3264 461 3546 
Q 461 3898 640 4138 
Q 819 4378 1126 4506 
Q 1434 4634 1824 4634 
z
M 864 1158 
Q 864 826 1101 605 
Q 1338 384 1830 384 
Q 2298 384 2544 605 
Q 2790 826 2790 1178 
Q 2790 1402 2672 1571 
Q 2554 1741 2339 1875 
Q 2125 2010 1830 2118 
L 1728 2157 
Q 1446 2035 1254 1894 
Q 1062 1754 963 1574 
Q 864 1395 864 1158 
z
M 1818 4179 
Q 1466 4179 1238 4009 
Q 1011 3840 1011 3520 
Q 1011 3283 1123 3123 
Q 1235 2963 1427 2851 
Q 1619 2739 1850 2637 
Q 2074 2733 2250 2848 
Q 2426 2963 2531 3126 
Q 2637 3290 2637 3520 
Q 2637 3840 2413 4009 
Q 2189 4179 1818 4179 
z
" transform="scale(0.015625)"/>
       </defs>
       <use xlink:href="#NotoSans-Regular-30" transform="translate(0 0.5)"/>
       <use xlink:href="#NotoSans-Regular-2e" transform="translate(57.199997 0.5)"/>
       <use xlink:href="#NotoSans-Regular-38" transform="translate(83.999985 0.5)"/>
      </g>
     </g>
    </g>
    <g id="ytick_6">
     <g id="line2d_18">
      <g>
       <use xlink:href="#mc91ad777d7" x="38.9" y="33.458293" style="stroke: #000000; stroke-width: 0.6"/>
      </g>
     </g>
     <g id="text_13">
      <!-- $\mathdefault{1.0}$ -->
      <g transform="translate(21.2 37.258293) scale(0.1 -0.1)">
       <use xlink:href="#NotoSans-Regular-31" transform="translate(0 0.5)"/>
       <use xlink:href="#NotoSans-Regular-2e" transform="translate(57.199997 0.5)"/>
       <use xlink:href="#NotoSans-Regular-30" transform="translate(83.999985 0.5)"/>
      </g>
     </g>
    </g>
    <g id="text_14">
     <!-- $-\Delta E(t_0)$ (norm.) -->
     <g transform="translate(14.8 122.44976) rotate(-90) scale(0.1 -0.1)">
      <defs>
       <path id="NotoSans-Regular-394" d="M 64 0 
L 64 320 
L 1786 4589 
L 2304 4589 
L 4019 320 
L 4019 0 
L 64 0 
z
M 723 518 
L 3354 518 
L 2285 3309 
Q 2266 3360 2214 3494 
Q 2163 3629 2115 3773 
Q 2067 3917 2042 3994 
Q 2010 3866 1968 3734 
Q 1926 3603 1884 3494 
Q 1843 3386 1818 3309 
L 723 518 
z
" transform="scale(0.015625)"/>
       <path id="NotoSans-Italic-45" d="M 262 0 
L 1229 4570 
L 3546 4570 
L 3437 4064 
L 1690 4064 
L 1389 2637 
L 3021 2637 
L 2925 2138 
L 1286 2138 
L 934 506 
L 2688 506 
L 2579 0 
L 262 0 
z
" transform="scale(0.015625)"/>
       <path id="NotoSans-Italic-74" d="M 1184 -64 
Q 838 -64 601 102 
Q 365 269 365 685 
Q 365 781 381 899 
Q 397 1018 422 1139 
L 813 3002 
L 282 3002 
L 333 3258 
L 909 3501 
L 1306 4211 
L 1638 4211 
L 1466 3430 
L 2330 3430 
L 2240 3002 
L 1382 3002 
L 986 1133 
Q 966 1050 947 944 
Q 928 838 928 749 
Q 928 602 1008 499 
Q 1088 397 1267 397 
Q 1382 397 1491 419 
Q 1600 442 1722 480 
L 1722 51 
Q 1645 13 1485 -25 
Q 1325 -64 1184 -64 
z
" transform="scale(0.015625)"/>
       <path id="NotoSans-Regular-6e" d="M 2195 3494 
Q 2810 3494 3123 3196 
Q 3437 2899 3437 2234 
L 3437 0 
L 2880 0 
L 2880 2195 
Q 2880 2611 2694 2816 
Q 2509 3021 2112 3021 
Q 1542 3021 1324 2701 
Q 1107 2381 1107 1779 
L 1107 0 
L 544 0 
L 544 3430 
L 998 3430 
L 1082 2963 
L 1114 2963 
Q 1229 3142 1398 3260 
Q 1568 3379 1773 3436 
Q 1978 3494 2195 3494 
z
" transform="scale(0.015625)"/>
       <path id="NotoSans-Regular-6f" d="M 3526 1722 
Q 3526 1293 3414 963 
Q 3302 634 3094 403 
Q 2886 173 2588 54 
Q 2291 -64 1926 -64 
Q 1587 -64 1299 54 
Q 1011 173 800 403 
Q 589 634 470 963 
Q 352 1293 352 1722 
Q 352 2291 544 2684 
Q 736 3078 1094 3286 
Q 1453 3494 1946 3494 
Q 2413 3494 2768 3286 
Q 3123 3078 3324 2684 
Q 3526 2291 3526 1722 
z
M 934 1722 
Q 934 1318 1040 1020 
Q 1146 723 1370 563 
Q 1594 403 1939 403 
Q 2285 403 2509 563 
Q 2733 723 2838 1020 
Q 2944 1318 2944 1722 
Q 2944 2131 2835 2419 
Q 2726 2707 2505 2864 
Q 2285 3021 1933 3021 
Q 1408 3021 1171 2675 
Q 934 2330 934 1722 
z
" transform="scale(0.015625)"/>
       <path id="NotoSans-Regular-72" d="M 2144 3494 
Q 2240 3494 2352 3484 
Q 2464 3475 2547 3456 
L 2477 2938 
Q 2394 2957 2294 2969 
Q 2195 2982 2106 2982 
Q 1907 2982 1728 2899 
Q 1549 2816 1408 2665 
Q 1267 2515 1187 2304 
Q 1107 2093 1107 1830 
L 1107 0 
L 544 0 
L 544 3430 
L 1005 3430 
L 1069 2803 
L 1094 2803 
Q 1203 2995 1356 3152 
Q 1510 3309 1708 3401 
Q 1907 3494 2144 3494 
z
" transform="scale(0.015625)"/>
       <path id="NotoSans-Regular-6d" d="M 4307 3494 
Q 4890 3494 5178 3196 
Q 5466 2899 5466 2234 
L 5466 0 
L 4909 0 
L 4909 2208 
Q 4909 2611 4739 2816 
Q 4570 3021 4211 3021 
Q 3712 3021 3497 2733 
Q 3283 2445 3283 1894 
L 3283 0 
L 2726 0 
L 2726 2208 
Q 2726 2477 2649 2659 
Q 2573 2842 2419 2931 
Q 2266 3021 2022 3021 
Q 1677 3021 1478 2877 
Q 1280 2733 1193 2457 
Q 1107 2182 1107 1779 
L 1107 0 
L 544 0 
L 544 3430 
L 998 3430 
L 1082 2963 
L 1114 2963 
Q 1222 3142 1379 3260 
Q 1536 3379 1728 3436 
Q 1920 3494 2125 3494 
Q 2522 3494 2787 3353 
Q 3053 3213 3174 2918 
L 3206 2918 
Q 3379 3213 3676 3353 
Q 3974 3494 4307 3494 
z
" transform="scale(0.015625)"/>
      </defs>
      <use xlink:href="#NotoSans-Regular-2212" transform="translate(0 0.296875)"/>
      <use xlink:href="#NotoSans-Regular-394" transform="translate(32.199997 0.296875)"/>
      <use xlink:href="#NotoSans-Italic-45" transform="translate(96.099991 0.296875)"/>
      <use xlink:href="#NotoSans-Regular-28" transform="translate(147.499985 0.296875)"/>
      <use xlink:href="#NotoSans-Italic-74" transform="translate(177.499969 0.296875)"/>
      <use xlink:href="#NotoSans-Regular-30" transform="translate(210.699966 -15.78125) scale(0.7)"/>
      <use xlink:href="#NotoSans-Regular-29" transform="translate(253.419652 0.296875)"/>
      <use xlink:href="#NotoSans-Regular-20" transform="translate(283.419637 0.296875)"/>
      <use xlink:href="#NotoSans-Regular-28" transform="translate(309.419621 0.296875)"/>
      <use xlink:href="#NotoSans-Regular-6e" transform="translate(339.419606 0.296875)"/>
      <use xlink:href="#NotoSans-Regular-6f" transform="translate(401.219594 0.296875)"/>
      <use xlink:href="#NotoSans-Regular-72" transform="translate(461.719579 0.296875)"/>
      <use xlink:href="#NotoSans-Regular-6d" transform="translate(503.019566 0.296875)"/>
      <use xlink:href="#NotoSans-Regular-2e" transform="translate(596.519551 0.296875)"/>
      <use xlink:href="#NotoSans-Regular-29" transform="translate(623.319539 0.296875)"/>
     </g>
    </g>
   </g>
   <g id="line2d_19">
    <path d="M 12.151404 141.573905 
L 13.487444 146.207498 
L 14.823485 146.082298 
L 16.159525 145.817021 
L 17.495565 142.946937 
L 18.831606 148.776187 
L 20.167646 144.701523 
L 21.503686 147.993834 
L 22.839727 148.676585 
L 24.175767 143.028683 
L 25.511807 143.96461 
L 26.847848 146.295002 
L 28.183888 147.073783 
L 30.855969 149.540288 
L 32.192009 141.813979 
L 33.528049 145.40491 
L 34.864089 148.29007 
L 36.20013 144.152108 
L 37.53617 141.662593 
L 38.87221 145.307887 
L 40.208251 143.9781 
L 41.544291 148.817656 
L 42.880331 144.960854 
L 44.216372 145.438047 
L 45.552412 143.575516 
L 46.888452 145.998962 
L 48.224493 145.149151 
L 49.560533 144.805693 
L 50.896573 141.677272 
L 52.232613 143.146539 
L 53.568654 146.754727 
L 54.904694 148.176776 
L 56.240734 142.449905 
L 57.576775 145.310067 
L 58.912815 144.281281 
L 60.248855 146.99976 
L 61.584896 144.120962 
L 62.920936 142.229268 
L 64.256976 146.708892 
L 65.593017 140.339357 
L 66.929057 145.497173 
L 68.265097 144.264415 
L 69.601137 143.836039 
L 70.937178 144.833868 
L 72.273218 140.36813 
L 73.609258 141.361199 
L 74.945299 143.551906 
L 76.281339 144.050525 
L 77.617379 146.104126 
L 78.95342 143.037413 
L 80.28946 143.924328 
L 81.6255 144.370963 
L 82.961541 142.49018 
L 84.297581 145.945192 
L 86.969661 144.94081 
L 88.305702 140.840355 
L 89.641742 141.396314 
L 90.977782 137.157163 
L 92.313823 142.66895 
L 93.649863 133.838671 
L 94.985903 135.976801 
L 96.321944 133.511674 
L 97.657984 132.770002 
L 98.994024 130.761633 
L 101.666105 123.629985 
L 103.002145 124.109957 
L 104.338185 127.729041 
L 105.674226 122.885319 
L 109.682347 110.311516 
L 111.018387 97.18359 
L 112.354427 93.169224 
L 113.690468 86.80622 
L 115.026508 84.575416 
L 116.362548 93.156122 
L 117.698589 102.478501 
L 119.034629 99.737971 
L 120.370669 102.592191 
L 121.70671 93.228561 
L 123.04275 84.799224 
L 125.71483 53.438134 
L 127.050871 46.204541 
L 128.386911 44.116621 
L 129.722951 48.178762 
L 131.058992 54.515145 
L 132.395032 61.70786 
L 133.731072 66.691032 
L 135.067113 66.465829 
L 136.403153 61.475527 
L 137.739193 52.167302 
L 139.075234 48.452769 
L 140.411274 35.948994 
L 141.747314 33.458293 
L 143.083354 33.9946 
L 144.419395 38.656792 
L 145.755435 44.829915 
L 147.091475 43.11873 
L 148.427516 51.345467 
L 149.763556 54.622483 
L 152.435637 55.131008 
L 153.771677 52.524447 
L 155.107717 51.586735 
L 156.443758 49.891298 
L 157.779798 49.221831 
L 159.115838 48.828172 
L 160.451878 47.639875 
L 161.787919 52.142292 
L 163.123959 51.584554 
L 164.459999 54.184581 
L 165.79604 51.002599 
L 167.13208 52.906977 
L 168.46812 55.553441 
L 169.804161 55.773674 
L 171.140201 52.49488 
L 172.476241 52.466901 
L 173.812282 50.933359 
L 175.148322 56.694522 
L 176.484362 51.477003 
L 177.820402 52.440107 
L 179.156443 54.114336 
L 180.492483 53.018104 
L 181.828523 54.385383 
L 183.164564 57.547711 
L 184.500604 55.774859 
L 185.836644 55.665547 
L 187.172685 60.435619 
L 188.508725 58.357842 
L 189.844765 53.446869 
L 191.180806 55.548078 
L 192.516846 62.892003 
L 193.852886 60.496937 
L 195.188926 58.37866 
L 199.197047 59.838595 
L 200.533088 56.852449 
L 201.869128 59.868364 
L 203.205168 58.281039 
L 204.541209 57.690958 
L 205.877249 60.481068 
L 207.213289 60.311417 
L 208.54933 61.112423 
L 209.88537 59.067361 
L 211.22141 60.809039 
L 213.893491 60.339006 
L 215.229531 63.167398 
L 216.565571 64.104717 
L 217.901612 66.384296 
L 219.237652 62.650938 
L 220.573692 62.05647 
L 221.909733 61.75965 
L 223.245773 64.93071 
L 224.581813 64.411457 
L 225.917854 66.008702 
L 227.253894 65.888268 
L 228.589934 64.95512 
L 229.925975 64.760463 
L 231.262015 65.707299 
L 232.598055 68.020232 
L 233.934095 64.773162 
L 235.270136 67.957337 
L 236.606176 66.960485 
L 237.942216 70.212699 
L 239.278257 66.892031 
L 240.614297 65.381102 
L 241.950337 66.032297 
L 243.286378 66.283901 
L 244.622418 69.870833 
L 245.958458 66.022387 
L 247.294499 71.422051 
L 248.630539 70.990889 
L 249.966579 68.944046 
L 251.302619 66.432355 
L 251.302619 66.432355 
" clip-path="url(#p2afc3d0952)" style="fill: none; stroke: #9f3628; stroke-linecap: square"/>
   </g>
   <g id="line2d_20">
    <path d="M 12.151404 146.041227 
L 69.601137 145.945253 
L 74.945299 145.730213 
L 78.95342 145.348255 
L 81.6255 144.903134 
L 84.297581 144.227464 
L 86.969661 143.235419 
L 89.641742 141.826582 
L 90.977782 140.931772 
L 92.313823 139.891438 
L 93.649863 138.691983 
L 94.985903 137.320586 
L 96.321944 135.765667 
L 97.657984 134.017368 
L 98.994024 132.068044 
L 101.666105 127.549593 
L 104.338185 122.210175 
L 107.010266 116.109206 
L 109.682347 109.369285 
L 113.690468 98.470554 
L 119.034629 83.717111 
L 121.70671 76.80652 
L 124.37879 70.496866 
L 127.050871 64.94456 
L 129.722951 60.243584 
L 131.058992 58.224177 
L 132.395032 56.424278 
L 133.731072 54.838827 
L 135.067113 53.459949 
L 136.403153 52.277422 
L 137.739193 51.279182 
L 139.075234 50.451817 
L 140.411274 49.781045 
L 141.747314 49.252159 
L 144.419395 48.561403 
L 147.091475 48.26697 
L 149.763556 48.268702 
L 152.435637 48.483075 
L 156.443758 49.063979 
L 161.787919 50.100612 
L 172.476241 52.469263 
L 251.302619 70.487352 
L 251.302619 70.487352 
" clip-path="url(#p2afc3d0952)" style="fill: none; stroke-dasharray: 3.7,1.6; stroke-dashoffset: 0; stroke: #000000"/>
   </g>
   <g id="patch_3">
    <path d="M 38.9 157.29952 
L 38.9 22.2 
" style="fill: none; stroke: #000000; stroke-width: 0.6; stroke-linejoin: miter; stroke-linecap: square"/>
   </g>
   <g id="patch_4">
    <path d="M 239.167098 157.29952 
L 239.167098 22.2 
" style="fill: none; stroke: #000000; stroke-width: 0.6; stroke-linejoin: miter; stroke-linecap: square"/>
   </g>
   <g id="patch_5">
    <path d="M 38.9 157.29952 
L 239.167098 157.29952 
" style="fill: none; stroke: #000000; stroke-width: 0.6; stroke-linejoin: miter; stroke-linecap: square"/>
   </g>
   <g id="patch_6">
    <path d="M 38.9 22.2 
L 239.167098 22.2 
" style="fill: none; stroke: #000000; stroke-width: 0.6; stroke-linejoin: miter; stroke-linecap: square"/>
   </g>
   <g id="text_15">
    <!-- $\tau_\text{rise}$ = 0.9 ps -->
    <g transform="translate(92.751174 116.480559) rotate(-70) scale(0.1 -0.1)">
     <defs>
      <path id="NotoSans-Regular-69" d="M 1107 3430 
L 1107 0 
L 544 0 
L 544 3430 
L 1107 3430 
z
M 832 4717 
Q 960 4717 1059 4630 
Q 1158 4544 1158 4358 
Q 1158 4179 1059 4089 
Q 960 4000 832 4000 
Q 691 4000 595 4089 
Q 499 4179 499 4358 
Q 499 4544 595 4630 
Q 691 4717 832 4717 
z
" transform="scale(0.015625)"/>
      <path id="NotoSans-Regular-65" d="M 1869 3494 
Q 2310 3494 2627 3302 
Q 2944 3110 3113 2761 
Q 3283 2413 3283 1946 
L 3283 1606 
L 934 1606 
Q 947 1024 1232 720 
Q 1517 416 2029 416 
Q 2355 416 2608 477 
Q 2861 538 3130 653 
L 3130 160 
Q 2867 45 2611 -9 
Q 2355 -64 2003 -64 
Q 1517 -64 1142 134 
Q 768 333 560 726 
Q 352 1120 352 1690 
Q 352 2253 541 2656 
Q 730 3059 1072 3276 
Q 1414 3494 1869 3494 
z
M 1862 3034 
Q 1459 3034 1225 2774 
Q 992 2515 947 2054 
L 2694 2054 
Q 2694 2349 2604 2566 
Q 2515 2784 2332 2909 
Q 2150 3034 1862 3034 
z
" transform="scale(0.015625)"/>
      <path id="NotoSans-Regular-3d" d="M 358 2662 
L 358 3117 
L 3290 3117 
L 3290 2662 
L 358 2662 
z
M 358 1389 
L 358 1843 
L 3290 1843 
L 3290 1389 
L 358 1389 
z
" transform="scale(0.015625)"/>
      <path id="NotoSans-Regular-39" d="M 3328 2618 
Q 3328 2227 3273 1840 
Q 3219 1453 3084 1110 
Q 2950 768 2713 502 
Q 2477 237 2112 86 
Q 1747 -64 1229 -64 
Q 1101 -64 931 -48 
Q 762 -32 653 0 
L 653 480 
Q 768 442 921 419 
Q 1075 397 1216 397 
Q 1664 397 1955 544 
Q 2246 691 2419 944 
Q 2592 1197 2669 1533 
Q 2746 1869 2758 2240 
L 2720 2240 
Q 2624 2093 2477 1971 
Q 2330 1850 2122 1779 
Q 1914 1709 1632 1709 
Q 1242 1709 944 1872 
Q 646 2035 483 2342 
Q 320 2650 320 3091 
Q 320 3571 502 3916 
Q 685 4262 1011 4448 
Q 1338 4634 1779 4634 
Q 2106 4634 2387 4509 
Q 2669 4384 2880 4134 
Q 3091 3885 3209 3507 
Q 3328 3130 3328 2618 
z
M 1779 4160 
Q 1382 4160 1129 3897 
Q 877 3635 877 3098 
Q 877 2656 1091 2403 
Q 1306 2150 1754 2150 
Q 2061 2150 2285 2275 
Q 2509 2400 2633 2592 
Q 2758 2784 2758 2989 
Q 2758 3194 2697 3402 
Q 2637 3610 2515 3782 
Q 2394 3955 2208 4057 
Q 2022 4160 1779 4160 
z
" transform="scale(0.015625)"/>
     </defs>
     <use xlink:href="#NotoSans-Italic-3c4" transform="translate(0 0.5)"/>
     <use xlink:href="#NotoSans-Regular-72" transform="translate(40.999985 -15.578125) scale(0.7)"/>
     <use xlink:href="#NotoSans-Regular-69" transform="translate(69.909976 -15.578125) scale(0.7)"/>
     <use xlink:href="#NotoSans-Regular-73" transform="translate(87.969968 -15.578125) scale(0.7)"/>
     <use xlink:href="#NotoSans-Regular-65" transform="translate(121.499963 -15.578125) scale(0.7)"/>
     <use xlink:href="#NotoSans-Regular-20" transform="translate(163.659647 0.5)"/>
     <use xlink:href="#NotoSans-Regular-3d" transform="translate(189.659631 0.5)"/>
     <use xlink:href="#NotoSans-Regular-20" transform="translate(246.859628 0.5)"/>
     <use xlink:href="#NotoSans-Regular-30" transform="translate(272.859613 0.5)"/>
     <use xlink:href="#NotoSans-Regular-2e" transform="translate(330.05961 0.5)"/>
     <use xlink:href="#NotoSans-Regular-39" transform="translate(356.859598 0.5)"/>
     <use xlink:href="#NotoSans-Regular-20" transform="translate(414.059595 0.5)"/>
     <use xlink:href="#NotoSans-Regular-70" transform="translate(440.059579 0.5)"/>
     <use xlink:href="#NotoSans-Regular-73" transform="translate(501.559564 0.5)"/>
    </g>
   </g>
   <g id="patch_7">
    <path d="M 105.544226 50.345733 
Q 112.997441 50.345733 121.009673 50.345733 
" style="fill: none; stroke: #000000; stroke-width: 0.5; stroke-linecap: round"/>
    <path d="M 109.544226 52.345733 
L 105.544226 50.345733 
L 109.544226 48.345733 
z
" style="stroke: #000000; stroke-width: 0.5; stroke-linecap: round"/>
   </g>
   <g id="text_16">
    <!-- a -->
    <g transform="translate(25.879688 14.8) scale(0.1 -0.1)">
     <defs>
      <path id="NotoSans-Bold-61" d="M 1933 3565 
Q 2637 3565 3011 3261 
Q 3386 2957 3386 2330 
L 3386 0 
L 2720 0 
L 2534 474 
L 2509 474 
Q 2362 288 2205 166 
Q 2048 45 1846 -9 
Q 1645 -64 1350 -64 
Q 1043 -64 796 54 
Q 550 173 409 419 
Q 269 666 269 1043 
Q 269 1600 659 1865 
Q 1050 2131 1830 2157 
L 2438 2176 
L 2438 2330 
Q 2438 2605 2294 2733 
Q 2150 2861 1894 2861 
Q 1638 2861 1395 2787 
Q 1152 2714 909 2605 
L 595 3251 
Q 877 3398 1219 3481 
Q 1562 3565 1933 3565 
z
M 2067 1606 
Q 1606 1594 1427 1440 
Q 1248 1286 1248 1037 
Q 1248 819 1376 726 
Q 1504 634 1709 634 
Q 2016 634 2227 816 
Q 2438 998 2438 1331 
L 2438 1619 
L 2067 1606 
z
" transform="scale(0.015625)"/>
     </defs>
     <use xlink:href="#NotoSans-Bold-61"/>
    </g>
   </g>
  </g>
  <g id="axes_2">
   <g id="text_17">
    <!-- b -->
    <g transform="translate(277.367578 14.8) scale(0.1 -0.1)">
     <defs>
      <path id="NotoSans-Bold-62" d="M 1453 3731 
Q 1453 3533 1440 3341 
Q 1427 3149 1414 3040 
L 1453 3040 
Q 1594 3258 1830 3408 
Q 2067 3558 2445 3558 
Q 3034 3558 3398 3100 
Q 3763 2643 3763 1754 
Q 3763 1158 3593 752 
Q 3424 346 3123 141 
Q 2822 -64 2419 -64 
Q 2035 -64 1814 73 
Q 1594 211 1453 384 
L 1389 384 
L 1229 0 
L 499 0 
L 499 4864 
L 1453 4864 
L 1453 3731 
z
M 2138 2797 
Q 1888 2797 1741 2694 
Q 1594 2592 1526 2384 
Q 1459 2176 1453 1862 
L 1453 1760 
Q 1453 1254 1603 982 
Q 1754 710 2150 710 
Q 2445 710 2617 982 
Q 2790 1254 2790 1766 
Q 2790 2278 2614 2537 
Q 2438 2797 2138 2797 
z
" transform="scale(0.015625)"/>
     </defs>
     <use xlink:href="#NotoSans-Bold-62"/>
    </g>
   </g>
  </g>
  <g id="axes_3">
   <g id="patch_8">
    <path d="M 38.9 340.89952 
L 239.167098 340.89952 
L 239.167098 205.8 
L 38.9 205.8 
z
" style="fill: #ffffff"/>
   </g>
   <g id="PolyCollection_3"/>
   <g id="matplotlib.axis_3">
    <g id="xtick_7">
     <g id="line2d_21">
      <g>
       <use xlink:href="#m54f99dba85" x="38.9" y="340.89952" style="stroke: #000000; stroke-width: 0.6"/>
      </g>
     </g>
     <g id="line2d_22">
      <g>
       <use xlink:href="#m48cf622409" x="38.9" y="205.8" style="stroke: #000000; stroke-width: 0.6"/>
      </g>
     </g>
     <g id="text_18">
      <!-- $\mathdefault{−1}$ -->
      <g transform="translate(34.4 351.99952) scale(0.1 -0.1)">
       <use xlink:href="#NotoSans-Regular-2212" transform="translate(0 0.59375)"/>
       <use xlink:href="#NotoSans-Regular-31" transform="translate(32.199997 0.59375)"/>
      </g>
     </g>
    </g>
    <g id="xtick_8">
     <g id="line2d_23">
      <g>
       <use xlink:href="#m54f99dba85" x="78.95342" y="340.89952" style="stroke: #000000; stroke-width: 0.6"/>
      </g>
     </g>
     <g id="line2d_24">
      <g>
       <use xlink:href="#m48cf622409" x="78.95342" y="205.8" style="stroke: #000000; stroke-width: 0.6"/>
      </g>
     </g>
     <g id="text_19">
      <!-- $\mathdefault{0}$ -->
      <g transform="translate(76.05342 351.99952) scale(0.1 -0.1)">
       <use xlink:href="#NotoSans-Regular-30" transform="translate(0 0.5)"/>
      </g>
     </g>
    </g>
    <g id="xtick_9">
     <g id="line2d_25">
      <g>
       <use xlink:href="#m54f99dba85" x="119.006839" y="340.89952" style="stroke: #000000; stroke-width: 0.6"/>
      </g>
     </g>
     <g id="line2d_26">
      <g>
       <use xlink:href="#m48cf622409" x="119.006839" y="205.8" style="stroke: #000000; stroke-width: 0.6"/>
      </g>
     </g>
     <g id="text_20">
      <!-- $\mathdefault{1}$ -->
      <g transform="translate(116.106839 351.99952) scale(0.1 -0.1)">
       <use xlink:href="#NotoSans-Regular-31" transform="translate(0 0.59375)"/>
      </g>
     </g>
    </g>
    <g id="xtick_10">
     <g id="line2d_27">
      <g>
       <use xlink:href="#m54f99dba85" x="159.060259" y="340.89952" style="stroke: #000000; stroke-width: 0.6"/>
      </g>
     </g>
     <g id="line2d_28">
      <g>
       <use xlink:href="#m48cf622409" x="159.060259" y="205.8" style="stroke: #000000; stroke-width: 0.6"/>
      </g>
     </g>
     <g id="text_21">
      <!-- $\mathdefault{2}$ -->
      <g transform="translate(156.160259 351.99952) scale(0.1 -0.1)">
       <use xlink:href="#NotoSans-Regular-32" transform="translate(0 0.59375)"/>
      </g>
     </g>
    </g>
    <g id="xtick_11">
     <g id="line2d_29">
      <g>
       <use xlink:href="#m54f99dba85" x="199.113679" y="340.89952" style="stroke: #000000; stroke-width: 0.6"/>
      </g>
     </g>
     <g id="line2d_30">
      <g>
       <use xlink:href="#m48cf622409" x="199.113679" y="205.8" style="stroke: #000000; stroke-width: 0.6"/>
      </g>
     </g>
     <g id="text_22">
      <!-- $\mathdefault{3}$ -->
      <g transform="translate(196.213679 351.99952) scale(0.1 -0.1)">
       <use xlink:href="#NotoSans-Regular-33" transform="translate(0 0.59375)"/>
      </g>
     </g>
    </g>
    <g id="xtick_12">
     <g id="line2d_31">
      <g>
       <use xlink:href="#m54f99dba85" x="239.167098" y="340.89952" style="stroke: #000000; stroke-width: 0.6"/>
      </g>
     </g>
     <g id="line2d_32">
      <g>
       <use xlink:href="#m48cf622409" x="239.167098" y="205.8" style="stroke: #000000; stroke-width: 0.6"/>
      </g>
     </g>
     <g id="text_23">
      <!-- $\mathdefault{4}$ -->
      <g transform="translate(236.267098 351.99952) scale(0.1 -0.1)">
       <use xlink:href="#NotoSans-Regular-34" transform="translate(0 0.203125)"/>
      </g>
     </g>
    </g>
    <g id="text_24">
     <!-- $\tau$ (ps) -->
     <g transform="translate(127.183549 365.99952) scale(0.1 -0.1)">
      <use xlink:href="#NotoSans-Italic-3c4" transform="translate(0 0.59375)"/>
      <use xlink:href="#NotoSans-Regular-20" transform="translate(40.999985 0.59375)"/>
      <use xlink:href="#NotoSans-Regular-28" transform="translate(66.999969 0.59375)"/>
      <use xlink:href="#NotoSans-Regular-70" transform="translate(96.999954 0.59375)"/>
      <use xlink:href="#NotoSans-Regular-73" transform="translate(158.499939 0.59375)"/>
      <use xlink:href="#NotoSans-Regular-29" transform="translate(206.399933 0.59375)"/>
     </g>
    </g>
   </g>
   <g id="matplotlib.axis_4">
    <g id="ytick_7">
     <g id="line2d_33">
      <g>
       <use xlink:href="#mc91ad777d7" x="38.9" y="322.315191" style="stroke: #000000; stroke-width: 0.6"/>
      </g>
     </g>
     <g id="line2d_34">
      <defs>
       <path id="m39b45c7a10" d="M 0 0 
L -4 0 
" style="stroke: #000000; stroke-width: 0.6"/>
      </defs>
      <g>
       <use xlink:href="#m39b45c7a10" x="239.167098" y="322.315191" style="stroke: #000000; stroke-width: 0.6"/>
      </g>
     </g>
     <g id="text_25">
      <!-- $\mathdefault{1.0}$ -->
      <g transform="translate(21.2 326.115191) scale(0.1 -0.1)">
       <use xlink:href="#NotoSans-Regular-31" transform="translate(0 0.5)"/>
       <use xlink:href="#NotoSans-Regular-2e" transform="translate(57.199997 0.5)"/>
       <use xlink:href="#NotoSans-Regular-30" transform="translate(83.999985 0.5)"/>
      </g>
     </g>
    </g>
    <g id="ytick_8">
     <g id="line2d_35">
      <g>
       <use xlink:href="#mc91ad777d7" x="38.9" y="298.816649" style="stroke: #000000; stroke-width: 0.6"/>
      </g>
     </g>
     <g id="line2d_36">
      <g>
       <use xlink:href="#m39b45c7a10" x="239.167098" y="298.816649" style="stroke: #000000; stroke-width: 0.6"/>
      </g>
     </g>
     <g id="text_26">
      <!-- $\mathdefault{1.5}$ -->
      <g transform="translate(21.2 302.616649) scale(0.1 -0.1)">
       <defs>
        <path id="NotoSans-Regular-35" d="M 1760 2803 
Q 2227 2803 2572 2643 
Q 2918 2483 3107 2185 
Q 3296 1888 3296 1459 
Q 3296 986 3091 643 
Q 2886 301 2505 118 
Q 2125 -64 1587 -64 
Q 1235 -64 924 0 
Q 614 64 403 186 
L 403 717 
Q 634 576 963 496 
Q 1293 416 1594 416 
Q 1933 416 2185 521 
Q 2438 627 2579 848 
Q 2720 1069 2720 1402 
Q 2720 1850 2445 2090 
Q 2170 2330 1574 2330 
Q 1395 2330 1164 2298 
Q 934 2266 794 2234 
L 512 2413 
L 685 4570 
L 2976 4570 
L 2976 4058 
L 1165 4058 
L 1056 2733 
Q 1165 2752 1350 2777 
Q 1536 2803 1760 2803 
z
" transform="scale(0.015625)"/>
       </defs>
       <use xlink:href="#NotoSans-Regular-31" transform="translate(0 0.59375)"/>
       <use xlink:href="#NotoSans-Regular-2e" transform="translate(57.199997 0.59375)"/>
       <use xlink:href="#NotoSans-Regular-35" transform="translate(83.999985 0.59375)"/>
      </g>
     </g>
    </g>
    <g id="ytick_9">
     <g id="line2d_37">
      <g>
       <use xlink:href="#mc91ad777d7" x="38.9" y="275.318107" style="stroke: #000000; stroke-width: 0.6"/>
      </g>
     </g>
     <g id="line2d_38">
      <g>
       <use xlink:href="#m39b45c7a10" x="239.167098" y="275.318107" style="stroke: #000000; stroke-width: 0.6"/>
      </g>
     </g>
     <g id="text_27">
      <!-- $\mathdefault{2.0}$ -->
      <g transform="translate(21.2 279.118107) scale(0.1 -0.1)">
       <use xlink:href="#NotoSans-Regular-32" transform="translate(0 0.5)"/>
       <use xlink:href="#NotoSans-Regular-2e" transform="translate(57.199997 0.5)"/>
       <use xlink:href="#NotoSans-Regular-30" transform="translate(83.999985 0.5)"/>
      </g>
     </g>
    </g>
    <g id="ytick_10">
     <g id="line2d_39">
      <g>
       <use xlink:href="#mc91ad777d7" x="38.9" y="251.819564" style="stroke: #000000; stroke-width: 0.6"/>
      </g>
     </g>
     <g id="line2d_40">
      <g>
       <use xlink:href="#m39b45c7a10" x="239.167098" y="251.819564" style="stroke: #000000; stroke-width: 0.6"/>
      </g>
     </g>
     <g id="text_28">
      <!-- $\mathdefault{2.5}$ -->
      <g transform="translate(21.2 255.619564) scale(0.1 -0.1)">
       <use xlink:href="#NotoSans-Regular-32" transform="translate(0 0.59375)"/>
       <use xlink:href="#NotoSans-Regular-2e" transform="translate(57.199997 0.59375)"/>
       <use xlink:href="#NotoSans-Regular-35" transform="translate(83.999985 0.59375)"/>
      </g>
     </g>
    </g>
    <g id="ytick_11">
     <g id="line2d_41">
      <g>
       <use xlink:href="#mc91ad777d7" x="38.9" y="228.321022" style="stroke: #000000; stroke-width: 0.6"/>
      </g>
     </g>
     <g id="line2d_42">
      <g>
       <use xlink:href="#m39b45c7a10" x="239.167098" y="228.321022" style="stroke: #000000; stroke-width: 0.6"/>
      </g>
     </g>
     <g id="text_29">
      <!-- $\mathdefault{3.0}$ -->
      <g transform="translate(21.2 232.121022) scale(0.1 -0.1)">
       <use xlink:href="#NotoSans-Regular-33" transform="translate(0 0.5)"/>
       <use xlink:href="#NotoSans-Regular-2e" transform="translate(57.199997 0.5)"/>
       <use xlink:href="#NotoSans-Regular-30" transform="translate(83.999985 0.5)"/>
      </g>
     </g>
    </g>
    <g id="text_30">
     <!-- $\sigma$ (S/m) -->
     <g transform="translate(14.8 289.74976) rotate(-90) scale(0.1 -0.1)">
      <defs>
       <path id="NotoSans-Italic-3c3" d="M 1517 -64 
Q 1082 -64 787 163 
Q 493 390 377 803 
Q 262 1216 352 1766 
Q 461 2413 733 2774 
Q 1005 3136 1421 3283 
Q 1837 3430 2355 3430 
L 3808 3430 
L 3706 2950 
L 3002 2950 
Q 3200 2714 3270 2374 
Q 3341 2035 3264 1574 
Q 3206 1229 3062 928 
Q 2918 627 2694 406 
Q 2470 186 2176 61 
Q 1882 -64 1517 -64 
z
M 1613 403 
Q 2080 403 2342 729 
Q 2605 1056 2682 1562 
Q 2733 1837 2723 2083 
Q 2714 2330 2650 2547 
Q 2586 2765 2464 2950 
L 2266 2950 
Q 1888 2950 1616 2838 
Q 1344 2726 1171 2457 
Q 998 2189 922 1702 
Q 870 1344 918 1046 
Q 966 749 1136 576 
Q 1306 403 1613 403 
z
" transform="scale(0.015625)"/>
       <path id="NotoSans-Regular-53" d="M 3213 1222 
Q 3213 813 3014 528 
Q 2816 243 2448 89 
Q 2080 -64 1581 -64 
Q 1325 -64 1091 -38 
Q 858 -13 666 35 
Q 474 83 326 154 
L 326 704 
Q 557 602 899 518 
Q 1242 435 1606 435 
Q 1946 435 2176 524 
Q 2406 614 2521 780 
Q 2637 947 2637 1171 
Q 2637 1395 2541 1548 
Q 2445 1702 2211 1833 
Q 1978 1965 1562 2112 
Q 1267 2221 1046 2345 
Q 826 2470 678 2630 
Q 531 2790 457 2995 
Q 384 3200 384 3469 
Q 384 3834 569 4093 
Q 755 4352 1084 4493 
Q 1414 4634 1843 4634 
Q 2221 4634 2534 4563 
Q 2848 4493 3104 4378 
L 2925 3885 
Q 2688 3987 2409 4057 
Q 2131 4128 1830 4128 
Q 1542 4128 1350 4045 
Q 1158 3962 1062 3811 
Q 966 3661 966 3462 
Q 966 3232 1062 3078 
Q 1158 2925 1376 2803 
Q 1594 2682 1965 2541 
Q 2368 2394 2646 2224 
Q 2925 2054 3069 1817 
Q 3213 1581 3213 1222 
z
" transform="scale(0.015625)"/>
       <path id="NotoSans-Regular-2f" d="M 2317 4570 
L 614 0 
L 64 0 
L 1766 4570 
L 2317 4570 
z
" transform="scale(0.015625)"/>
      </defs>
      <use xlink:href="#NotoSans-Italic-3c3" transform="translate(0 0.59375)"/>
      <use xlink:href="#NotoSans-Regular-20" transform="translate(55.599991 0.59375)"/>
      <use xlink:href="#NotoSans-Regular-28" transform="translate(81.599976 0.59375)"/>
      <use xlink:href="#NotoSans-Regular-53" transform="translate(111.59996 0.59375)"/>
      <use xlink:href="#NotoSans-Regular-2f" transform="translate(166.499954 0.59375)"/>
      <use xlink:href="#NotoSans-Regular-6d" transform="translate(203.699951 0.59375)"/>
      <use xlink:href="#NotoSans-Regular-29" transform="translate(297.199936 0.59375)"/>
     </g>
    </g>
    <g id="text_31">
     <!-- $\times\mathdefault{10^{4}}\mathdefault{}$ -->
     <g transform="translate(38.9 202.8) scale(0.1 -0.1)">
      <defs>
       <path id="NotoSans-Regular-d7" d="M 2918 3674 
L 3238 3347 
L 2150 2259 
L 3232 1171 
L 2912 845 
L 1818 1926 
L 749 845 
L 416 1171 
L 1498 2259 
L 410 3341 
L 742 3674 
L 1824 2579 
L 2918 3674 
z
" transform="scale(0.015625)"/>
      </defs>
      <use xlink:href="#NotoSans-Regular-d7" transform="translate(0 0.226562)"/>
      <use xlink:href="#NotoSans-Regular-31" transform="translate(57.199997 0.226562)"/>
      <use xlink:href="#NotoSans-Regular-30" transform="translate(114.399994 0.226562)"/>
      <use xlink:href="#NotoSans-Regular-34" transform="translate(172.537881 37.742188) scale(0.7)"/>
     </g>
    </g>
   </g>
   <g id="line2d_43">
    <path d="M 12.164342 334.144085 
L 14.835905 334.758633 
L 17.507469 333.201709 
L 20.179032 333.518607 
L 22.850595 333.832724 
L 25.522158 331.574633 
L 28.193721 330.220343 
L 30.865284 330.903457 
L 33.536847 329.525081 
L 36.20841 330.563405 
L 38.879973 330.563405 
L 41.551536 330.563405 
L 44.223099 328.458933 
L 46.894663 327.732343 
L 49.566226 326.618156 
L 52.237789 325.858827 
L 54.909352 328.817452 
L 57.580915 328.458933 
L 60.252478 327.732343 
L 62.924041 323.498846 
L 65.595604 322.271217 
L 68.267167 321.010693 
L 70.93873 319.716391 
L 73.610293 318.834312 
L 76.281857 317.481692 
L 78.95342 318.387407 
L 81.624983 319.716391 
L 84.296546 316.092826 
L 86.968109 310.155092 
L 89.639672 310.674242 
L 92.311235 312.204516 
L 94.982798 312.204516 
L 97.654361 313.202448 
L 100.325924 306.942232 
L 102.997487 304.70396 
L 105.669051 299.983559 
L 108.340614 291.56622 
L 111.012177 288.063125 
L 113.68374 280.576295 
L 116.355303 286.618083 
L 119.026866 289.482917 
L 121.698429 281.355022 
L 124.369992 255.736334 
L 127.041555 230.210562 
L 129.713118 236.207997 
L 132.384681 261.586956 
L 135.056244 264.398259 
L 137.727808 245.2707 
L 140.399371 220.047539 
L 143.070934 211.940887 
L 145.742497 227.736593 
L 148.41406 237.37609 
L 151.085623 240.819224 
L 153.757186 241.94685 
L 156.428749 239.681614 
L 159.100312 237.37609 
L 161.771875 235.029562 
L 164.443438 240.819224 
L 167.115002 245.2707 
L 169.786565 245.2707 
L 172.458128 246.359261 
L 175.129691 245.2707 
L 177.801254 244.172501 
L 180.472817 238.533933 
L 183.14438 245.2707 
L 185.815943 247.438269 
L 188.487506 250.61881 
L 191.159069 249.567961 
L 193.830632 252.692923 
L 196.502196 252.692923 
L 199.173759 253.716348 
L 201.845322 256.73305 
L 204.516885 258.70032 
L 207.188448 259.671026 
L 209.860011 262.532329 
L 212.531574 261.586956 
L 215.203137 262.532329 
L 217.8747 262.532329 
L 220.546263 261.586956 
" clip-path="url(#pfe84a2df4b)" style="fill: none; stroke: #9f3628; stroke-linecap: square"/>
   </g>
   <g id="patch_9">
    <path d="M 38.9 340.89952 
L 38.9 205.8 
" style="fill: none; stroke: #000000; stroke-width: 0.6; stroke-linejoin: miter; stroke-linecap: square"/>
   </g>
   <g id="patch_10">
    <path d="M 239.167098 340.89952 
L 239.167098 205.8 
" style="fill: none; stroke: #000000; stroke-width: 0.6; stroke-linejoin: miter; stroke-linecap: square"/>
   </g>
   <g id="patch_11">
    <path d="M 38.9 340.89952 
L 239.167098 340.89952 
" style="fill: none; stroke: #000000; stroke-width: 0.6; stroke-linejoin: miter; stroke-linecap: square"/>
   </g>
   <g id="patch_12">
    <path d="M 38.9 205.8 
L 239.167098 205.8 
" style="fill: none; stroke: #000000; stroke-width: 0.6; stroke-linejoin: miter; stroke-linecap: square"/>
   </g>
   <g id="text_32">
    <!-- c -->
    <g transform="translate(26.329688 198.4) scale(0.1 -0.1)">
     <defs>
      <path id="NotoSans-Bold-63" d="M 1920 -64 
Q 1402 -64 1037 125 
Q 672 314 480 710 
Q 288 1107 288 1728 
Q 288 2368 505 2771 
Q 723 3174 1110 3366 
Q 1498 3558 2003 3558 
Q 2362 3558 2627 3488 
Q 2893 3418 3091 3322 
L 2810 2586 
Q 2586 2675 2390 2732 
Q 2195 2790 2003 2790 
Q 1754 2790 1587 2672 
Q 1421 2554 1341 2320 
Q 1261 2086 1261 1734 
Q 1261 1389 1347 1161 
Q 1434 934 1600 822 
Q 1766 710 2003 710 
Q 2304 710 2534 790 
Q 2765 870 2982 1011 
L 2982 198 
Q 2765 58 2525 -3 
Q 2285 -64 1920 -64 
z
" transform="scale(0.015625)"/>
     </defs>
     <use xlink:href="#NotoSans-Bold-63"/>
    </g>
   </g>
  </g>
  <g id="axes_4">
   <g id="text_33">
    <!-- d -->
    <g transform="translate(277.367578 198.4) scale(0.1 -0.1)">
     <defs>
      <path id="NotoSans-Bold-64" d="M 1606 -64 
Q 1024 -64 656 393 
Q 288 851 288 1741 
Q 288 2637 659 3097 
Q 1030 3558 1632 3558 
Q 1882 3558 2074 3491 
Q 2266 3424 2403 3309 
Q 2541 3194 2637 3046 
L 2669 3046 
Q 2650 3149 2624 3344 
Q 2598 3539 2598 3744 
L 2598 4864 
L 3552 4864 
L 3552 0 
L 2822 0 
L 2637 454 
L 2598 454 
Q 2509 314 2371 195 
Q 2234 77 2048 6 
Q 1862 -64 1606 -64 
z
M 1939 698 
Q 2336 698 2496 931 
Q 2656 1165 2662 1632 
L 2662 1734 
Q 2662 2246 2505 2515 
Q 2349 2784 1926 2784 
Q 1613 2784 1433 2512 
Q 1254 2240 1254 1728 
Q 1254 1216 1433 957 
Q 1613 698 1939 698 
z
" transform="scale(0.015625)"/>
     </defs>
     <use xlink:href="#NotoSans-Bold-64"/>
    </g>
   </g>
  </g>
  <g id="axes_5">
   <g id="matplotlib.axis_5">
    <g id="ytick_12">
     <g id="line2d_44">
      <g>
       <use xlink:href="#m39b45c7a10" x="239.167098" y="146.041227" style="stroke: #000000; stroke-width: 0.6"/>
      </g>
     </g>
     <g id="text_34">
      <!-- $\mathdefault{0.0}$ -->
      <g transform="translate(242.667098 149.841227) scale(0.1 -0.1)">
       <use xlink:href="#NotoSans-Regular-30" transform="translate(0 0.5)"/>
       <use xlink:href="#NotoSans-Regular-2e" transform="translate(57.199997 0.5)"/>
       <use xlink:href="#NotoSans-Regular-30" transform="translate(83.999985 0.5)"/>
      </g>
     </g>
    </g>
    <g id="ytick_13">
     <g id="line2d_45">
      <g>
       <use xlink:href="#m39b45c7a10" x="239.167098" y="123.52464" style="stroke: #000000; stroke-width: 0.6"/>
      </g>
     </g>
     <g id="text_35">
      <!-- $\mathdefault{0.2}$ -->
      <g transform="translate(242.667098 127.32464) scale(0.1 -0.1)">
       <use xlink:href="#NotoSans-Regular-30" transform="translate(0 0.5)"/>
       <use xlink:href="#NotoSans-Regular-2e" transform="translate(57.199997 0.5)"/>
       <use xlink:href="#NotoSans-Regular-32" transform="translate(83.999985 0.5)"/>
      </g>
     </g>
    </g>
    <g id="ytick_14">
     <g id="line2d_46">
      <g>
       <use xlink:href="#m39b45c7a10" x="239.167098" y="101.008053" style="stroke: #000000; stroke-width: 0.6"/>
      </g>
     </g>
     <g id="text_36">
      <!-- $\mathdefault{0.4}$ -->
      <g transform="translate(242.667098 104.808053) scale(0.1 -0.1)">
       <use xlink:href="#NotoSans-Regular-30" transform="translate(0 0.5)"/>
       <use xlink:href="#NotoSans-Regular-2e" transform="translate(57.199997 0.5)"/>
       <use xlink:href="#NotoSans-Regular-34" transform="translate(83.999985 0.5)"/>
      </g>
     </g>
    </g>
    <g id="ytick_15">
     <g id="line2d_47">
      <g>
       <use xlink:href="#m39b45c7a10" x="239.167098" y="78.491467" style="stroke: #000000; stroke-width: 0.6"/>
      </g>
     </g>
     <g id="text_37">
      <!-- $\mathdefault{0.6}$ -->
      <g transform="translate(242.667098 82.291467) scale(0.1 -0.1)">
       <use xlink:href="#NotoSans-Regular-30" transform="translate(0 0.5)"/>
       <use xlink:href="#NotoSans-Regular-2e" transform="translate(57.199997 0.5)"/>
       <use xlink:href="#NotoSans-Regular-36" transform="translate(83.999985 0.5)"/>
      </g>
     </g>
    </g>
    <g id="ytick_16">
     <g id="line2d_48">
      <g>
       <use xlink:href="#m39b45c7a10" x="239.167098" y="55.97488" style="stroke: #000000; stroke-width: 0.6"/>
      </g>
     </g>
     <g id="text_38">
      <!-- $\mathdefault{0.8}$ -->
      <g transform="translate(242.667098 59.77488) scale(0.1 -0.1)">
       <use xlink:href="#NotoSans-Regular-30" transform="translate(0 0.5)"/>
       <use xlink:href="#NotoSans-Regular-2e" transform="translate(57.199997 0.5)"/>
       <use xlink:href="#NotoSans-Regular-38" transform="translate(83.999985 0.5)"/>
      </g>
     </g>
    </g>
    <g id="ytick_17">
     <g id="line2d_49">
      <g>
       <use xlink:href="#m39b45c7a10" x="239.167098" y="33.458293" style="stroke: #000000; stroke-width: 0.6"/>
      </g>
     </g>
     <g id="text_39">
      <!-- $\mathdefault{1.0}$ -->
      <g transform="translate(242.667098 37.258293) scale(0.1 -0.1)">
       <use xlink:href="#NotoSans-Regular-31" transform="translate(0 0.5)"/>
       <use xlink:href="#NotoSans-Regular-2e" transform="translate(57.199997 0.5)"/>
       <use xlink:href="#NotoSans-Regular-30" transform="translate(83.999985 0.5)"/>
      </g>
     </g>
    </g>
    <g id="text_40">
     <!-- $U_\text{gap}$ norm. -->
     <g transform="translate(268.067098 115.04976) rotate(-90) scale(0.1 -0.1)">
      <defs>
       <path id="NotoSans-Italic-55" d="M 1920 -64 
Q 1446 -64 1129 83 
Q 813 230 659 512 
Q 506 794 506 1203 
Q 506 1312 525 1472 
Q 544 1632 582 1811 
L 1171 4570 
L 1741 4570 
L 1146 1779 
Q 1114 1632 1094 1472 
Q 1075 1312 1075 1210 
Q 1075 851 1296 646 
Q 1517 442 1952 442 
Q 2330 442 2576 573 
Q 2822 704 2969 963 
Q 3117 1222 3200 1600 
L 3834 4570 
L 4403 4570 
L 3763 1555 
Q 3661 1056 3440 691 
Q 3219 326 2848 131 
Q 2477 -64 1920 -64 
z
" transform="scale(0.015625)"/>
       <path id="NotoSans-Regular-67" d="M 1760 3494 
Q 2099 3494 2371 3366 
Q 2643 3238 2835 2976 
L 2867 2976 
L 2944 3430 
L 3392 3430 
L 3392 -58 
Q 3392 -544 3225 -873 
Q 3059 -1203 2720 -1369 
Q 2381 -1536 1856 -1536 
Q 1485 -1536 1174 -1481 
Q 864 -1427 621 -1318 
L 621 -800 
Q 864 -928 1190 -998 
Q 1517 -1069 1888 -1069 
Q 2330 -1069 2582 -809 
Q 2835 -550 2835 -102 
L 2835 32 
Q 2835 109 2841 253 
Q 2848 397 2854 454 
L 2829 454 
Q 2650 192 2384 64 
Q 2118 -64 1766 -64 
Q 1101 -64 726 403 
Q 352 870 352 1709 
Q 352 2528 726 3011 
Q 1101 3494 1760 3494 
z
M 1837 3021 
Q 1549 3021 1347 2867 
Q 1146 2714 1040 2419 
Q 934 2125 934 1702 
Q 934 1069 1168 733 
Q 1402 397 1850 397 
Q 2112 397 2297 464 
Q 2483 531 2604 675 
Q 2726 819 2784 1043 
Q 2842 1267 2842 1574 
L 2842 1709 
Q 2842 2176 2736 2464 
Q 2630 2752 2406 2886 
Q 2182 3021 1837 3021 
z
" transform="scale(0.015625)"/>
       <path id="NotoSans-Regular-61" d="M 1843 3488 
Q 2470 3488 2771 3213 
Q 3072 2938 3072 2336 
L 3072 0 
L 2662 0 
L 2554 486 
L 2528 486 
Q 2381 301 2224 176 
Q 2067 51 1865 -6 
Q 1664 -64 1376 -64 
Q 1069 -64 822 45 
Q 576 154 435 381 
Q 294 608 294 954 
Q 294 1466 697 1744 
Q 1101 2022 1939 2048 
L 2522 2067 
L 2522 2272 
Q 2522 2701 2336 2867 
Q 2150 3034 1811 3034 
Q 1542 3034 1299 2954 
Q 1056 2874 845 2771 
L 672 3194 
Q 896 3315 1203 3401 
Q 1510 3488 1843 3488 
z
M 2010 1658 
Q 1370 1632 1123 1453 
Q 877 1274 877 947 
Q 877 659 1053 524 
Q 1229 390 1504 390 
Q 1939 390 2227 630 
Q 2515 870 2515 1370 
L 2515 1677 
L 2010 1658 
z
" transform="scale(0.015625)"/>
      </defs>
      <use xlink:href="#NotoSans-Italic-55" transform="translate(0 0.59375)"/>
      <use xlink:href="#NotoSans-Regular-67" transform="translate(67.699982 -15.484375) scale(0.7)"/>
      <use xlink:href="#NotoSans-Regular-61" transform="translate(110.749971 -15.484375) scale(0.7)"/>
      <use xlink:href="#NotoSans-Regular-70" transform="translate(150.019965 -15.484375) scale(0.7)"/>
      <use xlink:href="#NotoSans-Regular-20" transform="translate(195.749641 0.59375)"/>
      <use xlink:href="#NotoSans-Regular-6e" transform="translate(221.749626 0.59375)"/>
      <use xlink:href="#NotoSans-Regular-6f" transform="translate(283.549614 0.59375)"/>
      <use xlink:href="#NotoSans-Regular-72" transform="translate(344.049599 0.59375)"/>
      <use xlink:href="#NotoSans-Regular-6d" transform="translate(385.349586 0.59375)"/>
      <use xlink:href="#NotoSans-Regular-2e" transform="translate(478.849571 0.59375)"/>
     </g>
    </g>
   </g>
   <g id="line2d_50">
    <path d="M 41.752808 146.041215 
L 81.692115 145.935618 
L 84.544923 145.358681 
L 87.39773 144.032734 
L 90.250538 143.154498 
L 93.103346 142.13725 
L 95.956153 136.23883 
L 98.808961 127.212581 
L 101.661769 122.7083 
L 104.514576 122.188932 
L 107.367384 119.202202 
L 110.220192 110.901891 
L 113.072999 101.361495 
L 115.925807 96.27316 
L 118.778615 95.277273 
L 121.631422 93.727353 
L 124.48423 89.020942 
L 127.337038 82.7289 
L 130.189845 78.211049 
L 133.042653 76.776493 
L 135.895461 76.698107 
L 138.748268 76.196953 
L 141.601076 74.921314 
L 147.306691 71.400872 
L 150.159499 70.250264 
L 153.012307 69.76493 
L 155.865114 69.722772 
L 158.717922 69.449083 
L 161.57073 68.3801 
L 164.423537 66.900803 
L 167.276345 65.766316 
L 170.129153 65.249363 
L 175.834768 65.1111 
L 178.687576 64.708737 
L 184.393191 63.287403 
L 187.245999 62.804809 
L 190.098806 62.657975 
L 192.951614 62.644236 
L 195.804422 62.512954 
L 198.657229 62.179734 
L 204.362845 61.350009 
L 207.215652 61.174879 
L 215.774075 60.982658 
L 224.332498 60.290713 
L 238.596537 59.853444 
L 244.302152 59.633931 
L 252.860575 59.556806 
L 264.271806 59.282166 
L 272.830229 59.213303 
L 281.388652 59.066514 
L 307.063921 58.922198 
L 338.444805 58.806329 
L 498.99952 58.737665 
L 498.99952 58.737665 
" clip-path="url(#p2afc3d0952)" style="fill: none; stroke: #3b638c; stroke-linecap: square"/>
   </g>
   <g id="patch_13">
    <path d="M 38.9 157.29952 
L 38.9 22.2 
" style="fill: none; stroke: #000000; stroke-width: 0.6; stroke-linejoin: miter; stroke-linecap: square"/>
   </g>
   <g id="patch_14">
    <path d="M 239.167098 157.29952 
L 239.167098 22.2 
" style="fill: none; stroke: #000000; stroke-width: 0.6; stroke-linejoin: miter; stroke-linecap: square"/>
   </g>
   <g id="patch_15">
    <path d="M 38.9 157.29952 
L 239.167098 157.29952 
" style="fill: none; stroke: #000000; stroke-width: 0.6; stroke-linejoin: miter; stroke-linecap: square"/>
   </g>
   <g id="patch_16">
    <path d="M 38.9 22.2 
L 239.167098 22.2 
" style="fill: none; stroke: #000000; stroke-width: 0.6; stroke-linejoin: miter; stroke-linecap: square"/>
   </g>
   <g id="patch_17">
    <path d="M 156.501504 78.491467 
Q 149.048289 78.491467 141.036057 78.491467 
" style="fill: none; stroke: #000000; stroke-width: 0.5; stroke-linecap: round"/>
    <path d="M 152.501504 76.491467 
L 156.501504 78.491467 
L 152.501504 80.491467 
z
" style="stroke: #000000; stroke-width: 0.5; stroke-linecap: round"/>
   </g>
  </g>
 </g>
 <defs>
  <clipPath id="p2afc3d0952">
   <rect x="38.9" y="22.2" width="200.267098" height="135.09952"/>
  </clipPath>
  <clipPath id="pfe84a2df4b">
   <rect x="38.9" y="205.8" width="200.267098" height="135.09952"/>
  </clipPath>
 </defs>
</svg>
