<?xml version="1.0" encoding="utf-8" standalone="no"?>
<!DOCTYPE svg PUBLIC "-//W3C//DTD SVG 1.1//EN"
  "http://www.w3.org/Graphics/SVG/1.1/DTD/svg11.dtd">
<svg xmlns:xlink="http://www.w3.org/1999/xlink" width="253.19952pt" height="253.19952pt" viewBox="0 0 253.19952 253.19952" xmlns="http://www.w3.org/2000/svg" version="1.1">
 <metadata>
  <rdf:RDF xmlns:dc="http://purl.org/dc/elements/1.1/" xmlns:cc="http://creativecommons.org/ns#" xmlns:rdf="http://www.w3.org/1999/02/22-rdf-syntax-ns#">
   <cc:Work>
    <dc:type rdf:resource="http://purl.org/dc/dcmitype/StillImage"/>
    <dc:date>2024-07-06T12:09:15.498885</dc:date>
    <dc:format>image/svg+xml</dc:format>
    <dc:creator>
     <cc:Agent>
      <dc:title>Matplotlib v3.9.0, https://matplotlib.org/</dc:title>
     </cc:Agent>
    </dc:creator>
   </cc:Work>
  </rdf:RDF>
 </metadata>
 <defs>
  <style type="text/css">*{stroke-linejoin: round; stroke-linecap: butt}</style>
 </defs>
 <g id="figure_1">
  <g id="patch_1">
   <path d="M 0 253.19952 
L 253.19952 253.19952 
L 253.19952 0 
L 0 0 
z
" style="fill: #ffffff"/>
  </g>
  <g id="axes_1">
   <g id="patch_2">
    <path d="M 38.9 218.49952 
L 245.99952 218.49952 
L 245.99952 17.8 
L 38.9 17.8 
z
" style="fill: #ffffff"/>
   </g>
   <g id="PathCollection_1">
    <defs>
     <path id="m8b7fa01785" d="M 0 2.236068 
C 0.593012 2.236068 1.161816 2.000462 1.581139 1.581139 
C 2.000462 1.161816 2.236068 0.593012 2.236068 0 
C 2.236068 -0.593012 2.000462 -1.161816 1.581139 -1.581139 
C 1.161816 -2.000462 0.593012 -2.236068 0 -2.236068 
C -0.593012 -2.236068 -1.161816 -2.000462 -1.581139 -1.581139 
C -2.000462 -1.161816 -2.236068 -0.593012 -2.236068 0 
C -2.236068 0.593012 -2.000462 1.161816 -1.581139 1.581139 
C -1.161816 2.000462 -0.593012 2.236068 0 2.236068 
z
" style="stroke: #ffffff; stroke-width: 0.357771"/>
    </defs>
    <g clip-path="url(#p023bc8f3f8)">
     <use xlink:href="#m8b7fa01785" x="87.065615" y="104.475335" style="fill: #1f77b4; stroke: #ffffff; stroke-width: 0.357771"/>
     <use xlink:href="#m8b7fa01785" x="95.074665" y="128.276246" style="fill: #1f77b4; stroke: #ffffff; stroke-width: 0.357771"/>
     <use xlink:href="#m8b7fa01785" x="101.560555" y="145.045069" style="fill: #1f77b4; stroke: #ffffff; stroke-width: 0.357771"/>
     <use xlink:href="#m8b7fa01785" x="110.039552" y="161.453273" style="fill: #1f77b4; stroke: #ffffff; stroke-width: 0.357771"/>
     <use xlink:href="#m8b7fa01785" x="116.055494" y="167.403501" style="fill: #1f77b4; stroke: #ffffff; stroke-width: 0.357771"/>
     <use xlink:href="#m8b7fa01785" x="120.721823" y="179.303956" style="fill: #1f77b4; stroke: #ffffff; stroke-width: 0.357771"/>
     <use xlink:href="#m8b7fa01785" x="124.534491" y="177.861477" style="fill: #1f77b4; stroke: #ffffff; stroke-width: 0.357771"/>
     <use xlink:href="#m8b7fa01785" x="130.550434" y="185.073874" style="fill: #1f77b4; stroke: #ffffff; stroke-width: 0.357771"/>
     <use xlink:href="#m8b7fa01785" x="137.209867" y="188.499763" style="fill: #1f77b4; stroke: #ffffff; stroke-width: 0.357771"/>
     <use xlink:href="#m8b7fa01785" x="140.703266" y="190.483172" style="fill: #1f77b4; stroke: #ffffff; stroke-width: 0.357771"/>
     <use xlink:href="#m8b7fa01785" x="145.045373" y="176.599307" style="fill: #1f77b4; stroke: #ffffff; stroke-width: 0.357771"/>
     <use xlink:href="#m8b7fa01785" x="150.73199" y="174.074968" style="fill: #1f77b4; stroke: #ffffff; stroke-width: 0.357771"/>
     <use xlink:href="#m8b7fa01785" x="158.876391" y="171.370319" style="fill: #1f77b4; stroke: #ffffff; stroke-width: 0.357771"/>
     <use xlink:href="#m8b7fa01785" x="159.540312" y="177.140237" style="fill: #1f77b4; stroke: #ffffff; stroke-width: 0.357771"/>
     <use xlink:href="#m8b7fa01785" x="164.723008" y="167.583811" style="fill: #1f77b4; stroke: #ffffff; stroke-width: 0.357771"/>
     <use xlink:href="#m8b7fa01785" x="169.287076" y="177.320547" style="fill: #1f77b4; stroke: #ffffff; stroke-width: 0.357771"/>
     <use xlink:href="#m8b7fa01785" x="173.031294" y="175.517448" style="fill: #1f77b4; stroke: #ffffff; stroke-width: 0.357771"/>
     <use xlink:href="#m8b7fa01785" x="174.035251" y="181.287365" style="fill: #1f77b4; stroke: #ffffff; stroke-width: 0.357771"/>
     <use xlink:href="#m8b7fa01785" x="176.186182" y="185.254184" style="fill: #1f77b4; stroke: #ffffff; stroke-width: 0.357771"/>
     <use xlink:href="#m8b7fa01785" x="178.944139" y="180.566126" style="fill: #1f77b4; stroke: #ffffff; stroke-width: 0.357771"/>
     <use xlink:href="#m8b7fa01785" x="181.380378" y="187.778523" style="fill: #1f77b4; stroke: #ffffff; stroke-width: 0.357771"/>
     <use xlink:href="#m8b7fa01785" x="183.562178" y="186.155734" style="fill: #1f77b4; stroke: #ffffff; stroke-width: 0.357771"/>
     <use xlink:href="#m8b7fa01785" x="185.537697" y="191.204412" style="fill: #1f77b4; stroke: #ffffff; stroke-width: 0.357771"/>
     <use xlink:href="#m8b7fa01785" x="187.342593" y="191.384722" style="fill: #1f77b4; stroke: #ffffff; stroke-width: 0.357771"/>
     <use xlink:href="#m8b7fa01785" x="188.519296" y="193.007511" style="fill: #1f77b4; stroke: #ffffff; stroke-width: 0.357771"/>
     <use xlink:href="#m8b7fa01785" x="189.004009" y="192.466581" style="fill: #1f77b4; stroke: #ffffff; stroke-width: 0.357771"/>
     <use xlink:href="#m8b7fa01785" x="190.543089" y="191.384722" style="fill: #1f77b4; stroke: #ffffff; stroke-width: 0.357771"/>
     <use xlink:href="#m8b7fa01785" x="191.976619" y="194.81061" style="fill: #1f77b4; stroke: #ffffff; stroke-width: 0.357771"/>
     <use xlink:href="#m8b7fa01785" x="193.318149" y="193.728751" style="fill: #1f77b4; stroke: #ffffff; stroke-width: 0.357771"/>
     <use xlink:href="#m8b7fa01785" x="194.578783" y="195.71216" style="fill: #1f77b4; stroke: #ffffff; stroke-width: 0.357771"/>
     <use xlink:href="#m8b7fa01785" x="195.767723" y="196.07278" style="fill: #1f77b4; stroke: #ffffff; stroke-width: 0.357771"/>
     <use xlink:href="#m8b7fa01785" x="196.892686" y="196.61371" style="fill: #1f77b4; stroke: #ffffff; stroke-width: 0.357771"/>
     <use xlink:href="#m8b7fa01785" x="200.773391" y="199.138049" style="fill: #1f77b4; stroke: #ffffff; stroke-width: 0.357771"/>
     <use xlink:href="#m8b7fa01785" x="203.014235" y="198.056189" style="fill: #1f77b4; stroke: #ffffff; stroke-width: 0.357771"/>
     <use xlink:href="#m8b7fa01785" x="204.889119" y="200.400218" style="fill: #1f77b4; stroke: #ffffff; stroke-width: 0.357771"/>
     <use xlink:href="#m8b7fa01785" x="208.326497" y="200.941148" style="fill: #1f77b4; stroke: #ffffff; stroke-width: 0.357771"/>
     <use xlink:href="#m8b7fa01785" x="211.274143" y="203.645797" style="fill: #1f77b4; stroke: #ffffff; stroke-width: 0.357771"/>
     <use xlink:href="#m8b7fa01785" x="213.86041" y="203.104867" style="fill: #1f77b4; stroke: #ffffff; stroke-width: 0.357771"/>
     <use xlink:href="#m8b7fa01785" x="216.158833" y="204.727656" style="fill: #1f77b4; stroke: #ffffff; stroke-width: 0.357771"/>
     <use xlink:href="#m8b7fa01785" x="217.509174" y="205.989826" style="fill: #1f77b4; stroke: #ffffff; stroke-width: 0.357771"/>
     <use xlink:href="#m8b7fa01785" x="218.232095" y="204.367037" style="fill: #1f77b4; stroke: #ffffff; stroke-width: 0.357771"/>
     <use xlink:href="#m8b7fa01785" x="220.118224" y="204.547347" style="fill: #1f77b4; stroke: #ffffff; stroke-width: 0.357771"/>
     <use xlink:href="#m8b7fa01785" x="221.846004" y="206.350446" style="fill: #1f77b4; stroke: #ffffff; stroke-width: 0.357771"/>
     <use xlink:href="#m8b7fa01785" x="223.443912" y="207.432305" style="fill: #1f77b4; stroke: #ffffff; stroke-width: 0.357771"/>
     <use xlink:href="#m8b7fa01785" x="224.928341" y="207.792925" style="fill: #1f77b4; stroke: #ffffff; stroke-width: 0.357771"/>
     <use xlink:href="#m8b7fa01785" x="226.312558" y="207.251995" style="fill: #1f77b4; stroke: #ffffff; stroke-width: 0.357771"/>
     <use xlink:href="#m8b7fa01785" x="227.612489" y="208.694475" style="fill: #1f77b4; stroke: #ffffff; stroke-width: 0.357771"/>
     <use xlink:href="#m8b7fa01785" x="228.834737" y="207.973235" style="fill: #1f77b4; stroke: #ffffff; stroke-width: 0.357771"/>
     <use xlink:href="#m8b7fa01785" x="229.990974" y="208.694475" style="fill: #1f77b4; stroke: #ffffff; stroke-width: 0.357771"/>
     <use xlink:href="#m8b7fa01785" x="231.086617" y="208.333855" style="fill: #1f77b4; stroke: #ffffff; stroke-width: 0.357771"/>
    </g>
   </g>
   <g id="matplotlib.axis_1">
    <g id="xtick_1">
     <g id="line2d_1">
      <defs>
       <path id="mc951e34e5c" d="M 0 0 
L 0 -4 
" style="stroke: #000000; stroke-width: 0.6"/>
      </defs>
      <g>
       <use xlink:href="#mc951e34e5c" x="38.9" y="218.49952" style="stroke: #000000; stroke-width: 0.6"/>
      </g>
     </g>
     <g id="line2d_2">
      <defs>
       <path id="m5c72fc6105" d="M 0 0 
L 0 4 
" style="stroke: #000000; stroke-width: 0.6"/>
      </defs>
      <g>
       <use xlink:href="#m5c72fc6105" x="38.9" y="17.8" style="stroke: #000000; stroke-width: 0.6"/>
      </g>
     </g>
     <g id="text_1">
      <!-- $\mathdefault{10^{-1}}$ -->
      <g transform="translate(29.85 229.59952) scale(0.1 -0.1)">
       <defs>
        <path id="NotoSans-Regular-31" d="M 2272 0 
L 1722 0 
L 1722 3194 
Q 1722 3379 1725 3507 
Q 1728 3635 1734 3747 
Q 1741 3859 1747 3981 
Q 1645 3878 1561 3808 
Q 1478 3738 1350 3629 
L 864 3232 
L 570 3610 
L 1805 4570 
L 2272 4570 
L 2272 0 
z
" transform="scale(0.015625)"/>
        <path id="NotoSans-Regular-30" d="M 3347 2291 
Q 3347 1734 3264 1299 
Q 3181 864 2998 560 
Q 2816 256 2525 96 
Q 2234 -64 1824 -64 
Q 1312 -64 976 217 
Q 640 499 477 1027 
Q 314 1555 314 2291 
Q 314 3034 464 3558 
Q 614 4083 947 4361 
Q 1280 4640 1824 4640 
Q 2336 4640 2675 4361 
Q 3014 4083 3180 3558 
Q 3347 3034 3347 2291 
z
M 877 2291 
Q 877 1664 969 1248 
Q 1062 832 1270 624 
Q 1478 416 1824 416 
Q 2170 416 2378 621 
Q 2586 826 2682 1245 
Q 2778 1664 2778 2291 
Q 2778 2918 2682 3331 
Q 2586 3744 2378 3952 
Q 2170 4160 1824 4160 
Q 1478 4160 1270 3952 
Q 1062 3744 969 3331 
Q 877 2918 877 2291 
z
" transform="scale(0.015625)"/>
        <path id="NotoSans-Regular-2212" d="M 256 1466 
L 256 1965 
L 1805 1965 
L 1805 1466 
L 256 1466 
z
" transform="scale(0.015625)"/>
       </defs>
       <use xlink:href="#NotoSans-Regular-31" transform="translate(0 0.5)"/>
       <use xlink:href="#NotoSans-Regular-30" transform="translate(57.199997 0.5)"/>
       <use xlink:href="#NotoSans-Regular-2212" transform="translate(115.337885 38.015625) scale(0.7)"/>
       <use xlink:href="#NotoSans-Regular-31" transform="translate(137.877882 38.015625) scale(0.7)"/>
      </g>
     </g>
    </g>
    <g id="xtick_2">
     <g id="line2d_3">
      <g>
       <use xlink:href="#mc951e34e5c" x="87.051145" y="218.49952" style="stroke: #000000; stroke-width: 0.6"/>
      </g>
     </g>
     <g id="line2d_4">
      <g>
       <use xlink:href="#m5c72fc6105" x="87.051145" y="17.8" style="stroke: #000000; stroke-width: 0.6"/>
      </g>
     </g>
     <g id="text_2">
      <!-- $\mathdefault{10^{0}}$ -->
      <g transform="translate(79.101145 229.59952) scale(0.1 -0.1)">
       <use xlink:href="#NotoSans-Regular-31" transform="translate(0 0.734375)"/>
       <use xlink:href="#NotoSans-Regular-30" transform="translate(57.199997 0.734375)"/>
       <use xlink:href="#NotoSans-Regular-30" transform="translate(115.337885 38.25) scale(0.7)"/>
      </g>
     </g>
    </g>
    <g id="xtick_3">
     <g id="line2d_5">
      <g>
       <use xlink:href="#mc951e34e5c" x="135.20229" y="218.49952" style="stroke: #000000; stroke-width: 0.6"/>
      </g>
     </g>
     <g id="line2d_6">
      <g>
       <use xlink:href="#m5c72fc6105" x="135.20229" y="17.8" style="stroke: #000000; stroke-width: 0.6"/>
      </g>
     </g>
     <g id="text_3">
      <!-- $\mathdefault{10^{1}}$ -->
      <g transform="translate(127.25229 229.59952) scale(0.1 -0.1)">
       <use xlink:href="#NotoSans-Regular-31" transform="translate(0 0.5)"/>
       <use xlink:href="#NotoSans-Regular-30" transform="translate(57.199997 0.5)"/>
       <use xlink:href="#NotoSans-Regular-31" transform="translate(115.337885 38.015625) scale(0.7)"/>
      </g>
     </g>
    </g>
    <g id="xtick_4">
     <g id="line2d_7">
      <g>
       <use xlink:href="#mc951e34e5c" x="183.353436" y="218.49952" style="stroke: #000000; stroke-width: 0.6"/>
      </g>
     </g>
     <g id="line2d_8">
      <g>
       <use xlink:href="#m5c72fc6105" x="183.353436" y="17.8" style="stroke: #000000; stroke-width: 0.6"/>
      </g>
     </g>
     <g id="text_4">
      <!-- $\mathdefault{10^{2}}$ -->
      <g transform="translate(175.403436 229.59952) scale(0.1 -0.1)">
       <defs>
        <path id="NotoSans-Regular-32" d="M 3328 0 
L 307 0 
L 307 467 
L 1504 1677 
Q 1850 2022 2086 2291 
Q 2323 2560 2444 2819 
Q 2566 3078 2566 3386 
Q 2566 3763 2342 3958 
Q 2118 4154 1760 4154 
Q 1427 4154 1174 4038 
Q 922 3923 659 3718 
L 358 4096 
Q 538 4250 752 4371 
Q 966 4493 1219 4563 
Q 1472 4634 1760 4634 
Q 2189 4634 2496 4486 
Q 2803 4339 2972 4067 
Q 3142 3795 3142 3418 
Q 3142 3059 2995 2745 
Q 2848 2432 2585 2128 
Q 2323 1824 1971 1478 
L 1018 538 
L 1018 512 
L 3328 512 
L 3328 0 
z
" transform="scale(0.015625)"/>
       </defs>
       <use xlink:href="#NotoSans-Regular-31" transform="translate(0 0.8)"/>
       <use xlink:href="#NotoSans-Regular-30" transform="translate(57.199997 0.8)"/>
       <use xlink:href="#NotoSans-Regular-32" transform="translate(115.337885 38.315625) scale(0.7)"/>
      </g>
     </g>
    </g>
    <g id="xtick_5">
     <g id="line2d_9">
      <g>
       <use xlink:href="#mc951e34e5c" x="231.504581" y="218.49952" style="stroke: #000000; stroke-width: 0.6"/>
      </g>
     </g>
     <g id="line2d_10">
      <g>
       <use xlink:href="#m5c72fc6105" x="231.504581" y="17.8" style="stroke: #000000; stroke-width: 0.6"/>
      </g>
     </g>
     <g id="text_5">
      <!-- $\mathdefault{10^{3}}$ -->
      <g transform="translate(223.554581 229.59952) scale(0.1 -0.1)">
       <defs>
        <path id="NotoSans-Regular-33" d="M 3155 3501 
Q 3155 3194 3040 2970 
Q 2925 2746 2710 2605 
Q 2496 2464 2208 2406 
L 2208 2381 
Q 2758 2317 3027 2035 
Q 3296 1754 3296 1299 
Q 3296 902 3110 592 
Q 2925 282 2537 109 
Q 2150 -64 1542 -64 
Q 1184 -64 877 -9 
Q 570 45 288 186 
L 288 710 
Q 576 570 909 490 
Q 1242 410 1549 410 
Q 2163 410 2435 650 
Q 2707 890 2707 1312 
Q 2707 1600 2556 1776 
Q 2406 1952 2118 2035 
Q 1830 2118 1427 2118 
L 986 2118 
L 986 2598 
L 1434 2598 
Q 1811 2598 2064 2707 
Q 2317 2816 2448 3011 
Q 2579 3206 2579 3462 
Q 2579 3795 2355 3977 
Q 2131 4160 1747 4160 
Q 1504 4160 1305 4112 
Q 1107 4064 937 3977 
Q 768 3891 595 3776 
L 314 4160 
Q 557 4352 918 4493 
Q 1280 4634 1741 4634 
Q 2458 4634 2806 4314 
Q 3155 3994 3155 3501 
z
" transform="scale(0.015625)"/>
       </defs>
       <use xlink:href="#NotoSans-Regular-31" transform="translate(0 0.8)"/>
       <use xlink:href="#NotoSans-Regular-30" transform="translate(57.199997 0.8)"/>
       <use xlink:href="#NotoSans-Regular-33" transform="translate(115.337885 38.315625) scale(0.7)"/>
      </g>
     </g>
    </g>
    <g id="xtick_6">
     <g id="line2d_11">
      <defs>
       <path id="m738de63ce1" d="M 0 0 
L 0 -2 
" style="stroke: #000000; stroke-width: 0.6"/>
      </defs>
      <g>
       <use xlink:href="#m738de63ce1" x="53.394939" y="218.49952" style="stroke: #000000; stroke-width: 0.6"/>
      </g>
     </g>
     <g id="line2d_12">
      <defs>
       <path id="md0bbedae50" d="M 0 0 
L 0 2 
" style="stroke: #000000; stroke-width: 0.6"/>
      </defs>
      <g>
       <use xlink:href="#md0bbedae50" x="53.394939" y="17.8" style="stroke: #000000; stroke-width: 0.6"/>
      </g>
     </g>
    </g>
    <g id="xtick_7">
     <g id="line2d_13">
      <g>
       <use xlink:href="#m738de63ce1" x="61.873935" y="218.49952" style="stroke: #000000; stroke-width: 0.6"/>
      </g>
     </g>
     <g id="line2d_14">
      <g>
       <use xlink:href="#md0bbedae50" x="61.873935" y="17.8" style="stroke: #000000; stroke-width: 0.6"/>
      </g>
     </g>
    </g>
    <g id="xtick_8">
     <g id="line2d_15">
      <g>
       <use xlink:href="#m738de63ce1" x="67.889878" y="218.49952" style="stroke: #000000; stroke-width: 0.6"/>
      </g>
     </g>
     <g id="line2d_16">
      <g>
       <use xlink:href="#md0bbedae50" x="67.889878" y="17.8" style="stroke: #000000; stroke-width: 0.6"/>
      </g>
     </g>
    </g>
    <g id="xtick_9">
     <g id="line2d_17">
      <g>
       <use xlink:href="#m738de63ce1" x="72.556206" y="218.49952" style="stroke: #000000; stroke-width: 0.6"/>
      </g>
     </g>
     <g id="line2d_18">
      <g>
       <use xlink:href="#md0bbedae50" x="72.556206" y="17.8" style="stroke: #000000; stroke-width: 0.6"/>
      </g>
     </g>
    </g>
    <g id="xtick_10">
     <g id="line2d_19">
      <g>
       <use xlink:href="#m738de63ce1" x="76.368874" y="218.49952" style="stroke: #000000; stroke-width: 0.6"/>
      </g>
     </g>
     <g id="line2d_20">
      <g>
       <use xlink:href="#md0bbedae50" x="76.368874" y="17.8" style="stroke: #000000; stroke-width: 0.6"/>
      </g>
     </g>
    </g>
    <g id="xtick_11">
     <g id="line2d_21">
      <g>
       <use xlink:href="#m738de63ce1" x="79.592438" y="218.49952" style="stroke: #000000; stroke-width: 0.6"/>
      </g>
     </g>
     <g id="line2d_22">
      <g>
       <use xlink:href="#md0bbedae50" x="79.592438" y="17.8" style="stroke: #000000; stroke-width: 0.6"/>
      </g>
     </g>
    </g>
    <g id="xtick_12">
     <g id="line2d_23">
      <g>
       <use xlink:href="#m738de63ce1" x="82.384817" y="218.49952" style="stroke: #000000; stroke-width: 0.6"/>
      </g>
     </g>
     <g id="line2d_24">
      <g>
       <use xlink:href="#md0bbedae50" x="82.384817" y="17.8" style="stroke: #000000; stroke-width: 0.6"/>
      </g>
     </g>
    </g>
    <g id="xtick_13">
     <g id="line2d_25">
      <g>
       <use xlink:href="#m738de63ce1" x="84.84787" y="218.49952" style="stroke: #000000; stroke-width: 0.6"/>
      </g>
     </g>
     <g id="line2d_26">
      <g>
       <use xlink:href="#md0bbedae50" x="84.84787" y="17.8" style="stroke: #000000; stroke-width: 0.6"/>
      </g>
     </g>
    </g>
    <g id="xtick_14">
     <g id="line2d_27">
      <g>
       <use xlink:href="#m738de63ce1" x="101.546084" y="218.49952" style="stroke: #000000; stroke-width: 0.6"/>
      </g>
     </g>
     <g id="line2d_28">
      <g>
       <use xlink:href="#md0bbedae50" x="101.546084" y="17.8" style="stroke: #000000; stroke-width: 0.6"/>
      </g>
     </g>
    </g>
    <g id="xtick_15">
     <g id="line2d_29">
      <g>
       <use xlink:href="#m738de63ce1" x="110.02508" y="218.49952" style="stroke: #000000; stroke-width: 0.6"/>
      </g>
     </g>
     <g id="line2d_30">
      <g>
       <use xlink:href="#md0bbedae50" x="110.02508" y="17.8" style="stroke: #000000; stroke-width: 0.6"/>
      </g>
     </g>
    </g>
    <g id="xtick_16">
     <g id="line2d_31">
      <g>
       <use xlink:href="#m738de63ce1" x="116.041023" y="218.49952" style="stroke: #000000; stroke-width: 0.6"/>
      </g>
     </g>
     <g id="line2d_32">
      <g>
       <use xlink:href="#md0bbedae50" x="116.041023" y="17.8" style="stroke: #000000; stroke-width: 0.6"/>
      </g>
     </g>
    </g>
    <g id="xtick_17">
     <g id="line2d_33">
      <g>
       <use xlink:href="#m738de63ce1" x="120.707351" y="218.49952" style="stroke: #000000; stroke-width: 0.6"/>
      </g>
     </g>
     <g id="line2d_34">
      <g>
       <use xlink:href="#md0bbedae50" x="120.707351" y="17.8" style="stroke: #000000; stroke-width: 0.6"/>
      </g>
     </g>
    </g>
    <g id="xtick_18">
     <g id="line2d_35">
      <g>
       <use xlink:href="#m738de63ce1" x="124.520019" y="218.49952" style="stroke: #000000; stroke-width: 0.6"/>
      </g>
     </g>
     <g id="line2d_36">
      <g>
       <use xlink:href="#md0bbedae50" x="124.520019" y="17.8" style="stroke: #000000; stroke-width: 0.6"/>
      </g>
     </g>
    </g>
    <g id="xtick_19">
     <g id="line2d_37">
      <g>
       <use xlink:href="#m738de63ce1" x="127.743584" y="218.49952" style="stroke: #000000; stroke-width: 0.6"/>
      </g>
     </g>
     <g id="line2d_38">
      <g>
       <use xlink:href="#md0bbedae50" x="127.743584" y="17.8" style="stroke: #000000; stroke-width: 0.6"/>
      </g>
     </g>
    </g>
    <g id="xtick_20">
     <g id="line2d_39">
      <g>
       <use xlink:href="#m738de63ce1" x="130.535962" y="218.49952" style="stroke: #000000; stroke-width: 0.6"/>
      </g>
     </g>
     <g id="line2d_40">
      <g>
       <use xlink:href="#md0bbedae50" x="130.535962" y="17.8" style="stroke: #000000; stroke-width: 0.6"/>
      </g>
     </g>
    </g>
    <g id="xtick_21">
     <g id="line2d_41">
      <g>
       <use xlink:href="#m738de63ce1" x="132.999015" y="218.49952" style="stroke: #000000; stroke-width: 0.6"/>
      </g>
     </g>
     <g id="line2d_42">
      <g>
       <use xlink:href="#md0bbedae50" x="132.999015" y="17.8" style="stroke: #000000; stroke-width: 0.6"/>
      </g>
     </g>
    </g>
    <g id="xtick_22">
     <g id="line2d_43">
      <g>
       <use xlink:href="#m738de63ce1" x="149.69723" y="218.49952" style="stroke: #000000; stroke-width: 0.6"/>
      </g>
     </g>
     <g id="line2d_44">
      <g>
       <use xlink:href="#md0bbedae50" x="149.69723" y="17.8" style="stroke: #000000; stroke-width: 0.6"/>
      </g>
     </g>
    </g>
    <g id="xtick_23">
     <g id="line2d_45">
      <g>
       <use xlink:href="#m738de63ce1" x="158.176225" y="218.49952" style="stroke: #000000; stroke-width: 0.6"/>
      </g>
     </g>
     <g id="line2d_46">
      <g>
       <use xlink:href="#md0bbedae50" x="158.176225" y="17.8" style="stroke: #000000; stroke-width: 0.6"/>
      </g>
     </g>
    </g>
    <g id="xtick_24">
     <g id="line2d_47">
      <g>
       <use xlink:href="#m738de63ce1" x="164.192169" y="218.49952" style="stroke: #000000; stroke-width: 0.6"/>
      </g>
     </g>
     <g id="line2d_48">
      <g>
       <use xlink:href="#md0bbedae50" x="164.192169" y="17.8" style="stroke: #000000; stroke-width: 0.6"/>
      </g>
     </g>
    </g>
    <g id="xtick_25">
     <g id="line2d_49">
      <g>
       <use xlink:href="#m738de63ce1" x="168.858497" y="218.49952" style="stroke: #000000; stroke-width: 0.6"/>
      </g>
     </g>
     <g id="line2d_50">
      <g>
       <use xlink:href="#md0bbedae50" x="168.858497" y="17.8" style="stroke: #000000; stroke-width: 0.6"/>
      </g>
     </g>
    </g>
    <g id="xtick_26">
     <g id="line2d_51">
      <g>
       <use xlink:href="#m738de63ce1" x="172.671164" y="218.49952" style="stroke: #000000; stroke-width: 0.6"/>
      </g>
     </g>
     <g id="line2d_52">
      <g>
       <use xlink:href="#md0bbedae50" x="172.671164" y="17.8" style="stroke: #000000; stroke-width: 0.6"/>
      </g>
     </g>
    </g>
    <g id="xtick_27">
     <g id="line2d_53">
      <g>
       <use xlink:href="#m738de63ce1" x="175.894729" y="218.49952" style="stroke: #000000; stroke-width: 0.6"/>
      </g>
     </g>
     <g id="line2d_54">
      <g>
       <use xlink:href="#md0bbedae50" x="175.894729" y="17.8" style="stroke: #000000; stroke-width: 0.6"/>
      </g>
     </g>
    </g>
    <g id="xtick_28">
     <g id="line2d_55">
      <g>
       <use xlink:href="#m738de63ce1" x="178.687108" y="218.49952" style="stroke: #000000; stroke-width: 0.6"/>
      </g>
     </g>
     <g id="line2d_56">
      <g>
       <use xlink:href="#md0bbedae50" x="178.687108" y="17.8" style="stroke: #000000; stroke-width: 0.6"/>
      </g>
     </g>
    </g>
    <g id="xtick_29">
     <g id="line2d_57">
      <g>
       <use xlink:href="#m738de63ce1" x="181.15016" y="218.49952" style="stroke: #000000; stroke-width: 0.6"/>
      </g>
     </g>
     <g id="line2d_58">
      <g>
       <use xlink:href="#md0bbedae50" x="181.15016" y="17.8" style="stroke: #000000; stroke-width: 0.6"/>
      </g>
     </g>
    </g>
    <g id="xtick_30">
     <g id="line2d_59">
      <g>
       <use xlink:href="#m738de63ce1" x="197.848375" y="218.49952" style="stroke: #000000; stroke-width: 0.6"/>
      </g>
     </g>
     <g id="line2d_60">
      <g>
       <use xlink:href="#md0bbedae50" x="197.848375" y="17.8" style="stroke: #000000; stroke-width: 0.6"/>
      </g>
     </g>
    </g>
    <g id="xtick_31">
     <g id="line2d_61">
      <g>
       <use xlink:href="#m738de63ce1" x="206.327371" y="218.49952" style="stroke: #000000; stroke-width: 0.6"/>
      </g>
     </g>
     <g id="line2d_62">
      <g>
       <use xlink:href="#md0bbedae50" x="206.327371" y="17.8" style="stroke: #000000; stroke-width: 0.6"/>
      </g>
     </g>
    </g>
    <g id="xtick_32">
     <g id="line2d_63">
      <g>
       <use xlink:href="#m738de63ce1" x="212.343314" y="218.49952" style="stroke: #000000; stroke-width: 0.6"/>
      </g>
     </g>
     <g id="line2d_64">
      <g>
       <use xlink:href="#md0bbedae50" x="212.343314" y="17.8" style="stroke: #000000; stroke-width: 0.6"/>
      </g>
     </g>
    </g>
    <g id="xtick_33">
     <g id="line2d_65">
      <g>
       <use xlink:href="#m738de63ce1" x="217.009642" y="218.49952" style="stroke: #000000; stroke-width: 0.6"/>
      </g>
     </g>
     <g id="line2d_66">
      <g>
       <use xlink:href="#md0bbedae50" x="217.009642" y="17.8" style="stroke: #000000; stroke-width: 0.6"/>
      </g>
     </g>
    </g>
    <g id="xtick_34">
     <g id="line2d_67">
      <g>
       <use xlink:href="#m738de63ce1" x="220.82231" y="218.49952" style="stroke: #000000; stroke-width: 0.6"/>
      </g>
     </g>
     <g id="line2d_68">
      <g>
       <use xlink:href="#md0bbedae50" x="220.82231" y="17.8" style="stroke: #000000; stroke-width: 0.6"/>
      </g>
     </g>
    </g>
    <g id="xtick_35">
     <g id="line2d_69">
      <g>
       <use xlink:href="#m738de63ce1" x="224.045874" y="218.49952" style="stroke: #000000; stroke-width: 0.6"/>
      </g>
     </g>
     <g id="line2d_70">
      <g>
       <use xlink:href="#md0bbedae50" x="224.045874" y="17.8" style="stroke: #000000; stroke-width: 0.6"/>
      </g>
     </g>
    </g>
    <g id="xtick_36">
     <g id="line2d_71">
      <g>
       <use xlink:href="#m738de63ce1" x="226.838253" y="218.49952" style="stroke: #000000; stroke-width: 0.6"/>
      </g>
     </g>
     <g id="line2d_72">
      <g>
       <use xlink:href="#md0bbedae50" x="226.838253" y="17.8" style="stroke: #000000; stroke-width: 0.6"/>
      </g>
     </g>
    </g>
    <g id="xtick_37">
     <g id="line2d_73">
      <g>
       <use xlink:href="#m738de63ce1" x="229.301305" y="218.49952" style="stroke: #000000; stroke-width: 0.6"/>
      </g>
     </g>
     <g id="line2d_74">
      <g>
       <use xlink:href="#md0bbedae50" x="229.301305" y="17.8" style="stroke: #000000; stroke-width: 0.6"/>
      </g>
     </g>
    </g>
    <g id="xtick_38">
     <g id="line2d_75">
      <g>
       <use xlink:href="#m738de63ce1" x="245.99952" y="218.49952" style="stroke: #000000; stroke-width: 0.6"/>
      </g>
     </g>
     <g id="line2d_76">
      <g>
       <use xlink:href="#md0bbedae50" x="245.99952" y="17.8" style="stroke: #000000; stroke-width: 0.6"/>
      </g>
     </g>
    </g>
    <g id="text_6">
     <!-- $\tau$ (ps) -->
     <g transform="translate(130.59976 243.59952) scale(0.1 -0.1)">
      <defs>
       <path id="NotoSans-Italic-3c4" d="M 1613 -64 
Q 1267 -64 1030 102 
Q 794 269 794 685 
Q 794 794 819 954 
Q 845 1114 877 1267 
L 1235 2950 
L 269 2950 
L 371 3430 
L 2938 3430 
L 2835 2950 
L 1798 2950 
L 1434 1254 
Q 1402 1107 1382 979 
Q 1363 851 1363 749 
Q 1363 602 1443 499 
Q 1523 397 1702 397 
Q 1811 397 1920 419 
Q 2029 442 2157 480 
L 2157 51 
Q 2080 13 1917 -25 
Q 1754 -64 1613 -64 
z
" transform="scale(0.015625)"/>
       <path id="NotoSans-Regular-20" transform="scale(0.015625)"/>
       <path id="NotoSans-Regular-28" d="M 256 1754 
Q 256 2278 355 2777 
Q 454 3277 665 3731 
Q 877 4186 1197 4570 
L 1728 4570 
Q 1280 3968 1053 3245 
Q 826 2522 826 1760 
Q 826 1267 928 780 
Q 1030 294 1228 -157 
Q 1427 -608 1722 -1011 
L 1197 -1011 
Q 877 -634 665 -189 
Q 454 256 355 749 
Q 256 1242 256 1754 
z
" transform="scale(0.015625)"/>
       <path id="NotoSans-Regular-70" d="M 2176 3494 
Q 2810 3494 3197 3052 
Q 3584 2611 3584 1722 
Q 3584 1139 3408 739 
Q 3232 339 2915 137 
Q 2598 -64 2170 -64 
Q 1907 -64 1702 6 
Q 1498 77 1354 189 
Q 1210 301 1107 435 
L 1069 435 
Q 1082 326 1094 160 
Q 1107 -6 1107 -128 
L 1107 -1536 
L 544 -1536 
L 544 3430 
L 1005 3430 
L 1082 2963 
L 1107 2963 
Q 1210 3110 1354 3232 
Q 1498 3354 1699 3424 
Q 1901 3494 2176 3494 
z
M 2074 3021 
Q 1728 3021 1517 2889 
Q 1306 2758 1210 2496 
Q 1114 2234 1107 1830 
L 1107 1722 
Q 1107 1299 1196 1004 
Q 1286 710 1500 556 
Q 1715 403 2086 403 
Q 2400 403 2601 576 
Q 2803 749 2902 1046 
Q 3002 1344 3002 1728 
Q 3002 2317 2774 2669 
Q 2547 3021 2074 3021 
z
" transform="scale(0.015625)"/>
       <path id="NotoSans-Regular-73" d="M 2778 947 
Q 2778 614 2611 390 
Q 2445 166 2137 51 
Q 1830 -64 1408 -64 
Q 1050 -64 790 -6 
Q 531 51 333 154 
L 333 666 
Q 538 563 829 476 
Q 1120 390 1421 390 
Q 1850 390 2042 528 
Q 2234 666 2234 896 
Q 2234 1024 2163 1126 
Q 2093 1229 1910 1331 
Q 1728 1434 1389 1562 
Q 1056 1690 819 1818 
Q 582 1946 454 2125 
Q 326 2304 326 2586 
Q 326 3021 681 3257 
Q 1037 3494 1613 3494 
Q 1926 3494 2198 3433 
Q 2470 3373 2707 3264 
L 2515 2816 
Q 2298 2906 2061 2970 
Q 1824 3034 1574 3034 
Q 1229 3034 1046 2922 
Q 864 2810 864 2618 
Q 864 2477 947 2377 
Q 1030 2278 1225 2185 
Q 1421 2093 1747 1965 
Q 2074 1843 2304 1715 
Q 2534 1587 2656 1404 
Q 2778 1222 2778 947 
z
" transform="scale(0.015625)"/>
       <path id="NotoSans-Regular-29" d="M 1664 1754 
Q 1664 1242 1565 749 
Q 1466 256 1258 -189 
Q 1050 -634 723 -1011 
L 198 -1011 
Q 493 -608 691 -157 
Q 890 294 992 780 
Q 1094 1267 1094 1760 
Q 1094 2266 992 2758 
Q 890 3251 691 3712 
Q 493 4173 192 4570 
L 723 4570 
Q 1050 4186 1258 3731 
Q 1466 3277 1565 2777 
Q 1664 2278 1664 1754 
z
" transform="scale(0.015625)"/>
      </defs>
      <use xlink:href="#NotoSans-Italic-3c4" transform="translate(0 0.59375)"/>
      <use xlink:href="#NotoSans-Regular-20" transform="translate(40.999985 0.59375)"/>
      <use xlink:href="#NotoSans-Regular-28" transform="translate(66.999969 0.59375)"/>
      <use xlink:href="#NotoSans-Regular-70" transform="translate(96.999954 0.59375)"/>
      <use xlink:href="#NotoSans-Regular-73" transform="translate(158.499939 0.59375)"/>
      <use xlink:href="#NotoSans-Regular-29" transform="translate(206.399933 0.59375)"/>
     </g>
    </g>
   </g>
   <g id="matplotlib.axis_2">
    <g id="ytick_1">
     <g id="line2d_77">
      <defs>
       <path id="m13361b007a" d="M 0 0 
L 4 0 
" style="stroke: #000000; stroke-width: 0.6"/>
      </defs>
      <g>
       <use xlink:href="#m13361b007a" x="38.9" y="178.361222" style="stroke: #000000; stroke-width: 0.6"/>
      </g>
     </g>
     <g id="line2d_78">
      <defs>
       <path id="mcef45ae1c6" d="M 0 0 
L -4 0 
" style="stroke: #000000; stroke-width: 0.6"/>
      </defs>
      <g>
       <use xlink:href="#mcef45ae1c6" x="245.99952" y="178.361222" style="stroke: #000000; stroke-width: 0.6"/>
      </g>
     </g>
     <g id="text_7">
      <!-- $\mathdefault{0.2}$ -->
      <g transform="translate(21.2 182.161222) scale(0.1 -0.1)">
       <defs>
        <path id="NotoSans-Regular-2e" d="M 461 346 
Q 461 582 576 678 
Q 691 774 851 774 
Q 1018 774 1136 678 
Q 1254 582 1254 346 
Q 1254 115 1136 12 
Q 1018 -90 851 -90 
Q 691 -90 576 12 
Q 461 115 461 346 
z
" transform="scale(0.015625)"/>
       </defs>
       <use xlink:href="#NotoSans-Regular-30" transform="translate(0 0.5)"/>
       <use xlink:href="#NotoSans-Regular-2e" transform="translate(57.199997 0.5)"/>
       <use xlink:href="#NotoSans-Regular-32" transform="translate(83.999985 0.5)"/>
      </g>
     </g>
    </g>
    <g id="ytick_2">
     <g id="line2d_79">
      <g>
       <use xlink:href="#m13361b007a" x="38.9" y="138.220916" style="stroke: #000000; stroke-width: 0.6"/>
      </g>
     </g>
     <g id="line2d_80">
      <g>
       <use xlink:href="#mcef45ae1c6" x="245.99952" y="138.220916" style="stroke: #000000; stroke-width: 0.6"/>
      </g>
     </g>
     <g id="text_8">
      <!-- $\mathdefault{0.4}$ -->
      <g transform="translate(21.2 142.020916) scale(0.1 -0.1)">
       <defs>
        <path id="NotoSans-Regular-34" d="M 3533 1037 
L 2867 1037 
L 2867 0 
L 2323 0 
L 2323 1037 
L 134 1037 
L 134 1517 
L 2285 4595 
L 2867 4595 
L 2867 1542 
L 3533 1542 
L 3533 1037 
z
M 2323 2982 
Q 2323 3149 2326 3286 
Q 2330 3424 2336 3545 
Q 2342 3667 2345 3779 
Q 2349 3891 2355 3994 
L 2330 3994 
Q 2278 3872 2201 3731 
Q 2125 3590 2054 3494 
L 685 1542 
L 2323 1542 
L 2323 2982 
z
" transform="scale(0.015625)"/>
       </defs>
       <use xlink:href="#NotoSans-Regular-30" transform="translate(0 0.5)"/>
       <use xlink:href="#NotoSans-Regular-2e" transform="translate(57.199997 0.5)"/>
       <use xlink:href="#NotoSans-Regular-34" transform="translate(83.999985 0.5)"/>
      </g>
     </g>
    </g>
    <g id="ytick_3">
     <g id="line2d_81">
      <g>
       <use xlink:href="#m13361b007a" x="38.9" y="98.080611" style="stroke: #000000; stroke-width: 0.6"/>
      </g>
     </g>
     <g id="line2d_82">
      <g>
       <use xlink:href="#mcef45ae1c6" x="245.99952" y="98.080611" style="stroke: #000000; stroke-width: 0.6"/>
      </g>
     </g>
     <g id="text_9">
      <!-- $\mathdefault{0.6}$ -->
      <g transform="translate(21.2 101.880611) scale(0.1 -0.1)">
       <defs>
        <path id="NotoSans-Regular-36" d="M 352 1952 
Q 352 2349 406 2733 
Q 461 3117 595 3459 
Q 730 3802 966 4067 
Q 1203 4333 1564 4483 
Q 1926 4634 2445 4634 
Q 2579 4634 2742 4621 
Q 2906 4608 3008 4576 
L 3008 4096 
Q 2893 4134 2749 4153 
Q 2605 4173 2458 4173 
Q 2016 4173 1721 4025 
Q 1427 3878 1257 3622 
Q 1088 3366 1011 3033 
Q 934 2701 915 2323 
L 954 2323 
Q 1050 2477 1197 2598 
Q 1344 2720 1552 2790 
Q 1760 2861 2035 2861 
Q 2432 2861 2729 2697 
Q 3027 2534 3193 2224 
Q 3360 1914 3360 1472 
Q 3360 998 3181 652 
Q 3002 307 2678 121 
Q 2355 -64 1907 -64 
Q 1581 -64 1299 57 
Q 1018 179 803 428 
Q 589 678 470 1059 
Q 352 1440 352 1952 
z
M 1901 410 
Q 2304 410 2553 669 
Q 2803 928 2803 1472 
Q 2803 1907 2582 2163 
Q 2362 2419 1920 2419 
Q 1619 2419 1395 2294 
Q 1171 2170 1046 1978 
Q 922 1786 922 1581 
Q 922 1370 982 1165 
Q 1043 960 1168 787 
Q 1293 614 1475 512 
Q 1658 410 1901 410 
z
" transform="scale(0.015625)"/>
       </defs>
       <use xlink:href="#NotoSans-Regular-30" transform="translate(0 0.5)"/>
       <use xlink:href="#NotoSans-Regular-2e" transform="translate(57.199997 0.5)"/>
       <use xlink:href="#NotoSans-Regular-36" transform="translate(83.999985 0.5)"/>
      </g>
     </g>
    </g>
    <g id="ytick_4">
     <g id="line2d_83">
      <g>
       <use xlink:href="#m13361b007a" x="38.9" y="57.940305" style="stroke: #000000; stroke-width: 0.6"/>
      </g>
     </g>
     <g id="line2d_84">
      <g>
       <use xlink:href="#mcef45ae1c6" x="245.99952" y="57.940305" style="stroke: #000000; stroke-width: 0.6"/>
      </g>
     </g>
     <g id="text_10">
      <!-- $\mathdefault{0.8}$ -->
      <g transform="translate(21.2 61.740305) scale(0.1 -0.1)">
       <defs>
        <path id="NotoSans-Regular-38" d="M 1824 4634 
Q 2227 4634 2534 4509 
Q 2842 4384 3018 4141 
Q 3194 3898 3194 3539 
Q 3194 3264 3075 3059 
Q 2957 2854 2758 2697 
Q 2560 2541 2323 2419 
Q 2605 2285 2835 2115 
Q 3066 1946 3203 1722 
Q 3341 1498 3341 1184 
Q 3341 800 3155 521 
Q 2970 243 2634 89 
Q 2298 -64 1843 -64 
Q 1350 -64 1008 83 
Q 666 230 490 502 
Q 314 774 314 1165 
Q 314 1478 445 1708 
Q 576 1939 793 2105 
Q 1011 2272 1261 2387 
Q 1037 2515 854 2678 
Q 672 2842 566 3053 
Q 461 3264 461 3546 
Q 461 3898 640 4138 
Q 819 4378 1126 4506 
Q 1434 4634 1824 4634 
z
M 864 1158 
Q 864 826 1101 605 
Q 1338 384 1830 384 
Q 2298 384 2544 605 
Q 2790 826 2790 1178 
Q 2790 1402 2672 1571 
Q 2554 1741 2339 1875 
Q 2125 2010 1830 2118 
L 1728 2157 
Q 1446 2035 1254 1894 
Q 1062 1754 963 1574 
Q 864 1395 864 1158 
z
M 1818 4179 
Q 1466 4179 1238 4009 
Q 1011 3840 1011 3520 
Q 1011 3283 1123 3123 
Q 1235 2963 1427 2851 
Q 1619 2739 1850 2637 
Q 2074 2733 2250 2848 
Q 2426 2963 2531 3126 
Q 2637 3290 2637 3520 
Q 2637 3840 2413 4009 
Q 2189 4179 1818 4179 
z
" transform="scale(0.015625)"/>
       </defs>
       <use xlink:href="#NotoSans-Regular-30" transform="translate(0 0.5)"/>
       <use xlink:href="#NotoSans-Regular-2e" transform="translate(57.199997 0.5)"/>
       <use xlink:href="#NotoSans-Regular-38" transform="translate(83.999985 0.5)"/>
      </g>
     </g>
    </g>
    <g id="ytick_5">
     <g id="line2d_85">
      <g>
       <use xlink:href="#m13361b007a" x="38.9" y="17.8" style="stroke: #000000; stroke-width: 0.6"/>
      </g>
     </g>
     <g id="line2d_86">
      <g>
       <use xlink:href="#mcef45ae1c6" x="245.99952" y="17.8" style="stroke: #000000; stroke-width: 0.6"/>
      </g>
     </g>
     <g id="text_11">
      <!-- $\mathdefault{1.0}$ -->
      <g transform="translate(21.2 21.6) scale(0.1 -0.1)">
       <use xlink:href="#NotoSans-Regular-31" transform="translate(0 0.5)"/>
       <use xlink:href="#NotoSans-Regular-2e" transform="translate(57.199997 0.5)"/>
       <use xlink:href="#NotoSans-Regular-30" transform="translate(83.999985 0.5)"/>
      </g>
     </g>
    </g>
    <g id="text_12">
     <!-- $\Delta\sigma$ (S/m) -->
     <g transform="translate(14.8 137.74976) rotate(-90) scale(0.1 -0.1)">
      <defs>
       <path id="NotoSans-Regular-394" d="M 64 0 
L 64 320 
L 1786 4589 
L 2304 4589 
L 4019 320 
L 4019 0 
L 64 0 
z
M 723 518 
L 3354 518 
L 2285 3309 
Q 2266 3360 2214 3494 
Q 2163 3629 2115 3773 
Q 2067 3917 2042 3994 
Q 2010 3866 1968 3734 
Q 1926 3603 1884 3494 
Q 1843 3386 1818 3309 
L 723 518 
z
" transform="scale(0.015625)"/>
       <path id="NotoSans-Italic-3c3" d="M 1517 -64 
Q 1082 -64 787 163 
Q 493 390 377 803 
Q 262 1216 352 1766 
Q 461 2413 733 2774 
Q 1005 3136 1421 3283 
Q 1837 3430 2355 3430 
L 3808 3430 
L 3706 2950 
L 3002 2950 
Q 3200 2714 3270 2374 
Q 3341 2035 3264 1574 
Q 3206 1229 3062 928 
Q 2918 627 2694 406 
Q 2470 186 2176 61 
Q 1882 -64 1517 -64 
z
M 1613 403 
Q 2080 403 2342 729 
Q 2605 1056 2682 1562 
Q 2733 1837 2723 2083 
Q 2714 2330 2650 2547 
Q 2586 2765 2464 2950 
L 2266 2950 
Q 1888 2950 1616 2838 
Q 1344 2726 1171 2457 
Q 998 2189 922 1702 
Q 870 1344 918 1046 
Q 966 749 1136 576 
Q 1306 403 1613 403 
z
" transform="scale(0.015625)"/>
       <path id="NotoSans-Regular-53" d="M 3213 1222 
Q 3213 813 3014 528 
Q 2816 243 2448 89 
Q 2080 -64 1581 -64 
Q 1325 -64 1091 -38 
Q 858 -13 666 35 
Q 474 83 326 154 
L 326 704 
Q 557 602 899 518 
Q 1242 435 1606 435 
Q 1946 435 2176 524 
Q 2406 614 2521 780 
Q 2637 947 2637 1171 
Q 2637 1395 2541 1548 
Q 2445 1702 2211 1833 
Q 1978 1965 1562 2112 
Q 1267 2221 1046 2345 
Q 826 2470 678 2630 
Q 531 2790 457 2995 
Q 384 3200 384 3469 
Q 384 3834 569 4093 
Q 755 4352 1084 4493 
Q 1414 4634 1843 4634 
Q 2221 4634 2534 4563 
Q 2848 4493 3104 4378 
L 2925 3885 
Q 2688 3987 2409 4057 
Q 2131 4128 1830 4128 
Q 1542 4128 1350 4045 
Q 1158 3962 1062 3811 
Q 966 3661 966 3462 
Q 966 3232 1062 3078 
Q 1158 2925 1376 2803 
Q 1594 2682 1965 2541 
Q 2368 2394 2646 2224 
Q 2925 2054 3069 1817 
Q 3213 1581 3213 1222 
z
" transform="scale(0.015625)"/>
       <path id="NotoSans-Regular-2f" d="M 2317 4570 
L 614 0 
L 64 0 
L 1766 4570 
L 2317 4570 
z
" transform="scale(0.015625)"/>
       <path id="NotoSans-Regular-6d" d="M 4307 3494 
Q 4890 3494 5178 3196 
Q 5466 2899 5466 2234 
L 5466 0 
L 4909 0 
L 4909 2208 
Q 4909 2611 4739 2816 
Q 4570 3021 4211 3021 
Q 3712 3021 3497 2733 
Q 3283 2445 3283 1894 
L 3283 0 
L 2726 0 
L 2726 2208 
Q 2726 2477 2649 2659 
Q 2573 2842 2419 2931 
Q 2266 3021 2022 3021 
Q 1677 3021 1478 2877 
Q 1280 2733 1193 2457 
Q 1107 2182 1107 1779 
L 1107 0 
L 544 0 
L 544 3430 
L 998 3430 
L 1082 2963 
L 1114 2963 
Q 1222 3142 1379 3260 
Q 1536 3379 1728 3436 
Q 1920 3494 2125 3494 
Q 2522 3494 2787 3353 
Q 3053 3213 3174 2918 
L 3206 2918 
Q 3379 3213 3676 3353 
Q 3974 3494 4307 3494 
z
" transform="scale(0.015625)"/>
      </defs>
      <use xlink:href="#NotoSans-Regular-394" transform="translate(0 0.59375)"/>
      <use xlink:href="#NotoSans-Italic-3c3" transform="translate(63.899994 0.59375)"/>
      <use xlink:href="#NotoSans-Regular-20" transform="translate(119.499985 0.59375)"/>
      <use xlink:href="#NotoSans-Regular-28" transform="translate(145.499969 0.59375)"/>
      <use xlink:href="#NotoSans-Regular-53" transform="translate(175.499954 0.59375)"/>
      <use xlink:href="#NotoSans-Regular-2f" transform="translate(230.399948 0.59375)"/>
      <use xlink:href="#NotoSans-Regular-6d" transform="translate(267.599945 0.59375)"/>
      <use xlink:href="#NotoSans-Regular-29" transform="translate(361.09993 0.59375)"/>
     </g>
    </g>
    <g id="text_13">
     <!-- $\times\mathdefault{10^{5}}\mathdefault{}$ -->
     <g transform="translate(38.9 14.8) scale(0.1 -0.1)">
      <defs>
       <path id="NotoSans-Regular-d7" d="M 2918 3674 
L 3238 3347 
L 2150 2259 
L 3232 1171 
L 2912 845 
L 1818 1926 
L 749 845 
L 416 1171 
L 1498 2259 
L 410 3341 
L 742 3674 
L 1824 2579 
L 2918 3674 
z
" transform="scale(0.015625)"/>
       <path id="NotoSans-Regular-35" d="M 1760 2803 
Q 2227 2803 2572 2643 
Q 2918 2483 3107 2185 
Q 3296 1888 3296 1459 
Q 3296 986 3091 643 
Q 2886 301 2505 118 
Q 2125 -64 1587 -64 
Q 1235 -64 924 0 
Q 614 64 403 186 
L 403 717 
Q 634 576 963 496 
Q 1293 416 1594 416 
Q 1933 416 2185 521 
Q 2438 627 2579 848 
Q 2720 1069 2720 1402 
Q 2720 1850 2445 2090 
Q 2170 2330 1574 2330 
Q 1395 2330 1164 2298 
Q 934 2266 794 2234 
L 512 2413 
L 685 4570 
L 2976 4570 
L 2976 4058 
L 1165 4058 
L 1056 2733 
Q 1165 2752 1350 2777 
Q 1536 2803 1760 2803 
z
" transform="scale(0.015625)"/>
      </defs>
      <use xlink:href="#NotoSans-Regular-d7" transform="translate(0 0.5)"/>
      <use xlink:href="#NotoSans-Regular-31" transform="translate(57.199997 0.5)"/>
      <use xlink:href="#NotoSans-Regular-30" transform="translate(114.399994 0.5)"/>
      <use xlink:href="#NotoSans-Regular-35" transform="translate(172.537881 38.015625) scale(0.7)"/>
     </g>
    </g>
   </g>
   <g id="line2d_87">
    <path d="M 38.9 51.776195 
L 42.535775 53.275442 
L 45.954848 54.924254 
L 49.205376 56.738206 
L 52.311435 58.72609 
L 55.297105 60.900123 
L 58.21054 63.298063 
L 61.051742 65.926342 
L 63.844788 68.814641 
L 66.613755 72.000546 
L 69.382723 75.530562 
L 72.151691 79.425386 
L 74.944737 83.740977 
L 77.810016 88.584419 
L 80.74753 93.99219 
L 83.829511 100.13899 
L 87.128195 107.223765 
L 90.836204 115.733628 
L 95.483254 126.994684 
L 105.499694 151.439164 
L 108.702065 158.55542 
L 111.398799 164.022483 
L 113.782519 168.36752 
L 115.973615 171.91081 
L 118.020244 174.808433 
L 119.97056 177.194105 
L 121.872721 179.174932 
L 123.750803 180.812636 
L 125.628885 182.159991 
L 127.579202 183.286839 
L 129.649908 184.225728 
L 131.937316 185.01602 
L 134.537738 185.675966 
L 137.114082 186.110736 
L 138.919931 186.208056 
L 140.171986 186.062924 
L 141.159183 185.730098 
L 142.02599 185.201919 
L 142.844641 184.435598 
L 143.663293 183.356457 
L 144.554178 181.794428 
L 145.613609 179.449501 
L 149.008604 171.515164 
L 149.7791 170.46078 
L 150.477361 169.863337 
L 151.151545 169.571635 
L 151.897962 169.500871 
L 152.837003 169.655273 
L 154.353916 170.165338 
L 157.748911 171.588396 
L 161.794012 173.51276 
L 165.863191 175.695555 
L 170.100915 178.225193 
L 174.723888 181.251685 
L 180.478525 185.303926 
L 191.939644 193.436425 
L 196.056978 196.035836 
L 199.692753 198.073858 
L 203.208138 199.790159 
L 206.819835 201.303779 
L 210.913092 202.769791 
L 216.715885 204.585298 
L 227.165729 207.850767 
L 235.472632 210.735748 
L 244.718577 213.90116 
L 249.582329 215.324449 
L 253.771897 216.322961 
L 254.19952 216.411387 
L 254.19952 216.411387 
" clip-path="url(#p023bc8f3f8)" style="fill: none; stroke: #333333; stroke-linecap: square"/>
   </g>
   <g id="patch_3">
    <path d="M 38.9 218.49952 
L 38.9 17.8 
" style="fill: none; stroke: #000000; stroke-width: 0.6; stroke-linejoin: miter; stroke-linecap: square"/>
   </g>
   <g id="patch_4">
    <path d="M 245.99952 218.49952 
L 245.99952 17.8 
" style="fill: none; stroke: #000000; stroke-width: 0.6; stroke-linejoin: miter; stroke-linecap: square"/>
   </g>
   <g id="patch_5">
    <path d="M 38.9 218.49952 
L 245.99952 218.49952 
" style="fill: none; stroke: #000000; stroke-width: 0.6; stroke-linejoin: miter; stroke-linecap: square"/>
   </g>
   <g id="patch_6">
    <path d="M 38.9 17.8 
L 245.99952 17.8 
" style="fill: none; stroke: #000000; stroke-width: 0.6; stroke-linejoin: miter; stroke-linecap: square"/>
   </g>
   <g id="legend_1">
    <g id="patch_7">
     <path d="M 153.569832 44.8 
L 240.99952 44.8 
L 240.99952 22.8 
L 153.569832 22.8 
z
" style="fill: #ffffff; opacity: 0.9"/>
    </g>
    <g id="PathCollection_2">
     <g>
      <use xlink:href="#m8b7fa01785" x="169.569832" y="33.775" style="fill: #1f77b4; stroke: #ffffff; stroke-width: 0.357771"/>
     </g>
    </g>
    <g id="text_14">
     <!-- multiexpo -->
     <g transform="translate(187.569832 36.4) scale(0.1 -0.1)">
      <defs>
       <path id="NotoSans-Regular-75" d="M 3411 3430 
L 3411 0 
L 2950 0 
L 2867 454 
L 2842 454 
Q 2733 275 2560 160 
Q 2387 45 2182 -9 
Q 1978 -64 1754 -64 
Q 1344 -64 1065 67 
Q 787 198 646 473 
Q 506 749 506 1184 
L 506 3430 
L 1075 3430 
L 1075 1222 
Q 1075 813 1260 608 
Q 1446 403 1837 403 
Q 2221 403 2441 547 
Q 2662 691 2755 969 
Q 2848 1248 2848 1645 
L 2848 3430 
L 3411 3430 
z
" transform="scale(0.015625)"/>
       <path id="NotoSans-Regular-6c" d="M 1107 0 
L 544 0 
L 544 4864 
L 1107 4864 
L 1107 0 
z
" transform="scale(0.015625)"/>
       <path id="NotoSans-Regular-74" d="M 1690 397 
Q 1818 397 1952 419 
Q 2086 442 2170 467 
L 2170 38 
Q 2080 -6 1913 -35 
Q 1747 -64 1594 -64 
Q 1325 -64 1097 29 
Q 870 122 729 352 
Q 589 582 589 998 
L 589 2995 
L 102 2995 
L 102 3264 
L 595 3488 
L 819 4218 
L 1152 4218 
L 1152 3430 
L 2144 3430 
L 2144 2995 
L 1152 2995 
L 1152 1011 
Q 1152 698 1302 547 
Q 1453 397 1690 397 
z
" transform="scale(0.015625)"/>
       <path id="NotoSans-Regular-69" d="M 1107 3430 
L 1107 0 
L 544 0 
L 544 3430 
L 1107 3430 
z
M 832 4717 
Q 960 4717 1059 4630 
Q 1158 4544 1158 4358 
Q 1158 4179 1059 4089 
Q 960 4000 832 4000 
Q 691 4000 595 4089 
Q 499 4179 499 4358 
Q 499 4544 595 4630 
Q 691 4717 832 4717 
z
" transform="scale(0.015625)"/>
       <path id="NotoSans-Regular-65" d="M 1869 3494 
Q 2310 3494 2627 3302 
Q 2944 3110 3113 2761 
Q 3283 2413 3283 1946 
L 3283 1606 
L 934 1606 
Q 947 1024 1232 720 
Q 1517 416 2029 416 
Q 2355 416 2608 477 
Q 2861 538 3130 653 
L 3130 160 
Q 2867 45 2611 -9 
Q 2355 -64 2003 -64 
Q 1517 -64 1142 134 
Q 768 333 560 726 
Q 352 1120 352 1690 
Q 352 2253 541 2656 
Q 730 3059 1072 3276 
Q 1414 3494 1869 3494 
z
M 1862 3034 
Q 1459 3034 1225 2774 
Q 992 2515 947 2054 
L 2694 2054 
Q 2694 2349 2604 2566 
Q 2515 2784 2332 2909 
Q 2150 3034 1862 3034 
z
" transform="scale(0.015625)"/>
       <path id="NotoSans-Regular-78" d="M 1357 1754 
L 173 3430 
L 813 3430 
L 1696 2138 
L 2573 3430 
L 3206 3430 
L 2022 1754 
L 3270 0 
L 2630 0 
L 1696 1370 
L 749 0 
L 115 0 
L 1357 1754 
z
" transform="scale(0.015625)"/>
       <path id="NotoSans-Regular-6f" d="M 3526 1722 
Q 3526 1293 3414 963 
Q 3302 634 3094 403 
Q 2886 173 2588 54 
Q 2291 -64 1926 -64 
Q 1587 -64 1299 54 
Q 1011 173 800 403 
Q 589 634 470 963 
Q 352 1293 352 1722 
Q 352 2291 544 2684 
Q 736 3078 1094 3286 
Q 1453 3494 1946 3494 
Q 2413 3494 2768 3286 
Q 3123 3078 3324 2684 
Q 3526 2291 3526 1722 
z
M 934 1722 
Q 934 1318 1040 1020 
Q 1146 723 1370 563 
Q 1594 403 1939 403 
Q 2285 403 2509 563 
Q 2733 723 2838 1020 
Q 2944 1318 2944 1722 
Q 2944 2131 2835 2419 
Q 2726 2707 2505 2864 
Q 2285 3021 1933 3021 
Q 1408 3021 1171 2675 
Q 934 2330 934 1722 
z
" transform="scale(0.015625)"/>
      </defs>
      <use xlink:href="#NotoSans-Regular-6d"/>
      <use xlink:href="#NotoSans-Regular-75" x="93.499985"/>
      <use xlink:href="#NotoSans-Regular-6c" x="155.299973"/>
      <use xlink:href="#NotoSans-Regular-74" x="181.09996"/>
      <use xlink:href="#NotoSans-Regular-69" x="217.199951"/>
      <use xlink:href="#NotoSans-Regular-65" x="242.999939"/>
      <use xlink:href="#NotoSans-Regular-78" x="299.399933"/>
      <use xlink:href="#NotoSans-Regular-70" x="352.299927"/>
      <use xlink:href="#NotoSans-Regular-6f" x="413.799911"/>
     </g>
    </g>
   </g>
  </g>
 </g>
 <defs>
  <clipPath id="p023bc8f3f8">
   <rect x="38.9" y="17.8" width="207.09952" height="200.69952"/>
  </clipPath>
 </defs>
</svg>
