<?xml version="1.0" encoding="utf-8" standalone="no"?>
<!DOCTYPE svg PUBLIC "-//W3C//DTD SVG 1.1//EN"
  "http://www.w3.org/Graphics/SVG/1.1/DTD/svg11.dtd">
<svg xmlns:xlink="http://www.w3.org/1999/xlink" width="497.99952pt" height="253.19952pt" viewBox="0 0 497.99952 253.19952" xmlns="http://www.w3.org/2000/svg" version="1.1">
 <metadata>
  <rdf:RDF xmlns:dc="http://purl.org/dc/elements/1.1/" xmlns:cc="http://creativecommons.org/ns#" xmlns:rdf="http://www.w3.org/1999/02/22-rdf-syntax-ns#">
   <cc:Work>
    <dc:type rdf:resource="http://purl.org/dc/dcmitype/StillImage"/>
    <dc:date>2024-07-06T12:09:16.541085</dc:date>
    <dc:format>image/svg+xml</dc:format>
    <dc:creator>
     <cc:Agent>
      <dc:title>Matplotlib v3.9.0, https://matplotlib.org/</dc:title>
     </cc:Agent>
    </dc:creator>
   </cc:Work>
  </rdf:RDF>
 </metadata>
 <defs>
  <style type="text/css">*{stroke-linejoin: round; stroke-linecap: butt}</style>
 </defs>
 <g id="figure_1">
  <g id="patch_1">
   <path d="M 0 253.19952 
L 497.99952 253.19952 
L 497.99952 0 
L 0 0 
z
" style="fill: #ffffff"/>
  </g>
  <g id="axes_1">
   <g id="patch_2">
    <path d="M 33.7 218.49952 
L 274.515712 218.49952 
L 274.515712 22.2 
L 33.7 22.2 
z
" style="fill: #ffffff"/>
   </g>
   <g id="PolyCollection_1"/>
   <g id="PolyCollection_2"/>
   <g id="matplotlib.axis_1">
    <g id="xtick_1">
     <g id="line2d_1">
      <defs>
       <path id="m419cf2b5dc" d="M 0 0 
L 0 -4 
" style="stroke: #000000; stroke-width: 0.6"/>
      </defs>
      <g>
       <use xlink:href="#m419cf2b5dc" x="40.037256" y="218.49952" style="stroke: #000000; stroke-width: 0.6"/>
      </g>
     </g>
     <g id="line2d_2">
      <defs>
       <path id="m1fcc1980a9" d="M 0 0 
L 0 4 
" style="stroke: #000000; stroke-width: 0.6"/>
      </defs>
      <g>
       <use xlink:href="#m1fcc1980a9" x="40.037256" y="22.2" style="stroke: #000000; stroke-width: 0.6"/>
      </g>
     </g>
     <g id="text_1">
      <!-- $\mathdefault{−2.5}$ -->
      <g transform="translate(31.337256 229.59952) scale(0.1 -0.1)">
       <defs>
        <path id="NotoSans-Regular-2212" d="M 256 1466 
L 256 1965 
L 1805 1965 
L 1805 1466 
L 256 1466 
z
" transform="scale(0.015625)"/>
        <path id="NotoSans-Regular-32" d="M 3328 0 
L 307 0 
L 307 467 
L 1504 1677 
Q 1850 2022 2086 2291 
Q 2323 2560 2444 2819 
Q 2566 3078 2566 3386 
Q 2566 3763 2342 3958 
Q 2118 4154 1760 4154 
Q 1427 4154 1174 4038 
Q 922 3923 659 3718 
L 358 4096 
Q 538 4250 752 4371 
Q 966 4493 1219 4563 
Q 1472 4634 1760 4634 
Q 2189 4634 2496 4486 
Q 2803 4339 2972 4067 
Q 3142 3795 3142 3418 
Q 3142 3059 2995 2745 
Q 2848 2432 2585 2128 
Q 2323 1824 1971 1478 
L 1018 538 
L 1018 512 
L 3328 512 
L 3328 0 
z
" transform="scale(0.015625)"/>
        <path id="NotoSans-Regular-2e" d="M 461 346 
Q 461 582 576 678 
Q 691 774 851 774 
Q 1018 774 1136 678 
Q 1254 582 1254 346 
Q 1254 115 1136 12 
Q 1018 -90 851 -90 
Q 691 -90 576 12 
Q 461 115 461 346 
z
" transform="scale(0.015625)"/>
        <path id="NotoSans-Regular-35" d="M 1760 2803 
Q 2227 2803 2572 2643 
Q 2918 2483 3107 2185 
Q 3296 1888 3296 1459 
Q 3296 986 3091 643 
Q 2886 301 2505 118 
Q 2125 -64 1587 -64 
Q 1235 -64 924 0 
Q 614 64 403 186 
L 403 717 
Q 634 576 963 496 
Q 1293 416 1594 416 
Q 1933 416 2185 521 
Q 2438 627 2579 848 
Q 2720 1069 2720 1402 
Q 2720 1850 2445 2090 
Q 2170 2330 1574 2330 
Q 1395 2330 1164 2298 
Q 934 2266 794 2234 
L 512 2413 
L 685 4570 
L 2976 4570 
L 2976 4058 
L 1165 4058 
L 1056 2733 
Q 1165 2752 1350 2777 
Q 1536 2803 1760 2803 
z
" transform="scale(0.015625)"/>
       </defs>
       <use xlink:href="#NotoSans-Regular-2212" transform="translate(0 0.59375)"/>
       <use xlink:href="#NotoSans-Regular-32" transform="translate(32.199997 0.59375)"/>
       <use xlink:href="#NotoSans-Regular-2e" transform="translate(89.399994 0.59375)"/>
       <use xlink:href="#NotoSans-Regular-35" transform="translate(116.199982 0.59375)"/>
      </g>
     </g>
    </g>
    <g id="xtick_2">
     <g id="line2d_3">
      <g>
       <use xlink:href="#m419cf2b5dc" x="71.723533" y="218.49952" style="stroke: #000000; stroke-width: 0.6"/>
      </g>
     </g>
     <g id="line2d_4">
      <g>
       <use xlink:href="#m1fcc1980a9" x="71.723533" y="22.2" style="stroke: #000000; stroke-width: 0.6"/>
      </g>
     </g>
     <g id="text_2">
      <!-- $\mathdefault{0.0}$ -->
      <g transform="translate(64.623533 229.59952) scale(0.1 -0.1)">
       <defs>
        <path id="NotoSans-Regular-30" d="M 3347 2291 
Q 3347 1734 3264 1299 
Q 3181 864 2998 560 
Q 2816 256 2525 96 
Q 2234 -64 1824 -64 
Q 1312 -64 976 217 
Q 640 499 477 1027 
Q 314 1555 314 2291 
Q 314 3034 464 3558 
Q 614 4083 947 4361 
Q 1280 4640 1824 4640 
Q 2336 4640 2675 4361 
Q 3014 4083 3180 3558 
Q 3347 3034 3347 2291 
z
M 877 2291 
Q 877 1664 969 1248 
Q 1062 832 1270 624 
Q 1478 416 1824 416 
Q 2170 416 2378 621 
Q 2586 826 2682 1245 
Q 2778 1664 2778 2291 
Q 2778 2918 2682 3331 
Q 2586 3744 2378 3952 
Q 2170 4160 1824 4160 
Q 1478 4160 1270 3952 
Q 1062 3744 969 3331 
Q 877 2918 877 2291 
z
" transform="scale(0.015625)"/>
       </defs>
       <use xlink:href="#NotoSans-Regular-30" transform="translate(0 0.5)"/>
       <use xlink:href="#NotoSans-Regular-2e" transform="translate(57.199997 0.5)"/>
       <use xlink:href="#NotoSans-Regular-30" transform="translate(83.999985 0.5)"/>
      </g>
     </g>
    </g>
    <g id="xtick_3">
     <g id="line2d_5">
      <g>
       <use xlink:href="#m419cf2b5dc" x="103.409811" y="218.49952" style="stroke: #000000; stroke-width: 0.6"/>
      </g>
     </g>
     <g id="line2d_6">
      <g>
       <use xlink:href="#m1fcc1980a9" x="103.409811" y="22.2" style="stroke: #000000; stroke-width: 0.6"/>
      </g>
     </g>
     <g id="text_3">
      <!-- $\mathdefault{2.5}$ -->
      <g transform="translate(96.309811 229.59952) scale(0.1 -0.1)">
       <use xlink:href="#NotoSans-Regular-32" transform="translate(0 0.59375)"/>
       <use xlink:href="#NotoSans-Regular-2e" transform="translate(57.199997 0.59375)"/>
       <use xlink:href="#NotoSans-Regular-35" transform="translate(83.999985 0.59375)"/>
      </g>
     </g>
    </g>
    <g id="xtick_4">
     <g id="line2d_7">
      <g>
       <use xlink:href="#m419cf2b5dc" x="135.096089" y="218.49952" style="stroke: #000000; stroke-width: 0.6"/>
      </g>
     </g>
     <g id="line2d_8">
      <g>
       <use xlink:href="#m1fcc1980a9" x="135.096089" y="22.2" style="stroke: #000000; stroke-width: 0.6"/>
      </g>
     </g>
     <g id="text_4">
      <!-- $\mathdefault{5.0}$ -->
      <g transform="translate(127.996089 229.59952) scale(0.1 -0.1)">
       <use xlink:href="#NotoSans-Regular-35" transform="translate(0 0.5)"/>
       <use xlink:href="#NotoSans-Regular-2e" transform="translate(57.199997 0.5)"/>
       <use xlink:href="#NotoSans-Regular-30" transform="translate(83.999985 0.5)"/>
      </g>
     </g>
    </g>
    <g id="xtick_5">
     <g id="line2d_9">
      <g>
       <use xlink:href="#m419cf2b5dc" x="166.782367" y="218.49952" style="stroke: #000000; stroke-width: 0.6"/>
      </g>
     </g>
     <g id="line2d_10">
      <g>
       <use xlink:href="#m1fcc1980a9" x="166.782367" y="22.2" style="stroke: #000000; stroke-width: 0.6"/>
      </g>
     </g>
     <g id="text_5">
      <!-- $\mathdefault{7.5}$ -->
      <g transform="translate(159.682367 229.59952) scale(0.1 -0.1)">
       <defs>
        <path id="NotoSans-Regular-37" d="M 870 0 
L 2746 4058 
L 282 4058 
L 282 4570 
L 3347 4570 
L 3347 4134 
L 1491 0 
L 870 0 
z
" transform="scale(0.015625)"/>
       </defs>
       <use xlink:href="#NotoSans-Regular-37" transform="translate(0 0.59375)"/>
       <use xlink:href="#NotoSans-Regular-2e" transform="translate(57.199997 0.59375)"/>
       <use xlink:href="#NotoSans-Regular-35" transform="translate(83.999985 0.59375)"/>
      </g>
     </g>
    </g>
    <g id="xtick_6">
     <g id="line2d_11">
      <g>
       <use xlink:href="#m419cf2b5dc" x="198.468645" y="218.49952" style="stroke: #000000; stroke-width: 0.6"/>
      </g>
     </g>
     <g id="line2d_12">
      <g>
       <use xlink:href="#m1fcc1980a9" x="198.468645" y="22.2" style="stroke: #000000; stroke-width: 0.6"/>
      </g>
     </g>
     <g id="text_6">
      <!-- $\mathdefault{10.0}$ -->
      <g transform="translate(188.518645 229.59952) scale(0.1 -0.1)">
       <defs>
        <path id="NotoSans-Regular-31" d="M 2272 0 
L 1722 0 
L 1722 3194 
Q 1722 3379 1725 3507 
Q 1728 3635 1734 3747 
Q 1741 3859 1747 3981 
Q 1645 3878 1561 3808 
Q 1478 3738 1350 3629 
L 864 3232 
L 570 3610 
L 1805 4570 
L 2272 4570 
L 2272 0 
z
" transform="scale(0.015625)"/>
       </defs>
       <use xlink:href="#NotoSans-Regular-31" transform="translate(0 0.5)"/>
       <use xlink:href="#NotoSans-Regular-30" transform="translate(57.199997 0.5)"/>
       <use xlink:href="#NotoSans-Regular-2e" transform="translate(114.399994 0.5)"/>
       <use xlink:href="#NotoSans-Regular-30" transform="translate(141.199982 0.5)"/>
      </g>
     </g>
    </g>
    <g id="xtick_7">
     <g id="line2d_13">
      <g>
       <use xlink:href="#m419cf2b5dc" x="230.154923" y="218.49952" style="stroke: #000000; stroke-width: 0.6"/>
      </g>
     </g>
     <g id="line2d_14">
      <g>
       <use xlink:href="#m1fcc1980a9" x="230.154923" y="22.2" style="stroke: #000000; stroke-width: 0.6"/>
      </g>
     </g>
     <g id="text_7">
      <!-- $\mathdefault{12.5}$ -->
      <g transform="translate(220.204923 229.59952) scale(0.1 -0.1)">
       <use xlink:href="#NotoSans-Regular-31" transform="translate(0 0.59375)"/>
       <use xlink:href="#NotoSans-Regular-32" transform="translate(57.199997 0.59375)"/>
       <use xlink:href="#NotoSans-Regular-2e" transform="translate(114.399994 0.59375)"/>
       <use xlink:href="#NotoSans-Regular-35" transform="translate(141.199982 0.59375)"/>
      </g>
     </g>
    </g>
    <g id="xtick_8">
     <g id="line2d_15">
      <g>
       <use xlink:href="#m419cf2b5dc" x="261.841201" y="218.49952" style="stroke: #000000; stroke-width: 0.6"/>
      </g>
     </g>
     <g id="line2d_16">
      <g>
       <use xlink:href="#m1fcc1980a9" x="261.841201" y="22.2" style="stroke: #000000; stroke-width: 0.6"/>
      </g>
     </g>
     <g id="text_8">
      <!-- $\mathdefault{15.0}$ -->
      <g transform="translate(251.891201 229.59952) scale(0.1 -0.1)">
       <use xlink:href="#NotoSans-Regular-31" transform="translate(0 0.5)"/>
       <use xlink:href="#NotoSans-Regular-35" transform="translate(57.199997 0.5)"/>
       <use xlink:href="#NotoSans-Regular-2e" transform="translate(114.399994 0.5)"/>
       <use xlink:href="#NotoSans-Regular-30" transform="translate(141.199982 0.5)"/>
      </g>
     </g>
    </g>
    <g id="text_9">
     <!-- $\tau$ (ps) -->
     <g transform="translate(142.257856 243.59952) scale(0.1 -0.1)">
      <defs>
       <path id="NotoSans-Italic-3c4" d="M 1613 -64 
Q 1267 -64 1030 102 
Q 794 269 794 685 
Q 794 794 819 954 
Q 845 1114 877 1267 
L 1235 2950 
L 269 2950 
L 371 3430 
L 2938 3430 
L 2835 2950 
L 1798 2950 
L 1434 1254 
Q 1402 1107 1382 979 
Q 1363 851 1363 749 
Q 1363 602 1443 499 
Q 1523 397 1702 397 
Q 1811 397 1920 419 
Q 2029 442 2157 480 
L 2157 51 
Q 2080 13 1917 -25 
Q 1754 -64 1613 -64 
z
" transform="scale(0.015625)"/>
       <path id="NotoSans-Regular-20" transform="scale(0.015625)"/>
       <path id="NotoSans-Regular-28" d="M 256 1754 
Q 256 2278 355 2777 
Q 454 3277 665 3731 
Q 877 4186 1197 4570 
L 1728 4570 
Q 1280 3968 1053 3245 
Q 826 2522 826 1760 
Q 826 1267 928 780 
Q 1030 294 1228 -157 
Q 1427 -608 1722 -1011 
L 1197 -1011 
Q 877 -634 665 -189 
Q 454 256 355 749 
Q 256 1242 256 1754 
z
" transform="scale(0.015625)"/>
       <path id="NotoSans-Regular-70" d="M 2176 3494 
Q 2810 3494 3197 3052 
Q 3584 2611 3584 1722 
Q 3584 1139 3408 739 
Q 3232 339 2915 137 
Q 2598 -64 2170 -64 
Q 1907 -64 1702 6 
Q 1498 77 1354 189 
Q 1210 301 1107 435 
L 1069 435 
Q 1082 326 1094 160 
Q 1107 -6 1107 -128 
L 1107 -1536 
L 544 -1536 
L 544 3430 
L 1005 3430 
L 1082 2963 
L 1107 2963 
Q 1210 3110 1354 3232 
Q 1498 3354 1699 3424 
Q 1901 3494 2176 3494 
z
M 2074 3021 
Q 1728 3021 1517 2889 
Q 1306 2758 1210 2496 
Q 1114 2234 1107 1830 
L 1107 1722 
Q 1107 1299 1196 1004 
Q 1286 710 1500 556 
Q 1715 403 2086 403 
Q 2400 403 2601 576 
Q 2803 749 2902 1046 
Q 3002 1344 3002 1728 
Q 3002 2317 2774 2669 
Q 2547 3021 2074 3021 
z
" transform="scale(0.015625)"/>
       <path id="NotoSans-Regular-73" d="M 2778 947 
Q 2778 614 2611 390 
Q 2445 166 2137 51 
Q 1830 -64 1408 -64 
Q 1050 -64 790 -6 
Q 531 51 333 154 
L 333 666 
Q 538 563 829 476 
Q 1120 390 1421 390 
Q 1850 390 2042 528 
Q 2234 666 2234 896 
Q 2234 1024 2163 1126 
Q 2093 1229 1910 1331 
Q 1728 1434 1389 1562 
Q 1056 1690 819 1818 
Q 582 1946 454 2125 
Q 326 2304 326 2586 
Q 326 3021 681 3257 
Q 1037 3494 1613 3494 
Q 1926 3494 2198 3433 
Q 2470 3373 2707 3264 
L 2515 2816 
Q 2298 2906 2061 2970 
Q 1824 3034 1574 3034 
Q 1229 3034 1046 2922 
Q 864 2810 864 2618 
Q 864 2477 947 2377 
Q 1030 2278 1225 2185 
Q 1421 2093 1747 1965 
Q 2074 1843 2304 1715 
Q 2534 1587 2656 1404 
Q 2778 1222 2778 947 
z
" transform="scale(0.015625)"/>
       <path id="NotoSans-Regular-29" d="M 1664 1754 
Q 1664 1242 1565 749 
Q 1466 256 1258 -189 
Q 1050 -634 723 -1011 
L 198 -1011 
Q 493 -608 691 -157 
Q 890 294 992 780 
Q 1094 1267 1094 1760 
Q 1094 2266 992 2758 
Q 890 3251 691 3712 
Q 493 4173 192 4570 
L 723 4570 
Q 1050 4186 1258 3731 
Q 1466 3277 1565 2777 
Q 1664 2278 1664 1754 
z
" transform="scale(0.015625)"/>
      </defs>
      <use xlink:href="#NotoSans-Italic-3c4" transform="translate(0 0.59375)"/>
      <use xlink:href="#NotoSans-Regular-20" transform="translate(40.999985 0.59375)"/>
      <use xlink:href="#NotoSans-Regular-28" transform="translate(66.999969 0.59375)"/>
      <use xlink:href="#NotoSans-Regular-70" transform="translate(96.999954 0.59375)"/>
      <use xlink:href="#NotoSans-Regular-73" transform="translate(158.499939 0.59375)"/>
      <use xlink:href="#NotoSans-Regular-29" transform="translate(206.399933 0.59375)"/>
     </g>
    </g>
   </g>
   <g id="matplotlib.axis_2">
    <g id="ytick_1">
     <g id="line2d_17">
      <defs>
       <path id="m79ced423dd" d="M 0 0 
L 4 0 
" style="stroke: #000000; stroke-width: 0.6"/>
      </defs>
      <g>
       <use xlink:href="#m79ced423dd" x="33.7" y="185.692551" style="stroke: #000000; stroke-width: 0.6"/>
      </g>
     </g>
     <g id="line2d_18">
      <defs>
       <path id="mc4607607a5" d="M 0 0 
L -4 0 
" style="stroke: #000000; stroke-width: 0.6"/>
      </defs>
      <g>
       <use xlink:href="#mc4607607a5" x="274.515712" y="185.692551" style="stroke: #000000; stroke-width: 0.6"/>
      </g>
     </g>
     <g id="text_10">
      <!-- $\mathdefault{−8}$ -->
      <g transform="translate(21.2 189.492551) scale(0.1 -0.1)">
       <defs>
        <path id="NotoSans-Regular-38" d="M 1824 4634 
Q 2227 4634 2534 4509 
Q 2842 4384 3018 4141 
Q 3194 3898 3194 3539 
Q 3194 3264 3075 3059 
Q 2957 2854 2758 2697 
Q 2560 2541 2323 2419 
Q 2605 2285 2835 2115 
Q 3066 1946 3203 1722 
Q 3341 1498 3341 1184 
Q 3341 800 3155 521 
Q 2970 243 2634 89 
Q 2298 -64 1843 -64 
Q 1350 -64 1008 83 
Q 666 230 490 502 
Q 314 774 314 1165 
Q 314 1478 445 1708 
Q 576 1939 793 2105 
Q 1011 2272 1261 2387 
Q 1037 2515 854 2678 
Q 672 2842 566 3053 
Q 461 3264 461 3546 
Q 461 3898 640 4138 
Q 819 4378 1126 4506 
Q 1434 4634 1824 4634 
z
M 864 1158 
Q 864 826 1101 605 
Q 1338 384 1830 384 
Q 2298 384 2544 605 
Q 2790 826 2790 1178 
Q 2790 1402 2672 1571 
Q 2554 1741 2339 1875 
Q 2125 2010 1830 2118 
L 1728 2157 
Q 1446 2035 1254 1894 
Q 1062 1754 963 1574 
Q 864 1395 864 1158 
z
M 1818 4179 
Q 1466 4179 1238 4009 
Q 1011 3840 1011 3520 
Q 1011 3283 1123 3123 
Q 1235 2963 1427 2851 
Q 1619 2739 1850 2637 
Q 2074 2733 2250 2848 
Q 2426 2963 2531 3126 
Q 2637 3290 2637 3520 
Q 2637 3840 2413 4009 
Q 2189 4179 1818 4179 
z
" transform="scale(0.015625)"/>
       </defs>
       <use xlink:href="#NotoSans-Regular-2212" transform="translate(0 0.59375)"/>
       <use xlink:href="#NotoSans-Regular-38" transform="translate(32.199997 0.59375)"/>
      </g>
     </g>
    </g>
    <g id="ytick_2">
     <g id="line2d_19">
      <g>
       <use xlink:href="#m79ced423dd" x="33.7" y="149.373459" style="stroke: #000000; stroke-width: 0.6"/>
      </g>
     </g>
     <g id="line2d_20">
      <g>
       <use xlink:href="#mc4607607a5" x="274.515712" y="149.373459" style="stroke: #000000; stroke-width: 0.6"/>
      </g>
     </g>
     <g id="text_11">
      <!-- $\mathdefault{−6}$ -->
      <g transform="translate(21.2 153.173459) scale(0.1 -0.1)">
       <defs>
        <path id="NotoSans-Regular-36" d="M 352 1952 
Q 352 2349 406 2733 
Q 461 3117 595 3459 
Q 730 3802 966 4067 
Q 1203 4333 1564 4483 
Q 1926 4634 2445 4634 
Q 2579 4634 2742 4621 
Q 2906 4608 3008 4576 
L 3008 4096 
Q 2893 4134 2749 4153 
Q 2605 4173 2458 4173 
Q 2016 4173 1721 4025 
Q 1427 3878 1257 3622 
Q 1088 3366 1011 3033 
Q 934 2701 915 2323 
L 954 2323 
Q 1050 2477 1197 2598 
Q 1344 2720 1552 2790 
Q 1760 2861 2035 2861 
Q 2432 2861 2729 2697 
Q 3027 2534 3193 2224 
Q 3360 1914 3360 1472 
Q 3360 998 3181 652 
Q 3002 307 2678 121 
Q 2355 -64 1907 -64 
Q 1581 -64 1299 57 
Q 1018 179 803 428 
Q 589 678 470 1059 
Q 352 1440 352 1952 
z
M 1901 410 
Q 2304 410 2553 669 
Q 2803 928 2803 1472 
Q 2803 1907 2582 2163 
Q 2362 2419 1920 2419 
Q 1619 2419 1395 2294 
Q 1171 2170 1046 1978 
Q 922 1786 922 1581 
Q 922 1370 982 1165 
Q 1043 960 1168 787 
Q 1293 614 1475 512 
Q 1658 410 1901 410 
z
" transform="scale(0.015625)"/>
       </defs>
       <use xlink:href="#NotoSans-Regular-2212" transform="translate(0 0.59375)"/>
       <use xlink:href="#NotoSans-Regular-36" transform="translate(32.199997 0.59375)"/>
      </g>
     </g>
    </g>
    <g id="ytick_3">
     <g id="line2d_21">
      <g>
       <use xlink:href="#m79ced423dd" x="33.7" y="113.054367" style="stroke: #000000; stroke-width: 0.6"/>
      </g>
     </g>
     <g id="line2d_22">
      <g>
       <use xlink:href="#mc4607607a5" x="274.515712" y="113.054367" style="stroke: #000000; stroke-width: 0.6"/>
      </g>
     </g>
     <g id="text_12">
      <!-- $\mathdefault{−4}$ -->
      <g transform="translate(21.2 116.854367) scale(0.1 -0.1)">
       <defs>
        <path id="NotoSans-Regular-34" d="M 3533 1037 
L 2867 1037 
L 2867 0 
L 2323 0 
L 2323 1037 
L 134 1037 
L 134 1517 
L 2285 4595 
L 2867 4595 
L 2867 1542 
L 3533 1542 
L 3533 1037 
z
M 2323 2982 
Q 2323 3149 2326 3286 
Q 2330 3424 2336 3545 
Q 2342 3667 2345 3779 
Q 2349 3891 2355 3994 
L 2330 3994 
Q 2278 3872 2201 3731 
Q 2125 3590 2054 3494 
L 685 1542 
L 2323 1542 
L 2323 2982 
z
" transform="scale(0.015625)"/>
       </defs>
       <use xlink:href="#NotoSans-Regular-2212" transform="translate(0 0.203125)"/>
       <use xlink:href="#NotoSans-Regular-34" transform="translate(32.199997 0.203125)"/>
      </g>
     </g>
    </g>
    <g id="ytick_4">
     <g id="line2d_23">
      <g>
       <use xlink:href="#m79ced423dd" x="33.7" y="76.735275" style="stroke: #000000; stroke-width: 0.6"/>
      </g>
     </g>
     <g id="line2d_24">
      <g>
       <use xlink:href="#mc4607607a5" x="274.515712" y="76.735275" style="stroke: #000000; stroke-width: 0.6"/>
      </g>
     </g>
     <g id="text_13">
      <!-- $\mathdefault{−2}$ -->
      <g transform="translate(21.2 80.535275) scale(0.1 -0.1)">
       <use xlink:href="#NotoSans-Regular-2212" transform="translate(0 0.59375)"/>
       <use xlink:href="#NotoSans-Regular-32" transform="translate(32.199997 0.59375)"/>
      </g>
     </g>
    </g>
    <g id="ytick_5">
     <g id="line2d_25">
      <g>
       <use xlink:href="#m79ced423dd" x="33.7" y="40.416183" style="stroke: #000000; stroke-width: 0.6"/>
      </g>
     </g>
     <g id="line2d_26">
      <g>
       <use xlink:href="#mc4607607a5" x="274.515712" y="40.416183" style="stroke: #000000; stroke-width: 0.6"/>
      </g>
     </g>
     <g id="text_14">
      <!-- $\mathdefault{0}$ -->
      <g transform="translate(24.4 44.216183) scale(0.1 -0.1)">
       <use xlink:href="#NotoSans-Regular-30" transform="translate(0 0.5)"/>
      </g>
     </g>
    </g>
    <g id="text_15">
     <!-- $\Delta E (t_0)$ (a.u.) -->
     <g transform="translate(14.8 145.79976) rotate(-90) scale(0.1 -0.1)">
      <defs>
       <path id="NotoSans-Regular-394" d="M 64 0 
L 64 320 
L 1786 4589 
L 2304 4589 
L 4019 320 
L 4019 0 
L 64 0 
z
M 723 518 
L 3354 518 
L 2285 3309 
Q 2266 3360 2214 3494 
Q 2163 3629 2115 3773 
Q 2067 3917 2042 3994 
Q 2010 3866 1968 3734 
Q 1926 3603 1884 3494 
Q 1843 3386 1818 3309 
L 723 518 
z
" transform="scale(0.015625)"/>
       <path id="NotoSans-Italic-45" d="M 262 0 
L 1229 4570 
L 3546 4570 
L 3437 4064 
L 1690 4064 
L 1389 2637 
L 3021 2637 
L 2925 2138 
L 1286 2138 
L 934 506 
L 2688 506 
L 2579 0 
L 262 0 
z
" transform="scale(0.015625)"/>
       <path id="NotoSans-Italic-74" d="M 1184 -64 
Q 838 -64 601 102 
Q 365 269 365 685 
Q 365 781 381 899 
Q 397 1018 422 1139 
L 813 3002 
L 282 3002 
L 333 3258 
L 909 3501 
L 1306 4211 
L 1638 4211 
L 1466 3430 
L 2330 3430 
L 2240 3002 
L 1382 3002 
L 986 1133 
Q 966 1050 947 944 
Q 928 838 928 749 
Q 928 602 1008 499 
Q 1088 397 1267 397 
Q 1382 397 1491 419 
Q 1600 442 1722 480 
L 1722 51 
Q 1645 13 1485 -25 
Q 1325 -64 1184 -64 
z
" transform="scale(0.015625)"/>
       <path id="NotoSans-Regular-61" d="M 1843 3488 
Q 2470 3488 2771 3213 
Q 3072 2938 3072 2336 
L 3072 0 
L 2662 0 
L 2554 486 
L 2528 486 
Q 2381 301 2224 176 
Q 2067 51 1865 -6 
Q 1664 -64 1376 -64 
Q 1069 -64 822 45 
Q 576 154 435 381 
Q 294 608 294 954 
Q 294 1466 697 1744 
Q 1101 2022 1939 2048 
L 2522 2067 
L 2522 2272 
Q 2522 2701 2336 2867 
Q 2150 3034 1811 3034 
Q 1542 3034 1299 2954 
Q 1056 2874 845 2771 
L 672 3194 
Q 896 3315 1203 3401 
Q 1510 3488 1843 3488 
z
M 2010 1658 
Q 1370 1632 1123 1453 
Q 877 1274 877 947 
Q 877 659 1053 524 
Q 1229 390 1504 390 
Q 1939 390 2227 630 
Q 2515 870 2515 1370 
L 2515 1677 
L 2010 1658 
z
" transform="scale(0.015625)"/>
       <path id="NotoSans-Regular-75" d="M 3411 3430 
L 3411 0 
L 2950 0 
L 2867 454 
L 2842 454 
Q 2733 275 2560 160 
Q 2387 45 2182 -9 
Q 1978 -64 1754 -64 
Q 1344 -64 1065 67 
Q 787 198 646 473 
Q 506 749 506 1184 
L 506 3430 
L 1075 3430 
L 1075 1222 
Q 1075 813 1260 608 
Q 1446 403 1837 403 
Q 2221 403 2441 547 
Q 2662 691 2755 969 
Q 2848 1248 2848 1645 
L 2848 3430 
L 3411 3430 
z
" transform="scale(0.015625)"/>
      </defs>
      <use xlink:href="#NotoSans-Regular-394" transform="translate(0 0.296875)"/>
      <use xlink:href="#NotoSans-Italic-45" transform="translate(63.899994 0.296875)"/>
      <use xlink:href="#NotoSans-Regular-28" transform="translate(115.299988 0.296875)"/>
      <use xlink:href="#NotoSans-Italic-74" transform="translate(145.299973 0.296875)"/>
      <use xlink:href="#NotoSans-Regular-30" transform="translate(178.499969 -15.78125) scale(0.7)"/>
      <use xlink:href="#NotoSans-Regular-29" transform="translate(221.219655 0.296875)"/>
      <use xlink:href="#NotoSans-Regular-20" transform="translate(251.21964 0.296875)"/>
      <use xlink:href="#NotoSans-Regular-28" transform="translate(277.219624 0.296875)"/>
      <use xlink:href="#NotoSans-Regular-61" transform="translate(307.219609 0.296875)"/>
      <use xlink:href="#NotoSans-Regular-2e" transform="translate(363.3196 0.296875)"/>
      <use xlink:href="#NotoSans-Regular-75" transform="translate(390.119588 0.296875)"/>
      <use xlink:href="#NotoSans-Regular-2e" transform="translate(451.919576 0.296875)"/>
      <use xlink:href="#NotoSans-Regular-29" transform="translate(478.719563 0.296875)"/>
     </g>
    </g>
    <g id="text_16">
     <!-- $\times\mathdefault{10^{−4}}\mathdefault{}$ -->
     <g transform="translate(33.7 19.2) scale(0.1 -0.1)">
      <defs>
       <path id="NotoSans-Regular-d7" d="M 2918 3674 
L 3238 3347 
L 2150 2259 
L 3232 1171 
L 2912 845 
L 1818 1926 
L 749 845 
L 416 1171 
L 1498 2259 
L 410 3341 
L 742 3674 
L 1824 2579 
L 2918 3674 
z
" transform="scale(0.015625)"/>
      </defs>
      <use xlink:href="#NotoSans-Regular-d7" transform="translate(0 0.226562)"/>
      <use xlink:href="#NotoSans-Regular-31" transform="translate(57.199997 0.226562)"/>
      <use xlink:href="#NotoSans-Regular-30" transform="translate(114.399994 0.226562)"/>
      <use xlink:href="#NotoSans-Regular-2212" transform="translate(172.537881 37.742188) scale(0.7)"/>
      <use xlink:href="#NotoSans-Regular-34" transform="translate(195.077879 37.742188) scale(0.7)"/>
     </g>
    </g>
   </g>
   <g id="line2d_27">
    <path d="M 42.980277 40.404493 
L 43.825667 31.764346 
L 44.671057 42.209072 
L 45.516447 38.287755 
L 46.361837 38.923766 
L 47.207227 37.718846 
L 48.052616 33.626065 
L 48.898006 41.37735 
L 49.743396 35.616395 
L 50.588786 39.834714 
L 51.434176 39.875849 
L 52.279566 40.976868 
L 53.124956 38.961006 
L 53.970346 38.861853 
L 54.815736 42.283534 
L 55.661125 31.122705 
L 56.506515 45.835534 
L 58.197295 40.320933 
L 59.042685 49.062828 
L 59.888075 45.180472 
L 60.733465 43.902376 
L 61.578855 42.07182 
L 62.424245 47.483826 
L 63.269635 44.543149 
L 64.115024 40.38068 
L 64.960414 43.195352 
L 65.805804 40.639159 
L 66.651194 39.703101 
L 67.496584 47.844914 
L 68.341974 51.847193 
L 69.187364 52.02382 
L 70.032754 63.328846 
L 70.878144 67.143661 
L 71.723533 67.494791 
L 72.568923 76.37478 
L 73.414313 91.43659 
L 74.259703 115.345426 
L 75.105093 127.813872 
L 75.950483 123.559606 
L 76.795873 111.517242 
L 77.641263 124.801785 
L 78.486653 162.075248 
L 79.332043 191.922046 
L 80.177432 194.407274 
L 81.022822 164.312366 
L 81.868212 170.224388 
L 82.713602 179.76375 
L 83.558992 209.576815 
L 84.404382 206.596317 
L 85.249772 192.428167 
L 86.095162 185.596117 
L 86.940552 190.746607 
L 87.785941 182.784046 
L 88.631331 180.549122 
L 89.476721 185.886205 
L 90.322111 189.231237 
L 91.167501 186.016518 
L 92.012891 178.471335 
L 92.858281 181.940215 
L 93.703671 178.703857 
L 94.549061 183.585884 
L 95.394451 182.994457 
L 96.23984 180.740472 
L 97.08523 179.009541 
L 97.93062 176.849949 
L 98.77601 173.244691 
L 99.6214 175.115524 
L 100.46679 175.078253 
L 101.31218 171.325401 
L 102.15757 171.356578 
L 103.00296 173.983334 
L 103.848349 169.70658 
L 104.693739 167.248685 
L 105.539129 165.595643 
L 106.384519 176.573728 
L 107.229909 175.689191 
L 108.075299 171.944962 
L 108.920689 165.152732 
L 109.766079 166.534703 
L 110.611469 168.983968 
L 111.456859 163.206595 
L 112.302248 169.669345 
L 113.147638 158.827232 
L 113.993028 162.836409 
L 114.838418 156.712669 
L 115.683808 157.173333 
L 116.529198 155.861487 
L 117.374588 160.934415 
L 118.219978 159.577548 
L 119.065368 154.979958 
L 119.910757 163.635647 
L 120.756147 157.772976 
L 121.601537 148.563086 
L 122.446927 152.953302 
L 123.292317 153.276716 
L 124.137707 158.782617 
L 124.983097 151.734077 
L 125.828487 148.672617 
L 126.673877 153.249861 
L 127.519266 153.40615 
L 128.364656 154.411506 
L 129.210046 154.247416 
L 130.055436 145.978786 
L 130.900826 155.371768 
L 131.746216 146.741219 
L 132.591606 142.903017 
L 133.436996 151.026617 
L 134.282386 150.521796 
L 135.127776 144.691558 
L 135.973165 149.86846 
L 136.818555 140.999294 
L 137.663945 147.962986 
L 139.354725 142.199458 
L 140.200115 152.537208 
L 141.045505 141.24521 
L 141.890895 145.769661 
L 142.736285 140.318267 
L 143.581674 147.095337 
L 144.427064 146.279654 
L 145.272454 144.1313 
L 146.117844 145.101521 
L 146.963234 145.398131 
L 147.808624 142.65795 
L 148.654014 139.094277 
L 149.499404 139.076946 
L 150.344794 138.006644 
L 151.190184 142.683947 
L 152.035573 138.076805 
L 152.880963 144.276794 
L 153.726353 140.232096 
L 154.571743 142.825541 
L 155.417133 136.615993 
L 156.262523 137.365888 
L 157.107913 135.989503 
L 157.953303 132.172091 
L 158.798693 142.781769 
L 159.644082 133.851907 
L 160.489472 137.83516 
L 161.334862 136.442817 
L 162.180252 131.31435 
L 163.025642 134.452923 
L 163.871032 132.567802 
L 164.716422 137.40398 
L 165.561812 133.888357 
L 166.407202 141.331795 
L 167.252592 139.379607 
L 168.097981 131.154982 
L 168.943371 134.707933 
L 169.788761 133.270489 
L 170.634151 128.347705 
L 171.479541 128.911414 
L 172.324931 132.643585 
L 173.170321 128.185838 
L 174.015711 132.47428 
L 174.861101 130.012434 
L 175.70649 131.785881 
L 176.55188 129.960498 
L 177.39727 124.777531 
L 178.24266 135.268192 
L 179.08805 129.865269 
L 179.93344 130.116815 
L 180.77883 132.839694 
L 181.62422 125.528254 
L 182.46961 131.358107 
L 183.315 128.855954 
L 184.160389 133.051848 
L 185.005779 126.54529 
L 185.851169 134.640838 
L 186.696559 126.333593 
L 187.541949 131.194039 
L 188.387339 135.012781 
L 189.232729 131.279716 
L 190.078119 128.545186 
L 190.923509 131.672456 
L 191.768898 128.96943 
L 192.614288 127.228481 
L 193.459678 128.577191 
L 194.305068 126.0552 
L 195.150458 131.615719 
L 195.995848 125.889338 
L 196.841238 121.389105 
L 197.686628 128.577205 
L 198.532018 125.62219 
L 199.377408 132.868262 
L 200.222797 134.312215 
L 201.068187 130.399123 
L 201.913577 128.746903 
L 202.758967 131.24424 
L 203.604357 132.209267 
L 204.449747 125.066319 
L 205.295137 122.640864 
L 206.140527 126.877392 
L 206.985917 125.969865 
L 207.831306 127.116372 
L 209.522086 124.865859 
L 210.367476 127.635074 
L 211.212866 121.193476 
L 212.058256 118.579235 
L 212.903646 127.183024 
L 213.749036 131.021676 
L 214.594426 124.036287 
L 215.439815 122.49144 
L 216.285205 121.289162 
L 217.130595 127.257493 
L 217.975985 123.959225 
L 218.821375 130.420726 
L 219.666765 124.455359 
L 220.512155 127.74889 
L 221.357545 120.801171 
L 222.202935 127.909493 
L 223.048325 122.81322 
L 223.893714 119.296195 
L 224.739104 122.931301 
L 225.584494 127.195598 
L 226.429884 128.422617 
L 227.275274 120.245257 
L 228.120664 123.614594 
L 228.966054 129.202351 
L 229.811444 130.56099 
L 230.656834 123.838443 
L 231.502223 118.616026 
L 232.347613 119.711025 
L 233.193003 126.075524 
L 234.038393 125.560752 
L 234.883783 126.603757 
L 235.729173 128.84301 
L 236.574563 121.415981 
L 237.419953 120.165202 
L 238.265343 124.445429 
L 239.110733 123.309775 
L 239.956122 123.564321 
L 240.801512 120.575172 
L 241.646902 125.911885 
L 242.492292 124.073907 
L 243.337682 123.840564 
L 244.183072 118.059225 
L 245.028462 126.626267 
L 245.873852 123.575565 
L 246.719242 119.115254 
L 247.564631 121.5411 
L 248.410021 125.579326 
L 249.255411 122.96855 
L 250.100801 119.060673 
L 250.946191 126.047842 
L 251.791581 116.033455 
L 252.636971 122.810126 
L 253.482361 114.405481 
L 254.327751 119.248603 
L 255.173141 122.003057 
L 256.01853 118.105525 
L 256.86392 119.087477 
L 257.70931 129.035254 
L 258.5547 114.906416 
L 259.40009 121.853699 
L 260.24548 117.429728 
L 261.09087 116.672461 
L 262.78165 124.331126 
L 263.627039 121.375296 
L 264.472429 122.633898 
L 265.317819 126.271655 
L 266.163209 120.843222 
L 267.008599 119.010473 
L 267.853989 121.039788 
L 268.699379 118.254542 
L 269.544769 113.048578 
L 270.390159 122.896732 
L 271.235549 114.916374 
L 272.080938 116.654715 
L 272.926328 109.222115 
L 273.771718 121.349735 
L 274.617108 124.582265 
L 275.462498 115.90137 
L 276.307888 115.077457 
L 277.153278 111.989157 
L 277.998668 123.029202 
L 278.844058 119.748688 
L 279.689447 123.483358 
L 280.534837 125.669833 
L 281.380227 113.80886 
L 282.225617 117.854887 
L 283.071007 124.645475 
L 283.916397 116.788471 
L 284.761787 125.433882 
L 285.607177 124.425069 
L 286.452567 126.412391 
L 287.297957 120.934128 
L 288.143346 125.523939 
L 288.988736 128.152039 
L 289.834126 124.760998 
L 290.679516 136.682661 
L 291.524906 146.743369 
L 292.370296 155.378276 
L 293.215686 152.445873 
L 294.061076 139.145342 
L 294.906466 136.254894 
L 295.751855 136.195135 
L 296.597245 151.172068 
L 297.442635 154.105379 
L 298.288025 170.417504 
L 299.133415 155.029744 
L 299.978805 155.084731 
L 300.824195 147.930938 
L 301.669585 159.598744 
L 302.514975 173.956059 
L 303.360364 177.905048 
L 304.205754 168.919886 
L 305.051144 158.460961 
L 305.896534 156.702696 
L 306.741924 147.94917 
L 307.587314 159.508694 
L 308.432704 156.764184 
L 309.278094 158.019764 
L 310.123484 159.602644 
L 310.968874 160.784192 
L 311.814263 156.38316 
L 312.659653 160.505799 
L 313.505043 154.507592 
L 314.350433 151.676497 
L 315.195823 160.4257 
L 316.041213 150.855177 
L 316.886603 151.147407 
L 317.731993 151.904246 
L 318.577383 152.284798 
L 319.422772 152.843327 
L 320.268162 155.460111 
L 321.113552 159.672798 
L 322.804332 147.718406 
L 323.649722 154.224019 
L 324.495112 147.642201 
L 325.340502 139.170475 
L 326.185892 146.566705 
L 327.031282 148.424972 
L 327.876671 143.178381 
L 328.722061 154.044763 
L 329.567451 155.504275 
L 330.412841 148.071238 
L 331.258231 156.686258 
L 332.103621 160.679832 
L 332.949011 153.428668 
L 333.794401 154.982151 
L 334.639791 149.967146 
L 335.48518 153.210884 
L 336.33057 155.050533 
L 337.17596 168.715984 
L 338.02135 170.295392 
L 338.86674 161.854879 
L 339.71213 159.874951 
L 340.55752 161.211973 
L 341.40291 165.442813 
L 342.2483 173.681995 
L 343.09369 167.982098 
L 343.939079 177.073326 
L 344.784469 163.045949 
L 345.629859 164.721937 
L 346.475249 169.625167 
L 347.320639 157.695464 
L 348.166029 170.257286 
L 349.011419 166.189657 
L 349.856809 168.596036 
L 350.702199 165.153596 
L 351.547588 169.605692 
L 353.238368 156.132922 
L 354.083758 164.950972 
L 354.929148 155.414211 
L 355.774538 161.02275 
L 357.465318 157.428322 
L 358.310708 156.702703 
L 359.156098 156.738187 
L 360.001487 163.549912 
L 360.846877 161.69774 
L 361.692267 166.177548 
L 362.537657 155.401666 
L 363.383047 158.594296 
L 364.228437 159.631642 
L 365.073827 156.214749 
L 365.919217 157.321813 
L 366.764607 151.214104 
L 367.609996 160.082783 
L 368.455386 157.605835 
L 369.300776 149.596538 
L 370.146166 149.613006 
L 370.991556 150.143795 
L 371.836946 151.718481 
L 372.682336 146.217766 
L 373.527726 151.602021 
L 374.373116 149.543331 
L 375.218506 155.040567 
L 376.063895 158.904286 
L 376.909285 152.451488 
L 377.754675 152.316838 
L 378.600065 151.957054 
L 379.445455 149.36276 
L 380.290845 153.641243 
L 381.136235 155.31203 
L 381.981625 149.076587 
L 382.827015 157.113145 
L 383.672404 149.548532 
L 384.517794 151.81764 
L 385.363184 157.150822 
L 386.208574 149.087396 
L 387.053964 149.987942 
L 387.899354 155.301215 
L 388.744744 147.465966 
L 389.590134 156.000866 
L 390.435524 151.642284 
L 391.280913 155.539766 
L 392.126303 146.81913 
L 392.971693 153.62134 
L 393.817083 151.290708 
L 394.662473 143.054083 
L 395.507863 153.039893 
L 396.353253 148.39859 
L 397.198643 151.422786 
L 398.044033 144.983818 
L 398.889423 153.846889 
L 399.734812 147.872958 
L 400.580202 158.528914 
L 401.425592 153.064997 
L 402.270982 157.115724 
L 403.116372 151.609829 
L 403.961762 143.066678 
L 404.807152 148.62241 
L 405.652542 148.182527 
L 406.497932 148.153523 
L 407.343321 150.761183 
L 408.188711 141.507129 
L 409.034101 154.237871 
L 409.879491 152.840291 
L 410.724881 143.183139 
L 411.570271 141.085871 
L 412.415661 141.74661 
L 413.261051 146.416039 
L 414.106441 158.173873 
L 414.951831 143.34465 
L 415.79722 153.771571 
L 416.64261 137.225602 
L 417.488 138.871728 
L 418.33339 146.576671 
L 419.17878 147.761647 
L 420.02417 149.879711 
L 420.86956 149.609497 
L 421.71495 141.463887 
L 422.56034 149.578807 
L 423.405729 140.994064 
L 424.251119 149.016835 
L 425.096509 149.869309 
L 425.941899 147.478954 
L 426.787289 147.014396 
L 427.632679 145.29946 
L 428.478069 146.518684 
L 429.323459 147.132608 
L 430.168849 138.082856 
L 431.014239 147.246032 
L 431.859628 146.331634 
L 432.705018 141.982539 
L 433.550408 147.873815 
L 434.395798 142.825534 
L 435.241188 150.467659 
L 436.086578 148.971807 
L 436.931968 144.823193 
L 437.777358 145.878764 
L 438.622748 151.76396 
L 439.468137 143.77713 
L 440.313527 142.839785 
L 441.158917 146.031551 
L 442.004307 146.778882 
L 442.849697 151.449197 
L 443.695087 148.839758 
L 444.540477 149.898728 
L 445.385867 142.757116 
L 446.231257 146.285712 
L 447.076647 147.188031 
L 447.922036 141.627483 
L 448.767426 142.344502 
L 450.458206 141.420987 
L 451.303596 151.021395 
L 452.148986 141.86347 
L 452.994376 141.680763 
L 453.839766 148.052222 
L 454.685156 141.10666 
L 456.375935 144.010096 
L 457.221325 143.142919 
L 458.066715 150.860341 
L 458.912105 143.901007 
L 459.757495 140.846042 
L 460.602885 144.517117 
L 461.448275 146.666314 
L 462.293665 138.291139 
L 463.139055 143.134203 
L 463.984444 140.062777 
L 464.829834 142.018916 
L 465.675224 141.821471 
L 466.520614 144.813227 
L 467.366004 142.845393 
L 468.211394 136.979264 
L 469.056784 140.279289 
L 469.902174 140.953415 
L 470.747564 144.710654 
L 471.592953 141.159069 
L 473.283733 148.776061 
L 474.129123 147.013968 
L 474.974513 142.06353 
L 475.819903 142.44366 
L 476.665293 141.840553 
L 477.510683 138.468637 
L 478.356073 143.586608 
L 479.201462 137.318252 
L 480.046852 132.850074 
L 480.892242 143.592709 
L 481.737632 139.931185 
L 483.428412 144.225279 
L 484.273802 146.030715 
L 485.119192 148.861811 
L 485.964582 143.498781 
L 486.809972 143.697504 
L 487.655361 139.179511 
L 488.500751 144.936218 
L 489.346141 148.322784 
L 490.191531 145.374321 
L 491.036921 145.886521 
L 491.882311 137.84347 
L 492.727701 137.323017 
L 493.573091 143.412189 
L 494.418481 146.112535 
L 495.26387 139.599512 
L 496.10926 143.066242 
L 496.95465 135.601601 
L 498.64543 146.897892 
L 498.99952 141.967694 
L 498.99952 141.967694 
" clip-path="url(#p407a1d0952)" style="fill: none; stroke: #166895; stroke-linecap: square"/>
   </g>
   <g id="line2d_28">
    <path d="M 42.980277 40.416183 
L 60.733465 40.488136 
L 62.424245 40.676716 
L 63.269635 40.88795 
L 64.115024 41.242898 
L 64.960414 41.818536 
L 65.805804 42.719501 
L 66.651194 44.080424 
L 67.496584 46.064301 
L 68.341974 48.855163 
L 69.187364 52.643846 
L 70.032754 57.606831 
L 70.878144 63.879841 
L 71.723533 71.529679 
L 72.568923 80.529342 
L 74.259703 101.918453 
L 77.641263 148.532746 
L 79.332043 167.327182 
L 80.177432 174.618872 
L 81.022822 180.414877 
L 81.868212 184.775908 
L 82.713602 187.839828 
L 83.558992 189.792891 
L 84.404382 190.841523 
L 85.249772 191.188753 
L 86.095162 191.017534 
L 86.940552 190.481385 
L 87.785941 189.7014 
L 89.476721 187.744818 
L 97.08523 178.238785 
L 100.46679 174.414009 
L 104.693739 170.003512 
L 108.920689 165.969975 
L 113.147638 162.279252 
L 117.374588 158.900293 
L 121.601537 155.804867 
L 125.828487 152.967306 
L 130.055436 150.364269 
L 135.127776 147.520459 
L 140.200115 144.950869 
L 145.272454 142.626023 
L 150.344794 140.519627 
L 156.262523 138.307109 
L 162.180252 136.327165 
L 168.943371 134.312345 
L 175.70649 132.526428 
L 183.315 130.751143 
L 191.768898 129.023884 
L 201.068187 127.371158 
L 211.212866 125.808722 
L 222.202935 124.342612 
L 234.883783 122.879698 
L 249.255411 121.44675 
L 266.163209 119.984497 
L 287.297957 118.392217 
L 313.505043 116.653093 
L 348.166029 114.590522 
L 395.507863 112.0124 
L 458.912105 108.794133 
L 498.99952 106.852514 
L 498.99952 106.852514 
" clip-path="url(#p407a1d0952)" style="fill: none; stroke-dasharray: 3.7,1.6; stroke-dashoffset: 0; stroke: #333333"/>
   </g>
   <g id="patch_3">
    <path d="M 33.7 218.49952 
L 33.7 22.2 
" style="fill: none; stroke: #000000; stroke-width: 0.6; stroke-linejoin: miter; stroke-linecap: square"/>
   </g>
   <g id="patch_4">
    <path d="M 274.515712 218.49952 
L 274.515712 22.2 
" style="fill: none; stroke: #000000; stroke-width: 0.6; stroke-linejoin: miter; stroke-linecap: square"/>
   </g>
   <g id="patch_5">
    <path d="M 33.7 218.49952 
L 274.515712 218.49952 
" style="fill: none; stroke: #000000; stroke-width: 0.6; stroke-linejoin: miter; stroke-linecap: square"/>
   </g>
   <g id="patch_6">
    <path d="M 33.7 22.2 
L 274.515712 22.2 
" style="fill: none; stroke: #000000; stroke-width: 0.6; stroke-linejoin: miter; stroke-linecap: square"/>
   </g>
   <g id="text_17">
    <!-- a -->
    <g transform="translate(20.679688 14.8) scale(0.1 -0.1)">
     <defs>
      <path id="NotoSans-Bold-61" d="M 1933 3565 
Q 2637 3565 3011 3261 
Q 3386 2957 3386 2330 
L 3386 0 
L 2720 0 
L 2534 474 
L 2509 474 
Q 2362 288 2205 166 
Q 2048 45 1846 -9 
Q 1645 -64 1350 -64 
Q 1043 -64 796 54 
Q 550 173 409 419 
Q 269 666 269 1043 
Q 269 1600 659 1865 
Q 1050 2131 1830 2157 
L 2438 2176 
L 2438 2330 
Q 2438 2605 2294 2733 
Q 2150 2861 1894 2861 
Q 1638 2861 1395 2787 
Q 1152 2714 909 2605 
L 595 3251 
Q 877 3398 1219 3481 
Q 1562 3565 1933 3565 
z
M 2067 1606 
Q 1606 1594 1427 1440 
Q 1248 1286 1248 1037 
Q 1248 819 1376 726 
Q 1504 634 1709 634 
Q 2016 634 2227 816 
Q 2438 998 2438 1331 
L 2438 1619 
L 2067 1606 
z
" transform="scale(0.015625)"/>
     </defs>
     <use xlink:href="#NotoSans-Bold-61"/>
    </g>
   </g>
   <g id="PathCollection_1">
    <defs>
     <path id="m08c83ce89f" d="M 0 3.162278 
C 0.838646 3.162278 1.643056 2.82908 2.236068 2.236068 
C 2.82908 1.643056 3.162278 0.838646 3.162278 0 
C 3.162278 -0.838646 2.82908 -1.643056 2.236068 -2.236068 
C 1.643056 -2.82908 0.838646 -3.162278 0 -3.162278 
C -0.838646 -3.162278 -1.643056 -2.82908 -2.236068 -2.236068 
C -2.82908 -1.643056 -3.162278 -0.838646 -3.162278 0 
C -3.162278 0.838646 -2.82908 1.643056 -2.236068 2.236068 
C -1.643056 2.82908 -0.838646 3.162278 0 3.162278 
z
" style="stroke: #ffffff"/>
    </defs>
    <g clip-path="url(#p407a1d0952)">
     <use xlink:href="#m08c83ce89f" x="231.422374" y="123.73534" style="fill: #ce8147; stroke: #ffffff"/>
    </g>
   </g>
  </g>
  <g id="axes_2">
   <g id="patch_7">
    <path d="M 321.655712 218.49952 
L 482.19952 218.49952 
L 482.19952 22.2 
L 321.655712 22.2 
z
" style="fill: #ffffff"/>
   </g>
   <g id="PolyCollection_3">
    <defs>
     <path id="m3b1767d180" d="M 321.655712 -230.99952 
L 321.655712 -49.799573 
L 322.500679 -51.067776 
L 323.345647 -52.906533 
L 324.190614 -53.125968 
L 325.035582 -54.452495 
L 325.880549 -55.927898 
L 326.725516 -56.78335 
L 327.570484 -58.025942 
L 328.415451 -59.384139 
L 329.260419 -59.293003 
L 330.105386 -60.326212 
L 330.950354 -61.006146 
L 331.795321 -61.101677 
L 332.640288 -58.66919 
L 333.485256 -57.307113 
L 334.330223 -57.049404 
L 335.175191 -58.842009 
L 336.020158 -64.735281 
L 336.865125 -68.772658 
L 337.710093 -74.065966 
L 338.55506 -78.629909 
L 339.400028 -81.046331 
L 340.244995 -82.145663 
L 341.089962 -81.47908 
L 341.93493 -80.032569 
L 342.779897 -81.70349 
L 343.624865 -82.871148 
L 344.469832 -83.916593 
L 345.314799 -83.855497 
L 346.159767 -83.131694 
L 347.004734 -84.577624 
L 347.849702 -85.235872 
L 348.694669 -86.866252 
L 349.539637 -86.85402 
L 350.384604 -86.831239 
L 351.229571 -86.944022 
L 351.229571 -87.822809 
L 355.454408 -91.259079 
L 359.679245 -94.778112 
L 363.904083 -99.410335 
L 368.12892 -102.726598 
L 372.353757 -104.492491 
L 376.578594 -104.72302 
L 380.803431 -106.001754 
L 385.028268 -106.704448 
L 389.253105 -106.854431 
L 393.477942 -106.336716 
L 397.702779 -103.170986 
L 401.927616 -101.437861 
L 406.152453 -98.558207 
L 410.37729 -97.447789 
L 414.602127 -94.322052 
L 418.826964 -90.065339 
L 423.051801 -86.609069 
L 435.726312 -83.427758 
L 439.951149 -90.745784 
L 444.175987 -105.3846 
L 448.400824 -129.397366 
L 452.625661 -154.303913 
L 456.850498 -174.76988 
L 457.695465 -190.733602 
L 458.540433 -197.607807 
L 459.3854 -198.763234 
L 460.230367 -203.679888 
L 461.075335 -204.895304 
L 461.920302 -205.932965 
L 462.76527 -209.238693 
L 463.610237 -208.523777 
L 464.455204 -207.486675 
L 465.300172 -207.988285 
L 466.145139 -208.051053 
L 466.990107 -206.906184 
L 467.835074 -207.385571 
L 468.680041 -207.629988 
L 469.525009 -206.813415 
L 473.749846 -208.71042 
L 477.974683 -211.241239 
L 482.19952 -210.313567 
L 482.19952 -230.99952 
L 482.19952 -230.99952 
L 477.974683 -230.99952 
L 473.749846 -230.99952 
L 469.525009 -230.99952 
L 468.680041 -230.99952 
L 467.835074 -230.99952 
L 466.990107 -230.99952 
L 466.145139 -230.99952 
L 465.300172 -230.99952 
L 464.455204 -230.99952 
L 463.610237 -230.99952 
L 462.76527 -230.99952 
L 461.920302 -230.99952 
L 461.075335 -230.99952 
L 460.230367 -230.99952 
L 459.3854 -230.99952 
L 458.540433 -230.99952 
L 457.695465 -230.99952 
L 456.850498 -230.99952 
L 452.625661 -230.99952 
L 448.400824 -230.99952 
L 444.175987 -230.99952 
L 439.951149 -230.99952 
L 435.726312 -230.99952 
L 423.051801 -230.99952 
L 418.826964 -230.99952 
L 414.602127 -230.99952 
L 410.37729 -230.99952 
L 406.152453 -230.99952 
L 401.927616 -230.99952 
L 397.702779 -230.99952 
L 393.477942 -230.99952 
L 389.253105 -230.99952 
L 385.028268 -230.99952 
L 380.803431 -230.99952 
L 376.578594 -230.99952 
L 372.353757 -230.99952 
L 368.12892 -230.99952 
L 363.904083 -230.99952 
L 359.679245 -230.99952 
L 355.454408 -230.99952 
L 351.229571 -230.99952 
L 351.229571 -230.99952 
L 350.384604 -230.99952 
L 349.539637 -230.99952 
L 348.694669 -230.99952 
L 347.849702 -230.99952 
L 347.004734 -230.99952 
L 346.159767 -230.99952 
L 345.314799 -230.99952 
L 344.469832 -230.99952 
L 343.624865 -230.99952 
L 342.779897 -230.99952 
L 341.93493 -230.99952 
L 341.089962 -230.99952 
L 340.244995 -230.99952 
L 339.400028 -230.99952 
L 338.55506 -230.99952 
L 337.710093 -230.99952 
L 336.865125 -230.99952 
L 336.020158 -230.99952 
L 335.175191 -230.99952 
L 334.330223 -230.99952 
L 333.485256 -230.99952 
L 332.640288 -230.99952 
L 331.795321 -230.99952 
L 330.950354 -230.99952 
L 330.105386 -230.99952 
L 329.260419 -230.99952 
L 328.415451 -230.99952 
L 327.570484 -230.99952 
L 326.725516 -230.99952 
L 325.880549 -230.99952 
L 325.035582 -230.99952 
L 324.190614 -230.99952 
L 323.345647 -230.99952 
L 322.500679 -230.99952 
L 321.655712 -230.99952 
z
" style="stroke: #ce8147; stroke-opacity: 0.1"/>
    </defs>
    <g clip-path="url(#pf63054ae9f)">
     <use xlink:href="#m3b1767d180" x="0" y="253.19952" style="fill: #ce8147; fill-opacity: 0.1; stroke: #ce8147; stroke-opacity: 0.1"/>
    </g>
   </g>
   <g id="matplotlib.axis_3">
    <g id="xtick_9">
     <g id="line2d_29">
      <g>
       <use xlink:href="#m419cf2b5dc" x="355.454408" y="218.49952" style="stroke: #000000; stroke-width: 0.6"/>
      </g>
     </g>
     <g id="line2d_30">
      <g>
       <use xlink:href="#m1fcc1980a9" x="355.454408" y="22.2" style="stroke: #000000; stroke-width: 0.6"/>
      </g>
     </g>
     <g id="text_18">
      <!-- $\mathdefault{50}$ -->
      <g transform="translate(349.704408 229.59952) scale(0.1 -0.1)">
       <use xlink:href="#NotoSans-Regular-35" transform="translate(0 0.5)"/>
       <use xlink:href="#NotoSans-Regular-30" transform="translate(57.199997 0.5)"/>
      </g>
     </g>
    </g>
    <g id="xtick_10">
     <g id="line2d_31">
      <g>
       <use xlink:href="#m419cf2b5dc" x="397.702779" y="218.49952" style="stroke: #000000; stroke-width: 0.6"/>
      </g>
     </g>
     <g id="line2d_32">
      <g>
       <use xlink:href="#m1fcc1980a9" x="397.702779" y="22.2" style="stroke: #000000; stroke-width: 0.6"/>
      </g>
     </g>
     <g id="text_19">
      <!-- $\mathdefault{100}$ -->
      <g transform="translate(389.102779 229.59952) scale(0.1 -0.1)">
       <use xlink:href="#NotoSans-Regular-31" transform="translate(0 0.5)"/>
       <use xlink:href="#NotoSans-Regular-30" transform="translate(57.199997 0.5)"/>
       <use xlink:href="#NotoSans-Regular-30" transform="translate(114.399994 0.5)"/>
      </g>
     </g>
    </g>
    <g id="xtick_11">
     <g id="line2d_33">
      <g>
       <use xlink:href="#m419cf2b5dc" x="439.951149" y="218.49952" style="stroke: #000000; stroke-width: 0.6"/>
      </g>
     </g>
     <g id="line2d_34">
      <g>
       <use xlink:href="#m1fcc1980a9" x="439.951149" y="22.2" style="stroke: #000000; stroke-width: 0.6"/>
      </g>
     </g>
     <g id="text_20">
      <!-- $\mathdefault{150}$ -->
      <g transform="translate(431.351149 229.59952) scale(0.1 -0.1)">
       <use xlink:href="#NotoSans-Regular-31" transform="translate(0 0.5)"/>
       <use xlink:href="#NotoSans-Regular-35" transform="translate(57.199997 0.5)"/>
       <use xlink:href="#NotoSans-Regular-30" transform="translate(114.399994 0.5)"/>
      </g>
     </g>
    </g>
    <g id="xtick_12">
     <g id="line2d_35">
      <g>
       <use xlink:href="#m419cf2b5dc" x="482.19952" y="218.49952" style="stroke: #000000; stroke-width: 0.6"/>
      </g>
     </g>
     <g id="line2d_36">
      <g>
       <use xlink:href="#m1fcc1980a9" x="482.19952" y="22.2" style="stroke: #000000; stroke-width: 0.6"/>
      </g>
     </g>
     <g id="text_21">
      <!-- $\mathdefault{200}$ -->
      <g transform="translate(473.59952 229.59952) scale(0.1 -0.1)">
       <use xlink:href="#NotoSans-Regular-32" transform="translate(0 0.5)"/>
       <use xlink:href="#NotoSans-Regular-30" transform="translate(57.199997 0.5)"/>
       <use xlink:href="#NotoSans-Regular-30" transform="translate(114.399994 0.5)"/>
      </g>
     </g>
    </g>
    <g id="text_22">
     <!-- $T$ (K) -->
     <g transform="translate(392.027616 243.59952) scale(0.1 -0.1)">
      <defs>
       <path id="NotoSans-Italic-54" d="M 973 0 
L 1830 4064 
L 576 4064 
L 685 4570 
L 3770 4570 
L 3667 4064 
L 2413 4064 
L 1549 0 
L 973 0 
z
" transform="scale(0.015625)"/>
       <path id="NotoSans-Regular-4b" d="M 3962 0 
L 3283 0 
L 1664 2182 
L 1197 1773 
L 1197 0 
L 621 0 
L 621 4570 
L 1197 4570 
L 1197 2317 
Q 1389 2534 1587 2752 
Q 1786 2970 1984 3187 
L 3219 4570 
L 3891 4570 
L 2080 2579 
L 3962 0 
z
" transform="scale(0.015625)"/>
      </defs>
      <use xlink:href="#NotoSans-Italic-54" transform="translate(0 0.59375)"/>
      <use xlink:href="#NotoSans-Regular-20" transform="translate(50.099991 0.59375)"/>
      <use xlink:href="#NotoSans-Regular-28" transform="translate(76.099976 0.59375)"/>
      <use xlink:href="#NotoSans-Regular-4b" transform="translate(106.09996 0.59375)"/>
      <use xlink:href="#NotoSans-Regular-29" transform="translate(167.999954 0.59375)"/>
     </g>
    </g>
   </g>
   <g id="matplotlib.axis_4">
    <g id="ytick_6">
     <g id="line2d_37">
      <g>
       <use xlink:href="#m79ced423dd" x="321.655712" y="189.951916" style="stroke: #000000; stroke-width: 0.6"/>
      </g>
     </g>
     <g id="line2d_38">
      <g>
       <use xlink:href="#mc4607607a5" x="482.19952" y="189.951916" style="stroke: #000000; stroke-width: 0.6"/>
      </g>
     </g>
     <g id="text_23">
      <!-- $\mathdefault{−1.0}$ -->
      <g transform="translate(300.755712 193.751916) scale(0.1 -0.1)">
       <use xlink:href="#NotoSans-Regular-2212" transform="translate(0 0.5)"/>
       <use xlink:href="#NotoSans-Regular-31" transform="translate(32.199997 0.5)"/>
       <use xlink:href="#NotoSans-Regular-2e" transform="translate(89.399994 0.5)"/>
       <use xlink:href="#NotoSans-Regular-30" transform="translate(116.199982 0.5)"/>
      </g>
     </g>
    </g>
    <g id="ytick_7">
     <g id="line2d_39">
      <g>
       <use xlink:href="#m79ced423dd" x="321.655712" y="156.401532" style="stroke: #000000; stroke-width: 0.6"/>
      </g>
     </g>
     <g id="line2d_40">
      <g>
       <use xlink:href="#mc4607607a5" x="482.19952" y="156.401532" style="stroke: #000000; stroke-width: 0.6"/>
      </g>
     </g>
     <g id="text_24">
      <!-- $\mathdefault{−0.8}$ -->
      <g transform="translate(300.755712 160.201532) scale(0.1 -0.1)">
       <use xlink:href="#NotoSans-Regular-2212" transform="translate(0 0.5)"/>
       <use xlink:href="#NotoSans-Regular-30" transform="translate(32.199997 0.5)"/>
       <use xlink:href="#NotoSans-Regular-2e" transform="translate(89.399994 0.5)"/>
       <use xlink:href="#NotoSans-Regular-38" transform="translate(116.199982 0.5)"/>
      </g>
     </g>
    </g>
    <g id="ytick_8">
     <g id="line2d_41">
      <g>
       <use xlink:href="#m79ced423dd" x="321.655712" y="122.851149" style="stroke: #000000; stroke-width: 0.6"/>
      </g>
     </g>
     <g id="line2d_42">
      <g>
       <use xlink:href="#mc4607607a5" x="482.19952" y="122.851149" style="stroke: #000000; stroke-width: 0.6"/>
      </g>
     </g>
     <g id="text_25">
      <!-- $\mathdefault{−0.6}$ -->
      <g transform="translate(300.755712 126.651149) scale(0.1 -0.1)">
       <use xlink:href="#NotoSans-Regular-2212" transform="translate(0 0.5)"/>
       <use xlink:href="#NotoSans-Regular-30" transform="translate(32.199997 0.5)"/>
       <use xlink:href="#NotoSans-Regular-2e" transform="translate(89.399994 0.5)"/>
       <use xlink:href="#NotoSans-Regular-36" transform="translate(116.199982 0.5)"/>
      </g>
     </g>
    </g>
    <g id="ytick_9">
     <g id="line2d_43">
      <g>
       <use xlink:href="#m79ced423dd" x="321.655712" y="89.300766" style="stroke: #000000; stroke-width: 0.6"/>
      </g>
     </g>
     <g id="line2d_44">
      <g>
       <use xlink:href="#mc4607607a5" x="482.19952" y="89.300766" style="stroke: #000000; stroke-width: 0.6"/>
      </g>
     </g>
     <g id="text_26">
      <!-- $\mathdefault{−0.4}$ -->
      <g transform="translate(300.755712 93.100766) scale(0.1 -0.1)">
       <use xlink:href="#NotoSans-Regular-2212" transform="translate(0 0.5)"/>
       <use xlink:href="#NotoSans-Regular-30" transform="translate(32.199997 0.5)"/>
       <use xlink:href="#NotoSans-Regular-2e" transform="translate(89.399994 0.5)"/>
       <use xlink:href="#NotoSans-Regular-34" transform="translate(116.199982 0.5)"/>
      </g>
     </g>
    </g>
    <g id="ytick_10">
     <g id="line2d_45">
      <g>
       <use xlink:href="#m79ced423dd" x="321.655712" y="55.750383" style="stroke: #000000; stroke-width: 0.6"/>
      </g>
     </g>
     <g id="line2d_46">
      <g>
       <use xlink:href="#mc4607607a5" x="482.19952" y="55.750383" style="stroke: #000000; stroke-width: 0.6"/>
      </g>
     </g>
     <g id="text_27">
      <!-- $\mathdefault{−0.2}$ -->
      <g transform="translate(300.755712 59.550383) scale(0.1 -0.1)">
       <use xlink:href="#NotoSans-Regular-2212" transform="translate(0 0.5)"/>
       <use xlink:href="#NotoSans-Regular-30" transform="translate(32.199997 0.5)"/>
       <use xlink:href="#NotoSans-Regular-2e" transform="translate(89.399994 0.5)"/>
       <use xlink:href="#NotoSans-Regular-32" transform="translate(116.199982 0.5)"/>
      </g>
     </g>
    </g>
    <g id="ytick_11">
     <g id="line2d_47">
      <g>
       <use xlink:href="#m79ced423dd" x="321.655712" y="22.2" style="stroke: #000000; stroke-width: 0.6"/>
      </g>
     </g>
     <g id="line2d_48">
      <g>
       <use xlink:href="#mc4607607a5" x="482.19952" y="22.2" style="stroke: #000000; stroke-width: 0.6"/>
      </g>
     </g>
     <g id="text_28">
      <!-- $\mathdefault{0.0}$ -->
      <g transform="translate(303.955712 26) scale(0.1 -0.1)">
       <use xlink:href="#NotoSans-Regular-30" transform="translate(0 0.5)"/>
       <use xlink:href="#NotoSans-Regular-2e" transform="translate(57.199997 0.5)"/>
       <use xlink:href="#NotoSans-Regular-30" transform="translate(83.999985 0.5)"/>
      </g>
     </g>
    </g>
    <g id="text_29">
     <!-- $\Delta E(t_0)$ (a.u.) -->
     <g transform="translate(294.355712 145.79976) rotate(-90) scale(0.1 -0.1)">
      <use xlink:href="#NotoSans-Regular-394" transform="translate(0 0.296875)"/>
      <use xlink:href="#NotoSans-Italic-45" transform="translate(63.899994 0.296875)"/>
      <use xlink:href="#NotoSans-Regular-28" transform="translate(115.299988 0.296875)"/>
      <use xlink:href="#NotoSans-Italic-74" transform="translate(145.299973 0.296875)"/>
      <use xlink:href="#NotoSans-Regular-30" transform="translate(178.499969 -15.78125) scale(0.7)"/>
      <use xlink:href="#NotoSans-Regular-29" transform="translate(221.219655 0.296875)"/>
      <use xlink:href="#NotoSans-Regular-20" transform="translate(251.21964 0.296875)"/>
      <use xlink:href="#NotoSans-Regular-28" transform="translate(277.219624 0.296875)"/>
      <use xlink:href="#NotoSans-Regular-61" transform="translate(307.219609 0.296875)"/>
      <use xlink:href="#NotoSans-Regular-2e" transform="translate(363.3196 0.296875)"/>
      <use xlink:href="#NotoSans-Regular-75" transform="translate(390.119588 0.296875)"/>
      <use xlink:href="#NotoSans-Regular-2e" transform="translate(451.919576 0.296875)"/>
      <use xlink:href="#NotoSans-Regular-29" transform="translate(478.719563 0.296875)"/>
     </g>
    </g>
    <g id="text_30">
     <!-- $\times\mathdefault{10^{−3}}\mathdefault{}$ -->
     <g transform="translate(321.655712 19.2) scale(0.1 -0.1)">
      <defs>
       <path id="NotoSans-Regular-33" d="M 3155 3501 
Q 3155 3194 3040 2970 
Q 2925 2746 2710 2605 
Q 2496 2464 2208 2406 
L 2208 2381 
Q 2758 2317 3027 2035 
Q 3296 1754 3296 1299 
Q 3296 902 3110 592 
Q 2925 282 2537 109 
Q 2150 -64 1542 -64 
Q 1184 -64 877 -9 
Q 570 45 288 186 
L 288 710 
Q 576 570 909 490 
Q 1242 410 1549 410 
Q 2163 410 2435 650 
Q 2707 890 2707 1312 
Q 2707 1600 2556 1776 
Q 2406 1952 2118 2035 
Q 1830 2118 1427 2118 
L 986 2118 
L 986 2598 
L 1434 2598 
Q 1811 2598 2064 2707 
Q 2317 2816 2448 3011 
Q 2579 3206 2579 3462 
Q 2579 3795 2355 3977 
Q 2131 4160 1747 4160 
Q 1504 4160 1305 4112 
Q 1107 4064 937 3977 
Q 768 3891 595 3776 
L 314 4160 
Q 557 4352 918 4493 
Q 1280 4634 1741 4634 
Q 2458 4634 2806 4314 
Q 3155 3994 3155 3501 
z
" transform="scale(0.015625)"/>
      </defs>
      <use xlink:href="#NotoSans-Regular-d7" transform="translate(0 0.8)"/>
      <use xlink:href="#NotoSans-Regular-31" transform="translate(57.199997 0.8)"/>
      <use xlink:href="#NotoSans-Regular-30" transform="translate(114.399994 0.8)"/>
      <use xlink:href="#NotoSans-Regular-2212" transform="translate(172.537881 38.315625) scale(0.7)"/>
      <use xlink:href="#NotoSans-Regular-33" transform="translate(195.077879 38.315625) scale(0.7)"/>
     </g>
    </g>
   </g>
   <g id="patch_8">
    <path d="M 321.655712 218.49952 
L 321.655712 22.2 
" style="fill: none; stroke: #000000; stroke-width: 0.6; stroke-linejoin: miter; stroke-linecap: square"/>
   </g>
   <g id="patch_9">
    <path d="M 482.19952 218.49952 
L 482.19952 22.2 
" style="fill: none; stroke: #000000; stroke-width: 0.6; stroke-linejoin: miter; stroke-linecap: square"/>
   </g>
   <g id="patch_10">
    <path d="M 321.655712 218.49952 
L 482.19952 218.49952 
" style="fill: none; stroke: #000000; stroke-width: 0.6; stroke-linejoin: miter; stroke-linecap: square"/>
   </g>
   <g id="patch_11">
    <path d="M 321.655712 22.2 
L 482.19952 22.2 
" style="fill: none; stroke: #000000; stroke-width: 0.6; stroke-linejoin: miter; stroke-linecap: square"/>
   </g>
   <g id="text_31">
    <!-- b -->
    <g transform="translate(308.490868 14.8) scale(0.1 -0.1)">
     <defs>
      <path id="NotoSans-Bold-62" d="M 1453 3731 
Q 1453 3533 1440 3341 
Q 1427 3149 1414 3040 
L 1453 3040 
Q 1594 3258 1830 3408 
Q 2067 3558 2445 3558 
Q 3034 3558 3398 3100 
Q 3763 2643 3763 1754 
Q 3763 1158 3593 752 
Q 3424 346 3123 141 
Q 2822 -64 2419 -64 
Q 2035 -64 1814 73 
Q 1594 211 1453 384 
L 1389 384 
L 1229 0 
L 499 0 
L 499 4864 
L 1453 4864 
L 1453 3731 
z
M 2138 2797 
Q 1888 2797 1741 2694 
Q 1594 2592 1526 2384 
Q 1459 2176 1453 1862 
L 1453 1760 
Q 1453 1254 1603 982 
Q 1754 710 2150 710 
Q 2445 710 2617 982 
Q 2790 1254 2790 1766 
Q 2790 2278 2614 2537 
Q 2438 2797 2138 2797 
z
" transform="scale(0.015625)"/>
     </defs>
     <use xlink:href="#NotoSans-Bold-62"/>
    </g>
   </g>
   <g id="PathCollection_2">
    <defs>
     <path id="m65d2760bc9" d="M 0 2.236068 
C 0.593012 2.236068 1.161816 2.000462 1.581139 1.581139 
C 2.000462 1.161816 2.236068 0.593012 2.236068 0 
C 2.236068 -0.593012 2.000462 -1.161816 1.581139 -1.581139 
C 1.161816 -2.000462 0.593012 -2.236068 0 -2.236068 
C -0.593012 -2.236068 -1.161816 -2.000462 -1.581139 -1.581139 
C -2.000462 -1.161816 -2.236068 -0.593012 -2.236068 0 
C -2.236068 0.593012 -2.000462 1.161816 -1.581139 1.581139 
C -1.161816 2.000462 -0.593012 2.236068 0 2.236068 
z
" style="stroke: #ffffff; stroke-width: 0.357771"/>
    </defs>
    <g clip-path="url(#pf63054ae9f)">
     <use xlink:href="#m65d2760bc9" x="427.276638" y="174.671202" style="fill: #ce8147; stroke: #ffffff; stroke-width: 0.357771"/>
     <use xlink:href="#m65d2760bc9" x="431.501475" y="171.440398" style="fill: #ce8147; stroke: #ffffff; stroke-width: 0.357771"/>
     <use xlink:href="#m65d2760bc9" x="435.726312" y="174.404598" style="fill: #ce8147; stroke: #ffffff; stroke-width: 0.357771"/>
     <use xlink:href="#m65d2760bc9" x="439.951149" y="158.570849" style="fill: #ce8147; stroke: #ffffff; stroke-width: 0.357771"/>
     <use xlink:href="#m65d2760bc9" x="444.175987" y="145.399099" style="fill: #ce8147; stroke: #ffffff; stroke-width: 0.357771"/>
     <use xlink:href="#m65d2760bc9" x="448.400824" y="112.885134" style="fill: #ce8147; stroke: #ffffff; stroke-width: 0.357771"/>
     <use xlink:href="#m65d2760bc9" x="452.625661" y="78.353533" style="fill: #ce8147; stroke: #ffffff; stroke-width: 0.357771"/>
     <use xlink:href="#m65d2760bc9" x="456.850498" y="58.944662" style="fill: #ce8147; stroke: #ffffff; stroke-width: 0.357771"/>
     <use xlink:href="#m65d2760bc9" x="457.695465" y="63.535232" style="fill: #ce8147; stroke: #ffffff; stroke-width: 0.357771"/>
     <use xlink:href="#m65d2760bc9" x="458.540433" y="49.030246" style="fill: #ce8147; stroke: #ffffff; stroke-width: 0.357771"/>
     <use xlink:href="#m65d2760bc9" x="459.3854" y="50.856711" style="fill: #ce8147; stroke: #ffffff; stroke-width: 0.357771"/>
     <use xlink:href="#m65d2760bc9" x="460.230367" y="54.322954" style="fill: #ce8147; stroke: #ffffff; stroke-width: 0.357771"/>
     <use xlink:href="#m65d2760bc9" x="461.075335" y="43.868619" style="fill: #ce8147; stroke: #ffffff; stroke-width: 0.357771"/>
     <use xlink:href="#m65d2760bc9" x="461.920302" y="44.168582" style="fill: #ce8147; stroke: #ffffff; stroke-width: 0.357771"/>
     <use xlink:href="#m65d2760bc9" x="462.76527" y="46.706065" style="fill: #ce8147; stroke: #ffffff; stroke-width: 0.357771"/>
     <use xlink:href="#m65d2760bc9" x="463.610237" y="41.100042" style="fill: #ce8147; stroke: #ffffff; stroke-width: 0.357771"/>
     <use xlink:href="#m65d2760bc9" x="464.455204" y="46.728285" style="fill: #ce8147; stroke: #ffffff; stroke-width: 0.357771"/>
     <use xlink:href="#m65d2760bc9" x="465.300172" y="48.316987" style="fill: #ce8147; stroke: #ffffff; stroke-width: 0.357771"/>
     <use xlink:href="#m65d2760bc9" x="466.145139" y="44.699628" style="fill: #ce8147; stroke: #ffffff; stroke-width: 0.357771"/>
     <use xlink:href="#m65d2760bc9" x="466.990107" y="40.848967" style="fill: #ce8147; stroke: #ffffff; stroke-width: 0.357771"/>
     <use xlink:href="#m65d2760bc9" x="467.835074" y="51.307762" style="fill: #ce8147; stroke: #ffffff; stroke-width: 0.357771"/>
     <use xlink:href="#m65d2760bc9" x="468.680041" y="46.399438" style="fill: #ce8147; stroke: #ffffff; stroke-width: 0.357771"/>
     <use xlink:href="#m65d2760bc9" x="469.525009" y="43.72196" style="fill: #ce8147; stroke: #ffffff; stroke-width: 0.357771"/>
     <use xlink:href="#m65d2760bc9" x="473.749846" y="44.115259" style="fill: #ce8147; stroke: #ffffff; stroke-width: 0.357771"/>
     <use xlink:href="#m65d2760bc9" x="477.974683" y="43.719741" style="fill: #ce8147; stroke: #ffffff; stroke-width: 0.357771"/>
     <use xlink:href="#m65d2760bc9" x="482.19952" y="36.276163" style="fill: #ce8147; stroke: #ffffff; stroke-width: 0.357771"/>
     <use xlink:href="#m65d2760bc9" x="486.424357" y="47.432648" style="fill: #ce8147; stroke: #ffffff; stroke-width: 0.357771"/>
     <use xlink:href="#m65d2760bc9" x="490.649194" y="51.44553" style="fill: #ce8147; stroke: #ffffff; stroke-width: 0.357771"/>
     <use xlink:href="#m65d2760bc9" x="317.430875" y="208.460926" style="fill: #ce8147; stroke: #ffffff; stroke-width: 0.357771"/>
     <use xlink:href="#m65d2760bc9" x="318.275842" y="205.252475" style="fill: #ce8147; stroke: #ffffff; stroke-width: 0.357771"/>
     <use xlink:href="#m65d2760bc9" x="319.12081" y="209.151924" style="fill: #ce8147; stroke: #ffffff; stroke-width: 0.357771"/>
     <use xlink:href="#m65d2760bc9" x="319.965777" y="206.383495" style="fill: #ce8147; stroke: #ffffff; stroke-width: 0.357771"/>
     <use xlink:href="#m65d2760bc9" x="320.810745" y="204.554976" style="fill: #ce8147; stroke: #ffffff; stroke-width: 0.357771"/>
     <use xlink:href="#m65d2760bc9" x="321.655712" y="200.064122" style="fill: #ce8147; stroke: #ffffff; stroke-width: 0.357771"/>
     <use xlink:href="#m65d2760bc9" x="322.500679" y="202.597195" style="fill: #ce8147; stroke: #ffffff; stroke-width: 0.357771"/>
     <use xlink:href="#m65d2760bc9" x="323.345647" y="201.310682" style="fill: #ce8147; stroke: #ffffff; stroke-width: 0.357771"/>
     <use xlink:href="#m65d2760bc9" x="324.190614" y="197.199949" style="fill: #ce8147; stroke: #ffffff; stroke-width: 0.357771"/>
     <use xlink:href="#m65d2760bc9" x="325.035582" y="199.186384" style="fill: #ce8147; stroke: #ffffff; stroke-width: 0.357771"/>
     <use xlink:href="#m65d2760bc9" x="325.880549" y="197.291085" style="fill: #ce8147; stroke: #ffffff; stroke-width: 0.357771"/>
     <use xlink:href="#m65d2760bc9" x="326.725516" y="195.409072" style="fill: #ce8147; stroke: #ffffff; stroke-width: 0.357771"/>
     <use xlink:href="#m65d2760bc9" x="327.570484" y="193.778141" style="fill: #ce8147; stroke: #ffffff; stroke-width: 0.357771"/>
     <use xlink:href="#m65d2760bc9" x="328.415451" y="194.216015" style="fill: #ce8147; stroke: #ffffff; stroke-width: 0.357771"/>
     <use xlink:href="#m65d2760bc9" x="329.260419" y="191.858295" style="fill: #ce8147; stroke: #ffffff; stroke-width: 0.357771"/>
     <use xlink:href="#m65d2760bc9" x="330.105386" y="195.773615" style="fill: #ce8147; stroke: #ffffff; stroke-width: 0.357771"/>
     <use xlink:href="#m65d2760bc9" x="330.950354" y="189.645307" style="fill: #ce8147; stroke: #ffffff; stroke-width: 0.357771"/>
     <use xlink:href="#m65d2760bc9" x="331.795321" y="191.496277" style="fill: #ce8147; stroke: #ffffff; stroke-width: 0.357771"/>
     <use xlink:href="#m65d2760bc9" x="332.640288" y="191.476175" style="fill: #ce8147; stroke: #ffffff; stroke-width: 0.357771"/>
     <use xlink:href="#m65d2760bc9" x="333.485256" y="205.503562" style="fill: #ce8147; stroke: #ffffff; stroke-width: 0.357771"/>
     <use xlink:href="#m65d2760bc9" x="334.330223" y="195.093614" style="fill: #ce8147; stroke: #ffffff; stroke-width: 0.357771"/>
     <use xlink:href="#m65d2760bc9" x="335.175191" y="192.527112" style="fill: #ce8147; stroke: #ffffff; stroke-width: 0.357771"/>
     <use xlink:href="#m65d2760bc9" x="336.020158" y="184.305754" style="fill: #ce8147; stroke: #ffffff; stroke-width: 0.357771"/>
     <use xlink:href="#m65d2760bc9" x="336.865125" y="181.930476" style="fill: #ce8147; stroke: #ffffff; stroke-width: 0.357771"/>
     <use xlink:href="#m65d2760bc9" x="337.710093" y="178.944105" style="fill: #ce8147; stroke: #ffffff; stroke-width: 0.357771"/>
     <use xlink:href="#m65d2760bc9" x="338.55506" y="171.35388" style="fill: #ce8147; stroke: #ffffff; stroke-width: 0.357771"/>
     <use xlink:href="#m65d2760bc9" x="339.400028" y="166.049984" style="fill: #ce8147; stroke: #ffffff; stroke-width: 0.357771"/>
     <use xlink:href="#m65d2760bc9" x="340.244995" y="172.264787" style="fill: #ce8147; stroke: #ffffff; stroke-width: 0.357771"/>
     <use xlink:href="#m65d2760bc9" x="341.089962" y="174.546777" style="fill: #ce8147; stroke: #ffffff; stroke-width: 0.357771"/>
     <use xlink:href="#m65d2760bc9" x="341.93493" y="174.020213" style="fill: #ce8147; stroke: #ffffff; stroke-width: 0.357771"/>
     <use xlink:href="#m65d2760bc9" x="342.779897" y="171.836027" style="fill: #ce8147; stroke: #ffffff; stroke-width: 0.357771"/>
     <use xlink:href="#m65d2760bc9" x="343.624865" y="165.581104" style="fill: #ce8147; stroke: #ffffff; stroke-width: 0.357771"/>
     <use xlink:href="#m65d2760bc9" x="344.469832" y="169.876145" style="fill: #ce8147; stroke: #ffffff; stroke-width: 0.357771"/>
     <use xlink:href="#m65d2760bc9" x="345.314799" y="169.838433" style="fill: #ce8147; stroke: #ffffff; stroke-width: 0.357771"/>
     <use xlink:href="#m65d2760bc9" x="346.159767" y="172.080409" style="fill: #ce8147; stroke: #ffffff; stroke-width: 0.357771"/>
     <use xlink:href="#m65d2760bc9" x="347.004734" y="168.476315" style="fill: #ce8147; stroke: #ffffff; stroke-width: 0.357771"/>
     <use xlink:href="#m65d2760bc9" x="347.849702" y="164.092427" style="fill: #ce8147; stroke: #ffffff; stroke-width: 0.357771"/>
     <use xlink:href="#m65d2760bc9" x="348.694669" y="167.205441" style="fill: #ce8147; stroke: #ffffff; stroke-width: 0.357771"/>
     <use xlink:href="#m65d2760bc9" x="349.539637" y="165.55889" style="fill: #ce8147; stroke: #ffffff; stroke-width: 0.357771"/>
     <use xlink:href="#m65d2760bc9" x="350.384604" y="168.525243" style="fill: #ce8147; stroke: #ffffff; stroke-width: 0.357771"/>
     <use xlink:href="#m65d2760bc9" x="351.229571" y="164.183549" style="fill: #ce8147; stroke: #ffffff; stroke-width: 0.357771"/>
     <use xlink:href="#m65d2760bc9" x="351.229571" y="166.754309" style="fill: #ce8147; stroke: #ffffff; stroke-width: 0.357771"/>
     <use xlink:href="#m65d2760bc9" x="355.454408" y="162.043742" style="fill: #ce8147; stroke: #ffffff; stroke-width: 0.357771"/>
     <use xlink:href="#m65d2760bc9" x="359.679245" y="154.780164" style="fill: #ce8147; stroke: #ffffff; stroke-width: 0.357771"/>
     <use xlink:href="#m65d2760bc9" x="363.904083" y="150.107415" style="fill: #ce8147; stroke: #ffffff; stroke-width: 0.357771"/>
     <use xlink:href="#m65d2760bc9" x="368.12892" y="148.225421" style="fill: #ce8147; stroke: #ffffff; stroke-width: 0.357771"/>
     <use xlink:href="#m65d2760bc9" x="372.353757" y="148.77869" style="fill: #ce8147; stroke: #ffffff; stroke-width: 0.357771"/>
     <use xlink:href="#m65d2760bc9" x="376.578594" y="147.716592" style="fill: #ce8147; stroke: #ffffff; stroke-width: 0.357771"/>
     <use xlink:href="#m65d2760bc9" x="380.803431" y="149.185297" style="fill: #ce8147; stroke: #ffffff; stroke-width: 0.357771"/>
     <use xlink:href="#m65d2760bc9" x="385.028268" y="143.110488" style="fill: #ce8147; stroke: #ffffff; stroke-width: 0.357771"/>
     <use xlink:href="#m65d2760bc9" x="389.253105" y="145.967913" style="fill: #ce8147; stroke: #ffffff; stroke-width: 0.357771"/>
     <use xlink:href="#m65d2760bc9" x="393.477942" y="147.11666" style="fill: #ce8147; stroke: #ffffff; stroke-width: 0.357771"/>
     <use xlink:href="#m65d2760bc9" x="397.702779" y="151.256157" style="fill: #ce8147; stroke: #ffffff; stroke-width: 0.357771"/>
     <use xlink:href="#m65d2760bc9" x="401.927616" y="155.773404" style="fill: #ce8147; stroke: #ffffff; stroke-width: 0.357771"/>
     <use xlink:href="#m65d2760bc9" x="406.152453" y="152.900415" style="fill: #ce8147; stroke: #ffffff; stroke-width: 0.357771"/>
     <use xlink:href="#m65d2760bc9" x="410.37729" y="158.635275" style="fill: #ce8147; stroke: #ffffff; stroke-width: 0.357771"/>
     <use xlink:href="#m65d2760bc9" x="414.602127" y="155.697832" style="fill: #ce8147; stroke: #ffffff; stroke-width: 0.357771"/>
     <use xlink:href="#m65d2760bc9" x="418.826964" y="168.27635" style="fill: #ce8147; stroke: #ffffff; stroke-width: 0.357771"/>
     <use xlink:href="#m65d2760bc9" x="423.051801" y="169.927267" style="fill: #ce8147; stroke: #ffffff; stroke-width: 0.357771"/>
     <use xlink:href="#m65d2760bc9" x="427.276638" y="172.460353" style="fill: #ce8147; stroke: #ffffff; stroke-width: 0.357771"/>
    </g>
   </g>
  </g>
 </g>
 <defs>
  <clipPath id="p407a1d0952">
   <rect x="33.7" y="22.2" width="240.815712" height="196.29952"/>
  </clipPath>
  <clipPath id="pf63054ae9f">
   <rect x="321.655712" y="22.2" width="160.543808" height="196.29952"/>
  </clipPath>
 </defs>
</svg>
