<?xml version="1.0" encoding="utf-8" standalone="no"?>
<!DOCTYPE svg PUBLIC "-//W3C//DTD SVG 1.1//EN"
  "http://www.w3.org/Graphics/SVG/1.1/DTD/svg11.dtd">
<svg xmlns:xlink="http://www.w3.org/1999/xlink" width="253.19952pt" height="253.19952pt" viewBox="0 0 253.19952 253.19952" xmlns="http://www.w3.org/2000/svg" version="1.1">
 <metadata>
  <rdf:RDF xmlns:dc="http://purl.org/dc/elements/1.1/" xmlns:cc="http://creativecommons.org/ns#" xmlns:rdf="http://www.w3.org/1999/02/22-rdf-syntax-ns#">
   <cc:Work>
    <dc:type rdf:resource="http://purl.org/dc/dcmitype/StillImage"/>
    <dc:date>2024-07-06T12:09:16.017348</dc:date>
    <dc:format>image/svg+xml</dc:format>
    <dc:creator>
     <cc:Agent>
      <dc:title>Matplotlib v3.9.0, https://matplotlib.org/</dc:title>
     </cc:Agent>
    </dc:creator>
   </cc:Work>
  </rdf:RDF>
 </metadata>
 <defs>
  <style type="text/css">*{stroke-linejoin: round; stroke-linecap: butt}</style>
 </defs>
 <g id="figure_1">
  <g id="patch_1">
   <path d="M 0 253.19952 
L 253.19952 253.19952 
L 253.19952 0 
L 0 0 
z
" style="fill: #ffffff"/>
  </g>
  <g id="axes_1">
   <g id="patch_2">
    <path d="M 47.8 101.39952 
L 245.99952 101.39952 
L 245.99952 17.8 
L 47.8 17.8 
z
" style="fill: #ffffff"/>
   </g>
   <g id="PolyCollection_1"/>
   <g id="PolyCollection_2"/>
   <g id="matplotlib.axis_1">
    <g id="xtick_1">
     <g id="line2d_1">
      <defs>
       <path id="m65834ebb45" d="M 0 0 
L 0 -4 
" style="stroke: #000000; stroke-width: 0.6"/>
      </defs>
      <g>
       <use xlink:href="#m65834ebb45" x="63.177226" y="101.39952" style="stroke: #000000; stroke-width: 0.6"/>
      </g>
     </g>
     <g id="line2d_2">
      <defs>
       <path id="m85fa96b686" d="M 0 0 
L 0 4 
" style="stroke: #000000; stroke-width: 0.6"/>
      </defs>
      <g>
       <use xlink:href="#m85fa96b686" x="63.177226" y="17.8" style="stroke: #000000; stroke-width: 0.6"/>
      </g>
     </g>
     <g id="text_1">
      <!-- $\mathdefault{0}$ -->
      <g transform="translate(60.277226 112.49952) scale(0.1 -0.1)">
       <defs>
        <path id="NotoSans-Regular-30" d="M 3347 2291 
Q 3347 1734 3264 1299 
Q 3181 864 2998 560 
Q 2816 256 2525 96 
Q 2234 -64 1824 -64 
Q 1312 -64 976 217 
Q 640 499 477 1027 
Q 314 1555 314 2291 
Q 314 3034 464 3558 
Q 614 4083 947 4361 
Q 1280 4640 1824 4640 
Q 2336 4640 2675 4361 
Q 3014 4083 3180 3558 
Q 3347 3034 3347 2291 
z
M 877 2291 
Q 877 1664 969 1248 
Q 1062 832 1270 624 
Q 1478 416 1824 416 
Q 2170 416 2378 621 
Q 2586 826 2682 1245 
Q 2778 1664 2778 2291 
Q 2778 2918 2682 3331 
Q 2586 3744 2378 3952 
Q 2170 4160 1824 4160 
Q 1478 4160 1270 3952 
Q 1062 3744 969 3331 
Q 877 2918 877 2291 
z
" transform="scale(0.015625)"/>
       </defs>
       <use xlink:href="#NotoSans-Regular-30" transform="translate(0 0.5)"/>
      </g>
     </g>
    </g>
    <g id="xtick_2">
     <g id="line2d_3">
      <g>
       <use xlink:href="#m65834ebb45" x="119.338765" y="101.39952" style="stroke: #000000; stroke-width: 0.6"/>
      </g>
     </g>
     <g id="line2d_4">
      <g>
       <use xlink:href="#m85fa96b686" x="119.338765" y="17.8" style="stroke: #000000; stroke-width: 0.6"/>
      </g>
     </g>
     <g id="text_2">
      <!-- $\mathdefault{20}$ -->
      <g transform="translate(113.588765 112.49952) scale(0.1 -0.1)">
       <defs>
        <path id="NotoSans-Regular-32" d="M 3328 0 
L 307 0 
L 307 467 
L 1504 1677 
Q 1850 2022 2086 2291 
Q 2323 2560 2444 2819 
Q 2566 3078 2566 3386 
Q 2566 3763 2342 3958 
Q 2118 4154 1760 4154 
Q 1427 4154 1174 4038 
Q 922 3923 659 3718 
L 358 4096 
Q 538 4250 752 4371 
Q 966 4493 1219 4563 
Q 1472 4634 1760 4634 
Q 2189 4634 2496 4486 
Q 2803 4339 2972 4067 
Q 3142 3795 3142 3418 
Q 3142 3059 2995 2745 
Q 2848 2432 2585 2128 
Q 2323 1824 1971 1478 
L 1018 538 
L 1018 512 
L 3328 512 
L 3328 0 
z
" transform="scale(0.015625)"/>
       </defs>
       <use xlink:href="#NotoSans-Regular-32" transform="translate(0 0.5)"/>
       <use xlink:href="#NotoSans-Regular-30" transform="translate(57.199997 0.5)"/>
      </g>
     </g>
    </g>
    <g id="xtick_3">
     <g id="line2d_5">
      <g>
       <use xlink:href="#m65834ebb45" x="175.500305" y="101.39952" style="stroke: #000000; stroke-width: 0.6"/>
      </g>
     </g>
     <g id="line2d_6">
      <g>
       <use xlink:href="#m85fa96b686" x="175.500305" y="17.8" style="stroke: #000000; stroke-width: 0.6"/>
      </g>
     </g>
     <g id="text_3">
      <!-- $\mathdefault{40}$ -->
      <g transform="translate(169.750305 112.49952) scale(0.1 -0.1)">
       <defs>
        <path id="NotoSans-Regular-34" d="M 3533 1037 
L 2867 1037 
L 2867 0 
L 2323 0 
L 2323 1037 
L 134 1037 
L 134 1517 
L 2285 4595 
L 2867 4595 
L 2867 1542 
L 3533 1542 
L 3533 1037 
z
M 2323 2982 
Q 2323 3149 2326 3286 
Q 2330 3424 2336 3545 
Q 2342 3667 2345 3779 
Q 2349 3891 2355 3994 
L 2330 3994 
Q 2278 3872 2201 3731 
Q 2125 3590 2054 3494 
L 685 1542 
L 2323 1542 
L 2323 2982 
z
" transform="scale(0.015625)"/>
       </defs>
       <use xlink:href="#NotoSans-Regular-34" transform="translate(0 0.5)"/>
       <use xlink:href="#NotoSans-Regular-30" transform="translate(57.199997 0.5)"/>
      </g>
     </g>
    </g>
    <g id="xtick_4">
     <g id="line2d_7">
      <g>
       <use xlink:href="#m65834ebb45" x="231.661844" y="101.39952" style="stroke: #000000; stroke-width: 0.6"/>
      </g>
     </g>
     <g id="line2d_8">
      <g>
       <use xlink:href="#m85fa96b686" x="231.661844" y="17.8" style="stroke: #000000; stroke-width: 0.6"/>
      </g>
     </g>
     <g id="text_4">
      <!-- $\mathdefault{60}$ -->
      <g transform="translate(225.911844 112.49952) scale(0.1 -0.1)">
       <defs>
        <path id="NotoSans-Regular-36" d="M 352 1952 
Q 352 2349 406 2733 
Q 461 3117 595 3459 
Q 730 3802 966 4067 
Q 1203 4333 1564 4483 
Q 1926 4634 2445 4634 
Q 2579 4634 2742 4621 
Q 2906 4608 3008 4576 
L 3008 4096 
Q 2893 4134 2749 4153 
Q 2605 4173 2458 4173 
Q 2016 4173 1721 4025 
Q 1427 3878 1257 3622 
Q 1088 3366 1011 3033 
Q 934 2701 915 2323 
L 954 2323 
Q 1050 2477 1197 2598 
Q 1344 2720 1552 2790 
Q 1760 2861 2035 2861 
Q 2432 2861 2729 2697 
Q 3027 2534 3193 2224 
Q 3360 1914 3360 1472 
Q 3360 998 3181 652 
Q 3002 307 2678 121 
Q 2355 -64 1907 -64 
Q 1581 -64 1299 57 
Q 1018 179 803 428 
Q 589 678 470 1059 
Q 352 1440 352 1952 
z
M 1901 410 
Q 2304 410 2553 669 
Q 2803 928 2803 1472 
Q 2803 1907 2582 2163 
Q 2362 2419 1920 2419 
Q 1619 2419 1395 2294 
Q 1171 2170 1046 1978 
Q 922 1786 922 1581 
Q 922 1370 982 1165 
Q 1043 960 1168 787 
Q 1293 614 1475 512 
Q 1658 410 1901 410 
z
" transform="scale(0.015625)"/>
       </defs>
       <use xlink:href="#NotoSans-Regular-36" transform="translate(0 0.5)"/>
       <use xlink:href="#NotoSans-Regular-30" transform="translate(57.199997 0.5)"/>
      </g>
     </g>
    </g>
    <g id="text_5">
     <!-- time -->
     <g transform="translate(136.309916 126.49952) scale(0.1 -0.1)">
      <defs>
       <path id="NotoSans-Regular-74" d="M 1690 397 
Q 1818 397 1952 419 
Q 2086 442 2170 467 
L 2170 38 
Q 2080 -6 1913 -35 
Q 1747 -64 1594 -64 
Q 1325 -64 1097 29 
Q 870 122 729 352 
Q 589 582 589 998 
L 589 2995 
L 102 2995 
L 102 3264 
L 595 3488 
L 819 4218 
L 1152 4218 
L 1152 3430 
L 2144 3430 
L 2144 2995 
L 1152 2995 
L 1152 1011 
Q 1152 698 1302 547 
Q 1453 397 1690 397 
z
" transform="scale(0.015625)"/>
       <path id="NotoSans-Regular-69" d="M 1107 3430 
L 1107 0 
L 544 0 
L 544 3430 
L 1107 3430 
z
M 832 4717 
Q 960 4717 1059 4630 
Q 1158 4544 1158 4358 
Q 1158 4179 1059 4089 
Q 960 4000 832 4000 
Q 691 4000 595 4089 
Q 499 4179 499 4358 
Q 499 4544 595 4630 
Q 691 4717 832 4717 
z
" transform="scale(0.015625)"/>
       <path id="NotoSans-Regular-6d" d="M 4307 3494 
Q 4890 3494 5178 3196 
Q 5466 2899 5466 2234 
L 5466 0 
L 4909 0 
L 4909 2208 
Q 4909 2611 4739 2816 
Q 4570 3021 4211 3021 
Q 3712 3021 3497 2733 
Q 3283 2445 3283 1894 
L 3283 0 
L 2726 0 
L 2726 2208 
Q 2726 2477 2649 2659 
Q 2573 2842 2419 2931 
Q 2266 3021 2022 3021 
Q 1677 3021 1478 2877 
Q 1280 2733 1193 2457 
Q 1107 2182 1107 1779 
L 1107 0 
L 544 0 
L 544 3430 
L 998 3430 
L 1082 2963 
L 1114 2963 
Q 1222 3142 1379 3260 
Q 1536 3379 1728 3436 
Q 1920 3494 2125 3494 
Q 2522 3494 2787 3353 
Q 3053 3213 3174 2918 
L 3206 2918 
Q 3379 3213 3676 3353 
Q 3974 3494 4307 3494 
z
" transform="scale(0.015625)"/>
       <path id="NotoSans-Regular-65" d="M 1869 3494 
Q 2310 3494 2627 3302 
Q 2944 3110 3113 2761 
Q 3283 2413 3283 1946 
L 3283 1606 
L 934 1606 
Q 947 1024 1232 720 
Q 1517 416 2029 416 
Q 2355 416 2608 477 
Q 2861 538 3130 653 
L 3130 160 
Q 2867 45 2611 -9 
Q 2355 -64 2003 -64 
Q 1517 -64 1142 134 
Q 768 333 560 726 
Q 352 1120 352 1690 
Q 352 2253 541 2656 
Q 730 3059 1072 3276 
Q 1414 3494 1869 3494 
z
M 1862 3034 
Q 1459 3034 1225 2774 
Q 992 2515 947 2054 
L 2694 2054 
Q 2694 2349 2604 2566 
Q 2515 2784 2332 2909 
Q 2150 3034 1862 3034 
z
" transform="scale(0.015625)"/>
      </defs>
      <use xlink:href="#NotoSans-Regular-74"/>
      <use xlink:href="#NotoSans-Regular-69" x="36.099991"/>
      <use xlink:href="#NotoSans-Regular-6d" x="61.899979"/>
      <use xlink:href="#NotoSans-Regular-65" x="155.399963"/>
     </g>
    </g>
   </g>
   <g id="matplotlib.axis_2">
    <g id="ytick_1">
     <g id="line2d_9">
      <defs>
       <path id="m940b9b7350" d="M 0 0 
L 4 0 
" style="stroke: #000000; stroke-width: 0.6"/>
      </defs>
      <g>
       <use xlink:href="#m940b9b7350" x="47.8" y="64.226557" style="stroke: #000000; stroke-width: 0.6"/>
      </g>
     </g>
     <g id="line2d_10">
      <defs>
       <path id="m69e9686811" d="M 0 0 
L -4 0 
" style="stroke: #000000; stroke-width: 0.6"/>
      </defs>
      <g>
       <use xlink:href="#m69e9686811" x="245.99952" y="64.226557" style="stroke: #000000; stroke-width: 0.6"/>
      </g>
     </g>
     <g id="text_6">
      <!-- $\mathdefault{−5}$ -->
      <g transform="translate(35.3 68.026557) scale(0.1 -0.1)">
       <defs>
        <path id="NotoSans-Regular-2212" d="M 256 1466 
L 256 1965 
L 1805 1965 
L 1805 1466 
L 256 1466 
z
" transform="scale(0.015625)"/>
        <path id="NotoSans-Regular-35" d="M 1760 2803 
Q 2227 2803 2572 2643 
Q 2918 2483 3107 2185 
Q 3296 1888 3296 1459 
Q 3296 986 3091 643 
Q 2886 301 2505 118 
Q 2125 -64 1587 -64 
Q 1235 -64 924 0 
Q 614 64 403 186 
L 403 717 
Q 634 576 963 496 
Q 1293 416 1594 416 
Q 1933 416 2185 521 
Q 2438 627 2579 848 
Q 2720 1069 2720 1402 
Q 2720 1850 2445 2090 
Q 2170 2330 1574 2330 
Q 1395 2330 1164 2298 
Q 934 2266 794 2234 
L 512 2413 
L 685 4570 
L 2976 4570 
L 2976 4058 
L 1165 4058 
L 1056 2733 
Q 1165 2752 1350 2777 
Q 1536 2803 1760 2803 
z
" transform="scale(0.015625)"/>
       </defs>
       <use xlink:href="#NotoSans-Regular-2212" transform="translate(0 0.59375)"/>
       <use xlink:href="#NotoSans-Regular-35" transform="translate(32.199997 0.59375)"/>
      </g>
     </g>
    </g>
    <g id="ytick_2">
     <g id="line2d_11">
      <g>
       <use xlink:href="#m940b9b7350" x="47.8" y="25.55786" style="stroke: #000000; stroke-width: 0.6"/>
      </g>
     </g>
     <g id="line2d_12">
      <g>
       <use xlink:href="#m69e9686811" x="245.99952" y="25.55786" style="stroke: #000000; stroke-width: 0.6"/>
      </g>
     </g>
     <g id="text_7">
      <!-- $\mathdefault{0}$ -->
      <g transform="translate(38.5 29.35786) scale(0.1 -0.1)">
       <use xlink:href="#NotoSans-Regular-30" transform="translate(0 0.5)"/>
      </g>
     </g>
    </g>
    <g id="text_8">
     <!-- signal -->
     <g transform="translate(28.9 73.544291) rotate(-90) scale(0.1 -0.1)">
      <defs>
       <path id="NotoSans-Regular-73" d="M 2778 947 
Q 2778 614 2611 390 
Q 2445 166 2137 51 
Q 1830 -64 1408 -64 
Q 1050 -64 790 -6 
Q 531 51 333 154 
L 333 666 
Q 538 563 829 476 
Q 1120 390 1421 390 
Q 1850 390 2042 528 
Q 2234 666 2234 896 
Q 2234 1024 2163 1126 
Q 2093 1229 1910 1331 
Q 1728 1434 1389 1562 
Q 1056 1690 819 1818 
Q 582 1946 454 2125 
Q 326 2304 326 2586 
Q 326 3021 681 3257 
Q 1037 3494 1613 3494 
Q 1926 3494 2198 3433 
Q 2470 3373 2707 3264 
L 2515 2816 
Q 2298 2906 2061 2970 
Q 1824 3034 1574 3034 
Q 1229 3034 1046 2922 
Q 864 2810 864 2618 
Q 864 2477 947 2377 
Q 1030 2278 1225 2185 
Q 1421 2093 1747 1965 
Q 2074 1843 2304 1715 
Q 2534 1587 2656 1404 
Q 2778 1222 2778 947 
z
" transform="scale(0.015625)"/>
       <path id="NotoSans-Regular-67" d="M 1760 3494 
Q 2099 3494 2371 3366 
Q 2643 3238 2835 2976 
L 2867 2976 
L 2944 3430 
L 3392 3430 
L 3392 -58 
Q 3392 -544 3225 -873 
Q 3059 -1203 2720 -1369 
Q 2381 -1536 1856 -1536 
Q 1485 -1536 1174 -1481 
Q 864 -1427 621 -1318 
L 621 -800 
Q 864 -928 1190 -998 
Q 1517 -1069 1888 -1069 
Q 2330 -1069 2582 -809 
Q 2835 -550 2835 -102 
L 2835 32 
Q 2835 109 2841 253 
Q 2848 397 2854 454 
L 2829 454 
Q 2650 192 2384 64 
Q 2118 -64 1766 -64 
Q 1101 -64 726 403 
Q 352 870 352 1709 
Q 352 2528 726 3011 
Q 1101 3494 1760 3494 
z
M 1837 3021 
Q 1549 3021 1347 2867 
Q 1146 2714 1040 2419 
Q 934 2125 934 1702 
Q 934 1069 1168 733 
Q 1402 397 1850 397 
Q 2112 397 2297 464 
Q 2483 531 2604 675 
Q 2726 819 2784 1043 
Q 2842 1267 2842 1574 
L 2842 1709 
Q 2842 2176 2736 2464 
Q 2630 2752 2406 2886 
Q 2182 3021 1837 3021 
z
" transform="scale(0.015625)"/>
       <path id="NotoSans-Regular-6e" d="M 2195 3494 
Q 2810 3494 3123 3196 
Q 3437 2899 3437 2234 
L 3437 0 
L 2880 0 
L 2880 2195 
Q 2880 2611 2694 2816 
Q 2509 3021 2112 3021 
Q 1542 3021 1324 2701 
Q 1107 2381 1107 1779 
L 1107 0 
L 544 0 
L 544 3430 
L 998 3430 
L 1082 2963 
L 1114 2963 
Q 1229 3142 1398 3260 
Q 1568 3379 1773 3436 
Q 1978 3494 2195 3494 
z
" transform="scale(0.015625)"/>
       <path id="NotoSans-Regular-61" d="M 1843 3488 
Q 2470 3488 2771 3213 
Q 3072 2938 3072 2336 
L 3072 0 
L 2662 0 
L 2554 486 
L 2528 486 
Q 2381 301 2224 176 
Q 2067 51 1865 -6 
Q 1664 -64 1376 -64 
Q 1069 -64 822 45 
Q 576 154 435 381 
Q 294 608 294 954 
Q 294 1466 697 1744 
Q 1101 2022 1939 2048 
L 2522 2067 
L 2522 2272 
Q 2522 2701 2336 2867 
Q 2150 3034 1811 3034 
Q 1542 3034 1299 2954 
Q 1056 2874 845 2771 
L 672 3194 
Q 896 3315 1203 3401 
Q 1510 3488 1843 3488 
z
M 2010 1658 
Q 1370 1632 1123 1453 
Q 877 1274 877 947 
Q 877 659 1053 524 
Q 1229 390 1504 390 
Q 1939 390 2227 630 
Q 2515 870 2515 1370 
L 2515 1677 
L 2010 1658 
z
" transform="scale(0.015625)"/>
       <path id="NotoSans-Regular-6c" d="M 1107 0 
L 544 0 
L 544 4864 
L 1107 4864 
L 1107 0 
z
" transform="scale(0.015625)"/>
      </defs>
      <use xlink:href="#NotoSans-Regular-73"/>
      <use xlink:href="#NotoSans-Regular-69" x="47.899994"/>
      <use xlink:href="#NotoSans-Regular-67" x="73.699982"/>
      <use xlink:href="#NotoSans-Regular-6e" x="135.199966"/>
      <use xlink:href="#NotoSans-Regular-61" x="196.999954"/>
      <use xlink:href="#NotoSans-Regular-6c" x="253.099945"/>
     </g>
    </g>
    <g id="text_9">
     <!-- $\times\mathdefault{10^{−4}}\mathdefault{}$ -->
     <g transform="translate(47.8 14.8) scale(0.1 -0.1)">
      <defs>
       <path id="NotoSans-Regular-d7" d="M 2918 3674 
L 3238 3347 
L 2150 2259 
L 3232 1171 
L 2912 845 
L 1818 1926 
L 749 845 
L 416 1171 
L 1498 2259 
L 410 3341 
L 742 3674 
L 1824 2579 
L 2918 3674 
z
" transform="scale(0.015625)"/>
       <path id="NotoSans-Regular-31" d="M 2272 0 
L 1722 0 
L 1722 3194 
Q 1722 3379 1725 3507 
Q 1728 3635 1734 3747 
Q 1741 3859 1747 3981 
Q 1645 3878 1561 3808 
Q 1478 3738 1350 3629 
L 864 3232 
L 570 3610 
L 1805 4570 
L 2272 4570 
L 2272 0 
z
" transform="scale(0.015625)"/>
      </defs>
      <use xlink:href="#NotoSans-Regular-d7" transform="translate(0 0.226562)"/>
      <use xlink:href="#NotoSans-Regular-31" transform="translate(57.199997 0.226562)"/>
      <use xlink:href="#NotoSans-Regular-30" transform="translate(114.399994 0.226562)"/>
      <use xlink:href="#NotoSans-Regular-2212" transform="translate(172.537881 37.742188) scale(0.7)"/>
      <use xlink:href="#NotoSans-Regular-34" transform="translate(195.077879 37.742188) scale(0.7)"/>
     </g>
    </g>
   </g>
   <g id="line2d_13">
    <path d="M 56.809069 25.552881 
L 56.996368 21.873238 
L 57.183667 26.32141 
L 57.370965 24.651411 
L 57.558264 24.922273 
L 57.745563 24.409125 
L 57.932861 22.666102 
L 58.12016 25.967199 
L 58.307459 23.513739 
L 58.494758 25.310225 
L 58.682056 25.327744 
L 58.869355 25.796643 
L 59.056654 24.938133 
L 59.243953 24.895906 
L 59.431251 26.353122 
L 59.61855 21.599978 
L 59.805849 27.865839 
L 60.180446 25.517295 
L 60.367745 29.24027 
L 60.555044 27.586862 
L 60.929641 26.262958 
L 61.11694 28.567809 
L 61.491537 25.54274 
L 61.678836 26.741445 
L 61.866135 25.65282 
L 62.053434 25.254174 
L 62.428031 30.426068 
L 62.61533 30.50129 
L 62.802629 35.315844 
L 62.989927 36.940488 
L 63.177226 37.090026 
L 63.364525 40.871812 
L 63.926421 62.778556 
L 64.11372 60.966761 
L 64.301018 55.83819 
L 64.488317 61.495777 
L 64.862915 90.080776 
L 65.050213 91.139178 
L 65.237512 78.322438 
L 65.424811 80.840235 
L 65.61211 84.902833 
L 65.799408 97.599542 
L 65.986707 96.330216 
L 66.361305 87.386706 
L 66.548603 89.580183 
L 66.735902 86.189108 
L 66.923201 85.237305 
L 67.297798 88.934821 
L 67.485097 87.565745 
L 67.672396 84.352423 
L 67.859694 85.82974 
L 68.046993 84.451449 
L 68.234292 86.530593 
L 68.421591 86.278718 
L 69.170786 82.126513 
L 69.358084 82.923259 
L 69.545383 82.907386 
L 69.732682 81.309131 
L 69.91998 81.322409 
L 70.107279 82.441085 
L 70.481877 79.57295 
L 70.669175 78.868957 
L 70.856474 83.544275 
L 71.043773 83.16757 
L 71.231072 81.572988 
L 71.41837 78.680331 
L 71.605669 79.268881 
L 71.792968 80.311968 
L 71.980267 77.851516 
L 72.167565 80.603854 
L 72.354864 75.986444 
L 72.542163 77.693862 
L 72.729461 75.085899 
L 72.91676 75.282086 
L 73.104059 74.7234 
L 73.291358 76.883845 
L 73.478656 76.305987 
L 73.665955 74.347977 
L 73.853254 78.034239 
L 74.227851 71.615177 
L 74.41515 73.48487 
L 74.602449 73.622605 
L 74.789748 75.967444 
L 75.164345 71.661823 
L 75.351644 73.611168 
L 75.538942 73.677728 
L 75.726241 74.105886 
L 75.91354 74.036004 
L 76.100839 70.514582 
L 76.288137 74.51484 
L 76.662735 69.204681 
L 76.850034 72.664339 
L 77.037332 72.449347 
L 77.224631 69.96638 
L 77.41193 72.171106 
L 77.599229 68.393929 
L 77.786527 71.359607 
L 78.161125 68.905052 
L 78.348423 73.307665 
L 78.535722 68.498659 
L 78.723021 70.42552 
L 78.91032 68.103895 
L 79.097618 70.990096 
L 79.284917 70.642715 
L 79.472216 69.727779 
L 79.659515 70.140974 
L 79.846813 70.267294 
L 80.221411 67.582625 
L 80.40871 67.575244 
L 80.596008 67.119427 
L 80.783307 69.111385 
L 80.970606 67.149307 
L 81.157904 69.789742 
L 81.345203 68.067197 
L 81.532502 69.171686 
L 81.719801 66.52718 
L 81.907099 66.846544 
L 82.094398 66.260373 
L 82.281697 64.634623 
L 82.468996 69.153045 
L 82.656294 65.350019 
L 82.843593 67.046396 
L 83.030892 66.453428 
L 83.218191 64.269331 
L 83.405489 65.605978 
L 83.592788 64.803147 
L 83.780087 66.862766 
L 83.967385 65.365542 
L 84.154684 68.535533 
L 84.341983 67.704141 
L 84.529282 64.201459 
L 84.71658 65.714581 
L 84.903879 65.102406 
L 85.091178 63.005904 
L 85.278477 63.245974 
L 85.465775 64.835422 
L 85.653074 62.936968 
L 85.840373 64.763319 
L 86.027672 63.714874 
L 86.21497 64.470145 
L 86.402269 63.692756 
L 86.589568 61.485447 
L 86.776866 65.953182 
L 86.964165 63.6522 
L 87.151464 63.759328 
L 87.338763 64.91894 
L 87.526061 61.805163 
L 87.71336 64.287966 
L 87.900659 63.222356 
L 88.087958 65.009292 
L 88.275256 62.238296 
L 88.462555 65.686006 
L 88.649854 62.148139 
L 89.024451 65.844409 
L 89.399049 63.090006 
L 89.586347 64.42184 
L 89.960945 62.529252 
L 90.148244 63.103636 
L 90.335542 62.029578 
L 90.522841 64.397677 
L 90.897439 60.042393 
L 91.084737 63.103643 
L 91.272036 61.845168 
L 91.459335 64.931107 
L 91.646634 65.546053 
L 92.021231 63.175913 
L 92.20853 64.239472 
L 92.395828 64.650455 
L 92.583127 61.608435 
L 92.770426 60.575489 
L 92.957725 62.379731 
L 93.145023 61.993235 
L 93.332322 62.481507 
L 93.70692 61.523064 
L 93.894218 62.70241 
L 94.268816 58.845733 
L 94.643413 64.144687 
L 94.830712 61.169768 
L 95.205309 59.99983 
L 95.392608 62.541607 
L 95.579907 61.13695 
L 95.767206 63.888756 
L 95.954504 61.348242 
L 96.141803 62.750882 
L 96.329102 59.792006 
L 96.516401 62.819279 
L 96.890998 59.151071 
L 97.452894 63.037807 
L 97.640193 59.555254 
L 97.827492 60.990179 
L 98.014791 63.369878 
L 98.202089 63.948492 
L 98.576687 58.861402 
L 98.763985 59.327737 
L 98.951284 62.038233 
L 99.138583 61.819004 
L 99.325882 62.263196 
L 99.51318 63.216843 
L 99.700479 60.053839 
L 99.887778 59.521161 
L 100.075077 61.344013 
L 100.262375 60.860363 
L 100.449674 60.968769 
L 100.636973 59.695758 
L 100.824272 61.968543 
L 101.01157 61.18579 
L 101.198869 61.086414 
L 101.386168 58.624273 
L 101.573466 62.272782 
L 101.948064 59.074012 
L 102.135363 60.107125 
L 102.322661 61.826914 
L 102.697259 59.050767 
L 102.884558 62.026444 
L 103.071856 57.761544 
L 103.259155 60.647574 
L 103.446454 57.068226 
L 103.821051 60.303862 
L 104.00835 58.643991 
L 104.195649 59.062182 
L 104.382947 63.298715 
L 104.570246 57.281563 
L 104.757545 60.240253 
L 104.944844 58.356185 
L 105.132142 58.033681 
L 105.50674 61.295333 
L 105.694039 60.036513 
L 105.881337 60.572523 
L 106.068636 62.121761 
L 106.255935 59.809914 
L 106.443234 59.029388 
L 106.630532 59.893627 
L 106.817831 58.707454 
L 107.00513 56.490352 
L 107.192428 60.684458 
L 107.379727 57.285804 
L 107.567026 58.026124 
L 107.754325 54.860748 
L 107.941623 60.025627 
L 108.128922 61.402288 
L 108.316221 57.705291 
L 108.50352 57.354405 
L 108.690818 56.039169 
L 108.878117 60.740874 
L 109.065416 59.343777 
L 109.440013 61.865459 
L 109.627312 56.814139 
L 109.814611 58.53725 
L 110.001909 61.429208 
L 110.189208 58.083088 
L 110.376507 61.764973 
L 110.563806 61.335342 
L 110.751104 62.181697 
L 110.938403 59.848629 
L 111.313001 62.922574 
L 111.500299 61.478407 
L 112.062196 74.517612 
L 112.249494 73.268768 
L 112.436793 67.604373 
L 112.624092 66.373396 
L 112.81139 66.347946 
L 112.998689 72.726283 
L 113.185988 73.975514 
L 113.373287 80.922478 
L 113.560585 74.36918 
L 113.747884 74.392598 
L 113.935183 71.345959 
L 114.497079 84.111254 
L 114.871677 75.830457 
L 115.058975 75.081652 
L 115.246274 71.353724 
L 115.433573 76.276663 
L 115.620871 75.107838 
L 116.182768 76.819869 
L 116.370066 74.945569 
L 116.557365 76.701307 
L 116.931963 72.941108 
L 117.119261 76.667195 
L 117.30656 72.591326 
L 117.493859 72.715781 
L 117.868456 73.200169 
L 118.055755 73.438034 
L 118.243054 74.552463 
L 118.430352 76.346552 
L 118.80495 71.255446 
L 118.992249 74.02604 
L 119.366846 67.615076 
L 119.554145 70.764963 
L 119.741444 71.556357 
L 119.928742 69.321953 
L 120.116041 73.949699 
L 120.30334 74.571272 
L 120.490639 71.40571 
L 120.865236 76.775424 
L 121.052535 73.687318 
L 121.239833 74.348911 
L 121.427132 72.213134 
L 121.80173 74.378033 
L 121.989028 80.197839 
L 122.176327 80.870474 
L 122.363626 77.27585 
L 122.550925 76.432644 
L 122.738223 77.002051 
L 122.925522 78.80387 
L 123.112821 82.312751 
L 123.30012 79.885294 
L 123.487418 83.757042 
L 123.674717 77.7831 
L 123.862016 78.496865 
L 124.049314 80.58504 
L 124.236613 75.504449 
L 124.423912 80.854245 
L 124.611211 79.121934 
L 124.798509 80.146756 
L 124.985808 78.680699 
L 125.173107 80.576746 
L 125.547704 74.838998 
L 125.735003 78.594406 
L 125.922302 74.532915 
L 126.109601 76.921465 
L 126.484198 75.39068 
L 126.671497 75.081655 
L 126.858795 75.096767 
L 127.046094 77.997727 
L 127.233393 77.208928 
L 127.420692 79.116777 
L 127.60799 74.527573 
L 127.795289 75.887242 
L 127.982588 76.329024 
L 128.169887 74.873846 
L 128.357185 75.34532 
L 128.544484 72.744185 
L 128.731783 76.521155 
L 128.919082 75.466279 
L 129.10638 72.055301 
L 129.293679 72.062314 
L 129.480978 72.288365 
L 129.668276 72.958988 
L 129.855575 70.616358 
L 130.042874 72.90939 
L 130.230173 72.032641 
L 130.60477 76.01926 
L 130.792069 73.271159 
L 131.166666 73.060591 
L 131.353965 71.95574 
L 131.541264 73.777849 
L 131.728563 74.489399 
L 131.915861 71.833865 
L 132.10316 75.256453 
L 132.290459 72.034856 
L 132.477758 73.001217 
L 132.665056 75.272499 
L 132.852355 71.838468 
L 133.039654 72.221991 
L 133.226952 74.484793 
L 133.414251 71.147938 
L 133.60155 74.782758 
L 133.788849 72.926537 
L 133.976147 74.586386 
L 134.163446 70.872465 
L 134.350745 73.769373 
L 134.538044 72.776809 
L 134.725342 69.269017 
L 134.912641 73.521748 
L 135.09994 71.545121 
L 135.287239 72.833058 
L 135.474537 70.090847 
L 135.661836 73.865429 
L 135.849135 71.321267 
L 136.036433 75.859397 
L 136.223732 73.532439 
L 136.411031 75.257551 
L 136.785628 69.274381 
L 136.972927 71.640441 
L 137.160226 71.453105 
L 137.347525 71.440753 
L 137.534823 72.551296 
L 137.722122 68.610204 
L 137.909421 74.031939 
L 138.09672 73.436741 
L 138.284018 69.323979 
L 138.471317 68.4308 
L 138.658616 68.712194 
L 138.845914 70.700798 
L 139.033213 75.708193 
L 139.220512 69.392763 
L 139.407811 73.833352 
L 139.595109 66.786799 
L 139.782408 67.487847 
L 139.969707 70.769208 
L 140.157006 71.273862 
L 140.344304 72.175897 
L 140.531603 72.060819 
L 140.718902 68.591789 
L 140.906201 72.047749 
L 141.093499 68.391701 
L 141.280798 71.808418 
L 141.468097 72.171468 
L 141.655395 71.153469 
L 141.842694 70.955625 
L 142.029993 70.225272 
L 142.40459 71.005968 
L 142.591889 67.151884 
L 142.779188 71.054273 
L 142.966487 70.664852 
L 143.153785 68.812671 
L 143.341084 71.321632 
L 143.528383 69.171683 
L 143.715682 72.426291 
L 143.90298 71.789241 
L 144.090279 70.022441 
L 144.277578 70.471985 
L 144.464876 72.978356 
L 144.652175 69.576946 
L 144.839474 69.177752 
L 145.026773 70.537053 
L 145.214071 70.855324 
L 145.40137 72.844306 
L 145.588669 71.733005 
L 145.775968 72.183996 
L 145.963266 69.142545 
L 146.150565 70.645295 
L 146.337864 71.029572 
L 146.525163 68.66146 
L 146.712461 68.966822 
L 147.087059 68.573519 
L 147.274357 72.662115 
L 147.461656 68.761962 
L 147.648955 68.684151 
L 147.836254 71.397611 
L 148.023552 68.439654 
L 148.39815 69.676161 
L 148.585449 69.30685 
L 148.772747 72.593526 
L 149.147345 68.328662 
L 149.521942 70.807384 
L 149.709241 67.240587 
L 149.89654 69.303138 
L 150.083838 67.995087 
L 150.271137 68.828163 
L 150.458436 68.744075 
L 150.645735 70.018197 
L 150.833033 69.180141 
L 151.020332 66.681889 
L 151.207631 68.087295 
L 151.39493 68.37439 
L 151.582228 69.974513 
L 151.769527 68.461973 
L 152.144125 71.705878 
L 152.331423 70.955442 
L 152.518722 68.847163 
L 152.706021 69.009052 
L 152.893319 68.752202 
L 153.080618 67.31618 
L 153.267917 69.495807 
L 153.642514 64.923361 
L 153.829813 69.498406 
L 154.017112 67.939046 
L 154.766307 71.742397 
L 154.953606 69.458404 
L 155.140904 69.543036 
L 155.328203 67.618925 
L 155.7028 71.512838 
L 155.890099 70.257154 
L 156.077398 70.475288 
L 156.264697 67.049935 
L 156.451995 66.828286 
L 156.826593 70.571542 
L 157.013892 67.797794 
L 157.20119 69.274195 
L 157.388489 66.095174 
L 157.763087 70.906008 
L 157.950385 65.893069 
L 158.324983 71.015929 
L 158.512281 69.749542 
L 158.69958 65.907816 
L 158.886879 67.97076 
L 159.074178 65.543838 
L 159.261476 69.069907 
L 159.448775 70.066143 
L 159.636074 67.265094 
L 160.010671 65.94543 
L 160.19797 66.639292 
L 160.572568 70.311197 
L 160.759866 67.745619 
L 160.947165 70.208858 
L 161.134464 69.417477 
L 161.509061 66.659938 
L 161.69636 68.978429 
L 161.883659 67.4032 
L 162.070957 69.117847 
L 162.258256 67.588893 
L 162.445555 69.4818 
L 162.632854 69.549309 
L 162.820152 69.457674 
L 163.007451 69.175937 
L 163.19475 70.322433 
L 163.382049 70.214386 
L 163.569347 69.064896 
L 163.756646 71.536079 
L 163.943945 69.233253 
L 164.131244 68.407543 
L 164.318542 70.217708 
L 164.505841 70.61302 
L 164.69314 68.587551 
L 164.880438 68.712559 
L 165.067737 66.991288 
L 165.255036 66.404211 
L 165.629633 68.890289 
L 165.816932 67.934068 
L 166.004231 70.080877 
L 166.378828 67.721282 
L 166.566127 69.870875 
L 166.753426 68.638432 
L 166.940725 71.453105 
L 167.128023 70.130859 
L 167.315322 66.687968 
L 167.502621 68.636957 
L 167.689919 67.125345 
L 167.877218 68.588649 
L 168.064517 71.3775 
L 168.251816 68.604324 
L 168.439114 70.025377 
L 168.626413 69.103639 
L 168.813712 72.965636 
L 169.188309 76.008556 
L 169.375608 73.979375 
L 169.750206 72.708783 
L 169.937504 69.620834 
L 170.312102 72.324144 
L 170.4994 77.288574 
L 170.873998 70.208852 
L 171.061297 73.190208 
L 171.248595 71.246769 
L 171.435894 73.5494 
L 171.623193 69.628961 
L 171.810492 75.053446 
L 171.99779 71.632878 
L 172.185089 75.168137 
L 172.372388 71.522427 
L 172.559687 70.121086 
L 172.746985 73.214922 
L 172.934284 70.608609 
L 173.121583 74.594321 
L 173.308881 72.63668 
L 173.49618 73.256756 
L 173.683479 73.228571 
L 173.870778 68.116773 
L 174.245375 71.356121 
L 174.432674 69.523497 
L 174.807271 72.153965 
L 174.99457 68.454224 
L 175.181869 71.881261 
L 175.556466 68.213764 
L 175.743765 71.928999 
L 175.931064 70.070381 
L 176.118362 74.107529 
L 176.49296 69.930425 
L 176.680259 72.762245 
L 176.867557 70.468275 
L 177.054856 71.106807 
L 177.242155 71.100552 
L 177.429454 71.957958 
L 177.804051 70.153354 
L 177.99135 71.799202 
L 178.178649 68.263191 
L 178.365947 73.671463 
L 178.553246 73.577594 
L 178.740545 67.846856 
L 178.927843 69.431308 
L 179.115142 72.844306 
L 179.302441 70.594413 
L 179.48974 71.747021 
L 179.677038 71.795691 
L 179.864337 68.883663 
L 180.051636 69.158038 
L 180.238935 69.094599 
L 180.613532 70.126812 
L 180.800831 68.856567 
L 180.98813 69.947959 
L 181.175428 65.464908 
L 181.550026 72.681675 
L 181.924623 66.393677 
L 182.111922 71.429319 
L 182.486519 68.37624 
L 182.673818 72.857209 
L 183.235714 66.288963 
L 183.610312 71.220756 
L 183.797611 68.444455 
L 183.984909 67.877256 
L 184.172208 72.824016 
L 184.359507 68.080094 
L 184.546805 68.823529 
L 184.734104 67.993615 
L 184.921403 65.977905 
L 185.108702 69.350162 
L 185.296 68.046523 
L 185.483299 68.384726 
L 185.670598 70.956735 
L 185.857897 68.50033 
L 186.045195 67.970946 
L 186.232494 68.376599 
L 186.419793 67.729229 
L 186.607092 66.506163 
L 186.79439 67.73954 
L 186.981689 72.186963 
L 187.168988 63.889678 
L 187.356286 68.607253 
L 187.543585 70.027969 
L 187.730884 67.115204 
L 187.918183 70.084951 
L 188.105481 68.442973 
L 188.29278 72.404176 
L 188.667378 67.81753 
L 188.854676 70.511801 
L 189.041975 69.841901 
L 189.229274 66.688531 
L 189.603871 67.589443 
L 189.79117 69.200997 
L 189.978469 67.603445 
L 190.165767 70.15539 
L 190.353066 67.000866 
L 190.540365 69.279726 
L 190.727664 69.784774 
L 190.914962 71.057039 
L 191.102261 67.490582 
L 191.28956 73.014309 
L 191.664157 67.180288 
L 191.851456 67.384772 
L 192.038755 65.569852 
L 192.226054 67.819006 
L 192.413352 68.542543 
L 192.600651 65.482993 
L 192.78795 72.25721 
L 193.162547 65.630132 
L 193.349846 69.170569 
L 193.724443 65.274445 
L 193.911742 70.691951 
L 194.099041 70.297177 
L 194.28634 67.415382 
L 194.473638 67.119248 
L 194.660937 70.385865 
L 194.848236 70.075915 
L 195.035535 66.859453 
L 195.222833 67.328337 
L 195.410132 66.23512 
L 195.597431 67.813858 
L 195.784729 64.889258 
L 195.972028 69.288033 
L 196.159327 67.759632 
L 196.346626 67.349917 
L 196.533924 65.389127 
L 196.908522 70.482131 
L 197.095821 67.990289 
L 197.283119 68.605044 
L 197.470418 68.818573 
L 197.657717 67.327975 
L 197.845016 67.636449 
L 198.032314 67.650651 
L 198.406912 65.857111 
L 198.594211 67.263049 
L 198.781509 67.60493 
L 198.968808 68.609468 
L 199.156107 67.727748 
L 199.343405 65.904868 
L 199.530704 68.723992 
L 199.718003 66.317905 
L 199.905302 70.594775 
L 200.0926 64.20094 
L 200.279899 65.83128 
L 200.467198 70.946586 
L 200.654497 66.458755 
L 200.841795 67.37924 
L 201.029094 67.534853 
L 201.216393 65.881648 
L 201.403692 68.924225 
L 201.59099 66.703086 
L 201.778289 66.792327 
L 201.965588 65.648383 
L 202.152886 69.616423 
L 202.527484 65.650199 
L 203.08938 63.877524 
L 203.276679 64.506277 
L 203.463978 67.26677 
L 203.838575 66.868309 
L 204.025874 70.075541 
L 204.400471 65.068659 
L 204.775069 69.105857 
L 204.962367 69.846526 
L 205.149666 66.277693 
L 205.336965 68.558781 
L 205.524264 64.801112 
L 205.898861 68.540322 
L 206.08616 69.213349 
L 206.460757 66.818891 
L 206.648056 68.454589 
L 206.835355 66.549113 
L 207.022654 67.130319 
L 207.209952 65.192764 
L 207.397251 66.942225 
L 207.58455 64.378129 
L 207.771848 67.911551 
L 207.959147 66.996269 
L 208.146446 64.476038 
L 208.333745 66.569967 
L 208.521043 64.512547 
L 208.708342 64.152635 
L 208.895641 66.401625 
L 209.08294 66.985742 
L 209.270238 68.590301 
L 209.644836 65.265968 
L 209.832135 65.938244 
L 210.019433 67.129781 
L 210.206732 65.14298 
L 210.394031 65.367011 
L 210.581329 66.937981 
L 210.768628 64.191916 
L 211.143226 67.926873 
L 211.330524 67.507562 
L 211.517823 64.418137 
L 211.705122 66.012376 
L 211.892421 65.154578 
L 212.079719 66.381866 
L 212.267018 66.240265 
L 212.641616 67.410769 
L 212.828914 67.222134 
L 213.016213 66.344061 
L 213.203512 66.409167 
L 213.39081 66.601307 
L 213.578109 67.178986 
L 213.765408 67.393068 
L 213.952707 65.057612 
L 214.140005 65.912797 
L 214.327304 67.770302 
L 214.514603 64.469767 
L 214.701902 66.875669 
L 215.076499 65.26853 
L 215.451097 70.226738 
L 215.638395 65.504746 
L 215.825694 65.7391 
L 216.012993 66.553008 
L 216.200291 65.088021 
L 216.574889 69.724831 
L 216.762188 66.451752 
L 216.949486 65.676058 
L 217.136785 66.34059 
L 217.324084 68.965359 
L 217.511383 64.777338 
L 217.698681 67.076096 
L 217.88598 66.278983 
L 218.073279 63.104905 
L 218.260578 70.355258 
L 218.635175 63.72834 
L 218.822474 65.737457 
L 219.009772 64.509593 
L 219.38437 67.228033 
L 219.571669 61.358209 
L 219.758967 65.190555 
L 219.946266 64.93665 
L 220.133565 66.366588 
L 220.320864 66.810402 
L 220.508162 68.396889 
L 220.88276 65.811027 
L 221.070059 67.03719 
L 221.257357 63.658087 
L 221.631955 65.35078 
L 221.819253 63.649604 
L 222.006552 67.119263 
L 222.193851 62.417363 
L 222.38115 65.523174 
L 222.568448 65.051521 
L 222.755747 66.513179 
L 222.943046 66.149171 
L 223.130345 61.478614 
L 223.317643 65.830176 
L 223.504942 65.512316 
L 223.87954 63.644079 
L 224.066838 67.317655 
L 224.254137 64.12793 
L 224.441436 63.823499 
L 224.628734 68.3578 
L 225.003332 64.333335 
L 225.377929 69.435905 
L 225.565228 68.915384 
L 226.127124 65.72122 
L 226.314423 62.169147 
L 226.689021 68.813595 
L 226.876319 64.542963 
L 227.063618 65.26117 
L 227.438215 70.282789 
L 227.625514 68.463811 
L 227.812813 64.389009 
L 228.000112 67.575071 
L 228.18741 64.07298 
L 228.562008 67.461456 
L 228.749307 63.932279 
L 228.936605 67.82527 
L 229.123904 66.158754 
L 229.311203 70.509957 
L 229.498502 66.295957 
L 229.6858 66.332816 
L 229.873099 65.311495 
L 230.060398 66.528634 
L 230.247696 66.785701 
L 230.434995 62.428778 
L 230.622294 66.025641 
L 230.809593 64.094539 
L 230.996891 68.421752 
L 231.371489 64.296816 
L 231.558788 65.379914 
L 231.746086 64.331303 
L 231.933385 64.665416 
L 232.120684 66.533253 
L 232.307983 63.983161 
L 232.495281 67.297925 
L 232.869879 64.473279 
L 233.057178 65.468954 
L 233.244476 65.085986 
L 233.431775 65.918337 
L 233.619074 63.807264 
L 233.806372 66.324909 
L 233.993671 64.756869 
L 234.18097 65.280901 
L 234.368269 63.465207 
L 234.555567 65.893818 
L 234.742866 65.659099 
L 234.930165 66.380391 
L 235.117464 62.811385 
L 235.304762 66.531053 
L 235.492061 67.564194 
L 235.67936 64.018204 
L 235.866659 64.216955 
L 236.053957 64.219547 
L 236.428555 61.596618 
L 236.615853 63.748241 
L 236.803152 63.047214 
L 236.990451 63.543291 
L 236.990451 63.543291 
" clip-path="url(#pa6e5f2a061)" style="fill: none; stroke: #1f77b4; stroke-linecap: square"/>
   </g>
   <g id="line2d_14">
    <path d="M 56.809069 25.55786 
L 61.11694 25.668815 
L 61.491537 25.909939 
L 61.866135 26.538791 
L 62.240732 27.963265 
L 62.61533 30.765344 
L 62.989927 35.5505 
L 63.551824 46.990474 
L 65.050213 82.711746 
L 65.424811 87.037397 
L 65.799408 89.174017 
L 65.986707 89.620606 
L 66.174006 89.768483 
L 66.361305 89.695565 
L 66.735902 89.135053 
L 67.672396 86.918401 
L 69.358084 83.020809 
L 71.043773 79.69719 
L 72.729461 76.865738 
L 74.41515 74.449143 
L 76.288137 72.17172 
L 78.161125 70.251644 
L 80.221411 68.478975 
L 82.281697 66.996931 
L 84.529282 65.647733 
L 86.964165 64.437448 
L 89.773646 63.293873 
L 92.957725 62.245327 
L 96.703699 61.255723 
L 101.198869 60.307698 
L 106.817831 59.357736 
L 114.497079 58.302003 
L 125.735003 57.004684 
L 143.341084 55.216346 
L 168.439114 52.898015 
L 196.721223 50.510618 
L 226.501722 48.222361 
L 236.990451 47.467444 
L 236.990451 47.467444 
" clip-path="url(#pa6e5f2a061)" style="fill: none; stroke-dasharray: 3.7,1.6; stroke-dashoffset: 0; stroke: #333333"/>
   </g>
   <g id="patch_3">
    <path d="M 47.8 101.39952 
L 47.8 17.8 
" style="fill: none; stroke: #000000; stroke-width: 0.6; stroke-linejoin: miter; stroke-linecap: square"/>
   </g>
   <g id="patch_4">
    <path d="M 245.99952 101.39952 
L 245.99952 17.8 
" style="fill: none; stroke: #000000; stroke-width: 0.6; stroke-linejoin: miter; stroke-linecap: square"/>
   </g>
   <g id="patch_5">
    <path d="M 47.8 101.39952 
L 245.99952 101.39952 
" style="fill: none; stroke: #000000; stroke-width: 0.6; stroke-linejoin: miter; stroke-linecap: square"/>
   </g>
   <g id="patch_6">
    <path d="M 47.8 17.8 
L 245.99952 17.8 
" style="fill: none; stroke: #000000; stroke-width: 0.6; stroke-linejoin: miter; stroke-linecap: square"/>
   </g>
  </g>
  <g id="axes_2">
   <g id="patch_7">
    <path d="M 47.8 218.49952 
L 245.99952 218.49952 
L 245.99952 134.9 
L 47.8 134.9 
z
" style="fill: #ffffff"/>
   </g>
   <g id="PolyCollection_3"/>
   <g id="matplotlib.axis_3">
    <g id="xtick_5">
     <g id="line2d_15">
      <g>
       <use xlink:href="#m65834ebb45" x="62.05857" y="218.49952" style="stroke: #000000; stroke-width: 0.6"/>
      </g>
     </g>
     <g id="line2d_16">
      <g>
       <use xlink:href="#m85fa96b686" x="62.05857" y="134.9" style="stroke: #000000; stroke-width: 0.6"/>
      </g>
     </g>
     <g id="text_10">
      <!-- $\mathdefault{0}$ -->
      <g transform="translate(59.15857 229.59952) scale(0.1 -0.1)">
       <use xlink:href="#NotoSans-Regular-30" transform="translate(0 0.5)"/>
      </g>
     </g>
    </g>
    <g id="xtick_6">
     <g id="line2d_17">
      <g>
       <use xlink:href="#m65834ebb45" x="108.354543" y="218.49952" style="stroke: #000000; stroke-width: 0.6"/>
      </g>
     </g>
     <g id="line2d_18">
      <g>
       <use xlink:href="#m85fa96b686" x="108.354543" y="134.9" style="stroke: #000000; stroke-width: 0.6"/>
      </g>
     </g>
     <g id="text_11">
      <!-- $\mathdefault{20}$ -->
      <g transform="translate(102.604543 229.59952) scale(0.1 -0.1)">
       <use xlink:href="#NotoSans-Regular-32" transform="translate(0 0.5)"/>
       <use xlink:href="#NotoSans-Regular-30" transform="translate(57.199997 0.5)"/>
      </g>
     </g>
    </g>
    <g id="xtick_7">
     <g id="line2d_19">
      <g>
       <use xlink:href="#m65834ebb45" x="154.650516" y="218.49952" style="stroke: #000000; stroke-width: 0.6"/>
      </g>
     </g>
     <g id="line2d_20">
      <g>
       <use xlink:href="#m85fa96b686" x="154.650516" y="134.9" style="stroke: #000000; stroke-width: 0.6"/>
      </g>
     </g>
     <g id="text_12">
      <!-- $\mathdefault{40}$ -->
      <g transform="translate(148.900516 229.59952) scale(0.1 -0.1)">
       <use xlink:href="#NotoSans-Regular-34" transform="translate(0 0.5)"/>
       <use xlink:href="#NotoSans-Regular-30" transform="translate(57.199997 0.5)"/>
      </g>
     </g>
    </g>
    <g id="xtick_8">
     <g id="line2d_21">
      <g>
       <use xlink:href="#m65834ebb45" x="200.946489" y="218.49952" style="stroke: #000000; stroke-width: 0.6"/>
      </g>
     </g>
     <g id="line2d_22">
      <g>
       <use xlink:href="#m85fa96b686" x="200.946489" y="134.9" style="stroke: #000000; stroke-width: 0.6"/>
      </g>
     </g>
     <g id="text_13">
      <!-- $\mathdefault{60}$ -->
      <g transform="translate(195.196489 229.59952) scale(0.1 -0.1)">
       <use xlink:href="#NotoSans-Regular-36" transform="translate(0 0.5)"/>
       <use xlink:href="#NotoSans-Regular-30" transform="translate(57.199997 0.5)"/>
      </g>
     </g>
    </g>
    <g id="text_14">
     <!-- time -->
     <g transform="translate(136.309916 243.59952) scale(0.1 -0.1)">
      <use xlink:href="#NotoSans-Regular-74"/>
      <use xlink:href="#NotoSans-Regular-69" x="36.099991"/>
      <use xlink:href="#NotoSans-Regular-6d" x="61.899979"/>
      <use xlink:href="#NotoSans-Regular-65" x="155.399963"/>
     </g>
    </g>
   </g>
   <g id="matplotlib.axis_4">
    <g id="ytick_3">
     <g id="line2d_23">
      <g>
       <use xlink:href="#m940b9b7350" x="47.8" y="205.967666" style="stroke: #000000; stroke-width: 0.6"/>
      </g>
     </g>
     <g id="line2d_24">
      <g>
       <use xlink:href="#m69e9686811" x="245.99952" y="205.967666" style="stroke: #000000; stroke-width: 0.6"/>
      </g>
     </g>
     <g id="text_15">
      <!-- $\mathdefault{−0.05}$ -->
      <g transform="translate(21.2 209.767666) scale(0.1 -0.1)">
       <defs>
        <path id="NotoSans-Regular-2e" d="M 461 346 
Q 461 582 576 678 
Q 691 774 851 774 
Q 1018 774 1136 678 
Q 1254 582 1254 346 
Q 1254 115 1136 12 
Q 1018 -90 851 -90 
Q 691 -90 576 12 
Q 461 115 461 346 
z
" transform="scale(0.015625)"/>
       </defs>
       <use xlink:href="#NotoSans-Regular-2212" transform="translate(0 0.5)"/>
       <use xlink:href="#NotoSans-Regular-30" transform="translate(32.199997 0.5)"/>
       <use xlink:href="#NotoSans-Regular-2e" transform="translate(89.399994 0.5)"/>
       <use xlink:href="#NotoSans-Regular-30" transform="translate(116.199982 0.5)"/>
       <use xlink:href="#NotoSans-Regular-35" transform="translate(173.399979 0.5)"/>
      </g>
     </g>
    </g>
    <g id="ytick_4">
     <g id="line2d_25">
      <g>
       <use xlink:href="#m940b9b7350" x="47.8" y="172.364401" style="stroke: #000000; stroke-width: 0.6"/>
      </g>
     </g>
     <g id="line2d_26">
      <g>
       <use xlink:href="#m69e9686811" x="245.99952" y="172.364401" style="stroke: #000000; stroke-width: 0.6"/>
      </g>
     </g>
     <g id="text_16">
      <!-- $\mathdefault{0.00}$ -->
      <g transform="translate(24.4 176.164401) scale(0.1 -0.1)">
       <use xlink:href="#NotoSans-Regular-30" transform="translate(0 0.5)"/>
       <use xlink:href="#NotoSans-Regular-2e" transform="translate(57.199997 0.5)"/>
       <use xlink:href="#NotoSans-Regular-30" transform="translate(83.999985 0.5)"/>
       <use xlink:href="#NotoSans-Regular-30" transform="translate(141.199982 0.5)"/>
      </g>
     </g>
    </g>
    <g id="ytick_5">
     <g id="line2d_27">
      <g>
       <use xlink:href="#m940b9b7350" x="47.8" y="138.761136" style="stroke: #000000; stroke-width: 0.6"/>
      </g>
     </g>
     <g id="line2d_28">
      <g>
       <use xlink:href="#m69e9686811" x="245.99952" y="138.761136" style="stroke: #000000; stroke-width: 0.6"/>
      </g>
     </g>
     <g id="text_17">
      <!-- $\mathdefault{0.05}$ -->
      <g transform="translate(24.4 142.561136) scale(0.1 -0.1)">
       <use xlink:href="#NotoSans-Regular-30" transform="translate(0 0.5)"/>
       <use xlink:href="#NotoSans-Regular-2e" transform="translate(57.199997 0.5)"/>
       <use xlink:href="#NotoSans-Regular-30" transform="translate(83.999985 0.5)"/>
       <use xlink:href="#NotoSans-Regular-35" transform="translate(141.199982 0.5)"/>
      </g>
     </g>
    </g>
    <g id="text_18">
     <!-- V_pump -->
     <g transform="translate(14.8 195.834916) rotate(-90) scale(0.1 -0.1)">
      <defs>
       <path id="NotoSans-Regular-56" d="M 3840 4570 
L 2208 0 
L 1632 0 
L 0 4570 
L 602 4570 
L 1632 1638 
Q 1702 1453 1753 1280 
Q 1805 1107 1846 950 
Q 1888 794 1920 640 
Q 1952 794 1993 954 
Q 2035 1114 2089 1286 
Q 2144 1459 2208 1651 
L 3232 4570 
L 3840 4570 
z
" transform="scale(0.015625)"/>
       <path id="NotoSans-Regular-5f" d="M 2854 -986 
L -13 -986 
L -13 -576 
L 2854 -576 
L 2854 -986 
z
" transform="scale(0.015625)"/>
       <path id="NotoSans-Regular-70" d="M 2176 3494 
Q 2810 3494 3197 3052 
Q 3584 2611 3584 1722 
Q 3584 1139 3408 739 
Q 3232 339 2915 137 
Q 2598 -64 2170 -64 
Q 1907 -64 1702 6 
Q 1498 77 1354 189 
Q 1210 301 1107 435 
L 1069 435 
Q 1082 326 1094 160 
Q 1107 -6 1107 -128 
L 1107 -1536 
L 544 -1536 
L 544 3430 
L 1005 3430 
L 1082 2963 
L 1107 2963 
Q 1210 3110 1354 3232 
Q 1498 3354 1699 3424 
Q 1901 3494 2176 3494 
z
M 2074 3021 
Q 1728 3021 1517 2889 
Q 1306 2758 1210 2496 
Q 1114 2234 1107 1830 
L 1107 1722 
Q 1107 1299 1196 1004 
Q 1286 710 1500 556 
Q 1715 403 2086 403 
Q 2400 403 2601 576 
Q 2803 749 2902 1046 
Q 3002 1344 3002 1728 
Q 3002 2317 2774 2669 
Q 2547 3021 2074 3021 
z
" transform="scale(0.015625)"/>
       <path id="NotoSans-Regular-75" d="M 3411 3430 
L 3411 0 
L 2950 0 
L 2867 454 
L 2842 454 
Q 2733 275 2560 160 
Q 2387 45 2182 -9 
Q 1978 -64 1754 -64 
Q 1344 -64 1065 67 
Q 787 198 646 473 
Q 506 749 506 1184 
L 506 3430 
L 1075 3430 
L 1075 1222 
Q 1075 813 1260 608 
Q 1446 403 1837 403 
Q 2221 403 2441 547 
Q 2662 691 2755 969 
Q 2848 1248 2848 1645 
L 2848 3430 
L 3411 3430 
z
" transform="scale(0.015625)"/>
      </defs>
      <use xlink:href="#NotoSans-Regular-56"/>
      <use xlink:href="#NotoSans-Regular-5f" x="59.999985"/>
      <use xlink:href="#NotoSans-Regular-70" x="104.399979"/>
      <use xlink:href="#NotoSans-Regular-75" x="165.899963"/>
      <use xlink:href="#NotoSans-Regular-6d" x="227.699951"/>
      <use xlink:href="#NotoSans-Regular-70" x="321.199936"/>
     </g>
    </g>
   </g>
   <g id="line2d_29">
    <path d="M 56.809069 171.95933 
L 57.117863 172.074699 
L 57.426657 172.266979 
L 58.044246 172.648976 
L 58.35304 172.584883 
L 58.661834 172.792546 
L 58.816231 173.17967 
L 59.125025 174.969158 
L 59.897011 181.652814 
L 60.051408 180.745257 
L 60.205805 178.286647 
L 60.514599 166.098615 
L 60.97779 141.114978 
L 61.132187 138.699978 
L 61.286584 142.494257 
L 61.595378 170.572346 
L 62.05857 214.699542 
L 62.212967 214.396978 
L 62.367364 202.752371 
L 62.830555 147.760158 
L 62.984952 143.189038 
L 63.139349 150.311049 
L 63.60254 190.387445 
L 63.756937 191.24117 
L 64.065731 172.579755 
L 64.374526 159.081635 
L 64.528923 162.050484 
L 64.992114 180.25559 
L 65.146511 179.032694 
L 65.609702 168.562373 
L 65.764099 169.128958 
L 66.22729 174.70253 
L 66.381687 174.484613 
L 66.844879 171.782433 
L 66.999276 171.646555 
L 67.30807 172.095209 
L 67.771261 172.738708 
L 68.080055 172.605392 
L 68.234452 172.482333 
L 68.388849 172.579755 
L 68.697644 173.043792 
L 68.852041 173.074559 
L 69.469629 172.002913 
L 70.087217 172.654104 
L 70.704805 172.979698 
L 70.859203 172.86433 
L 71.322394 172.069571 
L 71.476791 172.064444 
L 72.403173 173.154031 
L 72.711967 172.959188 
L 73.175159 172.241342 
L 73.329556 172.149047 
L 73.792747 172.63103 
L 74.101541 172.677177 
L 74.410335 172.415676 
L 74.873526 172.648976 
L 75.027923 172.810492 
L 75.491115 172.707943 
L 75.799909 172.382347 
L 75.954306 172.25416 
L 76.571894 172.600265 
L 77.189482 172.269543 
L 77.34388 172.318254 
L 77.652674 172.592574 
L 77.961468 172.641285 
L 78.424659 172.231087 
L 78.733453 172.313126 
L 79.042247 172.73358 
L 79.351041 172.820747 
L 79.659836 172.659231 
L 79.814233 172.413112 
L 80.431821 172.400293 
L 80.740615 172.500279 
L 80.895012 172.566937 
L 81.049409 172.436186 
L 81.203806 172.490024 
L 81.666998 172.31569 
L 81.821395 172.29518 
L 82.284586 172.656667 
L 82.747777 172.592574 
L 83.056571 172.559246 
L 83.674159 172.846384 
L 83.982954 172.779727 
L 84.909336 172.538736 
L 85.21813 172.177248 
L 85.526924 172.100336 
L 85.990116 172.287489 
L 86.607704 171.836271 
L 86.762101 171.679882 
L 87.070895 171.720903 
L 87.997277 173.600121 
L 88.151674 173.556537 
L 88.460469 173.061743 
L 89.078057 172.149047 
L 89.232454 172.100336 
L 89.695645 172.387475 
L 90.313233 172.464387 
L 90.622028 172.41824 
L 90.930822 172.543863 
L 91.394013 172.425931 
L 91.702807 172.354146 
L 92.320395 172.490024 
L 92.62919 172.625902 
L 93.092381 172.390039 
L 94.327557 172.328509 
L 94.945146 172.648976 
L 95.408337 172.502843 
L 95.717131 172.425931 
L 96.489116 173.441171 
L 96.643513 173.564233 
L 96.79791 173.541154 
L 96.952308 173.715494 
L 97.106705 173.69755 
L 97.261102 173.892389 
L 97.415499 173.794973 
L 97.569896 173.520649 
L 97.87869 172.177248 
L 98.805072 166.901061 
L 98.959469 167.077956 
L 99.113867 167.895805 
L 99.422661 171.279943 
L 100.040249 180.127427 
L 100.194646 180.981152 
L 100.349043 180.61454 
L 100.50344 179.099369 
L 101.275426 166.870294 
L 101.429823 167.106162 
L 101.738617 170.685152 
L 102.047411 174.474357 
L 102.201808 175.215282 
L 102.356205 174.933263 
L 102.664999 172.15161 
L 102.973793 170.254445 
L 103.12819 170.626185 
L 103.745779 176.122846 
L 103.900176 175.715211 
L 104.20897 172.108027 
L 104.517764 168.321384 
L 104.672161 167.936828 
L 104.826558 169.02128 
L 105.289749 173.989811 
L 105.444146 173.784717 
L 105.752941 169.613503 
L 106.061735 165.621772 
L 106.216132 166.113999 
L 106.524926 172.407985 
L 107.142514 189.279949 
L 107.296911 189.005612 
L 107.451308 186.147049 
L 107.760103 174.066722 
L 108.223294 153.005627 
L 108.377691 151.44946 
L 108.532088 154.88741 
L 108.840882 171.228665 
L 109.149676 186.103499 
L 109.304073 186.828994 
L 109.45847 182.606542 
L 109.921662 163.119538 
L 110.076059 163.127267 
L 110.693647 181.245206 
L 110.848044 179.547973 
L 111.311235 167.424083 
L 111.465632 167.51381 
L 112.08322 175.397311 
L 112.700809 171.549132 
L 113.164 173.348876 
L 113.318397 173.282221 
L 113.781588 172.256724 
L 114.707971 172.525917 
L 114.862368 172.454132 
L 115.171162 172.592574 
L 115.479956 172.969443 
L 115.634353 173.071992 
L 115.943147 172.661795 
L 116.251941 172.25416 
L 116.715133 172.50797 
L 116.86953 172.736144 
L 117.178324 172.67205 
L 117.641515 172.513098 
L 117.950309 172.495151 
L 118.567897 172.331073 
L 119.185486 172.664358 
L 119.49428 172.818183 
L 119.648677 172.779727 
L 120.111868 172.220832 
L 120.266265 172.172121 
L 120.883854 173.002771 
L 121.192648 172.63103 
L 121.501442 172.218268 
L 121.810236 172.395166 
L 122.273427 172.943805 
L 122.427824 172.854075 
L 122.891015 172.187503 
L 123.19981 172.223396 
L 123.817398 172.61052 
L 124.126192 172.574628 
L 124.280589 172.574628 
L 124.589383 172.766908 
L 124.74378 172.777164 
L 124.898177 172.669486 
L 125.515766 171.495293 
L 125.670163 171.505549 
L 125.82456 171.790124 
L 126.442148 174.246184 
L 126.596545 174.341046 
L 126.905339 173.379643 
L 127.368531 170.967164 
L 127.522928 170.733863 
L 127.677325 171.013308 
L 127.986119 172.372092 
L 128.294913 173.500138 
L 128.44931 173.643704 
L 128.912501 172.797674 
L 129.375692 171.608099 
L 129.53009 171.444021 
L 129.684487 171.58502 
L 130.456472 173.533465 
L 130.765266 172.766908 
L 131.07406 171.887546 
L 131.228457 171.813197 
L 131.382854 171.928565 
L 131.846046 172.831002 
L 132.000443 172.954061 
L 132.772428 172.805365 
L 133.235619 173.000208 
L 133.390016 172.979698 
L 133.69881 172.525917 
L 134.162002 172.06188 
L 134.316399 172.105464 
L 135.088384 172.7746 
L 135.397178 172.533608 
L 136.014766 171.382487 
L 136.169164 171.138937 
L 136.477958 171.115858 
L 136.786752 171.402998 
L 137.40434 173.007899 
L 137.713134 174.246184 
L 138.021928 175.002493 
L 138.330723 174.743546 
L 139.257105 171.077403 
L 139.411502 170.872302 
L 139.565899 170.859486 
L 139.720296 171.064587 
L 140.492282 173.102759 
L 140.801076 173.20787 
L 141.10987 172.859203 
L 141.573061 172.543863 
L 141.881855 172.618211 
L 142.036252 172.577192 
L 142.345046 171.905491 
L 142.808238 170.644129 
L 142.962635 170.677457 
L 143.271429 171.559388 
L 143.73462 173.23607 
L 144.197811 173.628321 
L 144.352208 173.666776 
L 144.661002 174.366679 
L 145.124194 175.676756 
L 145.278591 175.676756 
L 145.587385 174.138512 
L 146.35937 167.847094 
L 146.513767 167.849661 
L 146.668164 168.539301 
L 147.285753 173.330932 
L 147.44015 173.623193 
L 147.594547 173.428354 
L 148.057738 171.75936 
L 148.212135 171.836271 
L 148.366532 172.231087 
L 148.98412 175.461399 
L 149.138518 175.615228 
L 149.447312 173.946228 
L 149.910503 171.092786 
L 150.0649 170.964597 
L 150.219297 171.254304 
L 150.682488 172.969443 
L 150.836885 172.972007 
L 151.145679 171.992658 
L 151.454474 170.908197 
L 151.608871 170.56209 
L 151.763268 170.549274 
L 151.917665 170.764624 
L 152.535253 173.187365 
L 153.461636 177.340615 
L 153.616033 176.994508 
L 153.924827 173.820605 
L 154.388018 165.957609 
L 154.542415 164.967986 
L 154.696812 165.580776 
L 155.160003 174.376934 
L 155.468797 177.691863 
L 155.623195 176.725319 
L 156.240783 168.957191 
L 156.39518 169.651959 
L 156.858371 175.181954 
L 157.012768 175.576772 
L 157.167165 174.848664 
L 157.630356 170.333917 
L 157.784754 170.369812 
L 157.939151 171.146626 
L 158.247945 173.379643 
L 158.402342 173.715494 
L 158.556739 173.518082 
L 159.01993 172.233651 
L 159.637518 173.110447 
L 160.409504 172.120846 
L 160.563901 172.20545 
L 161.027092 172.748962 
L 161.335886 172.720762 
L 161.64468 172.425931 
L 161.799077 172.297744 
L 162.107871 172.490024 
L 162.416666 172.648976 
L 163.188651 172.092645 
L 163.651842 172.505407 
L 163.960636 172.987389 
L 164.115033 173.054048 
L 164.423828 172.895095 
L 164.887019 172.382347 
L 165.813401 172.213141 
L 166.122195 172.446441 
L 166.430989 172.695124 
L 166.739784 172.813056 
L 167.357372 172.184939 
L 167.666166 172.241342 
L 168.129357 172.825874 
L 168.283754 172.930987 
L 169.210137 172.351582 
L 171.371696 172.41824 
L 172.143681 173.15147 
L 172.298078 173.130959 
L 173.070064 172.146483 
L 173.224461 172.195194 
L 173.533255 172.551555 
L 173.687652 172.587447 
L 173.996446 172.156738 
L 174.459637 170.887686 
L 174.614034 170.772319 
L 174.768431 170.874869 
L 175.077225 171.859345 
L 175.694814 174.469229 
L 175.849211 174.635874 
L 176.003608 174.35899 
L 176.775593 171.777306 
L 176.92999 171.887546 
L 177.393182 172.543863 
L 177.547579 172.413112 
L 178.01077 171.733722 
L 178.319564 172.277234 
L 178.782755 173.723183 
L 178.937152 173.830861 
L 180.172329 171.251737 
L 180.63552 170.0596 
L 180.789917 170.24419 
L 181.098711 171.920874 
L 181.561902 175.202466 
L 181.7163 175.522933 
L 181.870697 175.158882 
L 182.179491 173.220693 
L 182.488285 171.587588 
L 182.642682 171.456837 
L 182.797079 171.941384 
L 183.105873 173.602688 
L 183.26027 173.989811 
L 183.414667 173.820605 
L 184.032256 170.118567 
L 184.186653 170.162151 
L 184.958638 172.241342 
L 185.267432 172.323381 
L 185.421829 172.56181 
L 185.730623 173.448859 
L 185.88502 173.661648 
L 186.039417 173.512954 
L 186.502609 172.654104 
L 186.657006 172.633594 
L 187.120197 173.266837 
L 187.274594 173.159159 
L 188.046579 171.851654 
L 188.664168 172.19263 
L 189.127359 172.395166 
L 189.436153 172.243905 
L 189.59055 172.018296 
L 189.899344 172.128537 
L 190.053741 172.277234 
L 190.825727 173.774461 
L 191.134521 173.484754 
L 192.2153 171.059459 
L 192.524094 170.777447 
L 192.678492 170.921013 
L 192.987286 171.769615 
L 193.759271 174.817897 
L 193.913668 174.697402 
L 194.068065 174.292335 
L 194.840051 171.133809 
L 195.148845 171.082531 
L 195.457639 171.536316 
L 195.92083 171.782433 
L 196.229624 171.992658 
L 196.538418 172.789982 
L 197.00161 174.384629 
L 197.156007 174.346174 
L 197.310404 173.928284 
L 197.927992 170.451851 
L 198.082389 170.474923 
L 198.391183 171.823452 
L 198.699977 173.620632 
L 198.854374 174.064162 
L 199.008771 174.123129 
L 199.471963 173.512954 
L 199.935154 173.484754 
L 200.089551 173.107887 
L 200.398345 171.485037 
L 200.707139 169.764772 
L 200.861536 169.682726 
L 201.17033 171.26712 
L 201.633522 174.287207 
L 201.787919 174.202601 
L 202.096713 172.872021 
L 202.405507 171.518365 
L 202.559904 171.469654 
L 202.868698 172.577192 
L 203.177492 173.428354 
L 203.331889 173.282221 
L 203.640684 172.472078 
L 203.949478 171.736286 
L 204.103875 171.838835 
L 204.721463 172.954061 
L 205.184654 172.443877 
L 205.339051 172.313126 
L 205.95664 172.666922 
L 206.265434 172.400293 
L 206.574228 172.231087 
L 206.883022 172.472078 
L 207.346213 172.50797 
L 207.655007 172.423367 
L 207.809404 172.387475 
L 208.426993 172.820747 
L 209.816566 172.574628 
L 210.125361 172.136228 
L 210.434155 171.856781 
L 210.742949 171.936257 
L 211.20614 172.566937 
L 211.514934 172.56181 
L 212.132522 172.038807 
L 212.595714 172.225959 
L 213.058905 172.777164 
L 213.522096 173.087375 
L 213.83089 173.141215 
L 214.448479 172.461823 
L 214.757273 172.166993 
L 214.91167 172.133664 
L 216.45564 172.861766 
L 217.690817 172.454132 
L 218.462802 171.36711 
L 218.771597 171.405566 
L 219.080391 171.938821 
L 219.543582 173.169414 
L 219.852376 173.807789 
L 220.16117 173.694983 
L 221.087553 172.138792 
L 221.24195 172.079827 
L 221.396347 172.264415 
L 221.859538 172.15161 
L 222.322729 171.579899 
L 222.477126 171.561948 
L 222.78592 171.928565 
L 223.249112 172.761781 
L 223.557906 173.030975 
L 223.8667 172.936114 
L 224.329891 172.654104 
L 225.256274 172.313126 
L 225.565068 172.243905 
L 226.028259 172.346455 
L 226.337053 172.702816 
L 226.800244 173.102759 
L 227.109038 172.954061 
L 227.726627 171.615788 
L 227.881024 171.541437 
L 228.189818 172.02086 
L 228.807406 173.589865 
L 228.961803 173.518082 
L 229.579392 171.523493 
L 229.733789 171.533749 
L 229.888186 171.769615 
L 230.19698 172.533608 
L 230.351377 172.766908 
L 230.660171 172.474642 
L 230.968965 172.069571 
L 231.123362 172.138792 
L 231.586553 173.374515 
L 231.74095 173.484754 
L 232.049745 173.030975 
L 232.358539 172.423367 
L 232.82173 172.028551 
L 232.976127 171.961894 
L 233.284921 171.61066 
L 233.593715 171.800379 
L 233.748112 171.954203 
L 234.211304 172.725889 
L 235.292083 172.861766 
L 236.218466 172.161866 
L 236.990451 172.889968 
L 236.990451 172.889968 
" clip-path="url(#pa812ba1235)" style="fill: none; stroke: #1f77b4; stroke-linecap: square"/>
   </g>
   <g id="patch_8">
    <path d="M 47.8 218.49952 
L 47.8 134.9 
" style="fill: none; stroke: #000000; stroke-width: 0.6; stroke-linejoin: miter; stroke-linecap: square"/>
   </g>
   <g id="patch_9">
    <path d="M 245.99952 218.49952 
L 245.99952 134.9 
" style="fill: none; stroke: #000000; stroke-width: 0.6; stroke-linejoin: miter; stroke-linecap: square"/>
   </g>
   <g id="patch_10">
    <path d="M 47.8 218.49952 
L 245.99952 218.49952 
" style="fill: none; stroke: #000000; stroke-width: 0.6; stroke-linejoin: miter; stroke-linecap: square"/>
   </g>
   <g id="patch_11">
    <path d="M 47.8 134.9 
L 245.99952 134.9 
" style="fill: none; stroke: #000000; stroke-width: 0.6; stroke-linejoin: miter; stroke-linecap: square"/>
   </g>
  </g>
 </g>
 <defs>
  <clipPath id="pa6e5f2a061">
   <rect x="47.8" y="17.8" width="198.19952" height="83.59952"/>
  </clipPath>
  <clipPath id="pa812ba1235">
   <rect x="47.8" y="134.9" width="198.19952" height="83.59952"/>
  </clipPath>
 </defs>
</svg>
