<?xml version="1.0" encoding="utf-8" standalone="no"?>
<!DOCTYPE svg PUBLIC "-//W3C//DTD SVG 1.1//EN"
  "http://www.w3.org/Graphics/SVG/1.1/DTD/svg11.dtd">
<svg xmlns:xlink="http://www.w3.org/1999/xlink" width="253.19952pt" height="253.19952pt" viewBox="0 0 253.19952 253.19952" xmlns="http://www.w3.org/2000/svg" version="1.1">
 <metadata>
  <rdf:RDF xmlns:dc="http://purl.org/dc/elements/1.1/" xmlns:cc="http://creativecommons.org/ns#" xmlns:rdf="http://www.w3.org/1999/02/22-rdf-syntax-ns#">
   <cc:Work>
    <dc:type rdf:resource="http://purl.org/dc/dcmitype/StillImage"/>
    <dc:date>2024-07-06T12:09:16.104808</dc:date>
    <dc:format>image/svg+xml</dc:format>
    <dc:creator>
     <cc:Agent>
      <dc:title>Matplotlib v3.9.0, https://matplotlib.org/</dc:title>
     </cc:Agent>
    </dc:creator>
   </cc:Work>
  </rdf:RDF>
 </metadata>
 <defs>
  <style type="text/css">*{stroke-linejoin: round; stroke-linecap: butt}</style>
 </defs>
 <g id="figure_1">
  <g id="patch_1">
   <path d="M 0 253.19952 
L 253.19952 253.19952 
L 253.19952 0 
L 0 0 
z
" style="fill: #ffffff"/>
  </g>
  <g id="axes_1">
   <g id="patch_2">
    <path d="M 38.9 218.49952 
L 245.99952 218.49952 
L 245.99952 17.8 
L 38.9 17.8 
z
" style="fill: #ffffff"/>
   </g>
   <g id="line2d_1">
    <path d="M 38.881014 201.77456 
L 68.324576 201.666611 
L 69.157118 201.421901 
L 69.725684 201.032687 
L 70.213026 200.428228 
L 70.680061 199.474589 
L 71.147097 197.978853 
L 71.634439 195.601516 
L 72.142087 191.922252 
L 72.690346 186.154909 
L 73.279217 177.401523 
L 73.929006 164.217493 
L 74.700631 143.668456 
L 75.756538 108.881452 
L 77.644987 46.447713 
L 78.436917 27.819102 
L 79.0664 17.679867 
L 79.61466 12.113814 
L 80.06139 9.563093 
L 80.40659 8.629693 
L 80.670567 8.433702 
L 80.873626 8.546291 
L 81.137602 8.987702 
L 81.523415 10.128312 
L 82.09198 12.598109 
L 83.005746 17.702711 
L 88.914764 52.640689 
L 91.290555 64.65031 
L 93.666346 75.538003 
L 96.062443 85.488825 
L 98.45854 94.502481 
L 100.854636 102.667231 
L 103.271039 110.122629 
L 105.687442 116.87022 
L 108.12415 123.025984 
L 110.581165 128.636735 
L 113.058485 133.746093 
L 115.556112 138.394653 
L 118.09435 142.652474 
L 120.652894 146.515811 
L 123.25205 150.04418 
L 125.912123 153.283849 
L 128.633115 156.249414 
L 131.435329 158.974528 
L 134.318768 161.468209 
L 137.303736 163.755298 
L 140.410539 165.854587 
L 143.659484 167.780136 
L 147.070876 169.542408 
L 150.685327 171.157684 
L 154.543449 172.635605 
L 158.685854 173.981093 
L 163.153153 175.196102 
L 168.046876 176.293548 
L 173.448247 177.273313 
L 179.499407 178.140322 
L 186.362803 178.894161 
L 194.322718 179.53873 
L 203.785269 180.074524 
L 215.440859 180.502718 
L 228.741227 180.795484 
L 228.741227 180.795484 
" clip-path="url(#p15b3b3cc05)" style="fill: none; stroke-dasharray: 3.7,1.6; stroke-dashoffset: 0; stroke: #333333"/>
   </g>
   <g id="PathCollection_1">
    <defs>
     <path id="m1a15aadde7" d="M 0 2.236068 
C 0.593012 2.236068 1.161816 2.000462 1.581139 1.581139 
C 2.000462 1.161816 2.236068 0.593012 2.236068 0 
C 2.236068 -0.593012 2.000462 -1.161816 1.581139 -1.581139 
C 1.161816 -2.000462 0.593012 -2.236068 0 -2.236068 
C -0.593012 -2.236068 -1.161816 -2.000462 -1.581139 -1.581139 
C -2.000462 -1.161816 -2.236068 -0.593012 -2.236068 0 
C -2.236068 0.593012 -2.000462 1.161816 -1.581139 1.581139 
C -1.161816 2.000462 -0.593012 2.236068 0 2.236068 
z
" style="stroke: #ffffff; stroke-width: 0.357771"/>
    </defs>
    <g clip-path="url(#p15b3b3cc05)">
     <use xlink:href="#m1a15aadde7" x="103.879426" y="106.753684" style="fill: #1f77b4; stroke: #ffffff; stroke-width: 0.357771"/>
     <use xlink:href="#m1a15aadde7" x="108.620277" y="126.587578" style="fill: #1f77b4; stroke: #ffffff; stroke-width: 0.357771"/>
     <use xlink:href="#m1a15aadde7" x="114.038391" y="140.561458" style="fill: #1f77b4; stroke: #ffffff; stroke-width: 0.357771"/>
     <use xlink:href="#m1a15aadde7" x="124.197357" y="154.234824" style="fill: #1f77b4; stroke: #ffffff; stroke-width: 0.357771"/>
     <use xlink:href="#m1a15aadde7" x="134.356321" y="159.193297" style="fill: #1f77b4; stroke: #ffffff; stroke-width: 0.357771"/>
     <use xlink:href="#m1a15aadde7" x="144.515287" y="169.110244" style="fill: #1f77b4; stroke: #ffffff; stroke-width: 0.357771"/>
     <use xlink:href="#m1a15aadde7" x="154.674253" y="167.90819" style="fill: #1f77b4; stroke: #ffffff; stroke-width: 0.357771"/>
     <use xlink:href="#m1a15aadde7" x="174.992181" y="173.918461" style="fill: #1f77b4; stroke: #ffffff; stroke-width: 0.357771"/>
     <use xlink:href="#m1a15aadde7" x="205.469078" y="176.77334" style="fill: #1f77b4; stroke: #ffffff; stroke-width: 0.357771"/>
     <use xlink:href="#m1a15aadde7" x="225.787013" y="178.426164" style="fill: #1f77b4; stroke: #ffffff; stroke-width: 0.357771"/>
    </g>
   </g>
   <g id="matplotlib.axis_1">
    <g id="xtick_1">
     <g id="line2d_2">
      <defs>
       <path id="mc85f0d6f22" d="M 0 0 
L 0 -4 
" style="stroke: #000000; stroke-width: 0.6"/>
      </defs>
      <g>
       <use xlink:href="#mc85f0d6f22" x="76.462168" y="218.49952" style="stroke: #000000; stroke-width: 0.6"/>
      </g>
     </g>
     <g id="line2d_3">
      <defs>
       <path id="m4823483271" d="M 0 0 
L 0 4 
" style="stroke: #000000; stroke-width: 0.6"/>
      </defs>
      <g>
       <use xlink:href="#m4823483271" x="76.462168" y="17.8" style="stroke: #000000; stroke-width: 0.6"/>
      </g>
     </g>
     <g id="text_1">
      <!-- $\mathdefault{0}$ -->
      <g transform="translate(73.562168 229.59952) scale(0.1 -0.1)">
       <defs>
        <path id="NotoSans-Regular-30" d="M 3347 2291 
Q 3347 1734 3264 1299 
Q 3181 864 2998 560 
Q 2816 256 2525 96 
Q 2234 -64 1824 -64 
Q 1312 -64 976 217 
Q 640 499 477 1027 
Q 314 1555 314 2291 
Q 314 3034 464 3558 
Q 614 4083 947 4361 
Q 1280 4640 1824 4640 
Q 2336 4640 2675 4361 
Q 3014 4083 3180 3558 
Q 3347 3034 3347 2291 
z
M 877 2291 
Q 877 1664 969 1248 
Q 1062 832 1270 624 
Q 1478 416 1824 416 
Q 2170 416 2378 621 
Q 2586 826 2682 1245 
Q 2778 1664 2778 2291 
Q 2778 2918 2682 3331 
Q 2586 3744 2378 3952 
Q 2170 4160 1824 4160 
Q 1478 4160 1270 3952 
Q 1062 3744 969 3331 
Q 877 2918 877 2291 
z
" transform="scale(0.015625)"/>
       </defs>
       <use xlink:href="#NotoSans-Regular-30" transform="translate(0 0.5)"/>
      </g>
     </g>
    </g>
    <g id="xtick_2">
     <g id="line2d_4">
      <g>
       <use xlink:href="#mc85f0d6f22" x="127.221854" y="218.49952" style="stroke: #000000; stroke-width: 0.6"/>
      </g>
     </g>
     <g id="line2d_5">
      <g>
       <use xlink:href="#m4823483271" x="127.221854" y="17.8" style="stroke: #000000; stroke-width: 0.6"/>
      </g>
     </g>
     <g id="text_2">
      <!-- $\mathdefault{5}$ -->
      <g transform="translate(124.321854 229.59952) scale(0.1 -0.1)">
       <defs>
        <path id="NotoSans-Regular-35" d="M 1760 2803 
Q 2227 2803 2572 2643 
Q 2918 2483 3107 2185 
Q 3296 1888 3296 1459 
Q 3296 986 3091 643 
Q 2886 301 2505 118 
Q 2125 -64 1587 -64 
Q 1235 -64 924 0 
Q 614 64 403 186 
L 403 717 
Q 634 576 963 496 
Q 1293 416 1594 416 
Q 1933 416 2185 521 
Q 2438 627 2579 848 
Q 2720 1069 2720 1402 
Q 2720 1850 2445 2090 
Q 2170 2330 1574 2330 
Q 1395 2330 1164 2298 
Q 934 2266 794 2234 
L 512 2413 
L 685 4570 
L 2976 4570 
L 2976 4058 
L 1165 4058 
L 1056 2733 
Q 1165 2752 1350 2777 
Q 1536 2803 1760 2803 
z
" transform="scale(0.015625)"/>
       </defs>
       <use xlink:href="#NotoSans-Regular-35" transform="translate(0 0.59375)"/>
      </g>
     </g>
    </g>
    <g id="xtick_3">
     <g id="line2d_6">
      <g>
       <use xlink:href="#mc85f0d6f22" x="177.98154" y="218.49952" style="stroke: #000000; stroke-width: 0.6"/>
      </g>
     </g>
     <g id="line2d_7">
      <g>
       <use xlink:href="#m4823483271" x="177.98154" y="17.8" style="stroke: #000000; stroke-width: 0.6"/>
      </g>
     </g>
     <g id="text_3">
      <!-- $\mathdefault{10}$ -->
      <g transform="translate(172.23154 229.59952) scale(0.1 -0.1)">
       <defs>
        <path id="NotoSans-Regular-31" d="M 2272 0 
L 1722 0 
L 1722 3194 
Q 1722 3379 1725 3507 
Q 1728 3635 1734 3747 
Q 1741 3859 1747 3981 
Q 1645 3878 1561 3808 
Q 1478 3738 1350 3629 
L 864 3232 
L 570 3610 
L 1805 4570 
L 2272 4570 
L 2272 0 
z
" transform="scale(0.015625)"/>
       </defs>
       <use xlink:href="#NotoSans-Regular-31" transform="translate(0 0.5)"/>
       <use xlink:href="#NotoSans-Regular-30" transform="translate(57.199997 0.5)"/>
      </g>
     </g>
    </g>
    <g id="xtick_4">
     <g id="line2d_8">
      <g>
       <use xlink:href="#mc85f0d6f22" x="228.741227" y="218.49952" style="stroke: #000000; stroke-width: 0.6"/>
      </g>
     </g>
     <g id="line2d_9">
      <g>
       <use xlink:href="#m4823483271" x="228.741227" y="17.8" style="stroke: #000000; stroke-width: 0.6"/>
      </g>
     </g>
     <g id="text_4">
      <!-- $\mathdefault{15}$ -->
      <g transform="translate(222.991227 229.59952) scale(0.1 -0.1)">
       <use xlink:href="#NotoSans-Regular-31" transform="translate(0 0.59375)"/>
       <use xlink:href="#NotoSans-Regular-35" transform="translate(57.199997 0.59375)"/>
      </g>
     </g>
    </g>
    <g id="text_5">
     <!-- pp_delay -->
     <g transform="translate(121.539604 243.59952) scale(0.1 -0.1)">
      <defs>
       <path id="NotoSans-Regular-70" d="M 2176 3494 
Q 2810 3494 3197 3052 
Q 3584 2611 3584 1722 
Q 3584 1139 3408 739 
Q 3232 339 2915 137 
Q 2598 -64 2170 -64 
Q 1907 -64 1702 6 
Q 1498 77 1354 189 
Q 1210 301 1107 435 
L 1069 435 
Q 1082 326 1094 160 
Q 1107 -6 1107 -128 
L 1107 -1536 
L 544 -1536 
L 544 3430 
L 1005 3430 
L 1082 2963 
L 1107 2963 
Q 1210 3110 1354 3232 
Q 1498 3354 1699 3424 
Q 1901 3494 2176 3494 
z
M 2074 3021 
Q 1728 3021 1517 2889 
Q 1306 2758 1210 2496 
Q 1114 2234 1107 1830 
L 1107 1722 
Q 1107 1299 1196 1004 
Q 1286 710 1500 556 
Q 1715 403 2086 403 
Q 2400 403 2601 576 
Q 2803 749 2902 1046 
Q 3002 1344 3002 1728 
Q 3002 2317 2774 2669 
Q 2547 3021 2074 3021 
z
" transform="scale(0.015625)"/>
       <path id="NotoSans-Regular-5f" d="M 2854 -986 
L -13 -986 
L -13 -576 
L 2854 -576 
L 2854 -986 
z
" transform="scale(0.015625)"/>
       <path id="NotoSans-Regular-64" d="M 1760 -64 
Q 1120 -64 736 381 
Q 352 826 352 1709 
Q 352 2592 739 3043 
Q 1126 3494 1766 3494 
Q 2035 3494 2233 3427 
Q 2432 3360 2579 3245 
Q 2726 3130 2829 2989 
L 2867 2989 
Q 2861 3072 2845 3235 
Q 2829 3398 2829 3494 
L 2829 4864 
L 3392 4864 
L 3392 0 
L 2938 0 
L 2854 461 
L 2829 461 
Q 2726 314 2579 195 
Q 2432 77 2230 6 
Q 2029 -64 1760 -64 
z
M 1850 403 
Q 2394 403 2614 700 
Q 2835 998 2835 1600 
L 2835 1702 
Q 2835 2342 2624 2684 
Q 2413 3027 1843 3027 
Q 1389 3027 1161 2665 
Q 934 2304 934 1696 
Q 934 1082 1161 742 
Q 1389 403 1850 403 
z
" transform="scale(0.015625)"/>
       <path id="NotoSans-Regular-65" d="M 1869 3494 
Q 2310 3494 2627 3302 
Q 2944 3110 3113 2761 
Q 3283 2413 3283 1946 
L 3283 1606 
L 934 1606 
Q 947 1024 1232 720 
Q 1517 416 2029 416 
Q 2355 416 2608 477 
Q 2861 538 3130 653 
L 3130 160 
Q 2867 45 2611 -9 
Q 2355 -64 2003 -64 
Q 1517 -64 1142 134 
Q 768 333 560 726 
Q 352 1120 352 1690 
Q 352 2253 541 2656 
Q 730 3059 1072 3276 
Q 1414 3494 1869 3494 
z
M 1862 3034 
Q 1459 3034 1225 2774 
Q 992 2515 947 2054 
L 2694 2054 
Q 2694 2349 2604 2566 
Q 2515 2784 2332 2909 
Q 2150 3034 1862 3034 
z
" transform="scale(0.015625)"/>
       <path id="NotoSans-Regular-6c" d="M 1107 0 
L 544 0 
L 544 4864 
L 1107 4864 
L 1107 0 
z
" transform="scale(0.015625)"/>
       <path id="NotoSans-Regular-61" d="M 1843 3488 
Q 2470 3488 2771 3213 
Q 3072 2938 3072 2336 
L 3072 0 
L 2662 0 
L 2554 486 
L 2528 486 
Q 2381 301 2224 176 
Q 2067 51 1865 -6 
Q 1664 -64 1376 -64 
Q 1069 -64 822 45 
Q 576 154 435 381 
Q 294 608 294 954 
Q 294 1466 697 1744 
Q 1101 2022 1939 2048 
L 2522 2067 
L 2522 2272 
Q 2522 2701 2336 2867 
Q 2150 3034 1811 3034 
Q 1542 3034 1299 2954 
Q 1056 2874 845 2771 
L 672 3194 
Q 896 3315 1203 3401 
Q 1510 3488 1843 3488 
z
M 2010 1658 
Q 1370 1632 1123 1453 
Q 877 1274 877 947 
Q 877 659 1053 524 
Q 1229 390 1504 390 
Q 1939 390 2227 630 
Q 2515 870 2515 1370 
L 2515 1677 
L 2010 1658 
z
" transform="scale(0.015625)"/>
       <path id="NotoSans-Regular-79" d="M 6 3430 
L 608 3430 
L 1350 1478 
Q 1414 1306 1468 1146 
Q 1523 986 1568 835 
Q 1613 685 1638 544 
L 1664 544 
Q 1702 704 1785 963 
Q 1869 1222 1958 1485 
L 2656 3430 
L 3264 3430 
L 1786 -474 
Q 1664 -794 1501 -1034 
Q 1338 -1274 1104 -1405 
Q 870 -1536 538 -1536 
Q 384 -1536 269 -1520 
Q 154 -1504 70 -1485 
L 70 -1037 
Q 141 -1050 240 -1062 
Q 339 -1075 448 -1075 
Q 646 -1075 790 -1001 
Q 934 -928 1036 -790 
Q 1139 -653 1210 -467 
L 1389 -13 
L 6 3430 
z
" transform="scale(0.015625)"/>
      </defs>
      <use xlink:href="#NotoSans-Regular-70"/>
      <use xlink:href="#NotoSans-Regular-70" x="61.499985"/>
      <use xlink:href="#NotoSans-Regular-5f" x="122.999969"/>
      <use xlink:href="#NotoSans-Regular-64" x="167.399963"/>
      <use xlink:href="#NotoSans-Regular-65" x="228.899948"/>
      <use xlink:href="#NotoSans-Regular-6c" x="285.299942"/>
      <use xlink:href="#NotoSans-Regular-61" x="311.09993"/>
      <use xlink:href="#NotoSans-Regular-79" x="367.199921"/>
     </g>
    </g>
   </g>
   <g id="matplotlib.axis_2">
    <g id="ytick_1">
     <g id="line2d_10">
      <defs>
       <path id="m4f33c37f8f" d="M 0 0 
L 4 0 
" style="stroke: #000000; stroke-width: 0.6"/>
      </defs>
      <g>
       <use xlink:href="#m4f33c37f8f" x="38.9" y="201.77456" style="stroke: #000000; stroke-width: 0.6"/>
      </g>
     </g>
     <g id="line2d_11">
      <defs>
       <path id="m7da60e53fb" d="M 0 0 
L -4 0 
" style="stroke: #000000; stroke-width: 0.6"/>
      </defs>
      <g>
       <use xlink:href="#m7da60e53fb" x="245.99952" y="201.77456" style="stroke: #000000; stroke-width: 0.6"/>
      </g>
     </g>
     <g id="text_6">
      <!-- $\mathdefault{0.0}$ -->
      <g transform="translate(21.2 205.57456) scale(0.1 -0.1)">
       <defs>
        <path id="NotoSans-Regular-2e" d="M 461 346 
Q 461 582 576 678 
Q 691 774 851 774 
Q 1018 774 1136 678 
Q 1254 582 1254 346 
Q 1254 115 1136 12 
Q 1018 -90 851 -90 
Q 691 -90 576 12 
Q 461 115 461 346 
z
" transform="scale(0.015625)"/>
       </defs>
       <use xlink:href="#NotoSans-Regular-30" transform="translate(0 0.5)"/>
       <use xlink:href="#NotoSans-Regular-2e" transform="translate(57.199997 0.5)"/>
       <use xlink:href="#NotoSans-Regular-30" transform="translate(83.999985 0.5)"/>
      </g>
     </g>
    </g>
    <g id="ytick_2">
     <g id="line2d_12">
      <g>
       <use xlink:href="#m4f33c37f8f" x="38.9" y="168.32464" style="stroke: #000000; stroke-width: 0.6"/>
      </g>
     </g>
     <g id="line2d_13">
      <g>
       <use xlink:href="#m7da60e53fb" x="245.99952" y="168.32464" style="stroke: #000000; stroke-width: 0.6"/>
      </g>
     </g>
     <g id="text_7">
      <!-- $\mathdefault{0.2}$ -->
      <g transform="translate(21.2 172.12464) scale(0.1 -0.1)">
       <defs>
        <path id="NotoSans-Regular-32" d="M 3328 0 
L 307 0 
L 307 467 
L 1504 1677 
Q 1850 2022 2086 2291 
Q 2323 2560 2444 2819 
Q 2566 3078 2566 3386 
Q 2566 3763 2342 3958 
Q 2118 4154 1760 4154 
Q 1427 4154 1174 4038 
Q 922 3923 659 3718 
L 358 4096 
Q 538 4250 752 4371 
Q 966 4493 1219 4563 
Q 1472 4634 1760 4634 
Q 2189 4634 2496 4486 
Q 2803 4339 2972 4067 
Q 3142 3795 3142 3418 
Q 3142 3059 2995 2745 
Q 2848 2432 2585 2128 
Q 2323 1824 1971 1478 
L 1018 538 
L 1018 512 
L 3328 512 
L 3328 0 
z
" transform="scale(0.015625)"/>
       </defs>
       <use xlink:href="#NotoSans-Regular-30" transform="translate(0 0.5)"/>
       <use xlink:href="#NotoSans-Regular-2e" transform="translate(57.199997 0.5)"/>
       <use xlink:href="#NotoSans-Regular-32" transform="translate(83.999985 0.5)"/>
      </g>
     </g>
    </g>
    <g id="ytick_3">
     <g id="line2d_14">
      <g>
       <use xlink:href="#m4f33c37f8f" x="38.9" y="134.87472" style="stroke: #000000; stroke-width: 0.6"/>
      </g>
     </g>
     <g id="line2d_15">
      <g>
       <use xlink:href="#m7da60e53fb" x="245.99952" y="134.87472" style="stroke: #000000; stroke-width: 0.6"/>
      </g>
     </g>
     <g id="text_8">
      <!-- $\mathdefault{0.4}$ -->
      <g transform="translate(21.2 138.67472) scale(0.1 -0.1)">
       <defs>
        <path id="NotoSans-Regular-34" d="M 3533 1037 
L 2867 1037 
L 2867 0 
L 2323 0 
L 2323 1037 
L 134 1037 
L 134 1517 
L 2285 4595 
L 2867 4595 
L 2867 1542 
L 3533 1542 
L 3533 1037 
z
M 2323 2982 
Q 2323 3149 2326 3286 
Q 2330 3424 2336 3545 
Q 2342 3667 2345 3779 
Q 2349 3891 2355 3994 
L 2330 3994 
Q 2278 3872 2201 3731 
Q 2125 3590 2054 3494 
L 685 1542 
L 2323 1542 
L 2323 2982 
z
" transform="scale(0.015625)"/>
       </defs>
       <use xlink:href="#NotoSans-Regular-30" transform="translate(0 0.5)"/>
       <use xlink:href="#NotoSans-Regular-2e" transform="translate(57.199997 0.5)"/>
       <use xlink:href="#NotoSans-Regular-34" transform="translate(83.999985 0.5)"/>
      </g>
     </g>
    </g>
    <g id="ytick_4">
     <g id="line2d_16">
      <g>
       <use xlink:href="#m4f33c37f8f" x="38.9" y="101.4248" style="stroke: #000000; stroke-width: 0.6"/>
      </g>
     </g>
     <g id="line2d_17">
      <g>
       <use xlink:href="#m7da60e53fb" x="245.99952" y="101.4248" style="stroke: #000000; stroke-width: 0.6"/>
      </g>
     </g>
     <g id="text_9">
      <!-- $\mathdefault{0.6}$ -->
      <g transform="translate(21.2 105.2248) scale(0.1 -0.1)">
       <defs>
        <path id="NotoSans-Regular-36" d="M 352 1952 
Q 352 2349 406 2733 
Q 461 3117 595 3459 
Q 730 3802 966 4067 
Q 1203 4333 1564 4483 
Q 1926 4634 2445 4634 
Q 2579 4634 2742 4621 
Q 2906 4608 3008 4576 
L 3008 4096 
Q 2893 4134 2749 4153 
Q 2605 4173 2458 4173 
Q 2016 4173 1721 4025 
Q 1427 3878 1257 3622 
Q 1088 3366 1011 3033 
Q 934 2701 915 2323 
L 954 2323 
Q 1050 2477 1197 2598 
Q 1344 2720 1552 2790 
Q 1760 2861 2035 2861 
Q 2432 2861 2729 2697 
Q 3027 2534 3193 2224 
Q 3360 1914 3360 1472 
Q 3360 998 3181 652 
Q 3002 307 2678 121 
Q 2355 -64 1907 -64 
Q 1581 -64 1299 57 
Q 1018 179 803 428 
Q 589 678 470 1059 
Q 352 1440 352 1952 
z
M 1901 410 
Q 2304 410 2553 669 
Q 2803 928 2803 1472 
Q 2803 1907 2582 2163 
Q 2362 2419 1920 2419 
Q 1619 2419 1395 2294 
Q 1171 2170 1046 1978 
Q 922 1786 922 1581 
Q 922 1370 982 1165 
Q 1043 960 1168 787 
Q 1293 614 1475 512 
Q 1658 410 1901 410 
z
" transform="scale(0.015625)"/>
       </defs>
       <use xlink:href="#NotoSans-Regular-30" transform="translate(0 0.5)"/>
       <use xlink:href="#NotoSans-Regular-2e" transform="translate(57.199997 0.5)"/>
       <use xlink:href="#NotoSans-Regular-36" transform="translate(83.999985 0.5)"/>
      </g>
     </g>
    </g>
    <g id="ytick_5">
     <g id="line2d_18">
      <g>
       <use xlink:href="#m4f33c37f8f" x="38.9" y="67.97488" style="stroke: #000000; stroke-width: 0.6"/>
      </g>
     </g>
     <g id="line2d_19">
      <g>
       <use xlink:href="#m7da60e53fb" x="245.99952" y="67.97488" style="stroke: #000000; stroke-width: 0.6"/>
      </g>
     </g>
     <g id="text_10">
      <!-- $\mathdefault{0.8}$ -->
      <g transform="translate(21.2 71.77488) scale(0.1 -0.1)">
       <defs>
        <path id="NotoSans-Regular-38" d="M 1824 4634 
Q 2227 4634 2534 4509 
Q 2842 4384 3018 4141 
Q 3194 3898 3194 3539 
Q 3194 3264 3075 3059 
Q 2957 2854 2758 2697 
Q 2560 2541 2323 2419 
Q 2605 2285 2835 2115 
Q 3066 1946 3203 1722 
Q 3341 1498 3341 1184 
Q 3341 800 3155 521 
Q 2970 243 2634 89 
Q 2298 -64 1843 -64 
Q 1350 -64 1008 83 
Q 666 230 490 502 
Q 314 774 314 1165 
Q 314 1478 445 1708 
Q 576 1939 793 2105 
Q 1011 2272 1261 2387 
Q 1037 2515 854 2678 
Q 672 2842 566 3053 
Q 461 3264 461 3546 
Q 461 3898 640 4138 
Q 819 4378 1126 4506 
Q 1434 4634 1824 4634 
z
M 864 1158 
Q 864 826 1101 605 
Q 1338 384 1830 384 
Q 2298 384 2544 605 
Q 2790 826 2790 1178 
Q 2790 1402 2672 1571 
Q 2554 1741 2339 1875 
Q 2125 2010 1830 2118 
L 1728 2157 
Q 1446 2035 1254 1894 
Q 1062 1754 963 1574 
Q 864 1395 864 1158 
z
M 1818 4179 
Q 1466 4179 1238 4009 
Q 1011 3840 1011 3520 
Q 1011 3283 1123 3123 
Q 1235 2963 1427 2851 
Q 1619 2739 1850 2637 
Q 2074 2733 2250 2848 
Q 2426 2963 2531 3126 
Q 2637 3290 2637 3520 
Q 2637 3840 2413 4009 
Q 2189 4179 1818 4179 
z
" transform="scale(0.015625)"/>
       </defs>
       <use xlink:href="#NotoSans-Regular-30" transform="translate(0 0.5)"/>
       <use xlink:href="#NotoSans-Regular-2e" transform="translate(57.199997 0.5)"/>
       <use xlink:href="#NotoSans-Regular-38" transform="translate(83.999985 0.5)"/>
      </g>
     </g>
    </g>
    <g id="ytick_6">
     <g id="line2d_20">
      <g>
       <use xlink:href="#m4f33c37f8f" x="38.9" y="34.52496" style="stroke: #000000; stroke-width: 0.6"/>
      </g>
     </g>
     <g id="line2d_21">
      <g>
       <use xlink:href="#m7da60e53fb" x="245.99952" y="34.52496" style="stroke: #000000; stroke-width: 0.6"/>
      </g>
     </g>
     <g id="text_11">
      <!-- $\mathdefault{1.0}$ -->
      <g transform="translate(21.2 38.32496) scale(0.1 -0.1)">
       <use xlink:href="#NotoSans-Regular-31" transform="translate(0 0.5)"/>
       <use xlink:href="#NotoSans-Regular-2e" transform="translate(57.199997 0.5)"/>
       <use xlink:href="#NotoSans-Regular-30" transform="translate(83.999985 0.5)"/>
      </g>
     </g>
    </g>
    <g id="text_12">
     <!-- delta_cond -->
     <g transform="translate(14.8 143.754448) rotate(-90) scale(0.1 -0.1)">
      <defs>
       <path id="NotoSans-Regular-74" d="M 1690 397 
Q 1818 397 1952 419 
Q 2086 442 2170 467 
L 2170 38 
Q 2080 -6 1913 -35 
Q 1747 -64 1594 -64 
Q 1325 -64 1097 29 
Q 870 122 729 352 
Q 589 582 589 998 
L 589 2995 
L 102 2995 
L 102 3264 
L 595 3488 
L 819 4218 
L 1152 4218 
L 1152 3430 
L 2144 3430 
L 2144 2995 
L 1152 2995 
L 1152 1011 
Q 1152 698 1302 547 
Q 1453 397 1690 397 
z
" transform="scale(0.015625)"/>
       <path id="NotoSans-Regular-63" d="M 1920 -64 
Q 1466 -64 1110 121 
Q 755 307 553 697 
Q 352 1088 352 1696 
Q 352 2330 563 2726 
Q 774 3123 1136 3308 
Q 1498 3494 1958 3494 
Q 2221 3494 2464 3440 
Q 2707 3386 2861 3309 
L 2688 2842 
Q 2534 2899 2329 2950 
Q 2125 3002 1946 3002 
Q 1600 3002 1376 2854 
Q 1152 2707 1043 2419 
Q 934 2131 934 1702 
Q 934 1293 1043 1005 
Q 1152 717 1369 569 
Q 1587 422 1914 422 
Q 2195 422 2409 480 
Q 2624 538 2803 621 
L 2803 122 
Q 2630 32 2422 -16 
Q 2214 -64 1920 -64 
z
" transform="scale(0.015625)"/>
       <path id="NotoSans-Regular-6f" d="M 3526 1722 
Q 3526 1293 3414 963 
Q 3302 634 3094 403 
Q 2886 173 2588 54 
Q 2291 -64 1926 -64 
Q 1587 -64 1299 54 
Q 1011 173 800 403 
Q 589 634 470 963 
Q 352 1293 352 1722 
Q 352 2291 544 2684 
Q 736 3078 1094 3286 
Q 1453 3494 1946 3494 
Q 2413 3494 2768 3286 
Q 3123 3078 3324 2684 
Q 3526 2291 3526 1722 
z
M 934 1722 
Q 934 1318 1040 1020 
Q 1146 723 1370 563 
Q 1594 403 1939 403 
Q 2285 403 2509 563 
Q 2733 723 2838 1020 
Q 2944 1318 2944 1722 
Q 2944 2131 2835 2419 
Q 2726 2707 2505 2864 
Q 2285 3021 1933 3021 
Q 1408 3021 1171 2675 
Q 934 2330 934 1722 
z
" transform="scale(0.015625)"/>
       <path id="NotoSans-Regular-6e" d="M 2195 3494 
Q 2810 3494 3123 3196 
Q 3437 2899 3437 2234 
L 3437 0 
L 2880 0 
L 2880 2195 
Q 2880 2611 2694 2816 
Q 2509 3021 2112 3021 
Q 1542 3021 1324 2701 
Q 1107 2381 1107 1779 
L 1107 0 
L 544 0 
L 544 3430 
L 998 3430 
L 1082 2963 
L 1114 2963 
Q 1229 3142 1398 3260 
Q 1568 3379 1773 3436 
Q 1978 3494 2195 3494 
z
" transform="scale(0.015625)"/>
      </defs>
      <use xlink:href="#NotoSans-Regular-64"/>
      <use xlink:href="#NotoSans-Regular-65" x="61.499985"/>
      <use xlink:href="#NotoSans-Regular-6c" x="117.899979"/>
      <use xlink:href="#NotoSans-Regular-74" x="143.699966"/>
      <use xlink:href="#NotoSans-Regular-61" x="179.799957"/>
      <use xlink:href="#NotoSans-Regular-5f" x="235.899948"/>
      <use xlink:href="#NotoSans-Regular-63" x="280.299942"/>
      <use xlink:href="#NotoSans-Regular-6f" x="328.299927"/>
      <use xlink:href="#NotoSans-Regular-6e" x="388.799911"/>
      <use xlink:href="#NotoSans-Regular-64" x="450.599899"/>
     </g>
    </g>
    <g id="text_13">
     <!-- $\times\mathdefault{10^{5}}\mathdefault{}$ -->
     <g transform="translate(38.9 14.8) scale(0.1 -0.1)">
      <defs>
       <path id="NotoSans-Regular-d7" d="M 2918 3674 
L 3238 3347 
L 2150 2259 
L 3232 1171 
L 2912 845 
L 1818 1926 
L 749 845 
L 416 1171 
L 1498 2259 
L 410 3341 
L 742 3674 
L 1824 2579 
L 2918 3674 
z
" transform="scale(0.015625)"/>
      </defs>
      <use xlink:href="#NotoSans-Regular-d7" transform="translate(0 0.5)"/>
      <use xlink:href="#NotoSans-Regular-31" transform="translate(57.199997 0.5)"/>
      <use xlink:href="#NotoSans-Regular-30" transform="translate(114.399994 0.5)"/>
      <use xlink:href="#NotoSans-Regular-35" transform="translate(172.537881 38.015625) scale(0.7)"/>
     </g>
    </g>
   </g>
   <g id="patch_3">
    <path d="M 38.9 218.49952 
L 38.9 17.8 
" style="fill: none; stroke: #000000; stroke-width: 0.6; stroke-linejoin: miter; stroke-linecap: square"/>
   </g>
   <g id="patch_4">
    <path d="M 245.99952 218.49952 
L 245.99952 17.8 
" style="fill: none; stroke: #000000; stroke-width: 0.6; stroke-linejoin: miter; stroke-linecap: square"/>
   </g>
   <g id="patch_5">
    <path d="M 38.9 218.49952 
L 245.99952 218.49952 
" style="fill: none; stroke: #000000; stroke-width: 0.6; stroke-linejoin: miter; stroke-linecap: square"/>
   </g>
   <g id="patch_6">
    <path d="M 38.9 17.8 
L 245.99952 17.8 
" style="fill: none; stroke: #000000; stroke-width: 0.6; stroke-linejoin: miter; stroke-linecap: square"/>
   </g>
  </g>
 </g>
 <defs>
  <clipPath id="p15b3b3cc05">
   <rect x="38.9" y="17.8" width="207.09952" height="200.69952"/>
  </clipPath>
 </defs>
</svg>
