<?xml version="1.0" encoding="utf-8" standalone="no"?>
<!DOCTYPE svg PUBLIC "-//W3C//DTD SVG 1.1//EN"
  "http://www.w3.org/Graphics/SVG/1.1/DTD/svg11.dtd">
<svg xmlns:xlink="http://www.w3.org/1999/xlink" width="253.19952pt" height="253.19952pt" viewBox="0 0 253.19952 253.19952" xmlns="http://www.w3.org/2000/svg" version="1.1">
 <metadata>
  <rdf:RDF xmlns:dc="http://purl.org/dc/elements/1.1/" xmlns:cc="http://creativecommons.org/ns#" xmlns:rdf="http://www.w3.org/1999/02/22-rdf-syntax-ns#">
   <cc:Work>
    <dc:type rdf:resource="http://purl.org/dc/dcmitype/StillImage"/>
    <dc:date>2024-07-06T12:09:16.215893</dc:date>
    <dc:format>image/svg+xml</dc:format>
    <dc:creator>
     <cc:Agent>
      <dc:title>Matplotlib v3.9.0, https://matplotlib.org/</dc:title>
     </cc:Agent>
    </dc:creator>
   </cc:Work>
  </rdf:RDF>
 </metadata>
 <defs>
  <style type="text/css">*{stroke-linejoin: round; stroke-linecap: butt}</style>
 </defs>
 <g id="figure_1">
  <g id="patch_1">
   <path d="M 0 253.19952 
L 253.19952 253.19952 
L 253.19952 0 
L 0 0 
z
" style="fill: #ffffff"/>
  </g>
  <g id="axes_1">
   <g id="patch_2">
    <path d="M 42.1 218.49952 
L 245.99952 218.49952 
L 245.99952 17.8 
L 42.1 17.8 
z
" style="fill: #ffffff"/>
   </g>
   <g id="PolyCollection_1">
    <path d="M 87.536589 163.488419 
L 87.536589 166.12626 
L 87.536589 163.488419 
L 87.536589 163.488419 
z
" clip-path="url(#pacb374ce75)" style="fill: #ff8c00; fill-opacity: 0.2; stroke: #ff8c00; stroke-opacity: 0.2"/>
    <path d="M 168.915555 171.981196 
L 168.915555 174.249734 
L 168.915555 171.981196 
L 168.915555 171.981196 
z
" clip-path="url(#pacb374ce75)" style="fill: #ff8c00; fill-opacity: 0.2; stroke: #ff8c00; stroke-opacity: 0.2"/>
   </g>
   <g id="matplotlib.axis_1">
    <g id="xtick_1">
     <g id="line2d_1">
      <defs>
       <path id="m7ff64ff7d7" d="M 0 0 
L 0 -4 
" style="stroke: #000000; stroke-width: 0.6"/>
      </defs>
      <g>
       <use xlink:href="#m7ff64ff7d7" x="46.847106" y="218.49952" style="stroke: #000000; stroke-width: 0.6"/>
      </g>
     </g>
     <g id="line2d_2">
      <defs>
       <path id="m547a3603f2" d="M 0 0 
L 0 4 
" style="stroke: #000000; stroke-width: 0.6"/>
      </defs>
      <g>
       <use xlink:href="#m547a3603f2" x="46.847106" y="17.8" style="stroke: #000000; stroke-width: 0.6"/>
      </g>
     </g>
     <g id="text_1">
      <!-- $\mathdefault{0}$ -->
      <g transform="translate(43.947106 229.59952) scale(0.1 -0.1)">
       <defs>
        <path id="NotoSans-Regular-30" d="M 3347 2291 
Q 3347 1734 3264 1299 
Q 3181 864 2998 560 
Q 2816 256 2525 96 
Q 2234 -64 1824 -64 
Q 1312 -64 976 217 
Q 640 499 477 1027 
Q 314 1555 314 2291 
Q 314 3034 464 3558 
Q 614 4083 947 4361 
Q 1280 4640 1824 4640 
Q 2336 4640 2675 4361 
Q 3014 4083 3180 3558 
Q 3347 3034 3347 2291 
z
M 877 2291 
Q 877 1664 969 1248 
Q 1062 832 1270 624 
Q 1478 416 1824 416 
Q 2170 416 2378 621 
Q 2586 826 2682 1245 
Q 2778 1664 2778 2291 
Q 2778 2918 2682 3331 
Q 2586 3744 2378 3952 
Q 2170 4160 1824 4160 
Q 1478 4160 1270 3952 
Q 1062 3744 969 3331 
Q 877 2918 877 2291 
z
" transform="scale(0.015625)"/>
       </defs>
       <use xlink:href="#NotoSans-Regular-30" transform="translate(0 0.5)"/>
      </g>
     </g>
    </g>
    <g id="xtick_2">
     <g id="line2d_3">
      <g>
       <use xlink:href="#m7ff64ff7d7" x="92.057643" y="218.49952" style="stroke: #000000; stroke-width: 0.6"/>
      </g>
     </g>
     <g id="line2d_4">
      <g>
       <use xlink:href="#m547a3603f2" x="92.057643" y="17.8" style="stroke: #000000; stroke-width: 0.6"/>
      </g>
     </g>
     <g id="text_2">
      <!-- $\mathdefault{50}$ -->
      <g transform="translate(86.307643 229.59952) scale(0.1 -0.1)">
       <defs>
        <path id="NotoSans-Regular-35" d="M 1760 2803 
Q 2227 2803 2572 2643 
Q 2918 2483 3107 2185 
Q 3296 1888 3296 1459 
Q 3296 986 3091 643 
Q 2886 301 2505 118 
Q 2125 -64 1587 -64 
Q 1235 -64 924 0 
Q 614 64 403 186 
L 403 717 
Q 634 576 963 496 
Q 1293 416 1594 416 
Q 1933 416 2185 521 
Q 2438 627 2579 848 
Q 2720 1069 2720 1402 
Q 2720 1850 2445 2090 
Q 2170 2330 1574 2330 
Q 1395 2330 1164 2298 
Q 934 2266 794 2234 
L 512 2413 
L 685 4570 
L 2976 4570 
L 2976 4058 
L 1165 4058 
L 1056 2733 
Q 1165 2752 1350 2777 
Q 1536 2803 1760 2803 
z
" transform="scale(0.015625)"/>
       </defs>
       <use xlink:href="#NotoSans-Regular-35" transform="translate(0 0.5)"/>
       <use xlink:href="#NotoSans-Regular-30" transform="translate(57.199997 0.5)"/>
      </g>
     </g>
    </g>
    <g id="xtick_3">
     <g id="line2d_5">
      <g>
       <use xlink:href="#m7ff64ff7d7" x="137.26818" y="218.49952" style="stroke: #000000; stroke-width: 0.6"/>
      </g>
     </g>
     <g id="line2d_6">
      <g>
       <use xlink:href="#m547a3603f2" x="137.26818" y="17.8" style="stroke: #000000; stroke-width: 0.6"/>
      </g>
     </g>
     <g id="text_3">
      <!-- $\mathdefault{100}$ -->
      <g transform="translate(128.66818 229.59952) scale(0.1 -0.1)">
       <defs>
        <path id="NotoSans-Regular-31" d="M 2272 0 
L 1722 0 
L 1722 3194 
Q 1722 3379 1725 3507 
Q 1728 3635 1734 3747 
Q 1741 3859 1747 3981 
Q 1645 3878 1561 3808 
Q 1478 3738 1350 3629 
L 864 3232 
L 570 3610 
L 1805 4570 
L 2272 4570 
L 2272 0 
z
" transform="scale(0.015625)"/>
       </defs>
       <use xlink:href="#NotoSans-Regular-31" transform="translate(0 0.5)"/>
       <use xlink:href="#NotoSans-Regular-30" transform="translate(57.199997 0.5)"/>
       <use xlink:href="#NotoSans-Regular-30" transform="translate(114.399994 0.5)"/>
      </g>
     </g>
    </g>
    <g id="xtick_4">
     <g id="line2d_7">
      <g>
       <use xlink:href="#m7ff64ff7d7" x="182.478716" y="218.49952" style="stroke: #000000; stroke-width: 0.6"/>
      </g>
     </g>
     <g id="line2d_8">
      <g>
       <use xlink:href="#m547a3603f2" x="182.478716" y="17.8" style="stroke: #000000; stroke-width: 0.6"/>
      </g>
     </g>
     <g id="text_4">
      <!-- $\mathdefault{150}$ -->
      <g transform="translate(173.878716 229.59952) scale(0.1 -0.1)">
       <use xlink:href="#NotoSans-Regular-31" transform="translate(0 0.5)"/>
       <use xlink:href="#NotoSans-Regular-35" transform="translate(57.199997 0.5)"/>
       <use xlink:href="#NotoSans-Regular-30" transform="translate(114.399994 0.5)"/>
      </g>
     </g>
    </g>
    <g id="xtick_5">
     <g id="line2d_9">
      <g>
       <use xlink:href="#m7ff64ff7d7" x="227.689253" y="218.49952" style="stroke: #000000; stroke-width: 0.6"/>
      </g>
     </g>
     <g id="line2d_10">
      <g>
       <use xlink:href="#m547a3603f2" x="227.689253" y="17.8" style="stroke: #000000; stroke-width: 0.6"/>
      </g>
     </g>
     <g id="text_5">
      <!-- $\mathdefault{200}$ -->
      <g transform="translate(219.089253 229.59952) scale(0.1 -0.1)">
       <defs>
        <path id="NotoSans-Regular-32" d="M 3328 0 
L 307 0 
L 307 467 
L 1504 1677 
Q 1850 2022 2086 2291 
Q 2323 2560 2444 2819 
Q 2566 3078 2566 3386 
Q 2566 3763 2342 3958 
Q 2118 4154 1760 4154 
Q 1427 4154 1174 4038 
Q 922 3923 659 3718 
L 358 4096 
Q 538 4250 752 4371 
Q 966 4493 1219 4563 
Q 1472 4634 1760 4634 
Q 2189 4634 2496 4486 
Q 2803 4339 2972 4067 
Q 3142 3795 3142 3418 
Q 3142 3059 2995 2745 
Q 2848 2432 2585 2128 
Q 2323 1824 1971 1478 
L 1018 538 
L 1018 512 
L 3328 512 
L 3328 0 
z
" transform="scale(0.015625)"/>
       </defs>
       <use xlink:href="#NotoSans-Regular-32" transform="translate(0 0.5)"/>
       <use xlink:href="#NotoSans-Regular-30" transform="translate(57.199997 0.5)"/>
       <use xlink:href="#NotoSans-Regular-30" transform="translate(114.399994 0.5)"/>
      </g>
     </g>
    </g>
    <g id="text_6">
     <!-- $T$ (K) -->
     <g transform="translate(134.14976 243.59952) scale(0.1 -0.1)">
      <defs>
       <path id="NotoSans-Italic-54" d="M 973 0 
L 1830 4064 
L 576 4064 
L 685 4570 
L 3770 4570 
L 3667 4064 
L 2413 4064 
L 1549 0 
L 973 0 
z
" transform="scale(0.015625)"/>
       <path id="NotoSans-Regular-20" transform="scale(0.015625)"/>
       <path id="NotoSans-Regular-28" d="M 256 1754 
Q 256 2278 355 2777 
Q 454 3277 665 3731 
Q 877 4186 1197 4570 
L 1728 4570 
Q 1280 3968 1053 3245 
Q 826 2522 826 1760 
Q 826 1267 928 780 
Q 1030 294 1228 -157 
Q 1427 -608 1722 -1011 
L 1197 -1011 
Q 877 -634 665 -189 
Q 454 256 355 749 
Q 256 1242 256 1754 
z
" transform="scale(0.015625)"/>
       <path id="NotoSans-Regular-4b" d="M 3962 0 
L 3283 0 
L 1664 2182 
L 1197 1773 
L 1197 0 
L 621 0 
L 621 4570 
L 1197 4570 
L 1197 2317 
Q 1389 2534 1587 2752 
Q 1786 2970 1984 3187 
L 3219 4570 
L 3891 4570 
L 2080 2579 
L 3962 0 
z
" transform="scale(0.015625)"/>
       <path id="NotoSans-Regular-29" d="M 1664 1754 
Q 1664 1242 1565 749 
Q 1466 256 1258 -189 
Q 1050 -634 723 -1011 
L 198 -1011 
Q 493 -608 691 -157 
Q 890 294 992 780 
Q 1094 1267 1094 1760 
Q 1094 2266 992 2758 
Q 890 3251 691 3712 
Q 493 4173 192 4570 
L 723 4570 
Q 1050 4186 1258 3731 
Q 1466 3277 1565 2777 
Q 1664 2278 1664 1754 
z
" transform="scale(0.015625)"/>
      </defs>
      <use xlink:href="#NotoSans-Italic-54" transform="translate(0 0.59375)"/>
      <use xlink:href="#NotoSans-Regular-20" transform="translate(50.099991 0.59375)"/>
      <use xlink:href="#NotoSans-Regular-28" transform="translate(76.099976 0.59375)"/>
      <use xlink:href="#NotoSans-Regular-4b" transform="translate(106.09996 0.59375)"/>
      <use xlink:href="#NotoSans-Regular-29" transform="translate(167.999954 0.59375)"/>
     </g>
    </g>
   </g>
   <g id="matplotlib.axis_2">
    <g id="ytick_1">
     <g id="line2d_11">
      <defs>
       <path id="m3bb2fab7eb" d="M 0 0 
L 4 0 
" style="stroke: #000000; stroke-width: 0.6"/>
      </defs>
      <g>
       <use xlink:href="#m3bb2fab7eb" x="42.1" y="189.929177" style="stroke: #000000; stroke-width: 0.6"/>
      </g>
     </g>
     <g id="line2d_12">
      <defs>
       <path id="mbafd251faa" d="M 0 0 
L -4 0 
" style="stroke: #000000; stroke-width: 0.6"/>
      </defs>
      <g>
       <use xlink:href="#mbafd251faa" x="245.99952" y="189.929177" style="stroke: #000000; stroke-width: 0.6"/>
      </g>
     </g>
     <g id="text_7">
      <!-- $\mathdefault{−1.0}$ -->
      <g transform="translate(21.2 193.729177) scale(0.1 -0.1)">
       <defs>
        <path id="NotoSans-Regular-2212" d="M 256 1466 
L 256 1965 
L 1805 1965 
L 1805 1466 
L 256 1466 
z
" transform="scale(0.015625)"/>
        <path id="NotoSans-Regular-2e" d="M 461 346 
Q 461 582 576 678 
Q 691 774 851 774 
Q 1018 774 1136 678 
Q 1254 582 1254 346 
Q 1254 115 1136 12 
Q 1018 -90 851 -90 
Q 691 -90 576 12 
Q 461 115 461 346 
z
" transform="scale(0.015625)"/>
       </defs>
       <use xlink:href="#NotoSans-Regular-2212" transform="translate(0 0.5)"/>
       <use xlink:href="#NotoSans-Regular-31" transform="translate(32.199997 0.5)"/>
       <use xlink:href="#NotoSans-Regular-2e" transform="translate(89.399994 0.5)"/>
       <use xlink:href="#NotoSans-Regular-30" transform="translate(116.199982 0.5)"/>
      </g>
     </g>
    </g>
    <g id="ytick_2">
     <g id="line2d_13">
      <g>
       <use xlink:href="#m3bb2fab7eb" x="42.1" y="155.503342" style="stroke: #000000; stroke-width: 0.6"/>
      </g>
     </g>
     <g id="line2d_14">
      <g>
       <use xlink:href="#mbafd251faa" x="245.99952" y="155.503342" style="stroke: #000000; stroke-width: 0.6"/>
      </g>
     </g>
     <g id="text_8">
      <!-- $\mathdefault{−0.8}$ -->
      <g transform="translate(21.2 159.303342) scale(0.1 -0.1)">
       <defs>
        <path id="NotoSans-Regular-38" d="M 1824 4634 
Q 2227 4634 2534 4509 
Q 2842 4384 3018 4141 
Q 3194 3898 3194 3539 
Q 3194 3264 3075 3059 
Q 2957 2854 2758 2697 
Q 2560 2541 2323 2419 
Q 2605 2285 2835 2115 
Q 3066 1946 3203 1722 
Q 3341 1498 3341 1184 
Q 3341 800 3155 521 
Q 2970 243 2634 89 
Q 2298 -64 1843 -64 
Q 1350 -64 1008 83 
Q 666 230 490 502 
Q 314 774 314 1165 
Q 314 1478 445 1708 
Q 576 1939 793 2105 
Q 1011 2272 1261 2387 
Q 1037 2515 854 2678 
Q 672 2842 566 3053 
Q 461 3264 461 3546 
Q 461 3898 640 4138 
Q 819 4378 1126 4506 
Q 1434 4634 1824 4634 
z
M 864 1158 
Q 864 826 1101 605 
Q 1338 384 1830 384 
Q 2298 384 2544 605 
Q 2790 826 2790 1178 
Q 2790 1402 2672 1571 
Q 2554 1741 2339 1875 
Q 2125 2010 1830 2118 
L 1728 2157 
Q 1446 2035 1254 1894 
Q 1062 1754 963 1574 
Q 864 1395 864 1158 
z
M 1818 4179 
Q 1466 4179 1238 4009 
Q 1011 3840 1011 3520 
Q 1011 3283 1123 3123 
Q 1235 2963 1427 2851 
Q 1619 2739 1850 2637 
Q 2074 2733 2250 2848 
Q 2426 2963 2531 3126 
Q 2637 3290 2637 3520 
Q 2637 3840 2413 4009 
Q 2189 4179 1818 4179 
z
" transform="scale(0.015625)"/>
       </defs>
       <use xlink:href="#NotoSans-Regular-2212" transform="translate(0 0.5)"/>
       <use xlink:href="#NotoSans-Regular-30" transform="translate(32.199997 0.5)"/>
       <use xlink:href="#NotoSans-Regular-2e" transform="translate(89.399994 0.5)"/>
       <use xlink:href="#NotoSans-Regular-38" transform="translate(116.199982 0.5)"/>
      </g>
     </g>
    </g>
    <g id="ytick_3">
     <g id="line2d_15">
      <g>
       <use xlink:href="#m3bb2fab7eb" x="42.1" y="121.077506" style="stroke: #000000; stroke-width: 0.6"/>
      </g>
     </g>
     <g id="line2d_16">
      <g>
       <use xlink:href="#mbafd251faa" x="245.99952" y="121.077506" style="stroke: #000000; stroke-width: 0.6"/>
      </g>
     </g>
     <g id="text_9">
      <!-- $\mathdefault{−0.6}$ -->
      <g transform="translate(21.2 124.877506) scale(0.1 -0.1)">
       <defs>
        <path id="NotoSans-Regular-36" d="M 352 1952 
Q 352 2349 406 2733 
Q 461 3117 595 3459 
Q 730 3802 966 4067 
Q 1203 4333 1564 4483 
Q 1926 4634 2445 4634 
Q 2579 4634 2742 4621 
Q 2906 4608 3008 4576 
L 3008 4096 
Q 2893 4134 2749 4153 
Q 2605 4173 2458 4173 
Q 2016 4173 1721 4025 
Q 1427 3878 1257 3622 
Q 1088 3366 1011 3033 
Q 934 2701 915 2323 
L 954 2323 
Q 1050 2477 1197 2598 
Q 1344 2720 1552 2790 
Q 1760 2861 2035 2861 
Q 2432 2861 2729 2697 
Q 3027 2534 3193 2224 
Q 3360 1914 3360 1472 
Q 3360 998 3181 652 
Q 3002 307 2678 121 
Q 2355 -64 1907 -64 
Q 1581 -64 1299 57 
Q 1018 179 803 428 
Q 589 678 470 1059 
Q 352 1440 352 1952 
z
M 1901 410 
Q 2304 410 2553 669 
Q 2803 928 2803 1472 
Q 2803 1907 2582 2163 
Q 2362 2419 1920 2419 
Q 1619 2419 1395 2294 
Q 1171 2170 1046 1978 
Q 922 1786 922 1581 
Q 922 1370 982 1165 
Q 1043 960 1168 787 
Q 1293 614 1475 512 
Q 1658 410 1901 410 
z
" transform="scale(0.015625)"/>
       </defs>
       <use xlink:href="#NotoSans-Regular-2212" transform="translate(0 0.5)"/>
       <use xlink:href="#NotoSans-Regular-30" transform="translate(32.199997 0.5)"/>
       <use xlink:href="#NotoSans-Regular-2e" transform="translate(89.399994 0.5)"/>
       <use xlink:href="#NotoSans-Regular-36" transform="translate(116.199982 0.5)"/>
      </g>
     </g>
    </g>
    <g id="ytick_4">
     <g id="line2d_17">
      <g>
       <use xlink:href="#m3bb2fab7eb" x="42.1" y="86.651671" style="stroke: #000000; stroke-width: 0.6"/>
      </g>
     </g>
     <g id="line2d_18">
      <g>
       <use xlink:href="#mbafd251faa" x="245.99952" y="86.651671" style="stroke: #000000; stroke-width: 0.6"/>
      </g>
     </g>
     <g id="text_10">
      <!-- $\mathdefault{−0.4}$ -->
      <g transform="translate(21.2 90.451671) scale(0.1 -0.1)">
       <defs>
        <path id="NotoSans-Regular-34" d="M 3533 1037 
L 2867 1037 
L 2867 0 
L 2323 0 
L 2323 1037 
L 134 1037 
L 134 1517 
L 2285 4595 
L 2867 4595 
L 2867 1542 
L 3533 1542 
L 3533 1037 
z
M 2323 2982 
Q 2323 3149 2326 3286 
Q 2330 3424 2336 3545 
Q 2342 3667 2345 3779 
Q 2349 3891 2355 3994 
L 2330 3994 
Q 2278 3872 2201 3731 
Q 2125 3590 2054 3494 
L 685 1542 
L 2323 1542 
L 2323 2982 
z
" transform="scale(0.015625)"/>
       </defs>
       <use xlink:href="#NotoSans-Regular-2212" transform="translate(0 0.5)"/>
       <use xlink:href="#NotoSans-Regular-30" transform="translate(32.199997 0.5)"/>
       <use xlink:href="#NotoSans-Regular-2e" transform="translate(89.399994 0.5)"/>
       <use xlink:href="#NotoSans-Regular-34" transform="translate(116.199982 0.5)"/>
      </g>
     </g>
    </g>
    <g id="ytick_5">
     <g id="line2d_19">
      <g>
       <use xlink:href="#m3bb2fab7eb" x="42.1" y="52.225835" style="stroke: #000000; stroke-width: 0.6"/>
      </g>
     </g>
     <g id="line2d_20">
      <g>
       <use xlink:href="#mbafd251faa" x="245.99952" y="52.225835" style="stroke: #000000; stroke-width: 0.6"/>
      </g>
     </g>
     <g id="text_11">
      <!-- $\mathdefault{−0.2}$ -->
      <g transform="translate(21.2 56.025835) scale(0.1 -0.1)">
       <use xlink:href="#NotoSans-Regular-2212" transform="translate(0 0.5)"/>
       <use xlink:href="#NotoSans-Regular-30" transform="translate(32.199997 0.5)"/>
       <use xlink:href="#NotoSans-Regular-2e" transform="translate(89.399994 0.5)"/>
       <use xlink:href="#NotoSans-Regular-32" transform="translate(116.199982 0.5)"/>
      </g>
     </g>
    </g>
    <g id="ytick_6">
     <g id="line2d_21">
      <g>
       <use xlink:href="#m3bb2fab7eb" x="42.1" y="17.8" style="stroke: #000000; stroke-width: 0.6"/>
      </g>
     </g>
     <g id="line2d_22">
      <g>
       <use xlink:href="#mbafd251faa" x="245.99952" y="17.8" style="stroke: #000000; stroke-width: 0.6"/>
      </g>
     </g>
     <g id="text_12">
      <!-- $\mathdefault{0.0}$ -->
      <g transform="translate(24.4 21.6) scale(0.1 -0.1)">
       <use xlink:href="#NotoSans-Regular-30" transform="translate(0 0.5)"/>
       <use xlink:href="#NotoSans-Regular-2e" transform="translate(57.199997 0.5)"/>
       <use xlink:href="#NotoSans-Regular-30" transform="translate(83.999985 0.5)"/>
      </g>
     </g>
    </g>
    <g id="text_13">
     <!-- $\Delta E(t_0)$ (a.u.) -->
     <g transform="translate(14.8 143.59976) rotate(-90) scale(0.1 -0.1)">
      <defs>
       <path id="NotoSans-Regular-394" d="M 64 0 
L 64 320 
L 1786 4589 
L 2304 4589 
L 4019 320 
L 4019 0 
L 64 0 
z
M 723 518 
L 3354 518 
L 2285 3309 
Q 2266 3360 2214 3494 
Q 2163 3629 2115 3773 
Q 2067 3917 2042 3994 
Q 2010 3866 1968 3734 
Q 1926 3603 1884 3494 
Q 1843 3386 1818 3309 
L 723 518 
z
" transform="scale(0.015625)"/>
       <path id="NotoSans-Italic-45" d="M 262 0 
L 1229 4570 
L 3546 4570 
L 3437 4064 
L 1690 4064 
L 1389 2637 
L 3021 2637 
L 2925 2138 
L 1286 2138 
L 934 506 
L 2688 506 
L 2579 0 
L 262 0 
z
" transform="scale(0.015625)"/>
       <path id="NotoSans-Italic-74" d="M 1184 -64 
Q 838 -64 601 102 
Q 365 269 365 685 
Q 365 781 381 899 
Q 397 1018 422 1139 
L 813 3002 
L 282 3002 
L 333 3258 
L 909 3501 
L 1306 4211 
L 1638 4211 
L 1466 3430 
L 2330 3430 
L 2240 3002 
L 1382 3002 
L 986 1133 
Q 966 1050 947 944 
Q 928 838 928 749 
Q 928 602 1008 499 
Q 1088 397 1267 397 
Q 1382 397 1491 419 
Q 1600 442 1722 480 
L 1722 51 
Q 1645 13 1485 -25 
Q 1325 -64 1184 -64 
z
" transform="scale(0.015625)"/>
       <path id="NotoSans-Regular-61" d="M 1843 3488 
Q 2470 3488 2771 3213 
Q 3072 2938 3072 2336 
L 3072 0 
L 2662 0 
L 2554 486 
L 2528 486 
Q 2381 301 2224 176 
Q 2067 51 1865 -6 
Q 1664 -64 1376 -64 
Q 1069 -64 822 45 
Q 576 154 435 381 
Q 294 608 294 954 
Q 294 1466 697 1744 
Q 1101 2022 1939 2048 
L 2522 2067 
L 2522 2272 
Q 2522 2701 2336 2867 
Q 2150 3034 1811 3034 
Q 1542 3034 1299 2954 
Q 1056 2874 845 2771 
L 672 3194 
Q 896 3315 1203 3401 
Q 1510 3488 1843 3488 
z
M 2010 1658 
Q 1370 1632 1123 1453 
Q 877 1274 877 947 
Q 877 659 1053 524 
Q 1229 390 1504 390 
Q 1939 390 2227 630 
Q 2515 870 2515 1370 
L 2515 1677 
L 2010 1658 
z
" transform="scale(0.015625)"/>
       <path id="NotoSans-Regular-75" d="M 3411 3430 
L 3411 0 
L 2950 0 
L 2867 454 
L 2842 454 
Q 2733 275 2560 160 
Q 2387 45 2182 -9 
Q 1978 -64 1754 -64 
Q 1344 -64 1065 67 
Q 787 198 646 473 
Q 506 749 506 1184 
L 506 3430 
L 1075 3430 
L 1075 1222 
Q 1075 813 1260 608 
Q 1446 403 1837 403 
Q 2221 403 2441 547 
Q 2662 691 2755 969 
Q 2848 1248 2848 1645 
L 2848 3430 
L 3411 3430 
z
" transform="scale(0.015625)"/>
      </defs>
      <use xlink:href="#NotoSans-Regular-394" transform="translate(0 0.296875)"/>
      <use xlink:href="#NotoSans-Italic-45" transform="translate(63.899994 0.296875)"/>
      <use xlink:href="#NotoSans-Regular-28" transform="translate(115.299988 0.296875)"/>
      <use xlink:href="#NotoSans-Italic-74" transform="translate(145.299973 0.296875)"/>
      <use xlink:href="#NotoSans-Regular-30" transform="translate(178.499969 -15.78125) scale(0.7)"/>
      <use xlink:href="#NotoSans-Regular-29" transform="translate(221.219655 0.296875)"/>
      <use xlink:href="#NotoSans-Regular-20" transform="translate(251.21964 0.296875)"/>
      <use xlink:href="#NotoSans-Regular-28" transform="translate(277.219624 0.296875)"/>
      <use xlink:href="#NotoSans-Regular-61" transform="translate(307.219609 0.296875)"/>
      <use xlink:href="#NotoSans-Regular-2e" transform="translate(363.3196 0.296875)"/>
      <use xlink:href="#NotoSans-Regular-75" transform="translate(390.119588 0.296875)"/>
      <use xlink:href="#NotoSans-Regular-2e" transform="translate(451.919576 0.296875)"/>
      <use xlink:href="#NotoSans-Regular-29" transform="translate(478.719563 0.296875)"/>
     </g>
    </g>
    <g id="text_14">
     <!-- $\times\mathdefault{10^{−3}}\mathdefault{}$ -->
     <g transform="translate(42.1 14.8) scale(0.1 -0.1)">
      <defs>
       <path id="NotoSans-Regular-d7" d="M 2918 3674 
L 3238 3347 
L 2150 2259 
L 3232 1171 
L 2912 845 
L 1818 1926 
L 749 845 
L 416 1171 
L 1498 2259 
L 410 3341 
L 742 3674 
L 1824 2579 
L 2918 3674 
z
" transform="scale(0.015625)"/>
       <path id="NotoSans-Regular-33" d="M 3155 3501 
Q 3155 3194 3040 2970 
Q 2925 2746 2710 2605 
Q 2496 2464 2208 2406 
L 2208 2381 
Q 2758 2317 3027 2035 
Q 3296 1754 3296 1299 
Q 3296 902 3110 592 
Q 2925 282 2537 109 
Q 2150 -64 1542 -64 
Q 1184 -64 877 -9 
Q 570 45 288 186 
L 288 710 
Q 576 570 909 490 
Q 1242 410 1549 410 
Q 2163 410 2435 650 
Q 2707 890 2707 1312 
Q 2707 1600 2556 1776 
Q 2406 1952 2118 2035 
Q 1830 2118 1427 2118 
L 986 2118 
L 986 2598 
L 1434 2598 
Q 1811 2598 2064 2707 
Q 2317 2816 2448 3011 
Q 2579 3206 2579 3462 
Q 2579 3795 2355 3977 
Q 2131 4160 1747 4160 
Q 1504 4160 1305 4112 
Q 1107 4064 937 3977 
Q 768 3891 595 3776 
L 314 4160 
Q 557 4352 918 4493 
Q 1280 4634 1741 4634 
Q 2458 4634 2806 4314 
Q 3155 3994 3155 3501 
z
" transform="scale(0.015625)"/>
      </defs>
      <use xlink:href="#NotoSans-Regular-d7" transform="translate(0 0.8)"/>
      <use xlink:href="#NotoSans-Regular-31" transform="translate(57.199997 0.8)"/>
      <use xlink:href="#NotoSans-Regular-30" transform="translate(114.399994 0.8)"/>
      <use xlink:href="#NotoSans-Regular-2212" transform="translate(172.537881 38.315625) scale(0.7)"/>
      <use xlink:href="#NotoSans-Regular-33" transform="translate(195.077879 38.315625) scale(0.7)"/>
     </g>
    </g>
   </g>
   <g id="line2d_23">
    <path d="M 51.36816 208.921155 
L 52.272371 205.628984 
L 53.176581 209.630184 
L 54.080792 206.789517 
L 54.985003 204.913285 
L 55.889214 200.305248 
L 56.793424 202.904418 
L 57.697635 201.584335 
L 58.601846 197.366339 
L 59.506057 199.404606 
L 60.410267 197.459853 
L 61.314478 195.52873 
L 62.218689 193.855243 
L 63.1229 194.304543 
L 64.02711 191.885301 
L 64.931321 195.902786 
L 65.835532 189.614568 
L 66.739742 191.513837 
L 67.643953 191.49321 
L 68.548164 205.886623 
L 69.452375 195.205042 
L 70.356585 192.57157 
L 71.260796 184.135687 
L 72.165007 181.698428 
L 73.069218 178.634132 
L 73.973428 170.845851 
L 74.877639 165.403557 
L 75.78185 171.780527 
L 76.68606 174.122062 
L 77.590271 173.581758 
L 78.494482 171.340579 
L 79.398693 164.922441 
L 80.302903 169.329556 
L 81.207114 169.29086 
L 82.111325 171.591338 
L 83.015536 167.8932 
L 83.919746 163.394919 
L 84.823957 166.589163 
L 85.728168 164.899649 
L 86.632379 167.943404 
L 87.536589 164.80734 
L 92.057643 161.292777 
L 96.578697 153.839665 
L 101.09975 149.044988 
L 105.620804 147.113885 
L 110.141858 147.681591 
L 114.662911 146.591779 
L 119.183965 148.098808 
L 123.705019 141.865485 
L 128.226072 144.797471 
L 132.747126 145.976193 
L 137.26818 150.223705 
L 141.789233 154.858823 
L 146.310287 151.910867 
L 150.83134 157.795371 
L 155.352394 154.781279 
L 159.873448 167.688017 
L 164.394501 169.382012 
L 168.915555 173.115465 
L 173.436609 170.934627 
L 177.957662 173.976173 
L 182.478716 157.729264 
L 186.99977 144.213814 
L 191.520823 110.851441 
L 196.041877 75.418784 
L 200.562931 55.503465 
L 201.467141 60.21382 
L 202.371352 45.330345 
L 203.275563 47.204469 
L 204.179774 50.761159 
L 205.083984 40.034033 
L 205.988195 40.341822 
L 206.892406 42.945518 
L 207.796617 37.193213 
L 208.700827 42.968318 
L 209.605038 44.598475 
L 210.509249 40.886725 
L 211.41346 36.935587 
L 212.31767 47.66729 
L 213.221881 42.63089 
L 214.126092 39.883547 
L 218.647145 40.287109 
L 223.168199 39.88127 
L 227.689253 32.243461 
L 232.210306 43.69106 
L 236.73136 47.808653 
" clip-path="url(#pacb374ce75)" style="fill: none; stroke: #ff8c00; stroke-linecap: square"/>
    <defs>
     <path id="m2ca66882e3" d="M 0 1.5 
C 0.397805 1.5 0.77937 1.341951 1.06066 1.06066 
C 1.341951 0.77937 1.5 0.397805 1.5 0 
C 1.5 -0.397805 1.341951 -0.77937 1.06066 -1.06066 
C 0.77937 -1.341951 0.397805 -1.5 0 -1.5 
C -0.397805 -1.5 -0.77937 -1.341951 -1.06066 -1.06066 
C -1.341951 -0.77937 -1.5 -0.397805 -1.5 0 
C -1.5 0.397805 -1.341951 0.77937 -1.06066 1.06066 
C -0.77937 1.341951 -0.397805 1.5 0 1.5 
z
" style="stroke: #ffffff; stroke-width: 0.75"/>
    </defs>
    <g clip-path="url(#pacb374ce75)">
     <use xlink:href="#m2ca66882e3" x="51.36816" y="208.921155" style="fill: #ff8c00; stroke: #ffffff; stroke-width: 0.75"/>
     <use xlink:href="#m2ca66882e3" x="52.272371" y="205.628984" style="fill: #ff8c00; stroke: #ffffff; stroke-width: 0.75"/>
     <use xlink:href="#m2ca66882e3" x="53.176581" y="209.630184" style="fill: #ff8c00; stroke: #ffffff; stroke-width: 0.75"/>
     <use xlink:href="#m2ca66882e3" x="54.080792" y="206.789517" style="fill: #ff8c00; stroke: #ffffff; stroke-width: 0.75"/>
     <use xlink:href="#m2ca66882e3" x="54.985003" y="204.913285" style="fill: #ff8c00; stroke: #ffffff; stroke-width: 0.75"/>
     <use xlink:href="#m2ca66882e3" x="55.889214" y="200.305248" style="fill: #ff8c00; stroke: #ffffff; stroke-width: 0.75"/>
     <use xlink:href="#m2ca66882e3" x="56.793424" y="202.904418" style="fill: #ff8c00; stroke: #ffffff; stroke-width: 0.75"/>
     <use xlink:href="#m2ca66882e3" x="57.697635" y="201.584335" style="fill: #ff8c00; stroke: #ffffff; stroke-width: 0.75"/>
     <use xlink:href="#m2ca66882e3" x="58.601846" y="197.366339" style="fill: #ff8c00; stroke: #ffffff; stroke-width: 0.75"/>
     <use xlink:href="#m2ca66882e3" x="59.506057" y="199.404606" style="fill: #ff8c00; stroke: #ffffff; stroke-width: 0.75"/>
     <use xlink:href="#m2ca66882e3" x="60.410267" y="197.459853" style="fill: #ff8c00; stroke: #ffffff; stroke-width: 0.75"/>
     <use xlink:href="#m2ca66882e3" x="61.314478" y="195.52873" style="fill: #ff8c00; stroke: #ffffff; stroke-width: 0.75"/>
     <use xlink:href="#m2ca66882e3" x="62.218689" y="193.855243" style="fill: #ff8c00; stroke: #ffffff; stroke-width: 0.75"/>
     <use xlink:href="#m2ca66882e3" x="63.1229" y="194.304543" style="fill: #ff8c00; stroke: #ffffff; stroke-width: 0.75"/>
     <use xlink:href="#m2ca66882e3" x="64.02711" y="191.885301" style="fill: #ff8c00; stroke: #ffffff; stroke-width: 0.75"/>
     <use xlink:href="#m2ca66882e3" x="64.931321" y="195.902786" style="fill: #ff8c00; stroke: #ffffff; stroke-width: 0.75"/>
     <use xlink:href="#m2ca66882e3" x="65.835532" y="189.614568" style="fill: #ff8c00; stroke: #ffffff; stroke-width: 0.75"/>
     <use xlink:href="#m2ca66882e3" x="66.739742" y="191.513837" style="fill: #ff8c00; stroke: #ffffff; stroke-width: 0.75"/>
     <use xlink:href="#m2ca66882e3" x="67.643953" y="191.49321" style="fill: #ff8c00; stroke: #ffffff; stroke-width: 0.75"/>
     <use xlink:href="#m2ca66882e3" x="68.548164" y="205.886623" style="fill: #ff8c00; stroke: #ffffff; stroke-width: 0.75"/>
     <use xlink:href="#m2ca66882e3" x="69.452375" y="195.205042" style="fill: #ff8c00; stroke: #ffffff; stroke-width: 0.75"/>
     <use xlink:href="#m2ca66882e3" x="70.356585" y="192.57157" style="fill: #ff8c00; stroke: #ffffff; stroke-width: 0.75"/>
     <use xlink:href="#m2ca66882e3" x="71.260796" y="184.135687" style="fill: #ff8c00; stroke: #ffffff; stroke-width: 0.75"/>
     <use xlink:href="#m2ca66882e3" x="72.165007" y="181.698428" style="fill: #ff8c00; stroke: #ffffff; stroke-width: 0.75"/>
     <use xlink:href="#m2ca66882e3" x="73.069218" y="178.634132" style="fill: #ff8c00; stroke: #ffffff; stroke-width: 0.75"/>
     <use xlink:href="#m2ca66882e3" x="73.973428" y="170.845851" style="fill: #ff8c00; stroke: #ffffff; stroke-width: 0.75"/>
     <use xlink:href="#m2ca66882e3" x="74.877639" y="165.403557" style="fill: #ff8c00; stroke: #ffffff; stroke-width: 0.75"/>
     <use xlink:href="#m2ca66882e3" x="75.78185" y="171.780527" style="fill: #ff8c00; stroke: #ffffff; stroke-width: 0.75"/>
     <use xlink:href="#m2ca66882e3" x="76.68606" y="174.122062" style="fill: #ff8c00; stroke: #ffffff; stroke-width: 0.75"/>
     <use xlink:href="#m2ca66882e3" x="77.590271" y="173.581758" style="fill: #ff8c00; stroke: #ffffff; stroke-width: 0.75"/>
     <use xlink:href="#m2ca66882e3" x="78.494482" y="171.340579" style="fill: #ff8c00; stroke: #ffffff; stroke-width: 0.75"/>
     <use xlink:href="#m2ca66882e3" x="79.398693" y="164.922441" style="fill: #ff8c00; stroke: #ffffff; stroke-width: 0.75"/>
     <use xlink:href="#m2ca66882e3" x="80.302903" y="169.329556" style="fill: #ff8c00; stroke: #ffffff; stroke-width: 0.75"/>
     <use xlink:href="#m2ca66882e3" x="81.207114" y="169.29086" style="fill: #ff8c00; stroke: #ffffff; stroke-width: 0.75"/>
     <use xlink:href="#m2ca66882e3" x="82.111325" y="171.591338" style="fill: #ff8c00; stroke: #ffffff; stroke-width: 0.75"/>
     <use xlink:href="#m2ca66882e3" x="83.015536" y="167.8932" style="fill: #ff8c00; stroke: #ffffff; stroke-width: 0.75"/>
     <use xlink:href="#m2ca66882e3" x="83.919746" y="163.394919" style="fill: #ff8c00; stroke: #ffffff; stroke-width: 0.75"/>
     <use xlink:href="#m2ca66882e3" x="84.823957" y="166.589163" style="fill: #ff8c00; stroke: #ffffff; stroke-width: 0.75"/>
     <use xlink:href="#m2ca66882e3" x="85.728168" y="164.899649" style="fill: #ff8c00; stroke: #ffffff; stroke-width: 0.75"/>
     <use xlink:href="#m2ca66882e3" x="86.632379" y="167.943404" style="fill: #ff8c00; stroke: #ffffff; stroke-width: 0.75"/>
     <use xlink:href="#m2ca66882e3" x="87.536589" y="164.80734" style="fill: #ff8c00; stroke: #ffffff; stroke-width: 0.75"/>
     <use xlink:href="#m2ca66882e3" x="92.057643" y="161.292777" style="fill: #ff8c00; stroke: #ffffff; stroke-width: 0.75"/>
     <use xlink:href="#m2ca66882e3" x="96.578697" y="153.839665" style="fill: #ff8c00; stroke: #ffffff; stroke-width: 0.75"/>
     <use xlink:href="#m2ca66882e3" x="101.09975" y="149.044988" style="fill: #ff8c00; stroke: #ffffff; stroke-width: 0.75"/>
     <use xlink:href="#m2ca66882e3" x="105.620804" y="147.113885" style="fill: #ff8c00; stroke: #ffffff; stroke-width: 0.75"/>
     <use xlink:href="#m2ca66882e3" x="110.141858" y="147.681591" style="fill: #ff8c00; stroke: #ffffff; stroke-width: 0.75"/>
     <use xlink:href="#m2ca66882e3" x="114.662911" y="146.591779" style="fill: #ff8c00; stroke: #ffffff; stroke-width: 0.75"/>
     <use xlink:href="#m2ca66882e3" x="119.183965" y="148.098808" style="fill: #ff8c00; stroke: #ffffff; stroke-width: 0.75"/>
     <use xlink:href="#m2ca66882e3" x="123.705019" y="141.865485" style="fill: #ff8c00; stroke: #ffffff; stroke-width: 0.75"/>
     <use xlink:href="#m2ca66882e3" x="128.226072" y="144.797471" style="fill: #ff8c00; stroke: #ffffff; stroke-width: 0.75"/>
     <use xlink:href="#m2ca66882e3" x="132.747126" y="145.976193" style="fill: #ff8c00; stroke: #ffffff; stroke-width: 0.75"/>
     <use xlink:href="#m2ca66882e3" x="137.26818" y="150.223705" style="fill: #ff8c00; stroke: #ffffff; stroke-width: 0.75"/>
     <use xlink:href="#m2ca66882e3" x="141.789233" y="154.858823" style="fill: #ff8c00; stroke: #ffffff; stroke-width: 0.75"/>
     <use xlink:href="#m2ca66882e3" x="146.310287" y="151.910867" style="fill: #ff8c00; stroke: #ffffff; stroke-width: 0.75"/>
     <use xlink:href="#m2ca66882e3" x="150.83134" y="157.795371" style="fill: #ff8c00; stroke: #ffffff; stroke-width: 0.75"/>
     <use xlink:href="#m2ca66882e3" x="155.352394" y="154.781279" style="fill: #ff8c00; stroke: #ffffff; stroke-width: 0.75"/>
     <use xlink:href="#m2ca66882e3" x="159.873448" y="167.688017" style="fill: #ff8c00; stroke: #ffffff; stroke-width: 0.75"/>
     <use xlink:href="#m2ca66882e3" x="164.394501" y="169.382012" style="fill: #ff8c00; stroke: #ffffff; stroke-width: 0.75"/>
     <use xlink:href="#m2ca66882e3" x="168.915555" y="173.115465" style="fill: #ff8c00; stroke: #ffffff; stroke-width: 0.75"/>
     <use xlink:href="#m2ca66882e3" x="173.436609" y="170.934627" style="fill: #ff8c00; stroke: #ffffff; stroke-width: 0.75"/>
     <use xlink:href="#m2ca66882e3" x="177.957662" y="173.976173" style="fill: #ff8c00; stroke: #ffffff; stroke-width: 0.75"/>
     <use xlink:href="#m2ca66882e3" x="182.478716" y="157.729264" style="fill: #ff8c00; stroke: #ffffff; stroke-width: 0.75"/>
     <use xlink:href="#m2ca66882e3" x="186.99977" y="144.213814" style="fill: #ff8c00; stroke: #ffffff; stroke-width: 0.75"/>
     <use xlink:href="#m2ca66882e3" x="191.520823" y="110.851441" style="fill: #ff8c00; stroke: #ffffff; stroke-width: 0.75"/>
     <use xlink:href="#m2ca66882e3" x="196.041877" y="75.418784" style="fill: #ff8c00; stroke: #ffffff; stroke-width: 0.75"/>
     <use xlink:href="#m2ca66882e3" x="200.562931" y="55.503465" style="fill: #ff8c00; stroke: #ffffff; stroke-width: 0.75"/>
     <use xlink:href="#m2ca66882e3" x="201.467141" y="60.21382" style="fill: #ff8c00; stroke: #ffffff; stroke-width: 0.75"/>
     <use xlink:href="#m2ca66882e3" x="202.371352" y="45.330345" style="fill: #ff8c00; stroke: #ffffff; stroke-width: 0.75"/>
     <use xlink:href="#m2ca66882e3" x="203.275563" y="47.204469" style="fill: #ff8c00; stroke: #ffffff; stroke-width: 0.75"/>
     <use xlink:href="#m2ca66882e3" x="204.179774" y="50.761159" style="fill: #ff8c00; stroke: #ffffff; stroke-width: 0.75"/>
     <use xlink:href="#m2ca66882e3" x="205.083984" y="40.034033" style="fill: #ff8c00; stroke: #ffffff; stroke-width: 0.75"/>
     <use xlink:href="#m2ca66882e3" x="205.988195" y="40.341822" style="fill: #ff8c00; stroke: #ffffff; stroke-width: 0.75"/>
     <use xlink:href="#m2ca66882e3" x="206.892406" y="42.945518" style="fill: #ff8c00; stroke: #ffffff; stroke-width: 0.75"/>
     <use xlink:href="#m2ca66882e3" x="207.796617" y="37.193213" style="fill: #ff8c00; stroke: #ffffff; stroke-width: 0.75"/>
     <use xlink:href="#m2ca66882e3" x="208.700827" y="42.968318" style="fill: #ff8c00; stroke: #ffffff; stroke-width: 0.75"/>
     <use xlink:href="#m2ca66882e3" x="209.605038" y="44.598475" style="fill: #ff8c00; stroke: #ffffff; stroke-width: 0.75"/>
     <use xlink:href="#m2ca66882e3" x="210.509249" y="40.886725" style="fill: #ff8c00; stroke: #ffffff; stroke-width: 0.75"/>
     <use xlink:href="#m2ca66882e3" x="211.41346" y="36.935587" style="fill: #ff8c00; stroke: #ffffff; stroke-width: 0.75"/>
     <use xlink:href="#m2ca66882e3" x="212.31767" y="47.66729" style="fill: #ff8c00; stroke: #ffffff; stroke-width: 0.75"/>
     <use xlink:href="#m2ca66882e3" x="213.221881" y="42.63089" style="fill: #ff8c00; stroke: #ffffff; stroke-width: 0.75"/>
     <use xlink:href="#m2ca66882e3" x="214.126092" y="39.883547" style="fill: #ff8c00; stroke: #ffffff; stroke-width: 0.75"/>
     <use xlink:href="#m2ca66882e3" x="218.647145" y="40.287109" style="fill: #ff8c00; stroke: #ffffff; stroke-width: 0.75"/>
     <use xlink:href="#m2ca66882e3" x="223.168199" y="39.88127" style="fill: #ff8c00; stroke: #ffffff; stroke-width: 0.75"/>
     <use xlink:href="#m2ca66882e3" x="227.689253" y="32.243461" style="fill: #ff8c00; stroke: #ffffff; stroke-width: 0.75"/>
     <use xlink:href="#m2ca66882e3" x="232.210306" y="43.69106" style="fill: #ff8c00; stroke: #ffffff; stroke-width: 0.75"/>
     <use xlink:href="#m2ca66882e3" x="236.73136" y="47.808653" style="fill: #ff8c00; stroke: #ffffff; stroke-width: 0.75"/>
    </g>
   </g>
   <g id="patch_3">
    <path d="M 42.1 218.49952 
L 42.1 17.8 
" style="fill: none; stroke: #000000; stroke-width: 0.6; stroke-linejoin: miter; stroke-linecap: square"/>
   </g>
   <g id="patch_4">
    <path d="M 245.99952 218.49952 
L 245.99952 17.8 
" style="fill: none; stroke: #000000; stroke-width: 0.6; stroke-linejoin: miter; stroke-linecap: square"/>
   </g>
   <g id="patch_5">
    <path d="M 42.1 218.49952 
L 245.99952 218.49952 
" style="fill: none; stroke: #000000; stroke-width: 0.6; stroke-linejoin: miter; stroke-linecap: square"/>
   </g>
   <g id="patch_6">
    <path d="M 42.1 17.8 
L 245.99952 17.8 
" style="fill: none; stroke: #000000; stroke-width: 0.6; stroke-linejoin: miter; stroke-linecap: square"/>
   </g>
  </g>
 </g>
 <defs>
  <clipPath id="pacb374ce75">
   <rect x="42.1" y="17.8" width="203.89952" height="200.69952"/>
  </clipPath>
 </defs>
</svg>
