<?xml version="1.0" encoding="utf-8" standalone="no"?>
<!DOCTYPE svg PUBLIC "-//W3C//DTD SVG 1.1//EN"
  "http://www.w3.org/Graphics/SVG/1.1/DTD/svg11.dtd">
<svg xmlns:xlink="http://www.w3.org/1999/xlink" width="497.99952pt" height="253.19952pt" viewBox="0 0 497.99952 253.19952" xmlns="http://www.w3.org/2000/svg" version="1.1">
 <metadata>
  <rdf:RDF xmlns:dc="http://purl.org/dc/elements/1.1/" xmlns:cc="http://creativecommons.org/ns#" xmlns:rdf="http://www.w3.org/1999/02/22-rdf-syntax-ns#">
   <cc:Work>
    <dc:type rdf:resource="http://purl.org/dc/dcmitype/StillImage"/>
    <dc:date>2024-07-06T12:08:22.423274</dc:date>
    <dc:format>image/svg+xml</dc:format>
    <dc:creator>
     <cc:Agent>
      <dc:title>Matplotlib v3.9.0, https://matplotlib.org/</dc:title>
     </cc:Agent>
    </dc:creator>
   </cc:Work>
  </rdf:RDF>
 </metadata>
 <defs>
  <style type="text/css">*{stroke-linejoin: round; stroke-linecap: butt}</style>
 </defs>
 <g id="figure_1">
  <g id="patch_1">
   <path d="M 0 253.19952 
L 497.99952 253.19952 
L 497.99952 0 
L 0 0 
z
" style="fill: #ffffff"/>
  </g>
  <g id="axes_1">
   <g id="patch_2">
    <path d="M 44.7 218.49952 
L 248.89952 218.49952 
L 248.89952 22.2 
L 44.7 22.2 
z
" style="fill: #ffffff"/>
   </g>
   <g id="PolyCollection_1"/>
   <g id="PolyCollection_2"/>
   <g id="matplotlib.axis_1">
    <g id="xtick_1">
     <g id="line2d_1">
      <defs>
       <path id="m60d80b8762" d="M 0 0 
L 0 -4 
" style="stroke: #000000; stroke-width: 0.6"/>
      </defs>
      <g>
       <use xlink:href="#m60d80b8762" x="92.03346" y="218.49952" style="stroke: #000000; stroke-width: 0.6"/>
      </g>
     </g>
     <g id="line2d_2">
      <defs>
       <path id="m547228acca" d="M 0 0 
L 0 4 
" style="stroke: #000000; stroke-width: 0.6"/>
      </defs>
      <g>
       <use xlink:href="#m547228acca" x="92.03346" y="22.2" style="stroke: #000000; stroke-width: 0.6"/>
      </g>
     </g>
     <g id="text_1">
      <!-- $\mathdefault{50}$ -->
      <g transform="translate(86.28346 229.59952) scale(0.1 -0.1)">
       <defs>
        <path id="NotoSans-Regular-35" d="M 1760 2803 
Q 2227 2803 2572 2643 
Q 2918 2483 3107 2185 
Q 3296 1888 3296 1459 
Q 3296 986 3091 643 
Q 2886 301 2505 118 
Q 2125 -64 1587 -64 
Q 1235 -64 924 0 
Q 614 64 403 186 
L 403 717 
Q 634 576 963 496 
Q 1293 416 1594 416 
Q 1933 416 2185 521 
Q 2438 627 2579 848 
Q 2720 1069 2720 1402 
Q 2720 1850 2445 2090 
Q 2170 2330 1574 2330 
Q 1395 2330 1164 2298 
Q 934 2266 794 2234 
L 512 2413 
L 685 4570 
L 2976 4570 
L 2976 4058 
L 1165 4058 
L 1056 2733 
Q 1165 2752 1350 2777 
Q 1536 2803 1760 2803 
z
" transform="scale(0.015625)"/>
        <path id="NotoSans-Regular-30" d="M 3347 2291 
Q 3347 1734 3264 1299 
Q 3181 864 2998 560 
Q 2816 256 2525 96 
Q 2234 -64 1824 -64 
Q 1312 -64 976 217 
Q 640 499 477 1027 
Q 314 1555 314 2291 
Q 314 3034 464 3558 
Q 614 4083 947 4361 
Q 1280 4640 1824 4640 
Q 2336 4640 2675 4361 
Q 3014 4083 3180 3558 
Q 3347 3034 3347 2291 
z
M 877 2291 
Q 877 1664 969 1248 
Q 1062 832 1270 624 
Q 1478 416 1824 416 
Q 2170 416 2378 621 
Q 2586 826 2682 1245 
Q 2778 1664 2778 2291 
Q 2778 2918 2682 3331 
Q 2586 3744 2378 3952 
Q 2170 4160 1824 4160 
Q 1478 4160 1270 3952 
Q 1062 3744 969 3331 
Q 877 2918 877 2291 
z
" transform="scale(0.015625)"/>
       </defs>
       <use xlink:href="#NotoSans-Regular-35" transform="translate(0 0.5)"/>
       <use xlink:href="#NotoSans-Regular-30" transform="translate(57.199997 0.5)"/>
      </g>
     </g>
    </g>
    <g id="xtick_2">
     <g id="line2d_3">
      <g>
       <use xlink:href="#m60d80b8762" x="139.491259" y="218.49952" style="stroke: #000000; stroke-width: 0.6"/>
      </g>
     </g>
     <g id="line2d_4">
      <g>
       <use xlink:href="#m547228acca" x="139.491259" y="22.2" style="stroke: #000000; stroke-width: 0.6"/>
      </g>
     </g>
     <g id="text_2">
      <!-- $\mathdefault{100}$ -->
      <g transform="translate(130.891259 229.59952) scale(0.1 -0.1)">
       <defs>
        <path id="NotoSans-Regular-31" d="M 2272 0 
L 1722 0 
L 1722 3194 
Q 1722 3379 1725 3507 
Q 1728 3635 1734 3747 
Q 1741 3859 1747 3981 
Q 1645 3878 1561 3808 
Q 1478 3738 1350 3629 
L 864 3232 
L 570 3610 
L 1805 4570 
L 2272 4570 
L 2272 0 
z
" transform="scale(0.015625)"/>
       </defs>
       <use xlink:href="#NotoSans-Regular-31" transform="translate(0 0.5)"/>
       <use xlink:href="#NotoSans-Regular-30" transform="translate(57.199997 0.5)"/>
       <use xlink:href="#NotoSans-Regular-30" transform="translate(114.399994 0.5)"/>
      </g>
     </g>
    </g>
    <g id="xtick_3">
     <g id="line2d_5">
      <g>
       <use xlink:href="#m60d80b8762" x="186.949058" y="218.49952" style="stroke: #000000; stroke-width: 0.6"/>
      </g>
     </g>
     <g id="line2d_6">
      <g>
       <use xlink:href="#m547228acca" x="186.949058" y="22.2" style="stroke: #000000; stroke-width: 0.6"/>
      </g>
     </g>
     <g id="text_3">
      <!-- $\mathdefault{150}$ -->
      <g transform="translate(178.349058 229.59952) scale(0.1 -0.1)">
       <use xlink:href="#NotoSans-Regular-31" transform="translate(0 0.5)"/>
       <use xlink:href="#NotoSans-Regular-35" transform="translate(57.199997 0.5)"/>
       <use xlink:href="#NotoSans-Regular-30" transform="translate(114.399994 0.5)"/>
      </g>
     </g>
    </g>
    <g id="xtick_4">
     <g id="line2d_7">
      <g>
       <use xlink:href="#m60d80b8762" x="234.406857" y="218.49952" style="stroke: #000000; stroke-width: 0.6"/>
      </g>
     </g>
     <g id="line2d_8">
      <g>
       <use xlink:href="#m547228acca" x="234.406857" y="22.2" style="stroke: #000000; stroke-width: 0.6"/>
      </g>
     </g>
     <g id="text_4">
      <!-- $\mathdefault{200}$ -->
      <g transform="translate(225.806857 229.59952) scale(0.1 -0.1)">
       <defs>
        <path id="NotoSans-Regular-32" d="M 3328 0 
L 307 0 
L 307 467 
L 1504 1677 
Q 1850 2022 2086 2291 
Q 2323 2560 2444 2819 
Q 2566 3078 2566 3386 
Q 2566 3763 2342 3958 
Q 2118 4154 1760 4154 
Q 1427 4154 1174 4038 
Q 922 3923 659 3718 
L 358 4096 
Q 538 4250 752 4371 
Q 966 4493 1219 4563 
Q 1472 4634 1760 4634 
Q 2189 4634 2496 4486 
Q 2803 4339 2972 4067 
Q 3142 3795 3142 3418 
Q 3142 3059 2995 2745 
Q 2848 2432 2585 2128 
Q 2323 1824 1971 1478 
L 1018 538 
L 1018 512 
L 3328 512 
L 3328 0 
z
" transform="scale(0.015625)"/>
       </defs>
       <use xlink:href="#NotoSans-Regular-32" transform="translate(0 0.5)"/>
       <use xlink:href="#NotoSans-Regular-30" transform="translate(57.199997 0.5)"/>
       <use xlink:href="#NotoSans-Regular-30" transform="translate(114.399994 0.5)"/>
      </g>
     </g>
    </g>
    <g id="text_5">
     <!-- $T$ (K) -->
     <g transform="translate(136.89976 243.59952) scale(0.1 -0.1)">
      <defs>
       <path id="NotoSans-Italic-54" d="M 973 0 
L 1830 4064 
L 576 4064 
L 685 4570 
L 3770 4570 
L 3667 4064 
L 2413 4064 
L 1549 0 
L 973 0 
z
" transform="scale(0.015625)"/>
       <path id="NotoSans-Regular-20" transform="scale(0.015625)"/>
       <path id="NotoSans-Regular-28" d="M 256 1754 
Q 256 2278 355 2777 
Q 454 3277 665 3731 
Q 877 4186 1197 4570 
L 1728 4570 
Q 1280 3968 1053 3245 
Q 826 2522 826 1760 
Q 826 1267 928 780 
Q 1030 294 1228 -157 
Q 1427 -608 1722 -1011 
L 1197 -1011 
Q 877 -634 665 -189 
Q 454 256 355 749 
Q 256 1242 256 1754 
z
" transform="scale(0.015625)"/>
       <path id="NotoSans-Regular-4b" d="M 3962 0 
L 3283 0 
L 1664 2182 
L 1197 1773 
L 1197 0 
L 621 0 
L 621 4570 
L 1197 4570 
L 1197 2317 
Q 1389 2534 1587 2752 
Q 1786 2970 1984 3187 
L 3219 4570 
L 3891 4570 
L 2080 2579 
L 3962 0 
z
" transform="scale(0.015625)"/>
       <path id="NotoSans-Regular-29" d="M 1664 1754 
Q 1664 1242 1565 749 
Q 1466 256 1258 -189 
Q 1050 -634 723 -1011 
L 198 -1011 
Q 493 -608 691 -157 
Q 890 294 992 780 
Q 1094 1267 1094 1760 
Q 1094 2266 992 2758 
Q 890 3251 691 3712 
Q 493 4173 192 4570 
L 723 4570 
Q 1050 4186 1258 3731 
Q 1466 3277 1565 2777 
Q 1664 2278 1664 1754 
z
" transform="scale(0.015625)"/>
      </defs>
      <use xlink:href="#NotoSans-Italic-54" transform="translate(0 0.59375)"/>
      <use xlink:href="#NotoSans-Regular-20" transform="translate(50.099991 0.59375)"/>
      <use xlink:href="#NotoSans-Regular-28" transform="translate(76.099976 0.59375)"/>
      <use xlink:href="#NotoSans-Regular-4b" transform="translate(106.09996 0.59375)"/>
      <use xlink:href="#NotoSans-Regular-29" transform="translate(167.999954 0.59375)"/>
     </g>
    </g>
   </g>
   <g id="matplotlib.axis_2">
    <g id="ytick_1">
     <g id="line2d_9">
      <defs>
       <path id="m27dab49408" d="M 0 0 
L 4 0 
" style="stroke: #000000; stroke-width: 0.6"/>
      </defs>
      <g>
       <use xlink:href="#m27dab49408" x="44.7" y="205.420652" style="stroke: #000000; stroke-width: 0.6"/>
      </g>
     </g>
     <g id="line2d_10">
      <defs>
       <path id="md3ccb031fc" d="M 0 0 
L -4 0 
" style="stroke: #000000; stroke-width: 0.6"/>
      </defs>
      <g>
       <use xlink:href="#md3ccb031fc" x="248.89952" y="205.420652" style="stroke: #000000; stroke-width: 0.6"/>
      </g>
     </g>
     <g id="text_6">
      <!-- $\mathdefault{0.65}$ -->
      <g transform="translate(21.3 209.220652) scale(0.1 -0.1)">
       <defs>
        <path id="NotoSans-Regular-2e" d="M 461 346 
Q 461 582 576 678 
Q 691 774 851 774 
Q 1018 774 1136 678 
Q 1254 582 1254 346 
Q 1254 115 1136 12 
Q 1018 -90 851 -90 
Q 691 -90 576 12 
Q 461 115 461 346 
z
" transform="scale(0.015625)"/>
        <path id="NotoSans-Regular-36" d="M 352 1952 
Q 352 2349 406 2733 
Q 461 3117 595 3459 
Q 730 3802 966 4067 
Q 1203 4333 1564 4483 
Q 1926 4634 2445 4634 
Q 2579 4634 2742 4621 
Q 2906 4608 3008 4576 
L 3008 4096 
Q 2893 4134 2749 4153 
Q 2605 4173 2458 4173 
Q 2016 4173 1721 4025 
Q 1427 3878 1257 3622 
Q 1088 3366 1011 3033 
Q 934 2701 915 2323 
L 954 2323 
Q 1050 2477 1197 2598 
Q 1344 2720 1552 2790 
Q 1760 2861 2035 2861 
Q 2432 2861 2729 2697 
Q 3027 2534 3193 2224 
Q 3360 1914 3360 1472 
Q 3360 998 3181 652 
Q 3002 307 2678 121 
Q 2355 -64 1907 -64 
Q 1581 -64 1299 57 
Q 1018 179 803 428 
Q 589 678 470 1059 
Q 352 1440 352 1952 
z
M 1901 410 
Q 2304 410 2553 669 
Q 2803 928 2803 1472 
Q 2803 1907 2582 2163 
Q 2362 2419 1920 2419 
Q 1619 2419 1395 2294 
Q 1171 2170 1046 1978 
Q 922 1786 922 1581 
Q 922 1370 982 1165 
Q 1043 960 1168 787 
Q 1293 614 1475 512 
Q 1658 410 1901 410 
z
" transform="scale(0.015625)"/>
       </defs>
       <use xlink:href="#NotoSans-Regular-30" transform="translate(0 0.5)"/>
       <use xlink:href="#NotoSans-Regular-2e" transform="translate(57.199997 0.5)"/>
       <use xlink:href="#NotoSans-Regular-36" transform="translate(83.999985 0.5)"/>
       <use xlink:href="#NotoSans-Regular-35" transform="translate(141.199982 0.5)"/>
      </g>
     </g>
    </g>
    <g id="ytick_2">
     <g id="line2d_11">
      <g>
       <use xlink:href="#m27dab49408" x="44.7" y="180.22896" style="stroke: #000000; stroke-width: 0.6"/>
      </g>
     </g>
     <g id="line2d_12">
      <g>
       <use xlink:href="#md3ccb031fc" x="248.89952" y="180.22896" style="stroke: #000000; stroke-width: 0.6"/>
      </g>
     </g>
     <g id="text_7">
      <!-- $\mathdefault{0.70}$ -->
      <g transform="translate(21.3 184.02896) scale(0.1 -0.1)">
       <defs>
        <path id="NotoSans-Regular-37" d="M 870 0 
L 2746 4058 
L 282 4058 
L 282 4570 
L 3347 4570 
L 3347 4134 
L 1491 0 
L 870 0 
z
" transform="scale(0.015625)"/>
       </defs>
       <use xlink:href="#NotoSans-Regular-30" transform="translate(0 0.5)"/>
       <use xlink:href="#NotoSans-Regular-2e" transform="translate(57.199997 0.5)"/>
       <use xlink:href="#NotoSans-Regular-37" transform="translate(83.999985 0.5)"/>
       <use xlink:href="#NotoSans-Regular-30" transform="translate(141.199982 0.5)"/>
      </g>
     </g>
    </g>
    <g id="ytick_3">
     <g id="line2d_13">
      <g>
       <use xlink:href="#m27dab49408" x="44.7" y="155.037268" style="stroke: #000000; stroke-width: 0.6"/>
      </g>
     </g>
     <g id="line2d_14">
      <g>
       <use xlink:href="#md3ccb031fc" x="248.89952" y="155.037268" style="stroke: #000000; stroke-width: 0.6"/>
      </g>
     </g>
     <g id="text_8">
      <!-- $\mathdefault{0.75}$ -->
      <g transform="translate(21.3 158.837268) scale(0.1 -0.1)">
       <use xlink:href="#NotoSans-Regular-30" transform="translate(0 0.5)"/>
       <use xlink:href="#NotoSans-Regular-2e" transform="translate(57.199997 0.5)"/>
       <use xlink:href="#NotoSans-Regular-37" transform="translate(83.999985 0.5)"/>
       <use xlink:href="#NotoSans-Regular-35" transform="translate(141.199982 0.5)"/>
      </g>
     </g>
    </g>
    <g id="ytick_4">
     <g id="line2d_15">
      <g>
       <use xlink:href="#m27dab49408" x="44.7" y="129.845576" style="stroke: #000000; stroke-width: 0.6"/>
      </g>
     </g>
     <g id="line2d_16">
      <g>
       <use xlink:href="#md3ccb031fc" x="248.89952" y="129.845576" style="stroke: #000000; stroke-width: 0.6"/>
      </g>
     </g>
     <g id="text_9">
      <!-- $\mathdefault{0.80}$ -->
      <g transform="translate(21.3 133.645576) scale(0.1 -0.1)">
       <defs>
        <path id="NotoSans-Regular-38" d="M 1824 4634 
Q 2227 4634 2534 4509 
Q 2842 4384 3018 4141 
Q 3194 3898 3194 3539 
Q 3194 3264 3075 3059 
Q 2957 2854 2758 2697 
Q 2560 2541 2323 2419 
Q 2605 2285 2835 2115 
Q 3066 1946 3203 1722 
Q 3341 1498 3341 1184 
Q 3341 800 3155 521 
Q 2970 243 2634 89 
Q 2298 -64 1843 -64 
Q 1350 -64 1008 83 
Q 666 230 490 502 
Q 314 774 314 1165 
Q 314 1478 445 1708 
Q 576 1939 793 2105 
Q 1011 2272 1261 2387 
Q 1037 2515 854 2678 
Q 672 2842 566 3053 
Q 461 3264 461 3546 
Q 461 3898 640 4138 
Q 819 4378 1126 4506 
Q 1434 4634 1824 4634 
z
M 864 1158 
Q 864 826 1101 605 
Q 1338 384 1830 384 
Q 2298 384 2544 605 
Q 2790 826 2790 1178 
Q 2790 1402 2672 1571 
Q 2554 1741 2339 1875 
Q 2125 2010 1830 2118 
L 1728 2157 
Q 1446 2035 1254 1894 
Q 1062 1754 963 1574 
Q 864 1395 864 1158 
z
M 1818 4179 
Q 1466 4179 1238 4009 
Q 1011 3840 1011 3520 
Q 1011 3283 1123 3123 
Q 1235 2963 1427 2851 
Q 1619 2739 1850 2637 
Q 2074 2733 2250 2848 
Q 2426 2963 2531 3126 
Q 2637 3290 2637 3520 
Q 2637 3840 2413 4009 
Q 2189 4179 1818 4179 
z
" transform="scale(0.015625)"/>
       </defs>
       <use xlink:href="#NotoSans-Regular-30" transform="translate(0 0.5)"/>
       <use xlink:href="#NotoSans-Regular-2e" transform="translate(57.199997 0.5)"/>
       <use xlink:href="#NotoSans-Regular-38" transform="translate(83.999985 0.5)"/>
       <use xlink:href="#NotoSans-Regular-30" transform="translate(141.199982 0.5)"/>
      </g>
     </g>
    </g>
    <g id="ytick_5">
     <g id="line2d_17">
      <g>
       <use xlink:href="#m27dab49408" x="44.7" y="104.653885" style="stroke: #000000; stroke-width: 0.6"/>
      </g>
     </g>
     <g id="line2d_18">
      <g>
       <use xlink:href="#md3ccb031fc" x="248.89952" y="104.653885" style="stroke: #000000; stroke-width: 0.6"/>
      </g>
     </g>
     <g id="text_10">
      <!-- $\mathdefault{0.85}$ -->
      <g transform="translate(21.3 108.453885) scale(0.1 -0.1)">
       <use xlink:href="#NotoSans-Regular-30" transform="translate(0 0.5)"/>
       <use xlink:href="#NotoSans-Regular-2e" transform="translate(57.199997 0.5)"/>
       <use xlink:href="#NotoSans-Regular-38" transform="translate(83.999985 0.5)"/>
       <use xlink:href="#NotoSans-Regular-35" transform="translate(141.199982 0.5)"/>
      </g>
     </g>
    </g>
    <g id="ytick_6">
     <g id="line2d_19">
      <g>
       <use xlink:href="#m27dab49408" x="44.7" y="79.462193" style="stroke: #000000; stroke-width: 0.6"/>
      </g>
     </g>
     <g id="line2d_20">
      <g>
       <use xlink:href="#md3ccb031fc" x="248.89952" y="79.462193" style="stroke: #000000; stroke-width: 0.6"/>
      </g>
     </g>
     <g id="text_11">
      <!-- $\mathdefault{0.90}$ -->
      <g transform="translate(21.3 83.262193) scale(0.1 -0.1)">
       <defs>
        <path id="NotoSans-Regular-39" d="M 3328 2618 
Q 3328 2227 3273 1840 
Q 3219 1453 3084 1110 
Q 2950 768 2713 502 
Q 2477 237 2112 86 
Q 1747 -64 1229 -64 
Q 1101 -64 931 -48 
Q 762 -32 653 0 
L 653 480 
Q 768 442 921 419 
Q 1075 397 1216 397 
Q 1664 397 1955 544 
Q 2246 691 2419 944 
Q 2592 1197 2669 1533 
Q 2746 1869 2758 2240 
L 2720 2240 
Q 2624 2093 2477 1971 
Q 2330 1850 2122 1779 
Q 1914 1709 1632 1709 
Q 1242 1709 944 1872 
Q 646 2035 483 2342 
Q 320 2650 320 3091 
Q 320 3571 502 3916 
Q 685 4262 1011 4448 
Q 1338 4634 1779 4634 
Q 2106 4634 2387 4509 
Q 2669 4384 2880 4134 
Q 3091 3885 3209 3507 
Q 3328 3130 3328 2618 
z
M 1779 4160 
Q 1382 4160 1129 3897 
Q 877 3635 877 3098 
Q 877 2656 1091 2403 
Q 1306 2150 1754 2150 
Q 2061 2150 2285 2275 
Q 2509 2400 2633 2592 
Q 2758 2784 2758 2989 
Q 2758 3194 2697 3402 
Q 2637 3610 2515 3782 
Q 2394 3955 2208 4057 
Q 2022 4160 1779 4160 
z
" transform="scale(0.015625)"/>
       </defs>
       <use xlink:href="#NotoSans-Regular-30" transform="translate(0 0.5)"/>
       <use xlink:href="#NotoSans-Regular-2e" transform="translate(57.199997 0.5)"/>
       <use xlink:href="#NotoSans-Regular-39" transform="translate(83.999985 0.5)"/>
       <use xlink:href="#NotoSans-Regular-30" transform="translate(141.199982 0.5)"/>
      </g>
     </g>
    </g>
    <g id="ytick_7">
     <g id="line2d_21">
      <g>
       <use xlink:href="#m27dab49408" x="44.7" y="54.270501" style="stroke: #000000; stroke-width: 0.6"/>
      </g>
     </g>
     <g id="line2d_22">
      <g>
       <use xlink:href="#md3ccb031fc" x="248.89952" y="54.270501" style="stroke: #000000; stroke-width: 0.6"/>
      </g>
     </g>
     <g id="text_12">
      <!-- $\mathdefault{0.95}$ -->
      <g transform="translate(21.3 58.070501) scale(0.1 -0.1)">
       <use xlink:href="#NotoSans-Regular-30" transform="translate(0 0.5)"/>
       <use xlink:href="#NotoSans-Regular-2e" transform="translate(57.199997 0.5)"/>
       <use xlink:href="#NotoSans-Regular-39" transform="translate(83.999985 0.5)"/>
       <use xlink:href="#NotoSans-Regular-35" transform="translate(141.199982 0.5)"/>
      </g>
     </g>
    </g>
    <g id="ytick_8">
     <g id="line2d_23">
      <g>
       <use xlink:href="#m27dab49408" x="44.7" y="29.078809" style="stroke: #000000; stroke-width: 0.6"/>
      </g>
     </g>
     <g id="line2d_24">
      <g>
       <use xlink:href="#md3ccb031fc" x="248.89952" y="29.078809" style="stroke: #000000; stroke-width: 0.6"/>
      </g>
     </g>
     <g id="text_13">
      <!-- $\mathdefault{1.00}$ -->
      <g transform="translate(21.3 32.878809) scale(0.1 -0.1)">
       <use xlink:href="#NotoSans-Regular-31" transform="translate(0 0.5)"/>
       <use xlink:href="#NotoSans-Regular-2e" transform="translate(57.199997 0.5)"/>
       <use xlink:href="#NotoSans-Regular-30" transform="translate(83.999985 0.5)"/>
       <use xlink:href="#NotoSans-Regular-30" transform="translate(141.199982 0.5)"/>
      </g>
     </g>
    </g>
    <g id="text_14">
     <!-- $|t|$ -->
     <g transform="translate(14.8 127.54976) rotate(-90) scale(0.1 -0.1)">
      <defs>
       <path id="NotoSans-Regular-7c" d="M 1530 4864 
L 1997 4864 
L 1997 -1542 
L 1530 -1542 
L 1530 4864 
z
" transform="scale(0.015625)"/>
       <path id="NotoSans-Italic-74" d="M 1184 -64 
Q 838 -64 601 102 
Q 365 269 365 685 
Q 365 781 381 899 
Q 397 1018 422 1139 
L 813 3002 
L 282 3002 
L 333 3258 
L 909 3501 
L 1306 4211 
L 1638 4211 
L 1466 3430 
L 2330 3430 
L 2240 3002 
L 1382 3002 
L 986 1133 
Q 966 1050 947 944 
Q 928 838 928 749 
Q 928 602 1008 499 
Q 1088 397 1267 397 
Q 1382 397 1491 419 
Q 1600 442 1722 480 
L 1722 51 
Q 1645 13 1485 -25 
Q 1325 -64 1184 -64 
z
" transform="scale(0.015625)"/>
      </defs>
      <use xlink:href="#NotoSans-Regular-7c"/>
      <use xlink:href="#NotoSans-Italic-74" transform="translate(55.099991 0)"/>
      <use xlink:href="#NotoSans-Regular-7c" transform="translate(88.299988 0)"/>
     </g>
    </g>
   </g>
   <g id="line2d_25">
    <path d="M 163.941517 39.754385 
L 168.687297 42.69691 
L 173.433077 45.693583 
L 178.178857 46.705042 
L 182.924637 47.523385 
L 187.670417 50.699697 
L 192.416197 53.54872 
L 197.161976 98.097261 
L 201.907756 136.54118 
L 206.653536 176.459283 
L 211.399316 209.576815 
L 216.145096 206.637872 
L 220.890876 204.197193 
L 225.636656 201.589235 
L 230.382436 199.466434 
L 235.128216 196.453562 
" clip-path="url(#p8616dc709c)" style="fill: none; stroke: #456990; stroke-linecap: square"/>
    <defs>
     <path id="m3c215e839d" d="M 0 1.5 
C 0.397805 1.5 0.77937 1.341951 1.06066 1.06066 
C 1.341951 0.77937 1.5 0.397805 1.5 0 
C 1.5 -0.397805 1.341951 -0.77937 1.06066 -1.06066 
C 0.77937 -1.341951 0.397805 -1.5 0 -1.5 
C -0.397805 -1.5 -0.77937 -1.341951 -1.06066 -1.06066 
C -1.341951 -0.77937 -1.5 -0.397805 -1.5 0 
C -1.5 0.397805 -1.341951 0.77937 -1.06066 1.06066 
C -0.77937 1.341951 -0.397805 1.5 0 1.5 
z
" style="stroke: #ffffff; stroke-width: 0.75"/>
    </defs>
    <g clip-path="url(#p8616dc709c)">
     <use xlink:href="#m3c215e839d" x="163.941517" y="39.754385" style="fill: #456990; stroke: #ffffff; stroke-width: 0.75"/>
     <use xlink:href="#m3c215e839d" x="168.687297" y="42.69691" style="fill: #456990; stroke: #ffffff; stroke-width: 0.75"/>
     <use xlink:href="#m3c215e839d" x="173.433077" y="45.693583" style="fill: #456990; stroke: #ffffff; stroke-width: 0.75"/>
     <use xlink:href="#m3c215e839d" x="178.178857" y="46.705042" style="fill: #456990; stroke: #ffffff; stroke-width: 0.75"/>
     <use xlink:href="#m3c215e839d" x="182.924637" y="47.523385" style="fill: #456990; stroke: #ffffff; stroke-width: 0.75"/>
     <use xlink:href="#m3c215e839d" x="187.670417" y="50.699697" style="fill: #456990; stroke: #ffffff; stroke-width: 0.75"/>
     <use xlink:href="#m3c215e839d" x="192.416197" y="53.54872" style="fill: #456990; stroke: #ffffff; stroke-width: 0.75"/>
     <use xlink:href="#m3c215e839d" x="197.161976" y="98.097261" style="fill: #456990; stroke: #ffffff; stroke-width: 0.75"/>
     <use xlink:href="#m3c215e839d" x="201.907756" y="136.54118" style="fill: #456990; stroke: #ffffff; stroke-width: 0.75"/>
     <use xlink:href="#m3c215e839d" x="206.653536" y="176.459283" style="fill: #456990; stroke: #ffffff; stroke-width: 0.75"/>
     <use xlink:href="#m3c215e839d" x="211.399316" y="209.576815" style="fill: #456990; stroke: #ffffff; stroke-width: 0.75"/>
     <use xlink:href="#m3c215e839d" x="216.145096" y="206.637872" style="fill: #456990; stroke: #ffffff; stroke-width: 0.75"/>
     <use xlink:href="#m3c215e839d" x="220.890876" y="204.197193" style="fill: #456990; stroke: #ffffff; stroke-width: 0.75"/>
     <use xlink:href="#m3c215e839d" x="225.636656" y="201.589235" style="fill: #456990; stroke: #ffffff; stroke-width: 0.75"/>
     <use xlink:href="#m3c215e839d" x="230.382436" y="199.466434" style="fill: #456990; stroke: #ffffff; stroke-width: 0.75"/>
     <use xlink:href="#m3c215e839d" x="235.128216" y="196.453562" style="fill: #456990; stroke: #ffffff; stroke-width: 0.75"/>
    </g>
   </g>
   <g id="line2d_26">
    <path d="M 53.981796 32.079996 
L 58.727576 32.269656 
L 63.473356 32.724763 
L 68.219136 33.19396 
L 72.964916 33.317931 
L 77.710696 32.38734 
L 82.456476 31.122705 
L 87.202256 31.158701 
L 91.948036 32.463546 
L 96.693816 33.498047 
L 101.439596 34.08093 
L 106.185375 34.305187 
L 110.931155 34.080344 
L 115.676935 33.231321 
L 120.422715 32.37986 
L 125.168495 32.17195 
L 129.914275 32.397976 
L 134.660055 32.109478 
L 139.405835 33.740021 
L 144.151615 37.514683 
L 148.897395 37.085384 
L 153.643175 35.030273 
L 158.388955 34.770153 
L 163.134734 37.144516 
L 167.880514 37.926622 
L 172.626294 39.138939 
L 177.372074 41.275338 
L 182.117854 44.292934 
L 186.863634 47.462577 
L 191.609414 52.123256 
L 196.355194 55.122662 
L 201.100974 59.342272 
L 205.846754 71.39647 
L 210.592534 88.44891 
L 215.338314 135.90754 
L 220.084093 201.059234 
L 224.829873 200.393295 
L 229.575653 198.547987 
L 234.321433 197.016592 
L 239.067213 195.012549 
" clip-path="url(#p8616dc709c)" style="fill: none; stroke: #ce6446; stroke-linecap: square"/>
    <defs>
     <path id="mae372a7be3" d="M 0 1.5 
C 0.397805 1.5 0.77937 1.341951 1.06066 1.06066 
C 1.341951 0.77937 1.5 0.397805 1.5 0 
C 1.5 -0.397805 1.341951 -0.77937 1.06066 -1.06066 
C 0.77937 -1.341951 0.397805 -1.5 0 -1.5 
C -0.397805 -1.5 -0.77937 -1.341951 -1.06066 -1.06066 
C -1.341951 -0.77937 -1.5 -0.397805 -1.5 0 
C -1.5 0.397805 -1.341951 0.77937 -1.06066 1.06066 
C -0.77937 1.341951 -0.397805 1.5 0 1.5 
z
" style="stroke: #ffffff; stroke-width: 0.75"/>
    </defs>
    <g clip-path="url(#p8616dc709c)">
     <use xlink:href="#mae372a7be3" x="53.981796" y="32.079996" style="fill: #ce6446; stroke: #ffffff; stroke-width: 0.75"/>
     <use xlink:href="#mae372a7be3" x="58.727576" y="32.269656" style="fill: #ce6446; stroke: #ffffff; stroke-width: 0.75"/>
     <use xlink:href="#mae372a7be3" x="63.473356" y="32.724763" style="fill: #ce6446; stroke: #ffffff; stroke-width: 0.75"/>
     <use xlink:href="#mae372a7be3" x="68.219136" y="33.19396" style="fill: #ce6446; stroke: #ffffff; stroke-width: 0.75"/>
     <use xlink:href="#mae372a7be3" x="72.964916" y="33.317931" style="fill: #ce6446; stroke: #ffffff; stroke-width: 0.75"/>
     <use xlink:href="#mae372a7be3" x="77.710696" y="32.38734" style="fill: #ce6446; stroke: #ffffff; stroke-width: 0.75"/>
     <use xlink:href="#mae372a7be3" x="82.456476" y="31.122705" style="fill: #ce6446; stroke: #ffffff; stroke-width: 0.75"/>
     <use xlink:href="#mae372a7be3" x="87.202256" y="31.158701" style="fill: #ce6446; stroke: #ffffff; stroke-width: 0.75"/>
     <use xlink:href="#mae372a7be3" x="91.948036" y="32.463546" style="fill: #ce6446; stroke: #ffffff; stroke-width: 0.75"/>
     <use xlink:href="#mae372a7be3" x="96.693816" y="33.498047" style="fill: #ce6446; stroke: #ffffff; stroke-width: 0.75"/>
     <use xlink:href="#mae372a7be3" x="101.439596" y="34.08093" style="fill: #ce6446; stroke: #ffffff; stroke-width: 0.75"/>
     <use xlink:href="#mae372a7be3" x="106.185375" y="34.305187" style="fill: #ce6446; stroke: #ffffff; stroke-width: 0.75"/>
     <use xlink:href="#mae372a7be3" x="110.931155" y="34.080344" style="fill: #ce6446; stroke: #ffffff; stroke-width: 0.75"/>
     <use xlink:href="#mae372a7be3" x="115.676935" y="33.231321" style="fill: #ce6446; stroke: #ffffff; stroke-width: 0.75"/>
     <use xlink:href="#mae372a7be3" x="120.422715" y="32.37986" style="fill: #ce6446; stroke: #ffffff; stroke-width: 0.75"/>
     <use xlink:href="#mae372a7be3" x="125.168495" y="32.17195" style="fill: #ce6446; stroke: #ffffff; stroke-width: 0.75"/>
     <use xlink:href="#mae372a7be3" x="129.914275" y="32.397976" style="fill: #ce6446; stroke: #ffffff; stroke-width: 0.75"/>
     <use xlink:href="#mae372a7be3" x="134.660055" y="32.109478" style="fill: #ce6446; stroke: #ffffff; stroke-width: 0.75"/>
     <use xlink:href="#mae372a7be3" x="139.405835" y="33.740021" style="fill: #ce6446; stroke: #ffffff; stroke-width: 0.75"/>
     <use xlink:href="#mae372a7be3" x="144.151615" y="37.514683" style="fill: #ce6446; stroke: #ffffff; stroke-width: 0.75"/>
     <use xlink:href="#mae372a7be3" x="148.897395" y="37.085384" style="fill: #ce6446; stroke: #ffffff; stroke-width: 0.75"/>
     <use xlink:href="#mae372a7be3" x="153.643175" y="35.030273" style="fill: #ce6446; stroke: #ffffff; stroke-width: 0.75"/>
     <use xlink:href="#mae372a7be3" x="158.388955" y="34.770153" style="fill: #ce6446; stroke: #ffffff; stroke-width: 0.75"/>
     <use xlink:href="#mae372a7be3" x="163.134734" y="37.144516" style="fill: #ce6446; stroke: #ffffff; stroke-width: 0.75"/>
     <use xlink:href="#mae372a7be3" x="167.880514" y="37.926622" style="fill: #ce6446; stroke: #ffffff; stroke-width: 0.75"/>
     <use xlink:href="#mae372a7be3" x="172.626294" y="39.138939" style="fill: #ce6446; stroke: #ffffff; stroke-width: 0.75"/>
     <use xlink:href="#mae372a7be3" x="177.372074" y="41.275338" style="fill: #ce6446; stroke: #ffffff; stroke-width: 0.75"/>
     <use xlink:href="#mae372a7be3" x="182.117854" y="44.292934" style="fill: #ce6446; stroke: #ffffff; stroke-width: 0.75"/>
     <use xlink:href="#mae372a7be3" x="186.863634" y="47.462577" style="fill: #ce6446; stroke: #ffffff; stroke-width: 0.75"/>
     <use xlink:href="#mae372a7be3" x="191.609414" y="52.123256" style="fill: #ce6446; stroke: #ffffff; stroke-width: 0.75"/>
     <use xlink:href="#mae372a7be3" x="196.355194" y="55.122662" style="fill: #ce6446; stroke: #ffffff; stroke-width: 0.75"/>
     <use xlink:href="#mae372a7be3" x="201.100974" y="59.342272" style="fill: #ce6446; stroke: #ffffff; stroke-width: 0.75"/>
     <use xlink:href="#mae372a7be3" x="205.846754" y="71.39647" style="fill: #ce6446; stroke: #ffffff; stroke-width: 0.75"/>
     <use xlink:href="#mae372a7be3" x="210.592534" y="88.44891" style="fill: #ce6446; stroke: #ffffff; stroke-width: 0.75"/>
     <use xlink:href="#mae372a7be3" x="215.338314" y="135.90754" style="fill: #ce6446; stroke: #ffffff; stroke-width: 0.75"/>
     <use xlink:href="#mae372a7be3" x="220.084093" y="201.059234" style="fill: #ce6446; stroke: #ffffff; stroke-width: 0.75"/>
     <use xlink:href="#mae372a7be3" x="224.829873" y="200.393295" style="fill: #ce6446; stroke: #ffffff; stroke-width: 0.75"/>
     <use xlink:href="#mae372a7be3" x="229.575653" y="198.547987" style="fill: #ce6446; stroke: #ffffff; stroke-width: 0.75"/>
     <use xlink:href="#mae372a7be3" x="234.321433" y="197.016592" style="fill: #ce6446; stroke: #ffffff; stroke-width: 0.75"/>
     <use xlink:href="#mae372a7be3" x="239.067213" y="195.012549" style="fill: #ce6446; stroke: #ffffff; stroke-width: 0.75"/>
    </g>
   </g>
   <g id="line2d_27"/>
   <g id="line2d_28"/>
   <g id="patch_3">
    <path d="M 44.7 218.49952 
L 44.7 22.2 
" style="fill: none; stroke: #000000; stroke-width: 0.6; stroke-linejoin: miter; stroke-linecap: square"/>
   </g>
   <g id="patch_4">
    <path d="M 248.89952 218.49952 
L 248.89952 22.2 
" style="fill: none; stroke: #000000; stroke-width: 0.6; stroke-linejoin: miter; stroke-linecap: square"/>
   </g>
   <g id="patch_5">
    <path d="M 44.7 218.49952 
L 248.89952 218.49952 
" style="fill: none; stroke: #000000; stroke-width: 0.6; stroke-linejoin: miter; stroke-linecap: square"/>
   </g>
   <g id="patch_6">
    <path d="M 44.7 22.2 
L 248.89952 22.2 
" style="fill: none; stroke: #000000; stroke-width: 0.6; stroke-linejoin: miter; stroke-linecap: square"/>
   </g>
   <g id="text_15">
    <!-- a -->
    <g transform="translate(31.679688 14.8) scale(0.1 -0.1)">
     <defs>
      <path id="NotoSans-Bold-61" d="M 1933 3565 
Q 2637 3565 3011 3261 
Q 3386 2957 3386 2330 
L 3386 0 
L 2720 0 
L 2534 474 
L 2509 474 
Q 2362 288 2205 166 
Q 2048 45 1846 -9 
Q 1645 -64 1350 -64 
Q 1043 -64 796 54 
Q 550 173 409 419 
Q 269 666 269 1043 
Q 269 1600 659 1865 
Q 1050 2131 1830 2157 
L 2438 2176 
L 2438 2330 
Q 2438 2605 2294 2733 
Q 2150 2861 1894 2861 
Q 1638 2861 1395 2787 
Q 1152 2714 909 2605 
L 595 3251 
Q 877 3398 1219 3481 
Q 1562 3565 1933 3565 
z
M 2067 1606 
Q 1606 1594 1427 1440 
Q 1248 1286 1248 1037 
Q 1248 819 1376 726 
Q 1504 634 1709 634 
Q 2016 634 2227 816 
Q 2438 998 2438 1331 
L 2438 1619 
L 2067 1606 
z
" transform="scale(0.015625)"/>
     </defs>
     <use xlink:href="#NotoSans-Bold-61"/>
    </g>
   </g>
   <g id="legend_1">
    <g id="patch_7">
     <path d="M 49.7 213.49952 
L 132.998438 213.49952 
L 132.998438 176.49952 
L 49.7 176.49952 
z
" style="fill: #ffffff; opacity: 0.9"/>
    </g>
    <g id="line2d_29">
     <path d="M 55.7 186.59952 
L 65.7 186.59952 
L 75.7 186.59952 
" style="fill: none; stroke: #456990; stroke-linecap: square"/>
     <g>
      <use xlink:href="#m3c215e839d" x="65.7" y="186.59952" style="fill: #456990; stroke: #ffffff; stroke-width: 0.75"/>
     </g>
    </g>
    <g id="text_16">
     <!-- Cooling -->
     <g transform="translate(83.7 190.09952) scale(0.1 -0.1)">
      <defs>
       <path id="NotoSans-Regular-43" d="M 2579 4128 
Q 2214 4128 1920 4003 
Q 1626 3878 1421 3638 
Q 1216 3398 1107 3056 
Q 998 2714 998 2285 
Q 998 1722 1174 1306 
Q 1350 890 1699 666 
Q 2048 442 2573 442 
Q 2874 442 3142 493 
Q 3411 544 3667 621 
L 3667 122 
Q 3411 26 3139 -19 
Q 2867 -64 2490 -64 
Q 1792 -64 1325 224 
Q 858 512 624 1043 
Q 390 1574 390 2291 
Q 390 2810 534 3238 
Q 678 3667 956 3980 
Q 1235 4294 1644 4464 
Q 2054 4634 2586 4634 
Q 2938 4634 3264 4563 
Q 3590 4493 3846 4365 
L 3616 3878 
Q 3405 3974 3145 4051 
Q 2886 4128 2579 4128 
z
" transform="scale(0.015625)"/>
       <path id="NotoSans-Regular-6f" d="M 3526 1722 
Q 3526 1293 3414 963 
Q 3302 634 3094 403 
Q 2886 173 2588 54 
Q 2291 -64 1926 -64 
Q 1587 -64 1299 54 
Q 1011 173 800 403 
Q 589 634 470 963 
Q 352 1293 352 1722 
Q 352 2291 544 2684 
Q 736 3078 1094 3286 
Q 1453 3494 1946 3494 
Q 2413 3494 2768 3286 
Q 3123 3078 3324 2684 
Q 3526 2291 3526 1722 
z
M 934 1722 
Q 934 1318 1040 1020 
Q 1146 723 1370 563 
Q 1594 403 1939 403 
Q 2285 403 2509 563 
Q 2733 723 2838 1020 
Q 2944 1318 2944 1722 
Q 2944 2131 2835 2419 
Q 2726 2707 2505 2864 
Q 2285 3021 1933 3021 
Q 1408 3021 1171 2675 
Q 934 2330 934 1722 
z
" transform="scale(0.015625)"/>
       <path id="NotoSans-Regular-6c" d="M 1107 0 
L 544 0 
L 544 4864 
L 1107 4864 
L 1107 0 
z
" transform="scale(0.015625)"/>
       <path id="NotoSans-Regular-69" d="M 1107 3430 
L 1107 0 
L 544 0 
L 544 3430 
L 1107 3430 
z
M 832 4717 
Q 960 4717 1059 4630 
Q 1158 4544 1158 4358 
Q 1158 4179 1059 4089 
Q 960 4000 832 4000 
Q 691 4000 595 4089 
Q 499 4179 499 4358 
Q 499 4544 595 4630 
Q 691 4717 832 4717 
z
" transform="scale(0.015625)"/>
       <path id="NotoSans-Regular-6e" d="M 2195 3494 
Q 2810 3494 3123 3196 
Q 3437 2899 3437 2234 
L 3437 0 
L 2880 0 
L 2880 2195 
Q 2880 2611 2694 2816 
Q 2509 3021 2112 3021 
Q 1542 3021 1324 2701 
Q 1107 2381 1107 1779 
L 1107 0 
L 544 0 
L 544 3430 
L 998 3430 
L 1082 2963 
L 1114 2963 
Q 1229 3142 1398 3260 
Q 1568 3379 1773 3436 
Q 1978 3494 2195 3494 
z
" transform="scale(0.015625)"/>
       <path id="NotoSans-Regular-67" d="M 1760 3494 
Q 2099 3494 2371 3366 
Q 2643 3238 2835 2976 
L 2867 2976 
L 2944 3430 
L 3392 3430 
L 3392 -58 
Q 3392 -544 3225 -873 
Q 3059 -1203 2720 -1369 
Q 2381 -1536 1856 -1536 
Q 1485 -1536 1174 -1481 
Q 864 -1427 621 -1318 
L 621 -800 
Q 864 -928 1190 -998 
Q 1517 -1069 1888 -1069 
Q 2330 -1069 2582 -809 
Q 2835 -550 2835 -102 
L 2835 32 
Q 2835 109 2841 253 
Q 2848 397 2854 454 
L 2829 454 
Q 2650 192 2384 64 
Q 2118 -64 1766 -64 
Q 1101 -64 726 403 
Q 352 870 352 1709 
Q 352 2528 726 3011 
Q 1101 3494 1760 3494 
z
M 1837 3021 
Q 1549 3021 1347 2867 
Q 1146 2714 1040 2419 
Q 934 2125 934 1702 
Q 934 1069 1168 733 
Q 1402 397 1850 397 
Q 2112 397 2297 464 
Q 2483 531 2604 675 
Q 2726 819 2784 1043 
Q 2842 1267 2842 1574 
L 2842 1709 
Q 2842 2176 2736 2464 
Q 2630 2752 2406 2886 
Q 2182 3021 1837 3021 
z
" transform="scale(0.015625)"/>
      </defs>
      <use xlink:href="#NotoSans-Regular-43"/>
      <use xlink:href="#NotoSans-Regular-6f" x="63.199997"/>
      <use xlink:href="#NotoSans-Regular-6f" x="123.699982"/>
      <use xlink:href="#NotoSans-Regular-6c" x="184.199966"/>
      <use xlink:href="#NotoSans-Regular-69" x="209.999954"/>
      <use xlink:href="#NotoSans-Regular-6e" x="235.799942"/>
      <use xlink:href="#NotoSans-Regular-67" x="297.59993"/>
     </g>
    </g>
    <g id="line2d_30">
     <path d="M 55.7 201.59952 
L 65.7 201.59952 
L 75.7 201.59952 
" style="fill: none; stroke: #ce6446; stroke-linecap: square"/>
     <g>
      <use xlink:href="#mae372a7be3" x="65.7" y="201.59952" style="fill: #ce6446; stroke: #ffffff; stroke-width: 0.75"/>
     </g>
    </g>
    <g id="text_17">
     <!-- Warming -->
     <g transform="translate(83.7 205.09952) scale(0.1 -0.1)">
      <defs>
       <path id="NotoSans-Regular-57" d="M 5869 4570 
L 4653 0 
L 4070 0 
L 3181 2995 
Q 3142 3130 3104 3270 
Q 3066 3411 3034 3539 
Q 3002 3667 2979 3760 
Q 2957 3853 2950 3898 
Q 2944 3853 2928 3760 
Q 2912 3667 2880 3539 
Q 2848 3411 2813 3267 
Q 2778 3123 2733 2976 
L 1869 0 
L 1286 0 
L 77 4570 
L 678 4570 
L 1389 1779 
Q 1427 1632 1459 1488 
Q 1491 1344 1520 1206 
Q 1549 1069 1568 941 
Q 1587 813 1606 691 
Q 1626 819 1648 953 
Q 1670 1088 1702 1232 
Q 1734 1376 1772 1523 
Q 1811 1670 1850 1811 
L 2656 4570 
L 3251 4570 
L 4090 1792 
Q 4134 1645 4172 1494 
Q 4211 1344 4243 1203 
Q 4275 1062 4297 931 
Q 4320 800 4339 691 
Q 4358 851 4390 1027 
Q 4422 1203 4467 1395 
Q 4512 1587 4563 1786 
L 5267 4570 
L 5869 4570 
z
" transform="scale(0.015625)"/>
       <path id="NotoSans-Regular-61" d="M 1843 3488 
Q 2470 3488 2771 3213 
Q 3072 2938 3072 2336 
L 3072 0 
L 2662 0 
L 2554 486 
L 2528 486 
Q 2381 301 2224 176 
Q 2067 51 1865 -6 
Q 1664 -64 1376 -64 
Q 1069 -64 822 45 
Q 576 154 435 381 
Q 294 608 294 954 
Q 294 1466 697 1744 
Q 1101 2022 1939 2048 
L 2522 2067 
L 2522 2272 
Q 2522 2701 2336 2867 
Q 2150 3034 1811 3034 
Q 1542 3034 1299 2954 
Q 1056 2874 845 2771 
L 672 3194 
Q 896 3315 1203 3401 
Q 1510 3488 1843 3488 
z
M 2010 1658 
Q 1370 1632 1123 1453 
Q 877 1274 877 947 
Q 877 659 1053 524 
Q 1229 390 1504 390 
Q 1939 390 2227 630 
Q 2515 870 2515 1370 
L 2515 1677 
L 2010 1658 
z
" transform="scale(0.015625)"/>
       <path id="NotoSans-Regular-72" d="M 2144 3494 
Q 2240 3494 2352 3484 
Q 2464 3475 2547 3456 
L 2477 2938 
Q 2394 2957 2294 2969 
Q 2195 2982 2106 2982 
Q 1907 2982 1728 2899 
Q 1549 2816 1408 2665 
Q 1267 2515 1187 2304 
Q 1107 2093 1107 1830 
L 1107 0 
L 544 0 
L 544 3430 
L 1005 3430 
L 1069 2803 
L 1094 2803 
Q 1203 2995 1356 3152 
Q 1510 3309 1708 3401 
Q 1907 3494 2144 3494 
z
" transform="scale(0.015625)"/>
       <path id="NotoSans-Regular-6d" d="M 4307 3494 
Q 4890 3494 5178 3196 
Q 5466 2899 5466 2234 
L 5466 0 
L 4909 0 
L 4909 2208 
Q 4909 2611 4739 2816 
Q 4570 3021 4211 3021 
Q 3712 3021 3497 2733 
Q 3283 2445 3283 1894 
L 3283 0 
L 2726 0 
L 2726 2208 
Q 2726 2477 2649 2659 
Q 2573 2842 2419 2931 
Q 2266 3021 2022 3021 
Q 1677 3021 1478 2877 
Q 1280 2733 1193 2457 
Q 1107 2182 1107 1779 
L 1107 0 
L 544 0 
L 544 3430 
L 998 3430 
L 1082 2963 
L 1114 2963 
Q 1222 3142 1379 3260 
Q 1536 3379 1728 3436 
Q 1920 3494 2125 3494 
Q 2522 3494 2787 3353 
Q 3053 3213 3174 2918 
L 3206 2918 
Q 3379 3213 3676 3353 
Q 3974 3494 4307 3494 
z
" transform="scale(0.015625)"/>
      </defs>
      <use xlink:href="#NotoSans-Regular-57"/>
      <use xlink:href="#NotoSans-Regular-61" x="92.999985"/>
      <use xlink:href="#NotoSans-Regular-72" x="149.099976"/>
      <use xlink:href="#NotoSans-Regular-6d" x="190.399963"/>
      <use xlink:href="#NotoSans-Regular-69" x="283.899948"/>
      <use xlink:href="#NotoSans-Regular-6e" x="309.699936"/>
      <use xlink:href="#NotoSans-Regular-67" x="371.499924"/>
     </g>
    </g>
   </g>
  </g>
  <g id="axes_2">
   <g id="patch_8">
    <path d="M 286.6 218.49952 
L 490.79952 218.49952 
L 490.79952 22.2 
L 286.6 22.2 
z
" style="fill: #ffffff"/>
   </g>
   <g id="PolyCollection_3">
    <defs>
     <path id="m5b7471c62a" d="M 296.840444 -43.79871 
L 296.840444 -43.79871 
L 304.85132 -44.346641 
L 312.264229 -44.925769 
L 321.94562 -46.184818 
L 331.114466 -47.345951 
L 340.378229 -49.726142 
L 349.698941 -51.229652 
L 359.048127 -53.581875 
L 368.425788 -56.669917 
L 377.841416 -58.844755 
L 387.276026 -63.302928 
L 396.653687 -66.11905 
L 406.050331 -70.524838 
L 415.465959 -78.707718 
L 424.891078 -92.913126 
L 434.325688 -123.977673 
L 443.760299 -199.30223 
L 453.185418 -218.640407 
L 462.620028 -218.640407 
L 472.06413 -222.076815 
L 481.517724 -215.266846 
L 481.517724 -215.266846 
L 481.517724 -215.266846 
L 472.06413 -222.076815 
L 462.620028 -218.640407 
L 453.185418 -218.640407 
L 443.760299 -199.30223 
L 434.325688 -123.977673 
L 424.891078 -92.913126 
L 415.465959 -78.707718 
L 406.050331 -70.524838 
L 396.653687 -66.11905 
L 387.276026 -63.302928 
L 377.841416 -58.844755 
L 368.425788 -56.669917 
L 359.048127 -53.581875 
L 349.698941 -51.229652 
L 340.378229 -49.726142 
L 331.114466 -47.345951 
L 321.94562 -46.184818 
L 312.264229 -44.925769 
L 304.85132 -44.346641 
L 296.840444 -43.79871 
z
" style="stroke: #456990; stroke-opacity: 0.2"/>
    </defs>
    <g clip-path="url(#p35f7ef6de5)">
     <use xlink:href="#m5b7471c62a" x="0" y="253.19952" style="fill: #456990; fill-opacity: 0.2; stroke: #456990; stroke-opacity: 0.2"/>
    </g>
   </g>
   <g id="PolyCollection_4">
    <defs>
     <path id="m5745fdeb4c" d="M 296.005187 -43.622705 
L 296.005187 -43.622705 
L 303.949622 -43.622705 
L 312.387619 -44.536132 
L 321.480533 -45.749551 
L 330.725313 -47.345951 
L 340.046024 -49.162529 
L 349.404702 -50.917748 
L 358.772872 -53.581875 
L 368.179008 -56.25852 
L 377.594635 -58.393584 
L 387.019754 -61.733866 
L 396.444873 -66.714138 
L 405.841517 -71.891781 
L 415.257144 -77.893288 
L 424.691755 -89.749034 
L 434.135857 -106.135914 
L 443.570467 -146.243049 
L 453.014569 -199.30223 
L 462.468163 -211.954981 
L 471.931248 -218.640407 
L 481.394333 -211.954981 
L 481.394333 -211.954981 
L 481.394333 -211.954981 
L 471.931248 -218.640407 
L 462.468163 -211.954981 
L 453.014569 -199.30223 
L 443.570467 -146.243049 
L 434.135857 -106.135914 
L 424.691755 -89.749034 
L 415.257144 -77.893288 
L 405.841517 -71.891781 
L 396.444873 -66.714138 
L 387.019754 -61.733866 
L 377.594635 -58.393584 
L 368.179008 -56.25852 
L 358.772872 -53.581875 
L 349.404702 -50.917748 
L 340.046024 -49.162529 
L 330.725313 -47.345951 
L 321.480533 -45.749551 
L 312.387619 -44.536132 
L 303.949622 -43.622705 
L 296.005187 -43.622705 
z
" style="stroke: #ce6446; stroke-opacity: 0.2"/>
    </defs>
    <g clip-path="url(#p35f7ef6de5)">
     <use xlink:href="#m5745fdeb4c" x="0" y="253.19952" style="fill: #ce6446; fill-opacity: 0.2; stroke: #ce6446; stroke-opacity: 0.2"/>
    </g>
   </g>
   <g id="matplotlib.axis_3">
    <g id="xtick_5">
     <g id="line2d_31">
      <g>
       <use xlink:href="#m60d80b8762" x="333.93346" y="218.49952" style="stroke: #000000; stroke-width: 0.6"/>
      </g>
     </g>
     <g id="line2d_32">
      <g>
       <use xlink:href="#m547228acca" x="333.93346" y="22.2" style="stroke: #000000; stroke-width: 0.6"/>
      </g>
     </g>
     <g id="text_18">
      <!-- $\mathdefault{50}$ -->
      <g transform="translate(328.18346 229.59952) scale(0.1 -0.1)">
       <use xlink:href="#NotoSans-Regular-35" transform="translate(0 0.5)"/>
       <use xlink:href="#NotoSans-Regular-30" transform="translate(57.199997 0.5)"/>
      </g>
     </g>
    </g>
    <g id="xtick_6">
     <g id="line2d_33">
      <g>
       <use xlink:href="#m60d80b8762" x="381.391259" y="218.49952" style="stroke: #000000; stroke-width: 0.6"/>
      </g>
     </g>
     <g id="line2d_34">
      <g>
       <use xlink:href="#m547228acca" x="381.391259" y="22.2" style="stroke: #000000; stroke-width: 0.6"/>
      </g>
     </g>
     <g id="text_19">
      <!-- $\mathdefault{100}$ -->
      <g transform="translate(372.791259 229.59952) scale(0.1 -0.1)">
       <use xlink:href="#NotoSans-Regular-31" transform="translate(0 0.5)"/>
       <use xlink:href="#NotoSans-Regular-30" transform="translate(57.199997 0.5)"/>
       <use xlink:href="#NotoSans-Regular-30" transform="translate(114.399994 0.5)"/>
      </g>
     </g>
    </g>
    <g id="xtick_7">
     <g id="line2d_35">
      <g>
       <use xlink:href="#m60d80b8762" x="428.849058" y="218.49952" style="stroke: #000000; stroke-width: 0.6"/>
      </g>
     </g>
     <g id="line2d_36">
      <g>
       <use xlink:href="#m547228acca" x="428.849058" y="22.2" style="stroke: #000000; stroke-width: 0.6"/>
      </g>
     </g>
     <g id="text_20">
      <!-- $\mathdefault{150}$ -->
      <g transform="translate(420.249058 229.59952) scale(0.1 -0.1)">
       <use xlink:href="#NotoSans-Regular-31" transform="translate(0 0.5)"/>
       <use xlink:href="#NotoSans-Regular-35" transform="translate(57.199997 0.5)"/>
       <use xlink:href="#NotoSans-Regular-30" transform="translate(114.399994 0.5)"/>
      </g>
     </g>
    </g>
    <g id="xtick_8">
     <g id="line2d_37">
      <g>
       <use xlink:href="#m60d80b8762" x="476.306857" y="218.49952" style="stroke: #000000; stroke-width: 0.6"/>
      </g>
     </g>
     <g id="line2d_38">
      <g>
       <use xlink:href="#m547228acca" x="476.306857" y="22.2" style="stroke: #000000; stroke-width: 0.6"/>
      </g>
     </g>
     <g id="text_21">
      <!-- $\mathdefault{200}$ -->
      <g transform="translate(467.706857 229.59952) scale(0.1 -0.1)">
       <use xlink:href="#NotoSans-Regular-32" transform="translate(0 0.5)"/>
       <use xlink:href="#NotoSans-Regular-30" transform="translate(57.199997 0.5)"/>
       <use xlink:href="#NotoSans-Regular-30" transform="translate(114.399994 0.5)"/>
      </g>
     </g>
    </g>
    <g id="text_22">
     <!-- $T$ (K) -->
     <g transform="translate(378.79976 243.59952) scale(0.1 -0.1)">
      <use xlink:href="#NotoSans-Italic-54" transform="translate(0 0.59375)"/>
      <use xlink:href="#NotoSans-Regular-20" transform="translate(50.099991 0.59375)"/>
      <use xlink:href="#NotoSans-Regular-28" transform="translate(76.099976 0.59375)"/>
      <use xlink:href="#NotoSans-Regular-4b" transform="translate(106.09996 0.59375)"/>
      <use xlink:href="#NotoSans-Regular-29" transform="translate(167.999954 0.59375)"/>
     </g>
    </g>
   </g>
   <g id="matplotlib.axis_4">
    <g id="ytick_9">
     <g id="line2d_39">
      <g>
       <use xlink:href="#m27dab49408" x="286.6" y="192.438215" style="stroke: #000000; stroke-width: 0.6"/>
      </g>
     </g>
     <g id="line2d_40">
      <g>
       <use xlink:href="#md3ccb031fc" x="490.79952" y="192.438215" style="stroke: #000000; stroke-width: 0.6"/>
      </g>
     </g>
     <g id="text_23">
      <!-- $\mathdefault{0.2}$ -->
      <g transform="translate(268.9 196.238215) scale(0.1 -0.1)">
       <use xlink:href="#NotoSans-Regular-30" transform="translate(0 0.5)"/>
       <use xlink:href="#NotoSans-Regular-2e" transform="translate(57.199997 0.5)"/>
       <use xlink:href="#NotoSans-Regular-32" transform="translate(83.999985 0.5)"/>
      </g>
     </g>
    </g>
    <g id="ytick_10">
     <g id="line2d_41">
      <g>
       <use xlink:href="#m27dab49408" x="286.6" y="165.85174" style="stroke: #000000; stroke-width: 0.6"/>
      </g>
     </g>
     <g id="line2d_42">
      <g>
       <use xlink:href="#md3ccb031fc" x="490.79952" y="165.85174" style="stroke: #000000; stroke-width: 0.6"/>
      </g>
     </g>
     <g id="text_24">
      <!-- $\mathdefault{0.4}$ -->
      <g transform="translate(268.9 169.65174) scale(0.1 -0.1)">
       <defs>
        <path id="NotoSans-Regular-34" d="M 3533 1037 
L 2867 1037 
L 2867 0 
L 2323 0 
L 2323 1037 
L 134 1037 
L 134 1517 
L 2285 4595 
L 2867 4595 
L 2867 1542 
L 3533 1542 
L 3533 1037 
z
M 2323 2982 
Q 2323 3149 2326 3286 
Q 2330 3424 2336 3545 
Q 2342 3667 2345 3779 
Q 2349 3891 2355 3994 
L 2330 3994 
Q 2278 3872 2201 3731 
Q 2125 3590 2054 3494 
L 685 1542 
L 2323 1542 
L 2323 2982 
z
" transform="scale(0.015625)"/>
       </defs>
       <use xlink:href="#NotoSans-Regular-30" transform="translate(0 0.5)"/>
       <use xlink:href="#NotoSans-Regular-2e" transform="translate(57.199997 0.5)"/>
       <use xlink:href="#NotoSans-Regular-34" transform="translate(83.999985 0.5)"/>
      </g>
     </g>
    </g>
    <g id="ytick_11">
     <g id="line2d_43">
      <g>
       <use xlink:href="#m27dab49408" x="286.6" y="139.265265" style="stroke: #000000; stroke-width: 0.6"/>
      </g>
     </g>
     <g id="line2d_44">
      <g>
       <use xlink:href="#md3ccb031fc" x="490.79952" y="139.265265" style="stroke: #000000; stroke-width: 0.6"/>
      </g>
     </g>
     <g id="text_25">
      <!-- $\mathdefault{0.6}$ -->
      <g transform="translate(268.9 143.065265) scale(0.1 -0.1)">
       <use xlink:href="#NotoSans-Regular-30" transform="translate(0 0.5)"/>
       <use xlink:href="#NotoSans-Regular-2e" transform="translate(57.199997 0.5)"/>
       <use xlink:href="#NotoSans-Regular-36" transform="translate(83.999985 0.5)"/>
      </g>
     </g>
    </g>
    <g id="ytick_12">
     <g id="line2d_45">
      <g>
       <use xlink:href="#m27dab49408" x="286.6" y="112.67879" style="stroke: #000000; stroke-width: 0.6"/>
      </g>
     </g>
     <g id="line2d_46">
      <g>
       <use xlink:href="#md3ccb031fc" x="490.79952" y="112.67879" style="stroke: #000000; stroke-width: 0.6"/>
      </g>
     </g>
     <g id="text_26">
      <!-- $\mathdefault{0.8}$ -->
      <g transform="translate(268.9 116.47879) scale(0.1 -0.1)">
       <use xlink:href="#NotoSans-Regular-30" transform="translate(0 0.5)"/>
       <use xlink:href="#NotoSans-Regular-2e" transform="translate(57.199997 0.5)"/>
       <use xlink:href="#NotoSans-Regular-38" transform="translate(83.999985 0.5)"/>
      </g>
     </g>
    </g>
    <g id="ytick_13">
     <g id="line2d_47">
      <g>
       <use xlink:href="#m27dab49408" x="286.6" y="86.092315" style="stroke: #000000; stroke-width: 0.6"/>
      </g>
     </g>
     <g id="line2d_48">
      <g>
       <use xlink:href="#md3ccb031fc" x="490.79952" y="86.092315" style="stroke: #000000; stroke-width: 0.6"/>
      </g>
     </g>
     <g id="text_27">
      <!-- $\mathdefault{1.0}$ -->
      <g transform="translate(268.9 89.892315) scale(0.1 -0.1)">
       <use xlink:href="#NotoSans-Regular-31" transform="translate(0 0.5)"/>
       <use xlink:href="#NotoSans-Regular-2e" transform="translate(57.199997 0.5)"/>
       <use xlink:href="#NotoSans-Regular-30" transform="translate(83.999985 0.5)"/>
      </g>
     </g>
    </g>
    <g id="ytick_14">
     <g id="line2d_49">
      <g>
       <use xlink:href="#m27dab49408" x="286.6" y="59.505839" style="stroke: #000000; stroke-width: 0.6"/>
      </g>
     </g>
     <g id="line2d_50">
      <g>
       <use xlink:href="#md3ccb031fc" x="490.79952" y="59.505839" style="stroke: #000000; stroke-width: 0.6"/>
      </g>
     </g>
     <g id="text_28">
      <!-- $\mathdefault{1.2}$ -->
      <g transform="translate(268.9 63.305839) scale(0.1 -0.1)">
       <use xlink:href="#NotoSans-Regular-31" transform="translate(0 0.59375)"/>
       <use xlink:href="#NotoSans-Regular-2e" transform="translate(57.199997 0.59375)"/>
       <use xlink:href="#NotoSans-Regular-32" transform="translate(83.999985 0.59375)"/>
      </g>
     </g>
    </g>
    <g id="ytick_15">
     <g id="line2d_51">
      <g>
       <use xlink:href="#m27dab49408" x="286.6" y="32.919364" style="stroke: #000000; stroke-width: 0.6"/>
      </g>
     </g>
     <g id="line2d_52">
      <g>
       <use xlink:href="#md3ccb031fc" x="490.79952" y="32.919364" style="stroke: #000000; stroke-width: 0.6"/>
      </g>
     </g>
     <g id="text_29">
      <!-- $\mathdefault{1.4}$ -->
      <g transform="translate(268.9 36.719364) scale(0.1 -0.1)">
       <use xlink:href="#NotoSans-Regular-31" transform="translate(0 0.203125)"/>
       <use xlink:href="#NotoSans-Regular-2e" transform="translate(57.199997 0.203125)"/>
       <use xlink:href="#NotoSans-Regular-34" transform="translate(83.999985 0.203125)"/>
      </g>
     </g>
    </g>
    <g id="text_30">
     <!-- $\sigma$ (S/m) -->
     <g transform="translate(262.5 136.74976) rotate(-90) scale(0.1 -0.1)">
      <defs>
       <path id="NotoSans-Italic-3c3" d="M 1517 -64 
Q 1082 -64 787 163 
Q 493 390 377 803 
Q 262 1216 352 1766 
Q 461 2413 733 2774 
Q 1005 3136 1421 3283 
Q 1837 3430 2355 3430 
L 3808 3430 
L 3706 2950 
L 3002 2950 
Q 3200 2714 3270 2374 
Q 3341 2035 3264 1574 
Q 3206 1229 3062 928 
Q 2918 627 2694 406 
Q 2470 186 2176 61 
Q 1882 -64 1517 -64 
z
M 1613 403 
Q 2080 403 2342 729 
Q 2605 1056 2682 1562 
Q 2733 1837 2723 2083 
Q 2714 2330 2650 2547 
Q 2586 2765 2464 2950 
L 2266 2950 
Q 1888 2950 1616 2838 
Q 1344 2726 1171 2457 
Q 998 2189 922 1702 
Q 870 1344 918 1046 
Q 966 749 1136 576 
Q 1306 403 1613 403 
z
" transform="scale(0.015625)"/>
       <path id="NotoSans-Regular-53" d="M 3213 1222 
Q 3213 813 3014 528 
Q 2816 243 2448 89 
Q 2080 -64 1581 -64 
Q 1325 -64 1091 -38 
Q 858 -13 666 35 
Q 474 83 326 154 
L 326 704 
Q 557 602 899 518 
Q 1242 435 1606 435 
Q 1946 435 2176 524 
Q 2406 614 2521 780 
Q 2637 947 2637 1171 
Q 2637 1395 2541 1548 
Q 2445 1702 2211 1833 
Q 1978 1965 1562 2112 
Q 1267 2221 1046 2345 
Q 826 2470 678 2630 
Q 531 2790 457 2995 
Q 384 3200 384 3469 
Q 384 3834 569 4093 
Q 755 4352 1084 4493 
Q 1414 4634 1843 4634 
Q 2221 4634 2534 4563 
Q 2848 4493 3104 4378 
L 2925 3885 
Q 2688 3987 2409 4057 
Q 2131 4128 1830 4128 
Q 1542 4128 1350 4045 
Q 1158 3962 1062 3811 
Q 966 3661 966 3462 
Q 966 3232 1062 3078 
Q 1158 2925 1376 2803 
Q 1594 2682 1965 2541 
Q 2368 2394 2646 2224 
Q 2925 2054 3069 1817 
Q 3213 1581 3213 1222 
z
" transform="scale(0.015625)"/>
       <path id="NotoSans-Regular-2f" d="M 2317 4570 
L 614 0 
L 64 0 
L 1766 4570 
L 2317 4570 
z
" transform="scale(0.015625)"/>
      </defs>
      <use xlink:href="#NotoSans-Italic-3c3" transform="translate(0 0.59375)"/>
      <use xlink:href="#NotoSans-Regular-20" transform="translate(55.599991 0.59375)"/>
      <use xlink:href="#NotoSans-Regular-28" transform="translate(81.599976 0.59375)"/>
      <use xlink:href="#NotoSans-Regular-53" transform="translate(111.59996 0.59375)"/>
      <use xlink:href="#NotoSans-Regular-2f" transform="translate(166.499954 0.59375)"/>
      <use xlink:href="#NotoSans-Regular-6d" transform="translate(203.699951 0.59375)"/>
      <use xlink:href="#NotoSans-Regular-29" transform="translate(297.199936 0.59375)"/>
     </g>
    </g>
    <g id="text_31">
     <!-- $\times\mathdefault{10^{5}}\mathdefault{}$ -->
     <g transform="translate(286.6 19.2) scale(0.1 -0.1)">
      <defs>
       <path id="NotoSans-Regular-d7" d="M 2918 3674 
L 3238 3347 
L 2150 2259 
L 3232 1171 
L 2912 845 
L 1818 1926 
L 749 845 
L 416 1171 
L 1498 2259 
L 410 3341 
L 742 3674 
L 1824 2579 
L 2918 3674 
z
" transform="scale(0.015625)"/>
      </defs>
      <use xlink:href="#NotoSans-Regular-d7" transform="translate(0 0.5)"/>
      <use xlink:href="#NotoSans-Regular-31" transform="translate(57.199997 0.5)"/>
      <use xlink:href="#NotoSans-Regular-30" transform="translate(114.399994 0.5)"/>
      <use xlink:href="#NotoSans-Regular-35" transform="translate(172.537881 38.015625) scale(0.7)"/>
     </g>
    </g>
   </g>
   <g id="line2d_53">
    <path d="M 296.840444 209.40081 
L 304.85132 208.852879 
L 312.264229 208.273751 
L 321.94562 207.014702 
L 331.114466 205.853569 
L 340.378229 203.473378 
L 349.698941 201.969868 
L 359.048127 199.617645 
L 368.425788 196.529603 
L 377.841416 194.354765 
L 387.276026 189.896592 
L 396.653687 187.08047 
L 406.050331 182.674682 
L 415.465959 174.491802 
L 424.891078 160.286394 
L 434.325688 129.221847 
L 443.760299 53.89729 
L 453.185418 34.559113 
L 462.620028 34.559113 
L 472.06413 31.122705 
L 481.517724 37.932674 
" clip-path="url(#p35f7ef6de5)" style="fill: none; stroke: #456990; stroke-linecap: square"/>
    <g clip-path="url(#p35f7ef6de5)">
     <use xlink:href="#m3c215e839d" x="296.840444" y="209.40081" style="fill: #456990; stroke: #ffffff; stroke-width: 0.75"/>
     <use xlink:href="#m3c215e839d" x="304.85132" y="208.852879" style="fill: #456990; stroke: #ffffff; stroke-width: 0.75"/>
     <use xlink:href="#m3c215e839d" x="312.264229" y="208.273751" style="fill: #456990; stroke: #ffffff; stroke-width: 0.75"/>
     <use xlink:href="#m3c215e839d" x="321.94562" y="207.014702" style="fill: #456990; stroke: #ffffff; stroke-width: 0.75"/>
     <use xlink:href="#m3c215e839d" x="331.114466" y="205.853569" style="fill: #456990; stroke: #ffffff; stroke-width: 0.75"/>
     <use xlink:href="#m3c215e839d" x="340.378229" y="203.473378" style="fill: #456990; stroke: #ffffff; stroke-width: 0.75"/>
     <use xlink:href="#m3c215e839d" x="349.698941" y="201.969868" style="fill: #456990; stroke: #ffffff; stroke-width: 0.75"/>
     <use xlink:href="#m3c215e839d" x="359.048127" y="199.617645" style="fill: #456990; stroke: #ffffff; stroke-width: 0.75"/>
     <use xlink:href="#m3c215e839d" x="368.425788" y="196.529603" style="fill: #456990; stroke: #ffffff; stroke-width: 0.75"/>
     <use xlink:href="#m3c215e839d" x="377.841416" y="194.354765" style="fill: #456990; stroke: #ffffff; stroke-width: 0.75"/>
     <use xlink:href="#m3c215e839d" x="387.276026" y="189.896592" style="fill: #456990; stroke: #ffffff; stroke-width: 0.75"/>
     <use xlink:href="#m3c215e839d" x="396.653687" y="187.08047" style="fill: #456990; stroke: #ffffff; stroke-width: 0.75"/>
     <use xlink:href="#m3c215e839d" x="406.050331" y="182.674682" style="fill: #456990; stroke: #ffffff; stroke-width: 0.75"/>
     <use xlink:href="#m3c215e839d" x="415.465959" y="174.491802" style="fill: #456990; stroke: #ffffff; stroke-width: 0.75"/>
     <use xlink:href="#m3c215e839d" x="424.891078" y="160.286394" style="fill: #456990; stroke: #ffffff; stroke-width: 0.75"/>
     <use xlink:href="#m3c215e839d" x="434.325688" y="129.221847" style="fill: #456990; stroke: #ffffff; stroke-width: 0.75"/>
     <use xlink:href="#m3c215e839d" x="443.760299" y="53.89729" style="fill: #456990; stroke: #ffffff; stroke-width: 0.75"/>
     <use xlink:href="#m3c215e839d" x="453.185418" y="34.559113" style="fill: #456990; stroke: #ffffff; stroke-width: 0.75"/>
     <use xlink:href="#m3c215e839d" x="462.620028" y="34.559113" style="fill: #456990; stroke: #ffffff; stroke-width: 0.75"/>
     <use xlink:href="#m3c215e839d" x="472.06413" y="31.122705" style="fill: #456990; stroke: #ffffff; stroke-width: 0.75"/>
     <use xlink:href="#m3c215e839d" x="481.517724" y="37.932674" style="fill: #456990; stroke: #ffffff; stroke-width: 0.75"/>
    </g>
   </g>
   <g id="line2d_54">
    <path d="M 296.005187 209.576815 
L 303.949622 209.576815 
L 312.387619 208.663388 
L 321.480533 207.449969 
L 330.725313 205.853569 
L 340.046024 204.036991 
L 349.404702 202.281772 
L 358.772872 199.617645 
L 368.179008 196.941 
L 377.594635 194.805936 
L 387.019754 191.465654 
L 396.444873 186.485382 
L 405.841517 181.307739 
L 415.257144 175.306232 
L 424.691755 163.450486 
L 434.135857 147.063606 
L 443.570467 106.956471 
L 453.014569 53.89729 
L 462.468163 41.244539 
L 471.931248 34.559113 
L 481.394333 41.244539 
" clip-path="url(#p35f7ef6de5)" style="fill: none; stroke: #ce6446; stroke-linecap: square"/>
    <g clip-path="url(#p35f7ef6de5)">
     <use xlink:href="#mae372a7be3" x="296.005187" y="209.576815" style="fill: #ce6446; stroke: #ffffff; stroke-width: 0.75"/>
     <use xlink:href="#mae372a7be3" x="303.949622" y="209.576815" style="fill: #ce6446; stroke: #ffffff; stroke-width: 0.75"/>
     <use xlink:href="#mae372a7be3" x="312.387619" y="208.663388" style="fill: #ce6446; stroke: #ffffff; stroke-width: 0.75"/>
     <use xlink:href="#mae372a7be3" x="321.480533" y="207.449969" style="fill: #ce6446; stroke: #ffffff; stroke-width: 0.75"/>
     <use xlink:href="#mae372a7be3" x="330.725313" y="205.853569" style="fill: #ce6446; stroke: #ffffff; stroke-width: 0.75"/>
     <use xlink:href="#mae372a7be3" x="340.046024" y="204.036991" style="fill: #ce6446; stroke: #ffffff; stroke-width: 0.75"/>
     <use xlink:href="#mae372a7be3" x="349.404702" y="202.281772" style="fill: #ce6446; stroke: #ffffff; stroke-width: 0.75"/>
     <use xlink:href="#mae372a7be3" x="358.772872" y="199.617645" style="fill: #ce6446; stroke: #ffffff; stroke-width: 0.75"/>
     <use xlink:href="#mae372a7be3" x="368.179008" y="196.941" style="fill: #ce6446; stroke: #ffffff; stroke-width: 0.75"/>
     <use xlink:href="#mae372a7be3" x="377.594635" y="194.805936" style="fill: #ce6446; stroke: #ffffff; stroke-width: 0.75"/>
     <use xlink:href="#mae372a7be3" x="387.019754" y="191.465654" style="fill: #ce6446; stroke: #ffffff; stroke-width: 0.75"/>
     <use xlink:href="#mae372a7be3" x="396.444873" y="186.485382" style="fill: #ce6446; stroke: #ffffff; stroke-width: 0.75"/>
     <use xlink:href="#mae372a7be3" x="405.841517" y="181.307739" style="fill: #ce6446; stroke: #ffffff; stroke-width: 0.75"/>
     <use xlink:href="#mae372a7be3" x="415.257144" y="175.306232" style="fill: #ce6446; stroke: #ffffff; stroke-width: 0.75"/>
     <use xlink:href="#mae372a7be3" x="424.691755" y="163.450486" style="fill: #ce6446; stroke: #ffffff; stroke-width: 0.75"/>
     <use xlink:href="#mae372a7be3" x="434.135857" y="147.063606" style="fill: #ce6446; stroke: #ffffff; stroke-width: 0.75"/>
     <use xlink:href="#mae372a7be3" x="443.570467" y="106.956471" style="fill: #ce6446; stroke: #ffffff; stroke-width: 0.75"/>
     <use xlink:href="#mae372a7be3" x="453.014569" y="53.89729" style="fill: #ce6446; stroke: #ffffff; stroke-width: 0.75"/>
     <use xlink:href="#mae372a7be3" x="462.468163" y="41.244539" style="fill: #ce6446; stroke: #ffffff; stroke-width: 0.75"/>
     <use xlink:href="#mae372a7be3" x="471.931248" y="34.559113" style="fill: #ce6446; stroke: #ffffff; stroke-width: 0.75"/>
     <use xlink:href="#mae372a7be3" x="481.394333" y="41.244539" style="fill: #ce6446; stroke: #ffffff; stroke-width: 0.75"/>
    </g>
   </g>
   <g id="patch_9">
    <path d="M 286.6 218.49952 
L 286.6 22.2 
" style="fill: none; stroke: #000000; stroke-width: 0.6; stroke-linejoin: miter; stroke-linecap: square"/>
   </g>
   <g id="patch_10">
    <path d="M 490.79952 218.49952 
L 490.79952 22.2 
" style="fill: none; stroke: #000000; stroke-width: 0.6; stroke-linejoin: miter; stroke-linecap: square"/>
   </g>
   <g id="patch_11">
    <path d="M 286.6 218.49952 
L 490.79952 218.49952 
" style="fill: none; stroke: #000000; stroke-width: 0.6; stroke-linejoin: miter; stroke-linecap: square"/>
   </g>
   <g id="patch_12">
    <path d="M 286.6 22.2 
L 490.79952 22.2 
" style="fill: none; stroke: #000000; stroke-width: 0.6; stroke-linejoin: miter; stroke-linecap: square"/>
   </g>
   <g id="text_32">
    <!-- b -->
    <g transform="translate(273.435156 14.8) scale(0.1 -0.1)">
     <defs>
      <path id="NotoSans-Bold-62" d="M 1453 3731 
Q 1453 3533 1440 3341 
Q 1427 3149 1414 3040 
L 1453 3040 
Q 1594 3258 1830 3408 
Q 2067 3558 2445 3558 
Q 3034 3558 3398 3100 
Q 3763 2643 3763 1754 
Q 3763 1158 3593 752 
Q 3424 346 3123 141 
Q 2822 -64 2419 -64 
Q 2035 -64 1814 73 
Q 1594 211 1453 384 
L 1389 384 
L 1229 0 
L 499 0 
L 499 4864 
L 1453 4864 
L 1453 3731 
z
M 2138 2797 
Q 1888 2797 1741 2694 
Q 1594 2592 1526 2384 
Q 1459 2176 1453 1862 
L 1453 1760 
Q 1453 1254 1603 982 
Q 1754 710 2150 710 
Q 2445 710 2617 982 
Q 2790 1254 2790 1766 
Q 2790 2278 2614 2537 
Q 2438 2797 2138 2797 
z
" transform="scale(0.015625)"/>
     </defs>
     <use xlink:href="#NotoSans-Bold-62"/>
    </g>
   </g>
  </g>
 </g>
 <defs>
  <clipPath id="p8616dc709c">
   <rect x="44.7" y="22.2" width="204.19952" height="196.29952"/>
  </clipPath>
  <clipPath id="p35f7ef6de5">
   <rect x="286.6" y="22.2" width="204.19952" height="196.29952"/>
  </clipPath>
 </defs>
</svg>
