<?xml version="1.0" encoding="UTF-8" standalone="no"?>
<!DOCTYPE svg PUBLIC "-//W3C//DTD SVG 1.1//EN" "http://www.w3.org/Graphics/SVG/1.1/DTD/svg11.dtd">
<svg width="100%" height="100%" viewBox="0 0 2040 2040" version="1.1" xmlns="http://www.w3.org/2000/svg" xmlns:xlink="http://www.w3.org/1999/xlink" xml:space="preserve" xmlns:serif="http://www.serif.com/" style="fill-rule:evenodd;clip-rule:evenodd;stroke-linecap:square;stroke-linejoin:round;stroke-miterlimit:10;">
    <g transform="matrix(8.94727,0,0,8.94727,-2452.88,-1473.72)">
        <rect x="287.882" y="215.1" width="198.717" height="134.1" style="fill:white;"/>
    </g>
    <g transform="matrix(9.009,0,0,11.9873,-2471.21,-1202.11)">
        <path d="M296.915,152.19L477.477,152.19L385.886,152.19L385.164,152.19L384.802,152.19L384.531,152.19L384.351,152.19L384.26,152.19L384.17,152.189L384.08,152.189L383.989,152.189L383.899,152.189L383.809,152.189L383.718,152.188L383.628,152.188L383.538,152.187L383.447,152.187L383.357,152.186L383.267,152.184L383.176,152.183L383.086,152.181L382.996,152.179L382.905,152.176L382.815,152.172L382.725,152.168L382.634,152.162L382.544,152.156L382.454,152.148L382.363,152.138L382.273,152.126L382.183,152.112L382.092,152.096L382.002,152.076L381.912,152.053L381.821,152.026L381.731,151.995L381.641,151.958L381.55,151.916L381.46,151.868L381.37,151.813L381.279,151.751L381.189,151.68L381.099,151.601L381.009,151.512L380.918,151.414L380.828,151.305L380.738,151.185L380.647,151.054L380.557,150.912L380.467,150.759L380.376,150.594L380.286,150.418L380.196,150.232L380.105,150.035L380.015,149.829L379.925,149.615L379.834,149.394L379.744,149.168L379.654,148.938L379.473,148.474L379.383,148.244L379.292,148.018L379.202,147.799L379.112,147.589L379.021,147.39L378.931,147.205L378.841,147.036L378.75,146.885L378.66,146.754L378.57,146.644L378.479,146.557L378.389,146.494L378.299,146.455L378.208,146.443L378.118,146.455L378.028,146.494L377.937,146.557L377.847,146.644L377.757,146.754L377.666,146.885L377.576,147.036L377.486,147.205L377.395,147.39L377.305,147.589L377.215,147.799L377.124,148.018L377.034,148.244L376.944,148.474L376.763,148.938L376.673,149.168L376.583,149.394L376.492,149.615L376.402,149.829L376.312,150.035L376.221,150.232L376.131,150.418L376.041,150.594L375.95,150.759L375.86,150.912L375.77,151.054L375.679,151.185L375.589,151.305L375.499,151.414L375.408,151.512L375.318,151.601L375.228,151.68L375.137,151.751L375.047,151.813L374.957,151.868L374.866,151.916L374.776,151.958L374.686,151.995L374.595,152.026L374.505,152.053L374.415,152.076L374.324,152.096L374.234,152.112L374.144,152.126L374.053,152.138L373.963,152.148L373.873,152.156L373.782,152.162L373.692,152.168L373.602,152.172L373.511,152.176L373.421,152.179L373.331,152.181L373.24,152.183L373.15,152.184L373.06,152.186L372.969,152.187L372.879,152.187L372.789,152.188L372.699,152.188L372.608,152.189L372.518,152.189L372.428,152.189L372.337,152.189L372.247,152.189L372.157,152.19L371.976,152.19L371.795,152.19L371.524,152.19L370.892,152.19L296.915,152.19Z" style="fill:rgb(85,168,104);fill-opacity:0.33;fill-rule:nonzero;"/>
    </g>
    <g transform="matrix(9.009,0,0,11.9873,-2471.21,-1202.11)">
        <path d="M296.915,152.19L477.477,152.19L367.821,152.19L367.098,152.19L366.737,152.19L366.466,152.19L366.285,152.19L366.195,152.19L366.105,152.189L366.014,152.189L365.924,152.189L365.834,152.189L365.743,152.189L365.653,152.188L365.563,152.188L365.472,152.187L365.382,152.187L365.292,152.186L365.201,152.184L365.111,152.183L365.021,152.181L364.93,152.179L364.84,152.176L364.75,152.172L364.659,152.168L364.569,152.162L364.479,152.156L364.389,152.148L364.298,152.138L364.208,152.126L364.118,152.112L364.027,152.096L363.937,152.076L363.847,152.053L363.756,152.026L363.666,151.995L363.576,151.958L363.485,151.916L363.395,151.868L363.305,151.813L363.214,151.751L363.124,151.68L363.034,151.601L362.943,151.512L362.853,151.414L362.763,151.305L362.672,151.185L362.582,151.054L362.492,150.912L362.401,150.759L362.311,150.594L362.221,150.418L362.13,150.232L362.04,150.035L361.95,149.829L361.859,149.615L361.769,149.394L361.679,149.168L361.588,148.938L361.408,148.474L361.317,148.244L361.227,148.018L361.137,147.799L361.046,147.589L360.956,147.39L360.866,147.205L360.775,147.036L360.685,146.885L360.595,146.754L360.504,146.644L360.414,146.557L360.324,146.494L360.234,146.455L360.143,146.443L360.053,146.455L359.963,146.494L359.872,146.557L359.782,146.644L359.692,146.754L359.601,146.885L359.511,147.036L359.421,147.205L359.33,147.39L359.24,147.589L359.15,147.799L359.059,148.018L358.969,148.244L358.879,148.474L358.698,148.938L358.608,149.168L358.517,149.394L358.427,149.615L358.337,149.829L358.246,150.035L358.156,150.232L358.066,150.418L357.975,150.594L357.885,150.759L357.795,150.912L357.704,151.054L357.614,151.185L357.524,151.305L357.433,151.414L357.343,151.512L357.253,151.601L357.162,151.68L357.072,151.751L356.982,151.813L356.891,151.868L356.801,151.916L356.711,151.958L356.62,151.995L356.53,152.026L356.44,152.053L356.349,152.076L356.259,152.096L356.169,152.112L356.078,152.126L355.988,152.138L355.898,152.148L355.808,152.156L355.717,152.162L355.627,152.168L355.537,152.172L355.446,152.176L355.356,152.179L355.266,152.181L355.175,152.183L355.085,152.184L354.995,152.186L354.904,152.187L354.814,152.187L354.724,152.188L354.633,152.188L354.543,152.189L354.453,152.189L354.362,152.189L354.272,152.189L354.182,152.189L354.091,152.19L353.911,152.19L353.73,152.19L353.459,152.19L352.827,152.19L296.915,152.19Z" style="fill:rgb(85,168,104);fill-opacity:0.25;fill-rule:nonzero;"/>
    </g>
    <g transform="matrix(9.009,0,0,11.9873,-2471.21,-1202.11)">
        <path d="M296.915,152.19L477.477,152.19L349.756,152.19L349.033,152.19L348.672,152.19L348.401,152.19L348.22,152.19L348.13,152.19L348.039,152.189L347.949,152.189L347.859,152.189L347.768,152.189L347.678,152.189L347.588,152.188L347.498,152.188L347.407,152.187L347.317,152.187L347.227,152.186L347.136,152.184L347.046,152.183L346.956,152.181L346.865,152.179L346.775,152.176L346.685,152.172L346.594,152.168L346.504,152.162L346.414,152.156L346.323,152.148L346.233,152.138L346.143,152.126L346.052,152.112L345.962,152.096L345.872,152.076L345.781,152.053L345.691,152.026L345.601,151.995L345.51,151.958L345.42,151.916L345.33,151.868L345.239,151.813L345.149,151.751L345.059,151.68L344.968,151.601L344.878,151.512L344.788,151.414L344.697,151.305L344.607,151.185L344.517,151.054L344.426,150.912L344.336,150.759L344.246,150.594L344.155,150.418L344.065,150.232L343.975,150.035L343.884,149.829L343.794,149.615L343.704,149.394L343.613,149.168L343.523,148.938L343.343,148.474L343.252,148.244L343.162,148.018L343.072,147.799L342.981,147.589L342.891,147.39L342.801,147.205L342.71,147.036L342.62,146.885L342.53,146.754L342.439,146.644L342.349,146.557L342.259,146.494L342.168,146.455L342.078,146.443L341.988,146.455L341.897,146.494L341.807,146.557L341.717,146.644L341.626,146.754L341.536,146.885L341.446,147.036L341.355,147.205L341.265,147.39L341.175,147.589L341.084,147.799L340.994,148.018L340.904,148.244L340.813,148.474L340.633,148.938L340.542,149.168L340.452,149.394L340.362,149.615L340.271,149.829L340.181,150.035L340.091,150.232L340,150.418L339.91,150.594L339.82,150.759L339.729,150.912L339.639,151.054L339.549,151.185L339.458,151.305L339.368,151.414L339.278,151.512L339.188,151.601L339.097,151.68L339.007,151.751L338.917,151.813L338.826,151.868L338.736,151.916L338.646,151.958L338.555,151.995L338.465,152.026L338.375,152.053L338.284,152.076L338.194,152.096L338.104,152.112L338.013,152.126L337.923,152.138L337.833,152.148L337.742,152.156L337.652,152.162L337.562,152.168L337.471,152.172L337.381,152.176L337.291,152.179L337.2,152.181L337.11,152.183L337.02,152.184L336.929,152.186L336.839,152.187L336.749,152.187L336.658,152.188L336.568,152.188L336.478,152.189L336.387,152.189L336.297,152.189L336.207,152.189L336.116,152.189L336.026,152.19L335.845,152.19L335.665,152.19L335.394,152.19L334.762,152.19L296.915,152.19Z" style="fill:rgb(85,168,104);fill-opacity:0.17;fill-rule:nonzero;"/>
    </g>
    <g transform="matrix(9.009,0,0,11.9873,-2471.21,-1202.11)">
        <path d="M296.915,152.19L477.477,152.19L331.69,152.19L330.968,152.19L330.607,152.19L330.336,152.19L330.155,152.19L330.065,152.19L329.974,152.189L329.884,152.189L329.794,152.189L329.703,152.189L329.613,152.189L329.523,152.188L329.432,152.188L329.342,152.187L329.252,152.187L329.161,152.186L329.071,152.184L328.981,152.183L328.89,152.181L328.8,152.179L328.71,152.176L328.619,152.172L328.529,152.168L328.439,152.162L328.348,152.156L328.258,152.148L328.168,152.138L328.077,152.126L327.987,152.112L327.897,152.096L327.806,152.076L327.716,152.053L327.626,152.026L327.535,151.995L327.445,151.958L327.355,151.916L327.264,151.868L327.174,151.813L327.084,151.751L326.993,151.68L326.903,151.601L326.813,151.512L326.723,151.414L326.632,151.305L326.542,151.185L326.452,151.054L326.361,150.912L326.271,150.759L326.181,150.594L326.09,150.418L326,150.232L325.91,150.035L325.819,149.829L325.729,149.615L325.639,149.394L325.548,149.168L325.458,148.938L325.277,148.474L325.187,148.244L325.097,148.018L325.006,147.799L324.916,147.589L324.826,147.39L324.735,147.205L324.645,147.036L324.555,146.885L324.464,146.754L324.374,146.644L324.284,146.557L324.193,146.494L324.103,146.455L324.013,146.443L323.922,146.455L323.832,146.494L323.742,146.557L323.651,146.644L323.561,146.754L323.471,146.885L323.38,147.036L323.29,147.205L323.2,147.39L323.109,147.589L323.019,147.799L322.929,148.018L322.838,148.244L322.748,148.474L322.568,148.938L322.477,149.168L322.387,149.394L322.297,149.615L322.206,149.829L322.116,150.035L322.026,150.232L321.935,150.418L321.845,150.594L321.755,150.759L321.664,150.912L321.574,151.054L321.484,151.185L321.393,151.305L321.303,151.414L321.213,151.512L321.122,151.601L321.032,151.68L320.942,151.751L320.851,151.813L320.761,151.868L320.671,151.916L320.58,151.958L320.49,151.995L320.4,152.026L320.309,152.053L320.219,152.076L320.129,152.096L320.038,152.112L319.948,152.126L319.858,152.138L319.767,152.148L319.677,152.156L319.587,152.162L319.496,152.168L319.406,152.172L319.316,152.176L319.225,152.179L319.135,152.181L319.045,152.183L318.954,152.184L318.864,152.186L318.774,152.187L318.683,152.187L318.593,152.188L318.503,152.188L318.413,152.189L318.322,152.189L318.232,152.189L318.142,152.189L318.051,152.189L317.961,152.19L317.78,152.19L317.6,152.19L317.329,152.19L316.696,152.19L296.915,152.19Z" style="fill:rgb(85,168,104);fill-opacity:0.08;fill-rule:nonzero;"/>
    </g>
    <g transform="matrix(9.009,0,0,11.9873,-2471.21,-1201.5)">
        <path d="M296.915,152.139L376.221,152.061L376.583,151.817L376.854,151.363L377.215,150.181L378.118,146.443L378.299,146.443L378.479,146.834L378.841,148.423L379.473,151.134L379.834,151.817L380.196,152.061L380.828,152.136L388.596,152.139L477.477,152.139" style="fill:none;fill-rule:nonzero;stroke:rgb(85,168,104);stroke-width:0.79px;"/>
    </g>
    <g transform="matrix(2.23796,0,0,8.94727,148.018,-213.797)">
        <g transform="matrix(0.446835,-0,-0,0.111766,-66.1397,23.8952)">
            <path d="M933.805,509.879L933.805,529.879" style="fill:none;stroke:black;stroke-width:5px;stroke-linecap:butt;stroke-linejoin:miter;"/>
            <path d="M1009.37,509.879L1009.37,529.879" style="fill:none;stroke:black;stroke-width:5px;stroke-linecap:butt;stroke-linejoin:miter;"/>
            <path d="M933.805,519.879L1009.37,519.879" style="fill:none;stroke:black;stroke-width:5px;stroke-linecap:butt;stroke-miterlimit:1.5;"/>
        </g>
    </g>
    <g transform="matrix(8.94727,0,0,8.94727,-2452.88,-1678.18)">
        <path d="M296.915,295.423L477.477,295.423L477.477,295.423L474.044,295.423L471.967,295.423L470.16,295.423L467.812,295.422L466.096,295.422L464.921,295.422L464.018,295.422L463.115,295.422L462.212,295.422L461.489,295.422L460.766,295.423L460.134,295.423L459.502,295.423L458.87,295.423L458.237,295.424L457.605,295.424L456.882,295.424L456.16,295.425L455.257,295.426L454.082,295.426L453.45,295.427L452.908,295.427L452.456,295.428L452.095,295.428L451.734,295.428L451.373,295.428L451.102,295.428L450.831,295.428L450.56,295.428L450.289,295.428L450.018,295.428L449.747,295.427L449.476,295.427L449.205,295.427L448.934,295.426L448.753,295.426L448.572,295.426L448.392,295.426L448.211,295.425L448.031,295.425L447.85,295.424L447.669,295.424L447.489,295.423L447.308,295.423L447.127,295.422L446.947,295.422L446.766,295.421L446.585,295.42L446.405,295.419L446.224,295.419L446.043,295.418L445.863,295.417L445.682,295.416L445.501,295.415L445.321,295.414L445.14,295.413L444.959,295.412L444.779,295.411L444.598,295.41L444.417,295.409L444.237,295.407L444.056,295.406L443.876,295.405L443.605,295.403L443.334,295.401L443.063,295.399L442.792,295.396L442.43,295.394L441.617,295.387L441.256,295.384L440.985,295.382L440.714,295.38L440.533,295.378L440.353,295.377L440.172,295.376L439.991,295.375L439.811,295.374L439.63,295.372L439.45,295.371L439.269,295.371L439.179,295.37L439.088,295.37L438.998,295.369L438.908,295.369L438.817,295.369L438.727,295.368L438.637,295.368L438.546,295.368L438.456,295.368L438.366,295.367L438.275,295.367L438.185,295.367L438.095,295.367L438.004,295.367L437.914,295.367L437.824,295.367L437.733,295.367L437.643,295.367L437.553,295.367L437.462,295.368L437.372,295.368L437.282,295.368L437.191,295.368L437.101,295.369L437.011,295.369L436.92,295.37L436.83,295.37L436.74,295.371L436.649,295.371L436.559,295.372L436.469,295.372L436.378,295.373L436.288,295.374L436.198,295.375L436.107,295.376L436.017,295.377L435.927,295.378L435.836,295.379L435.746,295.38L435.656,295.381L435.565,295.383L435.475,295.384L435.385,295.385L435.295,295.387L435.204,295.388L435.114,295.39L435.024,295.391L434.933,295.393L434.843,295.395L434.753,295.397L434.662,295.399L434.572,295.401L434.482,295.403L434.391,295.405L434.301,295.407L434.211,295.409L434.12,295.412L434.03,295.414L433.94,295.417L433.849,295.419L433.759,295.422L433.669,295.424L433.578,295.427L433.488,295.43L433.398,295.433L433.307,295.436L433.217,295.439L433.127,295.442L433.036,295.445L432.946,295.448L432.856,295.452L432.765,295.455L432.675,295.459L432.585,295.462L432.494,295.466L432.404,295.469L432.314,295.473L432.223,295.477L432.133,295.481L432.043,295.485L431.952,295.489L431.862,295.493L431.772,295.497L431.681,295.501L431.591,295.505L431.501,295.51L431.41,295.514L431.32,295.519L431.23,295.523L431.14,295.528L431.049,295.532L430.959,295.537L430.869,295.541L430.778,295.546L430.688,295.551L430.598,295.556L430.507,295.561L430.417,295.565L430.327,295.57L430.236,295.575L430.146,295.58L430.056,295.585L429.875,295.595L429.694,295.606L429.514,295.616L429.062,295.641L428.881,295.652L428.701,295.662L428.61,295.667L428.52,295.672L428.43,295.677L428.339,295.682L428.249,295.687L428.159,295.692L428.068,295.697L427.978,295.701L427.888,295.706L427.797,295.711L427.707,295.715L427.617,295.72L427.526,295.725L427.436,295.729L427.346,295.733L427.255,295.738L427.165,295.742L427.075,295.746L426.985,295.75L426.894,295.754L426.804,295.757L426.714,295.761L426.623,295.765L426.533,295.768L426.443,295.771L426.352,295.774L426.262,295.777L426.172,295.78L426.081,295.783L425.991,295.786L425.901,295.788L425.81,295.79L425.72,295.792L425.63,295.794L425.539,295.796L425.449,295.798L425.359,295.799L425.268,295.8L425.178,295.801L425.088,295.802L424.997,295.802L424.907,295.803L424.817,295.803L424.726,295.803L424.636,295.802L424.546,295.802L424.455,295.801L424.365,295.8L424.275,295.799L424.184,295.797L424.094,295.795L424.004,295.793L423.913,295.791L423.823,295.788L423.733,295.786L423.642,295.782L423.552,295.779L423.462,295.775L423.371,295.771L423.281,295.767L423.191,295.762L423.1,295.757L423.01,295.752L422.92,295.747L422.83,295.741L422.739,295.735L422.649,295.728L422.559,295.721L422.468,295.714L422.378,295.707L422.288,295.699L422.197,295.691L422.107,295.683L422.017,295.674L421.926,295.665L421.836,295.655L421.746,295.645L421.655,295.635L421.565,295.625L421.475,295.614L421.384,295.603L421.294,295.591L421.204,295.58L421.113,295.567L421.023,295.555L420.933,295.542L420.842,295.529L420.752,295.515L420.662,295.501L420.571,295.487L420.481,295.472L420.391,295.458L420.3,295.442L420.21,295.427L420.12,295.411L420.029,295.395L419.939,295.378L419.849,295.361L419.758,295.344L419.668,295.326L419.578,295.309L419.487,295.291L419.397,295.272L419.307,295.253L419.216,295.234L419.126,295.215L419.036,295.196L418.945,295.176L418.855,295.156L418.765,295.135L418.675,295.115L418.584,295.094L418.494,295.073L418.404,295.051L418.313,295.03L418.223,295.008L418.133,294.986L418.042,294.964L417.952,294.942L417.862,294.919L417.771,294.896L417.681,294.874L417.591,294.851L417.5,294.828L417.41,294.804L417.32,294.781L417.229,294.758L417.139,294.734L417.049,294.71L416.958,294.687L416.868,294.663L416.778,294.639L416.507,294.568L416.416,294.544L416.326,294.52L416.236,294.497L416.145,294.473L416.055,294.449L415.965,294.426L415.874,294.402L415.784,294.379L415.694,294.356L415.603,294.333L415.513,294.31L415.423,294.288L415.332,294.265L415.242,294.243L415.152,294.221L415.061,294.199L414.971,294.178L414.881,294.156L414.79,294.136L414.7,294.115L414.61,294.095L414.52,294.075L414.429,294.055L414.339,294.036L414.249,294.017L414.158,293.999L414.068,293.981L413.978,293.964L413.887,293.947L413.797,293.931L413.707,293.915L413.616,293.899L413.526,293.884L413.436,293.87L413.345,293.856L413.255,293.843L413.165,293.831L413.074,293.819L412.984,293.808L412.894,293.798L412.803,293.788L412.713,293.779L412.623,293.77L412.532,293.763L412.442,293.756L412.352,293.75L412.261,293.745L412.171,293.74L412.081,293.737L411.99,293.734L411.9,293.732L411.81,293.731L411.719,293.731L411.629,293.731L411.539,293.733L411.448,293.736L411.358,293.739L411.268,293.744L411.177,293.749L411.087,293.756L410.997,293.763L410.906,293.772L410.816,293.781L410.726,293.792L410.635,293.803L410.545,293.816L410.455,293.83L410.365,293.844L410.274,293.86L410.184,293.877L410.094,293.895L410.003,293.914L409.913,293.935L409.823,293.956L409.732,293.979L409.642,294.002L409.552,294.027L409.461,294.053L409.371,294.08L409.281,294.108L409.19,294.138L409.1,294.168L409.01,294.2L408.919,294.232L408.829,294.266L408.739,294.301L408.648,294.338L408.558,294.375L408.468,294.414L408.377,294.453L408.287,294.494L408.197,294.536L408.106,294.579L408.016,294.623L407.926,294.668L407.835,294.715L407.745,294.762L407.655,294.811L407.564,294.86L407.474,294.911L407.384,294.962L407.293,295.015L407.203,295.069L407.113,295.123L407.022,295.179L406.932,295.236L406.842,295.293L406.751,295.352L406.661,295.411L406.571,295.472L406.48,295.533L406.39,295.595L406.3,295.658L406.21,295.722L406.119,295.786L406.029,295.851L405.939,295.917L405.848,295.984L405.758,296.051L405.668,296.119L405.577,296.188L405.487,296.257L405.397,296.327L405.306,296.397L405.216,296.468L405.126,296.54L405.035,296.611L404.945,296.684L404.855,296.756L404.764,296.829L404.674,296.902L404.584,296.976L404.493,297.05L404.403,297.124L404.313,297.198L404.222,297.272L404.132,297.346L403.951,297.495L403.861,297.569L403.771,297.643L403.68,297.718L403.59,297.792L403.5,297.865L403.409,297.939L403.319,298.012L403.229,298.085L403.138,298.158L403.048,298.23L402.958,298.302L402.867,298.373L402.777,298.443L402.687,298.513L402.596,298.583L402.506,298.652L402.416,298.72L402.325,298.787L402.235,298.853L402.145,298.919L402.055,298.983L401.964,299.047L401.874,299.11L401.784,299.171L401.693,299.232L401.603,299.291L401.513,299.349L401.422,299.406L401.332,299.462L401.242,299.516L401.151,299.569L401.061,299.621L400.971,299.671L400.88,299.719L400.79,299.766L400.7,299.812L400.609,299.856L400.519,299.898L400.429,299.938L400.338,299.977L400.248,300.014L400.158,300.049L400.067,300.082L399.977,300.113L399.887,300.142L399.796,300.169L399.706,300.195L399.616,300.218L399.525,300.239L399.435,300.258L399.345,300.274L399.254,300.289L399.164,300.301L399.074,300.311L398.983,300.319L398.893,300.324L398.803,300.327L398.712,300.328L398.622,300.326L398.532,300.321L398.441,300.315L398.351,300.306L398.261,300.294L398.17,300.279L398.08,300.263L397.99,300.243L397.899,300.221L397.809,300.197L397.719,300.169L397.629,300.14L397.538,300.107L397.448,300.072L397.358,300.034L397.267,299.994L397.177,299.95L397.087,299.905L396.996,299.856L396.906,299.805L396.816,299.751L396.725,299.694L396.635,299.635L396.545,299.573L396.454,299.508L396.364,299.441L396.274,299.371L396.183,299.298L396.093,299.223L396.003,299.145L395.912,299.065L395.822,298.982L395.732,298.896L395.641,298.808L395.551,298.717L395.461,298.624L395.37,298.528L395.28,298.43L395.19,298.33L395.099,298.227L395.009,298.121L394.919,298.014L394.828,297.904L394.738,297.792L394.648,297.677L394.557,297.561L394.467,297.442L394.377,297.321L394.286,297.198L394.196,297.074L394.106,296.947L394.015,296.818L393.925,296.688L393.835,296.555L393.744,296.421L393.654,296.285L393.564,296.148L393.474,296.009L393.383,295.869L393.293,295.727L393.203,295.584L393.112,295.439L393.022,295.293L392.932,295.146L392.841,294.998L392.751,294.849L392.661,294.699L392.57,294.548L392.48,294.396L392.39,294.243L392.299,294.09L392.209,293.936L392.119,293.782L392.028,293.627L391.938,293.472L391.848,293.316L391.757,293.161L391.577,292.849L391.486,292.693L391.396,292.538L391.306,292.382L391.215,292.228L391.125,292.073L391.035,291.919L390.944,291.765L390.854,291.613L390.764,291.461L390.673,291.309L390.583,291.159L390.493,291.01L390.402,290.862L390.312,290.715L390.222,290.57L390.131,290.426L390.041,290.283L389.951,290.143L389.86,290.003L389.77,289.866L389.68,289.73L389.589,289.597L389.499,289.465L389.409,289.336L389.319,289.209L389.228,289.084L389.138,288.962L389.048,288.842L388.957,288.725L388.867,288.611L388.777,288.499L388.686,288.39L388.596,288.285L388.506,288.182L388.415,288.082L388.325,287.986L388.235,287.893L388.144,287.803L388.054,287.717L387.964,287.634L387.873,287.555L387.783,287.48L387.693,287.408L387.602,287.34L387.512,287.276L387.422,287.216L387.331,287.16L387.241,287.108L387.151,287.061L387.06,287.017L386.97,286.978L386.88,286.943L386.789,286.913L386.699,286.887L386.609,286.865L386.518,286.848L386.428,286.835L386.338,286.827L386.247,286.824L386.157,286.825L386.067,286.831L385.976,286.841L385.886,286.856L385.796,286.876L385.705,286.901L385.615,286.93L385.525,286.964L385.434,287.003L385.344,287.046L385.254,287.094L385.164,287.147L385.073,287.204L384.983,287.266L384.893,287.333L384.802,287.404L384.712,287.48L384.622,287.56L384.531,287.645L384.441,287.733L384.351,287.827L384.26,287.924L384.17,288.025L384.08,288.131L383.989,288.24L383.899,288.354L383.809,288.471L383.718,288.591L383.628,288.716L383.538,288.843L383.447,288.974L383.357,289.109L383.267,289.246L383.176,289.386L383.086,289.529L382.996,289.675L382.905,289.823L382.815,289.973L382.725,290.126L382.634,290.28L382.544,290.436L382.454,290.594L382.363,290.754L382.273,290.914L382.183,291.076L382.092,291.239L382.002,291.403L381.912,291.567L381.821,291.731L381.731,291.895L381.641,292.06L381.55,292.224L381.46,292.388L381.37,292.551L381.279,292.714L381.189,292.875L381.099,293.035L381.009,293.194L380.918,293.352L380.828,293.507L380.738,293.661L380.647,293.813L380.557,293.962L380.467,294.109L380.376,294.254L380.286,294.396L380.196,294.535L380.105,294.671L380.015,294.804L379.925,294.934L379.834,295.06L379.744,295.183L379.654,295.302L379.563,295.418L379.473,295.531L379.383,295.639L379.292,295.744L379.202,295.844L379.112,295.941L379.021,296.034L378.931,296.123L378.841,296.208L378.75,296.289L378.66,296.366L378.57,296.439L378.479,296.508L378.389,296.573L378.299,296.634L378.208,296.691L378.118,296.745L378.028,296.794L377.937,296.84L377.847,296.882L377.757,296.921L377.666,296.956L377.576,296.987L377.486,297.016L377.395,297.041L377.305,297.062L377.215,297.081L377.124,297.097L377.034,297.11L376.944,297.12L376.854,297.127L376.763,297.132L376.673,297.134L376.583,297.134L376.492,297.131L376.402,297.127L376.312,297.12L376.221,297.112L376.131,297.101L376.041,297.089L375.95,297.075L375.86,297.06L375.77,297.043L375.679,297.025L375.589,297.005L375.499,296.985L375.408,296.963L375.318,296.94L375.228,296.917L375.137,296.893L375.047,296.868L374.957,296.842L374.866,296.816L374.776,296.789L374.686,296.762L374.595,296.734L374.505,296.706L374.415,296.678L374.324,296.65L374.234,296.621L374.144,296.592L373.963,296.535L373.873,296.507L373.782,296.478L373.692,296.45L373.602,296.422L373.511,296.394L373.421,296.366L373.331,296.339L373.24,296.312L373.15,296.285L373.06,296.259L372.969,296.233L372.879,296.207L372.789,296.182L372.699,296.157L372.608,296.132L372.518,296.108L372.428,296.085L372.337,296.062L372.247,296.039L372.157,296.017L372.066,295.996L371.976,295.975L371.886,295.954L371.795,295.934L371.705,295.914L371.615,295.895L371.524,295.877L371.434,295.858L371.344,295.841L371.253,295.824L371.163,295.807L371.073,295.791L370.982,295.775L370.892,295.76L370.802,295.745L370.711,295.731L370.621,295.717L370.531,295.704L370.44,295.691L370.35,295.678L370.26,295.666L370.169,295.654L370.079,295.643L369.989,295.632L369.898,295.622L369.808,295.611L369.718,295.602L369.627,295.592L369.537,295.583L369.447,295.575L369.356,295.566L369.266,295.558L369.176,295.551L369.085,295.543L368.995,295.536L368.905,295.529L368.814,295.523L368.724,295.517L368.634,295.511L368.544,295.505L368.453,295.5L368.363,295.494L368.273,295.489L368.182,295.485L368.092,295.48L368.002,295.476L367.911,295.472L367.821,295.468L367.731,295.464L367.64,295.461L367.55,295.458L367.46,295.454L367.369,295.451L367.279,295.449L367.189,295.446L367.098,295.443L367.008,295.441L366.918,295.439L366.827,295.437L366.737,295.435L366.647,295.433L366.556,295.431L366.466,295.429L366.376,295.428L366.285,295.426L366.195,295.425L366.105,295.424L366.014,295.423L365.924,295.421L365.834,295.42L365.743,295.42L365.653,295.419L365.563,295.418L365.472,295.417L365.382,295.416L365.292,295.416L365.201,295.415L365.111,295.415L365.021,295.414L364.93,295.414L364.84,295.414L364.75,295.413L364.659,295.413L364.569,295.413L364.479,295.413L364.389,295.412L364.298,295.412L364.208,295.412L364.118,295.412L364.027,295.412L363.847,295.412L363.666,295.412L363.485,295.412L363.305,295.412L363.124,295.412L362.943,295.413L362.672,295.413L362.401,295.414L362.04,295.414L361.137,295.416L360.775,295.417L360.414,295.417L360.053,295.418L359.692,295.419L359.33,295.419L358.969,295.42L358.608,295.42L358.246,295.421L357.885,295.421L357.524,295.421L357.072,295.421L356.62,295.422L356.169,295.422L355.717,295.422L355.175,295.422L354.543,295.422L353.73,295.423L352.736,295.423L351.653,295.423L350.027,295.423L345.962,295.423L342.801,295.423L296.915,295.423Z" style="fill:rgb(221,132,82);fill-opacity:0.33;fill-rule:nonzero;"/>
    </g>
    <g transform="matrix(8.94727,0,0,8.94727,-2452.88,-1678.18)">
        <path d="M296.915,295.423L477.477,295.423L468.354,295.423L466.096,295.423L463.657,295.423L461.037,295.423L458.87,295.423L455.979,295.423L453.902,295.423L452.095,295.423L449.747,295.422L448.031,295.422L446.856,295.422L445.953,295.422L445.05,295.422L444.146,295.422L443.424,295.422L442.701,295.423L442.069,295.423L441.437,295.423L440.804,295.423L440.172,295.424L439.54,295.424L438.817,295.424L438.095,295.425L437.191,295.426L436.017,295.426L435.385,295.427L434.843,295.427L434.391,295.428L434.03,295.428L433.669,295.428L433.307,295.428L433.036,295.428L432.765,295.428L432.494,295.428L432.223,295.428L431.952,295.428L431.681,295.427L431.41,295.427L431.14,295.427L430.869,295.426L430.688,295.426L430.507,295.426L430.327,295.426L430.146,295.425L429.965,295.425L429.785,295.424L429.604,295.424L429.423,295.423L429.243,295.423L429.062,295.422L428.881,295.422L428.701,295.421L428.52,295.42L428.339,295.419L428.159,295.419L427.978,295.418L427.797,295.417L427.617,295.416L427.436,295.415L427.255,295.414L427.075,295.413L426.894,295.412L426.714,295.411L426.533,295.41L426.352,295.409L426.172,295.407L425.991,295.406L425.81,295.405L425.539,295.403L425.268,295.401L424.997,295.399L424.726,295.396L424.365,295.394L423.552,295.387L423.191,295.384L422.92,295.382L422.649,295.38L422.468,295.378L422.288,295.377L422.107,295.376L421.926,295.375L421.746,295.374L421.565,295.372L421.384,295.371L421.204,295.371L421.113,295.37L421.023,295.37L420.933,295.369L420.842,295.369L420.752,295.369L420.662,295.368L420.571,295.368L420.481,295.368L420.391,295.368L420.3,295.367L420.21,295.367L420.12,295.367L420.029,295.367L419.939,295.367L419.849,295.367L419.758,295.367L419.668,295.367L419.578,295.367L419.487,295.367L419.397,295.368L419.307,295.368L419.216,295.368L419.126,295.368L419.036,295.369L418.945,295.369L418.855,295.37L418.765,295.37L418.675,295.371L418.584,295.371L418.494,295.372L418.404,295.372L418.313,295.373L418.223,295.374L418.133,295.375L418.042,295.376L417.952,295.377L417.862,295.378L417.771,295.379L417.681,295.38L417.591,295.381L417.5,295.383L417.41,295.384L417.32,295.385L417.229,295.387L417.139,295.388L417.049,295.39L416.958,295.391L416.868,295.393L416.778,295.395L416.687,295.397L416.597,295.399L416.507,295.401L416.416,295.403L416.326,295.405L416.236,295.407L416.145,295.409L416.055,295.412L415.965,295.414L415.874,295.417L415.784,295.419L415.694,295.422L415.603,295.424L415.513,295.427L415.423,295.43L415.332,295.433L415.242,295.436L415.152,295.439L415.061,295.442L414.971,295.445L414.881,295.448L414.79,295.452L414.7,295.455L414.61,295.459L414.52,295.462L414.429,295.466L414.339,295.469L414.249,295.473L414.158,295.477L414.068,295.481L413.978,295.485L413.887,295.489L413.797,295.493L413.707,295.497L413.616,295.501L413.526,295.505L413.436,295.51L413.345,295.514L413.255,295.519L413.165,295.523L413.074,295.528L412.984,295.532L412.894,295.537L412.803,295.541L412.713,295.546L412.623,295.551L412.532,295.556L412.442,295.561L412.352,295.565L412.261,295.57L412.171,295.575L412.081,295.58L411.99,295.585L411.81,295.595L411.629,295.606L411.448,295.616L410.997,295.641L410.816,295.652L410.635,295.662L410.545,295.667L410.455,295.672L410.365,295.677L410.274,295.682L410.184,295.687L410.094,295.692L410.003,295.697L409.913,295.701L409.823,295.706L409.732,295.711L409.642,295.715L409.552,295.72L409.461,295.725L409.371,295.729L409.281,295.733L409.19,295.738L409.1,295.742L409.01,295.746L408.919,295.75L408.829,295.754L408.739,295.757L408.648,295.761L408.558,295.765L408.468,295.768L408.377,295.771L408.287,295.774L408.197,295.777L408.106,295.78L408.016,295.783L407.926,295.786L407.835,295.788L407.745,295.79L407.655,295.792L407.564,295.794L407.474,295.796L407.384,295.798L407.293,295.799L407.203,295.8L407.113,295.801L407.022,295.802L406.932,295.802L406.842,295.803L406.751,295.803L406.661,295.803L406.571,295.802L406.48,295.802L406.39,295.801L406.3,295.8L406.21,295.799L406.119,295.797L406.029,295.795L405.939,295.793L405.848,295.791L405.758,295.788L405.668,295.786L405.577,295.782L405.487,295.779L405.397,295.775L405.306,295.771L405.216,295.767L405.126,295.762L405.035,295.757L404.945,295.752L404.855,295.747L404.764,295.741L404.674,295.735L404.584,295.728L404.493,295.721L404.403,295.714L404.313,295.707L404.222,295.699L404.132,295.691L404.042,295.683L403.951,295.674L403.861,295.665L403.771,295.655L403.68,295.645L403.59,295.635L403.5,295.625L403.409,295.614L403.319,295.603L403.229,295.591L403.138,295.58L403.048,295.567L402.958,295.555L402.867,295.542L402.777,295.529L402.687,295.515L402.596,295.501L402.506,295.487L402.416,295.472L402.325,295.458L402.235,295.442L402.145,295.427L402.055,295.411L401.964,295.395L401.874,295.378L401.784,295.361L401.693,295.344L401.603,295.326L401.513,295.309L401.422,295.291L401.332,295.272L401.242,295.253L401.151,295.234L401.061,295.215L400.971,295.196L400.88,295.176L400.79,295.156L400.7,295.135L400.609,295.115L400.519,295.094L400.429,295.073L400.338,295.051L400.248,295.03L400.158,295.008L400.067,294.986L399.977,294.964L399.887,294.942L399.796,294.919L399.706,294.896L399.616,294.874L399.525,294.851L399.435,294.828L399.345,294.804L399.254,294.781L399.164,294.758L399.074,294.734L398.983,294.71L398.893,294.687L398.803,294.663L398.712,294.639L398.441,294.568L398.351,294.544L398.261,294.52L398.17,294.497L398.08,294.473L397.99,294.449L397.899,294.426L397.809,294.402L397.719,294.379L397.629,294.356L397.538,294.333L397.448,294.31L397.358,294.288L397.267,294.265L397.177,294.243L397.087,294.221L396.996,294.199L396.906,294.178L396.816,294.156L396.725,294.136L396.635,294.115L396.545,294.095L396.454,294.075L396.364,294.055L396.274,294.036L396.183,294.017L396.093,293.999L396.003,293.981L395.912,293.964L395.822,293.947L395.732,293.931L395.641,293.915L395.551,293.899L395.461,293.884L395.37,293.87L395.28,293.856L395.19,293.843L395.099,293.831L395.009,293.819L394.919,293.808L394.828,293.798L394.738,293.788L394.648,293.779L394.557,293.77L394.467,293.763L394.377,293.756L394.286,293.75L394.196,293.745L394.106,293.74L394.015,293.737L393.925,293.734L393.835,293.732L393.744,293.731L393.654,293.731L393.564,293.731L393.474,293.733L393.383,293.736L393.293,293.739L393.203,293.744L393.112,293.749L393.022,293.756L392.932,293.763L392.841,293.772L392.751,293.781L392.661,293.792L392.57,293.803L392.48,293.816L392.39,293.83L392.299,293.844L392.209,293.86L392.119,293.877L392.028,293.895L391.938,293.914L391.848,293.935L391.757,293.956L391.667,293.979L391.577,294.002L391.486,294.027L391.396,294.053L391.306,294.08L391.215,294.108L391.125,294.138L391.035,294.168L390.944,294.2L390.854,294.232L390.764,294.266L390.673,294.301L390.583,294.338L390.493,294.375L390.402,294.414L390.312,294.453L390.222,294.494L390.131,294.536L390.041,294.579L389.951,294.623L389.86,294.668L389.77,294.715L389.68,294.762L389.589,294.811L389.499,294.86L389.409,294.911L389.319,294.962L389.228,295.015L389.138,295.069L389.048,295.123L388.957,295.179L388.867,295.236L388.777,295.293L388.686,295.352L388.596,295.411L388.506,295.472L388.415,295.533L388.325,295.595L388.235,295.658L388.144,295.722L388.054,295.786L387.964,295.851L387.873,295.917L387.783,295.984L387.693,296.051L387.602,296.119L387.512,296.188L387.422,296.257L387.331,296.327L387.241,296.397L387.151,296.468L387.06,296.54L386.97,296.611L386.88,296.684L386.789,296.756L386.699,296.829L386.609,296.902L386.518,296.976L386.428,297.05L386.338,297.124L386.247,297.198L386.157,297.272L386.067,297.346L385.886,297.495L385.796,297.569L385.705,297.643L385.615,297.718L385.525,297.792L385.434,297.865L385.344,297.939L385.254,298.012L385.164,298.085L385.073,298.158L384.983,298.23L384.893,298.302L384.802,298.373L384.712,298.443L384.622,298.513L384.531,298.583L384.441,298.652L384.351,298.72L384.26,298.787L384.17,298.853L384.08,298.919L383.989,298.983L383.899,299.047L383.809,299.11L383.718,299.171L383.628,299.232L383.538,299.291L383.447,299.349L383.357,299.406L383.267,299.462L383.176,299.516L383.086,299.569L382.996,299.621L382.905,299.671L382.815,299.719L382.725,299.766L382.634,299.812L382.544,299.856L382.454,299.898L382.363,299.938L382.273,299.977L382.183,300.014L382.092,300.049L382.002,300.082L381.912,300.113L381.821,300.142L381.731,300.169L381.641,300.195L381.55,300.218L381.46,300.239L381.37,300.258L381.279,300.274L381.189,300.289L381.099,300.301L381.009,300.311L380.918,300.319L380.828,300.324L380.738,300.327L380.647,300.328L380.557,300.326L380.467,300.321L380.376,300.315L380.286,300.306L380.196,300.294L380.105,300.279L380.015,300.263L379.925,300.243L379.834,300.221L379.744,300.197L379.654,300.169L379.563,300.14L379.473,300.107L379.383,300.072L379.292,300.034L379.202,299.994L379.112,299.95L379.021,299.905L378.931,299.856L378.841,299.805L378.75,299.751L378.66,299.694L378.57,299.635L378.479,299.573L378.389,299.508L378.299,299.441L378.208,299.371L378.118,299.298L378.028,299.223L377.937,299.145L377.847,299.065L377.757,298.982L377.666,298.896L377.576,298.808L377.486,298.717L377.395,298.624L377.305,298.528L377.215,298.43L377.124,298.33L377.034,298.227L376.944,298.121L376.854,298.014L376.763,297.904L376.673,297.792L376.583,297.677L376.492,297.561L376.402,297.442L376.312,297.321L376.221,297.198L376.131,297.074L376.041,296.947L375.95,296.818L375.86,296.688L375.77,296.555L375.679,296.421L375.589,296.285L375.499,296.148L375.408,296.009L375.318,295.869L375.228,295.727L375.137,295.584L375.047,295.439L374.957,295.293L374.866,295.146L374.776,294.998L374.686,294.849L374.595,294.699L374.505,294.548L374.415,294.396L374.324,294.243L374.234,294.09L374.144,293.936L374.053,293.782L373.963,293.627L373.873,293.472L373.782,293.316L373.692,293.161L373.511,292.849L373.421,292.693L373.331,292.538L373.24,292.382L373.15,292.228L373.06,292.073L372.969,291.919L372.879,291.765L372.789,291.613L372.699,291.461L372.608,291.309L372.518,291.159L372.428,291.01L372.337,290.862L372.247,290.715L372.157,290.57L372.066,290.426L371.976,290.283L371.886,290.143L371.795,290.003L371.705,289.866L371.615,289.73L371.524,289.597L371.434,289.465L371.344,289.336L371.253,289.209L371.163,289.084L371.073,288.962L370.982,288.842L370.892,288.725L370.802,288.611L370.711,288.499L370.621,288.39L370.531,288.285L370.44,288.182L370.35,288.082L370.26,287.986L370.169,287.893L370.079,287.803L369.989,287.717L369.898,287.634L369.808,287.555L369.718,287.48L369.627,287.408L369.537,287.34L369.447,287.276L369.356,287.216L369.266,287.16L369.176,287.108L369.085,287.061L368.995,287.017L368.905,286.978L368.814,286.943L368.724,286.913L368.634,286.887L368.544,286.865L368.453,286.848L368.363,286.835L368.273,286.827L368.182,286.824L368.092,286.825L368.002,286.831L367.911,286.841L367.821,286.856L367.731,286.876L367.64,286.901L367.55,286.93L367.46,286.964L367.369,287.003L367.279,287.046L367.189,287.094L367.098,287.147L367.008,287.204L366.918,287.266L366.827,287.333L366.737,287.404L366.647,287.48L366.556,287.56L366.466,287.645L366.376,287.733L366.285,287.827L366.195,287.924L366.105,288.025L366.014,288.131L365.924,288.24L365.834,288.354L365.743,288.471L365.653,288.591L365.563,288.716L365.472,288.843L365.382,288.974L365.292,289.109L365.201,289.246L365.111,289.386L365.021,289.529L364.93,289.675L364.84,289.823L364.75,289.973L364.659,290.126L364.569,290.28L364.479,290.436L364.389,290.594L364.298,290.754L364.208,290.914L364.118,291.076L364.027,291.239L363.937,291.403L363.847,291.567L363.756,291.731L363.666,291.895L363.576,292.06L363.485,292.224L363.395,292.388L363.305,292.551L363.214,292.714L363.124,292.875L363.034,293.035L362.943,293.194L362.853,293.352L362.763,293.507L362.672,293.661L362.582,293.813L362.492,293.962L362.401,294.109L362.311,294.254L362.221,294.396L362.13,294.535L362.04,294.671L361.95,294.804L361.859,294.934L361.769,295.06L361.679,295.183L361.588,295.302L361.498,295.418L361.408,295.531L361.317,295.639L361.227,295.744L361.137,295.844L361.046,295.941L360.956,296.034L360.866,296.123L360.775,296.208L360.685,296.289L360.595,296.366L360.504,296.439L360.414,296.508L360.324,296.573L360.234,296.634L360.143,296.691L360.053,296.745L359.963,296.794L359.872,296.84L359.782,296.882L359.692,296.921L359.601,296.956L359.511,296.987L359.421,297.016L359.33,297.041L359.24,297.062L359.15,297.081L359.059,297.097L358.969,297.11L358.879,297.12L358.788,297.127L358.698,297.132L358.608,297.134L358.517,297.134L358.427,297.131L358.337,297.127L358.246,297.12L358.156,297.112L358.066,297.101L357.975,297.089L357.885,297.075L357.795,297.06L357.704,297.043L357.614,297.025L357.524,297.005L357.433,296.985L357.343,296.963L357.253,296.94L357.162,296.917L357.072,296.893L356.982,296.868L356.891,296.842L356.801,296.816L356.711,296.789L356.62,296.762L356.53,296.734L356.44,296.706L356.349,296.678L356.259,296.65L356.169,296.621L356.078,296.592L355.898,296.535L355.808,296.507L355.717,296.478L355.627,296.45L355.537,296.422L355.446,296.394L355.356,296.366L355.266,296.339L355.175,296.312L355.085,296.285L354.995,296.259L354.904,296.233L354.814,296.207L354.724,296.182L354.633,296.157L354.543,296.132L354.453,296.108L354.362,296.085L354.272,296.062L354.182,296.039L354.091,296.017L354.001,295.996L353.911,295.975L353.82,295.954L353.73,295.934L353.64,295.914L353.549,295.895L353.459,295.877L353.369,295.858L353.278,295.841L353.188,295.824L353.098,295.807L353.007,295.791L352.917,295.775L352.827,295.76L352.736,295.745L352.646,295.731L352.556,295.717L352.465,295.704L352.375,295.691L352.285,295.678L352.194,295.666L352.104,295.654L352.014,295.643L351.923,295.632L351.833,295.622L351.743,295.611L351.653,295.602L351.562,295.592L351.472,295.583L351.382,295.575L351.291,295.566L351.201,295.558L351.111,295.551L351.02,295.543L350.93,295.536L350.84,295.529L350.749,295.523L350.659,295.517L350.569,295.511L350.478,295.505L350.388,295.5L350.298,295.494L350.207,295.489L350.117,295.485L350.027,295.48L349.936,295.476L349.846,295.472L349.756,295.468L349.665,295.464L349.575,295.461L349.485,295.458L349.394,295.454L349.304,295.451L349.214,295.449L349.123,295.446L349.033,295.443L348.943,295.441L348.852,295.439L348.762,295.437L348.672,295.435L348.581,295.433L348.491,295.431L348.401,295.429L348.31,295.428L348.22,295.426L348.13,295.425L348.039,295.424L347.949,295.423L347.859,295.421L347.768,295.42L347.678,295.42L347.588,295.419L347.498,295.418L347.407,295.417L347.317,295.416L347.227,295.416L347.136,295.415L347.046,295.415L346.956,295.414L346.865,295.414L346.775,295.414L346.685,295.413L346.594,295.413L346.504,295.413L346.414,295.413L346.323,295.412L346.233,295.412L346.143,295.412L346.052,295.412L345.962,295.412L345.781,295.412L345.601,295.412L345.42,295.412L345.239,295.412L345.059,295.412L344.878,295.413L344.607,295.413L344.336,295.414L343.975,295.414L343.072,295.416L342.71,295.417L342.349,295.417L341.988,295.418L341.626,295.419L341.265,295.419L340.904,295.42L340.542,295.42L340.181,295.421L339.82,295.421L339.458,295.421L339.007,295.421L338.555,295.422L338.104,295.422L337.652,295.422L337.11,295.422L336.478,295.422L335.665,295.423L334.671,295.423L333.587,295.423L331.961,295.423L327.897,295.423L324.735,295.423L296.915,295.423Z" style="fill:rgb(221,132,82);fill-opacity:0.25;fill-rule:nonzero;"/>
    </g>
    <g transform="matrix(8.94727,0,0,8.94727,-2452.88,-1678.18)">
        <path d="M296.915,295.423L477.477,295.423L450.289,295.423L448.031,295.423L445.592,295.423L442.972,295.423L440.804,295.423L437.914,295.423L435.836,295.423L434.03,295.423L431.681,295.422L429.965,295.422L428.791,295.422L427.888,295.422L426.985,295.422L426.081,295.422L425.359,295.422L424.636,295.423L424.004,295.423L423.371,295.423L422.739,295.423L422.107,295.424L421.475,295.424L420.752,295.424L420.029,295.425L419.126,295.426L417.952,295.426L417.32,295.427L416.778,295.427L416.326,295.428L415.965,295.428L415.603,295.428L415.242,295.428L414.971,295.428L414.7,295.428L414.429,295.428L414.158,295.428L413.887,295.428L413.616,295.427L413.345,295.427L413.074,295.427L412.803,295.426L412.623,295.426L412.442,295.426L412.261,295.426L412.081,295.425L411.9,295.425L411.719,295.424L411.539,295.424L411.358,295.423L411.177,295.423L410.997,295.422L410.816,295.422L410.635,295.421L410.455,295.42L410.274,295.419L410.094,295.419L409.913,295.418L409.732,295.417L409.552,295.416L409.371,295.415L409.19,295.414L409.01,295.413L408.829,295.412L408.648,295.411L408.468,295.41L408.287,295.409L408.106,295.407L407.926,295.406L407.745,295.405L407.474,295.403L407.203,295.401L406.932,295.399L406.661,295.396L406.3,295.394L405.487,295.387L405.126,295.384L404.855,295.382L404.584,295.38L404.403,295.378L404.222,295.377L404.042,295.376L403.861,295.375L403.68,295.374L403.5,295.372L403.319,295.371L403.138,295.371L403.048,295.37L402.958,295.37L402.867,295.369L402.777,295.369L402.687,295.369L402.596,295.368L402.506,295.368L402.416,295.368L402.325,295.368L402.235,295.367L402.145,295.367L402.055,295.367L401.964,295.367L401.874,295.367L401.784,295.367L401.693,295.367L401.603,295.367L401.513,295.367L401.422,295.367L401.332,295.368L401.242,295.368L401.151,295.368L401.061,295.368L400.971,295.369L400.88,295.369L400.79,295.37L400.7,295.37L400.609,295.371L400.519,295.371L400.429,295.372L400.338,295.372L400.248,295.373L400.158,295.374L400.067,295.375L399.977,295.376L399.887,295.377L399.796,295.378L399.706,295.379L399.616,295.38L399.525,295.381L399.435,295.383L399.345,295.384L399.254,295.385L399.164,295.387L399.074,295.388L398.983,295.39L398.893,295.391L398.803,295.393L398.712,295.395L398.622,295.397L398.532,295.399L398.441,295.401L398.351,295.403L398.261,295.405L398.17,295.407L398.08,295.409L397.99,295.412L397.899,295.414L397.809,295.417L397.719,295.419L397.629,295.422L397.538,295.424L397.448,295.427L397.358,295.43L397.267,295.433L397.177,295.436L397.087,295.439L396.996,295.442L396.906,295.445L396.816,295.448L396.725,295.452L396.635,295.455L396.545,295.459L396.454,295.462L396.364,295.466L396.274,295.469L396.183,295.473L396.093,295.477L396.003,295.481L395.912,295.485L395.822,295.489L395.732,295.493L395.641,295.497L395.551,295.501L395.461,295.505L395.37,295.51L395.28,295.514L395.19,295.519L395.099,295.523L395.009,295.528L394.919,295.532L394.828,295.537L394.738,295.541L394.648,295.546L394.557,295.551L394.467,295.556L394.377,295.561L394.286,295.565L394.196,295.57L394.106,295.575L394.015,295.58L393.925,295.585L393.744,295.595L393.564,295.606L393.383,295.616L392.932,295.641L392.751,295.652L392.57,295.662L392.48,295.667L392.39,295.672L392.299,295.677L392.209,295.682L392.119,295.687L392.028,295.692L391.938,295.697L391.848,295.701L391.757,295.706L391.667,295.711L391.577,295.715L391.486,295.72L391.396,295.725L391.306,295.729L391.215,295.733L391.125,295.738L391.035,295.742L390.944,295.746L390.854,295.75L390.764,295.754L390.673,295.757L390.583,295.761L390.493,295.765L390.402,295.768L390.312,295.771L390.222,295.774L390.131,295.777L390.041,295.78L389.951,295.783L389.86,295.786L389.77,295.788L389.68,295.79L389.589,295.792L389.499,295.794L389.409,295.796L389.319,295.798L389.228,295.799L389.138,295.8L389.048,295.801L388.957,295.802L388.867,295.802L388.777,295.803L388.686,295.803L388.596,295.803L388.506,295.802L388.415,295.802L388.325,295.801L388.235,295.8L388.144,295.799L388.054,295.797L387.964,295.795L387.873,295.793L387.783,295.791L387.693,295.788L387.602,295.786L387.512,295.782L387.422,295.779L387.331,295.775L387.241,295.771L387.151,295.767L387.06,295.762L386.97,295.757L386.88,295.752L386.789,295.747L386.699,295.741L386.609,295.735L386.518,295.728L386.428,295.721L386.338,295.714L386.247,295.707L386.157,295.699L386.067,295.691L385.976,295.683L385.886,295.674L385.796,295.665L385.705,295.655L385.615,295.645L385.525,295.635L385.434,295.625L385.344,295.614L385.254,295.603L385.164,295.591L385.073,295.58L384.983,295.567L384.893,295.555L384.802,295.542L384.712,295.529L384.622,295.515L384.531,295.501L384.441,295.487L384.351,295.472L384.26,295.458L384.17,295.442L384.08,295.427L383.989,295.411L383.899,295.395L383.809,295.378L383.718,295.361L383.628,295.344L383.538,295.326L383.447,295.309L383.357,295.291L383.267,295.272L383.176,295.253L383.086,295.234L382.996,295.215L382.905,295.196L382.815,295.176L382.725,295.156L382.634,295.135L382.544,295.115L382.454,295.094L382.363,295.073L382.273,295.051L382.183,295.03L382.092,295.008L382.002,294.986L381.912,294.964L381.821,294.942L381.731,294.919L381.641,294.896L381.55,294.874L381.46,294.851L381.37,294.828L381.279,294.804L381.189,294.781L381.099,294.758L381.009,294.734L380.918,294.71L380.828,294.687L380.738,294.663L380.647,294.639L380.376,294.568L380.286,294.544L380.196,294.52L380.105,294.497L380.015,294.473L379.925,294.449L379.834,294.426L379.744,294.402L379.654,294.379L379.563,294.356L379.473,294.333L379.383,294.31L379.292,294.288L379.202,294.265L379.112,294.243L379.021,294.221L378.931,294.199L378.841,294.178L378.75,294.156L378.66,294.136L378.57,294.115L378.479,294.095L378.389,294.075L378.299,294.055L378.208,294.036L378.118,294.017L378.028,293.999L377.937,293.981L377.847,293.964L377.757,293.947L377.666,293.931L377.576,293.915L377.486,293.899L377.395,293.884L377.305,293.87L377.215,293.856L377.124,293.843L377.034,293.831L376.944,293.819L376.854,293.808L376.763,293.798L376.673,293.788L376.583,293.779L376.492,293.77L376.402,293.763L376.312,293.756L376.221,293.75L376.131,293.745L376.041,293.74L375.95,293.737L375.86,293.734L375.77,293.732L375.679,293.731L375.589,293.731L375.499,293.731L375.408,293.733L375.318,293.736L375.228,293.739L375.137,293.744L375.047,293.749L374.957,293.756L374.866,293.763L374.776,293.772L374.686,293.781L374.595,293.792L374.505,293.803L374.415,293.816L374.324,293.83L374.234,293.844L374.144,293.86L374.053,293.877L373.963,293.895L373.873,293.914L373.782,293.935L373.692,293.956L373.602,293.979L373.511,294.002L373.421,294.027L373.331,294.053L373.24,294.08L373.15,294.108L373.06,294.138L372.969,294.168L372.879,294.2L372.789,294.232L372.699,294.266L372.608,294.301L372.518,294.338L372.428,294.375L372.337,294.414L372.247,294.453L372.157,294.494L372.066,294.536L371.976,294.579L371.886,294.623L371.795,294.668L371.705,294.715L371.615,294.762L371.524,294.811L371.434,294.86L371.344,294.911L371.253,294.962L371.163,295.015L371.073,295.069L370.982,295.123L370.892,295.179L370.802,295.236L370.711,295.293L370.621,295.352L370.531,295.411L370.44,295.472L370.35,295.533L370.26,295.595L370.169,295.658L370.079,295.722L369.989,295.786L369.898,295.851L369.808,295.917L369.718,295.984L369.627,296.051L369.537,296.119L369.447,296.188L369.356,296.257L369.266,296.327L369.176,296.397L369.085,296.468L368.995,296.54L368.905,296.611L368.814,296.684L368.724,296.756L368.634,296.829L368.544,296.902L368.453,296.976L368.363,297.05L368.273,297.124L368.182,297.198L368.092,297.272L368.002,297.346L367.821,297.495L367.731,297.569L367.64,297.643L367.55,297.718L367.46,297.792L367.369,297.865L367.279,297.939L367.189,298.012L367.098,298.085L367.008,298.158L366.918,298.23L366.827,298.302L366.737,298.373L366.647,298.443L366.556,298.513L366.466,298.583L366.376,298.652L366.285,298.72L366.195,298.787L366.105,298.853L366.014,298.919L365.924,298.983L365.834,299.047L365.743,299.11L365.653,299.171L365.563,299.232L365.472,299.291L365.382,299.349L365.292,299.406L365.201,299.462L365.111,299.516L365.021,299.569L364.93,299.621L364.84,299.671L364.75,299.719L364.659,299.766L364.569,299.812L364.479,299.856L364.389,299.898L364.298,299.938L364.208,299.977L364.118,300.014L364.027,300.049L363.937,300.082L363.847,300.113L363.756,300.142L363.666,300.169L363.576,300.195L363.485,300.218L363.395,300.239L363.305,300.258L363.214,300.274L363.124,300.289L363.034,300.301L362.943,300.311L362.853,300.319L362.763,300.324L362.672,300.327L362.582,300.328L362.492,300.326L362.401,300.321L362.311,300.315L362.221,300.306L362.13,300.294L362.04,300.279L361.95,300.263L361.859,300.243L361.769,300.221L361.679,300.197L361.588,300.169L361.498,300.14L361.408,300.107L361.317,300.072L361.227,300.034L361.137,299.994L361.046,299.95L360.956,299.905L360.866,299.856L360.775,299.805L360.685,299.751L360.595,299.694L360.504,299.635L360.414,299.573L360.324,299.508L360.234,299.441L360.143,299.371L360.053,299.298L359.963,299.223L359.872,299.145L359.782,299.065L359.692,298.982L359.601,298.896L359.511,298.808L359.421,298.717L359.33,298.624L359.24,298.528L359.15,298.43L359.059,298.33L358.969,298.227L358.879,298.121L358.788,298.014L358.698,297.904L358.608,297.792L358.517,297.677L358.427,297.561L358.337,297.442L358.246,297.321L358.156,297.198L358.066,297.074L357.975,296.947L357.885,296.818L357.795,296.688L357.704,296.555L357.614,296.421L357.524,296.285L357.433,296.148L357.343,296.009L357.253,295.869L357.162,295.727L357.072,295.584L356.982,295.439L356.891,295.293L356.801,295.146L356.711,294.998L356.62,294.849L356.53,294.699L356.44,294.548L356.349,294.396L356.259,294.243L356.169,294.09L356.078,293.936L355.988,293.782L355.898,293.627L355.808,293.472L355.717,293.316L355.627,293.161L355.446,292.849L355.356,292.693L355.266,292.538L355.175,292.382L355.085,292.228L354.995,292.073L354.904,291.919L354.814,291.765L354.724,291.613L354.633,291.461L354.543,291.309L354.453,291.159L354.362,291.01L354.272,290.862L354.182,290.715L354.091,290.57L354.001,290.426L353.911,290.283L353.82,290.143L353.73,290.003L353.64,289.866L353.549,289.73L353.459,289.597L353.369,289.465L353.278,289.336L353.188,289.209L353.098,289.084L353.007,288.962L352.917,288.842L352.827,288.725L352.736,288.611L352.646,288.499L352.556,288.39L352.465,288.285L352.375,288.182L352.285,288.082L352.194,287.986L352.104,287.893L352.014,287.803L351.923,287.717L351.833,287.634L351.743,287.555L351.653,287.48L351.562,287.408L351.472,287.34L351.382,287.276L351.291,287.216L351.201,287.16L351.111,287.108L351.02,287.061L350.93,287.017L350.84,286.978L350.749,286.943L350.659,286.913L350.569,286.887L350.478,286.865L350.388,286.848L350.298,286.835L350.207,286.827L350.117,286.824L350.027,286.825L349.936,286.831L349.846,286.841L349.756,286.856L349.665,286.876L349.575,286.901L349.485,286.93L349.394,286.964L349.304,287.003L349.214,287.046L349.123,287.094L349.033,287.147L348.943,287.204L348.852,287.266L348.762,287.333L348.672,287.404L348.581,287.48L348.491,287.56L348.401,287.645L348.31,287.733L348.22,287.827L348.13,287.924L348.039,288.025L347.949,288.131L347.859,288.24L347.768,288.354L347.678,288.471L347.588,288.591L347.498,288.716L347.407,288.843L347.317,288.974L347.227,289.109L347.136,289.246L347.046,289.386L346.956,289.529L346.865,289.675L346.775,289.823L346.685,289.973L346.594,290.126L346.504,290.28L346.414,290.436L346.323,290.594L346.233,290.754L346.143,290.914L346.052,291.076L345.962,291.239L345.872,291.403L345.781,291.567L345.691,291.731L345.601,291.895L345.51,292.06L345.42,292.224L345.33,292.388L345.239,292.551L345.149,292.714L345.059,292.875L344.968,293.035L344.878,293.194L344.788,293.352L344.697,293.507L344.607,293.661L344.517,293.813L344.426,293.962L344.336,294.109L344.246,294.254L344.155,294.396L344.065,294.535L343.975,294.671L343.884,294.804L343.794,294.934L343.704,295.06L343.613,295.183L343.523,295.302L343.433,295.418L343.343,295.531L343.252,295.639L343.162,295.744L343.072,295.844L342.981,295.941L342.891,296.034L342.801,296.123L342.71,296.208L342.62,296.289L342.53,296.366L342.439,296.439L342.349,296.508L342.259,296.573L342.168,296.634L342.078,296.691L341.988,296.745L341.897,296.794L341.807,296.84L341.717,296.882L341.626,296.921L341.536,296.956L341.446,296.987L341.355,297.016L341.265,297.041L341.175,297.062L341.084,297.081L340.994,297.097L340.904,297.11L340.813,297.12L340.723,297.127L340.633,297.132L340.542,297.134L340.452,297.134L340.362,297.131L340.271,297.127L340.181,297.12L340.091,297.112L340,297.101L339.91,297.089L339.82,297.075L339.729,297.06L339.639,297.043L339.549,297.025L339.458,297.005L339.368,296.985L339.278,296.963L339.188,296.94L339.097,296.917L339.007,296.893L338.917,296.868L338.826,296.842L338.736,296.816L338.646,296.789L338.555,296.762L338.465,296.734L338.375,296.706L338.284,296.678L338.194,296.65L338.104,296.621L338.013,296.592L337.833,296.535L337.742,296.507L337.652,296.478L337.562,296.45L337.471,296.422L337.381,296.394L337.291,296.366L337.2,296.339L337.11,296.312L337.02,296.285L336.929,296.259L336.839,296.233L336.749,296.207L336.658,296.182L336.568,296.157L336.478,296.132L336.387,296.108L336.297,296.085L336.207,296.062L336.116,296.039L336.026,296.017L335.936,295.996L335.845,295.975L335.755,295.954L335.665,295.934L335.574,295.914L335.484,295.895L335.394,295.877L335.303,295.858L335.213,295.841L335.123,295.824L335.033,295.807L334.942,295.791L334.852,295.775L334.762,295.76L334.671,295.745L334.581,295.731L334.491,295.717L334.4,295.704L334.31,295.691L334.22,295.678L334.129,295.666L334.039,295.654L333.949,295.643L333.858,295.632L333.768,295.622L333.678,295.611L333.587,295.602L333.497,295.592L333.407,295.583L333.316,295.575L333.226,295.566L333.136,295.558L333.045,295.551L332.955,295.543L332.865,295.536L332.774,295.529L332.684,295.523L332.594,295.517L332.503,295.511L332.413,295.505L332.323,295.5L332.232,295.494L332.142,295.489L332.052,295.485L331.961,295.48L331.871,295.476L331.781,295.472L331.69,295.468L331.6,295.464L331.51,295.461L331.419,295.458L331.329,295.454L331.239,295.451L331.148,295.449L331.058,295.446L330.968,295.443L330.878,295.441L330.787,295.439L330.697,295.437L330.607,295.435L330.516,295.433L330.426,295.431L330.336,295.429L330.245,295.428L330.155,295.426L330.065,295.425L329.974,295.424L329.884,295.423L329.794,295.421L329.703,295.42L329.613,295.42L329.523,295.419L329.432,295.418L329.342,295.417L329.252,295.416L329.161,295.416L329.071,295.415L328.981,295.415L328.89,295.414L328.8,295.414L328.71,295.414L328.619,295.413L328.529,295.413L328.439,295.413L328.348,295.413L328.258,295.412L328.168,295.412L328.077,295.412L327.987,295.412L327.897,295.412L327.716,295.412L327.535,295.412L327.355,295.412L327.174,295.412L326.993,295.412L326.813,295.413L326.542,295.413L326.271,295.414L325.91,295.414L325.006,295.416L324.645,295.417L324.284,295.417L323.922,295.418L323.561,295.419L323.2,295.419L322.838,295.42L322.477,295.42L322.116,295.421L321.755,295.421L321.393,295.421L320.942,295.421L320.49,295.422L320.038,295.422L319.587,295.422L319.045,295.422L318.413,295.422L317.6,295.423L316.606,295.423L315.522,295.423L313.896,295.423L309.832,295.423L306.67,295.423L296.915,295.423Z" style="fill:rgb(221,132,82);fill-opacity:0.17;fill-rule:nonzero;"/>
    </g>
    <g transform="matrix(8.94727,0,0,8.94727,-2452.88,-1678.18)">
        <path d="M296.915,295.423L296.915,295.423L477.477,295.423L432.223,295.423L429.965,295.423L427.526,295.423L424.907,295.423L422.739,295.423L419.849,295.423L417.771,295.423L415.965,295.423L413.616,295.422L411.9,295.422L410.726,295.422L409.823,295.422L408.919,295.422L408.016,295.422L407.293,295.422L406.571,295.423L405.939,295.423L405.306,295.423L404.674,295.423L404.042,295.424L403.409,295.424L402.687,295.424L401.964,295.425L401.061,295.426L399.887,295.426L399.254,295.427L398.712,295.427L398.261,295.428L397.899,295.428L397.538,295.428L397.177,295.428L396.906,295.428L396.635,295.428L396.364,295.428L396.093,295.428L395.822,295.428L395.551,295.427L395.28,295.427L395.009,295.427L394.738,295.426L394.557,295.426L394.377,295.426L394.196,295.426L394.015,295.425L393.835,295.425L393.654,295.424L393.474,295.424L393.293,295.423L393.112,295.423L392.932,295.422L392.751,295.422L392.57,295.421L392.39,295.42L392.209,295.419L392.028,295.419L391.848,295.418L391.667,295.417L391.486,295.416L391.306,295.415L391.125,295.414L390.944,295.413L390.764,295.412L390.583,295.411L390.402,295.41L390.222,295.409L390.041,295.407L389.86,295.406L389.68,295.405L389.409,295.403L389.138,295.401L388.867,295.399L388.596,295.396L388.235,295.394L387.422,295.387L387.06,295.384L386.789,295.382L386.518,295.38L386.338,295.378L386.157,295.377L385.976,295.376L385.796,295.375L385.615,295.374L385.434,295.372L385.254,295.371L385.073,295.371L384.983,295.37L384.893,295.37L384.802,295.369L384.712,295.369L384.622,295.369L384.531,295.368L384.441,295.368L384.351,295.368L384.26,295.368L384.17,295.367L384.08,295.367L383.989,295.367L383.899,295.367L383.809,295.367L383.718,295.367L383.628,295.367L383.538,295.367L383.447,295.367L383.357,295.367L383.267,295.368L383.176,295.368L383.086,295.368L382.996,295.368L382.905,295.369L382.815,295.369L382.725,295.37L382.634,295.37L382.544,295.371L382.454,295.371L382.363,295.372L382.273,295.372L382.183,295.373L382.092,295.374L382.002,295.375L381.912,295.376L381.821,295.377L381.731,295.378L381.641,295.379L381.55,295.38L381.46,295.381L381.37,295.383L381.279,295.384L381.189,295.385L381.099,295.387L381.009,295.388L380.918,295.39L380.828,295.391L380.738,295.393L380.647,295.395L380.557,295.397L380.467,295.399L380.376,295.401L380.286,295.403L380.196,295.405L380.105,295.407L380.015,295.409L379.925,295.412L379.834,295.414L379.744,295.417L379.654,295.419L379.563,295.422L379.473,295.424L379.383,295.427L379.292,295.43L379.202,295.433L379.112,295.436L379.021,295.439L378.931,295.442L378.841,295.445L378.75,295.448L378.66,295.452L378.57,295.455L378.479,295.459L378.389,295.462L378.299,295.466L378.208,295.469L378.118,295.473L378.028,295.477L377.937,295.481L377.847,295.485L377.757,295.489L377.666,295.493L377.576,295.497L377.486,295.501L377.395,295.505L377.305,295.51L377.215,295.514L377.124,295.519L377.034,295.523L376.944,295.528L376.854,295.532L376.763,295.537L376.673,295.541L376.583,295.546L376.492,295.551L376.402,295.556L376.312,295.561L376.221,295.565L376.131,295.57L376.041,295.575L375.95,295.58L375.86,295.585L375.679,295.595L375.499,295.606L375.318,295.616L374.866,295.641L374.686,295.652L374.505,295.662L374.415,295.667L374.324,295.672L374.234,295.677L374.144,295.682L374.053,295.687L373.963,295.692L373.873,295.697L373.782,295.701L373.692,295.706L373.602,295.711L373.511,295.715L373.421,295.72L373.331,295.725L373.24,295.729L373.15,295.733L373.06,295.738L372.969,295.742L372.879,295.746L372.789,295.75L372.699,295.754L372.608,295.757L372.518,295.761L372.428,295.765L372.337,295.768L372.247,295.771L372.157,295.774L372.066,295.777L371.976,295.78L371.886,295.783L371.795,295.786L371.705,295.788L371.615,295.79L371.524,295.792L371.434,295.794L371.344,295.796L371.253,295.798L371.163,295.799L371.073,295.8L370.982,295.801L370.892,295.802L370.802,295.802L370.711,295.803L370.621,295.803L370.531,295.803L370.44,295.802L370.35,295.802L370.26,295.801L370.169,295.8L370.079,295.799L369.989,295.797L369.898,295.795L369.808,295.793L369.718,295.791L369.627,295.788L369.537,295.786L369.447,295.782L369.356,295.779L369.266,295.775L369.176,295.771L369.085,295.767L368.995,295.762L368.905,295.757L368.814,295.752L368.724,295.747L368.634,295.741L368.544,295.735L368.453,295.728L368.363,295.721L368.273,295.714L368.182,295.707L368.092,295.699L368.002,295.691L367.911,295.683L367.821,295.674L367.731,295.665L367.64,295.655L367.55,295.645L367.46,295.635L367.369,295.625L367.279,295.614L367.189,295.603L367.098,295.591L367.008,295.58L366.918,295.567L366.827,295.555L366.737,295.542L366.647,295.529L366.556,295.515L366.466,295.501L366.376,295.487L366.285,295.472L366.195,295.458L366.105,295.442L366.014,295.427L365.924,295.411L365.834,295.395L365.743,295.378L365.653,295.361L365.563,295.344L365.472,295.326L365.382,295.309L365.292,295.291L365.201,295.272L365.111,295.253L365.021,295.234L364.93,295.215L364.84,295.196L364.75,295.176L364.659,295.156L364.569,295.135L364.479,295.115L364.389,295.094L364.298,295.073L364.208,295.051L364.118,295.03L364.027,295.008L363.937,294.986L363.847,294.964L363.756,294.942L363.666,294.919L363.576,294.896L363.485,294.874L363.395,294.851L363.305,294.828L363.214,294.804L363.124,294.781L363.034,294.758L362.943,294.734L362.853,294.71L362.763,294.687L362.672,294.663L362.582,294.639L362.311,294.568L362.221,294.544L362.13,294.52L362.04,294.497L361.95,294.473L361.859,294.449L361.769,294.426L361.679,294.402L361.588,294.379L361.498,294.356L361.408,294.333L361.317,294.31L361.227,294.288L361.137,294.265L361.046,294.243L360.956,294.221L360.866,294.199L360.775,294.178L360.685,294.156L360.595,294.136L360.504,294.115L360.414,294.095L360.324,294.075L360.234,294.055L360.143,294.036L360.053,294.017L359.963,293.999L359.872,293.981L359.782,293.964L359.692,293.947L359.601,293.931L359.511,293.915L359.421,293.899L359.33,293.884L359.24,293.87L359.15,293.856L359.059,293.843L358.969,293.831L358.879,293.819L358.788,293.808L358.698,293.798L358.608,293.788L358.517,293.779L358.427,293.77L358.337,293.763L358.246,293.756L358.156,293.75L358.066,293.745L357.975,293.74L357.885,293.737L357.795,293.734L357.704,293.732L357.614,293.731L357.524,293.731L357.433,293.731L357.343,293.733L357.253,293.736L357.162,293.739L357.072,293.744L356.982,293.749L356.891,293.756L356.801,293.763L356.711,293.772L356.62,293.781L356.53,293.792L356.44,293.803L356.349,293.816L356.259,293.83L356.169,293.844L356.078,293.86L355.988,293.877L355.898,293.895L355.808,293.914L355.717,293.935L355.627,293.956L355.537,293.979L355.446,294.002L355.356,294.027L355.266,294.053L355.175,294.08L355.085,294.108L354.995,294.138L354.904,294.168L354.814,294.2L354.724,294.232L354.633,294.266L354.543,294.301L354.453,294.338L354.362,294.375L354.272,294.414L354.182,294.453L354.091,294.494L354.001,294.536L353.911,294.579L353.82,294.623L353.73,294.668L353.64,294.715L353.549,294.762L353.459,294.811L353.369,294.86L353.278,294.911L353.188,294.962L353.098,295.015L353.007,295.069L352.917,295.123L352.827,295.179L352.736,295.236L352.646,295.293L352.556,295.352L352.465,295.411L352.375,295.472L352.285,295.533L352.194,295.595L352.104,295.658L352.014,295.722L351.923,295.786L351.833,295.851L351.743,295.917L351.653,295.984L351.562,296.051L351.472,296.119L351.382,296.188L351.291,296.257L351.201,296.327L351.111,296.397L351.02,296.468L350.93,296.54L350.84,296.611L350.749,296.684L350.659,296.756L350.569,296.829L350.478,296.902L350.388,296.976L350.298,297.05L350.207,297.124L350.117,297.198L350.027,297.272L349.936,297.346L349.756,297.495L349.665,297.569L349.575,297.643L349.485,297.718L349.394,297.792L349.304,297.865L349.214,297.939L349.123,298.012L349.033,298.085L348.943,298.158L348.852,298.23L348.762,298.302L348.672,298.373L348.581,298.443L348.491,298.513L348.401,298.583L348.31,298.652L348.22,298.72L348.13,298.787L348.039,298.853L347.949,298.919L347.859,298.983L347.768,299.047L347.678,299.11L347.588,299.171L347.498,299.232L347.407,299.291L347.317,299.349L347.227,299.406L347.136,299.462L347.046,299.516L346.956,299.569L346.865,299.621L346.775,299.671L346.685,299.719L346.594,299.766L346.504,299.812L346.414,299.856L346.323,299.898L346.233,299.938L346.143,299.977L346.052,300.014L345.962,300.049L345.872,300.082L345.781,300.113L345.691,300.142L345.601,300.169L345.51,300.195L345.42,300.218L345.33,300.239L345.239,300.258L345.149,300.274L345.059,300.289L344.968,300.301L344.878,300.311L344.788,300.319L344.697,300.324L344.607,300.327L344.517,300.328L344.426,300.326L344.336,300.321L344.246,300.315L344.155,300.306L344.065,300.294L343.975,300.279L343.884,300.263L343.794,300.243L343.704,300.221L343.613,300.197L343.523,300.169L343.433,300.14L343.343,300.107L343.252,300.072L343.162,300.034L343.072,299.994L342.981,299.95L342.891,299.905L342.801,299.856L342.71,299.805L342.62,299.751L342.53,299.694L342.439,299.635L342.349,299.573L342.259,299.508L342.168,299.441L342.078,299.371L341.988,299.298L341.897,299.223L341.807,299.145L341.717,299.065L341.626,298.982L341.536,298.896L341.446,298.808L341.355,298.717L341.265,298.624L341.175,298.528L341.084,298.43L340.994,298.33L340.904,298.227L340.813,298.121L340.723,298.014L340.633,297.904L340.542,297.792L340.452,297.677L340.362,297.561L340.271,297.442L340.181,297.321L340.091,297.198L340,297.074L339.91,296.947L339.82,296.818L339.729,296.688L339.639,296.555L339.549,296.421L339.458,296.285L339.368,296.148L339.278,296.009L339.188,295.869L339.097,295.727L339.007,295.584L338.917,295.439L338.826,295.293L338.736,295.146L338.646,294.998L338.555,294.849L338.465,294.699L338.375,294.548L338.284,294.396L338.194,294.243L338.104,294.09L338.013,293.936L337.923,293.782L337.833,293.627L337.742,293.472L337.652,293.316L337.562,293.161L337.381,292.849L337.291,292.693L337.2,292.538L337.11,292.382L337.02,292.228L336.929,292.073L336.839,291.919L336.749,291.765L336.658,291.613L336.568,291.461L336.478,291.309L336.387,291.159L336.297,291.01L336.207,290.862L336.116,290.715L336.026,290.57L335.936,290.426L335.845,290.283L335.755,290.143L335.665,290.003L335.574,289.866L335.484,289.73L335.394,289.597L335.303,289.465L335.213,289.336L335.123,289.209L335.033,289.084L334.942,288.962L334.852,288.842L334.762,288.725L334.671,288.611L334.581,288.499L334.491,288.39L334.4,288.285L334.31,288.182L334.22,288.082L334.129,287.986L334.039,287.893L333.949,287.803L333.858,287.717L333.768,287.634L333.678,287.555L333.587,287.48L333.497,287.408L333.407,287.34L333.316,287.276L333.226,287.216L333.136,287.16L333.045,287.108L332.955,287.061L332.865,287.017L332.774,286.978L332.684,286.943L332.594,286.913L332.503,286.887L332.413,286.865L332.323,286.848L332.232,286.835L332.142,286.827L332.052,286.824L331.961,286.825L331.871,286.831L331.781,286.841L331.69,286.856L331.6,286.876L331.51,286.901L331.419,286.93L331.329,286.964L331.239,287.003L331.148,287.046L331.058,287.094L330.968,287.147L330.878,287.204L330.787,287.266L330.697,287.333L330.607,287.404L330.516,287.48L330.426,287.56L330.336,287.645L330.245,287.733L330.155,287.827L330.065,287.924L329.974,288.025L329.884,288.131L329.794,288.24L329.703,288.354L329.613,288.471L329.523,288.591L329.432,288.716L329.342,288.843L329.252,288.974L329.161,289.109L329.071,289.246L328.981,289.386L328.89,289.529L328.8,289.675L328.71,289.823L328.619,289.973L328.529,290.126L328.439,290.28L328.348,290.436L328.258,290.594L328.168,290.754L328.077,290.914L327.987,291.076L327.897,291.239L327.806,291.403L327.716,291.567L327.626,291.731L327.535,291.895L327.445,292.06L327.355,292.224L327.264,292.388L327.174,292.551L327.084,292.714L326.993,292.875L326.903,293.035L326.813,293.194L326.723,293.352L326.632,293.507L326.542,293.661L326.452,293.813L326.361,293.962L326.271,294.109L326.181,294.254L326.09,294.396L326,294.535L325.91,294.671L325.819,294.804L325.729,294.934L325.639,295.06L325.548,295.183L325.458,295.302L325.368,295.418L325.277,295.531L325.187,295.639L325.097,295.744L325.006,295.844L324.916,295.941L324.826,296.034L324.735,296.123L324.645,296.208L324.555,296.289L324.464,296.366L324.374,296.439L324.284,296.508L324.193,296.573L324.103,296.634L324.013,296.691L323.922,296.745L323.832,296.794L323.742,296.84L323.651,296.882L323.561,296.921L323.471,296.956L323.38,296.987L323.29,297.016L323.2,297.041L323.109,297.062L323.019,297.081L322.929,297.097L322.838,297.11L322.748,297.12L322.658,297.127L322.568,297.132L322.477,297.134L322.387,297.134L322.297,297.131L322.206,297.127L322.116,297.12L322.026,297.112L321.935,297.101L321.845,297.089L321.755,297.075L321.664,297.06L321.574,297.043L321.484,297.025L321.393,297.005L321.303,296.985L321.213,296.963L321.122,296.94L321.032,296.917L320.942,296.893L320.851,296.868L320.761,296.842L320.671,296.816L320.58,296.789L320.49,296.762L320.4,296.734L320.309,296.706L320.219,296.678L320.129,296.65L320.038,296.621L319.948,296.592L319.767,296.535L319.677,296.507L319.587,296.478L319.496,296.45L319.406,296.422L319.316,296.394L319.225,296.366L319.135,296.339L319.045,296.312L318.954,296.285L318.864,296.259L318.774,296.233L318.683,296.207L318.593,296.182L318.503,296.157L318.413,296.132L318.322,296.108L318.232,296.085L318.142,296.062L318.051,296.039L317.961,296.017L317.871,295.996L317.78,295.975L317.69,295.954L317.6,295.934L317.509,295.914L317.419,295.895L317.329,295.877L317.238,295.858L317.148,295.841L317.058,295.824L316.967,295.807L316.877,295.791L316.787,295.775L316.696,295.76L316.606,295.745L316.516,295.731L316.425,295.717L316.335,295.704L316.245,295.691L316.154,295.678L316.064,295.666L315.974,295.654L315.883,295.643L315.793,295.632L315.703,295.622L315.612,295.611L315.522,295.602L315.432,295.592L315.341,295.583L315.251,295.575L315.161,295.566L315.07,295.558L314.98,295.551L314.89,295.543L314.799,295.536L314.709,295.529L314.619,295.523L314.528,295.517L314.438,295.511L314.348,295.505L314.258,295.5L314.167,295.494L314.077,295.489L313.987,295.485L313.896,295.48L313.806,295.476L313.716,295.472L313.625,295.468L313.535,295.464L313.445,295.461L313.354,295.458L313.264,295.454L313.174,295.451L313.083,295.449L312.993,295.446L312.903,295.443L312.812,295.441L312.722,295.439L312.632,295.437L312.541,295.435L312.451,295.433L312.361,295.431L312.27,295.429L312.18,295.428L312.09,295.426L311.999,295.425L311.909,295.424L311.819,295.423L311.728,295.421L311.638,295.42L311.548,295.42L311.457,295.419L311.367,295.418L311.277,295.417L311.186,295.416L311.096,295.416L311.006,295.415L310.915,295.415L310.825,295.414L310.735,295.414L310.644,295.414L310.554,295.413L310.464,295.413L310.373,295.413L310.283,295.413L310.193,295.412L310.103,295.412L310.012,295.412L309.922,295.412L309.832,295.412L309.651,295.412L309.47,295.412L309.29,295.412L309.109,295.412L308.928,295.412L308.748,295.413L308.477,295.413L308.206,295.414L307.844,295.414L306.941,295.416L306.58,295.417L306.218,295.417L305.857,295.418L305.496,295.419L305.135,295.419L304.773,295.42L304.412,295.42L304.051,295.421L303.689,295.421L303.328,295.421L302.876,295.421L302.425,295.422L301.973,295.422L301.522,295.422L300.98,295.422L300.347,295.422L299.534,295.423L298.541,295.423L297.457,295.423L296.915,295.423Z" style="fill:rgb(221,132,82);fill-opacity:0.08;fill-rule:nonzero;"/>
    </g>
    <g transform="matrix(8.94727,0,0,8.94727,-2452.88,-1069.64)">
        <path d="M296.915,265.723L331.329,265.828L332.955,266.125L334.22,266.574L335.394,267.236L336.568,268.17L338.104,269.717L339.458,270.998L340.181,271.381L340.723,271.404L341.175,271.189L341.626,270.716L342.168,269.76L342.71,268.341L343.343,266.082L344.155,262.3L345.33,255.607L347.317,244.229L348.22,240.402L348.852,238.535L349.394,237.527L349.846,237.117L350.207,237.07L350.569,237.269L351.02,237.85L351.562,239.007L352.194,240.933L353.007,244.187L354.091,249.547L356.169,261.28L357.885,270.374L359.059,275.413L359.963,278.391L360.775,280.33L361.408,281.337L361.95,281.856L362.492,282.066L362.943,282.017L363.485,281.706L364.118,281.026L364.84,279.883L365.743,278.012L367.008,274.84L370.531,265.685L371.705,263.363L372.699,261.869L373.602,260.909L374.415,260.367L375.137,260.126L375.95,260.102L376.763,260.306L377.757,260.804L379.021,261.717L384.26,265.839L385.615,266.465L386.97,266.839L388.325,266.984L389.951,266.924L392.209,266.587L397.448,265.738L400.248,265.558L403.951,265.565L416.597,265.738L477.477,265.723" style="fill:none;fill-rule:nonzero;stroke:rgb(76,114,176);stroke-width:0.93px;"/>
    </g>
    <g transform="matrix(8.94727,0,0,8.94727,-2452.88,-1678.16)">
        <path d="M296.915,295.42L368.905,295.527L371.163,295.804L373.15,296.282L376.312,297.117L377.215,297.078L377.937,296.837L378.66,296.363L379.473,295.528L380.376,294.251L381.731,291.893L383.447,288.972L384.351,287.824L385.164,287.144L385.796,286.873L386.428,286.832L387.06,287.015L387.783,287.477L388.596,288.282L389.589,289.594L391.035,291.916L394.106,296.944L395.28,298.428L396.274,299.368L397.177,299.948L398.08,300.26L398.983,300.316L399.887,300.14L400.88,299.717L402.145,298.916L404.132,297.344L406.571,295.469L408.106,294.576L409.461,294.05L410.726,293.789L412.081,293.734L413.616,293.897L415.784,294.376L420.391,295.455L422.739,295.732L425.268,295.797L429.062,295.639L435.565,295.38L442.521,295.392L459.773,295.42L477.477,295.42" style="fill:none;fill-rule:nonzero;stroke:rgb(221,132,82);stroke-width:0.93px;"/>
    </g>
    <g transform="matrix(-3.66793,-9.33509,-7.7561,3.04752,3378.73,3922.46)">
        <path d="M369.896,131.432L394.228,128.63" style="fill:none;fill-rule:nonzero;stroke:black;stroke-width:0.54px;stroke-linecap:butt;stroke-dasharray:2.01,0.87;"/>
    </g>
    <g transform="matrix(8.33333,0,0,8.33333,-2212.84,-1244.29)">
        <g transform="matrix(10,0,0,10,384.045,204.519)">
        </g>
        <text x="380.725px" y="204.519px" style="font-family:'NotoSans-Italic', 'Noto Sans', sans-serif;font-style:italic;font-size:10px;">t</text>
    </g>
    <g transform="matrix(0.0894727,0,0,0.0894727,817.304,1163.1)">
        <path d="M252,536C216,536 185,527 161,511C136,494 124,464 124,420C124,409 125,395 128,378C130,362 133,345 137,329L193,66L42,66L58,-9L459,-9L443,66L281,66L224,331C220,347 218,361 216,374C214,388 213,400 213,410C213,426 217,439 225,449C233,460 247,465 266,465C277,465 288,464 300,462C311,460 323,456 337,452L337,519C329,523 316,527 299,530C282,534 266,536 252,536Z" style="fill-rule:nonzero;"/>
    </g>
    <g transform="matrix(8.33333,0,0,8.33333,-2185.15,314.128)">
        <text x="436.081px" y="32.595px" style="font-family:'NotoSans-Regular', 'Noto Sans', sans-serif;font-size:10px;">Sampler</text>
        <text x="445.175px" y="73.575px" style="font-family:'NotoSans-Regular', 'Noto Sans', sans-serif;font-size:10px;">Probe</text>
        <g transform="matrix(10,0,0,10,473.171,114.555)">
        </g>
        <text x="445.441px" y="114.555px" style="font-family:'NotoSans-Regular', 'Noto Sans', sans-serif;font-size:10px;">Pump</text>
    </g>
    <g transform="matrix(8.94727,0,0,8.94727,-2452.88,388.203)">
        <g transform="matrix(0.111766,-0,-0,0.111766,274.148,-43.3879)">
            <path d="M681.166,1111.88L681.166,1131.88" style="fill:none;stroke:black;stroke-width:5px;stroke-linecap:butt;stroke-linejoin:miter;"/>
            <path d="M998.268,1111.88L998.268,1131.88" style="fill:none;stroke:black;stroke-width:5px;stroke-linecap:butt;stroke-linejoin:miter;"/>
            <path d="M681.166,1121.88L998.268,1121.88" style="fill:none;stroke:black;stroke-width:5px;stroke-linecap:butt;stroke-miterlimit:1.5;"/>
        </g>
    </g>
    <g transform="matrix(1.38667,0,0,1,414.533,421)">
        <g transform="matrix(0.721154,-0,-0,1,-298.942,-421)">
            <path d="M1056.5,728.25L1094,747L1056.5,765.75L1056.5,728.25Z"/>
            <path d="M990,747L1064,747" style="fill:none;stroke:black;stroke-width:8.33px;stroke-linecap:butt;stroke-miterlimit:1.5;"/>
        </g>
    </g>
</svg>
