<?xml version="1.0" encoding="UTF-8" standalone="no"?>
<!DOCTYPE svg PUBLIC "-//W3C//DTD SVG 1.1//EN" "http://www.w3.org/Graphics/SVG/1.1/DTD/svg11.dtd">
<svg width="100%" height="100%" viewBox="0 0 2040 2040" version="1.1" xmlns="http://www.w3.org/2000/svg" xmlns:xlink="http://www.w3.org/1999/xlink" xml:space="preserve" xmlns:serif="http://www.serif.com/" style="fill-rule:evenodd;clip-rule:evenodd;stroke-linecap:square;stroke-linejoin:round;stroke-miterlimit:10;">
    <g>
        <path d="M21.694,1018.44c182.912,0 229.435,-25.406 301.127,52.158c40.273,43.572 77.595,87.675 121.364,87.25c111.208,-1.08 144.492,-648.769 187.723,-647.813c51.879,1.147 85.977,1074.57 152.417,1074.67c46.696,0.069 71.572,-858.609 111.684,-856.57c38.005,1.932 66.35,500.642 103.788,499.142c33.26,-1.332 68.556,-338.86 96.162,-335.627c5.284,0.619 11.098,5.325 17.241,19.814c53.119,125.285 51.414,134.819 68.044,134.819c23.288,0 44.755,-55.207 68.043,-55.205c27.703,0.002 30.877,32.261 56.451,32.816c45.393,0.985 49.927,-15.006 79.633,-14.361c34.851,0.756 28.875,1.843 71.344,13.859c38.357,10.853 77.923,-7.048 106.807,-5.417c56.014,3.164 354.573,-0.764 406.155,-1.089" style="fill:none;fill-rule:nonzero;stroke:rgb(57,57,57);stroke-width:16.67px;"/>
        <path d="M21.694,1019.12c182.912,0 229.435,-18.969 301.127,38.942c40.273,32.531 77.595,65.459 121.364,65.142c111.208,-0.806 144.492,-484.382 187.723,-483.669c51.879,0.856 85.977,802.293 152.417,802.367c46.696,0.051 71.572,-641.053 111.684,-639.531c38.005,1.443 66.35,373.788 103.788,372.669c33.26,-0.995 68.556,-252.999 96.162,-250.585c5.284,0.462 11.098,3.976 17.241,14.793c53.119,93.54 51.414,100.658 68.044,100.658c23.288,0 44.755,-41.218 68.043,-41.217c27.703,0.002 30.877,24.087 56.451,24.501c45.393,0.735 49.927,-11.203 79.633,-10.722c34.851,0.564 28.875,1.376 71.344,10.348c38.357,8.103 77.923,-5.263 106.807,-4.045c56.014,2.362 354.573,-0.57 406.155,-0.813" style="fill:none;fill-rule:nonzero;stroke:rgb(117,117,117);stroke-width:16.67px;"/>
        <path d="M21.694,1017.42c182.912,-0 229.435,-13.176 301.127,27.048c40.273,22.596 77.595,45.467 121.364,45.247c111.208,-0.56 144.492,-336.446 187.723,-335.95c51.879,0.595 85.977,557.262 152.417,557.313c46.696,0.036 71.572,-445.267 111.684,-444.209c38.005,1.002 66.35,259.628 103.788,258.851c33.26,-0.691 68.556,-175.73 96.162,-174.054c5.284,0.321 11.098,2.762 17.241,10.275c53.119,64.972 51.414,69.917 68.044,69.917c23.288,-0 44.755,-28.63 68.043,-28.629c27.703,0.001 30.877,16.73 56.451,17.018c45.393,0.51 49.927,-7.782 79.633,-7.448c34.851,0.392 28.875,0.956 71.344,7.188c38.357,5.628 77.923,-3.656 106.807,-2.81c56.014,1.641 354.573,-0.396 406.155,-0.564" style="fill:none;fill-rule:nonzero;stroke:rgb(157,157,157);stroke-width:16.67px;"/>
        <path d="M21.694,1017.46c182.912,0 229.435,-7.303 301.127,14.994c40.273,12.525 77.595,25.203 121.364,25.081c111.208,-0.31 144.492,-186.498 187.723,-186.223c51.879,0.329 85.977,308.901 152.417,308.929c46.696,0.02 71.572,-246.82 111.684,-246.234c38.005,0.556 66.35,143.917 103.788,143.486c33.26,-0.383 68.556,-97.41 96.162,-96.481c5.284,0.178 11.098,1.531 17.241,5.696c53.119,36.015 51.414,38.756 68.044,38.756c23.288,-0 44.755,-15.87 68.043,-15.87c27.703,0.001 30.877,9.274 56.451,9.434c45.393,0.283 49.927,-4.314 79.633,-4.129c34.851,0.217 28.875,0.53 71.344,3.984c38.357,3.12 77.923,-2.026 106.807,-1.557c56.014,0.91 354.573,-0.22 406.155,-0.313" style="fill:none;fill-rule:nonzero;stroke:rgb(208,208,208);stroke-width:16.67px;"/>
    </g>
    <g>
        <g>
            <rect x="1609.78" y="134.792" width="70.821" height="1767.74" style="fill:rgb(208,166,166);stroke:black;stroke-width:4.17px;stroke-linecap:butt;"/>
        </g>
        <g>
            <rect x="1681.04" y="134.792" width="297.802" height="1767.74" style="fill:rgb(246,236,212);stroke:black;stroke-width:4.17px;stroke-linecap:butt;"/>
        </g>
        <g>
            <rect x="1585.98" y="134.792" width="23.811" height="161.072" style="fill:rgb(219,157,57);stroke:black;stroke-width:4.17px;stroke-linecap:butt;"/>
        </g>
        <g>
            <rect x="1585.98" y="456.127" width="23.811" height="161.072" style="fill:rgb(219,157,57);stroke:black;stroke-width:4.17px;stroke-linecap:butt;"/>
        </g>
        <g>
            <rect x="1585.98" y="777.461" width="23.811" height="161.072" style="fill:rgb(219,157,57);stroke:black;stroke-width:4.17px;stroke-linecap:butt;"/>
        </g>
        <g>
            <rect x="1585.98" y="1098.8" width="23.811" height="161.072" style="fill:rgb(219,157,57);stroke:black;stroke-width:4.17px;stroke-linecap:butt;"/>
        </g>
        <g>
            <rect x="1585.98" y="1420.13" width="23.811" height="161.072" style="fill:rgb(219,157,57);stroke:black;stroke-width:4.17px;stroke-linecap:butt;"/>
        </g>
        <g>
            <rect x="1585.98" y="1741.47" width="23.811" height="161.072" style="fill:rgb(219,157,57);stroke:black;stroke-width:4.17px;stroke-linecap:butt;"/>
        </g>
    </g>
</svg>
