<?xml version="1.0" encoding="UTF-8" standalone="no"?>
<!DOCTYPE svg PUBLIC "-//W3C//DTD SVG 1.1//EN" "http://www.w3.org/Graphics/SVG/1.1/DTD/svg11.dtd">
<svg width="100%" height="100%" viewBox="0 0 123 245" version="1.1" xmlns="http://www.w3.org/2000/svg" xmlns:xlink="http://www.w3.org/1999/xlink" xml:space="preserve" xmlns:serif="http://www.serif.com/" style="fill-rule:evenodd;clip-rule:evenodd;stroke-linecap:square;stroke-linejoin:round;stroke-miterlimit:10;">
    <g transform="matrix(0.122026,0,0,0.157474,6.21844,58.0775)">
        <clipPath id="_clip1">
            <rect x="446.394" y="214.045" width="590.246" height="343.01"/>
        </clipPath>
        <g clip-path="url(#_clip1)">
            <path d="M450.237,380.978C504.802,382.138 496.828,367.228 515.945,377.191C538.666,389.032 562.455,459.825 581.032,411.112C582.273,407.858 583.036,404.433 583.744,401.023C585.1,394.493 587.717,381.689 589.168,371.933C591.88,353.701 597.304,311.578 600.016,291.633C601.801,278.506 603.632,262.618 605.44,252.26C606.782,244.572 609.508,233.486 610.864,229.484C611.183,228.543 612.672,228.07 613.576,228.247C614.48,228.424 615.862,229.439 616.288,230.545C617.192,232.893 618.261,238.37 619,242.334C619.904,247.184 620.994,253.85 621.712,259.647C622.616,266.943 623.674,277.274 624.424,286.109C625.78,302.076 628.153,332.329 629.848,355.452C632.108,386.279 636.175,446.702 637.983,471.072C638.741,481.283 639.791,492.728 640.695,501.67C641.473,509.368 642.503,518.874 643.407,524.724C644.035,528.791 645.215,534.165 646.119,536.767C646.609,538.179 647.927,541.347 648.831,540.337C649.735,539.327 650.894,533.978 651.543,530.706C652.447,526.146 653.647,518.924 654.255,512.977C655.611,499.722 658.027,471.791 659.679,451.178C661.487,428.616 663.747,395.419 665.103,377.607C665.948,366.503 666.911,353.846 667.815,344.308C668.572,336.316 669.623,327.433 670.527,320.379C671.315,314.23 672.335,306.077 673.239,301.981C673.724,299.784 675.047,296.184 675.951,295.8C676.855,295.416 678.134,298.191 678.663,299.677C679.567,302.214 680.837,307.17 681.375,311.02C682.731,320.727 685.03,342.281 686.799,357.918C688.607,373.898 690.867,395.541 692.223,406.903C692.989,413.317 694.031,421.022 694.935,426.092C695.611,429.883 696.743,435.114 697.647,437.32C698.074,438.361 699.455,439.46 700.359,439.328C701.263,439.196 702.604,437.742 703.071,436.53C703.975,434.185 705.106,429.064 705.782,425.259C708.042,412.547 714.37,372.787 716.63,360.258C717.253,356.804 718.438,352.828 719.342,350.085C720.056,347.918 721.15,344.648 722.054,343.801C722.775,343.125 724.12,344.253 724.766,345.001C725.67,346.047 726.837,348.27 727.478,350.079C729.738,356.456 736.066,377.059 738.326,383.264C738.882,384.79 740.134,386.491 741.038,387.31C741.741,387.947 742.846,388.234 743.75,388.179C744.654,388.124 745.792,387.706 746.462,386.979C748.27,385.016 752.338,378.801 754.598,376.401C756.114,374.791 758.665,372.578 760.022,372.578C764.823,372.578 765.481,381.852 773.522,381.852C781.075,381.852 782.3,374.137 789.853,374.137C790.757,374.137 791.685,374.252 792.565,374.49C793.469,374.734 794.502,375.006 795.277,375.602C796.633,376.644 798.894,379.028 800.701,380.742C802.509,382.457 804.769,384.835 806.125,385.891C806.904,386.497 807.933,386.776 808.837,387.078C809.717,387.372 810.645,387.824 811.549,387.704C812.453,387.585 813.415,386.91 814.261,386.36C815.165,385.774 816.163,385.015 816.973,384.186C818.329,382.798 820.589,379.88 822.397,378.031C824.106,376.284 826.465,374.036 827.821,373.096C828.589,372.564 829.629,372.457 830.533,372.39" style="fill:none;fill-rule:nonzero;stroke:rgb(51,51,51);stroke-width:7.1px;"/>
        </g>
    </g>
    <g transform="matrix(0.0547025,0,0,0.0547025,21.6601,63.094)">
        <g>
            <g transform="matrix(2.43782,0,0,2.43782,-651.467,44.1088)">
                <rect x="859.552" y="50.121" width="27.654" height="690.259" style="fill:rgb(208,166,166);stroke:black;stroke-width:4.5px;stroke-linecap:butt;"/>
            </g>
            <g transform="matrix(1.57496,0,0,2.43782,114.218,44.1088)">
                <rect x="887.371" y="50.121" width="179.992" height="690.259" style="fill:rgb(246,236,212);stroke:black;stroke-width:5.34px;stroke-linecap:butt;"/>
            </g>
            <g transform="matrix(0.819623,0,0,0.222128,716.795,155.162)">
                <rect x="859.552" y="50.121" width="27.654" height="690.259" style="fill:rgb(219,157,57);stroke:black;stroke-width:7.31px;stroke-linecap:butt;"/>
            </g>
            <g transform="matrix(0.819623,0,0,0.222128,716.795,461.043)">
                <rect x="859.552" y="50.121" width="27.654" height="690.259" style="fill:rgb(219,157,57);stroke:black;stroke-width:7.31px;stroke-linecap:butt;"/>
            </g>
            <g transform="matrix(0.819623,0,0,0.222128,716.795,766.924)">
                <rect x="859.552" y="50.121" width="27.654" height="690.259" style="fill:rgb(219,157,57);stroke:black;stroke-width:7.31px;stroke-linecap:butt;"/>
            </g>
            <g transform="matrix(0.819623,0,0,0.222128,716.795,1072.81)">
                <rect x="859.552" y="50.121" width="27.654" height="690.259" style="fill:rgb(219,157,57);stroke:black;stroke-width:7.31px;stroke-linecap:butt;"/>
            </g>
            <g transform="matrix(0.819623,0,0,0.222128,716.795,1378.69)">
                <rect x="859.552" y="50.121" width="27.654" height="690.259" style="fill:rgb(219,157,57);stroke:black;stroke-width:7.31px;stroke-linecap:butt;"/>
            </g>
            <g transform="matrix(0.819623,0,0,0.222128,716.795,1684.57)">
                <rect x="859.552" y="50.121" width="27.654" height="690.259" style="fill:rgb(219,157,57);stroke:black;stroke-width:7.31px;stroke-linecap:butt;"/>
            </g>
        </g>
    </g>
    <g transform="matrix(0.382288,0,0,0.66432,-332.466,-529.761)">
        <g transform="matrix(0.143997,0,0,0.143997,915.43,834.037)">
            <path d="M1099.82,579.695L283.916,579.695" style="fill:none;"/>
        </g>
        <g transform="matrix(0.456392,0,0,0.216759,838.024,762.541)">
            <path d="M534.7,761.275L534.7,744.609" style="fill:none;stroke:black;stroke-width:4.17px;stroke-linecap:butt;stroke-linejoin:miter;"/>
            <path d="M226.955,761.275L226.955,744.609" style="fill:none;stroke:black;stroke-width:4.17px;stroke-linecap:butt;stroke-linejoin:miter;"/>
            <path d="M534.7,752.942L226.955,752.942" style="fill:none;stroke:black;stroke-width:4.17px;stroke-miterlimit:1.5;"/>
        </g>
    </g>
    <g transform="matrix(0.0945252,0,-0.0166673,0.0945252,51.779,81.2658)">
        <g>
            <text x="0px" y="0px" style="font-family:'FiraMath-Regular', 'Fira Math';font-size:126.948px;">τ</text>
        </g>
    </g>
    <g transform="matrix(0.656438,0,0,0.656438,-488.21,-242.066)">
        <g transform="matrix(0.143997,0,0,0.143997,751.659,582.82)">
            <text x="0px" y="0px" style="font-family:'FiraMath-Book', 'Fira Math';font-size:113.714px;">Probe</text>
        </g>
        <g transform="matrix(0.143997,0,0,0.143997,755.288,602.745)">
            <text x="0px" y="0px" style="font-family:'FiraMath-Book', 'Fira Math';font-size:113.714px;">(THz)</text>
        </g>
    </g>
    <g transform="matrix(0.656438,0,0,0.656438,-172.273,-242.066)">
        <g transform="matrix(0.143997,0,0,0.143997,339.918,582.82)">
            <text x="0px" y="0px" style="font-family:'FiraMath-Book', 'Fira Math';font-size:113.714px;">Pump</text>
        </g>
        <g transform="matrix(0.143997,0,0,0.143997,343.245,602.745)">
            <text x="0px" y="0px" style="font-family:'FiraMath-Book', 'Fira Math';font-size:113.714px;">(THz)</text>
        </g>
    </g>
    <g transform="matrix(0.143997,6.24618e-18,-6.79443e-17,0.143997,-20.2114,-26.9335)">
        <path d="M289.99,928.631C293.176,927.975 296.133,926.553 298.323,924.363L285.823,949.363L273.323,924.363C275.513,926.553 278.47,927.976 281.657,928.631L281.657,886.95L289.99,886.95L289.99,928.631Z"/>
    </g>
    <g transform="matrix(0.143997,6.24618e-18,-6.79443e-17,0.143997,-16.0355,-26.9335)">
        <path d="M289.99,928.631C293.176,927.975 296.133,926.553 298.323,924.363L285.823,949.363L273.323,924.363C275.513,926.553 278.47,927.976 281.657,928.631L281.657,886.95L289.99,886.95L289.99,928.631Z" style="fill:rgb(100,100,100);"/>
    </g>
    <g transform="matrix(0.143997,6.24618e-18,-6.79443e-17,0.143997,-11.8596,-26.9335)">
        <path d="M289.99,928.631C293.176,927.975 296.133,926.553 298.323,924.363L285.823,949.363L273.323,924.363C275.513,926.553 278.47,927.976 281.657,928.631L281.657,886.95L289.99,886.95L289.99,928.631Z" style="fill:rgb(175,175,175);"/>
    </g>
    <g transform="matrix(0.143997,6.24618e-18,-6.79443e-17,0.143997,-7.68369,-26.9335)">
        <path d="M289.99,928.631C293.176,927.975 296.133,926.553 298.323,924.363L285.823,949.363L273.323,924.363C275.513,926.553 278.47,927.976 281.657,928.631L281.657,886.95L289.99,886.95L289.99,928.631Z" style="fill:rgb(214,214,214);"/>
    </g>
    <g transform="matrix(0.143997,6.24618e-18,-6.79443e-17,0.143997,-3.50777,-26.9335)">
        <path d="M289.99,928.631C293.176,927.975 296.133,926.553 298.323,924.363L285.823,949.363L273.323,924.363C275.513,926.553 278.47,927.976 281.657,928.631L281.657,886.95L289.99,886.95L289.99,928.631Z" style="fill:rgb(242,242,242);"/>
    </g>
    <g transform="matrix(0.143997,0,-0.0253906,0.143997,24.51,98.9939)">
        <g>
            <text x="0px" y="0px" style="font-family:'FiraMath-Book', 'Fira Math';font-size:83.333px;">t</text>
        </g>
    </g>
    <g transform="matrix(0.139087,0,0,0.0346604,-64.5513,104.893)">
        <path d="M612.493,242.855C605.118,271.349 605.046,288.806 593.434,371.145C586.26,422.014 579.956,433.282 573.72,439.12C559.719,452.228 543.716,422.893 529.859,405.312C512.833,383.709 499.908,385.094 463.094,393.191L462.643,364.397C523.201,349.475 523.098,368.243 549.019,400.545C554.276,407.095 569.431,427.106 579.361,398.213C586.81,376.539 598.106,262.178 604.731,233.011C607.153,222.349 609.752,208.763 616.351,215.377C629.608,228.664 637.076,444.502 645.904,513.106C646.724,519.477 647.523,522.795 648.073,524.507C650.257,514.933 650.871,510.041 653.464,480.062C662.468,375.942 667.485,246.086 681.236,289.379C684.592,299.946 685.434,310.458 690.079,352.014C695.338,399.063 696.007,410.457 699.435,424.666C699.516,424.653 699.611,424.677 699.725,424.741C700.157,424.983 700.309,424.971 700.737,424.596C700.917,424.438 701.135,423.536 701.278,423.871C707.25,398.726 713.003,339.741 720.835,330.18C728.414,320.927 737.725,371.194 742.084,373.407C748.183,376.504 755.897,349.903 764.677,360.889C779.802,379.817 782.251,351.633 795.915,361.401C803.34,366.709 808.101,379.452 817.156,369.021C831.963,351.967 832.258,357.101 846.513,368.878C849.86,371.644 855.411,368.17 856.175,367.691C865.527,361.837 867.007,359.526 876.358,364.228C887.331,369.745 888.444,362.72 915.521,365.952L915.452,394.643C900.508,393.893 900.534,392.929 885.61,395.551C878.382,396.821 873.374,386.103 861.852,393.286C849.553,400.953 849.415,401.164 837.495,390.315C822.271,376.457 818.869,412.88 804.163,398.95C792.529,387.929 792.011,384.265 780.704,393.571C769.107,403.115 762.674,385.272 759.263,387.265C751.699,391.684 745.091,411.94 737.346,397.521C734.122,391.519 726.519,360.996 723.168,358.308C723.044,358.208 722.863,358.442 722.741,358.371C718.239,370.461 717.801,380.086 709.775,427.452C709.286,430.338 705.167,461.921 697.069,451.892C688.333,441.072 681.506,322.107 676.329,310.862C676.145,311.51 675.83,311.964 675.545,313.671C667.578,361.439 662.488,500.654 654.039,541.252C654.011,541.389 649.693,567.622 643.464,546.751C634.805,517.734 630.198,394.332 620.746,287.618C618.198,258.849 615.613,248.023 614.58,243.705C614.446,243.607 614.273,243.085 614.134,242.996C613.537,242.613 613.05,242.714 612.493,242.855ZM698.707,429.912L698.552,430.863C698.614,430.542 698.664,430.225 698.707,429.912ZM701.726,427.892C701.777,428.413 701.843,428.892 701.941,429.275L701.726,427.892ZM722.507,351.572C722.496,351.384 722.482,351.199 722.464,351.017L722.507,351.572ZM615.339,236.873L615.411,236.46C615.385,236.593 615.361,236.731 615.339,236.873Z" style="fill:rgb(51,51,51);"/>
    </g>
</svg>
