<?xml version="1.0" encoding="UTF-8" standalone="no"?>
<!DOCTYPE svg PUBLIC "-//W3C//DTD SVG 1.1//EN" "http://www.w3.org/Graphics/SVG/1.1/DTD/svg11.dtd">
<svg width="100%" height="100%" viewBox="0 0 1020 2040" version="1.1" xmlns="http://www.w3.org/2000/svg" xmlns:xlink="http://www.w3.org/1999/xlink" xml:space="preserve" xmlns:serif="http://www.serif.com/" style="fill-rule:evenodd;clip-rule:evenodd;stroke-linejoin:round;stroke-miterlimit:10;">
    <g transform="matrix(1.29673,0,0,0.631252,-592.909,777.365)">
        <path d="M613.02,234.816C612.326,237.156 611.028,241.869 609.442,249.444C607.308,259.638 606.679,266.786 602.574,297.377C597.896,332.246 593.47,367.221 591.101,380.889C590.023,387.107 586.617,405.108 585.032,410.686C584.867,411.268 580.133,428.224 571.407,433.192C552.452,443.985 532.679,391.068 513.89,382.99C500.048,377.04 472.617,382.986 470.224,383.589C468.035,384.14 465.847,384.694 463.658,385.245L462.875,372.142C462.89,372.138 472.616,369.267 485.006,367.891C511.022,365 518.347,371.396 521.684,374.154C540.388,389.622 558.839,434.156 572.701,417.871C575.352,414.758 578.345,408.604 579.815,402.774C580.627,399.555 584.451,381.067 586.096,369.999C588.622,353.001 592.327,324.017 597.086,288.636C600.152,265.85 601.099,254.79 604.477,239.937C605.286,236.381 607.605,226.684 608.739,224.497C609.014,223.966 610.262,221.559 613.24,221.61C614.268,221.628 617.365,222.441 618.956,226.846C620.604,231.409 623.47,246.36 625.181,260.972C626.271,270.272 627.291,279.178 631.286,331.313C636.052,393.503 639.928,457.042 642.271,483.697C643.088,492.99 645.288,516.407 646.822,524.804C647.032,525.958 647.521,528.448 648.069,530.609C649.196,525.516 650.492,517.792 651.238,510.359C652.244,500.345 655.384,465.949 657.922,431.675C661.214,387.218 663.224,354.999 665.81,332.047C666.045,329.962 668.431,309.244 669.892,301.35C671.194,294.31 673.533,289.656 675.715,289.204C676.597,289.021 680.258,288.595 683.637,304.563C684.276,307.584 684.73,309.775 687.795,337.294C695.287,404.566 695.111,404.659 696.787,416.396C696.972,417.688 698.304,427.403 699.939,432.574C700.02,432.641 700.07,432.666 700.142,432.696C700.379,432.525 700.446,432.444 700.632,432.193C701.991,428.053 702.845,422.968 706.567,400.299C710.978,373.434 713.296,359.07 714.206,355.113C714.631,353.266 717.534,341.816 720.126,338.457C721.173,337.101 722.905,335.89 725.797,338.67C728.308,341.083 730.039,346.081 730.319,346.89C732.848,354.19 738.122,371.467 740.89,379.285C741.547,380.567 742.102,381.008 742.329,381.265C742.41,381.356 743.03,381.604 743.557,381.584C744.303,381.557 744.873,381.189 744.984,381.118C748.487,377.008 752.173,370.148 757.361,366.929C760.122,365.216 762.696,365.577 766.015,369.952C767.772,372.269 769.808,375.993 774.921,375.139C780.363,374.23 782.169,367.35 790.243,367.543C791.906,367.582 794.719,368.184 796.277,369.325C798.599,371.026 806.299,379.293 807.657,379.95C807.674,379.959 810.784,381.192 811.343,381.117C811.346,381.116 813.755,380.336 816.269,377.483C816.976,376.68 821.256,371.306 825.777,367.616C826.351,367.148 827.821,365.6 831.654,365.784C835.309,365.959 837.741,368.51 841.096,371.585C845.628,375.74 846.096,376.17 847.834,377.564C849.233,377.818 852.894,377.339 854.439,376.449C859.292,373.653 861.897,371.06 866.732,369.765C868.069,369.407 870.121,369.083 874.596,371.037C876.271,371.768 876.24,372.044 877.93,372.59C880.888,373.545 884.74,374.635 885.183,374.559C886.605,374.315 886.597,373.802 889.07,374.16C891.574,374.522 894.151,372.765 899.129,372.773C904.569,372.782 906.456,373.03 914.077,373.073C936.69,373.199 1017.05,373.452 1017.81,373.479C1018.88,373.517 1019.96,373.566 1021.04,373.604L1020.92,386.756C1011.97,386.553 921.685,386.392 909.546,386.238C908.789,386.229 908.791,386.096 900.093,385.982C895.154,385.916 894.508,386.823 890.69,387.374C888.877,387.635 888.146,387.026 887.236,387.294C885.379,387.841 885.358,388.108 880.854,386.824C874.667,385.061 874.701,384.674 873.504,384.064C872.991,383.802 869.888,382.464 868.209,382.724C865.885,383.085 863.596,384.497 863.205,384.738C857.458,388.284 856.262,389.582 853.262,390.243C851.963,390.529 850.717,390.874 848.228,390.826C846.429,390.792 845.869,390.392 840.881,385.843C835.35,380.8 834.344,379.611 832.379,379.112C831.725,378.945 829.586,378.796 828.649,379.494C828.122,379.886 825.123,382.359 822.186,385.752C819.634,388.7 818.038,391.1 813.968,393.451C811.666,394.78 810.719,394.475 807.245,393.236C805.372,392.567 805.345,392.6 798.627,386.035C794.556,382.056 794.419,381.692 792.81,381.218C783.688,378.531 783.011,388.007 774.118,388.438C770.011,388.637 767.315,386.765 765.28,384.538C762.566,381.568 761.967,379.333 760.039,379.179C758.997,379.483 756.79,381.278 755.087,383.419C751.642,387.751 748.779,392.517 746.868,393.748C745.209,394.817 742.009,395.764 739.223,392.842C736.415,389.896 735.45,386.416 734.661,384.073C731.461,374.568 725.593,355.428 724.486,353.005C723.914,351.752 723.445,351.059 723.105,350.673C722.034,353.352 720.288,358.996 719.641,362.564C717.193,376.06 709.878,422.471 708.162,430.853C706.06,441.126 704.729,442.634 703.632,443.893C702.692,444.971 700.235,447.625 696.942,444.278C696.036,443.357 694.616,442.159 692.379,430.816C689.721,417.343 687.94,397.477 683.33,356.404C681.201,337.431 678.825,315.152 677.879,310.485C677.266,307.466 676.726,305.515 676.296,304.245C675.869,305.909 675.433,308.533 674.758,313.456C671.995,333.594 670.73,348.089 670.464,351.136C667.215,388.372 664.795,434.113 658.768,500.019C657.514,513.732 656.923,520.376 654.894,531.242C652.756,542.7 650.999,547.536 648.148,547.112C644.201,546.525 641.925,534.947 641.442,532.678C640.756,529.458 639.246,522.367 636.303,490.022C634.347,468.532 632.779,442.832 628.103,376.427C625.723,342.627 621.914,292.899 620.154,275.366C618.782,261.691 617.883,255.492 616.675,248.47C615.142,239.561 614.35,236.525 613.952,235.211C613.566,234.878 613.292,234.786 613.02,234.816Z"/>
    </g>
    <g transform="matrix(1.23419,0,0,1.78683,-551.992,-637.843)">
        <path d="M882.176,815.81C890.405,814.356 883.825,926.133 900.105,926.133L864.248,926.133C880.49,926.133 874.185,817.222 882.176,815.81Z"/>
    </g>
    <g transform="matrix(0.379886,0,0,0.379886,145.28,637.203)">
        <g transform="matrix(2.43782,0,0,2.43782,-651.467,44.1088)">
            <rect x="859.552" y="50.121" width="27.654" height="690.259" style="fill:rgb(208,166,166);stroke:black;stroke-width:4.5px;"/>
        </g>
        <g transform="matrix(1.57496,0,0,2.43782,114.218,44.1088)">
            <rect x="887.371" y="50.121" width="179.992" height="690.259" style="fill:rgb(246,236,212);stroke:black;stroke-width:5.34px;"/>
        </g>
        <g transform="matrix(0.819623,0,0,0.222128,716.795,155.162)">
            <rect x="859.552" y="50.121" width="27.654" height="690.259" style="fill:rgb(219,157,57);stroke:black;stroke-width:7.31px;"/>
        </g>
        <g transform="matrix(0.819623,0,0,0.222128,716.795,461.043)">
            <rect x="859.552" y="50.121" width="27.654" height="690.259" style="fill:rgb(219,157,57);stroke:black;stroke-width:7.31px;"/>
        </g>
        <g transform="matrix(0.819623,0,0,0.222128,716.795,766.924)">
            <rect x="859.552" y="50.121" width="27.654" height="690.259" style="fill:rgb(219,157,57);stroke:black;stroke-width:7.31px;"/>
        </g>
        <g transform="matrix(0.819623,0,0,0.222128,716.795,1072.81)">
            <rect x="859.552" y="50.121" width="27.654" height="690.259" style="fill:rgb(219,157,57);stroke:black;stroke-width:7.31px;"/>
        </g>
        <g transform="matrix(0.819623,0,0,0.222128,716.795,1378.69)">
            <rect x="859.552" y="50.121" width="27.654" height="690.259" style="fill:rgb(219,157,57);stroke:black;stroke-width:7.31px;"/>
        </g>
        <g transform="matrix(0.819623,0,0,0.222128,716.795,1684.57)">
            <rect x="859.552" y="50.121" width="27.654" height="690.259" style="fill:rgb(219,157,57);stroke:black;stroke-width:7.31px;"/>
        </g>
    </g>
    <g transform="matrix(0.382288,0,0,0.66432,116.334,367.839)">
        <path d="M1099.82,579.695L283.916,579.695" style="fill:none;"/>
        <g transform="matrix(2.61583,-0,-0,1.5053,-304.31,-553.707)">
            <path d="M534.7,761.275L534.7,744.609" style="fill:none;stroke:black;stroke-width:4.17px;stroke-linejoin:miter;"/>
            <path d="M226.955,761.275L226.955,744.609" style="fill:none;stroke:black;stroke-width:4.17px;stroke-linejoin:miter;"/>
            <path d="M534.7,752.942L226.955,752.942" style="fill:none;stroke:black;stroke-width:4.17px;stroke-linecap:square;stroke-miterlimit:1.5;"/>
        </g>
    </g>
    <g transform="matrix(0.656438,0,0,0.656438,139.931,-283.691)">
        <g transform="matrix(1,0,-0.176327,1,271.054,0)">
            <g transform="matrix(126.948,0,0,126.948,382.554,1537.22)">
            </g>
            <text x="324.285px" y="1537.22px" style="font-family:'FiraMath-Regular', 'Fira Math';font-size:126.948px;">τ</text>
        </g>
    </g>
    <g transform="matrix(0.656438,0,0,0.656438,-39.4104,655.534)">
        <text x="227.766px" y="873.162px" style="font-family:'FiraMath-Book', 'Fira Math';font-size:126.948px;">Probe</text>
        <g transform="matrix(126.948,0,0,126.948,540.756,1011.53)">
        </g>
        <text x="252.965px" y="1011.53px" style="font-family:'FiraMath-Book', 'Fira Math';font-size:126.948px;">(THz)</text>
    </g>
    <g transform="matrix(0.656438,0,0,0.656438,276.527,655.534)">
        <text x="229.467px" y="873.162px" style="font-family:'FiraMath-Book', 'Fira Math';font-size:126.948px;">Pump</text>
        <g transform="matrix(126.948,0,0,126.948,504.309,1011.53)">
        </g>
        <text x="282.912px" y="1011.53px" style="font-family:'FiraMath-Book', 'Fira Math';font-size:126.948px;">(eV)</text>
    </g>
    <g transform="matrix(1,0,0,0.781413,-105.962,214.835)">
        <g transform="matrix(1,-0,-0,1.27973,105.962,-274.932)">
            <path d="M298.323,924.363L285.823,949.363L273.323,924.363C279.573,930.613 292.073,930.613 298.323,924.363Z"/>
            <rect x="281.657" y="886.95" width="8.333" height="46.58"/>
        </g>
    </g>
    <g transform="matrix(1,0,0,1,-116.484,44.5279)">
        <g transform="matrix(1,0,-0.176327,1,144.762,0)">
            <text x="385.616px" y="820.985px" style="font-family:'FiraMath-Book', 'Fira Math';font-size:83.333px;">t</text>
        </g>
        <g transform="matrix(48.5833,0,0,48.5833,442.379,848.735)">
        </g>
        <text x="415.366px" y="848.735px" style="font-family:'FiraMath-Book', 'Fira Math';font-size:48.583px;">0</text>
    </g>
</svg>
