<?xml version="1.0" encoding="utf-8" standalone="no"?>
<!DOCTYPE svg PUBLIC "-//W3C//DTD SVG 1.1//EN"
  "http://www.w3.org/Graphics/SVG/1.1/DTD/svg11.dtd">
<svg xmlns:xlink="http://www.w3.org/1999/xlink" width="253.19952pt" height="253.19952pt" viewBox="0 0 253.19952 253.19952" xmlns="http://www.w3.org/2000/svg" version="1.1">
 <metadata>
  <rdf:RDF xmlns:dc="http://purl.org/dc/elements/1.1/" xmlns:cc="http://creativecommons.org/ns#" xmlns:rdf="http://www.w3.org/1999/02/22-rdf-syntax-ns#">
   <cc:Work>
    <dc:type rdf:resource="http://purl.org/dc/dcmitype/StillImage"/>
    <dc:date>2024-07-06T12:10:42.549696</dc:date>
    <dc:format>image/svg+xml</dc:format>
    <dc:creator>
     <cc:Agent>
      <dc:title>Matplotlib v3.9.0, https://matplotlib.org/</dc:title>
     </cc:Agent>
    </dc:creator>
   </cc:Work>
  </rdf:RDF>
 </metadata>
 <defs>
  <style type="text/css">*{stroke-linejoin: round; stroke-linecap: butt}</style>
 </defs>
 <g id="figure_1">
  <g id="patch_1">
   <path d="M 0 253.19952 
L 253.19952 253.19952 
L 253.19952 0 
L 0 0 
z
" style="fill: #ffffff"/>
  </g>
  <g id="axes_1">
   <g id="patch_2">
    <path d="M 38.9 218.49952 
L 245.99952 218.49952 
L 245.99952 17.8 
L 38.9 17.8 
z
" style="fill: #ffffff"/>
   </g>
   <g id="PolyCollection_1"/>
   <g id="PolyCollection_2"/>
   <g id="PolyCollection_3"/>
   <g id="matplotlib.axis_1">
    <g id="xtick_1">
     <g id="line2d_1">
      <defs>
       <path id="m04c7561c4e" d="M 0 0 
L 0 -4 
" style="stroke: #000000; stroke-width: 0.6"/>
      </defs>
      <g>
       <use xlink:href="#m04c7561c4e" x="45.849083" y="218.49952" style="stroke: #000000; stroke-width: 0.6"/>
      </g>
     </g>
     <g id="line2d_2">
      <defs>
       <path id="m88ed0f3b5c" d="M 0 0 
L 0 4 
" style="stroke: #000000; stroke-width: 0.6"/>
      </defs>
      <g>
       <use xlink:href="#m88ed0f3b5c" x="45.849083" y="17.8" style="stroke: #000000; stroke-width: 0.6"/>
      </g>
     </g>
     <g id="text_1">
      <!-- $\mathdefault{−5}$ -->
      <g transform="translate(41.349083 229.59952) scale(0.1 -0.1)">
       <defs>
        <path id="NotoSans-Regular-2212" d="M 256 1466 
L 256 1965 
L 1805 1965 
L 1805 1466 
L 256 1466 
z
" transform="scale(0.015625)"/>
        <path id="NotoSans-Regular-35" d="M 1760 2803 
Q 2227 2803 2572 2643 
Q 2918 2483 3107 2185 
Q 3296 1888 3296 1459 
Q 3296 986 3091 643 
Q 2886 301 2505 118 
Q 2125 -64 1587 -64 
Q 1235 -64 924 0 
Q 614 64 403 186 
L 403 717 
Q 634 576 963 496 
Q 1293 416 1594 416 
Q 1933 416 2185 521 
Q 2438 627 2579 848 
Q 2720 1069 2720 1402 
Q 2720 1850 2445 2090 
Q 2170 2330 1574 2330 
Q 1395 2330 1164 2298 
Q 934 2266 794 2234 
L 512 2413 
L 685 4570 
L 2976 4570 
L 2976 4058 
L 1165 4058 
L 1056 2733 
Q 1165 2752 1350 2777 
Q 1536 2803 1760 2803 
z
" transform="scale(0.015625)"/>
       </defs>
       <use xlink:href="#NotoSans-Regular-2212" transform="translate(0 0.59375)"/>
       <use xlink:href="#NotoSans-Regular-35" transform="translate(32.199997 0.59375)"/>
      </g>
     </g>
    </g>
    <g id="xtick_2">
     <g id="line2d_3">
      <g>
       <use xlink:href="#m04c7561c4e" x="83.178854" y="218.49952" style="stroke: #000000; stroke-width: 0.6"/>
      </g>
     </g>
     <g id="line2d_4">
      <g>
       <use xlink:href="#m88ed0f3b5c" x="83.178854" y="17.8" style="stroke: #000000; stroke-width: 0.6"/>
      </g>
     </g>
     <g id="text_2">
      <!-- $\mathdefault{0}$ -->
      <g transform="translate(80.278854 229.59952) scale(0.1 -0.1)">
       <defs>
        <path id="NotoSans-Regular-30" d="M 3347 2291 
Q 3347 1734 3264 1299 
Q 3181 864 2998 560 
Q 2816 256 2525 96 
Q 2234 -64 1824 -64 
Q 1312 -64 976 217 
Q 640 499 477 1027 
Q 314 1555 314 2291 
Q 314 3034 464 3558 
Q 614 4083 947 4361 
Q 1280 4640 1824 4640 
Q 2336 4640 2675 4361 
Q 3014 4083 3180 3558 
Q 3347 3034 3347 2291 
z
M 877 2291 
Q 877 1664 969 1248 
Q 1062 832 1270 624 
Q 1478 416 1824 416 
Q 2170 416 2378 621 
Q 2586 826 2682 1245 
Q 2778 1664 2778 2291 
Q 2778 2918 2682 3331 
Q 2586 3744 2378 3952 
Q 2170 4160 1824 4160 
Q 1478 4160 1270 3952 
Q 1062 3744 969 3331 
Q 877 2918 877 2291 
z
" transform="scale(0.015625)"/>
       </defs>
       <use xlink:href="#NotoSans-Regular-30" transform="translate(0 0.5)"/>
      </g>
     </g>
    </g>
    <g id="xtick_3">
     <g id="line2d_5">
      <g>
       <use xlink:href="#m04c7561c4e" x="120.508624" y="218.49952" style="stroke: #000000; stroke-width: 0.6"/>
      </g>
     </g>
     <g id="line2d_6">
      <g>
       <use xlink:href="#m88ed0f3b5c" x="120.508624" y="17.8" style="stroke: #000000; stroke-width: 0.6"/>
      </g>
     </g>
     <g id="text_3">
      <!-- $\mathdefault{5}$ -->
      <g transform="translate(117.608624 229.59952) scale(0.1 -0.1)">
       <use xlink:href="#NotoSans-Regular-35" transform="translate(0 0.59375)"/>
      </g>
     </g>
    </g>
    <g id="xtick_4">
     <g id="line2d_7">
      <g>
       <use xlink:href="#m04c7561c4e" x="157.838394" y="218.49952" style="stroke: #000000; stroke-width: 0.6"/>
      </g>
     </g>
     <g id="line2d_8">
      <g>
       <use xlink:href="#m88ed0f3b5c" x="157.838394" y="17.8" style="stroke: #000000; stroke-width: 0.6"/>
      </g>
     </g>
     <g id="text_4">
      <!-- $\mathdefault{10}$ -->
      <g transform="translate(152.088394 229.59952) scale(0.1 -0.1)">
       <defs>
        <path id="NotoSans-Regular-31" d="M 2272 0 
L 1722 0 
L 1722 3194 
Q 1722 3379 1725 3507 
Q 1728 3635 1734 3747 
Q 1741 3859 1747 3981 
Q 1645 3878 1561 3808 
Q 1478 3738 1350 3629 
L 864 3232 
L 570 3610 
L 1805 4570 
L 2272 4570 
L 2272 0 
z
" transform="scale(0.015625)"/>
       </defs>
       <use xlink:href="#NotoSans-Regular-31" transform="translate(0 0.5)"/>
       <use xlink:href="#NotoSans-Regular-30" transform="translate(57.199997 0.5)"/>
      </g>
     </g>
    </g>
    <g id="xtick_5">
     <g id="line2d_9">
      <g>
       <use xlink:href="#m04c7561c4e" x="195.168165" y="218.49952" style="stroke: #000000; stroke-width: 0.6"/>
      </g>
     </g>
     <g id="line2d_10">
      <g>
       <use xlink:href="#m88ed0f3b5c" x="195.168165" y="17.8" style="stroke: #000000; stroke-width: 0.6"/>
      </g>
     </g>
     <g id="text_5">
      <!-- $\mathdefault{15}$ -->
      <g transform="translate(189.418165 229.59952) scale(0.1 -0.1)">
       <use xlink:href="#NotoSans-Regular-31" transform="translate(0 0.59375)"/>
       <use xlink:href="#NotoSans-Regular-35" transform="translate(57.199997 0.59375)"/>
      </g>
     </g>
    </g>
    <g id="xtick_6">
     <g id="line2d_11">
      <g>
       <use xlink:href="#m04c7561c4e" x="232.497935" y="218.49952" style="stroke: #000000; stroke-width: 0.6"/>
      </g>
     </g>
     <g id="line2d_12">
      <g>
       <use xlink:href="#m88ed0f3b5c" x="232.497935" y="17.8" style="stroke: #000000; stroke-width: 0.6"/>
      </g>
     </g>
     <g id="text_6">
      <!-- $\mathdefault{20}$ -->
      <g transform="translate(226.747935 229.59952) scale(0.1 -0.1)">
       <defs>
        <path id="NotoSans-Regular-32" d="M 3328 0 
L 307 0 
L 307 467 
L 1504 1677 
Q 1850 2022 2086 2291 
Q 2323 2560 2444 2819 
Q 2566 3078 2566 3386 
Q 2566 3763 2342 3958 
Q 2118 4154 1760 4154 
Q 1427 4154 1174 4038 
Q 922 3923 659 3718 
L 358 4096 
Q 538 4250 752 4371 
Q 966 4493 1219 4563 
Q 1472 4634 1760 4634 
Q 2189 4634 2496 4486 
Q 2803 4339 2972 4067 
Q 3142 3795 3142 3418 
Q 3142 3059 2995 2745 
Q 2848 2432 2585 2128 
Q 2323 1824 1971 1478 
L 1018 538 
L 1018 512 
L 3328 512 
L 3328 0 
z
" transform="scale(0.015625)"/>
       </defs>
       <use xlink:href="#NotoSans-Regular-32" transform="translate(0 0.5)"/>
       <use xlink:href="#NotoSans-Regular-30" transform="translate(57.199997 0.5)"/>
      </g>
     </g>
    </g>
    <g id="text_7">
     <!-- time -->
     <g transform="translate(131.859916 243.59952) scale(0.1 -0.1)">
      <defs>
       <path id="NotoSans-Regular-74" d="M 1690 397 
Q 1818 397 1952 419 
Q 2086 442 2170 467 
L 2170 38 
Q 2080 -6 1913 -35 
Q 1747 -64 1594 -64 
Q 1325 -64 1097 29 
Q 870 122 729 352 
Q 589 582 589 998 
L 589 2995 
L 102 2995 
L 102 3264 
L 595 3488 
L 819 4218 
L 1152 4218 
L 1152 3430 
L 2144 3430 
L 2144 2995 
L 1152 2995 
L 1152 1011 
Q 1152 698 1302 547 
Q 1453 397 1690 397 
z
" transform="scale(0.015625)"/>
       <path id="NotoSans-Regular-69" d="M 1107 3430 
L 1107 0 
L 544 0 
L 544 3430 
L 1107 3430 
z
M 832 4717 
Q 960 4717 1059 4630 
Q 1158 4544 1158 4358 
Q 1158 4179 1059 4089 
Q 960 4000 832 4000 
Q 691 4000 595 4089 
Q 499 4179 499 4358 
Q 499 4544 595 4630 
Q 691 4717 832 4717 
z
" transform="scale(0.015625)"/>
       <path id="NotoSans-Regular-6d" d="M 4307 3494 
Q 4890 3494 5178 3196 
Q 5466 2899 5466 2234 
L 5466 0 
L 4909 0 
L 4909 2208 
Q 4909 2611 4739 2816 
Q 4570 3021 4211 3021 
Q 3712 3021 3497 2733 
Q 3283 2445 3283 1894 
L 3283 0 
L 2726 0 
L 2726 2208 
Q 2726 2477 2649 2659 
Q 2573 2842 2419 2931 
Q 2266 3021 2022 3021 
Q 1677 3021 1478 2877 
Q 1280 2733 1193 2457 
Q 1107 2182 1107 1779 
L 1107 0 
L 544 0 
L 544 3430 
L 998 3430 
L 1082 2963 
L 1114 2963 
Q 1222 3142 1379 3260 
Q 1536 3379 1728 3436 
Q 1920 3494 2125 3494 
Q 2522 3494 2787 3353 
Q 3053 3213 3174 2918 
L 3206 2918 
Q 3379 3213 3676 3353 
Q 3974 3494 4307 3494 
z
" transform="scale(0.015625)"/>
       <path id="NotoSans-Regular-65" d="M 1869 3494 
Q 2310 3494 2627 3302 
Q 2944 3110 3113 2761 
Q 3283 2413 3283 1946 
L 3283 1606 
L 934 1606 
Q 947 1024 1232 720 
Q 1517 416 2029 416 
Q 2355 416 2608 477 
Q 2861 538 3130 653 
L 3130 160 
Q 2867 45 2611 -9 
Q 2355 -64 2003 -64 
Q 1517 -64 1142 134 
Q 768 333 560 726 
Q 352 1120 352 1690 
Q 352 2253 541 2656 
Q 730 3059 1072 3276 
Q 1414 3494 1869 3494 
z
M 1862 3034 
Q 1459 3034 1225 2774 
Q 992 2515 947 2054 
L 2694 2054 
Q 2694 2349 2604 2566 
Q 2515 2784 2332 2909 
Q 2150 3034 1862 3034 
z
" transform="scale(0.015625)"/>
      </defs>
      <use xlink:href="#NotoSans-Regular-74"/>
      <use xlink:href="#NotoSans-Regular-69" x="36.099991"/>
      <use xlink:href="#NotoSans-Regular-6d" x="61.899979"/>
      <use xlink:href="#NotoSans-Regular-65" x="155.399963"/>
     </g>
    </g>
   </g>
   <g id="matplotlib.axis_2">
    <g id="ytick_1">
     <g id="line2d_13">
      <defs>
       <path id="m3b880a33ce" d="M 0 0 
L 4 0 
" style="stroke: #000000; stroke-width: 0.6"/>
      </defs>
      <g>
       <use xlink:href="#m3b880a33ce" x="38.9" y="214.853539" style="stroke: #000000; stroke-width: 0.6"/>
      </g>
     </g>
     <g id="line2d_14">
      <defs>
       <path id="m3973956b51" d="M 0 0 
L -4 0 
" style="stroke: #000000; stroke-width: 0.6"/>
      </defs>
      <g>
       <use xlink:href="#m3973956b51" x="245.99952" y="214.853539" style="stroke: #000000; stroke-width: 0.6"/>
      </g>
     </g>
     <g id="text_8">
      <!-- $\mathdefault{0.0}$ -->
      <g transform="translate(21.2 218.653539) scale(0.1 -0.1)">
       <defs>
        <path id="NotoSans-Regular-2e" d="M 461 346 
Q 461 582 576 678 
Q 691 774 851 774 
Q 1018 774 1136 678 
Q 1254 582 1254 346 
Q 1254 115 1136 12 
Q 1018 -90 851 -90 
Q 691 -90 576 12 
Q 461 115 461 346 
z
" transform="scale(0.015625)"/>
       </defs>
       <use xlink:href="#NotoSans-Regular-30" transform="translate(0 0.5)"/>
       <use xlink:href="#NotoSans-Regular-2e" transform="translate(57.199997 0.5)"/>
       <use xlink:href="#NotoSans-Regular-30" transform="translate(83.999985 0.5)"/>
      </g>
     </g>
    </g>
    <g id="ytick_2">
     <g id="line2d_15">
      <g>
       <use xlink:href="#m3b880a33ce" x="38.9" y="174.577238" style="stroke: #000000; stroke-width: 0.6"/>
      </g>
     </g>
     <g id="line2d_16">
      <g>
       <use xlink:href="#m3973956b51" x="245.99952" y="174.577238" style="stroke: #000000; stroke-width: 0.6"/>
      </g>
     </g>
     <g id="text_9">
      <!-- $\mathdefault{0.5}$ -->
      <g transform="translate(21.2 178.377238) scale(0.1 -0.1)">
       <use xlink:href="#NotoSans-Regular-30" transform="translate(0 0.5)"/>
       <use xlink:href="#NotoSans-Regular-2e" transform="translate(57.199997 0.5)"/>
       <use xlink:href="#NotoSans-Regular-35" transform="translate(83.999985 0.5)"/>
      </g>
     </g>
    </g>
    <g id="ytick_3">
     <g id="line2d_17">
      <g>
       <use xlink:href="#m3b880a33ce" x="38.9" y="134.300936" style="stroke: #000000; stroke-width: 0.6"/>
      </g>
     </g>
     <g id="line2d_18">
      <g>
       <use xlink:href="#m3973956b51" x="245.99952" y="134.300936" style="stroke: #000000; stroke-width: 0.6"/>
      </g>
     </g>
     <g id="text_10">
      <!-- $\mathdefault{1.0}$ -->
      <g transform="translate(21.2 138.100936) scale(0.1 -0.1)">
       <use xlink:href="#NotoSans-Regular-31" transform="translate(0 0.5)"/>
       <use xlink:href="#NotoSans-Regular-2e" transform="translate(57.199997 0.5)"/>
       <use xlink:href="#NotoSans-Regular-30" transform="translate(83.999985 0.5)"/>
      </g>
     </g>
    </g>
    <g id="ytick_4">
     <g id="line2d_19">
      <g>
       <use xlink:href="#m3b880a33ce" x="38.9" y="94.024635" style="stroke: #000000; stroke-width: 0.6"/>
      </g>
     </g>
     <g id="line2d_20">
      <g>
       <use xlink:href="#m3973956b51" x="245.99952" y="94.024635" style="stroke: #000000; stroke-width: 0.6"/>
      </g>
     </g>
     <g id="text_11">
      <!-- $\mathdefault{1.5}$ -->
      <g transform="translate(21.2 97.824635) scale(0.1 -0.1)">
       <use xlink:href="#NotoSans-Regular-31" transform="translate(0 0.59375)"/>
       <use xlink:href="#NotoSans-Regular-2e" transform="translate(57.199997 0.59375)"/>
       <use xlink:href="#NotoSans-Regular-35" transform="translate(83.999985 0.59375)"/>
      </g>
     </g>
    </g>
    <g id="ytick_5">
     <g id="line2d_21">
      <g>
       <use xlink:href="#m3b880a33ce" x="38.9" y="53.748333" style="stroke: #000000; stroke-width: 0.6"/>
      </g>
     </g>
     <g id="line2d_22">
      <g>
       <use xlink:href="#m3973956b51" x="245.99952" y="53.748333" style="stroke: #000000; stroke-width: 0.6"/>
      </g>
     </g>
     <g id="text_12">
      <!-- $\mathdefault{2.0}$ -->
      <g transform="translate(21.2 57.548333) scale(0.1 -0.1)">
       <use xlink:href="#NotoSans-Regular-32" transform="translate(0 0.5)"/>
       <use xlink:href="#NotoSans-Regular-2e" transform="translate(57.199997 0.5)"/>
       <use xlink:href="#NotoSans-Regular-30" transform="translate(83.999985 0.5)"/>
      </g>
     </g>
    </g>
    <g id="text_13">
     <!-- signal -->
     <g transform="translate(14.8 132.094291) rotate(-90) scale(0.1 -0.1)">
      <defs>
       <path id="NotoSans-Regular-73" d="M 2778 947 
Q 2778 614 2611 390 
Q 2445 166 2137 51 
Q 1830 -64 1408 -64 
Q 1050 -64 790 -6 
Q 531 51 333 154 
L 333 666 
Q 538 563 829 476 
Q 1120 390 1421 390 
Q 1850 390 2042 528 
Q 2234 666 2234 896 
Q 2234 1024 2163 1126 
Q 2093 1229 1910 1331 
Q 1728 1434 1389 1562 
Q 1056 1690 819 1818 
Q 582 1946 454 2125 
Q 326 2304 326 2586 
Q 326 3021 681 3257 
Q 1037 3494 1613 3494 
Q 1926 3494 2198 3433 
Q 2470 3373 2707 3264 
L 2515 2816 
Q 2298 2906 2061 2970 
Q 1824 3034 1574 3034 
Q 1229 3034 1046 2922 
Q 864 2810 864 2618 
Q 864 2477 947 2377 
Q 1030 2278 1225 2185 
Q 1421 2093 1747 1965 
Q 2074 1843 2304 1715 
Q 2534 1587 2656 1404 
Q 2778 1222 2778 947 
z
" transform="scale(0.015625)"/>
       <path id="NotoSans-Regular-67" d="M 1760 3494 
Q 2099 3494 2371 3366 
Q 2643 3238 2835 2976 
L 2867 2976 
L 2944 3430 
L 3392 3430 
L 3392 -58 
Q 3392 -544 3225 -873 
Q 3059 -1203 2720 -1369 
Q 2381 -1536 1856 -1536 
Q 1485 -1536 1174 -1481 
Q 864 -1427 621 -1318 
L 621 -800 
Q 864 -928 1190 -998 
Q 1517 -1069 1888 -1069 
Q 2330 -1069 2582 -809 
Q 2835 -550 2835 -102 
L 2835 32 
Q 2835 109 2841 253 
Q 2848 397 2854 454 
L 2829 454 
Q 2650 192 2384 64 
Q 2118 -64 1766 -64 
Q 1101 -64 726 403 
Q 352 870 352 1709 
Q 352 2528 726 3011 
Q 1101 3494 1760 3494 
z
M 1837 3021 
Q 1549 3021 1347 2867 
Q 1146 2714 1040 2419 
Q 934 2125 934 1702 
Q 934 1069 1168 733 
Q 1402 397 1850 397 
Q 2112 397 2297 464 
Q 2483 531 2604 675 
Q 2726 819 2784 1043 
Q 2842 1267 2842 1574 
L 2842 1709 
Q 2842 2176 2736 2464 
Q 2630 2752 2406 2886 
Q 2182 3021 1837 3021 
z
" transform="scale(0.015625)"/>
       <path id="NotoSans-Regular-6e" d="M 2195 3494 
Q 2810 3494 3123 3196 
Q 3437 2899 3437 2234 
L 3437 0 
L 2880 0 
L 2880 2195 
Q 2880 2611 2694 2816 
Q 2509 3021 2112 3021 
Q 1542 3021 1324 2701 
Q 1107 2381 1107 1779 
L 1107 0 
L 544 0 
L 544 3430 
L 998 3430 
L 1082 2963 
L 1114 2963 
Q 1229 3142 1398 3260 
Q 1568 3379 1773 3436 
Q 1978 3494 2195 3494 
z
" transform="scale(0.015625)"/>
       <path id="NotoSans-Regular-61" d="M 1843 3488 
Q 2470 3488 2771 3213 
Q 3072 2938 3072 2336 
L 3072 0 
L 2662 0 
L 2554 486 
L 2528 486 
Q 2381 301 2224 176 
Q 2067 51 1865 -6 
Q 1664 -64 1376 -64 
Q 1069 -64 822 45 
Q 576 154 435 381 
Q 294 608 294 954 
Q 294 1466 697 1744 
Q 1101 2022 1939 2048 
L 2522 2067 
L 2522 2272 
Q 2522 2701 2336 2867 
Q 2150 3034 1811 3034 
Q 1542 3034 1299 2954 
Q 1056 2874 845 2771 
L 672 3194 
Q 896 3315 1203 3401 
Q 1510 3488 1843 3488 
z
M 2010 1658 
Q 1370 1632 1123 1453 
Q 877 1274 877 947 
Q 877 659 1053 524 
Q 1229 390 1504 390 
Q 1939 390 2227 630 
Q 2515 870 2515 1370 
L 2515 1677 
L 2010 1658 
z
" transform="scale(0.015625)"/>
       <path id="NotoSans-Regular-6c" d="M 1107 0 
L 544 0 
L 544 4864 
L 1107 4864 
L 1107 0 
z
" transform="scale(0.015625)"/>
      </defs>
      <use xlink:href="#NotoSans-Regular-73"/>
      <use xlink:href="#NotoSans-Regular-69" x="47.899994"/>
      <use xlink:href="#NotoSans-Regular-67" x="73.699982"/>
      <use xlink:href="#NotoSans-Regular-6e" x="135.199966"/>
      <use xlink:href="#NotoSans-Regular-61" x="196.999954"/>
      <use xlink:href="#NotoSans-Regular-6c" x="253.099945"/>
     </g>
    </g>
    <g id="text_14">
     <!-- $\times\mathdefault{10^{−3}}\mathdefault{}$ -->
     <g transform="translate(38.9 14.8) scale(0.1 -0.1)">
      <defs>
       <path id="NotoSans-Regular-d7" d="M 2918 3674 
L 3238 3347 
L 2150 2259 
L 3232 1171 
L 2912 845 
L 1818 1926 
L 749 845 
L 416 1171 
L 1498 2259 
L 410 3341 
L 742 3674 
L 1824 2579 
L 2918 3674 
z
" transform="scale(0.015625)"/>
       <path id="NotoSans-Regular-33" d="M 3155 3501 
Q 3155 3194 3040 2970 
Q 2925 2746 2710 2605 
Q 2496 2464 2208 2406 
L 2208 2381 
Q 2758 2317 3027 2035 
Q 3296 1754 3296 1299 
Q 3296 902 3110 592 
Q 2925 282 2537 109 
Q 2150 -64 1542 -64 
Q 1184 -64 877 -9 
Q 570 45 288 186 
L 288 710 
Q 576 570 909 490 
Q 1242 410 1549 410 
Q 2163 410 2435 650 
Q 2707 890 2707 1312 
Q 2707 1600 2556 1776 
Q 2406 1952 2118 2035 
Q 1830 2118 1427 2118 
L 986 2118 
L 986 2598 
L 1434 2598 
Q 1811 2598 2064 2707 
Q 2317 2816 2448 3011 
Q 2579 3206 2579 3462 
Q 2579 3795 2355 3977 
Q 2131 4160 1747 4160 
Q 1504 4160 1305 4112 
Q 1107 4064 937 3977 
Q 768 3891 595 3776 
L 314 4160 
Q 557 4352 918 4493 
Q 1280 4634 1741 4634 
Q 2458 4634 2806 4314 
Q 3155 3994 3155 3501 
z
" transform="scale(0.015625)"/>
      </defs>
      <use xlink:href="#NotoSans-Regular-d7" transform="translate(0 0.8)"/>
      <use xlink:href="#NotoSans-Regular-31" transform="translate(57.199997 0.8)"/>
      <use xlink:href="#NotoSans-Regular-30" transform="translate(114.399994 0.8)"/>
      <use xlink:href="#NotoSans-Regular-2212" transform="translate(172.537881 38.315625) scale(0.7)"/>
      <use xlink:href="#NotoSans-Regular-33" transform="translate(195.077879 38.315625) scale(0.7)"/>
     </g>
    </g>
   </g>
   <g id="line2d_23">
    <path d="M 48.313615 205.887846 
L 49.309764 198.596207 
L 50.305914 200.843233 
L 51.302064 202.57492 
L 52.298213 206.985746 
L 53.294363 201.649881 
L 54.290513 208.672619 
L 55.286662 200.24468 
L 56.282812 201.445006 
L 57.278962 199.53087 
L 58.275111 205.119626 
L 59.271261 205.641362 
L 60.267411 201.905947 
L 61.26356 204.764346 
L 62.25971 201.793922 
L 63.25586 198.31133 
L 64.25201 202.379672 
L 65.248159 205.737396 
L 66.244309 200.718409 
L 67.240459 204.447444 
L 68.236608 202.04997 
L 71.225057 204.572274 
L 72.221207 205.058821 
L 73.217357 201.518634 
L 74.213506 193.964523 
L 75.209656 204.501866 
L 77.201955 207.331443 
L 78.198105 194.598292 
L 79.194255 202.277242 
L 80.190405 199.358029 
L 81.186554 203.061461 
L 82.182704 202.200421 
L 83.178854 206.544033 
L 84.175003 206.790493 
L 86.167303 183.055909 
L 87.163452 180.578427 
L 88.159602 179.237219 
L 89.155752 174.403855 
L 90.151901 166.929768 
L 91.148051 170.799676 
L 92.144201 173.14271 
L 93.14035 174.544714 
L 94.1365 173.37638 
L 95.13265 174.250254 
L 96.1288 185.661423 
L 97.124949 184.269058 
L 98.121099 181.810767 
L 99.117249 182.748601 
L 100.113398 187.114639 
L 101.109548 181.391431 
L 102.105698 184.723563 
L 103.101847 182.540567 
L 104.097997 183.126319 
L 105.094147 187.80282 
L 106.090296 185.789482 
L 107.086446 186.349631 
L 108.082596 186.199179 
L 109.078745 187.943653 
L 110.074895 190.126669 
L 111.071045 187.226654 
L 112.067195 188.138906 
L 113.063344 188.65745 
L 114.059494 191.602258 
L 115.055644 188.170926 
L 116.051793 188.980741 
L 117.047943 188.523014 
L 118.044093 194.355023 
L 119.040242 192.575341 
L 120.036392 190.299508 
L 121.032542 194.652692 
L 122.028691 191.640682 
L 123.024841 195.657793 
L 124.020991 193.798082 
L 125.01714 198.260112 
L 126.01329 191.429413 
L 127.00944 190.501165 
L 128.00559 195.52656 
L 129.001739 190.898074 
L 129.997889 194.473469 
L 130.994039 192.037578 
L 131.990188 191.685476 
L 132.986338 194.835163 
L 133.982488 196.50283 
L 134.978637 193.173893 
L 135.974787 194.194985 
L 136.970937 194.972794 
L 137.967086 191.579872 
L 138.963236 182.969503 
L 139.959386 191.157326 
L 140.955535 193.359561 
L 141.951685 188.097314 
L 142.947835 195.891475 
L 143.943985 190.48835 
L 144.940134 193.183513 
L 145.936284 189.716938 
L 146.932434 192.59133 
L 147.928583 196.64367 
L 148.924733 192.722584 
L 150.917032 197.962444 
L 151.913182 184.96363 
L 152.909332 192.463305 
L 153.905481 195.260884 
L 154.901631 194.476681 
L 155.897781 191.6919 
L 156.89393 189.25603 
L 157.89008 193.644462 
L 158.88623 196.893333 
L 159.88238 190.289882 
L 160.878529 195.741011 
L 161.874679 193.474784 
L 162.870829 194.601494 
L 163.866978 193.676434 
L 164.863128 191.803929 
L 165.859278 193.692437 
L 166.855427 194.310234 
L 167.851577 196.806925 
L 168.847727 192.386498 
L 169.843876 191.666284 
L 170.840026 188.263742 
L 171.836176 186.916144 
L 172.832325 192.386496 
L 173.828475 192.610542 
L 174.824625 195.142431 
L 175.820775 189.377651 
L 176.816924 193.526029 
L 177.813074 193.023475 
L 178.809224 197.779979 
L 179.805373 193.455606 
L 181.797673 191.618268 
L 182.793822 186.977002 
L 183.789972 189.435259 
L 184.786122 187.095414 
L 185.782271 188.1613 
L 186.778421 192.431299 
L 187.774571 185.738257 
L 188.77072 190.677199 
L 189.76687 192.623363 
L 190.76302 188.718254 
L 191.75917 188.833498 
L 192.755319 191.320593 
L 193.751469 190.600399 
L 194.747619 193.161099 
L 195.743768 192.34488 
L 196.739918 192.905022 
L 197.736068 190.946084 
L 198.732217 191.387807 
L 199.728367 193.177109 
L 199.728367 193.177109 
" clip-path="url(#pdc4237670c)" style="fill: none; stroke: #edd1cb; stroke-linecap: square"/>
   </g>
   <g id="line2d_24">
    <path d="M 48.313615 202.994247 
L 49.309764 206.592039 
L 50.305914 209.376815 
L 51.302064 208.46136 
L 52.298213 208.147676 
L 53.294363 202.158799 
L 54.290513 206.115109 
L 55.286662 206.348776 
L 56.282812 204.463447 
L 57.278962 199.358035 
L 58.275111 200.292683 
L 59.271261 198.625029 
L 60.267411 206.646462 
L 61.26356 203.119074 
L 62.25971 198.231315 
L 63.25586 204.501857 
L 64.25201 204.597891 
L 65.248159 204.018527 
L 66.244309 202.142812 
L 67.240459 208.371734 
L 68.236608 204.505062 
L 69.232758 207.926819 
L 70.228908 208.320525 
L 71.225057 201.627466 
L 72.221207 199.905384 
L 73.217357 200.270275 
L 74.213506 207.856393 
L 76.205806 199.578896 
L 78.198105 203.304727 
L 79.194255 201.688279 
L 80.190405 201.777901 
L 81.186554 206.726472 
L 82.182704 197.354271 
L 83.178854 205.891045 
L 84.175003 199.476457 
L 85.171153 188.305361 
L 86.167303 156.555747 
L 87.163452 130.708357 
L 88.159602 121.182676 
L 89.155752 102.617517 
L 90.151901 86.353879 
L 91.148051 77.95486 
L 92.144201 74.088201 
L 93.14035 73.21434 
L 94.1365 81.690353 
L 95.13265 70.922484 
L 96.1288 84.481366 
L 97.124949 80.617997 
L 98.121099 80.803536 
L 99.117249 79.862547 
L 100.113398 83.681211 
L 102.105698 87.5766 
L 103.101847 88.495236 
L 104.097997 77.666885 
L 105.094147 83.03773 
L 106.090296 84.887889 
L 107.086446 93.796 
L 108.082596 85.150289 
L 109.078745 88.696886 
L 110.074895 89.826971 
L 111.071045 92.906095 
L 112.067195 91.731369 
L 113.063344 95.777258 
L 114.059494 96.113364 
L 115.055644 96.881567 
L 116.051793 102.838298 
L 117.047943 106.592989 
L 118.044093 108.241498 
L 119.040242 106.346498 
L 120.036392 109.909138 
L 121.032542 108.676683 
L 122.028691 107.636548 
L 123.024841 110.315526 
L 124.020991 110.955785 
L 125.01714 114.214205 
L 126.01329 119.598207 
L 127.00944 120.904199 
L 128.00559 123.650506 
L 129.001739 123.890653 
L 129.997889 119.834964 
L 130.994039 120.968272 
L 131.990188 120.904166 
L 132.986338 126.003172 
L 133.982488 124.597972 
L 134.978637 128.554099 
L 135.974787 126.905811 
L 136.970937 126.848209 
L 137.967086 129.348092 
L 138.963236 132.18398 
L 139.959386 142.61271 
L 140.955535 129.482454 
L 141.951685 134.146228 
L 142.947835 134.536821 
L 143.943985 141.550026 
L 144.940134 134.431116 
L 145.936284 136.851084 
L 146.932434 131.515078 
L 147.928583 133.064279 
L 148.924733 137.80815 
L 149.920883 134.805645 
L 150.917032 130.049074 
L 151.913182 141.063495 
L 152.909332 138.784373 
L 153.905481 140.487329 
L 154.901631 135.404279 
L 155.897781 143.044821 
L 156.89393 141.623584 
L 157.89008 142.289398 
L 158.88623 141.031469 
L 159.88238 141.806123 
L 160.878529 142.372649 
L 161.874679 145.653543 
L 162.870829 140.099992 
L 163.866978 144.129924 
L 164.863128 141.806083 
L 165.859278 144.651704 
L 166.855427 148.803184 
L 167.851577 146.258534 
L 168.847727 141.962872 
L 169.843876 142.17739 
L 170.840026 148.569561 
L 171.836176 149.85953 
L 172.832325 151.379934 
L 173.828475 149.292937 
L 174.824625 154.190287 
L 175.820775 163.754499 
L 176.816924 144.091541 
L 178.809224 155.009722 
L 179.805373 150.269228 
L 180.801523 146.821878 
L 181.797673 150.253225 
L 183.789972 155.390621 
L 185.782271 154.183903 
L 186.778421 151.31272 
L 187.774571 151.376739 
L 188.77072 153.777381 
L 189.76687 151.687229 
L 190.76302 154.670421 
L 191.75917 150.275632 
L 192.755319 153.198033 
L 193.751469 151.943292 
L 194.747619 160.784088 
L 195.743768 155.00652 
L 196.739918 150.195609 
L 197.736068 154.948898 
L 198.732217 150.877393 
L 199.728367 156.914233 
L 200.724517 156.373289 
L 201.720666 159.081226 
L 202.716816 151.994497 
L 203.712966 158.735535 
L 204.709115 159.241277 
L 205.705265 150.870989 
L 206.701415 151.581577 
L 207.697565 155.592271 
L 208.693714 163.111138 
L 209.689864 159.026826 
L 210.686014 161.363442 
L 211.682163 157.858498 
L 212.678313 161.11379 
L 213.674463 160.163135 
L 214.670612 162.550976 
L 215.666762 154.667219 
L 216.662912 164.919632 
L 217.659061 163.364 
L 218.655211 153.735762 
L 219.651361 160.636858 
L 220.64751 161.29943 
L 221.64366 161.545901 
L 222.63981 164.983658 
L 223.63596 159.54535 
L 224.632109 157.016663 
L 225.628259 165.563005 
L 226.624409 164.484332 
L 227.620558 161.645128 
L 228.616708 165.956706 
L 229.612858 161.705952 
L 230.609007 164.641148 
L 232.601307 168.085336 
L 233.597456 165.02525 
L 234.593606 167.838818 
L 235.589756 166.507263 
L 236.585905 171.763119 
L 236.585905 171.763119 
" clip-path="url(#pdc4237670c)" style="fill: none; stroke: #894f80; stroke-linecap: square"/>
   </g>
   <g id="line2d_25">
    <path d="M 48.313615 201.214534 
L 49.309764 204.316203 
L 50.305914 202.530121 
L 51.302064 204.300213 
L 52.298213 204.834751 
L 53.294363 200.731212 
L 54.290513 203.288729 
L 55.286662 197.661539 
L 56.282812 207.696339 
L 57.278962 208.935094 
L 58.275111 199.085949 
L 59.271261 200.167864 
L 60.267411 205.971072 
L 61.26356 195.328106 
L 62.25971 207.942818 
L 63.25586 203.829672 
L 64.25201 203.077456 
L 65.248159 195.196865 
L 66.244309 196.096302 
L 67.240459 203.266319 
L 68.236608 203.768853 
L 69.232758 203.512782 
L 70.228908 199.233201 
L 72.221207 207.824377 
L 73.217357 205.596559 
L 74.213506 205.567757 
L 75.209656 202.747778 
L 76.205806 200.849639 
L 77.201955 203.602417 
L 78.198105 204.67791 
L 79.194255 200.72801 
L 80.190405 197.850422 
L 81.186554 203.43276 
L 82.182704 202.267623 
L 83.178854 208.282109 
L 84.175003 206.371177 
L 85.171153 179.592543 
L 86.167303 138.477125 
L 87.163452 110.923765 
L 88.159602 99.426291 
L 89.155752 76.23909 
L 90.151901 50.193144 
L 91.148051 43.711345 
L 92.144201 32.441096 
L 93.14035 29.422655 
L 94.1365 28.731246 
L 95.13265 29.179252 
L 96.1288 32.216824 
L 97.124949 36.931903 
L 98.121099 26.922705 
L 99.117249 33.903797 
L 100.113398 35.961983 
L 101.109548 37.55914 
L 102.105698 35.625743 
L 103.101847 40.449568 
L 105.094147 35.609901 
L 106.090296 40.977792 
L 107.086446 40.033447 
L 108.082596 33.449279 
L 109.078745 40.702436 
L 110.074895 34.118335 
L 111.071045 40.57127 
L 112.067195 42.498155 
L 113.063344 47.930019 
L 114.059494 47.60029 
L 115.055644 48.374803 
L 116.051793 51.473595 
L 117.047943 49.623302 
L 118.044093 57.881823 
L 119.040242 57.603178 
L 120.036392 57.059247 
L 121.032542 67.298959 
L 122.028691 69.354058 
L 123.024841 63.678791 
L 124.020991 68.38407 
L 125.01714 70.199121 
L 126.01329 70.884087 
L 127.00944 72.846147 
L 128.00559 73.60804 
L 129.001739 70.128705 
L 130.994039 83.77727 
L 131.990188 77.212098 
L 132.986338 83.825131 
L 133.982488 85.851298 
L 134.978637 83.044241 
L 135.974787 86.60037 
L 137.967086 89.423604 
L 138.963236 97.179209 
L 139.959386 99.67587 
L 140.955535 94.317712 
L 141.951685 102.26228 
L 142.947835 105.16224 
L 143.943985 93.511045 
L 144.940134 101.478167 
L 145.936284 104.189031 
L 146.932434 112.850852 
L 147.928583 103.427339 
L 148.924733 103.091233 
L 149.920883 98.014607 
L 150.917032 108.043137 
L 151.913182 104.21474 
L 152.909332 103.859503 
L 153.905481 105.96253 
L 154.901631 100.876238 
L 155.897781 105.962463 
L 156.89393 106.362676 
L 157.89008 104.422835 
L 158.88623 113.269994 
L 159.88238 110.747825 
L 160.878529 106.964135 
L 161.874679 113.375719 
L 162.870829 110.850127 
L 164.863128 121.03211 
L 165.859278 108.654263 
L 166.855427 110.760579 
L 167.851577 115.64831 
L 168.847727 118.26976 
L 169.843876 119.054074 
L 170.840026 113.916563 
L 171.836176 123.042435 
L 172.832325 114.403168 
L 173.828475 123.291946 
L 174.824625 117.095102 
L 175.820775 121.982765 
L 176.816924 120.103943 
L 177.813074 123.951437 
L 178.809224 112.303296 
L 179.805373 117.453628 
L 180.801523 123.24389 
L 181.797673 125.628576 
L 182.793822 123.362497 
L 183.789972 123.327188 
L 184.786122 116.285212 
L 185.782271 122.542955 
L 186.778421 131.060547 
L 187.774571 124.11459 
L 188.77072 121.883618 
L 189.76687 123.279058 
L 190.76302 123.82017 
L 191.75917 129.786567 
L 192.755319 126.579231 
L 193.751469 128.54458 
L 194.747619 128.237373 
L 195.743768 125.871932 
L 196.739918 126.175958 
L 197.736068 129.428061 
L 198.732217 133.602095 
L 199.728367 132.126439 
L 200.724517 126.918559 
L 201.720666 134.917727 
L 201.720666 134.917727 
" clip-path="url(#pdc4237670c)" style="fill: none; stroke: #2d1e3e; stroke-linecap: square"/>
   </g>
   <g id="line2d_26"/>
   <g id="line2d_27"/>
   <g id="line2d_28"/>
   <g id="patch_3">
    <path d="M 38.9 218.49952 
L 38.9 17.8 
" style="fill: none; stroke: #000000; stroke-width: 0.6; stroke-linejoin: miter; stroke-linecap: square"/>
   </g>
   <g id="patch_4">
    <path d="M 245.99952 218.49952 
L 245.99952 17.8 
" style="fill: none; stroke: #000000; stroke-width: 0.6; stroke-linejoin: miter; stroke-linecap: square"/>
   </g>
   <g id="patch_5">
    <path d="M 38.9 218.49952 
L 245.99952 218.49952 
" style="fill: none; stroke: #000000; stroke-width: 0.6; stroke-linejoin: miter; stroke-linecap: square"/>
   </g>
   <g id="patch_6">
    <path d="M 38.9 17.8 
L 245.99952 17.8 
" style="fill: none; stroke: #000000; stroke-width: 0.6; stroke-linejoin: miter; stroke-linecap: square"/>
   </g>
   <g id="legend_1">
    <g id="patch_7">
     <path d="M 175.438582 89.8 
L 240.99952 89.8 
L 240.99952 22.8 
L 175.438582 22.8 
z
" style="fill: #ffffff; opacity: 0.9"/>
    </g>
    <g id="text_15">
     <!-- power -->
     <g transform="translate(193.304207 36.4) scale(0.1 -0.1)">
      <defs>
       <path id="NotoSans-Regular-70" d="M 2176 3494 
Q 2810 3494 3197 3052 
Q 3584 2611 3584 1722 
Q 3584 1139 3408 739 
Q 3232 339 2915 137 
Q 2598 -64 2170 -64 
Q 1907 -64 1702 6 
Q 1498 77 1354 189 
Q 1210 301 1107 435 
L 1069 435 
Q 1082 326 1094 160 
Q 1107 -6 1107 -128 
L 1107 -1536 
L 544 -1536 
L 544 3430 
L 1005 3430 
L 1082 2963 
L 1107 2963 
Q 1210 3110 1354 3232 
Q 1498 3354 1699 3424 
Q 1901 3494 2176 3494 
z
M 2074 3021 
Q 1728 3021 1517 2889 
Q 1306 2758 1210 2496 
Q 1114 2234 1107 1830 
L 1107 1722 
Q 1107 1299 1196 1004 
Q 1286 710 1500 556 
Q 1715 403 2086 403 
Q 2400 403 2601 576 
Q 2803 749 2902 1046 
Q 3002 1344 3002 1728 
Q 3002 2317 2774 2669 
Q 2547 3021 2074 3021 
z
" transform="scale(0.015625)"/>
       <path id="NotoSans-Regular-6f" d="M 3526 1722 
Q 3526 1293 3414 963 
Q 3302 634 3094 403 
Q 2886 173 2588 54 
Q 2291 -64 1926 -64 
Q 1587 -64 1299 54 
Q 1011 173 800 403 
Q 589 634 470 963 
Q 352 1293 352 1722 
Q 352 2291 544 2684 
Q 736 3078 1094 3286 
Q 1453 3494 1946 3494 
Q 2413 3494 2768 3286 
Q 3123 3078 3324 2684 
Q 3526 2291 3526 1722 
z
M 934 1722 
Q 934 1318 1040 1020 
Q 1146 723 1370 563 
Q 1594 403 1939 403 
Q 2285 403 2509 563 
Q 2733 723 2838 1020 
Q 2944 1318 2944 1722 
Q 2944 2131 2835 2419 
Q 2726 2707 2505 2864 
Q 2285 3021 1933 3021 
Q 1408 3021 1171 2675 
Q 934 2330 934 1722 
z
" transform="scale(0.015625)"/>
       <path id="NotoSans-Regular-77" d="M 2758 1939 
Q 2720 2074 2681 2205 
Q 2643 2336 2614 2454 
Q 2586 2573 2560 2675 
Q 2534 2778 2522 2848 
L 2496 2848 
Q 2483 2778 2460 2675 
Q 2438 2573 2409 2451 
Q 2381 2330 2345 2198 
Q 2310 2067 2266 1933 
L 1651 6 
L 1011 6 
L 70 3437 
L 653 3437 
L 1126 1606 
Q 1178 1421 1222 1232 
Q 1267 1043 1302 873 
Q 1338 704 1350 582 
L 1376 582 
Q 1395 659 1420 774 
Q 1446 890 1475 1018 
Q 1504 1146 1539 1274 
Q 1574 1402 1606 1504 
L 2214 3437 
L 2829 3437 
L 3418 1504 
Q 3462 1357 3510 1190 
Q 3558 1024 3596 867 
Q 3635 710 3648 589 
L 3674 589 
Q 3686 698 3721 861 
Q 3757 1024 3805 1219 
Q 3853 1414 3904 1606 
L 4384 3437 
L 4960 3437 
L 4006 6 
L 3347 6 
L 2758 1939 
z
" transform="scale(0.015625)"/>
       <path id="NotoSans-Regular-72" d="M 2144 3494 
Q 2240 3494 2352 3484 
Q 2464 3475 2547 3456 
L 2477 2938 
Q 2394 2957 2294 2969 
Q 2195 2982 2106 2982 
Q 1907 2982 1728 2899 
Q 1549 2816 1408 2665 
Q 1267 2515 1187 2304 
Q 1107 2093 1107 1830 
L 1107 0 
L 544 0 
L 544 3430 
L 1005 3430 
L 1069 2803 
L 1094 2803 
Q 1203 2995 1356 3152 
Q 1510 3309 1708 3401 
Q 1907 3494 2144 3494 
z
" transform="scale(0.015625)"/>
      </defs>
      <use xlink:href="#NotoSans-Regular-70"/>
      <use xlink:href="#NotoSans-Regular-6f" x="61.499985"/>
      <use xlink:href="#NotoSans-Regular-77" x="121.999969"/>
      <use xlink:href="#NotoSans-Regular-65" x="200.59996"/>
      <use xlink:href="#NotoSans-Regular-72" x="256.999954"/>
     </g>
    </g>
    <g id="line2d_29">
     <path d="M 181.438582 47.9 
L 191.438582 47.9 
L 201.438582 47.9 
" style="fill: none; stroke: #edd1cb; stroke-linecap: square"/>
    </g>
    <g id="text_16">
     <!-- 80.0 -->
     <g transform="translate(209.438582 51.4) scale(0.1 -0.1)">
      <defs>
       <path id="NotoSans-Regular-38" d="M 1824 4634 
Q 2227 4634 2534 4509 
Q 2842 4384 3018 4141 
Q 3194 3898 3194 3539 
Q 3194 3264 3075 3059 
Q 2957 2854 2758 2697 
Q 2560 2541 2323 2419 
Q 2605 2285 2835 2115 
Q 3066 1946 3203 1722 
Q 3341 1498 3341 1184 
Q 3341 800 3155 521 
Q 2970 243 2634 89 
Q 2298 -64 1843 -64 
Q 1350 -64 1008 83 
Q 666 230 490 502 
Q 314 774 314 1165 
Q 314 1478 445 1708 
Q 576 1939 793 2105 
Q 1011 2272 1261 2387 
Q 1037 2515 854 2678 
Q 672 2842 566 3053 
Q 461 3264 461 3546 
Q 461 3898 640 4138 
Q 819 4378 1126 4506 
Q 1434 4634 1824 4634 
z
M 864 1158 
Q 864 826 1101 605 
Q 1338 384 1830 384 
Q 2298 384 2544 605 
Q 2790 826 2790 1178 
Q 2790 1402 2672 1571 
Q 2554 1741 2339 1875 
Q 2125 2010 1830 2118 
L 1728 2157 
Q 1446 2035 1254 1894 
Q 1062 1754 963 1574 
Q 864 1395 864 1158 
z
M 1818 4179 
Q 1466 4179 1238 4009 
Q 1011 3840 1011 3520 
Q 1011 3283 1123 3123 
Q 1235 2963 1427 2851 
Q 1619 2739 1850 2637 
Q 2074 2733 2250 2848 
Q 2426 2963 2531 3126 
Q 2637 3290 2637 3520 
Q 2637 3840 2413 4009 
Q 2189 4179 1818 4179 
z
" transform="scale(0.015625)"/>
      </defs>
      <use xlink:href="#NotoSans-Regular-38"/>
      <use xlink:href="#NotoSans-Regular-30" x="57.199997"/>
      <use xlink:href="#NotoSans-Regular-2e" x="114.399994"/>
      <use xlink:href="#NotoSans-Regular-30" x="141.199982"/>
     </g>
    </g>
    <g id="line2d_30">
     <path d="M 181.438582 62.9 
L 191.438582 62.9 
L 201.438582 62.9 
" style="fill: none; stroke: #894f80; stroke-linecap: square"/>
    </g>
    <g id="text_17">
     <!-- 125.0 -->
     <g transform="translate(209.438582 66.4) scale(0.1 -0.1)">
      <use xlink:href="#NotoSans-Regular-31"/>
      <use xlink:href="#NotoSans-Regular-32" x="57.199997"/>
      <use xlink:href="#NotoSans-Regular-35" x="114.399994"/>
      <use xlink:href="#NotoSans-Regular-2e" x="171.599991"/>
      <use xlink:href="#NotoSans-Regular-30" x="198.399979"/>
     </g>
    </g>
    <g id="line2d_31">
     <path d="M 181.438582 77.9 
L 191.438582 77.9 
L 201.438582 77.9 
" style="fill: none; stroke: #2d1e3e; stroke-linecap: square"/>
    </g>
    <g id="text_18">
     <!-- 150.0 -->
     <g transform="translate(209.438582 81.4) scale(0.1 -0.1)">
      <use xlink:href="#NotoSans-Regular-31"/>
      <use xlink:href="#NotoSans-Regular-35" x="57.199997"/>
      <use xlink:href="#NotoSans-Regular-30" x="114.399994"/>
      <use xlink:href="#NotoSans-Regular-2e" x="171.599991"/>
      <use xlink:href="#NotoSans-Regular-30" x="198.399979"/>
     </g>
    </g>
   </g>
  </g>
 </g>
 <defs>
  <clipPath id="pdc4237670c">
   <rect x="38.9" y="17.8" width="207.09952" height="200.69952"/>
  </clipPath>
 </defs>
</svg>
