<?xml version="1.0" encoding="utf-8" standalone="no"?>
<!DOCTYPE svg PUBLIC "-//W3C//DTD SVG 1.1//EN"
  "http://www.w3.org/Graphics/SVG/1.1/DTD/svg11.dtd">
<svg xmlns:xlink="http://www.w3.org/1999/xlink" width="253.19952pt" height="253.19952pt" viewBox="0 0 253.19952 253.19952" xmlns="http://www.w3.org/2000/svg" version="1.1">
 <metadata>
  <rdf:RDF xmlns:dc="http://purl.org/dc/elements/1.1/" xmlns:cc="http://creativecommons.org/ns#" xmlns:rdf="http://www.w3.org/1999/02/22-rdf-syntax-ns#">
   <cc:Work>
    <dc:type rdf:resource="http://purl.org/dc/dcmitype/StillImage"/>
    <dc:date>2024-07-06T12:10:42.651877</dc:date>
    <dc:format>image/svg+xml</dc:format>
    <dc:creator>
     <cc:Agent>
      <dc:title>Matplotlib v3.9.0, https://matplotlib.org/</dc:title>
     </cc:Agent>
    </dc:creator>
   </cc:Work>
  </rdf:RDF>
 </metadata>
 <defs>
  <style type="text/css">*{stroke-linejoin: round; stroke-linecap: butt}</style>
 </defs>
 <g id="figure_1">
  <g id="patch_1">
   <path d="M 0 253.19952 
L 253.19952 253.19952 
L 253.19952 0 
L 0 0 
z
" style="fill: #ffffff"/>
  </g>
  <g id="axes_1">
   <g id="patch_2">
    <path d="M 42.1 218.49952 
L 245.99952 218.49952 
L 245.99952 17.8 
L 42.1 17.8 
z
" style="fill: #ffffff"/>
   </g>
   <g id="PolyCollection_1">
    <path d="M 70.232417 43.506009 
L 70.232417 29.104146 
L 70.358996 26.922705 
L 70.978256 29.51686 
L 72.087167 28.852219 
L 73.680304 29.264932 
L 75.749875 33.89583 
L 78.285754 34.957078 
L 81.275537 27.67842 
L 84.704597 32.057414 
L 88.55616 36.70975 
L 92.811385 38.510648 
L 97.449455 43.640005 
L 102.447681 38.612483 
L 107.781612 40.043557 
L 113.425155 53.025054 
L 119.350702 64.22176 
L 125.529266 74.710956 
L 131.930622 87.531619 
L 138.523455 97.039997 
L 145.275513 112.047587 
L 152.153766 128.078733 
L 159.124565 140.792197 
L 166.153811 151.855167 
L 173.207116 163.968308 
L 180.249977 171.686451 
L 187.24794 178.096692 
L 194.166771 190.413497 
L 200.972625 197.456456 
L 207.632208 199.605493 
L 214.112941 203.148554 
L 220.383121 204.927896 
L 226.412076 207.441681 
L 232.170311 208.701384 
L 237.629658 209.376815 
L 237.629658 43.506009 
L 237.629658 43.506009 
L 232.170311 43.506009 
L 226.412076 43.506009 
L 220.383121 43.506009 
L 214.112941 43.506009 
L 207.632208 43.506009 
L 200.972625 43.506009 
L 194.166771 43.506009 
L 187.24794 43.506009 
L 180.249977 43.506009 
L 173.207116 43.506009 
L 166.153811 43.506009 
L 159.124565 43.506009 
L 152.153766 43.506009 
L 145.275513 43.506009 
L 138.523455 43.506009 
L 131.930622 43.506009 
L 125.529266 43.506009 
L 119.350702 43.506009 
L 113.425155 43.506009 
L 107.781612 43.506009 
L 102.447681 43.506009 
L 97.449455 43.506009 
L 92.811385 43.506009 
L 88.55616 43.506009 
L 84.704597 43.506009 
L 81.275537 43.506009 
L 78.285754 43.506009 
L 75.749875 43.506009 
L 73.680304 43.506009 
L 72.087167 43.506009 
L 70.978256 43.506009 
L 70.358996 43.506009 
L 70.232417 43.506009 
z
" clip-path="url(#pfe954df040)" style="fill: #1f77b4; fill-opacity: 0.1"/>
   </g>
   <g id="matplotlib.axis_1">
    <g id="xtick_1">
     <g id="line2d_1">
      <defs>
       <path id="mec6eaaf1f0" d="M 0 0 
L 0 -4 
" style="stroke: #000000; stroke-width: 0.6"/>
      </defs>
      <g>
       <use xlink:href="#mec6eaaf1f0" x="42.1" y="218.49952" style="stroke: #000000; stroke-width: 0.6"/>
      </g>
     </g>
     <g id="line2d_2">
      <defs>
       <path id="mf8f6f63344" d="M 0 0 
L 0 4 
" style="stroke: #000000; stroke-width: 0.6"/>
      </defs>
      <g>
       <use xlink:href="#mf8f6f63344" x="42.1" y="17.8" style="stroke: #000000; stroke-width: 0.6"/>
      </g>
     </g>
     <g id="text_1">
      <!-- $\mathdefault{0}$ -->
      <g transform="translate(39.2 229.59952) scale(0.1 -0.1)">
       <defs>
        <path id="NotoSans-Regular-30" d="M 3347 2291 
Q 3347 1734 3264 1299 
Q 3181 864 2998 560 
Q 2816 256 2525 96 
Q 2234 -64 1824 -64 
Q 1312 -64 976 217 
Q 640 499 477 1027 
Q 314 1555 314 2291 
Q 314 3034 464 3558 
Q 614 4083 947 4361 
Q 1280 4640 1824 4640 
Q 2336 4640 2675 4361 
Q 3014 4083 3180 3558 
Q 3347 3034 3347 2291 
z
M 877 2291 
Q 877 1664 969 1248 
Q 1062 832 1270 624 
Q 1478 416 1824 416 
Q 2170 416 2378 621 
Q 2586 826 2682 1245 
Q 2778 1664 2778 2291 
Q 2778 2918 2682 3331 
Q 2586 3744 2378 3952 
Q 2170 4160 1824 4160 
Q 1478 4160 1270 3952 
Q 1062 3744 969 3331 
Q 877 2918 877 2291 
z
" transform="scale(0.015625)"/>
       </defs>
       <use xlink:href="#NotoSans-Regular-30" transform="translate(0 0.5)"/>
      </g>
     </g>
    </g>
    <g id="xtick_2">
     <g id="line2d_3">
      <g>
       <use xlink:href="#mec6eaaf1f0" x="85.198145" y="218.49952" style="stroke: #000000; stroke-width: 0.6"/>
      </g>
     </g>
     <g id="line2d_4">
      <g>
       <use xlink:href="#mf8f6f63344" x="85.198145" y="17.8" style="stroke: #000000; stroke-width: 0.6"/>
      </g>
     </g>
     <g id="text_2">
      <!-- $\mathdefault{50}$ -->
      <g transform="translate(79.448145 229.59952) scale(0.1 -0.1)">
       <defs>
        <path id="NotoSans-Regular-35" d="M 1760 2803 
Q 2227 2803 2572 2643 
Q 2918 2483 3107 2185 
Q 3296 1888 3296 1459 
Q 3296 986 3091 643 
Q 2886 301 2505 118 
Q 2125 -64 1587 -64 
Q 1235 -64 924 0 
Q 614 64 403 186 
L 403 717 
Q 634 576 963 496 
Q 1293 416 1594 416 
Q 1933 416 2185 521 
Q 2438 627 2579 848 
Q 2720 1069 2720 1402 
Q 2720 1850 2445 2090 
Q 2170 2330 1574 2330 
Q 1395 2330 1164 2298 
Q 934 2266 794 2234 
L 512 2413 
L 685 4570 
L 2976 4570 
L 2976 4058 
L 1165 4058 
L 1056 2733 
Q 1165 2752 1350 2777 
Q 1536 2803 1760 2803 
z
" transform="scale(0.015625)"/>
       </defs>
       <use xlink:href="#NotoSans-Regular-35" transform="translate(0 0.5)"/>
       <use xlink:href="#NotoSans-Regular-30" transform="translate(57.199997 0.5)"/>
      </g>
     </g>
    </g>
    <g id="xtick_3">
     <g id="line2d_5">
      <g>
       <use xlink:href="#mec6eaaf1f0" x="128.29629" y="218.49952" style="stroke: #000000; stroke-width: 0.6"/>
      </g>
     </g>
     <g id="line2d_6">
      <g>
       <use xlink:href="#mf8f6f63344" x="128.29629" y="17.8" style="stroke: #000000; stroke-width: 0.6"/>
      </g>
     </g>
     <g id="text_3">
      <!-- $\mathdefault{100}$ -->
      <g transform="translate(119.69629 229.59952) scale(0.1 -0.1)">
       <defs>
        <path id="NotoSans-Regular-31" d="M 2272 0 
L 1722 0 
L 1722 3194 
Q 1722 3379 1725 3507 
Q 1728 3635 1734 3747 
Q 1741 3859 1747 3981 
Q 1645 3878 1561 3808 
Q 1478 3738 1350 3629 
L 864 3232 
L 570 3610 
L 1805 4570 
L 2272 4570 
L 2272 0 
z
" transform="scale(0.015625)"/>
       </defs>
       <use xlink:href="#NotoSans-Regular-31" transform="translate(0 0.5)"/>
       <use xlink:href="#NotoSans-Regular-30" transform="translate(57.199997 0.5)"/>
       <use xlink:href="#NotoSans-Regular-30" transform="translate(114.399994 0.5)"/>
      </g>
     </g>
    </g>
    <g id="xtick_4">
     <g id="line2d_7">
      <g>
       <use xlink:href="#mec6eaaf1f0" x="171.394435" y="218.49952" style="stroke: #000000; stroke-width: 0.6"/>
      </g>
     </g>
     <g id="line2d_8">
      <g>
       <use xlink:href="#mf8f6f63344" x="171.394435" y="17.8" style="stroke: #000000; stroke-width: 0.6"/>
      </g>
     </g>
     <g id="text_4">
      <!-- $\mathdefault{150}$ -->
      <g transform="translate(162.794435 229.59952) scale(0.1 -0.1)">
       <use xlink:href="#NotoSans-Regular-31" transform="translate(0 0.5)"/>
       <use xlink:href="#NotoSans-Regular-35" transform="translate(57.199997 0.5)"/>
       <use xlink:href="#NotoSans-Regular-30" transform="translate(114.399994 0.5)"/>
      </g>
     </g>
    </g>
    <g id="xtick_5">
     <g id="line2d_9">
      <g>
       <use xlink:href="#mec6eaaf1f0" x="214.49258" y="218.49952" style="stroke: #000000; stroke-width: 0.6"/>
      </g>
     </g>
     <g id="line2d_10">
      <g>
       <use xlink:href="#mf8f6f63344" x="214.49258" y="17.8" style="stroke: #000000; stroke-width: 0.6"/>
      </g>
     </g>
     <g id="text_5">
      <!-- $\mathdefault{200}$ -->
      <g transform="translate(205.89258 229.59952) scale(0.1 -0.1)">
       <defs>
        <path id="NotoSans-Regular-32" d="M 3328 0 
L 307 0 
L 307 467 
L 1504 1677 
Q 1850 2022 2086 2291 
Q 2323 2560 2444 2819 
Q 2566 3078 2566 3386 
Q 2566 3763 2342 3958 
Q 2118 4154 1760 4154 
Q 1427 4154 1174 4038 
Q 922 3923 659 3718 
L 358 4096 
Q 538 4250 752 4371 
Q 966 4493 1219 4563 
Q 1472 4634 1760 4634 
Q 2189 4634 2496 4486 
Q 2803 4339 2972 4067 
Q 3142 3795 3142 3418 
Q 3142 3059 2995 2745 
Q 2848 2432 2585 2128 
Q 2323 1824 1971 1478 
L 1018 538 
L 1018 512 
L 3328 512 
L 3328 0 
z
" transform="scale(0.015625)"/>
       </defs>
       <use xlink:href="#NotoSans-Regular-32" transform="translate(0 0.5)"/>
       <use xlink:href="#NotoSans-Regular-30" transform="translate(57.199997 0.5)"/>
       <use xlink:href="#NotoSans-Regular-30" transform="translate(114.399994 0.5)"/>
      </g>
     </g>
    </g>
    <g id="text_6">
     <!-- Power (mW) -->
     <g transform="translate(115.559916 243.59952) scale(0.1 -0.1)">
      <defs>
       <path id="NotoSans-Regular-50" d="M 1830 4570 
Q 2726 4570 3136 4218 
Q 3546 3866 3546 3226 
Q 3546 2944 3453 2685 
Q 3360 2426 3149 2221 
Q 2938 2016 2586 1897 
Q 2234 1779 1722 1779 
L 1197 1779 
L 1197 0 
L 621 0 
L 621 4570 
L 1830 4570 
z
M 1779 4077 
L 1197 4077 
L 1197 2272 
L 1658 2272 
Q 2093 2272 2381 2365 
Q 2669 2458 2809 2662 
Q 2950 2867 2950 3200 
Q 2950 3642 2668 3859 
Q 2387 4077 1779 4077 
z
" transform="scale(0.015625)"/>
       <path id="NotoSans-Regular-6f" d="M 3526 1722 
Q 3526 1293 3414 963 
Q 3302 634 3094 403 
Q 2886 173 2588 54 
Q 2291 -64 1926 -64 
Q 1587 -64 1299 54 
Q 1011 173 800 403 
Q 589 634 470 963 
Q 352 1293 352 1722 
Q 352 2291 544 2684 
Q 736 3078 1094 3286 
Q 1453 3494 1946 3494 
Q 2413 3494 2768 3286 
Q 3123 3078 3324 2684 
Q 3526 2291 3526 1722 
z
M 934 1722 
Q 934 1318 1040 1020 
Q 1146 723 1370 563 
Q 1594 403 1939 403 
Q 2285 403 2509 563 
Q 2733 723 2838 1020 
Q 2944 1318 2944 1722 
Q 2944 2131 2835 2419 
Q 2726 2707 2505 2864 
Q 2285 3021 1933 3021 
Q 1408 3021 1171 2675 
Q 934 2330 934 1722 
z
" transform="scale(0.015625)"/>
       <path id="NotoSans-Regular-77" d="M 2758 1939 
Q 2720 2074 2681 2205 
Q 2643 2336 2614 2454 
Q 2586 2573 2560 2675 
Q 2534 2778 2522 2848 
L 2496 2848 
Q 2483 2778 2460 2675 
Q 2438 2573 2409 2451 
Q 2381 2330 2345 2198 
Q 2310 2067 2266 1933 
L 1651 6 
L 1011 6 
L 70 3437 
L 653 3437 
L 1126 1606 
Q 1178 1421 1222 1232 
Q 1267 1043 1302 873 
Q 1338 704 1350 582 
L 1376 582 
Q 1395 659 1420 774 
Q 1446 890 1475 1018 
Q 1504 1146 1539 1274 
Q 1574 1402 1606 1504 
L 2214 3437 
L 2829 3437 
L 3418 1504 
Q 3462 1357 3510 1190 
Q 3558 1024 3596 867 
Q 3635 710 3648 589 
L 3674 589 
Q 3686 698 3721 861 
Q 3757 1024 3805 1219 
Q 3853 1414 3904 1606 
L 4384 3437 
L 4960 3437 
L 4006 6 
L 3347 6 
L 2758 1939 
z
" transform="scale(0.015625)"/>
       <path id="NotoSans-Regular-65" d="M 1869 3494 
Q 2310 3494 2627 3302 
Q 2944 3110 3113 2761 
Q 3283 2413 3283 1946 
L 3283 1606 
L 934 1606 
Q 947 1024 1232 720 
Q 1517 416 2029 416 
Q 2355 416 2608 477 
Q 2861 538 3130 653 
L 3130 160 
Q 2867 45 2611 -9 
Q 2355 -64 2003 -64 
Q 1517 -64 1142 134 
Q 768 333 560 726 
Q 352 1120 352 1690 
Q 352 2253 541 2656 
Q 730 3059 1072 3276 
Q 1414 3494 1869 3494 
z
M 1862 3034 
Q 1459 3034 1225 2774 
Q 992 2515 947 2054 
L 2694 2054 
Q 2694 2349 2604 2566 
Q 2515 2784 2332 2909 
Q 2150 3034 1862 3034 
z
" transform="scale(0.015625)"/>
       <path id="NotoSans-Regular-72" d="M 2144 3494 
Q 2240 3494 2352 3484 
Q 2464 3475 2547 3456 
L 2477 2938 
Q 2394 2957 2294 2969 
Q 2195 2982 2106 2982 
Q 1907 2982 1728 2899 
Q 1549 2816 1408 2665 
Q 1267 2515 1187 2304 
Q 1107 2093 1107 1830 
L 1107 0 
L 544 0 
L 544 3430 
L 1005 3430 
L 1069 2803 
L 1094 2803 
Q 1203 2995 1356 3152 
Q 1510 3309 1708 3401 
Q 1907 3494 2144 3494 
z
" transform="scale(0.015625)"/>
       <path id="NotoSans-Regular-20" transform="scale(0.015625)"/>
       <path id="NotoSans-Regular-28" d="M 256 1754 
Q 256 2278 355 2777 
Q 454 3277 665 3731 
Q 877 4186 1197 4570 
L 1728 4570 
Q 1280 3968 1053 3245 
Q 826 2522 826 1760 
Q 826 1267 928 780 
Q 1030 294 1228 -157 
Q 1427 -608 1722 -1011 
L 1197 -1011 
Q 877 -634 665 -189 
Q 454 256 355 749 
Q 256 1242 256 1754 
z
" transform="scale(0.015625)"/>
       <path id="NotoSans-Regular-6d" d="M 4307 3494 
Q 4890 3494 5178 3196 
Q 5466 2899 5466 2234 
L 5466 0 
L 4909 0 
L 4909 2208 
Q 4909 2611 4739 2816 
Q 4570 3021 4211 3021 
Q 3712 3021 3497 2733 
Q 3283 2445 3283 1894 
L 3283 0 
L 2726 0 
L 2726 2208 
Q 2726 2477 2649 2659 
Q 2573 2842 2419 2931 
Q 2266 3021 2022 3021 
Q 1677 3021 1478 2877 
Q 1280 2733 1193 2457 
Q 1107 2182 1107 1779 
L 1107 0 
L 544 0 
L 544 3430 
L 998 3430 
L 1082 2963 
L 1114 2963 
Q 1222 3142 1379 3260 
Q 1536 3379 1728 3436 
Q 1920 3494 2125 3494 
Q 2522 3494 2787 3353 
Q 3053 3213 3174 2918 
L 3206 2918 
Q 3379 3213 3676 3353 
Q 3974 3494 4307 3494 
z
" transform="scale(0.015625)"/>
       <path id="NotoSans-Regular-57" d="M 5869 4570 
L 4653 0 
L 4070 0 
L 3181 2995 
Q 3142 3130 3104 3270 
Q 3066 3411 3034 3539 
Q 3002 3667 2979 3760 
Q 2957 3853 2950 3898 
Q 2944 3853 2928 3760 
Q 2912 3667 2880 3539 
Q 2848 3411 2813 3267 
Q 2778 3123 2733 2976 
L 1869 0 
L 1286 0 
L 77 4570 
L 678 4570 
L 1389 1779 
Q 1427 1632 1459 1488 
Q 1491 1344 1520 1206 
Q 1549 1069 1568 941 
Q 1587 813 1606 691 
Q 1626 819 1648 953 
Q 1670 1088 1702 1232 
Q 1734 1376 1772 1523 
Q 1811 1670 1850 1811 
L 2656 4570 
L 3251 4570 
L 4090 1792 
Q 4134 1645 4172 1494 
Q 4211 1344 4243 1203 
Q 4275 1062 4297 931 
Q 4320 800 4339 691 
Q 4358 851 4390 1027 
Q 4422 1203 4467 1395 
Q 4512 1587 4563 1786 
L 5267 4570 
L 5869 4570 
z
" transform="scale(0.015625)"/>
       <path id="NotoSans-Regular-29" d="M 1664 1754 
Q 1664 1242 1565 749 
Q 1466 256 1258 -189 
Q 1050 -634 723 -1011 
L 198 -1011 
Q 493 -608 691 -157 
Q 890 294 992 780 
Q 1094 1267 1094 1760 
Q 1094 2266 992 2758 
Q 890 3251 691 3712 
Q 493 4173 192 4570 
L 723 4570 
Q 1050 4186 1258 3731 
Q 1466 3277 1565 2777 
Q 1664 2278 1664 1754 
z
" transform="scale(0.015625)"/>
      </defs>
      <use xlink:href="#NotoSans-Regular-50"/>
      <use xlink:href="#NotoSans-Regular-6f" x="60.499985"/>
      <use xlink:href="#NotoSans-Regular-77" x="120.999969"/>
      <use xlink:href="#NotoSans-Regular-65" x="199.59996"/>
      <use xlink:href="#NotoSans-Regular-72" x="255.999954"/>
      <use xlink:href="#NotoSans-Regular-20" x="297.299942"/>
      <use xlink:href="#NotoSans-Regular-28" x="323.299927"/>
      <use xlink:href="#NotoSans-Regular-6d" x="353.299911"/>
      <use xlink:href="#NotoSans-Regular-57" x="446.799896"/>
      <use xlink:href="#NotoSans-Regular-29" x="539.799881"/>
     </g>
    </g>
   </g>
   <g id="matplotlib.axis_2">
    <g id="ytick_1">
     <g id="line2d_11">
      <defs>
       <path id="me2ee00621e" d="M 0 0 
L 4 0 
" style="stroke: #000000; stroke-width: 0.6"/>
      </defs>
      <g>
       <use xlink:href="#me2ee00621e" x="42.1" y="200.870478" style="stroke: #000000; stroke-width: 0.6"/>
      </g>
     </g>
     <g id="line2d_12">
      <defs>
       <path id="m9137d9bc8c" d="M 0 0 
L -4 0 
" style="stroke: #000000; stroke-width: 0.6"/>
      </defs>
      <g>
       <use xlink:href="#m9137d9bc8c" x="245.99952" y="200.870478" style="stroke: #000000; stroke-width: 0.6"/>
      </g>
     </g>
     <g id="text_7">
      <!-- $\mathdefault{−1.4}$ -->
      <g transform="translate(21.2 204.670478) scale(0.1 -0.1)">
       <defs>
        <path id="NotoSans-Regular-2212" d="M 256 1466 
L 256 1965 
L 1805 1965 
L 1805 1466 
L 256 1466 
z
" transform="scale(0.015625)"/>
        <path id="NotoSans-Regular-2e" d="M 461 346 
Q 461 582 576 678 
Q 691 774 851 774 
Q 1018 774 1136 678 
Q 1254 582 1254 346 
Q 1254 115 1136 12 
Q 1018 -90 851 -90 
Q 691 -90 576 12 
Q 461 115 461 346 
z
" transform="scale(0.015625)"/>
        <path id="NotoSans-Regular-34" d="M 3533 1037 
L 2867 1037 
L 2867 0 
L 2323 0 
L 2323 1037 
L 134 1037 
L 134 1517 
L 2285 4595 
L 2867 4595 
L 2867 1542 
L 3533 1542 
L 3533 1037 
z
M 2323 2982 
Q 2323 3149 2326 3286 
Q 2330 3424 2336 3545 
Q 2342 3667 2345 3779 
Q 2349 3891 2355 3994 
L 2330 3994 
Q 2278 3872 2201 3731 
Q 2125 3590 2054 3494 
L 685 1542 
L 2323 1542 
L 2323 2982 
z
" transform="scale(0.015625)"/>
       </defs>
       <use xlink:href="#NotoSans-Regular-2212" transform="translate(0 0.203125)"/>
       <use xlink:href="#NotoSans-Regular-31" transform="translate(32.199997 0.203125)"/>
       <use xlink:href="#NotoSans-Regular-2e" transform="translate(89.399994 0.203125)"/>
       <use xlink:href="#NotoSans-Regular-34" transform="translate(116.199982 0.203125)"/>
      </g>
     </g>
    </g>
    <g id="ytick_2">
     <g id="line2d_13">
      <g>
       <use xlink:href="#me2ee00621e" x="42.1" y="178.38984" style="stroke: #000000; stroke-width: 0.6"/>
      </g>
     </g>
     <g id="line2d_14">
      <g>
       <use xlink:href="#m9137d9bc8c" x="245.99952" y="178.38984" style="stroke: #000000; stroke-width: 0.6"/>
      </g>
     </g>
     <g id="text_8">
      <!-- $\mathdefault{−1.2}$ -->
      <g transform="translate(21.2 182.18984) scale(0.1 -0.1)">
       <use xlink:href="#NotoSans-Regular-2212" transform="translate(0 0.59375)"/>
       <use xlink:href="#NotoSans-Regular-31" transform="translate(32.199997 0.59375)"/>
       <use xlink:href="#NotoSans-Regular-2e" transform="translate(89.399994 0.59375)"/>
       <use xlink:href="#NotoSans-Regular-32" transform="translate(116.199982 0.59375)"/>
      </g>
     </g>
    </g>
    <g id="ytick_3">
     <g id="line2d_15">
      <g>
       <use xlink:href="#me2ee00621e" x="42.1" y="155.909201" style="stroke: #000000; stroke-width: 0.6"/>
      </g>
     </g>
     <g id="line2d_16">
      <g>
       <use xlink:href="#m9137d9bc8c" x="245.99952" y="155.909201" style="stroke: #000000; stroke-width: 0.6"/>
      </g>
     </g>
     <g id="text_9">
      <!-- $\mathdefault{−1.0}$ -->
      <g transform="translate(21.2 159.709201) scale(0.1 -0.1)">
       <use xlink:href="#NotoSans-Regular-2212" transform="translate(0 0.5)"/>
       <use xlink:href="#NotoSans-Regular-31" transform="translate(32.199997 0.5)"/>
       <use xlink:href="#NotoSans-Regular-2e" transform="translate(89.399994 0.5)"/>
       <use xlink:href="#NotoSans-Regular-30" transform="translate(116.199982 0.5)"/>
      </g>
     </g>
    </g>
    <g id="ytick_4">
     <g id="line2d_17">
      <g>
       <use xlink:href="#me2ee00621e" x="42.1" y="133.428563" style="stroke: #000000; stroke-width: 0.6"/>
      </g>
     </g>
     <g id="line2d_18">
      <g>
       <use xlink:href="#m9137d9bc8c" x="245.99952" y="133.428563" style="stroke: #000000; stroke-width: 0.6"/>
      </g>
     </g>
     <g id="text_10">
      <!-- $\mathdefault{−0.8}$ -->
      <g transform="translate(21.2 137.228563) scale(0.1 -0.1)">
       <defs>
        <path id="NotoSans-Regular-38" d="M 1824 4634 
Q 2227 4634 2534 4509 
Q 2842 4384 3018 4141 
Q 3194 3898 3194 3539 
Q 3194 3264 3075 3059 
Q 2957 2854 2758 2697 
Q 2560 2541 2323 2419 
Q 2605 2285 2835 2115 
Q 3066 1946 3203 1722 
Q 3341 1498 3341 1184 
Q 3341 800 3155 521 
Q 2970 243 2634 89 
Q 2298 -64 1843 -64 
Q 1350 -64 1008 83 
Q 666 230 490 502 
Q 314 774 314 1165 
Q 314 1478 445 1708 
Q 576 1939 793 2105 
Q 1011 2272 1261 2387 
Q 1037 2515 854 2678 
Q 672 2842 566 3053 
Q 461 3264 461 3546 
Q 461 3898 640 4138 
Q 819 4378 1126 4506 
Q 1434 4634 1824 4634 
z
M 864 1158 
Q 864 826 1101 605 
Q 1338 384 1830 384 
Q 2298 384 2544 605 
Q 2790 826 2790 1178 
Q 2790 1402 2672 1571 
Q 2554 1741 2339 1875 
Q 2125 2010 1830 2118 
L 1728 2157 
Q 1446 2035 1254 1894 
Q 1062 1754 963 1574 
Q 864 1395 864 1158 
z
M 1818 4179 
Q 1466 4179 1238 4009 
Q 1011 3840 1011 3520 
Q 1011 3283 1123 3123 
Q 1235 2963 1427 2851 
Q 1619 2739 1850 2637 
Q 2074 2733 2250 2848 
Q 2426 2963 2531 3126 
Q 2637 3290 2637 3520 
Q 2637 3840 2413 4009 
Q 2189 4179 1818 4179 
z
" transform="scale(0.015625)"/>
       </defs>
       <use xlink:href="#NotoSans-Regular-2212" transform="translate(0 0.5)"/>
       <use xlink:href="#NotoSans-Regular-30" transform="translate(32.199997 0.5)"/>
       <use xlink:href="#NotoSans-Regular-2e" transform="translate(89.399994 0.5)"/>
       <use xlink:href="#NotoSans-Regular-38" transform="translate(116.199982 0.5)"/>
      </g>
     </g>
    </g>
    <g id="ytick_5">
     <g id="line2d_19">
      <g>
       <use xlink:href="#me2ee00621e" x="42.1" y="110.947924" style="stroke: #000000; stroke-width: 0.6"/>
      </g>
     </g>
     <g id="line2d_20">
      <g>
       <use xlink:href="#m9137d9bc8c" x="245.99952" y="110.947924" style="stroke: #000000; stroke-width: 0.6"/>
      </g>
     </g>
     <g id="text_11">
      <!-- $\mathdefault{−0.6}$ -->
      <g transform="translate(21.2 114.747924) scale(0.1 -0.1)">
       <defs>
        <path id="NotoSans-Regular-36" d="M 352 1952 
Q 352 2349 406 2733 
Q 461 3117 595 3459 
Q 730 3802 966 4067 
Q 1203 4333 1564 4483 
Q 1926 4634 2445 4634 
Q 2579 4634 2742 4621 
Q 2906 4608 3008 4576 
L 3008 4096 
Q 2893 4134 2749 4153 
Q 2605 4173 2458 4173 
Q 2016 4173 1721 4025 
Q 1427 3878 1257 3622 
Q 1088 3366 1011 3033 
Q 934 2701 915 2323 
L 954 2323 
Q 1050 2477 1197 2598 
Q 1344 2720 1552 2790 
Q 1760 2861 2035 2861 
Q 2432 2861 2729 2697 
Q 3027 2534 3193 2224 
Q 3360 1914 3360 1472 
Q 3360 998 3181 652 
Q 3002 307 2678 121 
Q 2355 -64 1907 -64 
Q 1581 -64 1299 57 
Q 1018 179 803 428 
Q 589 678 470 1059 
Q 352 1440 352 1952 
z
M 1901 410 
Q 2304 410 2553 669 
Q 2803 928 2803 1472 
Q 2803 1907 2582 2163 
Q 2362 2419 1920 2419 
Q 1619 2419 1395 2294 
Q 1171 2170 1046 1978 
Q 922 1786 922 1581 
Q 922 1370 982 1165 
Q 1043 960 1168 787 
Q 1293 614 1475 512 
Q 1658 410 1901 410 
z
" transform="scale(0.015625)"/>
       </defs>
       <use xlink:href="#NotoSans-Regular-2212" transform="translate(0 0.5)"/>
       <use xlink:href="#NotoSans-Regular-30" transform="translate(32.199997 0.5)"/>
       <use xlink:href="#NotoSans-Regular-2e" transform="translate(89.399994 0.5)"/>
       <use xlink:href="#NotoSans-Regular-36" transform="translate(116.199982 0.5)"/>
      </g>
     </g>
    </g>
    <g id="ytick_6">
     <g id="line2d_21">
      <g>
       <use xlink:href="#me2ee00621e" x="42.1" y="88.467286" style="stroke: #000000; stroke-width: 0.6"/>
      </g>
     </g>
     <g id="line2d_22">
      <g>
       <use xlink:href="#m9137d9bc8c" x="245.99952" y="88.467286" style="stroke: #000000; stroke-width: 0.6"/>
      </g>
     </g>
     <g id="text_12">
      <!-- $\mathdefault{−0.4}$ -->
      <g transform="translate(21.2 92.267286) scale(0.1 -0.1)">
       <use xlink:href="#NotoSans-Regular-2212" transform="translate(0 0.5)"/>
       <use xlink:href="#NotoSans-Regular-30" transform="translate(32.199997 0.5)"/>
       <use xlink:href="#NotoSans-Regular-2e" transform="translate(89.399994 0.5)"/>
       <use xlink:href="#NotoSans-Regular-34" transform="translate(116.199982 0.5)"/>
      </g>
     </g>
    </g>
    <g id="ytick_7">
     <g id="line2d_23">
      <g>
       <use xlink:href="#me2ee00621e" x="42.1" y="65.986648" style="stroke: #000000; stroke-width: 0.6"/>
      </g>
     </g>
     <g id="line2d_24">
      <g>
       <use xlink:href="#m9137d9bc8c" x="245.99952" y="65.986648" style="stroke: #000000; stroke-width: 0.6"/>
      </g>
     </g>
     <g id="text_13">
      <!-- $\mathdefault{−0.2}$ -->
      <g transform="translate(21.2 69.786648) scale(0.1 -0.1)">
       <use xlink:href="#NotoSans-Regular-2212" transform="translate(0 0.5)"/>
       <use xlink:href="#NotoSans-Regular-30" transform="translate(32.199997 0.5)"/>
       <use xlink:href="#NotoSans-Regular-2e" transform="translate(89.399994 0.5)"/>
       <use xlink:href="#NotoSans-Regular-32" transform="translate(116.199982 0.5)"/>
      </g>
     </g>
    </g>
    <g id="ytick_8">
     <g id="line2d_25">
      <g>
       <use xlink:href="#me2ee00621e" x="42.1" y="43.506009" style="stroke: #000000; stroke-width: 0.6"/>
      </g>
     </g>
     <g id="line2d_26">
      <g>
       <use xlink:href="#m9137d9bc8c" x="245.99952" y="43.506009" style="stroke: #000000; stroke-width: 0.6"/>
      </g>
     </g>
     <g id="text_14">
      <!-- $\mathdefault{0.0}$ -->
      <g transform="translate(24.4 47.306009) scale(0.1 -0.1)">
       <use xlink:href="#NotoSans-Regular-30" transform="translate(0 0.5)"/>
       <use xlink:href="#NotoSans-Regular-2e" transform="translate(57.199997 0.5)"/>
       <use xlink:href="#NotoSans-Regular-30" transform="translate(83.999985 0.5)"/>
      </g>
     </g>
    </g>
    <g id="ytick_9">
     <g id="line2d_27">
      <g>
       <use xlink:href="#me2ee00621e" x="42.1" y="21.025371" style="stroke: #000000; stroke-width: 0.6"/>
      </g>
     </g>
     <g id="line2d_28">
      <g>
       <use xlink:href="#m9137d9bc8c" x="245.99952" y="21.025371" style="stroke: #000000; stroke-width: 0.6"/>
      </g>
     </g>
     <g id="text_15">
      <!-- $\mathdefault{0.2}$ -->
      <g transform="translate(24.4 24.825371) scale(0.1 -0.1)">
       <use xlink:href="#NotoSans-Regular-30" transform="translate(0 0.5)"/>
       <use xlink:href="#NotoSans-Regular-2e" transform="translate(57.199997 0.5)"/>
       <use xlink:href="#NotoSans-Regular-32" transform="translate(83.999985 0.5)"/>
      </g>
     </g>
    </g>
    <g id="text_16">
     <!-- $\Delta E$ -->
     <g transform="translate(14.8 123.94976) rotate(-90) scale(0.1 -0.1)">
      <defs>
       <path id="NotoSans-Regular-394" d="M 64 0 
L 64 320 
L 1786 4589 
L 2304 4589 
L 4019 320 
L 4019 0 
L 64 0 
z
M 723 518 
L 3354 518 
L 2285 3309 
Q 2266 3360 2214 3494 
Q 2163 3629 2115 3773 
Q 2067 3917 2042 3994 
Q 2010 3866 1968 3734 
Q 1926 3603 1884 3494 
Q 1843 3386 1818 3309 
L 723 518 
z
" transform="scale(0.015625)"/>
       <path id="NotoSans-Italic-45" d="M 262 0 
L 1229 4570 
L 3546 4570 
L 3437 4064 
L 1690 4064 
L 1389 2637 
L 3021 2637 
L 2925 2138 
L 1286 2138 
L 934 506 
L 2688 506 
L 2579 0 
L 262 0 
z
" transform="scale(0.015625)"/>
      </defs>
      <use xlink:href="#NotoSans-Regular-394" transform="translate(0 0.296875)"/>
      <use xlink:href="#NotoSans-Italic-45" transform="translate(63.899994 0.296875)"/>
     </g>
    </g>
    <g id="text_17">
     <!-- $\times\mathdefault{10^{−3}}\mathdefault{}$ -->
     <g transform="translate(42.1 14.8) scale(0.1 -0.1)">
      <defs>
       <path id="NotoSans-Regular-d7" d="M 2918 3674 
L 3238 3347 
L 2150 2259 
L 3232 1171 
L 2912 845 
L 1818 1926 
L 749 845 
L 416 1171 
L 1498 2259 
L 410 3341 
L 742 3674 
L 1824 2579 
L 2918 3674 
z
" transform="scale(0.015625)"/>
       <path id="NotoSans-Regular-33" d="M 3155 3501 
Q 3155 3194 3040 2970 
Q 2925 2746 2710 2605 
Q 2496 2464 2208 2406 
L 2208 2381 
Q 2758 2317 3027 2035 
Q 3296 1754 3296 1299 
Q 3296 902 3110 592 
Q 2925 282 2537 109 
Q 2150 -64 1542 -64 
Q 1184 -64 877 -9 
Q 570 45 288 186 
L 288 710 
Q 576 570 909 490 
Q 1242 410 1549 410 
Q 2163 410 2435 650 
Q 2707 890 2707 1312 
Q 2707 1600 2556 1776 
Q 2406 1952 2118 2035 
Q 1830 2118 1427 2118 
L 986 2118 
L 986 2598 
L 1434 2598 
Q 1811 2598 2064 2707 
Q 2317 2816 2448 3011 
Q 2579 3206 2579 3462 
Q 2579 3795 2355 3977 
Q 2131 4160 1747 4160 
Q 1504 4160 1305 4112 
Q 1107 4064 937 3977 
Q 768 3891 595 3776 
L 314 4160 
Q 557 4352 918 4493 
Q 1280 4634 1741 4634 
Q 2458 4634 2806 4314 
Q 3155 3994 3155 3501 
z
" transform="scale(0.015625)"/>
      </defs>
      <use xlink:href="#NotoSans-Regular-d7" transform="translate(0 0.8)"/>
      <use xlink:href="#NotoSans-Regular-31" transform="translate(57.199997 0.8)"/>
      <use xlink:href="#NotoSans-Regular-30" transform="translate(114.399994 0.8)"/>
      <use xlink:href="#NotoSans-Regular-2212" transform="translate(172.537881 38.315625) scale(0.7)"/>
      <use xlink:href="#NotoSans-Regular-33" transform="translate(195.077879 38.315625) scale(0.7)"/>
     </g>
    </g>
   </g>
   <g id="line2d_29">
    <path d="M 70.232417 29.104146 
L 70.358996 26.922705 
L 70.978256 29.51686 
L 72.087167 28.852219 
L 73.680304 29.264932 
L 75.749875 33.89583 
L 78.285754 34.957078 
L 81.275537 27.67842 
L 84.704597 32.057414 
L 88.55616 36.70975 
L 92.811385 38.510648 
L 97.449455 43.640005 
L 102.447681 38.612483 
L 107.781612 40.043557 
L 113.425155 53.025054 
L 119.350702 64.22176 
L 125.529266 74.710956 
L 131.930622 87.531619 
L 138.523455 97.039997 
L 145.275513 112.047587 
L 152.153766 128.078733 
L 159.124565 140.792197 
L 166.153811 151.855167 
L 173.207116 163.968308 
L 180.249977 171.686451 
L 187.24794 178.096692 
L 194.166771 190.413497 
L 200.972625 197.456456 
L 207.632208 199.605493 
L 214.112941 203.148554 
L 220.383121 204.927896 
L 226.412076 207.441681 
L 232.170311 208.701384 
L 237.629658 209.376815 
" clip-path="url(#pfe954df040)" style="fill: none; stroke: #1f77b4; stroke-linecap: square"/>
   </g>
   <g id="patch_3">
    <path d="M 42.1 218.49952 
L 42.1 17.8 
" style="fill: none; stroke: #000000; stroke-width: 0.6; stroke-linejoin: miter; stroke-linecap: square"/>
   </g>
   <g id="patch_4">
    <path d="M 245.99952 218.49952 
L 245.99952 17.8 
" style="fill: none; stroke: #000000; stroke-width: 0.6; stroke-linejoin: miter; stroke-linecap: square"/>
   </g>
   <g id="patch_5">
    <path d="M 42.1 218.49952 
L 245.99952 218.49952 
" style="fill: none; stroke: #000000; stroke-width: 0.6; stroke-linejoin: miter; stroke-linecap: square"/>
   </g>
   <g id="patch_6">
    <path d="M 42.1 17.8 
L 245.99952 17.8 
" style="fill: none; stroke: #000000; stroke-width: 0.6; stroke-linejoin: miter; stroke-linecap: square"/>
   </g>
  </g>
 </g>
 <defs>
  <clipPath id="pfe954df040">
   <rect x="42.1" y="17.8" width="203.89952" height="200.69952"/>
  </clipPath>
 </defs>
</svg>
