<?xml version="1.0" encoding="utf-8" standalone="no"?>
<!DOCTYPE svg PUBLIC "-//W3C//DTD SVG 1.1//EN"
  "http://www.w3.org/Graphics/SVG/1.1/DTD/svg11.dtd">
<svg xmlns:xlink="http://www.w3.org/1999/xlink" width="475.230048pt" height="256.376pt" viewBox="0 0 475.230048 256.376" xmlns="http://www.w3.org/2000/svg" version="1.1">
 <metadata>
  <rdf:RDF xmlns:dc="http://purl.org/dc/elements/1.1/" xmlns:cc="http://creativecommons.org/ns#" xmlns:rdf="http://www.w3.org/1999/02/22-rdf-syntax-ns#">
   <cc:Work>
    <dc:type rdf:resource="http://purl.org/dc/dcmitype/StillImage"/>
    <dc:date>2024-07-06T12:10:42.276560</dc:date>
    <dc:format>image/svg+xml</dc:format>
    <dc:creator>
     <cc:Agent>
      <dc:title>Matplotlib v3.9.0, https://matplotlib.org/</dc:title>
     </cc:Agent>
    </dc:creator>
   </cc:Work>
  </rdf:RDF>
 </metadata>
 <defs>
  <style type="text/css">*{stroke-linejoin: round; stroke-linecap: butt}</style>
 </defs>
 <g id="figure_1">
  <g id="patch_1">
   <path d="M -0 256.376 
L 475.230048 256.376 
L 475.230048 0 
L -0 0 
z
" style="fill: #ffffff"/>
  </g>
  <g id="axes_1">
   <g id="patch_2">
    <path d="M 33.7 221.576 
L 242.247376 221.576 
L 242.247376 18.8 
L 33.7 18.8 
z
" style="fill: #ffffff"/>
   </g>
   <g id="PolyCollection_1"/>
   <g id="PolyCollection_2"/>
   <g id="PolyCollection_3"/>
   <g id="PolyCollection_4"/>
   <g id="PolyCollection_5"/>
   <g id="PolyCollection_6"/>
   <g id="PolyCollection_7"/>
   <g id="matplotlib.axis_1">
    <g id="xtick_1">
     <g id="line2d_1">
      <defs>
       <path id="mf588aeb8e4" d="M 0 0 
L 0 -4 
" style="stroke: #000000; stroke-width: 0.6"/>
      </defs>
      <g>
       <use xlink:href="#mf588aeb8e4" x="67.346387" y="221.576" style="stroke: #000000; stroke-width: 0.6"/>
      </g>
     </g>
     <g id="line2d_2">
      <defs>
       <path id="m8f66fd2e5d" d="M 0 0 
L 0 4 
" style="stroke: #000000; stroke-width: 0.6"/>
      </defs>
      <g>
       <use xlink:href="#m8f66fd2e5d" x="67.346387" y="18.8" style="stroke: #000000; stroke-width: 0.6"/>
      </g>
     </g>
     <g id="text_1">
      <!-- $\mathdefault{0.5}$ -->
      <g transform="translate(60.246387 232.676) scale(0.1 -0.1)">
       <defs>
        <path id="NotoSans-Regular-30" d="M 3347 2291 
Q 3347 1734 3264 1299 
Q 3181 864 2998 560 
Q 2816 256 2525 96 
Q 2234 -64 1824 -64 
Q 1312 -64 976 217 
Q 640 499 477 1027 
Q 314 1555 314 2291 
Q 314 3034 464 3558 
Q 614 4083 947 4361 
Q 1280 4640 1824 4640 
Q 2336 4640 2675 4361 
Q 3014 4083 3180 3558 
Q 3347 3034 3347 2291 
z
M 877 2291 
Q 877 1664 969 1248 
Q 1062 832 1270 624 
Q 1478 416 1824 416 
Q 2170 416 2378 621 
Q 2586 826 2682 1245 
Q 2778 1664 2778 2291 
Q 2778 2918 2682 3331 
Q 2586 3744 2378 3952 
Q 2170 4160 1824 4160 
Q 1478 4160 1270 3952 
Q 1062 3744 969 3331 
Q 877 2918 877 2291 
z
" transform="scale(0.015625)"/>
        <path id="NotoSans-Regular-2e" d="M 461 346 
Q 461 582 576 678 
Q 691 774 851 774 
Q 1018 774 1136 678 
Q 1254 582 1254 346 
Q 1254 115 1136 12 
Q 1018 -90 851 -90 
Q 691 -90 576 12 
Q 461 115 461 346 
z
" transform="scale(0.015625)"/>
        <path id="NotoSans-Regular-35" d="M 1760 2803 
Q 2227 2803 2572 2643 
Q 2918 2483 3107 2185 
Q 3296 1888 3296 1459 
Q 3296 986 3091 643 
Q 2886 301 2505 118 
Q 2125 -64 1587 -64 
Q 1235 -64 924 0 
Q 614 64 403 186 
L 403 717 
Q 634 576 963 496 
Q 1293 416 1594 416 
Q 1933 416 2185 521 
Q 2438 627 2579 848 
Q 2720 1069 2720 1402 
Q 2720 1850 2445 2090 
Q 2170 2330 1574 2330 
Q 1395 2330 1164 2298 
Q 934 2266 794 2234 
L 512 2413 
L 685 4570 
L 2976 4570 
L 2976 4058 
L 1165 4058 
L 1056 2733 
Q 1165 2752 1350 2777 
Q 1536 2803 1760 2803 
z
" transform="scale(0.015625)"/>
       </defs>
       <use xlink:href="#NotoSans-Regular-30" transform="translate(0 0.5)"/>
       <use xlink:href="#NotoSans-Regular-2e" transform="translate(57.199997 0.5)"/>
       <use xlink:href="#NotoSans-Regular-35" transform="translate(83.999985 0.5)"/>
      </g>
     </g>
    </g>
    <g id="xtick_2">
     <g id="line2d_3">
      <g>
       <use xlink:href="#mf588aeb8e4" x="113.81788" y="221.576" style="stroke: #000000; stroke-width: 0.6"/>
      </g>
     </g>
     <g id="line2d_4">
      <g>
       <use xlink:href="#m8f66fd2e5d" x="113.81788" y="18.8" style="stroke: #000000; stroke-width: 0.6"/>
      </g>
     </g>
     <g id="text_2">
      <!-- $\mathdefault{1.0}$ -->
      <g transform="translate(106.71788 232.676) scale(0.1 -0.1)">
       <defs>
        <path id="NotoSans-Regular-31" d="M 2272 0 
L 1722 0 
L 1722 3194 
Q 1722 3379 1725 3507 
Q 1728 3635 1734 3747 
Q 1741 3859 1747 3981 
Q 1645 3878 1561 3808 
Q 1478 3738 1350 3629 
L 864 3232 
L 570 3610 
L 1805 4570 
L 2272 4570 
L 2272 0 
z
" transform="scale(0.015625)"/>
       </defs>
       <use xlink:href="#NotoSans-Regular-31" transform="translate(0 0.5)"/>
       <use xlink:href="#NotoSans-Regular-2e" transform="translate(57.199997 0.5)"/>
       <use xlink:href="#NotoSans-Regular-30" transform="translate(83.999985 0.5)"/>
      </g>
     </g>
    </g>
    <g id="xtick_3">
     <g id="line2d_5">
      <g>
       <use xlink:href="#mf588aeb8e4" x="160.289372" y="221.576" style="stroke: #000000; stroke-width: 0.6"/>
      </g>
     </g>
     <g id="line2d_6">
      <g>
       <use xlink:href="#m8f66fd2e5d" x="160.289372" y="18.8" style="stroke: #000000; stroke-width: 0.6"/>
      </g>
     </g>
     <g id="text_3">
      <!-- $\mathdefault{1.5}$ -->
      <g transform="translate(153.189372 232.676) scale(0.1 -0.1)">
       <use xlink:href="#NotoSans-Regular-31" transform="translate(0 0.59375)"/>
       <use xlink:href="#NotoSans-Regular-2e" transform="translate(57.199997 0.59375)"/>
       <use xlink:href="#NotoSans-Regular-35" transform="translate(83.999985 0.59375)"/>
      </g>
     </g>
    </g>
    <g id="xtick_4">
     <g id="line2d_7">
      <g>
       <use xlink:href="#mf588aeb8e4" x="206.760865" y="221.576" style="stroke: #000000; stroke-width: 0.6"/>
      </g>
     </g>
     <g id="line2d_8">
      <g>
       <use xlink:href="#m8f66fd2e5d" x="206.760865" y="18.8" style="stroke: #000000; stroke-width: 0.6"/>
      </g>
     </g>
     <g id="text_4">
      <!-- $\mathdefault{2.0}$ -->
      <g transform="translate(199.660865 232.676) scale(0.1 -0.1)">
       <defs>
        <path id="NotoSans-Regular-32" d="M 3328 0 
L 307 0 
L 307 467 
L 1504 1677 
Q 1850 2022 2086 2291 
Q 2323 2560 2444 2819 
Q 2566 3078 2566 3386 
Q 2566 3763 2342 3958 
Q 2118 4154 1760 4154 
Q 1427 4154 1174 4038 
Q 922 3923 659 3718 
L 358 4096 
Q 538 4250 752 4371 
Q 966 4493 1219 4563 
Q 1472 4634 1760 4634 
Q 2189 4634 2496 4486 
Q 2803 4339 2972 4067 
Q 3142 3795 3142 3418 
Q 3142 3059 2995 2745 
Q 2848 2432 2585 2128 
Q 2323 1824 1971 1478 
L 1018 538 
L 1018 512 
L 3328 512 
L 3328 0 
z
" transform="scale(0.015625)"/>
       </defs>
       <use xlink:href="#NotoSans-Regular-32" transform="translate(0 0.5)"/>
       <use xlink:href="#NotoSans-Regular-2e" transform="translate(57.199997 0.5)"/>
       <use xlink:href="#NotoSans-Regular-30" transform="translate(83.999985 0.5)"/>
      </g>
     </g>
    </g>
    <g id="text_5">
     <!-- $f$ (THz) -->
     <g transform="translate(123.223688 246.776) scale(0.1 -0.1)">
      <defs>
       <path id="NotoSans-Italic-66" d="M -307 -1536 
Q -429 -1536 -531 -1517 
Q -634 -1498 -717 -1472 
L -717 -998 
Q -627 -1024 -544 -1046 
Q -461 -1069 -358 -1069 
Q -128 -1069 0 -880 
Q 128 -691 205 -339 
L 909 3002 
L 314 3002 
L 358 3238 
L 998 3450 
L 1069 3757 
Q 1146 4083 1248 4304 
Q 1350 4525 1488 4656 
Q 1626 4787 1811 4841 
Q 1997 4896 2234 4896 
Q 2394 4896 2563 4861 
Q 2733 4826 2835 4774 
L 2688 4346 
Q 2598 4378 2492 4406 
Q 2387 4435 2259 4435 
Q 2010 4435 1866 4294 
Q 1722 4154 1632 3757 
L 1555 3430 
L 2291 3430 
L 2208 3002 
L 1472 3002 
L 755 -403 
Q 678 -755 547 -1011 
Q 416 -1267 208 -1401 
Q 0 -1536 -307 -1536 
z
" transform="scale(0.015625)"/>
       <path id="NotoSans-Regular-20" transform="scale(0.015625)"/>
       <path id="NotoSans-Regular-28" d="M 256 1754 
Q 256 2278 355 2777 
Q 454 3277 665 3731 
Q 877 4186 1197 4570 
L 1728 4570 
Q 1280 3968 1053 3245 
Q 826 2522 826 1760 
Q 826 1267 928 780 
Q 1030 294 1228 -157 
Q 1427 -608 1722 -1011 
L 1197 -1011 
Q 877 -634 665 -189 
Q 454 256 355 749 
Q 256 1242 256 1754 
z
" transform="scale(0.015625)"/>
       <path id="NotoSans-Regular-54" d="M 2067 0 
L 1491 0 
L 1491 4064 
L 64 4064 
L 64 4570 
L 3488 4570 
L 3488 4064 
L 2067 4064 
L 2067 0 
z
" transform="scale(0.015625)"/>
       <path id="NotoSans-Regular-48" d="M 4115 0 
L 3539 0 
L 3539 2131 
L 1197 2131 
L 1197 0 
L 621 0 
L 621 4570 
L 1197 4570 
L 1197 2637 
L 3539 2637 
L 3539 4570 
L 4115 4570 
L 4115 0 
z
" transform="scale(0.015625)"/>
       <path id="NotoSans-Regular-7a" d="M 2758 0 
L 250 0 
L 250 371 
L 2093 2995 
L 358 2995 
L 358 3430 
L 2714 3430 
L 2714 3008 
L 896 435 
L 2758 435 
L 2758 0 
z
" transform="scale(0.015625)"/>
       <path id="NotoSans-Regular-29" d="M 1664 1754 
Q 1664 1242 1565 749 
Q 1466 256 1258 -189 
Q 1050 -634 723 -1011 
L 198 -1011 
Q 493 -608 691 -157 
Q 890 294 992 780 
Q 1094 1267 1094 1760 
Q 1094 2266 992 2758 
Q 890 3251 691 3712 
Q 493 4173 192 4570 
L 723 4570 
Q 1050 4186 1258 3731 
Q 1466 3277 1565 2777 
Q 1664 2278 1664 1754 
z
" transform="scale(0.015625)"/>
      </defs>
      <use xlink:href="#NotoSans-Italic-66" transform="translate(0 0.5)"/>
      <use xlink:href="#NotoSans-Regular-20" transform="translate(31.799988 0.5)"/>
      <use xlink:href="#NotoSans-Regular-28" transform="translate(57.799973 0.5)"/>
      <use xlink:href="#NotoSans-Regular-54" transform="translate(87.799957 0.5)"/>
      <use xlink:href="#NotoSans-Regular-48" transform="translate(143.399948 0.5)"/>
      <use xlink:href="#NotoSans-Regular-7a" transform="translate(217.499939 0.5)"/>
      <use xlink:href="#NotoSans-Regular-29" transform="translate(264.499924 0.5)"/>
     </g>
    </g>
   </g>
   <g id="matplotlib.axis_2">
    <g id="ytick_1">
     <g id="line2d_9">
      <defs>
       <path id="m99f2c21dcb" d="M 0 0 
L 4 0 
" style="stroke: #000000; stroke-width: 0.6"/>
      </defs>
      <g>
       <use xlink:href="#m99f2c21dcb" x="33.7" y="198.419348" style="stroke: #000000; stroke-width: 0.6"/>
      </g>
     </g>
     <g id="line2d_10">
      <defs>
       <path id="mcd65e54aea" d="M 0 0 
L -4 0 
" style="stroke: #000000; stroke-width: 0.6"/>
      </defs>
      <g>
       <use xlink:href="#mcd65e54aea" x="242.247376" y="198.419348" style="stroke: #000000; stroke-width: 0.6"/>
      </g>
     </g>
     <g id="text_6">
      <!-- $\mathdefault{−2}$ -->
      <g transform="translate(21.2 202.219348) scale(0.1 -0.1)">
       <defs>
        <path id="NotoSans-Regular-2212" d="M 256 1466 
L 256 1965 
L 1805 1965 
L 1805 1466 
L 256 1466 
z
" transform="scale(0.015625)"/>
       </defs>
       <use xlink:href="#NotoSans-Regular-2212" transform="translate(0 0.59375)"/>
       <use xlink:href="#NotoSans-Regular-32" transform="translate(32.199997 0.59375)"/>
      </g>
     </g>
    </g>
    <g id="ytick_2">
     <g id="line2d_11">
      <g>
       <use xlink:href="#m99f2c21dcb" x="33.7" y="165.612282" style="stroke: #000000; stroke-width: 0.6"/>
      </g>
     </g>
     <g id="line2d_12">
      <g>
       <use xlink:href="#mcd65e54aea" x="242.247376" y="165.612282" style="stroke: #000000; stroke-width: 0.6"/>
      </g>
     </g>
     <g id="text_7">
      <!-- $\mathdefault{0}$ -->
      <g transform="translate(24.4 169.412282) scale(0.1 -0.1)">
       <use xlink:href="#NotoSans-Regular-30" transform="translate(0 0.5)"/>
      </g>
     </g>
    </g>
    <g id="ytick_3">
     <g id="line2d_13">
      <g>
       <use xlink:href="#m99f2c21dcb" x="33.7" y="132.805216" style="stroke: #000000; stroke-width: 0.6"/>
      </g>
     </g>
     <g id="line2d_14">
      <g>
       <use xlink:href="#mcd65e54aea" x="242.247376" y="132.805216" style="stroke: #000000; stroke-width: 0.6"/>
      </g>
     </g>
     <g id="text_8">
      <!-- $\mathdefault{2}$ -->
      <g transform="translate(24.4 136.605216) scale(0.1 -0.1)">
       <use xlink:href="#NotoSans-Regular-32" transform="translate(0 0.59375)"/>
      </g>
     </g>
    </g>
    <g id="ytick_4">
     <g id="line2d_15">
      <g>
       <use xlink:href="#m99f2c21dcb" x="33.7" y="99.998149" style="stroke: #000000; stroke-width: 0.6"/>
      </g>
     </g>
     <g id="line2d_16">
      <g>
       <use xlink:href="#mcd65e54aea" x="242.247376" y="99.998149" style="stroke: #000000; stroke-width: 0.6"/>
      </g>
     </g>
     <g id="text_9">
      <!-- $\mathdefault{4}$ -->
      <g transform="translate(24.4 103.798149) scale(0.1 -0.1)">
       <defs>
        <path id="NotoSans-Regular-34" d="M 3533 1037 
L 2867 1037 
L 2867 0 
L 2323 0 
L 2323 1037 
L 134 1037 
L 134 1517 
L 2285 4595 
L 2867 4595 
L 2867 1542 
L 3533 1542 
L 3533 1037 
z
M 2323 2982 
Q 2323 3149 2326 3286 
Q 2330 3424 2336 3545 
Q 2342 3667 2345 3779 
Q 2349 3891 2355 3994 
L 2330 3994 
Q 2278 3872 2201 3731 
Q 2125 3590 2054 3494 
L 685 1542 
L 2323 1542 
L 2323 2982 
z
" transform="scale(0.015625)"/>
       </defs>
       <use xlink:href="#NotoSans-Regular-34" transform="translate(0 0.203125)"/>
      </g>
     </g>
    </g>
    <g id="ytick_5">
     <g id="line2d_17">
      <g>
       <use xlink:href="#m99f2c21dcb" x="33.7" y="67.191083" style="stroke: #000000; stroke-width: 0.6"/>
      </g>
     </g>
     <g id="line2d_18">
      <g>
       <use xlink:href="#mcd65e54aea" x="242.247376" y="67.191083" style="stroke: #000000; stroke-width: 0.6"/>
      </g>
     </g>
     <g id="text_10">
      <!-- $\mathdefault{6}$ -->
      <g transform="translate(24.4 70.991083) scale(0.1 -0.1)">
       <defs>
        <path id="NotoSans-Regular-36" d="M 352 1952 
Q 352 2349 406 2733 
Q 461 3117 595 3459 
Q 730 3802 966 4067 
Q 1203 4333 1564 4483 
Q 1926 4634 2445 4634 
Q 2579 4634 2742 4621 
Q 2906 4608 3008 4576 
L 3008 4096 
Q 2893 4134 2749 4153 
Q 2605 4173 2458 4173 
Q 2016 4173 1721 4025 
Q 1427 3878 1257 3622 
Q 1088 3366 1011 3033 
Q 934 2701 915 2323 
L 954 2323 
Q 1050 2477 1197 2598 
Q 1344 2720 1552 2790 
Q 1760 2861 2035 2861 
Q 2432 2861 2729 2697 
Q 3027 2534 3193 2224 
Q 3360 1914 3360 1472 
Q 3360 998 3181 652 
Q 3002 307 2678 121 
Q 2355 -64 1907 -64 
Q 1581 -64 1299 57 
Q 1018 179 803 428 
Q 589 678 470 1059 
Q 352 1440 352 1952 
z
M 1901 410 
Q 2304 410 2553 669 
Q 2803 928 2803 1472 
Q 2803 1907 2582 2163 
Q 2362 2419 1920 2419 
Q 1619 2419 1395 2294 
Q 1171 2170 1046 1978 
Q 922 1786 922 1581 
Q 922 1370 982 1165 
Q 1043 960 1168 787 
Q 1293 614 1475 512 
Q 1658 410 1901 410 
z
" transform="scale(0.015625)"/>
       </defs>
       <use xlink:href="#NotoSans-Regular-36" transform="translate(0 0.59375)"/>
      </g>
     </g>
    </g>
    <g id="ytick_6">
     <g id="line2d_19">
      <g>
       <use xlink:href="#m99f2c21dcb" x="33.7" y="34.384016" style="stroke: #000000; stroke-width: 0.6"/>
      </g>
     </g>
     <g id="line2d_20">
      <g>
       <use xlink:href="#mcd65e54aea" x="242.247376" y="34.384016" style="stroke: #000000; stroke-width: 0.6"/>
      </g>
     </g>
     <g id="text_11">
      <!-- $\mathdefault{8}$ -->
      <g transform="translate(24.4 38.184016) scale(0.1 -0.1)">
       <defs>
        <path id="NotoSans-Regular-38" d="M 1824 4634 
Q 2227 4634 2534 4509 
Q 2842 4384 3018 4141 
Q 3194 3898 3194 3539 
Q 3194 3264 3075 3059 
Q 2957 2854 2758 2697 
Q 2560 2541 2323 2419 
Q 2605 2285 2835 2115 
Q 3066 1946 3203 1722 
Q 3341 1498 3341 1184 
Q 3341 800 3155 521 
Q 2970 243 2634 89 
Q 2298 -64 1843 -64 
Q 1350 -64 1008 83 
Q 666 230 490 502 
Q 314 774 314 1165 
Q 314 1478 445 1708 
Q 576 1939 793 2105 
Q 1011 2272 1261 2387 
Q 1037 2515 854 2678 
Q 672 2842 566 3053 
Q 461 3264 461 3546 
Q 461 3898 640 4138 
Q 819 4378 1126 4506 
Q 1434 4634 1824 4634 
z
M 864 1158 
Q 864 826 1101 605 
Q 1338 384 1830 384 
Q 2298 384 2544 605 
Q 2790 826 2790 1178 
Q 2790 1402 2672 1571 
Q 2554 1741 2339 1875 
Q 2125 2010 1830 2118 
L 1728 2157 
Q 1446 2035 1254 1894 
Q 1062 1754 963 1574 
Q 864 1395 864 1158 
z
M 1818 4179 
Q 1466 4179 1238 4009 
Q 1011 3840 1011 3520 
Q 1011 3283 1123 3123 
Q 1235 2963 1427 2851 
Q 1619 2739 1850 2637 
Q 2074 2733 2250 2848 
Q 2426 2963 2531 3126 
Q 2637 3290 2637 3520 
Q 2637 3840 2413 4009 
Q 2189 4179 1818 4179 
z
" transform="scale(0.015625)"/>
       </defs>
       <use xlink:href="#NotoSans-Regular-38" transform="translate(0 0.59375)"/>
      </g>
     </g>
    </g>
    <g id="text_12">
     <!-- $\Delta \sigma$ (S/m) -->
     <g transform="translate(14.8 139.788) rotate(-90) scale(0.1 -0.1)">
      <defs>
       <path id="NotoSans-Regular-394" d="M 64 0 
L 64 320 
L 1786 4589 
L 2304 4589 
L 4019 320 
L 4019 0 
L 64 0 
z
M 723 518 
L 3354 518 
L 2285 3309 
Q 2266 3360 2214 3494 
Q 2163 3629 2115 3773 
Q 2067 3917 2042 3994 
Q 2010 3866 1968 3734 
Q 1926 3603 1884 3494 
Q 1843 3386 1818 3309 
L 723 518 
z
" transform="scale(0.015625)"/>
       <path id="NotoSans-Italic-3c3" d="M 1517 -64 
Q 1082 -64 787 163 
Q 493 390 377 803 
Q 262 1216 352 1766 
Q 461 2413 733 2774 
Q 1005 3136 1421 3283 
Q 1837 3430 2355 3430 
L 3808 3430 
L 3706 2950 
L 3002 2950 
Q 3200 2714 3270 2374 
Q 3341 2035 3264 1574 
Q 3206 1229 3062 928 
Q 2918 627 2694 406 
Q 2470 186 2176 61 
Q 1882 -64 1517 -64 
z
M 1613 403 
Q 2080 403 2342 729 
Q 2605 1056 2682 1562 
Q 2733 1837 2723 2083 
Q 2714 2330 2650 2547 
Q 2586 2765 2464 2950 
L 2266 2950 
Q 1888 2950 1616 2838 
Q 1344 2726 1171 2457 
Q 998 2189 922 1702 
Q 870 1344 918 1046 
Q 966 749 1136 576 
Q 1306 403 1613 403 
z
" transform="scale(0.015625)"/>
       <path id="NotoSans-Regular-53" d="M 3213 1222 
Q 3213 813 3014 528 
Q 2816 243 2448 89 
Q 2080 -64 1581 -64 
Q 1325 -64 1091 -38 
Q 858 -13 666 35 
Q 474 83 326 154 
L 326 704 
Q 557 602 899 518 
Q 1242 435 1606 435 
Q 1946 435 2176 524 
Q 2406 614 2521 780 
Q 2637 947 2637 1171 
Q 2637 1395 2541 1548 
Q 2445 1702 2211 1833 
Q 1978 1965 1562 2112 
Q 1267 2221 1046 2345 
Q 826 2470 678 2630 
Q 531 2790 457 2995 
Q 384 3200 384 3469 
Q 384 3834 569 4093 
Q 755 4352 1084 4493 
Q 1414 4634 1843 4634 
Q 2221 4634 2534 4563 
Q 2848 4493 3104 4378 
L 2925 3885 
Q 2688 3987 2409 4057 
Q 2131 4128 1830 4128 
Q 1542 4128 1350 4045 
Q 1158 3962 1062 3811 
Q 966 3661 966 3462 
Q 966 3232 1062 3078 
Q 1158 2925 1376 2803 
Q 1594 2682 1965 2541 
Q 2368 2394 2646 2224 
Q 2925 2054 3069 1817 
Q 3213 1581 3213 1222 
z
" transform="scale(0.015625)"/>
       <path id="NotoSans-Regular-2f" d="M 2317 4570 
L 614 0 
L 64 0 
L 1766 4570 
L 2317 4570 
z
" transform="scale(0.015625)"/>
       <path id="NotoSans-Regular-6d" d="M 4307 3494 
Q 4890 3494 5178 3196 
Q 5466 2899 5466 2234 
L 5466 0 
L 4909 0 
L 4909 2208 
Q 4909 2611 4739 2816 
Q 4570 3021 4211 3021 
Q 3712 3021 3497 2733 
Q 3283 2445 3283 1894 
L 3283 0 
L 2726 0 
L 2726 2208 
Q 2726 2477 2649 2659 
Q 2573 2842 2419 2931 
Q 2266 3021 2022 3021 
Q 1677 3021 1478 2877 
Q 1280 2733 1193 2457 
Q 1107 2182 1107 1779 
L 1107 0 
L 544 0 
L 544 3430 
L 998 3430 
L 1082 2963 
L 1114 2963 
Q 1222 3142 1379 3260 
Q 1536 3379 1728 3436 
Q 1920 3494 2125 3494 
Q 2522 3494 2787 3353 
Q 3053 3213 3174 2918 
L 3206 2918 
Q 3379 3213 3676 3353 
Q 3974 3494 4307 3494 
z
" transform="scale(0.015625)"/>
      </defs>
      <use xlink:href="#NotoSans-Regular-394" transform="translate(0 0.59375)"/>
      <use xlink:href="#NotoSans-Italic-3c3" transform="translate(63.899994 0.59375)"/>
      <use xlink:href="#NotoSans-Regular-20" transform="translate(119.499985 0.59375)"/>
      <use xlink:href="#NotoSans-Regular-28" transform="translate(145.499969 0.59375)"/>
      <use xlink:href="#NotoSans-Regular-53" transform="translate(175.499954 0.59375)"/>
      <use xlink:href="#NotoSans-Regular-2f" transform="translate(230.399948 0.59375)"/>
      <use xlink:href="#NotoSans-Regular-6d" transform="translate(267.599945 0.59375)"/>
      <use xlink:href="#NotoSans-Regular-29" transform="translate(361.09993 0.59375)"/>
     </g>
    </g>
    <g id="text_13">
     <!-- $\times\mathdefault{10^{4}}\mathdefault{}$ -->
     <g transform="translate(33.7 15.8) scale(0.1 -0.1)">
      <defs>
       <path id="NotoSans-Regular-d7" d="M 2918 3674 
L 3238 3347 
L 2150 2259 
L 3232 1171 
L 2912 845 
L 1818 1926 
L 749 845 
L 416 1171 
L 1498 2259 
L 410 3341 
L 742 3674 
L 1824 2579 
L 2918 3674 
z
" transform="scale(0.015625)"/>
      </defs>
      <use xlink:href="#NotoSans-Regular-d7" transform="translate(0 0.226562)"/>
      <use xlink:href="#NotoSans-Regular-31" transform="translate(57.199997 0.226562)"/>
      <use xlink:href="#NotoSans-Regular-30" transform="translate(114.399994 0.226562)"/>
      <use xlink:href="#NotoSans-Regular-34" transform="translate(172.537881 37.742188) scale(0.7)"/>
     </g>
    </g>
   </g>
   <g id="line2d_21">
    <path d="M 43.179426 163.334877 
L 46.896848 165.936158 
L 50.61427 164.165701 
L 54.331692 163.589561 
L 58.049114 163.794205 
L 61.766536 163.401001 
L 65.483958 162.631561 
L 69.20138 163.28363 
L 72.918802 163.74308 
L 76.636224 161.744783 
L 80.353646 158.458014 
L 84.071069 157.882973 
L 87.788491 160.16557 
L 91.505913 162.988051 
L 95.223335 162.500522 
L 98.940757 159.820467 
L 102.658179 158.918604 
L 106.375601 160.474868 
L 110.093023 162.556488 
L 113.810445 164.160006 
L 117.527867 165.553212 
L 121.245289 166.237539 
L 124.962711 164.915096 
L 128.680133 161.925171 
L 132.397555 160.052594 
L 136.114977 160.687136 
L 139.832399 162.616538 
L 143.549821 163.389171 
L 147.267243 162.570213 
L 150.984665 161.74587 
L 154.702087 162.066915 
L 158.419509 162.613001 
L 162.136931 162.410596 
L 165.854353 162.535111 
L 169.571775 164.081834 
L 173.289197 166.265595 
L 177.006619 167.89822 
L 180.724041 169.038134 
L 184.441463 170.366955 
L 188.158885 171.041889 
L 191.876307 170.405482 
L 195.593729 168.450707 
L 199.311151 167.881971 
L 203.028573 170.489947 
L 206.745995 172.352424 
L 210.463418 168.558997 
L 214.18084 159.079995 
L 217.898262 153.778712 
L 221.615684 164.070329 
L 225.333106 183.037693 
L 229.050528 185.38285 
L 232.76795 164.35727 
" clip-path="url(#pd113f4815e)" style="fill: none; stroke: #9e0142; stroke-linecap: square"/>
   </g>
   <g id="line2d_22">
    <path d="M 43.179426 160.491144 
L 46.896848 154.718259 
L 50.61427 153.162564 
L 54.331692 156.358825 
L 58.049114 159.856248 
L 61.766536 161.227524 
L 65.483958 161.844116 
L 69.20138 161.803506 
L 72.918802 160.728423 
L 76.636224 158.868512 
L 80.353646 160.230332 
L 84.071069 162.64378 
L 87.788491 160.891869 
L 91.505913 157.990023 
L 95.223335 157.835764 
L 98.940757 158.635003 
L 102.658179 157.768139 
L 106.375601 156.426221 
L 110.093023 157.400007 
L 113.810445 159.693683 
L 117.527867 160.65451 
L 121.245289 160.527337 
L 124.962711 161.057494 
L 128.680133 162.324243 
L 132.397555 162.294048 
L 136.114977 160.483773 
L 139.832399 158.666039 
L 143.549821 158.748827 
L 147.267243 160.713637 
L 150.984665 163.400082 
L 154.702087 165.415476 
L 158.419509 165.559215 
L 162.136931 163.459564 
L 165.854353 159.985808 
L 169.571775 157.604276 
L 173.289197 157.918222 
L 177.006619 161.058234 
L 180.724041 163.752927 
L 184.441463 163.369831 
L 188.158885 161.208315 
L 191.876307 158.646116 
L 195.593729 157.683454 
L 199.311151 158.080871 
L 203.028573 157.563712 
L 206.745995 154.390267 
L 210.463418 148.90873 
L 214.18084 145.139039 
L 217.898262 147.933972 
L 221.615684 160.619662 
L 225.333106 171.775246 
L 229.050528 160.828037 
L 232.76795 130.119986 
" clip-path="url(#pd113f4815e)" style="fill: none; stroke: #ed6246; stroke-linecap: square"/>
   </g>
   <g id="line2d_23">
    <path d="M 43.179426 146.859182 
L 46.896848 149.911523 
L 50.61427 146.488914 
L 54.331692 142.442486 
L 58.049114 139.909495 
L 61.766536 141.940449 
L 65.483958 140.502261 
L 69.20138 136.238504 
L 72.918802 138.303772 
L 76.636224 139.622654 
L 80.353646 139.866763 
L 84.071069 140.081001 
L 87.788491 138.471759 
L 91.505913 140.931004 
L 95.223335 143.14288 
L 98.940757 142.459955 
L 102.658179 142.308932 
L 106.375601 143.23547 
L 110.093023 144.699348 
L 113.810445 146.1938 
L 117.527867 147.412708 
L 121.245289 147.913228 
L 124.962711 147.9837 
L 128.680133 148.329444 
L 132.397555 148.612198 
L 136.114977 148.887965 
L 139.832399 149.760071 
L 143.549821 150.827789 
L 147.267243 150.923558 
L 150.984665 150.119918 
L 154.702087 150.254874 
L 158.419509 151.861596 
L 162.136931 153.968837 
L 165.854353 156.462357 
L 169.571775 158.142933 
L 173.289197 159.118621 
L 177.006619 160.815983 
L 180.724041 162.588345 
L 184.441463 163.440077 
L 188.158885 163.795995 
L 191.876307 163.996648 
L 195.593729 163.537992 
L 199.311151 159.864351 
L 203.028573 153.631659 
L 206.745995 148.000327 
L 210.463418 146.220547 
L 214.18084 148.757417 
L 217.898262 155.43295 
L 221.615684 167.994102 
L 225.333106 182.912306 
L 229.050528 192.363209 
L 232.76795 193.350516 
" clip-path="url(#pd113f4815e)" style="fill: none; stroke: #fec877; stroke-linecap: square"/>
   </g>
   <g id="line2d_24">
    <path d="M 43.179426 114.9273 
L 46.896848 123.728438 
L 50.61427 127.875396 
L 54.331692 128.676215 
L 58.049114 126.466083 
L 61.766536 127.628519 
L 65.483958 124.569252 
L 69.20138 117.559963 
L 72.918802 116.828353 
L 76.636224 114.801183 
L 80.353646 116.987992 
L 84.071069 119.312586 
L 87.788491 114.829214 
L 91.505913 114.728221 
L 95.223335 115.781313 
L 98.940757 113.289844 
L 102.658179 112.664365 
L 106.375601 114.600147 
L 110.093023 117.131487 
L 113.810445 117.733602 
L 117.527867 117.109129 
L 121.245289 117.164667 
L 124.962711 119.139017 
L 128.680133 122.737303 
L 132.397555 124.344203 
L 136.114977 123.02553 
L 139.832399 121.753324 
L 143.549821 122.910278 
L 147.267243 124.970382 
L 150.984665 125.719757 
L 154.702087 126.080745 
L 158.419509 126.982956 
L 162.136931 128.204292 
L 165.854353 130.629369 
L 169.571775 131.974954 
L 173.289197 129.235293 
L 177.006619 125.128477 
L 180.724041 126.565851 
L 184.441463 133.449003 
L 188.158885 139.150194 
L 191.876307 140.755447 
L 195.593729 139.698239 
L 199.311151 137.804382 
L 203.028573 135.052586 
L 206.745995 131.201988 
L 210.463418 126.742768 
L 214.18084 121.74509 
L 217.898262 116.79734 
L 221.615684 115.617223 
L 225.333106 121.251557 
L 229.050528 135.045252 
L 232.76795 153.209727 
" clip-path="url(#pd113f4815e)" style="fill: none; stroke: #f8fcb4; stroke-linecap: square"/>
   </g>
   <g id="line2d_25">
    <path d="M 43.179426 124.185635 
L 46.896848 121.897451 
L 50.61427 118.059779 
L 54.331692 115.925142 
L 58.049114 111.916079 
L 61.766536 111.723298 
L 65.483958 106.854114 
L 69.20138 100.222283 
L 72.918802 101.578349 
L 76.636224 100.867614 
L 80.353646 103.232589 
L 84.071069 102.927621 
L 87.788491 94.509891 
L 91.505913 95.050823 
L 95.223335 98.249461 
L 98.940757 95.972683 
L 102.658179 95.131191 
L 106.375601 97.352166 
L 110.093023 99.365724 
L 113.810445 97.835493 
L 117.527867 95.36531 
L 121.245289 94.442618 
L 124.962711 94.804235 
L 128.680133 95.921924 
L 132.397555 95.846605 
L 136.114977 95.219939 
L 139.832399 96.657598 
L 143.549821 99.814534 
L 147.267243 101.45064 
L 150.984665 100.88157 
L 154.702087 101.840215 
L 158.419509 104.296481 
L 162.136931 104.747201 
L 165.854353 105.711976 
L 169.571775 108.935169 
L 173.289197 110.365181 
L 177.006619 108.669944 
L 180.724041 106.846682 
L 184.441463 108.410962 
L 188.158885 112.302907 
L 191.876307 115.6638 
L 195.593729 118.583349 
L 199.311151 119.59733 
L 203.028573 116.310116 
L 206.745995 113.237203 
L 210.463418 115.375416 
L 214.18084 120.622391 
L 217.898262 120.424202 
L 221.615684 111.137061 
L 225.333106 108.375456 
L 229.050528 132.465759 
L 232.76795 177.209262 
" clip-path="url(#pd113f4815e)" style="fill: none; stroke: #a7dba4; stroke-linecap: square"/>
   </g>
   <g id="line2d_26">
    <path d="M 43.179426 94.017075 
L 46.896848 105.316874 
L 50.61427 109.315251 
L 54.331692 104.291692 
L 58.049114 94.609925 
L 61.766536 93.907489 
L 65.483958 89.290139 
L 69.20138 82.662062 
L 72.918802 86.250411 
L 76.636224 86.52249 
L 80.353646 86.246065 
L 84.071069 81.450231 
L 87.788491 70.180469 
L 91.505913 72.19109 
L 95.223335 74.545861 
L 98.940757 68.198212 
L 102.658179 65.418799 
L 106.375601 68.292699 
L 110.093023 70.997844 
L 113.810445 68.699573 
L 117.527867 65.299306 
L 121.245289 64.139287 
L 124.962711 65.270675 
L 128.680133 68.506468 
L 132.397555 69.896006 
L 136.114977 68.271747 
L 139.832399 66.791588 
L 143.549821 67.382907 
L 147.267243 68.338193 
L 150.984665 68.498751 
L 154.702087 70.778419 
L 158.419509 73.591757 
L 162.136931 72.730001 
L 165.854353 73.104283 
L 169.571775 78.006881 
L 173.289197 81.206616 
L 177.006619 79.24539 
L 180.724041 75.986317 
L 184.441463 76.394352 
L 188.158885 77.936965 
L 191.876307 77.293289 
L 195.593729 78.699711 
L 199.311151 85.356113 
L 203.028573 91.637502 
L 206.745995 94.258733 
L 210.463418 93.070175 
L 214.18084 85.604554 
L 217.898262 73.771903 
L 221.615684 69.109532 
L 225.333106 78.22624 
L 229.050528 99.679404 
L 232.76795 122.343267 
" clip-path="url(#pd113f4815e)" style="fill: none; stroke: #3b92b9; stroke-linecap: square"/>
   </g>
   <g id="line2d_27">
    <path d="M 43.179426 88.183913 
L 46.896848 93.146735 
L 50.61427 98.543861 
L 54.331692 93.401342 
L 58.049114 81.076236 
L 61.766536 80.739178 
L 65.483958 77.193366 
L 69.20138 69.911303 
L 72.918802 71.550319 
L 76.636224 69.468896 
L 80.353646 69.522783 
L 84.071069 64.656731 
L 87.788491 51.99223 
L 91.505913 53.910083 
L 95.223335 55.66035 
L 98.940757 47.571677 
L 102.658179 43.70127 
L 106.375601 46.338516 
L 110.093023 49.479936 
L 113.810445 47.692292 
L 117.527867 44.306994 
L 121.245289 42.312335 
L 124.962711 41.824423 
L 128.680133 43.04645 
L 132.397555 42.226008 
L 136.114977 39.005044 
L 139.832399 37.902327 
L 143.549821 40.633904 
L 147.267243 42.875776 
L 150.984665 41.243805 
L 154.702087 40.264641 
L 158.419509 42.16687 
L 162.136931 43.038096 
L 165.854353 45.109177 
L 169.571775 47.059086 
L 173.289197 41.300922 
L 177.006619 30.83734 
L 180.724041 28.017091 
L 184.441463 34.93592 
L 188.158885 42.024747 
L 191.876307 43.348424 
L 195.593729 44.157767 
L 199.311151 49.9426 
L 203.028573 51.930281 
L 206.745995 47.741769 
L 210.463418 45.406762 
L 214.18084 47.932223 
L 217.898262 51.979635 
L 221.615684 51.322492 
L 225.333106 44.356388 
L 229.050528 47.164051 
L 232.76795 71.30351 
" clip-path="url(#pd113f4815e)" style="fill: none; stroke: #5e4fa2; stroke-linecap: square"/>
   </g>
   <g id="line2d_28"/>
   <g id="line2d_29"/>
   <g id="line2d_30"/>
   <g id="line2d_31"/>
   <g id="line2d_32"/>
   <g id="line2d_33"/>
   <g id="patch_3">
    <path d="M 33.7 221.576 
L 33.7 18.8 
" style="fill: none; stroke: #000000; stroke-width: 0.6; stroke-linejoin: miter; stroke-linecap: square"/>
   </g>
   <g id="patch_4">
    <path d="M 242.247376 221.576 
L 242.247376 18.8 
" style="fill: none; stroke: #000000; stroke-width: 0.6; stroke-linejoin: miter; stroke-linecap: square"/>
   </g>
   <g id="patch_5">
    <path d="M 33.7 221.576 
L 242.247376 221.576 
" style="fill: none; stroke: #000000; stroke-width: 0.6; stroke-linejoin: miter; stroke-linecap: square"/>
   </g>
   <g id="patch_6">
    <path d="M 33.7 18.8 
L 242.247376 18.8 
" style="fill: none; stroke: #000000; stroke-width: 0.6; stroke-linejoin: miter; stroke-linecap: square"/>
   </g>
   <g id="text_14">
    <!-- $\Delta\sigma_1$ -->
    <g transform="translate(129.823688 14.8) scale(0.1 -0.1)">
     <use xlink:href="#NotoSans-Regular-394" transform="translate(0 0.296875)"/>
     <use xlink:href="#NotoSans-Italic-3c3" transform="translate(63.899994 0.296875)"/>
     <use xlink:href="#NotoSans-Regular-31" transform="translate(119.499985 -15.78125) scale(0.7)"/>
    </g>
   </g>
  </g>
  <g id="axes_2">
   <g id="patch_7">
    <path d="M 249.067669 221.576 
L 457.615044 221.576 
L 457.615044 18.8 
L 249.067669 18.8 
z
" style="fill: #ffffff"/>
   </g>
   <g id="PolyCollection_8"/>
   <g id="PolyCollection_9"/>
   <g id="PolyCollection_10"/>
   <g id="PolyCollection_11"/>
   <g id="PolyCollection_12"/>
   <g id="PolyCollection_13"/>
   <g id="PolyCollection_14"/>
   <g id="matplotlib.axis_3">
    <g id="xtick_5">
     <g id="line2d_34">
      <g>
       <use xlink:href="#mf588aeb8e4" x="282.714055" y="221.576" style="stroke: #000000; stroke-width: 0.6"/>
      </g>
     </g>
     <g id="line2d_35">
      <g>
       <use xlink:href="#m8f66fd2e5d" x="282.714055" y="18.8" style="stroke: #000000; stroke-width: 0.6"/>
      </g>
     </g>
     <g id="text_15">
      <!-- $\mathdefault{0.5}$ -->
      <g transform="translate(275.614055 232.676) scale(0.1 -0.1)">
       <use xlink:href="#NotoSans-Regular-30" transform="translate(0 0.5)"/>
       <use xlink:href="#NotoSans-Regular-2e" transform="translate(57.199997 0.5)"/>
       <use xlink:href="#NotoSans-Regular-35" transform="translate(83.999985 0.5)"/>
      </g>
     </g>
    </g>
    <g id="xtick_6">
     <g id="line2d_36">
      <g>
       <use xlink:href="#mf588aeb8e4" x="329.185548" y="221.576" style="stroke: #000000; stroke-width: 0.6"/>
      </g>
     </g>
     <g id="line2d_37">
      <g>
       <use xlink:href="#m8f66fd2e5d" x="329.185548" y="18.8" style="stroke: #000000; stroke-width: 0.6"/>
      </g>
     </g>
     <g id="text_16">
      <!-- $\mathdefault{1.0}$ -->
      <g transform="translate(322.085548 232.676) scale(0.1 -0.1)">
       <use xlink:href="#NotoSans-Regular-31" transform="translate(0 0.5)"/>
       <use xlink:href="#NotoSans-Regular-2e" transform="translate(57.199997 0.5)"/>
       <use xlink:href="#NotoSans-Regular-30" transform="translate(83.999985 0.5)"/>
      </g>
     </g>
    </g>
    <g id="xtick_7">
     <g id="line2d_38">
      <g>
       <use xlink:href="#mf588aeb8e4" x="375.657041" y="221.576" style="stroke: #000000; stroke-width: 0.6"/>
      </g>
     </g>
     <g id="line2d_39">
      <g>
       <use xlink:href="#m8f66fd2e5d" x="375.657041" y="18.8" style="stroke: #000000; stroke-width: 0.6"/>
      </g>
     </g>
     <g id="text_17">
      <!-- $\mathdefault{1.5}$ -->
      <g transform="translate(368.557041 232.676) scale(0.1 -0.1)">
       <use xlink:href="#NotoSans-Regular-31" transform="translate(0 0.59375)"/>
       <use xlink:href="#NotoSans-Regular-2e" transform="translate(57.199997 0.59375)"/>
       <use xlink:href="#NotoSans-Regular-35" transform="translate(83.999985 0.59375)"/>
      </g>
     </g>
    </g>
    <g id="xtick_8">
     <g id="line2d_40">
      <g>
       <use xlink:href="#mf588aeb8e4" x="422.128534" y="221.576" style="stroke: #000000; stroke-width: 0.6"/>
      </g>
     </g>
     <g id="line2d_41">
      <g>
       <use xlink:href="#m8f66fd2e5d" x="422.128534" y="18.8" style="stroke: #000000; stroke-width: 0.6"/>
      </g>
     </g>
     <g id="text_18">
      <!-- $\mathdefault{2.0}$ -->
      <g transform="translate(415.028534 232.676) scale(0.1 -0.1)">
       <use xlink:href="#NotoSans-Regular-32" transform="translate(0 0.5)"/>
       <use xlink:href="#NotoSans-Regular-2e" transform="translate(57.199997 0.5)"/>
       <use xlink:href="#NotoSans-Regular-30" transform="translate(83.999985 0.5)"/>
      </g>
     </g>
    </g>
    <g id="text_19">
     <!-- $f$ (THz) -->
     <g transform="translate(338.591357 246.776) scale(0.1 -0.1)">
      <use xlink:href="#NotoSans-Italic-66" transform="translate(0 0.5)"/>
      <use xlink:href="#NotoSans-Regular-20" transform="translate(31.799988 0.5)"/>
      <use xlink:href="#NotoSans-Regular-28" transform="translate(57.799973 0.5)"/>
      <use xlink:href="#NotoSans-Regular-54" transform="translate(87.799957 0.5)"/>
      <use xlink:href="#NotoSans-Regular-48" transform="translate(143.399948 0.5)"/>
      <use xlink:href="#NotoSans-Regular-7a" transform="translate(217.499939 0.5)"/>
      <use xlink:href="#NotoSans-Regular-29" transform="translate(264.499924 0.5)"/>
     </g>
    </g>
   </g>
   <g id="matplotlib.axis_4">
    <g id="ytick_7">
     <g id="line2d_42">
      <g>
       <use xlink:href="#m99f2c21dcb" x="249.067669" y="198.419348" style="stroke: #000000; stroke-width: 0.6"/>
      </g>
     </g>
     <g id="line2d_43">
      <g>
       <use xlink:href="#mcd65e54aea" x="457.615044" y="198.419348" style="stroke: #000000; stroke-width: 0.6"/>
      </g>
     </g>
    </g>
    <g id="ytick_8">
     <g id="line2d_44">
      <g>
       <use xlink:href="#m99f2c21dcb" x="249.067669" y="165.612282" style="stroke: #000000; stroke-width: 0.6"/>
      </g>
     </g>
     <g id="line2d_45">
      <g>
       <use xlink:href="#mcd65e54aea" x="457.615044" y="165.612282" style="stroke: #000000; stroke-width: 0.6"/>
      </g>
     </g>
    </g>
    <g id="ytick_9">
     <g id="line2d_46">
      <g>
       <use xlink:href="#m99f2c21dcb" x="249.067669" y="132.805216" style="stroke: #000000; stroke-width: 0.6"/>
      </g>
     </g>
     <g id="line2d_47">
      <g>
       <use xlink:href="#mcd65e54aea" x="457.615044" y="132.805216" style="stroke: #000000; stroke-width: 0.6"/>
      </g>
     </g>
    </g>
    <g id="ytick_10">
     <g id="line2d_48">
      <g>
       <use xlink:href="#m99f2c21dcb" x="249.067669" y="99.998149" style="stroke: #000000; stroke-width: 0.6"/>
      </g>
     </g>
     <g id="line2d_49">
      <g>
       <use xlink:href="#mcd65e54aea" x="457.615044" y="99.998149" style="stroke: #000000; stroke-width: 0.6"/>
      </g>
     </g>
    </g>
    <g id="ytick_11">
     <g id="line2d_50">
      <g>
       <use xlink:href="#m99f2c21dcb" x="249.067669" y="67.191083" style="stroke: #000000; stroke-width: 0.6"/>
      </g>
     </g>
     <g id="line2d_51">
      <g>
       <use xlink:href="#mcd65e54aea" x="457.615044" y="67.191083" style="stroke: #000000; stroke-width: 0.6"/>
      </g>
     </g>
    </g>
    <g id="ytick_12">
     <g id="line2d_52">
      <g>
       <use xlink:href="#m99f2c21dcb" x="249.067669" y="34.384016" style="stroke: #000000; stroke-width: 0.6"/>
      </g>
     </g>
     <g id="line2d_53">
      <g>
       <use xlink:href="#mcd65e54aea" x="457.615044" y="34.384016" style="stroke: #000000; stroke-width: 0.6"/>
      </g>
     </g>
    </g>
   </g>
   <g id="line2d_54">
    <path d="M 258.547095 172.572438 
L 262.264517 172.089063 
L 265.981939 170.394588 
L 269.699361 167.598136 
L 273.416783 165.936413 
L 277.134205 165.289701 
L 280.851627 164.242922 
L 284.569049 163.555901 
L 288.286471 165.270973 
L 292.003893 167.7606 
L 295.721315 167.384798 
L 299.438737 165.408909 
L 303.156159 164.388319 
L 306.873581 166.963271 
L 310.591003 170.56444 
L 314.308425 171.176241 
L 318.025847 168.588309 
L 321.743269 166.10439 
L 325.460691 164.917617 
L 329.178113 164.371515 
L 332.895535 164.374561 
L 336.612957 165.573426 
L 340.330379 167.431064 
L 344.047801 167.724138 
L 347.765224 166.024166 
L 351.482646 164.436231 
L 355.200068 164.891252 
L 358.91749 166.866788 
L 362.634912 167.964225 
L 366.352334 167.233155 
L 370.069756 165.916595 
L 373.787178 165.537779 
L 377.5046 165.478138 
L 381.222022 164.847389 
L 384.939444 164.323348 
L 388.656866 164.241347 
L 392.374288 163.471729 
L 396.09171 160.97067 
L 399.809132 158.592033 
L 403.526554 159.103071 
L 407.243976 163.373832 
L 410.961398 169.24283 
L 414.67882 171.248327 
L 418.396242 167.653994 
L 422.113664 161.476774 
L 425.831086 159.134712 
L 429.548508 165.458894 
L 433.26593 179.418158 
L 436.983352 187.224643 
L 440.700774 168.612644 
L 444.418196 129.791875 
L 448.135618 113.811182 
" clip-path="url(#pfbfd1e2e17)" style="fill: none; stroke: #9e0142; stroke-linecap: square"/>
   </g>
   <g id="line2d_55">
    <path d="M 258.547095 160.34159 
L 262.264517 164.570314 
L 265.981939 162.274339 
L 269.699361 161.961377 
L 273.416783 164.780537 
L 277.134205 168.532836 
L 280.851627 171.278334 
L 284.569049 173.596129 
L 288.286471 174.706582 
L 292.003893 173.236538 
L 295.721315 169.552797 
L 299.438737 169.542479 
L 303.156159 170.466015 
L 306.873581 167.724822 
L 310.591003 164.665348 
L 314.308425 164.188232 
L 318.025847 165.190161 
L 321.743269 164.676762 
L 325.460691 163.470448 
L 329.178113 164.002578 
L 332.895535 165.301458 
L 336.612957 165.038595 
L 340.330379 163.31323 
L 344.047801 162.351892 
L 347.765224 162.925373 
L 351.482646 163.558725 
L 355.200068 163.260185 
L 358.91749 162.822057 
L 362.634912 163.42145 
L 366.352334 164.93722 
L 370.069756 166.575878 
L 373.787178 167.322354 
L 377.5046 166.759577 
L 381.222022 164.783939 
L 384.939444 162.548832 
L 388.656866 161.962299 
L 392.374288 164.27302 
L 396.09171 168.607342 
L 399.809132 169.965178 
L 403.526554 166.490995 
L 407.243976 160.916405 
L 410.961398 157.995291 
L 414.67882 161.887078 
L 418.396242 168.999226 
L 422.113664 172.621517 
L 425.831086 169.102417 
L 429.548508 162.912339 
L 433.26593 159.290863 
L 436.983352 154.662404 
L 440.700774 143.759708 
L 444.418196 137.55458 
L 448.135618 151.586044 
" clip-path="url(#pfbfd1e2e17)" style="fill: none; stroke: #ed6246; stroke-linecap: square"/>
   </g>
   <g id="line2d_56">
    <path d="M 258.547095 171.22165 
L 262.264517 177.273449 
L 265.981939 182.982184 
L 269.699361 185.538907 
L 273.416783 185.292859 
L 277.134205 186.610649 
L 280.851627 191.79951 
L 284.569049 190.569725 
L 288.286471 188.132149 
L 292.003893 188.816088 
L 295.721315 187.614051 
L 299.438737 186.733148 
L 303.156159 182.924385 
L 306.873581 177.531578 
L 310.591003 175.893233 
L 314.308425 173.641467 
L 318.025847 169.831935 
L 321.743269 166.435967 
L 325.460691 163.976473 
L 329.178113 162.436622 
L 332.895535 161.579803 
L 336.612957 160.934384 
L 340.330379 159.702534 
L 344.047801 158.205945 
L 347.765224 156.956517 
L 351.482646 155.687688 
L 355.200068 154.819544 
L 358.91749 155.158088 
L 362.634912 156.131482 
L 366.352334 155.822757 
L 370.069756 153.507995 
L 373.787178 150.824345 
L 377.5046 148.499668 
L 381.222022 147.454969 
L 384.939444 148.418706 
L 388.656866 150.102036 
L 392.374288 152.237608 
L 396.09171 154.600118 
L 399.809132 155.003889 
L 403.526554 152.63841 
L 407.243976 149.279098 
L 410.961398 148.758293 
L 414.67882 152.558286 
L 418.396242 156.39094 
L 422.113664 155.972385 
L 425.831086 151.202306 
L 429.548508 147.471897 
L 433.26593 147.779174 
L 436.983352 149.331363 
L 440.700774 146.239292 
L 444.418196 140.336902 
L 448.135618 140.185891 
" clip-path="url(#pfbfd1e2e17)" style="fill: none; stroke: #fec877; stroke-linecap: square"/>
   </g>
   <g id="line2d_57">
    <path d="M 258.547095 175.176701 
L 262.264517 179.181789 
L 265.981939 183.728489 
L 269.699361 188.839646 
L 273.416783 190.950437 
L 277.134205 192.848111 
L 280.851627 199.037438 
L 284.569049 198.015077 
L 288.286471 195.718855 
L 292.003893 194.635976 
L 295.721315 191.251305 
L 299.438737 194.615422 
L 303.156159 195.224392 
L 306.873581 190.515771 
L 310.591003 189.714932 
L 314.308425 187.131692 
L 318.025847 181.39225 
L 321.743269 176.542687 
L 325.460691 174.435998 
L 329.178113 174.169625 
L 332.895535 173.195266 
L 336.612957 171.346617 
L 340.330379 169.267834 
L 344.047801 169.13285 
L 347.765224 170.749575 
L 351.482646 170.345922 
L 355.200068 166.343882 
L 358.91749 161.432568 
L 362.634912 158.726472 
L 366.352334 157.618469 
L 370.069756 156.559701 
L 373.787178 156.052515 
L 377.5046 155.62789 
L 381.222022 155.805044 
L 384.939444 158.345505 
L 388.656866 160.263671 
L 392.374288 156.743327 
L 396.09171 149.101405 
L 399.809132 144.776264 
L 403.526554 145.420158 
L 407.243976 147.76056 
L 410.961398 150.190791 
L 414.67882 153.786052 
L 418.396242 158.313318 
L 422.113664 161.304061 
L 425.831086 161.443731 
L 429.548508 160.363916 
L 433.26593 159.36405 
L 436.983352 158.383794 
L 440.700774 157.291504 
L 444.418196 159.196462 
L 448.135618 168.098374 
" clip-path="url(#pfbfd1e2e17)" style="fill: none; stroke: #f8fcb4; stroke-linecap: square"/>
   </g>
   <g id="line2d_58">
    <path d="M 258.547095 170.981283 
L 262.264517 179.559741 
L 265.981939 181.972457 
L 269.699361 185.984846 
L 273.416783 188.615074 
L 277.134205 191.760375 
L 280.851627 198.549173 
L 284.569049 196.613996 
L 288.286471 195.498309 
L 292.003893 196.911576 
L 295.721315 197.031391 
L 299.438737 203.616456 
L 303.156159 203.35139 
L 306.873581 195.808291 
L 310.591003 195.581135 
L 314.308425 194.452539 
L 318.025847 189.050905 
L 321.743269 184.590139 
L 325.460691 183.636022 
L 329.178113 183.737086 
L 332.895535 181.659194 
L 336.612957 179.13422 
L 340.330379 177.189081 
L 344.047801 176.45654 
L 347.765224 175.997899 
L 351.482646 173.211193 
L 355.200068 168.855059 
L 358.91749 166.333206 
L 362.634912 166.361588 
L 366.352334 165.801998 
L 370.069756 163.66868 
L 373.787178 163.162157 
L 377.5046 162.241016 
L 381.222022 158.011425 
L 384.939444 154.816108 
L 388.656866 155.031475 
L 392.374288 156.249769 
L 396.09171 155.941774 
L 399.809132 154.38156 
L 403.526554 152.5049 
L 407.243976 148.383222 
L 410.961398 142.161528 
L 414.67882 140.571569 
L 418.396242 145.591022 
L 422.113664 152.736051 
L 425.831086 157.756894 
L 429.548508 156.981754 
L 433.26593 147.666767 
L 436.983352 139.709652 
L 440.700774 145.422358 
L 444.418196 160.211684 
L 448.135618 165.688465 
" clip-path="url(#pfbfd1e2e17)" style="fill: none; stroke: #a7dba4; stroke-linecap: square"/>
   </g>
   <g id="line2d_59">
    <path d="M 258.547095 159.561686 
L 262.264517 167.274409 
L 265.981939 180.499398 
L 269.699361 193.83777 
L 273.416783 197.879484 
L 277.134205 198.987008 
L 280.851627 205.941228 
L 284.569049 202.476007 
L 288.286471 200.777753 
L 292.003893 204.262631 
L 295.721315 206.396943 
L 299.438737 212.259948 
L 303.156159 208.024745 
L 306.873581 198.92736 
L 310.591003 201.662536 
L 314.308425 201.749164 
L 318.025847 195.08166 
L 321.743269 190.467247 
L 325.460691 191.178931 
L 329.178113 192.73977 
L 332.895535 190.443421 
L 336.612957 186.670641 
L 340.330379 182.87178 
L 344.047801 181.279209 
L 347.765224 182.284835 
L 351.482646 181.812684 
L 355.200068 178.3485 
L 358.91749 174.434552 
L 362.634912 172.141152 
L 366.352334 169.667313 
L 370.069756 166.790181 
L 373.787178 167.216498 
L 377.5046 167.491596 
L 381.222022 163.911856 
L 384.939444 162.947553 
L 388.656866 167.268618 
L 392.374288 170.845984 
L 396.09171 167.696099 
L 399.809132 160.439624 
L 403.526554 155.001524 
L 407.243976 151.785731 
L 410.961398 150.092017 
L 414.67882 153.944156 
L 418.396242 159.449364 
L 422.113664 157.37034 
L 425.831086 147.79734 
L 429.548508 139.39004 
L 433.26593 136.96475 
L 436.983352 136.999435 
L 440.700774 129.819633 
L 444.418196 115.295199 
L 448.135618 113.725018 
" clip-path="url(#pfbfd1e2e17)" style="fill: none; stroke: #3b92b9; stroke-linecap: square"/>
   </g>
   <g id="line2d_60">
    <path d="M 258.547095 180.518313 
L 262.264517 179.102446 
L 265.981939 187.613031 
L 269.699361 200.80532 
L 273.416783 202.645954 
L 277.134205 200.274325 
L 280.851627 206.640511 
L 284.569049 203.703806 
L 288.286471 202.251458 
L 292.003893 204.41942 
L 295.721315 205.145244 
L 299.438737 212.358909 
L 303.156159 208.709617 
L 306.873581 199.976681 
L 310.591003 204.155303 
L 314.308425 204.448756 
L 318.025847 196.454484 
L 321.743269 190.019168 
L 325.460691 189.104516 
L 329.178113 189.846085 
L 332.895535 187.60367 
L 336.612957 184.536948 
L 340.330379 181.578607 
L 344.047801 180.632858 
L 347.765224 181.662802 
L 351.482646 179.949691 
L 355.200068 174.706209 
L 358.91749 170.734462 
L 362.634912 171.148817 
L 366.352334 171.831044 
L 370.069756 168.943271 
L 373.787178 166.436312 
L 377.5046 163.802754 
L 381.222022 159.60305 
L 384.939444 160.102335 
L 388.656866 163.912784 
L 392.374288 162.483182 
L 396.09171 156.528676 
L 399.809132 156.273604 
L 403.526554 163.353237 
L 407.243976 168.720887 
L 410.961398 164.23463 
L 414.67882 157.038179 
L 418.396242 154.653752 
L 422.113664 153.47095 
L 425.831086 152.269684 
L 429.548508 152.495696 
L 433.26593 147.386296 
L 436.983352 133.714334 
L 440.700774 124.141651 
L 444.418196 130.857773 
L 448.135618 155.62743 
" clip-path="url(#pfbfd1e2e17)" style="fill: none; stroke: #5e4fa2; stroke-linecap: square"/>
   </g>
   <g id="patch_8">
    <path d="M 249.067669 221.576 
L 249.067669 18.8 
" style="fill: none; stroke: #000000; stroke-width: 0.6; stroke-linejoin: miter; stroke-linecap: square"/>
   </g>
   <g id="patch_9">
    <path d="M 457.615044 221.576 
L 457.615044 18.8 
" style="fill: none; stroke: #000000; stroke-width: 0.6; stroke-linejoin: miter; stroke-linecap: square"/>
   </g>
   <g id="patch_10">
    <path d="M 249.067669 221.576 
L 457.615044 221.576 
" style="fill: none; stroke: #000000; stroke-width: 0.6; stroke-linejoin: miter; stroke-linecap: square"/>
   </g>
   <g id="patch_11">
    <path d="M 249.067669 18.8 
L 457.615044 18.8 
" style="fill: none; stroke: #000000; stroke-width: 0.6; stroke-linejoin: miter; stroke-linecap: square"/>
   </g>
   <g id="text_20">
    <!-- $\Delta\sigma_2$ -->
    <g transform="translate(345.191357 14.8) scale(0.1 -0.1)">
     <use xlink:href="#NotoSans-Regular-394" transform="translate(0 0.296875)"/>
     <use xlink:href="#NotoSans-Italic-3c3" transform="translate(63.899994 0.296875)"/>
     <use xlink:href="#NotoSans-Regular-32" transform="translate(119.499985 -15.78125) scale(0.7)"/>
    </g>
   </g>
  </g>
  <g id="legend_1">
   <g id="text_21">
    <!-- $F$ (mJ/cm$^2$) -->
    <g transform="translate(406.42 33.424) scale(0.1 -0.1)">
     <defs>
      <path id="NotoSans-Italic-46" d="M 262 0 
L 1229 4570 
L 3546 4570 
L 3443 4064 
L 1690 4064 
L 1350 2438 
L 2989 2438 
L 2880 1933 
L 1242 1933 
L 832 0 
L 262 0 
z
" transform="scale(0.015625)"/>
      <path id="NotoSans-Regular-4a" d="M -26 -1216 
Q -179 -1216 -294 -1193 
Q -410 -1171 -499 -1133 
L -499 -646 
Q -397 -672 -281 -691 
Q -166 -710 -38 -710 
Q 122 -710 266 -646 
Q 410 -582 499 -422 
Q 589 -262 589 26 
L 589 4570 
L 1165 4570 
L 1165 70 
Q 1165 -371 1017 -656 
Q 870 -941 601 -1078 
Q 333 -1216 -26 -1216 
z
" transform="scale(0.015625)"/>
      <path id="NotoSans-Regular-63" d="M 1920 -64 
Q 1466 -64 1110 121 
Q 755 307 553 697 
Q 352 1088 352 1696 
Q 352 2330 563 2726 
Q 774 3123 1136 3308 
Q 1498 3494 1958 3494 
Q 2221 3494 2464 3440 
Q 2707 3386 2861 3309 
L 2688 2842 
Q 2534 2899 2329 2950 
Q 2125 3002 1946 3002 
Q 1600 3002 1376 2854 
Q 1152 2707 1043 2419 
Q 934 2131 934 1702 
Q 934 1293 1043 1005 
Q 1152 717 1369 569 
Q 1587 422 1914 422 
Q 2195 422 2409 480 
Q 2624 538 2803 621 
L 2803 122 
Q 2630 32 2422 -16 
Q 2214 -64 1920 -64 
z
" transform="scale(0.015625)"/>
     </defs>
     <use xlink:href="#NotoSans-Italic-46" transform="translate(0 0.8)"/>
     <use xlink:href="#NotoSans-Regular-20" transform="translate(47.699997 0.8)"/>
     <use xlink:href="#NotoSans-Regular-28" transform="translate(73.699982 0.8)"/>
     <use xlink:href="#NotoSans-Regular-6d" transform="translate(103.699966 0.8)"/>
     <use xlink:href="#NotoSans-Regular-4a" transform="translate(197.199951 0.8)"/>
     <use xlink:href="#NotoSans-Regular-2f" transform="translate(224.499939 0.8)"/>
     <use xlink:href="#NotoSans-Regular-63" transform="translate(261.699936 0.8)"/>
     <use xlink:href="#NotoSans-Regular-6d" transform="translate(309.699921 0.8)"/>
     <use xlink:href="#NotoSans-Regular-32" transform="translate(404.137796 38.315625) scale(0.7)"/>
     <use xlink:href="#NotoSans-Regular-29" transform="translate(446.857481 0.8)"/>
    </g>
   </g>
   <g id="line2d_61">
    <path d="M 409.17 44.924 
L 419.17 44.924 
L 429.17 44.924 
" style="fill: none; stroke: #b81e48; stroke-linecap: square"/>
   </g>
   <g id="text_22">
    <!-- $\mathdefault{0.2}$ -->
    <g transform="translate(437.17 48.424) scale(0.1 -0.1)">
     <use xlink:href="#NotoSans-Regular-30" transform="translate(0 0.5)"/>
     <use xlink:href="#NotoSans-Regular-2e" transform="translate(57.199997 0.5)"/>
     <use xlink:href="#NotoSans-Regular-32" transform="translate(83.999985 0.5)"/>
    </g>
   </g>
   <g id="line2d_62">
    <path d="M 409.17 59.924 
L 419.17 59.924 
L 429.17 59.924 
" style="fill: none; stroke: #f57748; stroke-linecap: square"/>
   </g>
   <g id="text_23">
    <!-- $\mathdefault{0.3}$ -->
    <g transform="translate(437.17 63.424) scale(0.1 -0.1)">
     <defs>
      <path id="NotoSans-Regular-33" d="M 3155 3501 
Q 3155 3194 3040 2970 
Q 2925 2746 2710 2605 
Q 2496 2464 2208 2406 
L 2208 2381 
Q 2758 2317 3027 2035 
Q 3296 1754 3296 1299 
Q 3296 902 3110 592 
Q 2925 282 2537 109 
Q 2150 -64 1542 -64 
Q 1184 -64 877 -9 
Q 570 45 288 186 
L 288 710 
Q 576 570 909 490 
Q 1242 410 1549 410 
Q 2163 410 2435 650 
Q 2707 890 2707 1312 
Q 2707 1600 2556 1776 
Q 2406 1952 2118 2035 
Q 1830 2118 1427 2118 
L 986 2118 
L 986 2598 
L 1434 2598 
Q 1811 2598 2064 2707 
Q 2317 2816 2448 3011 
Q 2579 3206 2579 3462 
Q 2579 3795 2355 3977 
Q 2131 4160 1747 4160 
Q 1504 4160 1305 4112 
Q 1107 4064 937 3977 
Q 768 3891 595 3776 
L 314 4160 
Q 557 4352 918 4493 
Q 1280 4634 1741 4634 
Q 2458 4634 2806 4314 
Q 3155 3994 3155 3501 
z
" transform="scale(0.015625)"/>
     </defs>
     <use xlink:href="#NotoSans-Regular-30" transform="translate(0 0.5)"/>
     <use xlink:href="#NotoSans-Regular-2e" transform="translate(57.199997 0.5)"/>
     <use xlink:href="#NotoSans-Regular-33" transform="translate(83.999985 0.5)"/>
    </g>
   </g>
   <g id="line2d_63">
    <path d="M 409.17 74.924 
L 419.17 74.924 
L 429.17 74.924 
" style="fill: none; stroke: #feda86; stroke-linecap: square"/>
   </g>
   <g id="text_24">
    <!-- $\mathdefault{0.4}$ -->
    <g transform="translate(437.17 78.424) scale(0.1 -0.1)">
     <use xlink:href="#NotoSans-Regular-30" transform="translate(0 0.5)"/>
     <use xlink:href="#NotoSans-Regular-2e" transform="translate(57.199997 0.5)"/>
     <use xlink:href="#NotoSans-Regular-34" transform="translate(83.999985 0.5)"/>
    </g>
   </g>
   <g id="line2d_64">
    <path d="M 409.17 89.924 
L 419.17 89.924 
L 429.17 89.924 
" style="fill: none; stroke: #f0f9a7; stroke-linecap: square"/>
   </g>
   <g id="text_25">
    <!-- $\mathdefault{0.5}$ -->
    <g transform="translate(437.17 93.424) scale(0.1 -0.1)">
     <use xlink:href="#NotoSans-Regular-30" transform="translate(0 0.5)"/>
     <use xlink:href="#NotoSans-Regular-2e" transform="translate(57.199997 0.5)"/>
     <use xlink:href="#NotoSans-Regular-35" transform="translate(83.999985 0.5)"/>
    </g>
   </g>
   <g id="line2d_65">
    <path d="M 409.17 104.924 
L 419.17 104.924 
L 429.17 104.924 
" style="fill: none; stroke: #97d5a4; stroke-linecap: square"/>
   </g>
   <g id="text_26">
    <!-- $\mathdefault{0.6}$ -->
    <g transform="translate(437.17 108.424) scale(0.1 -0.1)">
     <use xlink:href="#NotoSans-Regular-30" transform="translate(0 0.5)"/>
     <use xlink:href="#NotoSans-Regular-2e" transform="translate(57.199997 0.5)"/>
     <use xlink:href="#NotoSans-Regular-36" transform="translate(83.999985 0.5)"/>
    </g>
   </g>
   <g id="line2d_66">
    <path d="M 409.17 119.924 
L 419.17 119.924 
L 429.17 119.924 
" style="fill: none; stroke: #3387bc; stroke-linecap: square"/>
   </g>
   <g id="text_27">
    <!-- $\mathdefault{0.7}$ -->
    <g transform="translate(437.17 123.424) scale(0.1 -0.1)">
     <defs>
      <path id="NotoSans-Regular-37" d="M 870 0 
L 2746 4058 
L 282 4058 
L 282 4570 
L 3347 4570 
L 3347 4134 
L 1491 0 
L 870 0 
z
" transform="scale(0.015625)"/>
     </defs>
     <use xlink:href="#NotoSans-Regular-30" transform="translate(0 0.5)"/>
     <use xlink:href="#NotoSans-Regular-2e" transform="translate(57.199997 0.5)"/>
     <use xlink:href="#NotoSans-Regular-37" transform="translate(83.999985 0.5)"/>
    </g>
   </g>
  </g>
 </g>
 <defs>
  <clipPath id="pd113f4815e">
   <rect x="33.7" y="18.8" width="208.547376" height="202.776"/>
  </clipPath>
  <clipPath id="pfbfd1e2e17">
   <rect x="249.067669" y="18.8" width="208.547376" height="202.776"/>
  </clipPath>
 </defs>
</svg>
