<?xml version="1.0" encoding="utf-8" standalone="no"?>
<!DOCTYPE svg PUBLIC "-//W3C//DTD SVG 1.1//EN"
  "http://www.w3.org/Graphics/SVG/1.1/DTD/svg11.dtd">
<svg xmlns:xlink="http://www.w3.org/1999/xlink" width="491.443352pt" height="231.35pt" viewBox="0 0 491.443352 231.35" xmlns="http://www.w3.org/2000/svg" version="1.1">
 <metadata>
  <rdf:RDF xmlns:dc="http://purl.org/dc/elements/1.1/" xmlns:cc="http://creativecommons.org/ns#" xmlns:rdf="http://www.w3.org/1999/02/22-rdf-syntax-ns#">
   <cc:Work>
    <dc:type rdf:resource="http://purl.org/dc/dcmitype/StillImage"/>
    <dc:date>2024-07-06T12:10:44.333736</dc:date>
    <dc:format>image/svg+xml</dc:format>
    <dc:creator>
     <cc:Agent>
      <dc:title>Matplotlib v3.9.0, https://matplotlib.org/</dc:title>
     </cc:Agent>
    </dc:creator>
   </cc:Work>
  </rdf:RDF>
 </metadata>
 <defs>
  <style type="text/css">*{stroke-linejoin: round; stroke-linecap: butt}</style>
 </defs>
 <g id="figure_1">
  <g id="patch_1">
   <path d="M 0 231.35 
L 491.443352 231.35 
L 491.443352 0 
L 0 0 
z
" style="fill: #ffffff"/>
  </g>
  <g id="axes_1">
   <g id="patch_2">
    <path d="M 38.9 194.15 
L 255.77018 194.15 
L 255.77018 17.8 
L 38.9 17.8 
z
" style="fill: #ffffff"/>
   </g>
   <g id="PathCollection_1">
    <defs>
     <path id="m34c763b69e" d="M 0 2.236068 
C 0.593012 2.236068 1.161816 2.000462 1.581139 1.581139 
C 2.000462 1.161816 2.236068 0.593012 2.236068 0 
C 2.236068 -0.593012 2.000462 -1.161816 1.581139 -1.581139 
C 1.161816 -2.000462 0.593012 -2.236068 0 -2.236068 
C -0.593012 -2.236068 -1.161816 -2.000462 -1.581139 -1.581139 
C -2.000462 -1.161816 -2.236068 -0.593012 -2.236068 0 
C -2.236068 0.593012 -2.000462 1.161816 -1.581139 1.581139 
C -1.161816 2.000462 -0.593012 2.236068 0 2.236068 
z
" style="stroke: #ffffff"/>
    </defs>
    <g clip-path="url(#p31b7795e2b)">
     <use xlink:href="#m34c763b69e" x="66.397366" y="184.162824" style="fill: #166895; stroke: #ffffff"/>
     <use xlink:href="#m34c763b69e" x="83.621201" y="181.701438" style="fill: #166895; stroke: #ffffff"/>
     <use xlink:href="#m34c763b69e" x="99.122652" y="180.882419" style="fill: #166895; stroke: #ffffff"/>
     <use xlink:href="#m34c763b69e" x="112.901719" y="185.76582" style="fill: #166895; stroke: #ffffff"/>
     <use xlink:href="#m34c763b69e" x="124.958403" y="173.428131" style="fill: #166895; stroke: #ffffff"/>
     <use xlink:href="#m34c763b69e" x="135.292704" y="150.211247" style="fill: #166895; stroke: #ffffff"/>
     <use xlink:href="#m34c763b69e" x="143.904622" y="91.654358" style="fill: #166895; stroke: #ffffff"/>
     <use xlink:href="#m34c763b69e" x="150.794155" y="68.262165" style="fill: #166895; stroke: #ffffff"/>
     <use xlink:href="#m34c763b69e" x="155.961306" y="40.534048" style="fill: #166895; stroke: #ffffff"/>
     <use xlink:href="#m34c763b69e" x="162.85084" y="43.525568" style="fill: #166895; stroke: #ffffff"/>
     <use xlink:href="#m34c763b69e" x="164.573223" y="45.601539" style="fill: #166895; stroke: #ffffff"/>
     <use xlink:href="#m34c763b69e" x="168.01799" y="44.383989" style="fill: #166895; stroke: #ffffff"/>
     <use xlink:href="#m34c763b69e" x="173.18514" y="57.812307" style="fill: #166895; stroke: #ffffff"/>
     <use xlink:href="#m34c763b69e" x="178.352291" y="54.825287" style="fill: #166895; stroke: #ffffff"/>
     <use xlink:href="#m34c763b69e" x="183.519441" y="61.928885" style="fill: #166895; stroke: #ffffff"/>
     <use xlink:href="#m34c763b69e" x="190.408975" y="57.641284" style="fill: #166895; stroke: #ffffff"/>
     <use xlink:href="#m34c763b69e" x="199.020892" y="70.013981" style="fill: #166895; stroke: #ffffff"/>
     <use xlink:href="#m34c763b69e" x="207.632809" y="63.838517" style="fill: #166895; stroke: #ffffff"/>
     <use xlink:href="#m34c763b69e" x="216.244727" y="77.963123" style="fill: #166895; stroke: #ffffff"/>
     <use xlink:href="#m34c763b69e" x="226.579027" y="77.678465" style="fill: #166895; stroke: #ffffff"/>
     <use xlink:href="#m34c763b69e" x="238.635712" y="87.922756" style="fill: #166895; stroke: #ffffff"/>
     <use xlink:href="#m34c763b69e" x="250.692396" y="100.308753" style="fill: #166895; stroke: #ffffff"/>
    </g>
   </g>
   <g id="patch_3">
    <path d="M 146.154085 150.0625 
Q 168.063559 150.0625 189.973033 150.0625 
" clip-path="url(#p31b7795e2b)" style="fill: none; stroke: #000000; stroke-linecap: round"/>
    <path d="M 146.154085 148.0625 
L 146.154085 148.0625 
L 146.154085 152.0625 
L 146.154085 152.0625 
" clip-path="url(#p31b7795e2b)" style="fill: none; stroke: #000000; stroke-linecap: round"/>
    <path d="M 189.973033 152.0625 
L 189.973033 152.0625 
L 189.973033 148.0625 
L 189.973033 148.0625 
" clip-path="url(#p31b7795e2b)" style="fill: none; stroke: #000000; stroke-linecap: round"/>
   </g>
   <g id="patch_4">
    <path d="M 146.154327 161.084375 
Q 199.963708 161.084375 253.773089 161.084375 
" clip-path="url(#p31b7795e2b)" style="fill: none; stroke: #000000; stroke-linecap: round"/>
    <path d="M 146.154327 159.084375 
L 146.154327 159.084375 
L 146.154327 163.084375 
L 146.154327 163.084375 
" clip-path="url(#p31b7795e2b)" style="fill: none; stroke: #000000; stroke-linecap: round"/>
    <path d="M 253.773089 161.084375 
L 253.773089 161.084375 
L 253.773089 161.084375 
L 253.773089 161.084375 
" clip-path="url(#p31b7795e2b)" style="fill: none; stroke: #000000; stroke-linecap: round"/>
   </g>
   <g id="matplotlib.axis_1">
    <g id="xtick_1">
     <g id="line2d_1">
      <defs>
       <path id="m27f0518fe4" d="M 0 0 
L 0 -4 
" style="stroke: #000000; stroke-width: 0.6"/>
      </defs>
      <g>
       <use xlink:href="#m27f0518fe4" x="75.04503" y="194.15" style="stroke: #000000; stroke-width: 0.6"/>
      </g>
     </g>
     <g id="line2d_2">
      <defs>
       <path id="m447cd26dad" d="M 0 0 
L 0 4 
" style="stroke: #000000; stroke-width: 0.6"/>
      </defs>
      <g>
       <use xlink:href="#m447cd26dad" x="75.04503" y="17.8" style="stroke: #000000; stroke-width: 0.6"/>
      </g>
     </g>
     <g id="text_1">
      <!-- $\mathdefault{−2}$ -->
      <g transform="translate(70.54503 205.25) scale(0.1 -0.1)">
       <defs>
        <path id="NotoSans-Regular-2212" d="M 256 1466 
L 256 1965 
L 1805 1965 
L 1805 1466 
L 256 1466 
z
" transform="scale(0.015625)"/>
        <path id="NotoSans-Regular-32" d="M 3328 0 
L 307 0 
L 307 467 
L 1504 1677 
Q 1850 2022 2086 2291 
Q 2323 2560 2444 2819 
Q 2566 3078 2566 3386 
Q 2566 3763 2342 3958 
Q 2118 4154 1760 4154 
Q 1427 4154 1174 4038 
Q 922 3923 659 3718 
L 358 4096 
Q 538 4250 752 4371 
Q 966 4493 1219 4563 
Q 1472 4634 1760 4634 
Q 2189 4634 2496 4486 
Q 2803 4339 2972 4067 
Q 3142 3795 3142 3418 
Q 3142 3059 2995 2745 
Q 2848 2432 2585 2128 
Q 2323 1824 1971 1478 
L 1018 538 
L 1018 512 
L 3328 512 
L 3328 0 
z
" transform="scale(0.015625)"/>
       </defs>
       <use xlink:href="#NotoSans-Regular-2212" transform="translate(0 0.59375)"/>
       <use xlink:href="#NotoSans-Regular-32" transform="translate(32.199997 0.59375)"/>
      </g>
     </g>
    </g>
    <g id="xtick_2">
     <g id="line2d_3">
      <g>
       <use xlink:href="#m27f0518fe4" x="126.680787" y="194.15" style="stroke: #000000; stroke-width: 0.6"/>
      </g>
     </g>
     <g id="line2d_4">
      <g>
       <use xlink:href="#m447cd26dad" x="126.680787" y="17.8" style="stroke: #000000; stroke-width: 0.6"/>
      </g>
     </g>
     <g id="text_2">
      <!-- $\mathdefault{0}$ -->
      <g transform="translate(123.780787 205.25) scale(0.1 -0.1)">
       <defs>
        <path id="NotoSans-Regular-30" d="M 3347 2291 
Q 3347 1734 3264 1299 
Q 3181 864 2998 560 
Q 2816 256 2525 96 
Q 2234 -64 1824 -64 
Q 1312 -64 976 217 
Q 640 499 477 1027 
Q 314 1555 314 2291 
Q 314 3034 464 3558 
Q 614 4083 947 4361 
Q 1280 4640 1824 4640 
Q 2336 4640 2675 4361 
Q 3014 4083 3180 3558 
Q 3347 3034 3347 2291 
z
M 877 2291 
Q 877 1664 969 1248 
Q 1062 832 1270 624 
Q 1478 416 1824 416 
Q 2170 416 2378 621 
Q 2586 826 2682 1245 
Q 2778 1664 2778 2291 
Q 2778 2918 2682 3331 
Q 2586 3744 2378 3952 
Q 2170 4160 1824 4160 
Q 1478 4160 1270 3952 
Q 1062 3744 969 3331 
Q 877 2918 877 2291 
z
" transform="scale(0.015625)"/>
       </defs>
       <use xlink:href="#NotoSans-Regular-30" transform="translate(0 0.5)"/>
      </g>
     </g>
    </g>
    <g id="xtick_3">
     <g id="line2d_5">
      <g>
       <use xlink:href="#m27f0518fe4" x="178.316544" y="194.15" style="stroke: #000000; stroke-width: 0.6"/>
      </g>
     </g>
     <g id="line2d_6">
      <g>
       <use xlink:href="#m447cd26dad" x="178.316544" y="17.8" style="stroke: #000000; stroke-width: 0.6"/>
      </g>
     </g>
     <g id="text_3">
      <!-- $\mathdefault{2}$ -->
      <g transform="translate(175.416544 205.25) scale(0.1 -0.1)">
       <use xlink:href="#NotoSans-Regular-32" transform="translate(0 0.59375)"/>
      </g>
     </g>
    </g>
    <g id="xtick_4">
     <g id="line2d_7">
      <g>
       <use xlink:href="#m27f0518fe4" x="229.952301" y="194.15" style="stroke: #000000; stroke-width: 0.6"/>
      </g>
     </g>
     <g id="line2d_8">
      <g>
       <use xlink:href="#m447cd26dad" x="229.952301" y="17.8" style="stroke: #000000; stroke-width: 0.6"/>
      </g>
     </g>
     <g id="text_4">
      <!-- $\mathdefault{4}$ -->
      <g transform="translate(227.052301 205.25) scale(0.1 -0.1)">
       <defs>
        <path id="NotoSans-Regular-34" d="M 3533 1037 
L 2867 1037 
L 2867 0 
L 2323 0 
L 2323 1037 
L 134 1037 
L 134 1517 
L 2285 4595 
L 2867 4595 
L 2867 1542 
L 3533 1542 
L 3533 1037 
z
M 2323 2982 
Q 2323 3149 2326 3286 
Q 2330 3424 2336 3545 
Q 2342 3667 2345 3779 
Q 2349 3891 2355 3994 
L 2330 3994 
Q 2278 3872 2201 3731 
Q 2125 3590 2054 3494 
L 685 1542 
L 2323 1542 
L 2323 2982 
z
" transform="scale(0.015625)"/>
       </defs>
       <use xlink:href="#NotoSans-Regular-34" transform="translate(0 0.203125)"/>
      </g>
     </g>
    </g>
   </g>
   <g id="matplotlib.axis_2">
    <g id="ytick_1">
     <g id="line2d_9">
      <defs>
       <path id="m2f05cf8a67" d="M 0 0 
L 4 0 
" style="stroke: #000000; stroke-width: 0.6"/>
      </defs>
      <g>
       <use xlink:href="#m2f05cf8a67" x="38.9" y="183.128125" style="stroke: #000000; stroke-width: 0.6"/>
      </g>
     </g>
     <g id="text_5">
      <!-- $\mathdefault{0.0}$ -->
      <g transform="translate(21.2 186.928125) scale(0.1 -0.1)">
       <defs>
        <path id="NotoSans-Regular-2e" d="M 461 346 
Q 461 582 576 678 
Q 691 774 851 774 
Q 1018 774 1136 678 
Q 1254 582 1254 346 
Q 1254 115 1136 12 
Q 1018 -90 851 -90 
Q 691 -90 576 12 
Q 461 115 461 346 
z
" transform="scale(0.015625)"/>
       </defs>
       <use xlink:href="#NotoSans-Regular-30" transform="translate(0 0.5)"/>
       <use xlink:href="#NotoSans-Regular-2e" transform="translate(57.199997 0.5)"/>
       <use xlink:href="#NotoSans-Regular-30" transform="translate(83.999985 0.5)"/>
      </g>
     </g>
    </g>
    <g id="ytick_2">
     <g id="line2d_10">
      <g>
       <use xlink:href="#m2f05cf8a67" x="38.9" y="161.084375" style="stroke: #000000; stroke-width: 0.6"/>
      </g>
     </g>
     <g id="text_6">
      <!-- $\mathdefault{0.2}$ -->
      <g transform="translate(21.2 164.884375) scale(0.1 -0.1)">
       <use xlink:href="#NotoSans-Regular-30" transform="translate(0 0.5)"/>
       <use xlink:href="#NotoSans-Regular-2e" transform="translate(57.199997 0.5)"/>
       <use xlink:href="#NotoSans-Regular-32" transform="translate(83.999985 0.5)"/>
      </g>
     </g>
    </g>
    <g id="ytick_3">
     <g id="line2d_11">
      <g>
       <use xlink:href="#m2f05cf8a67" x="38.9" y="139.040625" style="stroke: #000000; stroke-width: 0.6"/>
      </g>
     </g>
     <g id="text_7">
      <!-- $\mathdefault{0.4}$ -->
      <g transform="translate(21.2 142.840625) scale(0.1 -0.1)">
       <use xlink:href="#NotoSans-Regular-30" transform="translate(0 0.5)"/>
       <use xlink:href="#NotoSans-Regular-2e" transform="translate(57.199997 0.5)"/>
       <use xlink:href="#NotoSans-Regular-34" transform="translate(83.999985 0.5)"/>
      </g>
     </g>
    </g>
    <g id="ytick_4">
     <g id="line2d_12">
      <g>
       <use xlink:href="#m2f05cf8a67" x="38.9" y="116.996875" style="stroke: #000000; stroke-width: 0.6"/>
      </g>
     </g>
     <g id="text_8">
      <!-- $\mathdefault{0.6}$ -->
      <g transform="translate(21.2 120.796875) scale(0.1 -0.1)">
       <defs>
        <path id="NotoSans-Regular-36" d="M 352 1952 
Q 352 2349 406 2733 
Q 461 3117 595 3459 
Q 730 3802 966 4067 
Q 1203 4333 1564 4483 
Q 1926 4634 2445 4634 
Q 2579 4634 2742 4621 
Q 2906 4608 3008 4576 
L 3008 4096 
Q 2893 4134 2749 4153 
Q 2605 4173 2458 4173 
Q 2016 4173 1721 4025 
Q 1427 3878 1257 3622 
Q 1088 3366 1011 3033 
Q 934 2701 915 2323 
L 954 2323 
Q 1050 2477 1197 2598 
Q 1344 2720 1552 2790 
Q 1760 2861 2035 2861 
Q 2432 2861 2729 2697 
Q 3027 2534 3193 2224 
Q 3360 1914 3360 1472 
Q 3360 998 3181 652 
Q 3002 307 2678 121 
Q 2355 -64 1907 -64 
Q 1581 -64 1299 57 
Q 1018 179 803 428 
Q 589 678 470 1059 
Q 352 1440 352 1952 
z
M 1901 410 
Q 2304 410 2553 669 
Q 2803 928 2803 1472 
Q 2803 1907 2582 2163 
Q 2362 2419 1920 2419 
Q 1619 2419 1395 2294 
Q 1171 2170 1046 1978 
Q 922 1786 922 1581 
Q 922 1370 982 1165 
Q 1043 960 1168 787 
Q 1293 614 1475 512 
Q 1658 410 1901 410 
z
" transform="scale(0.015625)"/>
       </defs>
       <use xlink:href="#NotoSans-Regular-30" transform="translate(0 0.5)"/>
       <use xlink:href="#NotoSans-Regular-2e" transform="translate(57.199997 0.5)"/>
       <use xlink:href="#NotoSans-Regular-36" transform="translate(83.999985 0.5)"/>
      </g>
     </g>
    </g>
    <g id="ytick_5">
     <g id="line2d_13">
      <g>
       <use xlink:href="#m2f05cf8a67" x="38.9" y="94.953125" style="stroke: #000000; stroke-width: 0.6"/>
      </g>
     </g>
     <g id="text_9">
      <!-- $\mathdefault{0.8}$ -->
      <g transform="translate(21.2 98.753125) scale(0.1 -0.1)">
       <defs>
        <path id="NotoSans-Regular-38" d="M 1824 4634 
Q 2227 4634 2534 4509 
Q 2842 4384 3018 4141 
Q 3194 3898 3194 3539 
Q 3194 3264 3075 3059 
Q 2957 2854 2758 2697 
Q 2560 2541 2323 2419 
Q 2605 2285 2835 2115 
Q 3066 1946 3203 1722 
Q 3341 1498 3341 1184 
Q 3341 800 3155 521 
Q 2970 243 2634 89 
Q 2298 -64 1843 -64 
Q 1350 -64 1008 83 
Q 666 230 490 502 
Q 314 774 314 1165 
Q 314 1478 445 1708 
Q 576 1939 793 2105 
Q 1011 2272 1261 2387 
Q 1037 2515 854 2678 
Q 672 2842 566 3053 
Q 461 3264 461 3546 
Q 461 3898 640 4138 
Q 819 4378 1126 4506 
Q 1434 4634 1824 4634 
z
M 864 1158 
Q 864 826 1101 605 
Q 1338 384 1830 384 
Q 2298 384 2544 605 
Q 2790 826 2790 1178 
Q 2790 1402 2672 1571 
Q 2554 1741 2339 1875 
Q 2125 2010 1830 2118 
L 1728 2157 
Q 1446 2035 1254 1894 
Q 1062 1754 963 1574 
Q 864 1395 864 1158 
z
M 1818 4179 
Q 1466 4179 1238 4009 
Q 1011 3840 1011 3520 
Q 1011 3283 1123 3123 
Q 1235 2963 1427 2851 
Q 1619 2739 1850 2637 
Q 2074 2733 2250 2848 
Q 2426 2963 2531 3126 
Q 2637 3290 2637 3520 
Q 2637 3840 2413 4009 
Q 2189 4179 1818 4179 
z
" transform="scale(0.015625)"/>
       </defs>
       <use xlink:href="#NotoSans-Regular-30" transform="translate(0 0.5)"/>
       <use xlink:href="#NotoSans-Regular-2e" transform="translate(57.199997 0.5)"/>
       <use xlink:href="#NotoSans-Regular-38" transform="translate(83.999985 0.5)"/>
      </g>
     </g>
    </g>
    <g id="ytick_6">
     <g id="line2d_14">
      <g>
       <use xlink:href="#m2f05cf8a67" x="38.9" y="72.909375" style="stroke: #000000; stroke-width: 0.6"/>
      </g>
     </g>
     <g id="text_10">
      <!-- $\mathdefault{1.0}$ -->
      <g transform="translate(21.2 76.709375) scale(0.1 -0.1)">
       <defs>
        <path id="NotoSans-Regular-31" d="M 2272 0 
L 1722 0 
L 1722 3194 
Q 1722 3379 1725 3507 
Q 1728 3635 1734 3747 
Q 1741 3859 1747 3981 
Q 1645 3878 1561 3808 
Q 1478 3738 1350 3629 
L 864 3232 
L 570 3610 
L 1805 4570 
L 2272 4570 
L 2272 0 
z
" transform="scale(0.015625)"/>
       </defs>
       <use xlink:href="#NotoSans-Regular-31" transform="translate(0 0.5)"/>
       <use xlink:href="#NotoSans-Regular-2e" transform="translate(57.199997 0.5)"/>
       <use xlink:href="#NotoSans-Regular-30" transform="translate(83.999985 0.5)"/>
      </g>
     </g>
    </g>
    <g id="ytick_7">
     <g id="line2d_15">
      <g>
       <use xlink:href="#m2f05cf8a67" x="38.9" y="50.865625" style="stroke: #000000; stroke-width: 0.6"/>
      </g>
     </g>
     <g id="text_11">
      <!-- $\mathdefault{1.2}$ -->
      <g transform="translate(21.2 54.665625) scale(0.1 -0.1)">
       <use xlink:href="#NotoSans-Regular-31" transform="translate(0 0.59375)"/>
       <use xlink:href="#NotoSans-Regular-2e" transform="translate(57.199997 0.59375)"/>
       <use xlink:href="#NotoSans-Regular-32" transform="translate(83.999985 0.59375)"/>
      </g>
     </g>
    </g>
    <g id="ytick_8">
     <g id="line2d_16">
      <g>
       <use xlink:href="#m2f05cf8a67" x="38.9" y="28.821875" style="stroke: #000000; stroke-width: 0.6"/>
      </g>
     </g>
     <g id="text_12">
      <!-- $\mathdefault{1.4}$ -->
      <g transform="translate(21.2 32.621875) scale(0.1 -0.1)">
       <use xlink:href="#NotoSans-Regular-31" transform="translate(0 0.203125)"/>
       <use xlink:href="#NotoSans-Regular-2e" transform="translate(57.199997 0.203125)"/>
       <use xlink:href="#NotoSans-Regular-34" transform="translate(83.999985 0.203125)"/>
      </g>
     </g>
    </g>
    <g id="text_13">
     <!-- $\Delta E(t_0)$ (a.u.) -->
     <g transform="translate(14.8 131.425) rotate(-90) scale(0.1 -0.1)">
      <defs>
       <path id="NotoSans-Regular-394" d="M 64 0 
L 64 320 
L 1786 4589 
L 2304 4589 
L 4019 320 
L 4019 0 
L 64 0 
z
M 723 518 
L 3354 518 
L 2285 3309 
Q 2266 3360 2214 3494 
Q 2163 3629 2115 3773 
Q 2067 3917 2042 3994 
Q 2010 3866 1968 3734 
Q 1926 3603 1884 3494 
Q 1843 3386 1818 3309 
L 723 518 
z
" transform="scale(0.015625)"/>
       <path id="NotoSans-Italic-45" d="M 262 0 
L 1229 4570 
L 3546 4570 
L 3437 4064 
L 1690 4064 
L 1389 2637 
L 3021 2637 
L 2925 2138 
L 1286 2138 
L 934 506 
L 2688 506 
L 2579 0 
L 262 0 
z
" transform="scale(0.015625)"/>
       <path id="NotoSans-Regular-28" d="M 256 1754 
Q 256 2278 355 2777 
Q 454 3277 665 3731 
Q 877 4186 1197 4570 
L 1728 4570 
Q 1280 3968 1053 3245 
Q 826 2522 826 1760 
Q 826 1267 928 780 
Q 1030 294 1228 -157 
Q 1427 -608 1722 -1011 
L 1197 -1011 
Q 877 -634 665 -189 
Q 454 256 355 749 
Q 256 1242 256 1754 
z
" transform="scale(0.015625)"/>
       <path id="NotoSans-Italic-74" d="M 1184 -64 
Q 838 -64 601 102 
Q 365 269 365 685 
Q 365 781 381 899 
Q 397 1018 422 1139 
L 813 3002 
L 282 3002 
L 333 3258 
L 909 3501 
L 1306 4211 
L 1638 4211 
L 1466 3430 
L 2330 3430 
L 2240 3002 
L 1382 3002 
L 986 1133 
Q 966 1050 947 944 
Q 928 838 928 749 
Q 928 602 1008 499 
Q 1088 397 1267 397 
Q 1382 397 1491 419 
Q 1600 442 1722 480 
L 1722 51 
Q 1645 13 1485 -25 
Q 1325 -64 1184 -64 
z
" transform="scale(0.015625)"/>
       <path id="NotoSans-Regular-29" d="M 1664 1754 
Q 1664 1242 1565 749 
Q 1466 256 1258 -189 
Q 1050 -634 723 -1011 
L 198 -1011 
Q 493 -608 691 -157 
Q 890 294 992 780 
Q 1094 1267 1094 1760 
Q 1094 2266 992 2758 
Q 890 3251 691 3712 
Q 493 4173 192 4570 
L 723 4570 
Q 1050 4186 1258 3731 
Q 1466 3277 1565 2777 
Q 1664 2278 1664 1754 
z
" transform="scale(0.015625)"/>
       <path id="NotoSans-Regular-20" transform="scale(0.015625)"/>
       <path id="NotoSans-Regular-61" d="M 1843 3488 
Q 2470 3488 2771 3213 
Q 3072 2938 3072 2336 
L 3072 0 
L 2662 0 
L 2554 486 
L 2528 486 
Q 2381 301 2224 176 
Q 2067 51 1865 -6 
Q 1664 -64 1376 -64 
Q 1069 -64 822 45 
Q 576 154 435 381 
Q 294 608 294 954 
Q 294 1466 697 1744 
Q 1101 2022 1939 2048 
L 2522 2067 
L 2522 2272 
Q 2522 2701 2336 2867 
Q 2150 3034 1811 3034 
Q 1542 3034 1299 2954 
Q 1056 2874 845 2771 
L 672 3194 
Q 896 3315 1203 3401 
Q 1510 3488 1843 3488 
z
M 2010 1658 
Q 1370 1632 1123 1453 
Q 877 1274 877 947 
Q 877 659 1053 524 
Q 1229 390 1504 390 
Q 1939 390 2227 630 
Q 2515 870 2515 1370 
L 2515 1677 
L 2010 1658 
z
" transform="scale(0.015625)"/>
       <path id="NotoSans-Regular-75" d="M 3411 3430 
L 3411 0 
L 2950 0 
L 2867 454 
L 2842 454 
Q 2733 275 2560 160 
Q 2387 45 2182 -9 
Q 1978 -64 1754 -64 
Q 1344 -64 1065 67 
Q 787 198 646 473 
Q 506 749 506 1184 
L 506 3430 
L 1075 3430 
L 1075 1222 
Q 1075 813 1260 608 
Q 1446 403 1837 403 
Q 2221 403 2441 547 
Q 2662 691 2755 969 
Q 2848 1248 2848 1645 
L 2848 3430 
L 3411 3430 
z
" transform="scale(0.015625)"/>
      </defs>
      <use xlink:href="#NotoSans-Regular-394" transform="translate(0 0.296875)"/>
      <use xlink:href="#NotoSans-Italic-45" transform="translate(63.899994 0.296875)"/>
      <use xlink:href="#NotoSans-Regular-28" transform="translate(115.299988 0.296875)"/>
      <use xlink:href="#NotoSans-Italic-74" transform="translate(145.299973 0.296875)"/>
      <use xlink:href="#NotoSans-Regular-30" transform="translate(178.499969 -15.78125) scale(0.7)"/>
      <use xlink:href="#NotoSans-Regular-29" transform="translate(221.219655 0.296875)"/>
      <use xlink:href="#NotoSans-Regular-20" transform="translate(251.21964 0.296875)"/>
      <use xlink:href="#NotoSans-Regular-28" transform="translate(277.219624 0.296875)"/>
      <use xlink:href="#NotoSans-Regular-61" transform="translate(307.219609 0.296875)"/>
      <use xlink:href="#NotoSans-Regular-2e" transform="translate(363.3196 0.296875)"/>
      <use xlink:href="#NotoSans-Regular-75" transform="translate(390.119588 0.296875)"/>
      <use xlink:href="#NotoSans-Regular-2e" transform="translate(451.919576 0.296875)"/>
      <use xlink:href="#NotoSans-Regular-29" transform="translate(478.719563 0.296875)"/>
     </g>
    </g>
    <g id="text_14">
     <!-- $\times\mathdefault{10^{−3}}\mathdefault{}$ -->
     <g transform="translate(38.9 14.8) scale(0.1 -0.1)">
      <defs>
       <path id="NotoSans-Regular-d7" d="M 2918 3674 
L 3238 3347 
L 2150 2259 
L 3232 1171 
L 2912 845 
L 1818 1926 
L 749 845 
L 416 1171 
L 1498 2259 
L 410 3341 
L 742 3674 
L 1824 2579 
L 2918 3674 
z
" transform="scale(0.015625)"/>
       <path id="NotoSans-Regular-33" d="M 3155 3501 
Q 3155 3194 3040 2970 
Q 2925 2746 2710 2605 
Q 2496 2464 2208 2406 
L 2208 2381 
Q 2758 2317 3027 2035 
Q 3296 1754 3296 1299 
Q 3296 902 3110 592 
Q 2925 282 2537 109 
Q 2150 -64 1542 -64 
Q 1184 -64 877 -9 
Q 570 45 288 186 
L 288 710 
Q 576 570 909 490 
Q 1242 410 1549 410 
Q 2163 410 2435 650 
Q 2707 890 2707 1312 
Q 2707 1600 2556 1776 
Q 2406 1952 2118 2035 
Q 1830 2118 1427 2118 
L 986 2118 
L 986 2598 
L 1434 2598 
Q 1811 2598 2064 2707 
Q 2317 2816 2448 3011 
Q 2579 3206 2579 3462 
Q 2579 3795 2355 3977 
Q 2131 4160 1747 4160 
Q 1504 4160 1305 4112 
Q 1107 4064 937 3977 
Q 768 3891 595 3776 
L 314 4160 
Q 557 4352 918 4493 
Q 1280 4634 1741 4634 
Q 2458 4634 2806 4314 
Q 3155 3994 3155 3501 
z
" transform="scale(0.015625)"/>
      </defs>
      <use xlink:href="#NotoSans-Regular-d7" transform="translate(0 0.8)"/>
      <use xlink:href="#NotoSans-Regular-31" transform="translate(57.199997 0.8)"/>
      <use xlink:href="#NotoSans-Regular-30" transform="translate(114.399994 0.8)"/>
      <use xlink:href="#NotoSans-Regular-2212" transform="translate(172.537881 38.315625) scale(0.7)"/>
      <use xlink:href="#NotoSans-Regular-33" transform="translate(195.077879 38.315625) scale(0.7)"/>
     </g>
    </g>
   </g>
   <g id="line2d_17">
    <path d="M 49.227151 183.128125 
L 110.218336 183.024558 
L 113.939832 182.777104 
L 116.420829 182.389403 
L 118.281577 181.883292 
L 119.935575 181.199101 
L 121.382824 180.353595 
L 122.623323 179.394294 
L 123.863821 178.170021 
L 125.10432 176.631038 
L 126.344819 174.725523 
L 127.585317 172.401693 
L 128.825816 169.610446 
L 130.066315 166.30842 
L 131.513563 161.765383 
L 132.960811 156.448257 
L 134.61481 149.421279 
L 136.475558 140.37052 
L 138.543055 129.098884 
L 141.437552 111.898674 
L 146.192797 83.581549 
L 148.260295 72.673817 
L 149.914293 65.006601 
L 151.361542 59.19632 
L 152.80879 54.280708 
L 154.049289 50.789987 
L 155.289787 47.953275 
L 156.323536 46.067858 
L 157.357285 44.591652 
L 158.391034 43.495157 
L 159.424783 42.745324 
L 160.458532 42.306966 
L 161.492281 42.144046 
L 162.52603 42.220813 
L 163.559779 42.502748 
L 164.800277 43.066238 
L 166.247526 43.969763 
L 168.108274 45.413259 
L 170.589271 47.640098 
L 177.412014 54.228219 
L 181.960509 58.396137 
L 186.095504 61.894323 
L 190.2305 65.113708 
L 194.572245 68.213337 
L 199.12074 71.177635 
L 203.669236 73.878103 
L 208.42448 76.445155 
L 213.386475 78.871037 
L 218.55522 81.150512 
L 223.930714 83.280695 
L 229.719708 85.330005 
L 235.715451 87.215073 
L 242.124694 88.99476 
L 248.947437 90.655456 
L 255.77018 92.106454 
L 255.77018 92.106454 
" clip-path="url(#p31b7795e2b)" style="fill: none; stroke: #333333; stroke-linecap: square"/>
   </g>
   <g id="line2d_18">
    <path d="M 254.871874 196.643966 
L 261.005889 191.656034 
" style="fill: none; stroke: #000000; stroke-width: 0.6; stroke-linecap: square"/>
   </g>
   <g id="line2d_19">
    <path d="M 254.871874 20.293966 
L 261.005889 15.306034 
" style="fill: none; stroke: #000000; stroke-width: 0.6; stroke-linecap: square"/>
   </g>
   <g id="patch_5">
    <path d="M 38.9 194.15 
L 38.9 17.8 
" style="fill: none; stroke: #000000; stroke-width: 0.6; stroke-linejoin: miter; stroke-linecap: square"/>
   </g>
   <g id="patch_6">
    <path d="M 38.9 194.15 
L 255.77018 194.15 
" style="fill: none; stroke: #000000; stroke-width: 0.6; stroke-linejoin: miter; stroke-linecap: square"/>
   </g>
   <g id="patch_7">
    <path d="M 38.9 17.8 
L 255.77018 17.8 
" style="fill: none; stroke: #000000; stroke-width: 0.6; stroke-linejoin: miter; stroke-linecap: square"/>
   </g>
   <g id="text_15">
    <!-- $\tau_1$ -->
    <g transform="translate(191.972558 152.6625) scale(0.1 -0.1)">
     <defs>
      <path id="NotoSans-Italic-3c4" d="M 1613 -64 
Q 1267 -64 1030 102 
Q 794 269 794 685 
Q 794 794 819 954 
Q 845 1114 877 1267 
L 1235 2950 
L 269 2950 
L 371 3430 
L 2938 3430 
L 2835 2950 
L 1798 2950 
L 1434 1254 
Q 1402 1107 1382 979 
Q 1363 851 1363 749 
Q 1363 602 1443 499 
Q 1523 397 1702 397 
Q 1811 397 1920 419 
Q 2029 442 2157 480 
L 2157 51 
Q 2080 13 1917 -25 
Q 1754 -64 1613 -64 
z
" transform="scale(0.015625)"/>
     </defs>
     <use xlink:href="#NotoSans-Italic-3c4" transform="translate(0 0.40625)"/>
     <use xlink:href="#NotoSans-Regular-31" transform="translate(40.999985 -15.671875) scale(0.7)"/>
    </g>
   </g>
  </g>
  <g id="axes_2">
   <g id="patch_8">
    <path d="M 267.373172 194.15 
L 484.243352 194.15 
L 484.243352 17.8 
L 267.373172 17.8 
z
" style="fill: #ffffff"/>
   </g>
   <g id="PathCollection_2">
    <g clip-path="url(#p743cb84825)">
     <use xlink:href="#m34c763b69e" x="267.701147" y="102.774548" style="fill: #166895; stroke: #ffffff"/>
     <use xlink:href="#m34c763b69e" x="268.045159" y="104.268022" style="fill: #166895; stroke: #ffffff"/>
     <use xlink:href="#m34c763b69e" x="268.409406" y="107.763031" style="fill: #166895; stroke: #ffffff"/>
     <use xlink:href="#m34c763b69e" x="268.773654" y="103.265068" style="fill: #166895; stroke: #ffffff"/>
     <use xlink:href="#m34c763b69e" x="269.158137" y="113.973453" style="fill: #166895; stroke: #ffffff"/>
     <use xlink:href="#m34c763b69e" x="269.562856" y="104.745407" style="fill: #166895; stroke: #ffffff"/>
     <use xlink:href="#m34c763b69e" x="269.967575" y="114.301923" style="fill: #166895; stroke: #ffffff"/>
     <use xlink:href="#m34c763b69e" x="270.372295" y="103.838812" style="fill: #166895; stroke: #ffffff"/>
     <use xlink:href="#m34c763b69e" x="270.79725" y="105.638867" style="fill: #166895; stroke: #ffffff"/>
     <use xlink:href="#m34c763b69e" x="271.222205" y="114.06544" style="fill: #166895; stroke: #ffffff"/>
     <use xlink:href="#m34c763b69e" x="271.667397" y="118.747312" style="fill: #166895; stroke: #ffffff"/>
     <use xlink:href="#m34c763b69e" x="272.132824" y="114.691703" style="fill: #166895; stroke: #ffffff"/>
     <use xlink:href="#m34c763b69e" x="272.598251" y="113.789489" style="fill: #166895; stroke: #ffffff"/>
     <use xlink:href="#m34c763b69e" x="273.063678" y="115.230406" style="fill: #166895; stroke: #ffffff"/>
     <use xlink:href="#m34c763b69e" x="273.549341" y="109.300316" style="fill: #166895; stroke: #ffffff"/>
     <use xlink:href="#m34c763b69e" x="274.035004" y="103.878233" style="fill: #166895; stroke: #ffffff"/>
     <use xlink:href="#m34c763b69e" x="274.540903" y="112.339809" style="fill: #166895; stroke: #ffffff"/>
     <use xlink:href="#m34c763b69e" x="275.046803" y="109.309042" style="fill: #166895; stroke: #ffffff"/>
     <use xlink:href="#m34c763b69e" x="275.572938" y="115.93993" style="fill: #166895; stroke: #ffffff"/>
     <use xlink:href="#m34c763b69e" x="276.119309" y="116.377894" style="fill: #166895; stroke: #ffffff"/>
     <use xlink:href="#m34c763b69e" x="276.66568" y="118.344389" style="fill: #166895; stroke: #ffffff"/>
     <use xlink:href="#m34c763b69e" x="277.212051" y="120.472906" style="fill: #166895; stroke: #ffffff"/>
     <use xlink:href="#m34c763b69e" x="277.778658" y="118.300586" style="fill: #166895; stroke: #ffffff"/>
     <use xlink:href="#m34c763b69e" x="278.345265" y="108.069604" style="fill: #166895; stroke: #ffffff"/>
     <use xlink:href="#m34c763b69e" x="278.932108" y="119.102069" style="fill: #166895; stroke: #ffffff"/>
     <use xlink:href="#m34c763b69e" x="279.518951" y="116.43484" style="fill: #166895; stroke: #ffffff"/>
     <use xlink:href="#m34c763b69e" x="280.12603" y="123.884691" style="fill: #166895; stroke: #ffffff"/>
     <use xlink:href="#m34c763b69e" x="280.753345" y="121.541559" style="fill: #166895; stroke: #ffffff"/>
     <use xlink:href="#m34c763b69e" x="281.360424" y="109.506149" style="fill: #166895; stroke: #ffffff"/>
     <use xlink:href="#m34c763b69e" x="282.007974" y="118.996957" style="fill: #166895; stroke: #ffffff"/>
     <use xlink:href="#m34c763b69e" x="282.655525" y="121.624793" style="fill: #166895; stroke: #ffffff"/>
     <use xlink:href="#m34c763b69e" x="283.303076" y="119.202791" style="fill: #166895; stroke: #ffffff"/>
     <use xlink:href="#m34c763b69e" x="283.970863" y="116.995431" style="fill: #166895; stroke: #ffffff"/>
     <use xlink:href="#m34c763b69e" x="284.63865" y="112.383612" style="fill: #166895; stroke: #ffffff"/>
     <use xlink:href="#m34c763b69e" x="285.326673" y="122.846705" style="fill: #166895; stroke: #ffffff"/>
     <use xlink:href="#m34c763b69e" x="286.014695" y="120.910869" style="fill: #166895; stroke: #ffffff"/>
     <use xlink:href="#m34c763b69e" x="286.722954" y="122.364949" style="fill: #166895; stroke: #ffffff"/>
     <use xlink:href="#m34c763b69e" x="287.431213" y="122.299249" style="fill: #166895; stroke: #ffffff"/>
     <use xlink:href="#m34c763b69e" x="288.159708" y="121.559084" style="fill: #166895; stroke: #ffffff"/>
     <use xlink:href="#m34c763b69e" x="288.908438" y="120.757601" style="fill: #166895; stroke: #ffffff"/>
     <use xlink:href="#m34c763b69e" x="289.636933" y="119.13271" style="fill: #166895; stroke: #ffffff"/>
     <use xlink:href="#m34c763b69e" x="290.4059" y="128.890679" style="fill: #166895; stroke: #ffffff"/>
     <use xlink:href="#m34c763b69e" x="291.174866" y="120.13131" style="fill: #166895; stroke: #ffffff"/>
     <use xlink:href="#m34c763b69e" x="291.943833" y="131.794447" style="fill: #166895; stroke: #ffffff"/>
     <use xlink:href="#m34c763b69e" x="292.733036" y="122.59706" style="fill: #166895; stroke: #ffffff"/>
     <use xlink:href="#m34c763b69e" x="293.522238" y="126.683328" style="fill: #166895; stroke: #ffffff"/>
     <use xlink:href="#m34c763b69e" x="294.331677" y="123.608795" style="fill: #166895; stroke: #ffffff"/>
     <use xlink:href="#m34c763b69e" x="295.141115" y="125.421976" style="fill: #166895; stroke: #ffffff"/>
     <use xlink:href="#m34c763b69e" x="295.97079" y="121.764918" style="fill: #166895; stroke: #ffffff"/>
     <use xlink:href="#m34c763b69e" x="296.800464" y="127.725713" style="fill: #166895; stroke: #ffffff"/>
     <use xlink:href="#m34c763b69e" x="297.650375" y="128.20747" style="fill: #166895; stroke: #ffffff"/>
     <use xlink:href="#m34c763b69e" x="298.500285" y="127.769479" style="fill: #166895; stroke: #ffffff"/>
     <use xlink:href="#m34c763b69e" x="299.370432" y="121.760536" style="fill: #166895; stroke: #ffffff"/>
     <use xlink:href="#m34c763b69e" x="300.240578" y="141.832785" style="fill: #166895; stroke: #ffffff"/>
     <use xlink:href="#m34c763b69e" x="301.130961" y="144.863562" style="fill: #166895; stroke: #ffffff"/>
     <use xlink:href="#m34c763b69e" x="302.021343" y="132.153595" style="fill: #166895; stroke: #ffffff"/>
     <use xlink:href="#m34c763b69e" x="302.931962" y="140.299881" style="fill: #166895; stroke: #ffffff"/>
     <use xlink:href="#m34c763b69e" x="303.84258" y="131.404659" style="fill: #166895; stroke: #ffffff"/>
     <use xlink:href="#m34c763b69e" x="304.773434" y="124.581062" style="fill: #166895; stroke: #ffffff"/>
     <use xlink:href="#m34c763b69e" x="305.704289" y="127.589923" style="fill: #166895; stroke: #ffffff"/>
     <use xlink:href="#m34c763b69e" x="306.655379" y="131.273241" style="fill: #166895; stroke: #ffffff"/>
     <use xlink:href="#m34c763b69e" x="307.626705" y="130.471758" style="fill: #166895; stroke: #ffffff"/>
     <use xlink:href="#m34c763b69e" x="308.577796" y="125.544603" style="fill: #166895; stroke: #ffffff"/>
     <use xlink:href="#m34c763b69e" x="309.569358" y="132.455769" style="fill: #166895; stroke: #ffffff"/>
     <use xlink:href="#m34c763b69e" x="310.540684" y="145.200786" style="fill: #166895; stroke: #ffffff"/>
     <use xlink:href="#m34c763b69e" x="311.552483" y="133.139015" style="fill: #166895; stroke: #ffffff"/>
     <use xlink:href="#m34c763b69e" x="312.544045" y="136.778567" style="fill: #166895; stroke: #ffffff"/>
     <use xlink:href="#m34c763b69e" x="313.576079" y="139.752397" style="fill: #166895; stroke: #ffffff"/>
     <use xlink:href="#m34c763b69e" x="314.587877" y="135.044201" style="fill: #166895; stroke: #ffffff"/>
     <use xlink:href="#m34c763b69e" x="315.640147" y="133.59454" style="fill: #166895; stroke: #ffffff"/>
     <use xlink:href="#m34c763b69e" x="316.672182" y="142.700023" style="fill: #166895; stroke: #ffffff"/>
     <use xlink:href="#m34c763b69e" x="317.744688" y="135.420837" style="fill: #166895; stroke: #ffffff"/>
     <use xlink:href="#m34c763b69e" x="318.796958" y="139.047309" style="fill: #166895; stroke: #ffffff"/>
     <use xlink:href="#m34c763b69e" x="319.8897" y="137.453032" style="fill: #166895; stroke: #ffffff"/>
     <use xlink:href="#m34c763b69e" x="320.962206" y="135.096748" style="fill: #166895; stroke: #ffffff"/>
     <use xlink:href="#m34c763b69e" x="322.054948" y="144.508832" style="fill: #166895; stroke: #ffffff"/>
     <use xlink:href="#m34c763b69e" x="323.167926" y="135.048564" style="fill: #166895; stroke: #ffffff"/>
     <use xlink:href="#m34c763b69e" x="324.280904" y="136.502698" style="fill: #166895; stroke: #ffffff"/>
     <use xlink:href="#m34c763b69e" x="325.414118" y="137.111436" style="fill: #166895; stroke: #ffffff"/>
     <use xlink:href="#m34c763b69e" x="326.547332" y="145.581839" style="fill: #166895; stroke: #ffffff"/>
     <use xlink:href="#m34c763b69e" x="327.700782" y="141.622571" style="fill: #166895; stroke: #ffffff"/>
     <use xlink:href="#m34c763b69e" x="328.854232" y="140.282393" style="fill: #166895; stroke: #ffffff"/>
     <use xlink:href="#m34c763b69e" x="330.027918" y="136.139142" style="fill: #166895; stroke: #ffffff"/>
     <use xlink:href="#m34c763b69e" x="331.201604" y="141.175817" style="fill: #166895; stroke: #ffffff"/>
     <use xlink:href="#m34c763b69e" x="332.395526" y="143.615353" style="fill: #166895; stroke: #ffffff"/>
     <use xlink:href="#m34c763b69e" x="333.589448" y="148.5995" style="fill: #166895; stroke: #ffffff"/>
     <use xlink:href="#m34c763b69e" x="334.803606" y="145.389186" style="fill: #166895; stroke: #ffffff"/>
     <use xlink:href="#m34c763b69e" x="336.017764" y="147.806779" style="fill: #166895; stroke: #ffffff"/>
     <use xlink:href="#m34c763b69e" x="337.252158" y="142.095565" style="fill: #166895; stroke: #ffffff"/>
     <use xlink:href="#m34c763b69e" x="338.486551" y="149.838937" style="fill: #166895; stroke: #ffffff"/>
     <use xlink:href="#m34c763b69e" x="339.741181" y="134.111282" style="fill: #166895; stroke: #ffffff"/>
     <use xlink:href="#m34c763b69e" x="340.995811" y="137.969866" style="fill: #166895; stroke: #ffffff"/>
     <use xlink:href="#m34c763b69e" x="342.270677" y="144.504424" style="fill: #166895; stroke: #ffffff"/>
     <use xlink:href="#m34c763b69e" x="343.545543" y="139.529066" style="fill: #166895; stroke: #ffffff"/>
     <use xlink:href="#m34c763b69e" x="344.820408" y="144.96433" style="fill: #166895; stroke: #ffffff"/>
     <use xlink:href="#m34c763b69e" x="346.135746" y="145.034392" style="fill: #166895; stroke: #ffffff"/>
     <use xlink:href="#m34c763b69e" x="347.430848" y="144.938015" style="fill: #166895; stroke: #ffffff"/>
     <use xlink:href="#m34c763b69e" x="348.746185" y="145.178916" style="fill: #166895; stroke: #ffffff"/>
     <use xlink:href="#m34c763b69e" x="350.081759" y="142.353955" style="fill: #166895; stroke: #ffffff"/>
     <use xlink:href="#m34c763b69e" x="351.417333" y="140.567052" style="fill: #166895; stroke: #ffffff"/>
     <use xlink:href="#m34c763b69e" x="352.773142" y="146.181898" style="fill: #166895; stroke: #ffffff"/>
     <use xlink:href="#m34c763b69e" x="354.128952" y="151.297444" style="fill: #166895; stroke: #ffffff"/>
     <use xlink:href="#m34c763b69e" x="355.504998" y="153.018657" style="fill: #166895; stroke: #ffffff"/>
     <use xlink:href="#m34c763b69e" x="356.881043" y="147.881195" style="fill: #166895; stroke: #ffffff"/>
     <use xlink:href="#m34c763b69e" x="358.277325" y="145.222719" style="fill: #166895; stroke: #ffffff"/>
     <use xlink:href="#m34c763b69e" x="359.673606" y="140.203532" style="fill: #166895; stroke: #ffffff"/>
     <use xlink:href="#m34c763b69e" x="361.069888" y="144.885459" style="fill: #166895; stroke: #ffffff"/>
     <use xlink:href="#m34c763b69e" x="362.506641" y="143.786128" style="fill: #166895; stroke: #ffffff"/>
     <use xlink:href="#m34c763b69e" x="363.923159" y="141.018177" style="fill: #166895; stroke: #ffffff"/>
     <use xlink:href="#m34c763b69e" x="365.359912" y="149.199531" style="fill: #166895; stroke: #ffffff"/>
     <use xlink:href="#m34c763b69e" x="366.816902" y="149.479817" style="fill: #166895; stroke: #ffffff"/>
     <use xlink:href="#m34c763b69e" x="368.273891" y="143.921963" style="fill: #166895; stroke: #ffffff"/>
     <use xlink:href="#m34c763b69e" x="369.751117" y="144.981864" style="fill: #166895; stroke: #ffffff"/>
     <use xlink:href="#m34c763b69e" x="371.228342" y="148.691459" style="fill: #166895; stroke: #ffffff"/>
     <use xlink:href="#m34c763b69e" x="372.725803" y="154.091691" style="fill: #166895; stroke: #ffffff"/>
     <use xlink:href="#m34c763b69e" x="374.223265" y="148.415573" style="fill: #166895; stroke: #ffffff"/>
     <use xlink:href="#m34c763b69e" x="375.720726" y="148.406792" style="fill: #166895; stroke: #ffffff"/>
     <use xlink:href="#m34c763b69e" x="377.238423" y="151.37186" style="fill: #166895; stroke: #ffffff"/>
     <use xlink:href="#m34c763b69e" x="378.776357" y="149.387867" style="fill: #166895; stroke: #ffffff"/>
     <use xlink:href="#m34c763b69e" x="380.31429" y="147.526419" style="fill: #166895; stroke: #ffffff"/>
     <use xlink:href="#m34c763b69e" x="381.872459" y="147.776102" style="fill: #166895; stroke: #ffffff"/>
     <use xlink:href="#m34c763b69e" x="383.430629" y="142.191924" style="fill: #166895; stroke: #ffffff"/>
     <use xlink:href="#m34c763b69e" x="385.009034" y="155.204129" style="fill: #166895; stroke: #ffffff"/>
     <use xlink:href="#m34c763b69e" x="386.587439" y="151.367488" style="fill: #166895; stroke: #ffffff"/>
     <use xlink:href="#m34c763b69e" x="388.165844" y="150.539727" style="fill: #166895; stroke: #ffffff"/>
     <use xlink:href="#m34c763b69e" x="389.764486" y="152.76024" style="fill: #166895; stroke: #ffffff"/>
     <use xlink:href="#m34c763b69e" x="391.383363" y="152.269693" style="fill: #166895; stroke: #ffffff"/>
     <use xlink:href="#m34c763b69e" x="393.00224" y="153.741269" style="fill: #166895; stroke: #ffffff"/>
     <use xlink:href="#m34c763b69e" x="394.641353" y="155.580783" style="fill: #166895; stroke: #ffffff"/>
     <use xlink:href="#m34c763b69e" x="396.280466" y="142.704377" style="fill: #166895; stroke: #ffffff"/>
     <use xlink:href="#m34c763b69e" x="397.919579" y="151.722245" style="fill: #166895; stroke: #ffffff"/>
     <use xlink:href="#m34c763b69e" x="399.578928" y="151.827339" style="fill: #166895; stroke: #ffffff"/>
     <use xlink:href="#m34c763b69e" x="401.258513" y="144.403674" style="fill: #166895; stroke: #ffffff"/>
     <use xlink:href="#m34c763b69e" x="402.938098" y="159.916697" style="fill: #166895; stroke: #ffffff"/>
     <use xlink:href="#m34c763b69e" x="404.637919" y="152.834711" style="fill: #166895; stroke: #ffffff"/>
     <use xlink:href="#m34c763b69e" x="406.33774" y="155.326747" style="fill: #166895; stroke: #ffffff"/>
     <use xlink:href="#m34c763b69e" x="408.037562" y="143.094165" style="fill: #166895; stroke: #ffffff"/>
     <use xlink:href="#m34c763b69e" x="409.757618" y="160.722552" style="fill: #166895; stroke: #ffffff"/>
     <use xlink:href="#m34c763b69e" x="411.497911" y="153.517966" style="fill: #166895; stroke: #ffffff"/>
     <use xlink:href="#m34c763b69e" x="413.238204" y="151.2843" style="fill: #166895; stroke: #ffffff"/>
     <use xlink:href="#m34c763b69e" x="414.998733" y="156.141347" style="fill: #166895; stroke: #ffffff"/>
     <use xlink:href="#m34c763b69e" x="416.759262" y="163.735813" style="fill: #166895; stroke: #ffffff"/>
     <use xlink:href="#m34c763b69e" x="418.519791" y="152.615715" style="fill: #166895; stroke: #ffffff"/>
     <use xlink:href="#m34c763b69e" x="420.300556" y="158.67286" style="fill: #166895; stroke: #ffffff"/>
     <use xlink:href="#m34c763b69e" x="422.101557" y="159.268482" style="fill: #166895; stroke: #ffffff"/>
     <use xlink:href="#m34c763b69e" x="423.902558" y="156.382276" style="fill: #166895; stroke: #ffffff"/>
     <use xlink:href="#m34c763b69e" x="425.703559" y="150.763076" style="fill: #166895; stroke: #ffffff"/>
     <use xlink:href="#m34c763b69e" x="427.545031" y="152.344201" style="fill: #166895; stroke: #ffffff"/>
     <use xlink:href="#m34c763b69e" x="429.366268" y="161.12114" style="fill: #166895; stroke: #ffffff"/>
     <use xlink:href="#m34c763b69e" x="431.207741" y="154.477071" style="fill: #166895; stroke: #ffffff"/>
     <use xlink:href="#m34c763b69e" x="433.06945" y="159.969253" style="fill: #166895; stroke: #ffffff"/>
     <use xlink:href="#m34c763b69e" x="434.931158" y="155.125286" style="fill: #166895; stroke: #ffffff"/>
     <use xlink:href="#m34c763b69e" x="436.792867" y="152.243424" style="fill: #166895; stroke: #ffffff"/>
     <use xlink:href="#m34c763b69e" x="438.674812" y="153.001113" style="fill: #166895; stroke: #ffffff"/>
     <use xlink:href="#m34c763b69e" x="440.576992" y="155.112142" style="fill: #166895; stroke: #ffffff"/>
     <use xlink:href="#m34c763b69e" x="442.479173" y="158.099126" style="fill: #166895; stroke: #ffffff"/>
     <use xlink:href="#m34c763b69e" x="444.381354" y="149.25645" style="fill: #166895; stroke: #ffffff"/>
     <use xlink:href="#m34c763b69e" x="446.30377" y="160.818929" style="fill: #166895; stroke: #ffffff"/>
     <use xlink:href="#m34c763b69e" x="448.246423" y="155.120905" style="fill: #166895; stroke: #ffffff"/>
     <use xlink:href="#m34c763b69e" x="450.189076" y="154.726753" style="fill: #166895; stroke: #ffffff"/>
     <use xlink:href="#m34c763b69e" x="452.131728" y="155.199757" style="fill: #166895; stroke: #ffffff"/>
     <use xlink:href="#m34c763b69e" x="454.094617" y="158.944384" style="fill: #166895; stroke: #ffffff"/>
     <use xlink:href="#m34c763b69e" x="456.077741" y="154.94573" style="fill: #166895; stroke: #ffffff"/>
     <use xlink:href="#m34c763b69e" x="458.060866" y="146.541073" style="fill: #166895; stroke: #ffffff"/>
     <use xlink:href="#m34c763b69e" x="460.04399" y="160.437903" style="fill: #166895; stroke: #ffffff"/>
     <use xlink:href="#m34c763b69e" x="462.047351" y="158.572129" style="fill: #166895; stroke: #ffffff"/>
     <use xlink:href="#m34c763b69e" x="464.070947" y="157.534144" style="fill: #166895; stroke: #ffffff"/>
     <use xlink:href="#m34c763b69e" x="466.094544" y="156.91657" style="fill: #166895; stroke: #ffffff"/>
    </g>
   </g>
   <g id="patch_9">
    <path d="M 263.509882 161.084375 
Q 287.954373 161.084375 312.398865 161.084375 
" clip-path="url(#p743cb84825)" style="fill: none; stroke: #000000; stroke-linecap: round"/>
    <path d="M 263.509882 161.084375 
L 263.509882 161.084375 
L 263.509882 161.084375 
L 263.509882 161.084375 
" clip-path="url(#p743cb84825)" style="fill: none; stroke: #000000; stroke-linecap: round"/>
    <path d="M 312.398865 163.084375 
L 312.398865 163.084375 
L 312.398865 159.084375 
L 312.398865 159.084375 
" clip-path="url(#p743cb84825)" style="fill: none; stroke: #000000; stroke-linecap: round"/>
   </g>
   <g id="patch_10">
    <path d="M 261.511882 172.10625 
Q 262.167556 172.10625 262.82323 172.10625 
" clip-path="url(#p743cb84825)" style="fill: none; stroke: #000000; stroke-linecap: round"/>
    <path d="M 261.511882 170.10625 
L 261.511882 170.10625 
L 261.511882 174.10625 
L 261.511882 174.10625 
" clip-path="url(#p743cb84825)" style="fill: none; stroke: #000000; stroke-linecap: round"/>
    <path d="M 262.82323 172.10625 
L 262.82323 172.10625 
L 262.82323 172.10625 
L 262.82323 172.10625 
" clip-path="url(#p743cb84825)" style="fill: none; stroke: #000000; stroke-linecap: round"/>
   </g>
   <g id="patch_11">
    <path d="M 263.511887 172.10625 
Q 352.408104 172.10625 440.597213 172.10625 
" clip-path="url(#p743cb84825)" style="fill: none; stroke: #000000; stroke-linecap: round"/>
    <path d="M 438.597213 170.10625 
L 440.597213 172.10625 
L 438.597213 174.10625 
z
" clip-path="url(#p743cb84825)" style="fill: #1f77b4; stroke: #000000; stroke-linecap: round"/>
   </g>
   <g id="matplotlib.axis_3">
    <g id="xtick_5">
     <g id="line2d_20">
      <g>
       <use xlink:href="#m27f0518fe4" x="321.972478" y="194.15" style="stroke: #000000; stroke-width: 0.6"/>
      </g>
     </g>
     <g id="line2d_21">
      <g>
       <use xlink:href="#m447cd26dad" x="321.972478" y="17.8" style="stroke: #000000; stroke-width: 0.6"/>
      </g>
     </g>
     <g id="text_16">
      <!-- $\mathdefault{200}$ -->
      <g transform="translate(313.372478 205.25) scale(0.1 -0.1)">
       <use xlink:href="#NotoSans-Regular-32" transform="translate(0 0.5)"/>
       <use xlink:href="#NotoSans-Regular-30" transform="translate(57.199997 0.5)"/>
       <use xlink:href="#NotoSans-Regular-30" transform="translate(114.399994 0.5)"/>
      </g>
     </g>
    </g>
    <g id="xtick_6">
     <g id="line2d_22">
      <g>
       <use xlink:href="#m27f0518fe4" x="382.638374" y="194.15" style="stroke: #000000; stroke-width: 0.6"/>
      </g>
     </g>
     <g id="line2d_23">
      <g>
       <use xlink:href="#m447cd26dad" x="382.638374" y="17.8" style="stroke: #000000; stroke-width: 0.6"/>
      </g>
     </g>
     <g id="text_17">
      <!-- $\mathdefault{400}$ -->
      <g transform="translate(374.038374 205.25) scale(0.1 -0.1)">
       <use xlink:href="#NotoSans-Regular-34" transform="translate(0 0.5)"/>
       <use xlink:href="#NotoSans-Regular-30" transform="translate(57.199997 0.5)"/>
       <use xlink:href="#NotoSans-Regular-30" transform="translate(114.399994 0.5)"/>
      </g>
     </g>
    </g>
    <g id="xtick_7">
     <g id="line2d_24">
      <g>
       <use xlink:href="#m27f0518fe4" x="443.304269" y="194.15" style="stroke: #000000; stroke-width: 0.6"/>
      </g>
     </g>
     <g id="line2d_25">
      <g>
       <use xlink:href="#m447cd26dad" x="443.304269" y="17.8" style="stroke: #000000; stroke-width: 0.6"/>
      </g>
     </g>
     <g id="text_18">
      <!-- $\mathdefault{600}$ -->
      <g transform="translate(434.704269 205.25) scale(0.1 -0.1)">
       <use xlink:href="#NotoSans-Regular-36" transform="translate(0 0.5)"/>
       <use xlink:href="#NotoSans-Regular-30" transform="translate(57.199997 0.5)"/>
       <use xlink:href="#NotoSans-Regular-30" transform="translate(114.399994 0.5)"/>
      </g>
     </g>
    </g>
   </g>
   <g id="matplotlib.axis_4">
    <g id="ytick_9">
     <g id="line2d_26">
      <defs>
       <path id="m224ad0bbbf" d="M 0 0 
L -4 0 
" style="stroke: #000000; stroke-width: 0.6"/>
      </defs>
      <g>
       <use xlink:href="#m224ad0bbbf" x="484.243352" y="183.128125" style="stroke: #000000; stroke-width: 0.6"/>
      </g>
     </g>
    </g>
    <g id="ytick_10">
     <g id="line2d_27">
      <g>
       <use xlink:href="#m224ad0bbbf" x="484.243352" y="161.084375" style="stroke: #000000; stroke-width: 0.6"/>
      </g>
     </g>
    </g>
    <g id="ytick_11">
     <g id="line2d_28">
      <g>
       <use xlink:href="#m224ad0bbbf" x="484.243352" y="139.040625" style="stroke: #000000; stroke-width: 0.6"/>
      </g>
     </g>
    </g>
    <g id="ytick_12">
     <g id="line2d_29">
      <g>
       <use xlink:href="#m224ad0bbbf" x="484.243352" y="116.996875" style="stroke: #000000; stroke-width: 0.6"/>
      </g>
     </g>
    </g>
    <g id="ytick_13">
     <g id="line2d_30">
      <g>
       <use xlink:href="#m224ad0bbbf" x="484.243352" y="94.953125" style="stroke: #000000; stroke-width: 0.6"/>
      </g>
     </g>
    </g>
    <g id="ytick_14">
     <g id="line2d_31">
      <g>
       <use xlink:href="#m224ad0bbbf" x="484.243352" y="72.909375" style="stroke: #000000; stroke-width: 0.6"/>
      </g>
     </g>
    </g>
    <g id="ytick_15">
     <g id="line2d_32">
      <g>
       <use xlink:href="#m224ad0bbbf" x="484.243352" y="50.865625" style="stroke: #000000; stroke-width: 0.6"/>
      </g>
     </g>
    </g>
    <g id="ytick_16">
     <g id="line2d_33">
      <g>
       <use xlink:href="#m224ad0bbbf" x="484.243352" y="28.821875" style="stroke: #000000; stroke-width: 0.6"/>
      </g>
     </g>
    </g>
   </g>
   <g id="line2d_34">
    <path d="M 267.373172 105.607028 
L 271.296112 109.264798 
L 275.631993 113.001356 
L 279.967874 116.443778 
L 284.510225 119.759855 
L 289.052576 122.802994 
L 293.801398 125.716989 
L 298.756691 128.491198 
L 303.918453 131.11747 
L 309.286687 133.590048 
L 314.861391 135.905427 
L 320.642565 138.062194 
L 326.63021 140.060836 
L 333.030796 141.96132 
L 339.844323 143.746958 
L 347.070791 145.405534 
L 354.7102 146.929123 
L 362.969021 148.346581 
L 371.847253 149.642628 
L 381.551367 150.831263 
L 392.287834 151.915588 
L 404.056653 152.876695 
L 417.270766 153.729261 
L 432.343114 154.474102 
L 449.893108 155.11197 
L 470.74663 155.640128 
L 473.637217 155.698248 
L 473.637217 155.698248 
" clip-path="url(#p743cb84825)" style="fill: none; stroke: #333333; stroke-linecap: square"/>
   </g>
   <g id="line2d_35">
    <path d="M 264.306165 196.643966 
L 270.44018 191.656034 
" style="fill: none; stroke: #000000; stroke-width: 0.6; stroke-linecap: square"/>
   </g>
   <g id="line2d_36">
    <path d="M 264.306165 20.293966 
L 270.44018 15.306034 
" style="fill: none; stroke: #000000; stroke-width: 0.6; stroke-linecap: square"/>
   </g>
   <g id="patch_12">
    <path d="M 484.243352 194.15 
L 484.243352 17.8 
" style="fill: none; stroke: #000000; stroke-width: 0.6; stroke-linejoin: miter; stroke-linecap: square"/>
   </g>
   <g id="patch_13">
    <path d="M 267.373172 194.15 
L 484.243352 194.15 
" style="fill: none; stroke: #000000; stroke-width: 0.6; stroke-linejoin: miter; stroke-linecap: square"/>
   </g>
   <g id="patch_14">
    <path d="M 267.373172 17.8 
L 484.243352 17.8 
" style="fill: none; stroke: #000000; stroke-width: 0.6; stroke-linejoin: miter; stroke-linecap: square"/>
   </g>
   <g id="text_19">
    <!-- $\tau_2$ -->
    <g transform="translate(314.395918 163.684375) scale(0.1 -0.1)">
     <use xlink:href="#NotoSans-Italic-3c4" transform="translate(0 0.40625)"/>
     <use xlink:href="#NotoSans-Regular-32" transform="translate(40.999985 -15.671875) scale(0.7)"/>
    </g>
   </g>
   <g id="text_20">
    <!-- $\tau_3 = \infty$ -->
    <g transform="translate(443.304269 174.70625) scale(0.1 -0.1)">
     <defs>
      <path id="NotoSans-Regular-3d" d="M 358 2662 
L 358 3117 
L 3290 3117 
L 3290 2662 
L 358 2662 
z
M 358 1389 
L 358 1843 
L 3290 1843 
L 3290 1389 
L 358 1389 
z
" transform="scale(0.015625)"/>
      <path id="Cmsy10-31" d="M 1575 -72 
Q 1213 -72 933 140 
Q 653 353 506 690 
Q 359 1028 359 1381 
Q 359 1653 445 1912 
Q 531 2172 693 2378 
Q 856 2584 1086 2706 
Q 1316 2828 1594 2828 
Q 1881 2828 2150 2718 
Q 2419 2609 2642 2428 
Q 2866 2247 3059 2009 
L 3250 1753 
Q 3441 2056 3672 2295 
Q 3903 2534 4195 2681 
Q 4488 2828 4819 2828 
Q 5097 2828 5325 2704 
Q 5553 2581 5712 2368 
Q 5872 2156 5953 1898 
Q 6034 1641 6034 1381 
Q 6034 1019 5882 683 
Q 5731 347 5451 137 
Q 5172 -72 4800 -72 
Q 4381 -72 4004 153 
Q 3628 378 3334 750 
L 3144 1006 
Q 2850 528 2451 228 
Q 2053 -72 1575 -72 
z
M 1509 153 
Q 2322 153 2963 1241 
L 2625 1672 
Q 2331 2059 2078 2278 
Q 1825 2497 1491 2497 
Q 1206 2497 986 2336 
Q 766 2175 645 1915 
Q 525 1656 525 1375 
Q 525 1159 592 942 
Q 659 725 787 547 
Q 916 369 1098 261 
Q 1281 153 1509 153 
z
M 3769 1088 
Q 4063 700 4316 481 
Q 4569 263 4903 263 
Q 5116 263 5294 356 
Q 5472 450 5601 609 
Q 5731 769 5800 969 
Q 5869 1169 5869 1381 
Q 5869 1678 5750 1961 
Q 5631 2244 5407 2425 
Q 5184 2606 4884 2606 
Q 4072 2606 3431 1516 
L 3769 1088 
z
" transform="scale(0.015625)"/>
     </defs>
     <use xlink:href="#NotoSans-Italic-3c4" transform="translate(0 0.40625)"/>
     <use xlink:href="#NotoSans-Regular-33" transform="translate(40.999985 -15.671875) scale(0.7)"/>
     <use xlink:href="#NotoSans-Regular-3d" transform="translate(101.219667 0.40625)"/>
     <use xlink:href="#Cmsy10-31" transform="translate(175.919661 0.40625)"/>
    </g>
   </g>
   <g id="axes_3">
    <g id="patch_15">
     <path d="M 354.121244 105.975 
L 462.556334 105.975 
L 462.556334 35.435 
L 354.121244 35.435 
z
" style="fill: #ffffff"/>
    </g>
    <g id="matplotlib.axis_5">
     <g id="xtick_8">
      <g id="line2d_37">
       <g>
        <use xlink:href="#m27f0518fe4" x="373.266909" y="105.975" style="stroke: #000000; stroke-width: 0.6"/>
       </g>
      </g>
      <g id="line2d_38">
       <g>
        <use xlink:href="#m447cd26dad" x="373.266909" y="35.435" style="stroke: #000000; stroke-width: 0.6"/>
       </g>
      </g>
      <g id="text_21">
       <!-- $\mathdefault{0}$ -->
       <g transform="translate(370.366909 117.075) scale(0.1 -0.1)">
        <use xlink:href="#NotoSans-Regular-30" transform="translate(0 0.5)"/>
       </g>
      </g>
     </g>
     <g id="xtick_9">
      <g id="line2d_39">
       <g>
        <use xlink:href="#m27f0518fe4" x="432.898535" y="105.975" style="stroke: #000000; stroke-width: 0.6"/>
       </g>
      </g>
      <g id="line2d_40">
       <g>
        <use xlink:href="#m447cd26dad" x="432.898535" y="35.435" style="stroke: #000000; stroke-width: 0.6"/>
       </g>
      </g>
      <g id="text_22">
       <!-- $\mathdefault{2}$ -->
       <g transform="translate(429.998535 117.075) scale(0.1 -0.1)">
        <use xlink:href="#NotoSans-Regular-32" transform="translate(0 0.59375)"/>
       </g>
      </g>
     </g>
     <g id="text_23">
      <!-- $\log_{10}(\tau)$ -->
      <g transform="translate(390.938789 131.075) scale(0.1 -0.1)">
       <defs>
        <path id="NotoSans-Regular-6c" d="M 1107 0 
L 544 0 
L 544 4864 
L 1107 4864 
L 1107 0 
z
" transform="scale(0.015625)"/>
        <path id="NotoSans-Regular-6f" d="M 3526 1722 
Q 3526 1293 3414 963 
Q 3302 634 3094 403 
Q 2886 173 2588 54 
Q 2291 -64 1926 -64 
Q 1587 -64 1299 54 
Q 1011 173 800 403 
Q 589 634 470 963 
Q 352 1293 352 1722 
Q 352 2291 544 2684 
Q 736 3078 1094 3286 
Q 1453 3494 1946 3494 
Q 2413 3494 2768 3286 
Q 3123 3078 3324 2684 
Q 3526 2291 3526 1722 
z
M 934 1722 
Q 934 1318 1040 1020 
Q 1146 723 1370 563 
Q 1594 403 1939 403 
Q 2285 403 2509 563 
Q 2733 723 2838 1020 
Q 2944 1318 2944 1722 
Q 2944 2131 2835 2419 
Q 2726 2707 2505 2864 
Q 2285 3021 1933 3021 
Q 1408 3021 1171 2675 
Q 934 2330 934 1722 
z
" transform="scale(0.015625)"/>
        <path id="NotoSans-Regular-67" d="M 1760 3494 
Q 2099 3494 2371 3366 
Q 2643 3238 2835 2976 
L 2867 2976 
L 2944 3430 
L 3392 3430 
L 3392 -58 
Q 3392 -544 3225 -873 
Q 3059 -1203 2720 -1369 
Q 2381 -1536 1856 -1536 
Q 1485 -1536 1174 -1481 
Q 864 -1427 621 -1318 
L 621 -800 
Q 864 -928 1190 -998 
Q 1517 -1069 1888 -1069 
Q 2330 -1069 2582 -809 
Q 2835 -550 2835 -102 
L 2835 32 
Q 2835 109 2841 253 
Q 2848 397 2854 454 
L 2829 454 
Q 2650 192 2384 64 
Q 2118 -64 1766 -64 
Q 1101 -64 726 403 
Q 352 870 352 1709 
Q 352 2528 726 3011 
Q 1101 3494 1760 3494 
z
M 1837 3021 
Q 1549 3021 1347 2867 
Q 1146 2714 1040 2419 
Q 934 2125 934 1702 
Q 934 1069 1168 733 
Q 1402 397 1850 397 
Q 2112 397 2297 464 
Q 2483 531 2604 675 
Q 2726 819 2784 1043 
Q 2842 1267 2842 1574 
L 2842 1709 
Q 2842 2176 2736 2464 
Q 2630 2752 2406 2886 
Q 2182 3021 1837 3021 
z
" transform="scale(0.015625)"/>
       </defs>
       <use xlink:href="#NotoSans-Regular-6c"/>
       <use xlink:href="#NotoSans-Regular-6f" transform="translate(25.799988 0)"/>
       <use xlink:href="#NotoSans-Regular-67" transform="translate(86.299973 0)"/>
       <use xlink:href="#NotoSans-Regular-31" transform="translate(148.737848 -16.078125) scale(0.7)"/>
       <use xlink:href="#NotoSans-Regular-30" transform="translate(188.777846 -16.078125) scale(0.7)"/>
       <use xlink:href="#NotoSans-Regular-28" transform="translate(246.081154 0)"/>
       <use xlink:href="#NotoSans-Italic-3c4" transform="translate(276.081138 0)"/>
       <use xlink:href="#NotoSans-Regular-29" transform="translate(317.081123 0)"/>
      </g>
     </g>
    </g>
    <g id="matplotlib.axis_6">
     <g id="ytick_17">
      <g id="line2d_41">
       <g>
        <use xlink:href="#m2f05cf8a67" x="354.121244" y="84.177686" style="stroke: #000000; stroke-width: 0.6"/>
       </g>
      </g>
      <g id="line2d_42">
       <g>
        <use xlink:href="#m224ad0bbbf" x="462.556334" y="84.177686" style="stroke: #000000; stroke-width: 0.6"/>
       </g>
      </g>
      <g id="text_24">
       <!-- $\mathdefault{0.5}$ -->
       <g transform="translate(336.421244 87.977686) scale(0.1 -0.1)">
        <defs>
         <path id="NotoSans-Regular-35" d="M 1760 2803 
Q 2227 2803 2572 2643 
Q 2918 2483 3107 2185 
Q 3296 1888 3296 1459 
Q 3296 986 3091 643 
Q 2886 301 2505 118 
Q 2125 -64 1587 -64 
Q 1235 -64 924 0 
Q 614 64 403 186 
L 403 717 
Q 634 576 963 496 
Q 1293 416 1594 416 
Q 1933 416 2185 521 
Q 2438 627 2579 848 
Q 2720 1069 2720 1402 
Q 2720 1850 2445 2090 
Q 2170 2330 1574 2330 
Q 1395 2330 1164 2298 
Q 934 2266 794 2234 
L 512 2413 
L 685 4570 
L 2976 4570 
L 2976 4058 
L 1165 4058 
L 1056 2733 
Q 1165 2752 1350 2777 
Q 1536 2803 1760 2803 
z
" transform="scale(0.015625)"/>
        </defs>
        <use xlink:href="#NotoSans-Regular-30" transform="translate(0 0.5)"/>
        <use xlink:href="#NotoSans-Regular-2e" transform="translate(57.199997 0.5)"/>
        <use xlink:href="#NotoSans-Regular-35" transform="translate(83.999985 0.5)"/>
       </g>
      </g>
     </g>
     <g id="ytick_18">
      <g id="line2d_43">
       <g>
        <use xlink:href="#m2f05cf8a67" x="354.121244" y="55.492919" style="stroke: #000000; stroke-width: 0.6"/>
       </g>
      </g>
      <g id="line2d_44">
       <g>
        <use xlink:href="#m224ad0bbbf" x="462.556334" y="55.492919" style="stroke: #000000; stroke-width: 0.6"/>
       </g>
      </g>
      <g id="text_25">
       <!-- $\mathdefault{1.0}$ -->
       <g transform="translate(336.421244 59.292919) scale(0.1 -0.1)">
        <use xlink:href="#NotoSans-Regular-31" transform="translate(0 0.5)"/>
        <use xlink:href="#NotoSans-Regular-2e" transform="translate(57.199997 0.5)"/>
        <use xlink:href="#NotoSans-Regular-30" transform="translate(83.999985 0.5)"/>
       </g>
      </g>
     </g>
     <g id="text_26">
      <!-- $\Delta E$ (a.u.) -->
      <g transform="translate(330.021244 89.355) rotate(-90) scale(0.1 -0.1)">
       <use xlink:href="#NotoSans-Regular-394" transform="translate(0 0.296875)"/>
       <use xlink:href="#NotoSans-Italic-45" transform="translate(63.899994 0.296875)"/>
       <use xlink:href="#NotoSans-Regular-20" transform="translate(115.299988 0.296875)"/>
       <use xlink:href="#NotoSans-Regular-28" transform="translate(141.299973 0.296875)"/>
       <use xlink:href="#NotoSans-Regular-61" transform="translate(171.299957 0.296875)"/>
       <use xlink:href="#NotoSans-Regular-2e" transform="translate(227.399948 0.296875)"/>
       <use xlink:href="#NotoSans-Regular-75" transform="translate(254.199936 0.296875)"/>
       <use xlink:href="#NotoSans-Regular-2e" transform="translate(315.999924 0.296875)"/>
       <use xlink:href="#NotoSans-Regular-29" transform="translate(342.799911 0.296875)"/>
      </g>
     </g>
     <g id="text_27">
      <!-- $\times\mathdefault{10^{−3}}\mathdefault{}$ -->
      <g transform="translate(354.121244 32.435) scale(0.1 -0.1)">
       <use xlink:href="#NotoSans-Regular-d7" transform="translate(0 0.8)"/>
       <use xlink:href="#NotoSans-Regular-31" transform="translate(57.199997 0.8)"/>
       <use xlink:href="#NotoSans-Regular-30" transform="translate(114.399994 0.8)"/>
       <use xlink:href="#NotoSans-Regular-2212" transform="translate(172.537881 38.315625) scale(0.7)"/>
       <use xlink:href="#NotoSans-Regular-33" transform="translate(195.077879 38.315625) scale(0.7)"/>
      </g>
     </g>
    </g>
    <g id="line2d_45">
     <path d="M 359.050112 95.729017 
L 368.025566 65.249798 
L 372.382492 53.074018 
L 374.896588 38.641364 
L 377.632796 40.198468 
L 378.235176 41.279024 
L 379.361873 40.645281 
L 380.887027 47.634803 
L 382.251324 46.080041 
L 383.48548 49.777507 
L 384.966962 47.545785 
L 386.60825 53.985849 
L 388.06471 50.771482 
L 389.373788 58.123426 
L 390.787792 57.97526 
L 392.263238 63.307476 
L 393.587631 69.754463 
L 394.789047 71.471031 
L 396.038096 71.728621 
L 397.312781 70.944465 
L 398.473155 74.20893 
L 399.538043 71.165587 
L 400.626822 68.913268 
L 401.727386 65.605413 
L 402.652697 65.922222 
L 403.682286 68.372972 
L 404.636006 68.3091 
L 405.524275 72.553901 
L 406.422421 71.240793 
L 407.324696 65.486901 
L 408.168174 69.0683 
L 408.960053 68.742259 
L 409.757976 70.420122 
L 410.50957 68.140391 
L 411.265922 74.088105 
L 412.023902 74.477946 
L 412.739955 71.037925 
L 413.418478 71.815287 
L 414.100154 73.634461 
L 414.747731 71.293243 
L 415.397875 76.867023 
L 416.048708 72.063769 
L 416.668388 77.037994 
L 417.259762 71.59188 
L 417.852943 72.528821 
L 418.420136 76.914903 
L 418.988839 79.351846 
L 419.557839 77.240877 
L 420.102885 76.771269 
L 420.625912 77.521275 
L 421.653797 71.6124 
L 422.158492 76.016702 
L 422.644252 74.439169 
L 423.130827 77.890587 
L 423.61748 78.118549 
L 424.53913 80.250028 
L 424.992386 79.119323 
L 425.430311 73.794034 
L 425.868784 79.536499 
L 426.292895 78.14819 
L 426.717485 82.025883 
L 427.142076 80.806269 
L 427.540125 74.541764 
L 427.951642 79.481788 
L 428.350483 80.849592 
L 429.124667 78.439981 
L 429.500683 76.039501 
L 429.877001 81.485605 
L 430.24269 80.477991 
L 430.608648 81.234848 
L 430.964548 81.200651 
L 431.676792 80.398214 
L 432.014118 79.552448 
L 432.360901 84.631531 
L 432.698639 80.072226 
L 433.027791 86.14296 
L 433.357124 81.355663 
L 433.678288 83.482591 
L 433.999616 81.882278 
L 434.313163 82.826049 
L 434.626858 80.922528 
L 434.933132 84.025159 
L 435.239542 84.275916 
L 435.538868 84.047939 
L 435.838317 80.920248 
L 436.130997 91.367976 
L 436.423789 92.945514 
L 436.710107 86.329898 
L 436.996527 90.57009 
L 437.557064 82.388349 
L 438.105901 85.871669 
L 438.380324 85.454492 
L 438.643509 82.889878 
L 438.912315 86.487182 
L 439.170333 93.121041 
L 439.433744 86.842816 
L 439.945016 90.285121 
L 440.193276 87.834477 
L 440.446515 87.079919 
L 440.690164 91.819379 
L 440.938601 88.030518 
L 441.177805 89.918119 
L 441.421619 89.088288 
L 441.656535 87.861828 
L 441.89158 92.760875 
L 442.12667 87.836748 
L 442.357568 88.593633 
L 442.588509 88.910485 
L 442.815403 93.319382 
L 443.042337 91.258558 
L 443.265362 90.560988 
L 443.488425 88.4044 
L 443.70771 91.02602 
L 443.92703 92.295814 
L 444.142696 94.890093 
L 444.358395 93.219105 
L 444.57056 94.477477 
L 444.782756 91.504755 
L 444.99153 95.535227 
L 445.200332 87.348887 
L 445.405821 89.357303 
L 445.611337 92.75858 
L 445.813641 90.168876 
L 446.012834 92.997964 
L 446.607654 93.109658 
L 446.997299 90.709154 
L 447.381209 96.294389 
L 447.57176 97.190291 
L 448.132475 90.51994 
L 448.314986 92.956911 
L 448.50014 92.384703 
L 448.680131 90.943968 
L 448.860173 95.202412 
L 449.040229 95.348303 
L 449.217816 92.455406 
L 449.395417 93.007091 
L 449.745826 97.748812 
L 449.918698 94.794357 
L 450.089292 94.789787 
L 450.259928 96.333123 
L 450.599004 94.331548 
L 450.767443 94.461509 
L 450.93372 91.55491 
L 451.100006 98.327842 
L 451.264184 96.330847 
L 451.426306 95.899992 
L 451.588464 97.055783 
L 451.750631 96.80045 
L 452.070961 98.523893 
L 452.229174 91.821645 
L 452.385476 96.515501 
L 452.54181 96.570202 
L 452.698151 92.70614 
L 452.852627 100.780763 
L 453.00711 97.094546 
L 453.159772 98.391666 
L 453.310655 92.024532 
L 453.461565 101.200215 
L 453.76166 96.287548 
L 454.058328 102.768636 
L 454.204152 96.980557 
L 454.35 100.133338 
L 454.495853 100.443363 
L 454.640082 98.941075 
L 454.782722 96.016247 
L 454.92696 96.839232 
L 455.068051 101.407683 
L 455.209163 97.949404 
L 455.350279 100.808119 
L 455.627981 96.786777 
L 455.766107 97.181159 
L 456.040909 99.834706 
L 456.176154 95.232039 
L 456.311417 101.25038 
L 456.446684 98.284524 
L 456.580552 98.079365 
L 456.71305 98.325567 
L 456.845566 100.274668 
L 456.978084 98.193344 
L 457.10926 93.818669 
L 457.239121 101.052054 
L 457.498877 99.54063 
L 457.627466 99.219179 
L 457.627466 99.219179 
" clip-path="url(#p0803b7dd75)" style="fill: none; stroke: #333333; stroke-linecap: square"/>
    </g>
    <g id="patch_16">
     <path d="M 354.121244 105.975 
L 354.121244 35.435 
" style="fill: none; stroke: #000000; stroke-width: 0.6; stroke-linejoin: miter; stroke-linecap: square"/>
    </g>
    <g id="patch_17">
     <path d="M 462.556334 105.975 
L 462.556334 35.435 
" style="fill: none; stroke: #000000; stroke-width: 0.6; stroke-linejoin: miter; stroke-linecap: square"/>
    </g>
    <g id="patch_18">
     <path d="M 354.121244 105.975 
L 462.556334 105.975 
" style="fill: none; stroke: #000000; stroke-width: 0.6; stroke-linejoin: miter; stroke-linecap: square"/>
    </g>
    <g id="patch_19">
     <path d="M 354.121244 35.435 
L 462.556334 35.435 
" style="fill: none; stroke: #000000; stroke-width: 0.6; stroke-linejoin: miter; stroke-linecap: square"/>
    </g>
   </g>
  </g>
  <g id="axes_4">
   <g id="matplotlib.axis_7">
    <g id="text_28">
     <!-- $\tau\,({\rm ps})$ -->
     <g transform="translate(250.321676 221.75) scale(0.1 -0.1)">
      <defs>
       <path id="NotoSans-Regular-70" d="M 2176 3494 
Q 2810 3494 3197 3052 
Q 3584 2611 3584 1722 
Q 3584 1139 3408 739 
Q 3232 339 2915 137 
Q 2598 -64 2170 -64 
Q 1907 -64 1702 6 
Q 1498 77 1354 189 
Q 1210 301 1107 435 
L 1069 435 
Q 1082 326 1094 160 
Q 1107 -6 1107 -128 
L 1107 -1536 
L 544 -1536 
L 544 3430 
L 1005 3430 
L 1082 2963 
L 1107 2963 
Q 1210 3110 1354 3232 
Q 1498 3354 1699 3424 
Q 1901 3494 2176 3494 
z
M 2074 3021 
Q 1728 3021 1517 2889 
Q 1306 2758 1210 2496 
Q 1114 2234 1107 1830 
L 1107 1722 
Q 1107 1299 1196 1004 
Q 1286 710 1500 556 
Q 1715 403 2086 403 
Q 2400 403 2601 576 
Q 2803 749 2902 1046 
Q 3002 1344 3002 1728 
Q 3002 2317 2774 2669 
Q 2547 3021 2074 3021 
z
" transform="scale(0.015625)"/>
       <path id="NotoSans-Regular-73" d="M 2778 947 
Q 2778 614 2611 390 
Q 2445 166 2137 51 
Q 1830 -64 1408 -64 
Q 1050 -64 790 -6 
Q 531 51 333 154 
L 333 666 
Q 538 563 829 476 
Q 1120 390 1421 390 
Q 1850 390 2042 528 
Q 2234 666 2234 896 
Q 2234 1024 2163 1126 
Q 2093 1229 1910 1331 
Q 1728 1434 1389 1562 
Q 1056 1690 819 1818 
Q 582 1946 454 2125 
Q 326 2304 326 2586 
Q 326 3021 681 3257 
Q 1037 3494 1613 3494 
Q 1926 3494 2198 3433 
Q 2470 3373 2707 3264 
L 2515 2816 
Q 2298 2906 2061 2970 
Q 1824 3034 1574 3034 
Q 1229 3034 1046 2922 
Q 864 2810 864 2618 
Q 864 2477 947 2377 
Q 1030 2278 1225 2185 
Q 1421 2093 1747 1965 
Q 2074 1843 2304 1715 
Q 2534 1587 2656 1404 
Q 2778 1222 2778 947 
z
" transform="scale(0.015625)"/>
      </defs>
      <use xlink:href="#NotoSans-Italic-3c4" transform="translate(0 0.59375)"/>
      <use xlink:href="#NotoSans-Regular-28" transform="translate(55.583607 0.59375)"/>
      <use xlink:href="#NotoSans-Regular-70" transform="translate(85.583592 0.59375)"/>
      <use xlink:href="#NotoSans-Regular-73" transform="translate(147.083577 0.59375)"/>
      <use xlink:href="#NotoSans-Regular-29" transform="translate(194.983571 0.59375)"/>
     </g>
    </g>
   </g>
   <g id="matplotlib.axis_8"/>
  </g>
 </g>
 <defs>
  <clipPath id="p31b7795e2b">
   <rect x="38.9" y="17.8" width="216.87018" height="176.35"/>
  </clipPath>
  <clipPath id="p743cb84825">
   <rect x="267.373172" y="17.8" width="216.87018" height="176.35"/>
  </clipPath>
  <clipPath id="p0803b7dd75">
   <rect x="354.121244" y="35.435" width="108.43509" height="70.54"/>
  </clipPath>
 </defs>
</svg>
