<?xml version="1.0" encoding="utf-8" standalone="no"?>
<!DOCTYPE svg PUBLIC "-//W3C//DTD SVG 1.1//EN"
  "http://www.w3.org/Graphics/SVG/1.1/DTD/svg11.dtd">
<svg xmlns:xlink="http://www.w3.org/1999/xlink" width="253.19952pt" height="253.199473pt" viewBox="0 0 253.19952 253.199473" xmlns="http://www.w3.org/2000/svg" version="1.1">
 <metadata>
  <rdf:RDF xmlns:dc="http://purl.org/dc/elements/1.1/" xmlns:cc="http://creativecommons.org/ns#" xmlns:rdf="http://www.w3.org/1999/02/22-rdf-syntax-ns#">
   <cc:Work>
    <dc:type rdf:resource="http://purl.org/dc/dcmitype/StillImage"/>
    <dc:date>2024-07-06T12:10:41.965430</dc:date>
    <dc:format>image/svg+xml</dc:format>
    <dc:creator>
     <cc:Agent>
      <dc:title>Matplotlib v3.9.0, https://matplotlib.org/</dc:title>
     </cc:Agent>
    </dc:creator>
   </cc:Work>
  </rdf:RDF>
 </metadata>
 <defs>
  <style type="text/css">*{stroke-linejoin: round; stroke-linecap: butt}</style>
 </defs>
 <g id="figure_1">
  <g id="patch_1">
   <path d="M 0 253.199473 
L 253.19952 253.199473 
L 253.19952 0 
L 0 0 
z
" style="fill: #ffffff"/>
  </g>
  <g id="axes_1">
   <g id="patch_2">
    <path d="M 53.5 218.499473 
L 245.99952 218.499473 
L 245.99952 10.675067 
L 53.5 10.675067 
z
" style="fill: #ffffff"/>
   </g>
   <g id="PolyCollection_1"/>
   <g id="PolyCollection_2"/>
   <g id="PolyCollection_3"/>
   <g id="PolyCollection_4"/>
   <g id="PolyCollection_5"/>
   <g id="PolyCollection_6"/>
   <g id="PolyCollection_7"/>
   <g id="PolyCollection_8"/>
   <g id="matplotlib.axis_1">
    <g id="xtick_1">
     <g id="line2d_1">
      <defs>
       <path id="me704b8370c" d="M 0 0 
L 0 -4 
" style="stroke: #000000; stroke-width: 0.6"/>
      </defs>
      <g>
       <use xlink:href="#me704b8370c" x="62.249978" y="218.499473" style="stroke: #000000; stroke-width: 0.6"/>
      </g>
     </g>
     <g id="line2d_2">
      <defs>
       <path id="m1a8611f181" d="M 0 0 
L 0 4 
" style="stroke: #000000; stroke-width: 0.6"/>
      </defs>
      <g>
       <use xlink:href="#m1a8611f181" x="62.249978" y="10.675067" style="stroke: #000000; stroke-width: 0.6"/>
      </g>
     </g>
     <g id="text_1">
      <!-- $\mathdefault{−2}$ -->
      <g transform="translate(57.749978 229.599473) scale(0.1 -0.1)">
       <defs>
        <path id="NotoSans-Regular-2212" d="M 256 1466 
L 256 1965 
L 1805 1965 
L 1805 1466 
L 256 1466 
z
" transform="scale(0.015625)"/>
        <path id="NotoSans-Regular-32" d="M 3328 0 
L 307 0 
L 307 467 
L 1504 1677 
Q 1850 2022 2086 2291 
Q 2323 2560 2444 2819 
Q 2566 3078 2566 3386 
Q 2566 3763 2342 3958 
Q 2118 4154 1760 4154 
Q 1427 4154 1174 4038 
Q 922 3923 659 3718 
L 358 4096 
Q 538 4250 752 4371 
Q 966 4493 1219 4563 
Q 1472 4634 1760 4634 
Q 2189 4634 2496 4486 
Q 2803 4339 2972 4067 
Q 3142 3795 3142 3418 
Q 3142 3059 2995 2745 
Q 2848 2432 2585 2128 
Q 2323 1824 1971 1478 
L 1018 538 
L 1018 512 
L 3328 512 
L 3328 0 
z
" transform="scale(0.015625)"/>
       </defs>
       <use xlink:href="#NotoSans-Regular-2212" transform="translate(0 0.59375)"/>
       <use xlink:href="#NotoSans-Regular-32" transform="translate(32.199997 0.59375)"/>
      </g>
     </g>
    </g>
    <g id="xtick_2">
     <g id="line2d_3">
      <g>
       <use xlink:href="#me704b8370c" x="97.263896" y="218.499473" style="stroke: #000000; stroke-width: 0.6"/>
      </g>
     </g>
     <g id="line2d_4">
      <g>
       <use xlink:href="#m1a8611f181" x="97.263896" y="10.675067" style="stroke: #000000; stroke-width: 0.6"/>
      </g>
     </g>
     <g id="text_2">
      <!-- $\mathdefault{0}$ -->
      <g transform="translate(94.363896 229.599473) scale(0.1 -0.1)">
       <defs>
        <path id="NotoSans-Regular-30" d="M 3347 2291 
Q 3347 1734 3264 1299 
Q 3181 864 2998 560 
Q 2816 256 2525 96 
Q 2234 -64 1824 -64 
Q 1312 -64 976 217 
Q 640 499 477 1027 
Q 314 1555 314 2291 
Q 314 3034 464 3558 
Q 614 4083 947 4361 
Q 1280 4640 1824 4640 
Q 2336 4640 2675 4361 
Q 3014 4083 3180 3558 
Q 3347 3034 3347 2291 
z
M 877 2291 
Q 877 1664 969 1248 
Q 1062 832 1270 624 
Q 1478 416 1824 416 
Q 2170 416 2378 621 
Q 2586 826 2682 1245 
Q 2778 1664 2778 2291 
Q 2778 2918 2682 3331 
Q 2586 3744 2378 3952 
Q 2170 4160 1824 4160 
Q 1478 4160 1270 3952 
Q 1062 3744 969 3331 
Q 877 2918 877 2291 
z
" transform="scale(0.015625)"/>
       </defs>
       <use xlink:href="#NotoSans-Regular-30" transform="translate(0 0.5)"/>
      </g>
     </g>
    </g>
    <g id="xtick_3">
     <g id="line2d_5">
      <g>
       <use xlink:href="#me704b8370c" x="132.277815" y="218.499473" style="stroke: #000000; stroke-width: 0.6"/>
      </g>
     </g>
     <g id="line2d_6">
      <g>
       <use xlink:href="#m1a8611f181" x="132.277815" y="10.675067" style="stroke: #000000; stroke-width: 0.6"/>
      </g>
     </g>
     <g id="text_3">
      <!-- $\mathdefault{2}$ -->
      <g transform="translate(129.377815 229.599473) scale(0.1 -0.1)">
       <use xlink:href="#NotoSans-Regular-32" transform="translate(0 0.59375)"/>
      </g>
     </g>
    </g>
    <g id="xtick_4">
     <g id="line2d_7">
      <g>
       <use xlink:href="#me704b8370c" x="167.291733" y="218.499473" style="stroke: #000000; stroke-width: 0.6"/>
      </g>
     </g>
     <g id="line2d_8">
      <g>
       <use xlink:href="#m1a8611f181" x="167.291733" y="10.675067" style="stroke: #000000; stroke-width: 0.6"/>
      </g>
     </g>
     <g id="text_4">
      <!-- $\mathdefault{4}$ -->
      <g transform="translate(164.391733 229.599473) scale(0.1 -0.1)">
       <defs>
        <path id="NotoSans-Regular-34" d="M 3533 1037 
L 2867 1037 
L 2867 0 
L 2323 0 
L 2323 1037 
L 134 1037 
L 134 1517 
L 2285 4595 
L 2867 4595 
L 2867 1542 
L 3533 1542 
L 3533 1037 
z
M 2323 2982 
Q 2323 3149 2326 3286 
Q 2330 3424 2336 3545 
Q 2342 3667 2345 3779 
Q 2349 3891 2355 3994 
L 2330 3994 
Q 2278 3872 2201 3731 
Q 2125 3590 2054 3494 
L 685 1542 
L 2323 1542 
L 2323 2982 
z
" transform="scale(0.015625)"/>
       </defs>
       <use xlink:href="#NotoSans-Regular-34" transform="translate(0 0.203125)"/>
      </g>
     </g>
    </g>
    <g id="xtick_5">
     <g id="line2d_9">
      <g>
       <use xlink:href="#me704b8370c" x="202.305651" y="218.499473" style="stroke: #000000; stroke-width: 0.6"/>
      </g>
     </g>
     <g id="line2d_10">
      <g>
       <use xlink:href="#m1a8611f181" x="202.305651" y="10.675067" style="stroke: #000000; stroke-width: 0.6"/>
      </g>
     </g>
     <g id="text_5">
      <!-- $\mathdefault{6}$ -->
      <g transform="translate(199.405651 229.599473) scale(0.1 -0.1)">
       <defs>
        <path id="NotoSans-Regular-36" d="M 352 1952 
Q 352 2349 406 2733 
Q 461 3117 595 3459 
Q 730 3802 966 4067 
Q 1203 4333 1564 4483 
Q 1926 4634 2445 4634 
Q 2579 4634 2742 4621 
Q 2906 4608 3008 4576 
L 3008 4096 
Q 2893 4134 2749 4153 
Q 2605 4173 2458 4173 
Q 2016 4173 1721 4025 
Q 1427 3878 1257 3622 
Q 1088 3366 1011 3033 
Q 934 2701 915 2323 
L 954 2323 
Q 1050 2477 1197 2598 
Q 1344 2720 1552 2790 
Q 1760 2861 2035 2861 
Q 2432 2861 2729 2697 
Q 3027 2534 3193 2224 
Q 3360 1914 3360 1472 
Q 3360 998 3181 652 
Q 3002 307 2678 121 
Q 2355 -64 1907 -64 
Q 1581 -64 1299 57 
Q 1018 179 803 428 
Q 589 678 470 1059 
Q 352 1440 352 1952 
z
M 1901 410 
Q 2304 410 2553 669 
Q 2803 928 2803 1472 
Q 2803 1907 2582 2163 
Q 2362 2419 1920 2419 
Q 1619 2419 1395 2294 
Q 1171 2170 1046 1978 
Q 922 1786 922 1581 
Q 922 1370 982 1165 
Q 1043 960 1168 787 
Q 1293 614 1475 512 
Q 1658 410 1901 410 
z
" transform="scale(0.015625)"/>
       </defs>
       <use xlink:href="#NotoSans-Regular-36" transform="translate(0 0.59375)"/>
      </g>
     </g>
    </g>
    <g id="xtick_6">
     <g id="line2d_11">
      <g>
       <use xlink:href="#me704b8370c" x="237.31957" y="218.499473" style="stroke: #000000; stroke-width: 0.6"/>
      </g>
     </g>
     <g id="line2d_12">
      <g>
       <use xlink:href="#m1a8611f181" x="237.31957" y="10.675067" style="stroke: #000000; stroke-width: 0.6"/>
      </g>
     </g>
     <g id="text_6">
      <!-- $\mathdefault{8}$ -->
      <g transform="translate(234.41957 229.599473) scale(0.1 -0.1)">
       <defs>
        <path id="NotoSans-Regular-38" d="M 1824 4634 
Q 2227 4634 2534 4509 
Q 2842 4384 3018 4141 
Q 3194 3898 3194 3539 
Q 3194 3264 3075 3059 
Q 2957 2854 2758 2697 
Q 2560 2541 2323 2419 
Q 2605 2285 2835 2115 
Q 3066 1946 3203 1722 
Q 3341 1498 3341 1184 
Q 3341 800 3155 521 
Q 2970 243 2634 89 
Q 2298 -64 1843 -64 
Q 1350 -64 1008 83 
Q 666 230 490 502 
Q 314 774 314 1165 
Q 314 1478 445 1708 
Q 576 1939 793 2105 
Q 1011 2272 1261 2387 
Q 1037 2515 854 2678 
Q 672 2842 566 3053 
Q 461 3264 461 3546 
Q 461 3898 640 4138 
Q 819 4378 1126 4506 
Q 1434 4634 1824 4634 
z
M 864 1158 
Q 864 826 1101 605 
Q 1338 384 1830 384 
Q 2298 384 2544 605 
Q 2790 826 2790 1178 
Q 2790 1402 2672 1571 
Q 2554 1741 2339 1875 
Q 2125 2010 1830 2118 
L 1728 2157 
Q 1446 2035 1254 1894 
Q 1062 1754 963 1574 
Q 864 1395 864 1158 
z
M 1818 4179 
Q 1466 4179 1238 4009 
Q 1011 3840 1011 3520 
Q 1011 3283 1123 3123 
Q 1235 2963 1427 2851 
Q 1619 2739 1850 2637 
Q 2074 2733 2250 2848 
Q 2426 2963 2531 3126 
Q 2637 3290 2637 3520 
Q 2637 3840 2413 4009 
Q 2189 4179 1818 4179 
z
" transform="scale(0.015625)"/>
       </defs>
       <use xlink:href="#NotoSans-Regular-38" transform="translate(0 0.59375)"/>
      </g>
     </g>
    </g>
    <g id="text_7">
     <!-- $t$ (ps) -->
     <g transform="translate(138.29976 243.599473) scale(0.1 -0.1)">
      <defs>
       <path id="NotoSans-Italic-74" d="M 1184 -64 
Q 838 -64 601 102 
Q 365 269 365 685 
Q 365 781 381 899 
Q 397 1018 422 1139 
L 813 3002 
L 282 3002 
L 333 3258 
L 909 3501 
L 1306 4211 
L 1638 4211 
L 1466 3430 
L 2330 3430 
L 2240 3002 
L 1382 3002 
L 986 1133 
Q 966 1050 947 944 
Q 928 838 928 749 
Q 928 602 1008 499 
Q 1088 397 1267 397 
Q 1382 397 1491 419 
Q 1600 442 1722 480 
L 1722 51 
Q 1645 13 1485 -25 
Q 1325 -64 1184 -64 
z
" transform="scale(0.015625)"/>
       <path id="NotoSans-Regular-20" transform="scale(0.015625)"/>
       <path id="NotoSans-Regular-28" d="M 256 1754 
Q 256 2278 355 2777 
Q 454 3277 665 3731 
Q 877 4186 1197 4570 
L 1728 4570 
Q 1280 3968 1053 3245 
Q 826 2522 826 1760 
Q 826 1267 928 780 
Q 1030 294 1228 -157 
Q 1427 -608 1722 -1011 
L 1197 -1011 
Q 877 -634 665 -189 
Q 454 256 355 749 
Q 256 1242 256 1754 
z
" transform="scale(0.015625)"/>
       <path id="NotoSans-Regular-70" d="M 2176 3494 
Q 2810 3494 3197 3052 
Q 3584 2611 3584 1722 
Q 3584 1139 3408 739 
Q 3232 339 2915 137 
Q 2598 -64 2170 -64 
Q 1907 -64 1702 6 
Q 1498 77 1354 189 
Q 1210 301 1107 435 
L 1069 435 
Q 1082 326 1094 160 
Q 1107 -6 1107 -128 
L 1107 -1536 
L 544 -1536 
L 544 3430 
L 1005 3430 
L 1082 2963 
L 1107 2963 
Q 1210 3110 1354 3232 
Q 1498 3354 1699 3424 
Q 1901 3494 2176 3494 
z
M 2074 3021 
Q 1728 3021 1517 2889 
Q 1306 2758 1210 2496 
Q 1114 2234 1107 1830 
L 1107 1722 
Q 1107 1299 1196 1004 
Q 1286 710 1500 556 
Q 1715 403 2086 403 
Q 2400 403 2601 576 
Q 2803 749 2902 1046 
Q 3002 1344 3002 1728 
Q 3002 2317 2774 2669 
Q 2547 3021 2074 3021 
z
" transform="scale(0.015625)"/>
       <path id="NotoSans-Regular-73" d="M 2778 947 
Q 2778 614 2611 390 
Q 2445 166 2137 51 
Q 1830 -64 1408 -64 
Q 1050 -64 790 -6 
Q 531 51 333 154 
L 333 666 
Q 538 563 829 476 
Q 1120 390 1421 390 
Q 1850 390 2042 528 
Q 2234 666 2234 896 
Q 2234 1024 2163 1126 
Q 2093 1229 1910 1331 
Q 1728 1434 1389 1562 
Q 1056 1690 819 1818 
Q 582 1946 454 2125 
Q 326 2304 326 2586 
Q 326 3021 681 3257 
Q 1037 3494 1613 3494 
Q 1926 3494 2198 3433 
Q 2470 3373 2707 3264 
L 2515 2816 
Q 2298 2906 2061 2970 
Q 1824 3034 1574 3034 
Q 1229 3034 1046 2922 
Q 864 2810 864 2618 
Q 864 2477 947 2377 
Q 1030 2278 1225 2185 
Q 1421 2093 1747 1965 
Q 2074 1843 2304 1715 
Q 2534 1587 2656 1404 
Q 2778 1222 2778 947 
z
" transform="scale(0.015625)"/>
       <path id="NotoSans-Regular-29" d="M 1664 1754 
Q 1664 1242 1565 749 
Q 1466 256 1258 -189 
Q 1050 -634 723 -1011 
L 198 -1011 
Q 493 -608 691 -157 
Q 890 294 992 780 
Q 1094 1267 1094 1760 
Q 1094 2266 992 2758 
Q 890 3251 691 3712 
Q 493 4173 192 4570 
L 723 4570 
Q 1050 4186 1258 3731 
Q 1466 3277 1565 2777 
Q 1664 2278 1664 1754 
z
" transform="scale(0.015625)"/>
      </defs>
      <use xlink:href="#NotoSans-Italic-74" transform="translate(0 0.59375)"/>
      <use xlink:href="#NotoSans-Regular-20" transform="translate(33.199997 0.59375)"/>
      <use xlink:href="#NotoSans-Regular-28" transform="translate(59.199982 0.59375)"/>
      <use xlink:href="#NotoSans-Regular-70" transform="translate(89.199966 0.59375)"/>
      <use xlink:href="#NotoSans-Regular-73" transform="translate(150.699951 0.59375)"/>
      <use xlink:href="#NotoSans-Regular-29" transform="translate(198.599945 0.59375)"/>
     </g>
    </g>
   </g>
   <g id="matplotlib.axis_2">
    <g id="ytick_1">
     <g id="line2d_13">
      <defs>
       <path id="m8a7e942a9f" d="M 0 0 
L 4 0 
" style="stroke: #000000; stroke-width: 0.6"/>
      </defs>
      <g>
       <use xlink:href="#m8a7e942a9f" x="53.5" y="187.336942" style="stroke: #000000; stroke-width: 0.6"/>
      </g>
     </g>
     <g id="line2d_14">
      <defs>
       <path id="mb2aef6d6e0" d="M 0 0 
L -4 0 
" style="stroke: #000000; stroke-width: 0.6"/>
      </defs>
      <g>
       <use xlink:href="#mb2aef6d6e0" x="245.99952" y="187.336942" style="stroke: #000000; stroke-width: 0.6"/>
      </g>
     </g>
     <g id="text_8">
      <!-- $\mathdefault{−0.010}$ -->
      <g transform="translate(21.2 191.136942) scale(0.1 -0.1)">
       <defs>
        <path id="NotoSans-Regular-2e" d="M 461 346 
Q 461 582 576 678 
Q 691 774 851 774 
Q 1018 774 1136 678 
Q 1254 582 1254 346 
Q 1254 115 1136 12 
Q 1018 -90 851 -90 
Q 691 -90 576 12 
Q 461 115 461 346 
z
" transform="scale(0.015625)"/>
        <path id="NotoSans-Regular-31" d="M 2272 0 
L 1722 0 
L 1722 3194 
Q 1722 3379 1725 3507 
Q 1728 3635 1734 3747 
Q 1741 3859 1747 3981 
Q 1645 3878 1561 3808 
Q 1478 3738 1350 3629 
L 864 3232 
L 570 3610 
L 1805 4570 
L 2272 4570 
L 2272 0 
z
" transform="scale(0.015625)"/>
       </defs>
       <use xlink:href="#NotoSans-Regular-2212" transform="translate(0 0.5)"/>
       <use xlink:href="#NotoSans-Regular-30" transform="translate(32.199997 0.5)"/>
       <use xlink:href="#NotoSans-Regular-2e" transform="translate(89.399994 0.5)"/>
       <use xlink:href="#NotoSans-Regular-30" transform="translate(116.199982 0.5)"/>
       <use xlink:href="#NotoSans-Regular-31" transform="translate(173.399979 0.5)"/>
       <use xlink:href="#NotoSans-Regular-30" transform="translate(230.599976 0.5)"/>
      </g>
     </g>
    </g>
    <g id="ytick_2">
     <g id="line2d_15">
      <g>
       <use xlink:href="#m8a7e942a9f" x="53.5" y="152.069553" style="stroke: #000000; stroke-width: 0.6"/>
      </g>
     </g>
     <g id="line2d_16">
      <g>
       <use xlink:href="#mb2aef6d6e0" x="245.99952" y="152.069553" style="stroke: #000000; stroke-width: 0.6"/>
      </g>
     </g>
     <g id="text_9">
      <!-- $\mathdefault{−0.005}$ -->
      <g transform="translate(21.2 155.869553) scale(0.1 -0.1)">
       <defs>
        <path id="NotoSans-Regular-35" d="M 1760 2803 
Q 2227 2803 2572 2643 
Q 2918 2483 3107 2185 
Q 3296 1888 3296 1459 
Q 3296 986 3091 643 
Q 2886 301 2505 118 
Q 2125 -64 1587 -64 
Q 1235 -64 924 0 
Q 614 64 403 186 
L 403 717 
Q 634 576 963 496 
Q 1293 416 1594 416 
Q 1933 416 2185 521 
Q 2438 627 2579 848 
Q 2720 1069 2720 1402 
Q 2720 1850 2445 2090 
Q 2170 2330 1574 2330 
Q 1395 2330 1164 2298 
Q 934 2266 794 2234 
L 512 2413 
L 685 4570 
L 2976 4570 
L 2976 4058 
L 1165 4058 
L 1056 2733 
Q 1165 2752 1350 2777 
Q 1536 2803 1760 2803 
z
" transform="scale(0.015625)"/>
       </defs>
       <use xlink:href="#NotoSans-Regular-2212" transform="translate(0 0.5)"/>
       <use xlink:href="#NotoSans-Regular-30" transform="translate(32.199997 0.5)"/>
       <use xlink:href="#NotoSans-Regular-2e" transform="translate(89.399994 0.5)"/>
       <use xlink:href="#NotoSans-Regular-30" transform="translate(116.199982 0.5)"/>
       <use xlink:href="#NotoSans-Regular-30" transform="translate(173.399979 0.5)"/>
       <use xlink:href="#NotoSans-Regular-35" transform="translate(230.599976 0.5)"/>
      </g>
     </g>
    </g>
    <g id="ytick_3">
     <g id="line2d_17">
      <g>
       <use xlink:href="#m8a7e942a9f" x="53.5" y="116.802165" style="stroke: #000000; stroke-width: 0.6"/>
      </g>
     </g>
     <g id="line2d_18">
      <g>
       <use xlink:href="#mb2aef6d6e0" x="245.99952" y="116.802165" style="stroke: #000000; stroke-width: 0.6"/>
      </g>
     </g>
     <g id="text_10">
      <!-- $\mathdefault{0.000}$ -->
      <g transform="translate(24.4 120.602165) scale(0.1 -0.1)">
       <use xlink:href="#NotoSans-Regular-30" transform="translate(0 0.5)"/>
       <use xlink:href="#NotoSans-Regular-2e" transform="translate(57.199997 0.5)"/>
       <use xlink:href="#NotoSans-Regular-30" transform="translate(83.999985 0.5)"/>
       <use xlink:href="#NotoSans-Regular-30" transform="translate(141.199982 0.5)"/>
       <use xlink:href="#NotoSans-Regular-30" transform="translate(198.399979 0.5)"/>
      </g>
     </g>
    </g>
    <g id="ytick_4">
     <g id="line2d_19">
      <g>
       <use xlink:href="#m8a7e942a9f" x="53.5" y="81.534777" style="stroke: #000000; stroke-width: 0.6"/>
      </g>
     </g>
     <g id="line2d_20">
      <g>
       <use xlink:href="#mb2aef6d6e0" x="245.99952" y="81.534777" style="stroke: #000000; stroke-width: 0.6"/>
      </g>
     </g>
     <g id="text_11">
      <!-- $\mathdefault{0.005}$ -->
      <g transform="translate(24.4 85.334777) scale(0.1 -0.1)">
       <use xlink:href="#NotoSans-Regular-30" transform="translate(0 0.5)"/>
       <use xlink:href="#NotoSans-Regular-2e" transform="translate(57.199997 0.5)"/>
       <use xlink:href="#NotoSans-Regular-30" transform="translate(83.999985 0.5)"/>
       <use xlink:href="#NotoSans-Regular-30" transform="translate(141.199982 0.5)"/>
       <use xlink:href="#NotoSans-Regular-35" transform="translate(198.399979 0.5)"/>
      </g>
     </g>
    </g>
    <g id="ytick_5">
     <g id="line2d_21">
      <g>
       <use xlink:href="#m8a7e942a9f" x="53.5" y="46.267388" style="stroke: #000000; stroke-width: 0.6"/>
      </g>
     </g>
     <g id="line2d_22">
      <g>
       <use xlink:href="#mb2aef6d6e0" x="245.99952" y="46.267388" style="stroke: #000000; stroke-width: 0.6"/>
      </g>
     </g>
     <g id="text_12">
      <!-- $\mathdefault{0.010}$ -->
      <g transform="translate(24.4 50.067388) scale(0.1 -0.1)">
       <use xlink:href="#NotoSans-Regular-30" transform="translate(0 0.5)"/>
       <use xlink:href="#NotoSans-Regular-2e" transform="translate(57.199997 0.5)"/>
       <use xlink:href="#NotoSans-Regular-30" transform="translate(83.999985 0.5)"/>
       <use xlink:href="#NotoSans-Regular-31" transform="translate(141.199982 0.5)"/>
       <use xlink:href="#NotoSans-Regular-30" transform="translate(198.399979 0.5)"/>
      </g>
     </g>
    </g>
    <g id="ytick_6">
     <g id="line2d_23">
      <g>
       <use xlink:href="#m8a7e942a9f" x="53.5" y="11" style="stroke: #000000; stroke-width: 0.6"/>
      </g>
     </g>
     <g id="line2d_24">
      <g>
       <use xlink:href="#mb2aef6d6e0" x="245.99952" y="11" style="stroke: #000000; stroke-width: 0.6"/>
      </g>
     </g>
     <g id="text_13">
      <!-- $\mathdefault{0.015}$ -->
      <g transform="translate(24.4 14.8) scale(0.1 -0.1)">
       <use xlink:href="#NotoSans-Regular-30" transform="translate(0 0.5)"/>
       <use xlink:href="#NotoSans-Regular-2e" transform="translate(57.199997 0.5)"/>
       <use xlink:href="#NotoSans-Regular-30" transform="translate(83.999985 0.5)"/>
       <use xlink:href="#NotoSans-Regular-31" transform="translate(141.199982 0.5)"/>
       <use xlink:href="#NotoSans-Regular-35" transform="translate(198.399979 0.5)"/>
      </g>
     </g>
    </g>
    <g id="text_14">
     <!-- $\Delta X$ (nm) -->
     <g transform="translate(14.8 132.48727) rotate(-90) scale(0.1 -0.1)">
      <defs>
       <path id="NotoSans-Regular-394" d="M 64 0 
L 64 320 
L 1786 4589 
L 2304 4589 
L 4019 320 
L 4019 0 
L 64 0 
z
M 723 518 
L 3354 518 
L 2285 3309 
Q 2266 3360 2214 3494 
Q 2163 3629 2115 3773 
Q 2067 3917 2042 3994 
Q 2010 3866 1968 3734 
Q 1926 3603 1884 3494 
Q 1843 3386 1818 3309 
L 723 518 
z
" transform="scale(0.015625)"/>
       <path id="NotoSans-Italic-58" d="M -333 0 
L 1530 2419 
L 717 4570 
L 1293 4570 
L 1914 2822 
L 3270 4570 
L 3898 4570 
L 2170 2394 
L 3034 0 
L 2432 0 
L 1779 1978 
L 294 0 
L -333 0 
z
" transform="scale(0.015625)"/>
       <path id="NotoSans-Regular-6e" d="M 2195 3494 
Q 2810 3494 3123 3196 
Q 3437 2899 3437 2234 
L 3437 0 
L 2880 0 
L 2880 2195 
Q 2880 2611 2694 2816 
Q 2509 3021 2112 3021 
Q 1542 3021 1324 2701 
Q 1107 2381 1107 1779 
L 1107 0 
L 544 0 
L 544 3430 
L 998 3430 
L 1082 2963 
L 1114 2963 
Q 1229 3142 1398 3260 
Q 1568 3379 1773 3436 
Q 1978 3494 2195 3494 
z
" transform="scale(0.015625)"/>
       <path id="NotoSans-Regular-6d" d="M 4307 3494 
Q 4890 3494 5178 3196 
Q 5466 2899 5466 2234 
L 5466 0 
L 4909 0 
L 4909 2208 
Q 4909 2611 4739 2816 
Q 4570 3021 4211 3021 
Q 3712 3021 3497 2733 
Q 3283 2445 3283 1894 
L 3283 0 
L 2726 0 
L 2726 2208 
Q 2726 2477 2649 2659 
Q 2573 2842 2419 2931 
Q 2266 3021 2022 3021 
Q 1677 3021 1478 2877 
Q 1280 2733 1193 2457 
Q 1107 2182 1107 1779 
L 1107 0 
L 544 0 
L 544 3430 
L 998 3430 
L 1082 2963 
L 1114 2963 
Q 1222 3142 1379 3260 
Q 1536 3379 1728 3436 
Q 1920 3494 2125 3494 
Q 2522 3494 2787 3353 
Q 3053 3213 3174 2918 
L 3206 2918 
Q 3379 3213 3676 3353 
Q 3974 3494 4307 3494 
z
" transform="scale(0.015625)"/>
      </defs>
      <use xlink:href="#NotoSans-Regular-394" transform="translate(0 0.296875)"/>
      <use xlink:href="#NotoSans-Italic-58" transform="translate(63.899994 0.296875)"/>
      <use xlink:href="#NotoSans-Regular-20" transform="translate(116.599991 0.296875)"/>
      <use xlink:href="#NotoSans-Regular-28" transform="translate(142.599976 0.296875)"/>
      <use xlink:href="#NotoSans-Regular-6e" transform="translate(172.59996 0.296875)"/>
      <use xlink:href="#NotoSans-Regular-6d" transform="translate(234.399948 0.296875)"/>
      <use xlink:href="#NotoSans-Regular-29" transform="translate(327.899933 0.296875)"/>
     </g>
    </g>
   </g>
   <g id="line2d_25">
    <path d="M 62.249978 116.802165 
L 71.493653 116.802165 
L 71.703736 115.979245 
L 72.333987 115.898473 
L 72.859195 116.046462 
L 73.489446 116.654395 
L 73.909613 116.875264 
L 74.224738 116.706144 
L 75.170114 115.892125 
L 75.590281 116.023776 
L 77.691116 117.179656 
L 79.161701 117.31954 
L 79.791951 117.412083 
L 80.31716 117.202118 
L 80.947411 116.959253 
L 81.472619 117.054541 
L 82.10287 117.141666 
L 82.628079 116.873476 
L 83.258329 116.542844 
L 83.678496 116.574371 
L 84.413788 116.696926 
L 84.938997 116.492562 
L 86.619665 115.67307 
L 87.039832 115.7281 
L 87.880166 116.092497 
L 88.300333 115.913155 
L 89.87596 114.874301 
L 90.611252 114.67554 
L 91.556628 114.705535 
L 92.607045 114.926128 
L 93.027212 114.643265 
L 93.762505 114.04558 
L 94.287713 113.98475 
L 95.128047 114.171621 
L 97.333924 114.97911 
L 97.754091 114.696516 
L 98.384342 114.25186 
L 98.804509 114.310669 
L 101.430553 115.398416 
L 102.165845 115.788402 
L 103.111221 116.450334 
L 103.531388 116.423203 
L 104.26668 116.274648 
L 104.896931 116.500653 
L 105.527181 116.989895 
L 106.157432 117.864125 
L 106.892724 118.771901 
L 109.098601 120.955001 
L 109.728851 122.179761 
L 110.25406 123.741469 
L 111.094394 127.448898 
L 112.03977 131.057734 
L 113.090188 135.316014 
L 114.035563 139.972797 
L 115.296064 146.44279 
L 116.24144 150.16418 
L 116.871691 152.081458 
L 117.291858 152.770162 
L 117.606983 152.969275 
L 117.922108 152.919688 
L 118.237234 152.625517 
L 118.657401 151.911469 
L 119.077568 150.768534 
L 119.497735 148.97672 
L 120.127985 145.208977 
L 120.653194 140.517224 
L 121.283444 132.292164 
L 122.438904 113.462574 
L 123.594363 90.641348 
L 126.115365 38.467019 
L 126.850657 27.969339 
L 127.375866 22.730429 
L 127.796033 20.598231 
L 128.006117 20.173778 
L 128.2162 20.182932 
L 128.426284 20.666062 
L 128.741409 22.367779 
L 129.161576 26.547177 
L 129.686785 34.635462 
L 130.317035 48.497456 
L 131.157369 73.212387 
L 132.312829 114.153131 
L 134.308622 183.784137 
L 134.938873 198.139187 
L 135.464081 206.015865 
L 135.779207 208.4899 
L 135.98929 209.052909 
L 136.094332 209.026779 
L 136.304415 208.394713 
L 136.619541 206.102678 
L 137.039708 200.815819 
L 137.564916 190.305441 
L 138.300209 169.990363 
L 139.455668 128.346588 
L 140.821211 80.950578 
L 141.556503 63.034238 
L 142.081712 55.949991 
L 142.396837 53.834601 
L 142.606921 53.35653 
L 142.711962 53.405901 
L 142.922046 54.12225 
L 143.237171 56.847915 
L 143.657338 62.944487 
L 144.287589 75.914176 
L 145.338006 105.620065 
L 146.808591 147.76869 
L 147.438841 160.540807 
L 147.96405 166.602335 
L 148.279175 168.453895 
L 148.489259 168.927087 
L 148.594301 168.932008 
L 148.804384 168.412732 
L 149.119509 166.260301 
L 149.644718 160.149166 
L 150.274969 150.038606 
L 152.795971 102.763566 
L 153.32118 97.580113 
L 153.741347 95.448907 
L 154.056472 94.916149 
L 154.266555 95.03989 
L 154.476639 95.529007 
L 154.791764 97.182436 
L 155.316973 101.862245 
L 157.52285 123.193305 
L 157.943017 125.354368 
L 158.258142 125.98663 
L 158.468226 125.98198 
L 158.783351 125.534264 
L 159.30856 124.218188 
L 159.833768 122.121866 
L 160.569061 118.023496 
L 161.514437 111.735718 
L 161.934604 110.593025 
L 162.249729 110.263605 
L 162.564854 110.292716 
L 162.879979 110.654067 
L 163.300146 111.741199 
L 163.930397 114.212247 
L 164.665689 118.366601 
L 165.821148 124.595941 
L 166.241316 125.856596 
L 166.556441 126.12919 
L 166.766524 126.054666 
L 167.08165 125.581561 
L 167.396775 124.692793 
L 167.816942 122.622495 
L 170.022819 109.759725 
L 170.548027 108.261825 
L 170.863153 107.885468 
L 171.073236 107.889008 
L 171.388362 108.234539 
L 171.808529 109.213267 
L 172.228696 110.727594 
L 174.434572 120.917743 
L 175.064823 122.720152 
L 175.379948 123.085811 
L 175.590032 122.969122 
L 175.905157 122.204526 
L 176.535407 119.611892 
L 177.375742 115.669805 
L 177.90095 113.586224 
L 178.426159 112.495957 
L 178.846326 112.059728 
L 179.371535 111.827895 
L 179.68666 111.888295 
L 180.001785 112.197237 
L 180.316911 112.859223 
L 180.842119 114.851325 
L 181.577412 117.532 
L 182.312704 119.495094 
L 182.942955 120.56945 
L 183.363122 120.930137 
L 183.573205 120.895718 
L 183.783289 120.656725 
L 184.098414 119.858655 
L 185.358915 116.062355 
L 186.724458 113.084459 
L 187.144625 112.557728 
L 187.45975 112.547057 
L 187.774875 112.799605 
L 188.510168 113.794351 
L 189.350502 115.367302 
L 190.926128 118.291921 
L 191.346295 118.466192 
L 191.766462 118.365053 
L 192.081587 118.058536 
L 193.44713 116.089952 
L 194.077381 115.683992 
L 194.392506 115.212288 
L 195.23284 113.559702 
L 195.442923 113.588685 
L 195.758049 114.156612 
L 196.598383 116.204691 
L 197.123591 116.65785 
L 198.174009 117.077007 
L 199.119385 117.178682 
L 201.010136 116.975241 
L 201.535345 116.749171 
L 202.165596 116.405532 
L 202.480721 116.52617 
L 202.900888 117.124312 
L 203.531139 118.030207 
L 203.951306 118.181697 
L 205.631974 118.145978 
L 206.052141 117.930377 
L 206.787433 117.145815 
L 207.942892 116.063437 
L 208.363059 115.888651 
L 208.888268 115.976395 
L 209.413477 115.994894 
L 209.833644 115.71544 
L 210.358853 115.363452 
L 210.673978 115.402733 
L 211.094145 115.778305 
L 211.829437 116.501184 
L 213.510105 117.593022 
L 214.035314 117.913708 
L 214.455481 117.842466 
L 215.61094 117.392414 
L 216.661358 117.146791 
L 218.026901 116.618673 
L 219.287402 116.473714 
L 220.547903 116.550036 
L 221.493279 116.557939 
L 222.333613 116.37915 
L 223.489072 115.926131 
L 224.014281 116.160328 
L 225.274782 116.824062 
L 225.694949 116.888512 
L 226.010074 116.737513 
L 227.060492 116.006363 
L 227.690742 116.103434 
L 228.215951 116.093849 
L 229.476452 115.794015 
L 230.631911 116.015265 
L 231.577287 115.890108 
L 231.997454 116.153215 
L 232.837788 116.761639 
L 234.518456 117.36086 
L 235.148707 117.641605 
L 235.778957 117.563533 
L 236.51425 117.485126 
L 237.249542 117.483517 
L 237.249542 117.483517 
" clip-path="url(#pea42952e73)" style="fill: none; stroke-dasharray: 1.85,0.8; stroke-dashoffset: 0; stroke: #333333; stroke-width: 0.5"/>
   </g>
   <g id="line2d_26">
    <path d="M 62.249978 116.802165 
L 83.153287 116.802165 
L 83.363371 117.209181 
L 83.88858 116.932368 
L 84.51883 116.661786 
L 85.149081 116.728056 
L 86.094457 116.801402 
L 87.249916 116.695584 
L 87.985208 116.636043 
L 88.7205 116.901544 
L 89.350751 117.024681 
L 90.821336 117.058849 
L 91.556628 117.124883 
L 93.237296 116.985438 
L 93.762505 116.990544 
L 94.182672 116.781877 
L 94.917964 116.397595 
L 95.338131 116.503274 
L 96.178465 116.865461 
L 96.913757 116.800773 
L 98.699467 116.558352 
L 99.644843 117.060955 
L 100.06501 116.914561 
L 100.905344 116.549819 
L 102.586012 116.474041 
L 103.321304 116.327541 
L 104.161638 116.380255 
L 104.791889 116.600921 
L 105.737265 116.945683 
L 106.577599 117.036938 
L 107.207849 116.897017 
L 107.943142 116.780675 
L 109.518768 116.902712 
L 110.464144 116.822401 
L 113.195229 117.080499 
L 113.82548 117.046391 
L 114.875897 116.783962 
L 115.401106 117.056948 
L 115.926315 117.246821 
L 116.24144 117.11311 
L 117.186816 116.490448 
L 117.606983 116.626418 
L 118.447317 117.006955 
L 119.287651 117.086931 
L 119.81286 116.975805 
L 120.758236 116.710747 
L 122.22882 116.832669 
L 123.279238 116.576586 
L 125.380073 116.454093 
L 126.640574 116.217972 
L 128.006117 116.56578 
L 129.581743 116.309838 
L 130.106952 116.41474 
L 131.472495 117.065717 
L 133.048121 117.081802 
L 133.993497 117.334518 
L 134.623747 117.463384 
L 135.043914 117.302744 
L 135.884248 116.883142 
L 136.619541 116.873466 
L 137.144749 117.046784 
L 138.090125 117.660888 
L 138.40525 117.465246 
L 139.350626 116.452418 
L 139.665752 116.599925 
L 140.506086 117.226308 
L 140.821211 117.106402 
L 141.766587 116.524185 
L 142.396837 116.54906 
L 144.182547 116.694175 
L 146.598507 116.860606 
L 147.438841 117.328652 
L 147.753967 117.262046 
L 149.014468 116.725354 
L 149.959844 116.854643 
L 151.325386 117.107235 
L 152.690929 116.832998 
L 153.531263 116.72357 
L 155.527057 116.837208 
L 156.157307 116.637485 
L 156.787558 116.466074 
L 157.207725 116.61728 
L 158.1531 117.078681 
L 158.993434 117.023173 
L 162.669896 116.86599 
L 164.035439 116.992448 
L 165.190898 116.369102 
L 165.92619 116.580529 
L 166.556441 116.629506 
L 168.237109 116.625691 
L 169.917777 116.858056 
L 170.968194 117.120772 
L 171.808529 116.98219 
L 173.594238 116.665955 
L 175.905157 116.867102 
L 177.2707 116.843543 
L 178.216076 116.830284 
L 179.266493 116.747684 
L 180.421952 116.804204 
L 181.787495 116.525934 
L 183.153038 116.710843 
L 183.88833 116.756819 
L 186.514374 116.496831 
L 187.45975 116.526789 
L 188.300084 116.426193 
L 188.720251 116.676303 
L 189.455543 117.249067 
L 189.770669 117.243486 
L 191.136211 116.861364 
L 192.396712 116.973338 
L 193.342088 117.036827 
L 194.182422 117.173447 
L 194.602589 116.999408 
L 195.337882 116.627181 
L 195.86309 116.691888 
L 196.703424 116.871798 
L 198.909301 116.734162 
L 203.426097 116.435691 
L 206.367266 116.780255 
L 207.2076 116.784106 
L 208.258017 116.528251 
L 208.678184 116.815058 
L 209.203393 117.202477 
L 209.518519 117.177985 
L 209.938686 116.804539 
L 210.463894 116.347139 
L 210.77902 116.332345 
L 211.40927 116.628569 
L 212.459688 117.048693 
L 212.879855 117.075621 
L 213.300022 116.829012 
L 213.930272 116.369745 
L 214.245397 116.382146 
L 214.875648 116.775585 
L 215.295815 116.914917 
L 215.821024 116.796426 
L 216.556316 116.628023 
L 217.816817 116.70072 
L 219.812611 116.87001 
L 224.644531 116.739809 
L 226.430241 116.583496 
L 228.74116 116.583959 
L 229.266368 116.52954 
L 229.896619 116.772323 
L 230.421828 116.901987 
L 230.947037 116.733043 
L 231.787371 116.427145 
L 232.522663 116.342384 
L 232.94283 116.481082 
L 233.993247 117.099187 
L 234.413414 116.932666 
L 235.148707 116.620455 
L 235.778957 116.716681 
L 236.51425 116.783521 
L 237.249542 116.726964 
L 237.249542 116.726964 
" clip-path="url(#pea42952e73)" style="fill: none; stroke: #9e0142; stroke-linecap: square"/>
   </g>
   <g id="line2d_27">
    <path d="M 62.249978 116.802165 
L 83.153287 116.802165 
L 83.363371 117.274007 
L 84.203705 117.355991 
L 84.51883 117.207971 
L 84.938997 116.692587 
L 85.464206 116.067971 
L 85.779331 116.030033 
L 86.199498 116.345553 
L 86.724707 116.732097 
L 87.144874 116.688032 
L 88.195292 116.367447 
L 89.140667 116.436405 
L 90.821336 116.765813 
L 92.607045 116.532923 
L 93.342338 116.754227 
L 94.497797 117.080392 
L 95.128047 117.093298 
L 96.598632 116.832601 
L 98.699467 117.004959 
L 99.854926 116.703255 
L 101.115427 116.863838 
L 102.270887 116.975607 
L 104.581805 116.942634 
L 105.527181 117.256716 
L 106.05239 117.079279 
L 106.787682 116.862784 
L 108.46835 116.942529 
L 111.724645 116.904464 
L 112.775062 116.950068 
L 113.720438 117.064399 
L 115.401106 116.862538 
L 117.081774 117.063848 
L 117.606983 116.874607 
L 118.237234 116.630461 
L 118.657401 116.712102 
L 119.497735 116.998217 
L 120.022943 116.839297 
L 120.653194 116.665084 
L 121.178403 116.823026 
L 121.808653 116.991944 
L 122.333862 116.836234 
L 123.279238 116.524714 
L 124.749822 116.239407 
L 125.590156 116.081884 
L 127.060741 116.137944 
L 127.901075 116.104803 
L 128.846451 115.935126 
L 129.476701 116.169438 
L 130.422077 116.510012 
L 131.892662 116.770765 
L 132.627954 116.746276 
L 133.363246 116.661368 
L 133.678372 116.846252 
L 134.728789 117.811428 
L 135.148956 117.657416 
L 135.779207 117.35453 
L 136.199374 117.474049 
L 137.039708 117.810272 
L 137.669958 117.653457 
L 139.350626 117.113106 
L 141.031294 116.709688 
L 142.606921 115.989138 
L 143.027088 116.013499 
L 144.392631 116.477248 
L 146.493466 116.378094 
L 147.648925 116.923004 
L 148.384217 116.736719 
L 149.119509 116.650371 
L 149.959844 116.733928 
L 151.220345 117.11034 
L 152.795971 116.752069 
L 153.846388 116.678927 
L 154.686722 116.651006 
L 156.052265 116.992614 
L 156.787558 117.130449 
L 157.312766 116.978292 
L 158.048059 116.737063 
L 158.678309 116.849093 
L 159.413601 116.939377 
L 161.934604 116.891251 
L 162.669896 116.966332 
L 163.195105 116.721202 
L 163.825355 116.458437 
L 164.245522 116.561887 
L 165.821148 117.200918 
L 166.346357 117.195438 
L 167.606858 116.83361 
L 168.867359 117.118443 
L 169.707693 116.968706 
L 170.442986 116.547837 
L 170.968194 116.374011 
L 171.598445 116.463323 
L 174.749698 117.134631 
L 176.535407 116.917976 
L 177.375742 116.696004 
L 178.321117 116.507905 
L 179.05641 116.541258 
L 179.581618 116.831242 
L 180.106827 117.080131 
L 180.421952 117.027313 
L 181.47237 116.59832 
L 181.997579 116.918197 
L 182.417746 117.134761 
L 182.732871 117.092843 
L 184.308497 116.46685 
L 185.253873 116.561721 
L 186.409332 116.734682 
L 188.930335 116.77708 
L 189.665627 116.898388 
L 190.926128 116.823214 
L 191.871504 117.136054 
L 192.291671 116.954048 
L 193.026963 116.58594 
L 193.44713 116.699846 
L 194.182422 116.992386 
L 194.707631 116.854429 
L 195.547965 116.574689 
L 196.493341 116.556888 
L 197.333675 116.752592 
L 198.279051 116.904464 
L 200.905095 117.004561 
L 201.535345 116.895609 
L 202.375679 116.672096 
L 202.900888 116.864012 
L 203.63618 117.146764 
L 204.371473 117.110457 
L 206.892475 116.847092 
L 208.363059 116.79097 
L 210.568936 116.563146 
L 211.094145 116.831683 
L 211.724395 117.105397 
L 212.144562 117.015469 
L 212.984896 116.778322 
L 214.770606 116.940737 
L 216.556316 116.60966 
L 217.711775 117.089574 
L 218.236984 116.745783 
L 218.762193 116.496503 
L 219.287402 116.615971 
L 219.917652 116.781464 
L 220.652945 116.631207 
L 221.493279 116.521081 
L 222.333613 116.581046 
L 223.804197 116.917485 
L 225.16974 116.664571 
L 225.694949 116.642183 
L 226.115116 116.892697 
L 226.850408 117.427368 
L 227.270575 117.410369 
L 228.005867 117.078266 
L 228.531076 116.680767 
L 229.161327 116.244251 
L 229.476452 116.264127 
L 230.211744 116.674508 
L 230.841995 116.855258 
L 232.312579 117.004344 
L 235.043665 116.983877 
L 235.463832 116.695185 
L 236.199124 116.137813 
L 236.619291 116.193067 
L 237.249542 116.522885 
L 237.249542 116.522885 
" clip-path="url(#pea42952e73)" style="fill: none; stroke: #ed6246; stroke-linecap: square"/>
   </g>
   <g id="line2d_28">
    <path d="M 62.249978 116.802165 
L 83.678496 116.911402 
L 84.413788 117.05208 
L 84.938997 116.894467 
L 85.779331 116.626832 
L 87.565041 116.443931 
L 88.195292 116.440575 
L 89.560834 116.676489 
L 93.237296 116.551104 
L 94.392755 116.586704 
L 95.338131 116.644215 
L 96.283507 116.742669 
L 97.64905 116.65869 
L 98.594425 116.78823 
L 99.749885 116.591384 
L 100.905344 117.086612 
L 101.430553 116.770434 
L 101.85072 116.568974 
L 102.165845 116.636001 
L 102.901137 117.174894 
L 103.531388 117.444719 
L 104.26668 117.561228 
L 104.896931 117.428345 
L 105.737265 117.275184 
L 106.892724 117.362608 
L 109.413726 117.714643 
L 111.619603 117.426225 
L 112.564979 117.740406 
L 113.300271 117.564409 
L 114.245647 117.401207 
L 114.980939 117.225516 
L 116.136398 116.79816 
L 117.922108 116.852425 
L 118.762442 116.555948 
L 119.81286 116.161319 
L 123.174196 115.432082 
L 125.905282 114.487366 
L 126.535532 114.19158 
L 127.270824 114.144648 
L 127.796033 114.287646 
L 129.056534 114.934631 
L 129.896868 114.91502 
L 130.317035 115.25598 
L 131.577536 116.554057 
L 133.57333 118.009181 
L 134.833831 119.578048 
L 135.35904 119.665821 
L 135.98929 119.791143 
L 137.039708 120.161546 
L 137.669958 120.011182 
L 138.510292 119.559053 
L 139.980877 118.388377 
L 140.716169 117.607334 
L 142.606921 115.243684 
L 143.132129 114.967319 
L 144.392631 114.851233 
L 145.127923 114.842014 
L 145.758173 115.111522 
L 146.388424 115.592458 
L 148.174134 117.330132 
L 149.119509 117.659452 
L 150.274969 117.983189 
L 150.905219 118.158481 
L 151.325386 118.013602 
L 154.161514 116.331731 
L 155.001848 116.102381 
L 155.842182 116.079254 
L 158.783351 116.650399 
L 159.623685 116.830381 
L 162.985021 117.070578 
L 165.190898 116.458116 
L 166.661483 116.863752 
L 169.077443 116.714311 
L 170.337944 116.795037 
L 171.073236 116.883001 
L 172.018612 117.109091 
L 172.438779 116.887501 
L 173.174071 116.455659 
L 173.594238 116.537764 
L 174.644656 116.893384 
L 176.010199 116.899389 
L 177.060616 116.945163 
L 177.90095 117.022897 
L 178.531201 116.744983 
L 179.161451 116.524432 
L 180.001785 116.51535 
L 180.526994 116.701211 
L 181.367328 117.080857 
L 181.787495 116.947941 
L 182.522788 116.642107 
L 183.047996 116.764598 
L 183.88833 117.009801 
L 185.04379 117.007469 
L 188.615209 116.446993 
L 189.455543 116.373301 
L 189.87571 116.542569 
L 190.716044 116.983351 
L 191.241253 116.902864 
L 191.976545 116.771943 
L 194.497548 116.978882 
L 196.598383 116.731139 
L 197.858884 116.929356 
L 199.014343 116.329367 
L 199.539552 116.642132 
L 200.169802 116.968245 
L 200.905095 117.050669 
L 201.535345 116.91256 
L 202.480721 116.569595 
L 203.216013 116.717058 
L 203.846264 116.733065 
L 205.106765 116.630083 
L 208.573143 117.140336 
L 209.308435 117.28041 
L 209.728602 117.098024 
L 210.568936 116.58868 
L 211.094145 116.659528 
L 211.829437 116.791781 
L 212.984896 116.571849 
L 214.035314 116.423574 
L 214.455481 116.646637 
L 215.295815 117.149545 
L 215.926066 117.111847 
L 218.236984 116.538586 
L 218.867235 116.390385 
L 219.602527 116.440878 
L 220.232778 116.684275 
L 220.96807 117.075182 
L 221.283195 117.038261 
L 222.543696 116.59476 
L 223.489072 116.7066 
L 224.749573 116.373139 
L 225.905032 116.963267 
L 226.535283 116.655899 
L 226.95545 116.54854 
L 227.480659 116.694409 
L 228.110909 116.851996 
L 228.846201 116.689021 
L 229.476452 116.61895 
L 231.577287 116.835184 
L 233.047872 116.893963 
L 234.413414 116.749086 
L 235.463832 116.890892 
L 236.619291 117.101662 
L 237.249542 117.088707 
L 237.249542 117.088707 
" clip-path="url(#pea42952e73)" style="fill: none; stroke: #fec877; stroke-linecap: square"/>
   </g>
   <g id="line2d_29">
    <path d="M 62.249978 116.802165 
L 83.153287 116.802165 
L 83.363371 117.004024 
L 84.51883 116.986797 
L 86.199498 116.744885 
L 87.354958 116.962709 
L 87.985208 117.035442 
L 88.615459 116.791306 
L 89.245709 116.625062 
L 90.296127 116.778888 
L 91.556628 116.793209 
L 93.447379 116.339108 
L 94.182672 116.471029 
L 95.128047 116.723132 
L 96.073423 116.659389 
L 97.64905 116.479041 
L 98.909551 116.882419 
L 99.959968 116.919856 
L 101.010386 116.896174 
L 103.216263 117.287051 
L 105.001972 117.319044 
L 106.05239 117.169251 
L 106.68264 117.116432 
L 107.417933 117.325574 
L 108.678434 117.647423 
L 110.359102 117.925831 
L 111.409519 117.866717 
L 112.249854 118.218281 
L 113.615396 118.71136 
L 114.140605 118.626492 
L 114.875897 118.484773 
L 116.24144 118.596994 
L 117.501941 118.147689 
L 118.237234 118.060454 
L 118.657401 117.753024 
L 119.707818 116.869003 
L 120.653194 116.461724 
L 121.283444 115.785837 
L 122.543945 114.029527 
L 123.174196 113.329232 
L 124.749822 112.189045 
L 126.010323 111.00701 
L 126.43049 110.792924 
L 126.850657 110.860323 
L 128.111158 111.394846 
L 128.636367 111.567978 
L 129.056534 111.97542 
L 129.686785 112.942043 
L 130.422077 114.505159 
L 131.577536 117.170826 
L 132.627954 119.445651 
L 133.57333 121.663953 
L 134.098539 122.294224 
L 135.043914 123.30775 
L 135.674165 123.938468 
L 135.98929 123.971587 
L 136.409457 123.73984 
L 137.144749 122.955937 
L 137.880042 121.823872 
L 138.615334 120.297731 
L 141.871628 112.772548 
L 142.396837 112.322392 
L 142.817004 112.2016 
L 143.237171 112.344311 
L 144.287589 113.203704 
L 144.917839 113.800286 
L 145.443048 114.661487 
L 147.543883 118.900538 
L 147.96405 119.201653 
L 148.909426 119.659567 
L 149.539676 120.1323 
L 149.854802 120.114455 
L 150.169927 119.81339 
L 153.216138 115.742505 
L 153.636305 115.51309 
L 155.211931 115.00934 
L 155.527057 114.961278 
L 155.842182 115.137559 
L 156.367391 115.842027 
L 156.997641 116.626623 
L 157.732933 117.254951 
L 158.1531 117.360966 
L 158.678309 117.144248 
L 159.203518 116.936512 
L 160.043852 116.973343 
L 160.674103 116.89025 
L 161.619478 116.691401 
L 163.825355 116.806748 
L 165.190898 116.62672 
L 166.241316 117.246822 
L 166.661483 117.057428 
L 167.396775 116.686666 
L 167.921984 116.773959 
L 168.762318 116.92084 
L 169.812735 116.820631 
L 171.178278 116.518536 
L 172.753904 116.742324 
L 174.959781 117.24327 
L 175.590032 117.390301 
L 176.430366 117.269742 
L 177.375742 117.216519 
L 178.005992 117.109658 
L 179.791702 116.518692 
L 180.737078 116.506737 
L 181.997579 116.516912 
L 182.627829 116.601695 
L 183.783289 117.15606 
L 184.203456 116.911209 
L 184.938748 116.423391 
L 185.67404 116.262021 
L 186.304291 116.336339 
L 187.45975 116.698806 
L 189.035376 116.78261 
L 189.770669 116.805124 
L 190.926128 116.650957 
L 191.976545 116.763362 
L 193.342088 116.298723 
L 194.392506 116.498917 
L 195.547965 116.238147 
L 196.493341 116.575377 
L 197.963925 117.079246 
L 198.80426 117.61202 
L 199.119385 117.524648 
L 200.589969 116.666269 
L 201.535345 116.639898 
L 204.161389 116.890714 
L 207.522725 116.555456 
L 208.573143 116.770049 
L 209.728602 116.721969 
L 210.77902 116.646161 
L 211.829437 116.771744 
L 213.089938 116.324966 
L 214.560523 116.705547 
L 215.190773 116.701458 
L 215.715982 116.97981 
L 216.346233 117.292869 
L 216.7664 117.203385 
L 218.131942 116.641029 
L 218.657151 116.595585 
L 218.972276 116.725762 
L 219.812611 117.238617 
L 220.127736 117.050531 
L 221.178153 115.944815 
L 221.59832 116.053425 
L 222.648738 116.495413 
L 223.699155 116.711835 
L 224.644531 116.670982 
L 226.325199 116.383966 
L 227.375617 116.617477 
L 228.426034 116.872523 
L 230.52687 116.983629 
L 231.892412 116.920177 
L 232.94283 117.123117 
L 233.993247 116.910273 
L 235.463832 116.608859 
L 236.934417 116.812018 
L 237.249542 116.866648 
L 237.249542 116.866648 
" clip-path="url(#pea42952e73)" style="fill: none; stroke: #f8fcb4; stroke-linecap: square"/>
   </g>
   <g id="line2d_30">
    <path d="M 62.249978 116.802165 
L 83.153287 116.802165 
L 83.363371 116.584614 
L 84.413788 116.584927 
L 84.938997 116.818588 
L 85.67429 117.115216 
L 86.30454 117.035873 
L 87.459999 116.868363 
L 89.560834 116.540936 
L 90.50621 116.367014 
L 91.976795 116.329022 
L 93.132254 116.206217 
L 93.867546 116.302208 
L 95.233089 116.8049 
L 96.283507 116.458929 
L 97.64905 116.078105 
L 98.489384 116.102846 
L 99.224676 116.429037 
L 99.854926 116.60768 
L 101.325511 116.771711 
L 102.165845 116.92857 
L 103.531388 116.995525 
L 104.581805 117.216495 
L 106.262473 117.352013 
L 107.102808 117.631069 
L 107.8381 117.883114 
L 108.573392 117.806911 
L 109.203643 117.835105 
L 111.724645 118.550245 
L 112.564979 118.844046 
L 113.82548 119.024835 
L 114.875897 119.756902 
L 115.296064 119.673891 
L 116.871691 119.14539 
L 117.396899 119.124562 
L 118.237234 119.197322 
L 118.657401 118.930922 
L 120.233027 117.364055 
L 120.758236 116.663074 
L 122.123778 114.409811 
L 122.859071 113.761331 
L 123.279238 112.865846 
L 124.329655 110.285661 
L 124.959906 109.578261 
L 126.640574 108.066207 
L 127.165783 108.05411 
L 127.796033 108.301376 
L 128.426284 108.783166 
L 128.951493 109.544312 
L 129.581743 110.952165 
L 130.422077 113.444839 
L 133.888455 125.194311 
L 134.623747 126.17222 
L 135.464081 127.165341 
L 135.779207 127.252327 
L 136.094332 127.063307 
L 136.514499 126.48646 
L 137.144749 125.203301 
L 137.880042 123.122804 
L 138.930459 119.435179 
L 141.031294 111.760129 
L 141.661545 110.346686 
L 142.186754 109.645432 
L 142.606921 109.407063 
L 142.922046 109.453838 
L 143.237171 109.721176 
L 143.76238 110.516803 
L 144.497672 112.067556 
L 145.443048 114.730057 
L 147.3338 120.559435 
L 148.069092 121.983681 
L 148.489259 122.426545 
L 148.804384 122.456171 
L 149.119509 122.192903 
L 149.959844 120.973105 
L 150.905219 119.367373 
L 152.375804 116.437632 
L 153.32118 114.789252 
L 153.95143 114.242044 
L 154.476639 114.096748 
L 154.791764 114.187749 
L 156.367391 115.011875 
L 156.787558 115.278421 
L 157.102683 115.743012 
L 158.048059 117.381862 
L 158.363184 117.48213 
L 159.518643 117.506085 
L 160.253935 117.738061 
L 160.569061 117.607184 
L 162.144687 116.542329 
L 162.774938 116.454897 
L 163.51023 116.618184 
L 164.560647 117.087059 
L 165.085856 117.237193 
L 165.716107 117.092097 
L 166.241316 117.027425 
L 166.976608 117.275177 
L 167.501817 117.355953 
L 168.237109 117.242522 
L 168.762318 116.948674 
L 169.812735 116.145231 
L 170.337944 116.166164 
L 170.968194 116.174398 
L 172.018612 115.933218 
L 172.438779 116.182803 
L 173.279113 116.787 
L 174.014405 116.911448 
L 175.169865 117.14087 
L 176.955575 117.464247 
L 179.896744 116.812832 
L 180.421952 116.817969 
L 181.47237 117.015751 
L 182.732871 116.734024 
L 184.413539 117.297797 
L 184.938748 117.206227 
L 185.463957 116.791587 
L 185.989165 116.44416 
L 186.409332 116.496619 
L 187.354708 116.784873 
L 188.300084 116.554021 
L 189.770669 116.3563 
L 190.926128 116.578551 
L 193.237047 117.120082 
L 194.497548 116.533241 
L 196.808466 116.699053 
L 197.858884 116.647027 
L 199.539552 116.966539 
L 200.695011 116.836018 
L 201.325262 116.835698 
L 202.585763 117.161778 
L 203.741222 116.710672 
L 204.581556 116.930255 
L 206.157182 117.236006 
L 207.312642 117.039115 
L 208.678184 116.804105 
L 210.043727 116.700757 
L 211.724395 116.53379 
L 212.564729 116.733395 
L 213.405063 116.853929 
L 214.350439 117.005832 
L 215.295815 117.23708 
L 216.031107 117.045393 
L 216.661358 116.9692 
L 217.606734 116.976094 
L 218.236984 116.63586 
L 218.762193 116.462687 
L 219.18236 116.604732 
L 219.812611 116.86493 
L 220.232778 116.751863 
L 221.073112 116.366171 
L 221.493279 116.470758 
L 222.228571 116.70768 
L 222.75378 116.540605 
L 223.38403 116.339529 
L 223.909239 116.496036 
L 224.539489 116.708249 
L 225.064698 116.585912 
L 225.799991 116.405274 
L 226.535283 116.620647 
L 227.060492 116.662445 
L 228.320993 116.474349 
L 229.581494 116.871399 
L 232.837788 116.847469 
L 235.148707 117.319492 
L 235.673915 117.006392 
L 236.304166 116.697494 
L 236.934417 116.769121 
L 237.249542 116.825115 
L 237.249542 116.825115 
" clip-path="url(#pea42952e73)" style="fill: none; stroke: #a7dba4; stroke-linecap: square"/>
   </g>
   <g id="line2d_31">
    <path d="M 62.249978 116.802165 
L 83.573454 116.903629 
L 84.413788 116.995008 
L 84.833955 116.79018 
L 85.569248 116.357159 
L 86.094457 116.376382 
L 87.354958 116.577266 
L 88.300333 116.538202 
L 89.350751 116.443672 
L 90.50621 116.549365 
L 91.556628 116.321075 
L 93.342338 116.585023 
L 94.07763 116.338872 
L 94.812922 115.971324 
L 95.128047 116.025331 
L 96.388549 116.675822 
L 97.859133 116.560326 
L 98.699467 116.602596 
L 99.644843 116.519258 
L 100.275093 116.808961 
L 101.010386 117.101586 
L 101.955762 117.199053 
L 103.111221 117.052353 
L 105.632223 116.990937 
L 106.787682 117.586264 
L 108.048183 117.390452 
L 113.090188 119.547118 
L 113.615396 119.69207 
L 114.140605 120.127078 
L 114.770856 120.631318 
L 115.191023 120.669509 
L 116.031357 120.604308 
L 117.291858 120.977703 
L 117.817067 120.516723 
L 118.447317 120.010095 
L 119.392693 119.588995 
L 119.81286 119.008364 
L 120.758236 117.141638 
L 121.913695 114.431168 
L 123.489321 110.415008 
L 124.749822 107.762365 
L 126.115365 104.873953 
L 126.745616 103.964715 
L 127.270824 103.496486 
L 127.58595 103.520568 
L 127.901075 103.887616 
L 128.426284 105.070965 
L 129.581743 108.412189 
L 130.317035 111.347224 
L 131.997703 119.772454 
L 133.888455 129.182326 
L 134.518706 130.991271 
L 135.043914 131.882938 
L 135.464081 132.184479 
L 135.779207 132.108732 
L 136.094332 131.728677 
L 136.514499 130.80373 
L 137.144749 128.833948 
L 137.880042 125.727389 
L 138.615334 121.577107 
L 140.085919 112.674098 
L 140.926253 108.747108 
L 141.556503 106.622262 
L 142.081712 105.6193 
L 142.396837 105.335149 
L 142.711962 105.324317 
L 143.027088 105.614872 
L 143.447255 106.45289 
L 143.972463 108.105716 
L 144.497672 110.588298 
L 145.653132 116.330108 
L 146.913633 121.346785 
L 147.648925 123.51233 
L 148.174134 124.551613 
L 148.489259 124.874536 
L 148.699342 124.911369 
L 149.014468 124.658109 
L 149.434635 123.917686 
L 150.274969 121.926424 
L 151.640512 117.743402 
L 152.585887 115.070509 
L 153.32118 113.556296 
L 153.846388 112.939983 
L 154.266555 112.71739 
L 154.581681 112.731815 
L 155.001848 113.034766 
L 155.73714 114.001164 
L 157.52285 116.753665 
L 158.258142 117.534781 
L 158.993434 118.414459 
L 159.30856 118.483246 
L 159.728727 118.229994 
L 161.514437 116.696578 
L 162.249729 116.455752 
L 163.405188 116.376967 
L 164.14048 116.539812 
L 165.085856 117.020641 
L 166.451399 117.897885 
L 167.08165 117.943985 
L 167.606858 117.794126 
L 168.342151 117.31151 
L 169.077443 116.622569 
L 169.917777 115.875586 
L 170.653069 115.48366 
L 171.178278 115.428695 
L 171.808529 115.598332 
L 172.333737 115.946682 
L 173.489197 116.925833 
L 174.539614 117.541593 
L 175.48499 118.368875 
L 175.800115 118.308442 
L 176.430366 117.826006 
L 177.2707 117.296341 
L 178.636243 116.627209 
L 179.371535 116.48924 
L 180.211869 116.581594 
L 181.892537 116.967051 
L 182.417746 116.961225 
L 182.732871 117.148742 
L 183.783289 118.036933 
L 184.203456 117.929171 
L 186.724458 116.743592 
L 188.405126 116.550583 
L 189.770669 116.494028 
L 191.871504 116.870279 
L 192.606796 116.6936 
L 194.077381 116.351785 
L 194.707631 116.446349 
L 196.283257 116.815531 
L 196.913508 116.766238 
L 197.753842 116.641991 
L 198.279051 116.8766 
L 198.909301 117.097108 
L 199.43451 116.936782 
L 200.064761 116.765526 
L 200.589969 116.941779 
L 201.22022 117.1511 
L 201.85047 117.057874 
L 203.741222 116.630118 
L 204.896681 116.666916 
L 206.367266 116.948878 
L 206.997516 117.043724 
L 207.522725 116.874823 
L 208.468101 116.524964 
L 209.518519 116.481263 
L 212.039521 116.573682 
L 212.774813 116.630856 
L 213.19498 116.882949 
L 214.140356 117.602413 
L 214.770606 117.656873 
L 215.61094 117.485788 
L 217.186567 116.989458 
L 218.972276 116.69773 
L 219.812611 116.920456 
L 220.127736 116.77153 
L 221.283195 115.963754 
L 221.913446 116.038626 
L 224.749573 116.630131 
L 226.010074 116.350629 
L 228.215951 116.738195 
L 229.37141 116.717241 
L 230.52687 116.521909 
L 231.15712 116.858507 
L 231.997454 117.251822 
L 232.837788 117.455125 
L 233.678122 117.374322 
L 234.413414 117.10634 
L 235.148707 116.832716 
L 235.883999 116.822124 
L 236.619291 117.003938 
L 237.249542 117.269016 
L 237.249542 117.269016 
" clip-path="url(#pea42952e73)" style="fill: none; stroke: #3b92b9; stroke-linecap: square"/>
   </g>
   <g id="line2d_32">
    <path d="M 62.249978 116.802165 
L 83.153287 116.802165 
L 83.363371 116.435774 
L 83.783538 116.617826 
L 84.413788 116.895035 
L 84.833955 116.765409 
L 85.569248 116.438943 
L 85.989415 116.527975 
L 87.144874 116.911675 
L 88.09025 116.910868 
L 90.716294 116.356468 
L 91.556628 116.140359 
L 92.396962 116.22954 
L 94.497797 116.512484 
L 95.233089 116.510118 
L 97.438966 116.763067 
L 98.909551 116.427289 
L 99.959968 116.431105 
L 101.115427 116.34498 
L 101.955762 116.51122 
L 102.586012 116.894235 
L 103.216263 117.188073 
L 103.846513 117.155804 
L 104.686847 117.135624 
L 105.737265 117.288422 
L 108.993559 118.109964 
L 110.569185 118.207317 
L 112.459937 119.117912 
L 112.985146 119.781194 
L 113.615396 120.572009 
L 114.140605 120.825361 
L 114.980939 121.129904 
L 116.031357 121.740896 
L 116.661607 121.725101 
L 117.291858 121.726971 
L 118.132192 121.921756 
L 118.447317 121.761469 
L 118.972526 121.190765 
L 119.707818 120.009945 
L 121.283444 116.673573 
L 122.018737 114.817274 
L 123.594363 109.730791 
L 125.80024 102.772917 
L 126.43049 101.55146 
L 126.850657 101.14114 
L 127.270824 101.014118 
L 127.690991 101.141958 
L 128.111158 101.50226 
L 128.531326 102.132736 
L 129.056534 103.368335 
L 129.686785 105.491369 
L 130.317035 108.389472 
L 131.262411 114.026469 
L 132.732996 124.624452 
L 133.678372 130.978185 
L 134.413664 134.605212 
L 134.938873 136.222019 
L 135.35904 136.942947 
L 135.674165 137.080516 
L 135.884248 136.9472 
L 136.199374 136.378037 
L 136.619541 135.083844 
L 137.354833 131.945763 
L 138.090125 127.659597 
L 138.825417 121.987409 
L 140.506086 108.711923 
L 141.34642 103.74078 
L 141.766587 102.272082 
L 142.081712 101.751086 
L 142.396837 101.620636 
L 142.711962 101.786567 
L 143.027088 102.184915 
L 143.447255 103.152391 
L 143.972463 105.12787 
L 144.497672 108.207348 
L 146.703549 122.607398 
L 147.438841 125.68424 
L 148.069092 127.344459 
L 148.384217 127.777968 
L 148.594301 127.861389 
L 148.804384 127.743215 
L 149.119509 127.196699 
L 149.74976 125.375158 
L 150.380011 123.097462 
L 153.111096 112.227898 
L 153.531263 111.374232 
L 153.95143 110.95497 
L 154.266555 110.918131 
L 154.581681 111.139832 
L 154.896806 111.72788 
L 156.472432 115.323843 
L 158.1531 118.527662 
L 158.573267 118.739134 
L 158.993434 118.727086 
L 159.413601 118.530315 
L 160.043852 117.866036 
L 161.514437 116.328136 
L 162.249729 115.940088 
L 163.615272 115.529323 
L 163.930397 115.681427 
L 164.350564 116.203961 
L 165.611065 117.955096 
L 166.136274 118.416779 
L 166.556441 118.467346 
L 167.08165 118.254696 
L 167.7119 117.765075 
L 170.548027 114.872086 
L 170.968194 114.771444 
L 171.388362 114.901852 
L 172.228696 115.471234 
L 173.174071 116.406489 
L 174.749698 118.099501 
L 175.379948 118.249368 
L 176.010199 118.213514 
L 176.640449 117.977066 
L 177.165658 117.569991 
L 178.005992 116.908103 
L 179.266493 116.343601 
L 180.001785 115.665869 
L 180.316911 115.692657 
L 180.737078 116.118944 
L 181.47237 116.944659 
L 182.312704 117.423901 
L 183.25808 117.724853 
L 183.783289 117.701704 
L 184.413539 117.390023 
L 186.304291 116.287225 
L 188.300084 116.177193 
L 188.930335 116.356486 
L 190.821086 117.010835 
L 191.766462 117.02701 
L 192.501754 116.842061 
L 193.237047 116.720392 
L 194.392506 116.747758 
L 195.653007 116.305986 
L 196.703424 116.507458 
L 198.384093 116.82178 
L 199.539552 117.007545 
L 200.169802 117.038422 
L 201.22022 116.733794 
L 202.375679 116.509314 
L 202.795846 116.717576 
L 203.531139 117.118372 
L 203.951306 117.033029 
L 205.001723 116.685834 
L 205.947099 116.715362 
L 207.312642 116.913627 
L 208.363059 116.669881 
L 209.938686 116.797322 
L 211.829437 116.469495 
L 214.035314 116.901594 
L 214.560523 117.214468 
L 215.190773 117.5486 
L 215.61094 117.505865 
L 216.871441 117.18901 
L 217.921859 117.022892 
L 218.762193 116.840472 
L 219.287402 117.041676 
L 219.812611 117.183681 
L 220.127736 117.03507 
L 221.178153 116.266684 
L 221.59832 116.455673 
L 222.123529 116.687199 
L 222.438654 116.570986 
L 223.489072 115.836772 
L 223.909239 116.062283 
L 224.539489 116.457195 
L 225.064698 116.423513 
L 226.010074 116.28626 
L 226.95545 116.400172 
L 228.74116 116.874299 
L 230.106702 116.990332 
L 230.947037 117.247494 
L 231.682329 117.45102 
L 232.627705 117.376728 
L 235.778957 117.257042 
L 236.409208 117.198584 
L 237.249542 116.889754 
L 237.249542 116.889754 
" clip-path="url(#pea42952e73)" style="fill: none; stroke: #5e4fa2; stroke-linecap: square"/>
   </g>
   <g id="line2d_33"/>
   <g id="line2d_34"/>
   <g id="line2d_35"/>
   <g id="line2d_36"/>
   <g id="line2d_37"/>
   <g id="line2d_38"/>
   <g id="patch_3">
    <path d="M 53.5 218.499473 
L 53.5 10.675067 
" style="fill: none; stroke: #000000; stroke-width: 0.6; stroke-linejoin: miter; stroke-linecap: square"/>
   </g>
   <g id="patch_4">
    <path d="M 245.99952 218.499473 
L 245.99952 10.675067 
" style="fill: none; stroke: #000000; stroke-width: 0.6; stroke-linejoin: miter; stroke-linecap: square"/>
   </g>
   <g id="patch_5">
    <path d="M 53.5 218.499473 
L 245.99952 218.499473 
" style="fill: none; stroke: #000000; stroke-width: 0.6; stroke-linejoin: miter; stroke-linecap: square"/>
   </g>
   <g id="patch_6">
    <path d="M 53.5 10.675067 
L 245.99952 10.675067 
" style="fill: none; stroke: #000000; stroke-width: 0.6; stroke-linejoin: miter; stroke-linecap: square"/>
   </g>
   <g id="legend_1">
    <g id="patch_7">
     <path d="M 58.5 128.475067 
L 118.2 128.475067 
L 118.2 15.675067 
L 58.5 15.675067 
z
" style="fill: #ffffff; opacity: 0.9"/>
    </g>
    <g id="text_15">
     <!-- $F$ (mJ/cm$^2$) -->
     <g transform="translate(64.5 30.075067) scale(0.1 -0.1)">
      <defs>
       <path id="NotoSans-Italic-46" d="M 262 0 
L 1229 4570 
L 3546 4570 
L 3443 4064 
L 1690 4064 
L 1350 2438 
L 2989 2438 
L 2880 1933 
L 1242 1933 
L 832 0 
L 262 0 
z
" transform="scale(0.015625)"/>
       <path id="NotoSans-Regular-4a" d="M -26 -1216 
Q -179 -1216 -294 -1193 
Q -410 -1171 -499 -1133 
L -499 -646 
Q -397 -672 -281 -691 
Q -166 -710 -38 -710 
Q 122 -710 266 -646 
Q 410 -582 499 -422 
Q 589 -262 589 26 
L 589 4570 
L 1165 4570 
L 1165 70 
Q 1165 -371 1017 -656 
Q 870 -941 601 -1078 
Q 333 -1216 -26 -1216 
z
" transform="scale(0.015625)"/>
       <path id="NotoSans-Regular-2f" d="M 2317 4570 
L 614 0 
L 64 0 
L 1766 4570 
L 2317 4570 
z
" transform="scale(0.015625)"/>
       <path id="NotoSans-Regular-63" d="M 1920 -64 
Q 1466 -64 1110 121 
Q 755 307 553 697 
Q 352 1088 352 1696 
Q 352 2330 563 2726 
Q 774 3123 1136 3308 
Q 1498 3494 1958 3494 
Q 2221 3494 2464 3440 
Q 2707 3386 2861 3309 
L 2688 2842 
Q 2534 2899 2329 2950 
Q 2125 3002 1946 3002 
Q 1600 3002 1376 2854 
Q 1152 2707 1043 2419 
Q 934 2131 934 1702 
Q 934 1293 1043 1005 
Q 1152 717 1369 569 
Q 1587 422 1914 422 
Q 2195 422 2409 480 
Q 2624 538 2803 621 
L 2803 122 
Q 2630 32 2422 -16 
Q 2214 -64 1920 -64 
z
" transform="scale(0.015625)"/>
      </defs>
      <use xlink:href="#NotoSans-Italic-46" transform="translate(0 0.8)"/>
      <use xlink:href="#NotoSans-Regular-20" transform="translate(47.699997 0.8)"/>
      <use xlink:href="#NotoSans-Regular-28" transform="translate(73.699982 0.8)"/>
      <use xlink:href="#NotoSans-Regular-6d" transform="translate(103.699966 0.8)"/>
      <use xlink:href="#NotoSans-Regular-4a" transform="translate(197.199951 0.8)"/>
      <use xlink:href="#NotoSans-Regular-2f" transform="translate(224.499939 0.8)"/>
      <use xlink:href="#NotoSans-Regular-63" transform="translate(261.699936 0.8)"/>
      <use xlink:href="#NotoSans-Regular-6d" transform="translate(309.699921 0.8)"/>
      <use xlink:href="#NotoSans-Regular-32" transform="translate(404.137796 38.315625) scale(0.7)"/>
      <use xlink:href="#NotoSans-Regular-29" transform="translate(446.857481 0.8)"/>
     </g>
    </g>
    <g id="line2d_39">
     <path d="M 67.25 41.575067 
L 77.25 41.575067 
L 87.25 41.575067 
" style="fill: none; stroke: #b81e48; stroke-linecap: square"/>
    </g>
    <g id="text_16">
     <!-- $\mathdefault{0.2}$ -->
     <g transform="translate(95.25 45.075067) scale(0.1 -0.1)">
      <use xlink:href="#NotoSans-Regular-30" transform="translate(0 0.5)"/>
      <use xlink:href="#NotoSans-Regular-2e" transform="translate(57.199997 0.5)"/>
      <use xlink:href="#NotoSans-Regular-32" transform="translate(83.999985 0.5)"/>
     </g>
    </g>
    <g id="line2d_40">
     <path d="M 67.25 56.575067 
L 77.25 56.575067 
L 87.25 56.575067 
" style="fill: none; stroke: #f57748; stroke-linecap: square"/>
    </g>
    <g id="text_17">
     <!-- $\mathdefault{0.3}$ -->
     <g transform="translate(95.25 60.075067) scale(0.1 -0.1)">
      <defs>
       <path id="NotoSans-Regular-33" d="M 3155 3501 
Q 3155 3194 3040 2970 
Q 2925 2746 2710 2605 
Q 2496 2464 2208 2406 
L 2208 2381 
Q 2758 2317 3027 2035 
Q 3296 1754 3296 1299 
Q 3296 902 3110 592 
Q 2925 282 2537 109 
Q 2150 -64 1542 -64 
Q 1184 -64 877 -9 
Q 570 45 288 186 
L 288 710 
Q 576 570 909 490 
Q 1242 410 1549 410 
Q 2163 410 2435 650 
Q 2707 890 2707 1312 
Q 2707 1600 2556 1776 
Q 2406 1952 2118 2035 
Q 1830 2118 1427 2118 
L 986 2118 
L 986 2598 
L 1434 2598 
Q 1811 2598 2064 2707 
Q 2317 2816 2448 3011 
Q 2579 3206 2579 3462 
Q 2579 3795 2355 3977 
Q 2131 4160 1747 4160 
Q 1504 4160 1305 4112 
Q 1107 4064 937 3977 
Q 768 3891 595 3776 
L 314 4160 
Q 557 4352 918 4493 
Q 1280 4634 1741 4634 
Q 2458 4634 2806 4314 
Q 3155 3994 3155 3501 
z
" transform="scale(0.015625)"/>
      </defs>
      <use xlink:href="#NotoSans-Regular-30" transform="translate(0 0.5)"/>
      <use xlink:href="#NotoSans-Regular-2e" transform="translate(57.199997 0.5)"/>
      <use xlink:href="#NotoSans-Regular-33" transform="translate(83.999985 0.5)"/>
     </g>
    </g>
    <g id="line2d_41">
     <path d="M 67.25 71.575067 
L 77.25 71.575067 
L 87.25 71.575067 
" style="fill: none; stroke: #feda86; stroke-linecap: square"/>
    </g>
    <g id="text_18">
     <!-- $\mathdefault{0.4}$ -->
     <g transform="translate(95.25 75.075067) scale(0.1 -0.1)">
      <use xlink:href="#NotoSans-Regular-30" transform="translate(0 0.5)"/>
      <use xlink:href="#NotoSans-Regular-2e" transform="translate(57.199997 0.5)"/>
      <use xlink:href="#NotoSans-Regular-34" transform="translate(83.999985 0.5)"/>
     </g>
    </g>
    <g id="line2d_42">
     <path d="M 67.25 86.575067 
L 77.25 86.575067 
L 87.25 86.575067 
" style="fill: none; stroke: #f0f9a7; stroke-linecap: square"/>
    </g>
    <g id="text_19">
     <!-- $\mathdefault{0.5}$ -->
     <g transform="translate(95.25 90.075067) scale(0.1 -0.1)">
      <use xlink:href="#NotoSans-Regular-30" transform="translate(0 0.5)"/>
      <use xlink:href="#NotoSans-Regular-2e" transform="translate(57.199997 0.5)"/>
      <use xlink:href="#NotoSans-Regular-35" transform="translate(83.999985 0.5)"/>
     </g>
    </g>
    <g id="line2d_43">
     <path d="M 67.25 101.575067 
L 77.25 101.575067 
L 87.25 101.575067 
" style="fill: none; stroke: #97d5a4; stroke-linecap: square"/>
    </g>
    <g id="text_20">
     <!-- $\mathdefault{0.6}$ -->
     <g transform="translate(95.25 105.075067) scale(0.1 -0.1)">
      <use xlink:href="#NotoSans-Regular-30" transform="translate(0 0.5)"/>
      <use xlink:href="#NotoSans-Regular-2e" transform="translate(57.199997 0.5)"/>
      <use xlink:href="#NotoSans-Regular-36" transform="translate(83.999985 0.5)"/>
     </g>
    </g>
    <g id="line2d_44">
     <path d="M 67.25 116.575067 
L 77.25 116.575067 
L 87.25 116.575067 
" style="fill: none; stroke: #3387bc; stroke-linecap: square"/>
    </g>
    <g id="text_21">
     <!-- $\mathdefault{0.7}$ -->
     <g transform="translate(95.25 120.075067) scale(0.1 -0.1)">
      <defs>
       <path id="NotoSans-Regular-37" d="M 870 0 
L 2746 4058 
L 282 4058 
L 282 4570 
L 3347 4570 
L 3347 4134 
L 1491 0 
L 870 0 
z
" transform="scale(0.015625)"/>
      </defs>
      <use xlink:href="#NotoSans-Regular-30" transform="translate(0 0.5)"/>
      <use xlink:href="#NotoSans-Regular-2e" transform="translate(57.199997 0.5)"/>
      <use xlink:href="#NotoSans-Regular-37" transform="translate(83.999985 0.5)"/>
     </g>
    </g>
   </g>
  </g>
 </g>
 <defs>
  <clipPath id="pea42952e73">
   <rect x="53.5" y="10.675067" width="192.49952" height="207.824406"/>
  </clipPath>
 </defs>
</svg>
