<?xml version="1.0" encoding="utf-8" standalone="no"?>
<!DOCTYPE svg PUBLIC "-//W3C//DTD SVG 1.1//EN"
  "http://www.w3.org/Graphics/SVG/1.1/DTD/svg11.dtd">
<svg xmlns:xlink="http://www.w3.org/1999/xlink" width="487.502767pt" height="156.7pt" viewBox="0 0 487.502767 156.7" xmlns="http://www.w3.org/2000/svg" version="1.1">
 <metadata>
  <rdf:RDF xmlns:dc="http://purl.org/dc/elements/1.1/" xmlns:cc="http://creativecommons.org/ns#" xmlns:rdf="http://www.w3.org/1999/02/22-rdf-syntax-ns#">
   <cc:Work>
    <dc:type rdf:resource="http://purl.org/dc/dcmitype/StillImage"/>
    <dc:date>2024-07-06T12:10:54.782841</dc:date>
    <dc:format>image/svg+xml</dc:format>
    <dc:creator>
     <cc:Agent>
      <dc:title>Matplotlib v3.9.0, https://matplotlib.org/</dc:title>
     </cc:Agent>
    </dc:creator>
   </cc:Work>
  </rdf:RDF>
 </metadata>
 <defs>
  <style type="text/css">*{stroke-linejoin: round; stroke-linecap: butt}</style>
 </defs>
 <g id="figure_1">
  <g id="patch_1">
   <path d="M 0 156.7 
L 487.502767 156.7 
L 487.502767 0 
L 0 0 
z
" style="fill: #ffffff"/>
  </g>
  <g id="axes_1">
   <g id="patch_2">
    <path d="M 44.6 121.9 
L 161.446703 121.9 
L 161.446703 18.8 
L 44.6 18.8 
z
" style="fill: #ffffff"/>
   </g>
   <g id="PolyCollection_1"/>
   <g id="PolyCollection_2"/>
   <g id="PolyCollection_3"/>
   <g id="PolyCollection_4"/>
   <g id="PolyCollection_5"/>
   <g id="PolyCollection_6"/>
   <g id="PolyCollection_7"/>
   <g id="PolyCollection_8"/>
   <g id="matplotlib.axis_1">
    <g id="xtick_1">
     <g id="line2d_1">
      <defs>
       <path id="md1537a11e1" d="M 0 0 
L 0 -4 
" style="stroke: #000000; stroke-width: 0.6"/>
      </defs>
      <g>
       <use xlink:href="#md1537a11e1" x="49.911214" y="121.9" style="stroke: #000000; stroke-width: 0.6"/>
      </g>
     </g>
     <g id="line2d_2">
      <defs>
       <path id="m0140fec1ce" d="M 0 0 
L 0 4 
" style="stroke: #000000; stroke-width: 0.6"/>
      </defs>
      <g>
       <use xlink:href="#m0140fec1ce" x="49.911214" y="18.8" style="stroke: #000000; stroke-width: 0.6"/>
      </g>
     </g>
     <g id="text_1">
      <!-- $\mathdefault{0}$ -->
      <g transform="translate(47.011214 133) scale(0.1 -0.1)">
       <defs>
        <path id="NotoSans-Regular-30" d="M 3347 2291 
Q 3347 1734 3264 1299 
Q 3181 864 2998 560 
Q 2816 256 2525 96 
Q 2234 -64 1824 -64 
Q 1312 -64 976 217 
Q 640 499 477 1027 
Q 314 1555 314 2291 
Q 314 3034 464 3558 
Q 614 4083 947 4361 
Q 1280 4640 1824 4640 
Q 2336 4640 2675 4361 
Q 3014 4083 3180 3558 
Q 3347 3034 3347 2291 
z
M 877 2291 
Q 877 1664 969 1248 
Q 1062 832 1270 624 
Q 1478 416 1824 416 
Q 2170 416 2378 621 
Q 2586 826 2682 1245 
Q 2778 1664 2778 2291 
Q 2778 2918 2682 3331 
Q 2586 3744 2378 3952 
Q 2170 4160 1824 4160 
Q 1478 4160 1270 3952 
Q 1062 3744 969 3331 
Q 877 2918 877 2291 
z
" transform="scale(0.015625)"/>
       </defs>
       <use xlink:href="#NotoSans-Regular-30" transform="translate(0 0.5)"/>
      </g>
     </g>
    </g>
    <g id="xtick_2">
     <g id="line2d_3">
      <g>
       <use xlink:href="#md1537a11e1" x="92.422169" y="121.9" style="stroke: #000000; stroke-width: 0.6"/>
      </g>
     </g>
     <g id="line2d_4">
      <g>
       <use xlink:href="#m0140fec1ce" x="92.422169" y="18.8" style="stroke: #000000; stroke-width: 0.6"/>
      </g>
     </g>
     <g id="text_2">
      <!-- $\mathdefault{2}$ -->
      <g transform="translate(89.522169 133) scale(0.1 -0.1)">
       <defs>
        <path id="NotoSans-Regular-32" d="M 3328 0 
L 307 0 
L 307 467 
L 1504 1677 
Q 1850 2022 2086 2291 
Q 2323 2560 2444 2819 
Q 2566 3078 2566 3386 
Q 2566 3763 2342 3958 
Q 2118 4154 1760 4154 
Q 1427 4154 1174 4038 
Q 922 3923 659 3718 
L 358 4096 
Q 538 4250 752 4371 
Q 966 4493 1219 4563 
Q 1472 4634 1760 4634 
Q 2189 4634 2496 4486 
Q 2803 4339 2972 4067 
Q 3142 3795 3142 3418 
Q 3142 3059 2995 2745 
Q 2848 2432 2585 2128 
Q 2323 1824 1971 1478 
L 1018 538 
L 1018 512 
L 3328 512 
L 3328 0 
z
" transform="scale(0.015625)"/>
       </defs>
       <use xlink:href="#NotoSans-Regular-32" transform="translate(0 0.59375)"/>
      </g>
     </g>
    </g>
    <g id="xtick_3">
     <g id="line2d_5">
      <g>
       <use xlink:href="#md1537a11e1" x="134.933124" y="121.9" style="stroke: #000000; stroke-width: 0.6"/>
      </g>
     </g>
     <g id="line2d_6">
      <g>
       <use xlink:href="#m0140fec1ce" x="134.933124" y="18.8" style="stroke: #000000; stroke-width: 0.6"/>
      </g>
     </g>
     <g id="text_3">
      <!-- $\mathdefault{4}$ -->
      <g transform="translate(132.033124 133) scale(0.1 -0.1)">
       <defs>
        <path id="NotoSans-Regular-34" d="M 3533 1037 
L 2867 1037 
L 2867 0 
L 2323 0 
L 2323 1037 
L 134 1037 
L 134 1517 
L 2285 4595 
L 2867 4595 
L 2867 1542 
L 3533 1542 
L 3533 1037 
z
M 2323 2982 
Q 2323 3149 2326 3286 
Q 2330 3424 2336 3545 
Q 2342 3667 2345 3779 
Q 2349 3891 2355 3994 
L 2330 3994 
Q 2278 3872 2201 3731 
Q 2125 3590 2054 3494 
L 685 1542 
L 2323 1542 
L 2323 2982 
z
" transform="scale(0.015625)"/>
       </defs>
       <use xlink:href="#NotoSans-Regular-34" transform="translate(0 0.203125)"/>
      </g>
     </g>
    </g>
    <g id="text_4">
     <!-- $f$ (THz) -->
     <g transform="translate(88.273352 147.1) scale(0.1 -0.1)">
      <defs>
       <path id="NotoSans-Italic-66" d="M -307 -1536 
Q -429 -1536 -531 -1517 
Q -634 -1498 -717 -1472 
L -717 -998 
Q -627 -1024 -544 -1046 
Q -461 -1069 -358 -1069 
Q -128 -1069 0 -880 
Q 128 -691 205 -339 
L 909 3002 
L 314 3002 
L 358 3238 
L 998 3450 
L 1069 3757 
Q 1146 4083 1248 4304 
Q 1350 4525 1488 4656 
Q 1626 4787 1811 4841 
Q 1997 4896 2234 4896 
Q 2394 4896 2563 4861 
Q 2733 4826 2835 4774 
L 2688 4346 
Q 2598 4378 2492 4406 
Q 2387 4435 2259 4435 
Q 2010 4435 1866 4294 
Q 1722 4154 1632 3757 
L 1555 3430 
L 2291 3430 
L 2208 3002 
L 1472 3002 
L 755 -403 
Q 678 -755 547 -1011 
Q 416 -1267 208 -1401 
Q 0 -1536 -307 -1536 
z
" transform="scale(0.015625)"/>
       <path id="NotoSans-Regular-20" transform="scale(0.015625)"/>
       <path id="NotoSans-Regular-28" d="M 256 1754 
Q 256 2278 355 2777 
Q 454 3277 665 3731 
Q 877 4186 1197 4570 
L 1728 4570 
Q 1280 3968 1053 3245 
Q 826 2522 826 1760 
Q 826 1267 928 780 
Q 1030 294 1228 -157 
Q 1427 -608 1722 -1011 
L 1197 -1011 
Q 877 -634 665 -189 
Q 454 256 355 749 
Q 256 1242 256 1754 
z
" transform="scale(0.015625)"/>
       <path id="NotoSans-Regular-54" d="M 2067 0 
L 1491 0 
L 1491 4064 
L 64 4064 
L 64 4570 
L 3488 4570 
L 3488 4064 
L 2067 4064 
L 2067 0 
z
" transform="scale(0.015625)"/>
       <path id="NotoSans-Regular-48" d="M 4115 0 
L 3539 0 
L 3539 2131 
L 1197 2131 
L 1197 0 
L 621 0 
L 621 4570 
L 1197 4570 
L 1197 2637 
L 3539 2637 
L 3539 4570 
L 4115 4570 
L 4115 0 
z
" transform="scale(0.015625)"/>
       <path id="NotoSans-Regular-7a" d="M 2758 0 
L 250 0 
L 250 371 
L 2093 2995 
L 358 2995 
L 358 3430 
L 2714 3430 
L 2714 3008 
L 896 435 
L 2758 435 
L 2758 0 
z
" transform="scale(0.015625)"/>
       <path id="NotoSans-Regular-29" d="M 1664 1754 
Q 1664 1242 1565 749 
Q 1466 256 1258 -189 
Q 1050 -634 723 -1011 
L 198 -1011 
Q 493 -608 691 -157 
Q 890 294 992 780 
Q 1094 1267 1094 1760 
Q 1094 2266 992 2758 
Q 890 3251 691 3712 
Q 493 4173 192 4570 
L 723 4570 
Q 1050 4186 1258 3731 
Q 1466 3277 1565 2777 
Q 1664 2278 1664 1754 
z
" transform="scale(0.015625)"/>
      </defs>
      <use xlink:href="#NotoSans-Italic-66" transform="translate(0 0.5)"/>
      <use xlink:href="#NotoSans-Regular-20" transform="translate(31.799988 0.5)"/>
      <use xlink:href="#NotoSans-Regular-28" transform="translate(57.799973 0.5)"/>
      <use xlink:href="#NotoSans-Regular-54" transform="translate(87.799957 0.5)"/>
      <use xlink:href="#NotoSans-Regular-48" transform="translate(143.399948 0.5)"/>
      <use xlink:href="#NotoSans-Regular-7a" transform="translate(217.499939 0.5)"/>
      <use xlink:href="#NotoSans-Regular-29" transform="translate(264.499924 0.5)"/>
     </g>
    </g>
   </g>
   <g id="matplotlib.axis_2">
    <g id="ytick_1">
     <g id="line2d_7">
      <defs>
       <path id="mf7ca961596" d="M 0 0 
L 4 0 
" style="stroke: #000000; stroke-width: 0.6"/>
      </defs>
      <g>
       <use xlink:href="#mf7ca961596" x="44.6" y="117.382244" style="stroke: #000000; stroke-width: 0.6"/>
      </g>
     </g>
     <g id="line2d_8">
      <defs>
       <path id="m8010723535" d="M 0 0 
L -4 0 
" style="stroke: #000000; stroke-width: 0.6"/>
      </defs>
      <g>
       <use xlink:href="#m8010723535" x="161.446703" y="117.382244" style="stroke: #000000; stroke-width: 0.6"/>
      </g>
     </g>
     <g id="text_5">
      <!-- $\mathdefault{0.0}$ -->
      <g transform="translate(26.9 121.182244) scale(0.1 -0.1)">
       <defs>
        <path id="NotoSans-Regular-2e" d="M 461 346 
Q 461 582 576 678 
Q 691 774 851 774 
Q 1018 774 1136 678 
Q 1254 582 1254 346 
Q 1254 115 1136 12 
Q 1018 -90 851 -90 
Q 691 -90 576 12 
Q 461 115 461 346 
z
" transform="scale(0.015625)"/>
       </defs>
       <use xlink:href="#NotoSans-Regular-30" transform="translate(0 0.5)"/>
       <use xlink:href="#NotoSans-Regular-2e" transform="translate(57.199997 0.5)"/>
       <use xlink:href="#NotoSans-Regular-30" transform="translate(83.999985 0.5)"/>
      </g>
     </g>
    </g>
    <g id="ytick_2">
     <g id="line2d_9">
      <g>
       <use xlink:href="#mf7ca961596" x="44.6" y="96.095035" style="stroke: #000000; stroke-width: 0.6"/>
      </g>
     </g>
     <g id="line2d_10">
      <g>
       <use xlink:href="#m8010723535" x="161.446703" y="96.095035" style="stroke: #000000; stroke-width: 0.6"/>
      </g>
     </g>
     <g id="text_6">
      <!-- $\mathdefault{2.5}$ -->
      <g transform="translate(26.9 99.895035) scale(0.1 -0.1)">
       <defs>
        <path id="NotoSans-Regular-35" d="M 1760 2803 
Q 2227 2803 2572 2643 
Q 2918 2483 3107 2185 
Q 3296 1888 3296 1459 
Q 3296 986 3091 643 
Q 2886 301 2505 118 
Q 2125 -64 1587 -64 
Q 1235 -64 924 0 
Q 614 64 403 186 
L 403 717 
Q 634 576 963 496 
Q 1293 416 1594 416 
Q 1933 416 2185 521 
Q 2438 627 2579 848 
Q 2720 1069 2720 1402 
Q 2720 1850 2445 2090 
Q 2170 2330 1574 2330 
Q 1395 2330 1164 2298 
Q 934 2266 794 2234 
L 512 2413 
L 685 4570 
L 2976 4570 
L 2976 4058 
L 1165 4058 
L 1056 2733 
Q 1165 2752 1350 2777 
Q 1536 2803 1760 2803 
z
" transform="scale(0.015625)"/>
       </defs>
       <use xlink:href="#NotoSans-Regular-32" transform="translate(0 0.59375)"/>
       <use xlink:href="#NotoSans-Regular-2e" transform="translate(57.199997 0.59375)"/>
       <use xlink:href="#NotoSans-Regular-35" transform="translate(83.999985 0.59375)"/>
      </g>
     </g>
    </g>
    <g id="ytick_3">
     <g id="line2d_11">
      <g>
       <use xlink:href="#mf7ca961596" x="44.6" y="74.807826" style="stroke: #000000; stroke-width: 0.6"/>
      </g>
     </g>
     <g id="line2d_12">
      <g>
       <use xlink:href="#m8010723535" x="161.446703" y="74.807826" style="stroke: #000000; stroke-width: 0.6"/>
      </g>
     </g>
     <g id="text_7">
      <!-- $\mathdefault{5.0}$ -->
      <g transform="translate(26.9 78.607826) scale(0.1 -0.1)">
       <use xlink:href="#NotoSans-Regular-35" transform="translate(0 0.5)"/>
       <use xlink:href="#NotoSans-Regular-2e" transform="translate(57.199997 0.5)"/>
       <use xlink:href="#NotoSans-Regular-30" transform="translate(83.999985 0.5)"/>
      </g>
     </g>
    </g>
    <g id="ytick_4">
     <g id="line2d_13">
      <g>
       <use xlink:href="#mf7ca961596" x="44.6" y="53.520617" style="stroke: #000000; stroke-width: 0.6"/>
      </g>
     </g>
     <g id="line2d_14">
      <g>
       <use xlink:href="#m8010723535" x="161.446703" y="53.520617" style="stroke: #000000; stroke-width: 0.6"/>
      </g>
     </g>
     <g id="text_8">
      <!-- $\mathdefault{7.5}$ -->
      <g transform="translate(26.9 57.320617) scale(0.1 -0.1)">
       <defs>
        <path id="NotoSans-Regular-37" d="M 870 0 
L 2746 4058 
L 282 4058 
L 282 4570 
L 3347 4570 
L 3347 4134 
L 1491 0 
L 870 0 
z
" transform="scale(0.015625)"/>
       </defs>
       <use xlink:href="#NotoSans-Regular-37" transform="translate(0 0.59375)"/>
       <use xlink:href="#NotoSans-Regular-2e" transform="translate(57.199997 0.59375)"/>
       <use xlink:href="#NotoSans-Regular-35" transform="translate(83.999985 0.59375)"/>
      </g>
     </g>
    </g>
    <g id="ytick_5">
     <g id="line2d_15">
      <g>
       <use xlink:href="#mf7ca961596" x="44.6" y="32.233407" style="stroke: #000000; stroke-width: 0.6"/>
      </g>
     </g>
     <g id="line2d_16">
      <g>
       <use xlink:href="#m8010723535" x="161.446703" y="32.233407" style="stroke: #000000; stroke-width: 0.6"/>
      </g>
     </g>
     <g id="text_9">
      <!-- $\mathdefault{10.0}$ -->
      <g transform="translate(21.2 36.033407) scale(0.1 -0.1)">
       <defs>
        <path id="NotoSans-Regular-31" d="M 2272 0 
L 1722 0 
L 1722 3194 
Q 1722 3379 1725 3507 
Q 1728 3635 1734 3747 
Q 1741 3859 1747 3981 
Q 1645 3878 1561 3808 
Q 1478 3738 1350 3629 
L 864 3232 
L 570 3610 
L 1805 4570 
L 2272 4570 
L 2272 0 
z
" transform="scale(0.015625)"/>
       </defs>
       <use xlink:href="#NotoSans-Regular-31" transform="translate(0 0.5)"/>
       <use xlink:href="#NotoSans-Regular-30" transform="translate(57.199997 0.5)"/>
       <use xlink:href="#NotoSans-Regular-2e" transform="translate(114.399994 0.5)"/>
       <use xlink:href="#NotoSans-Regular-30" transform="translate(141.199982 0.5)"/>
      </g>
     </g>
    </g>
    <g id="text_10">
     <!-- $E$ (norm.) -->
     <g transform="translate(14.8 91.45) rotate(-90) scale(0.1 -0.1)">
      <defs>
       <path id="NotoSans-Italic-45" d="M 262 0 
L 1229 4570 
L 3546 4570 
L 3437 4064 
L 1690 4064 
L 1389 2637 
L 3021 2637 
L 2925 2138 
L 1286 2138 
L 934 506 
L 2688 506 
L 2579 0 
L 262 0 
z
" transform="scale(0.015625)"/>
       <path id="NotoSans-Regular-6e" d="M 2195 3494 
Q 2810 3494 3123 3196 
Q 3437 2899 3437 2234 
L 3437 0 
L 2880 0 
L 2880 2195 
Q 2880 2611 2694 2816 
Q 2509 3021 2112 3021 
Q 1542 3021 1324 2701 
Q 1107 2381 1107 1779 
L 1107 0 
L 544 0 
L 544 3430 
L 998 3430 
L 1082 2963 
L 1114 2963 
Q 1229 3142 1398 3260 
Q 1568 3379 1773 3436 
Q 1978 3494 2195 3494 
z
" transform="scale(0.015625)"/>
       <path id="NotoSans-Regular-6f" d="M 3526 1722 
Q 3526 1293 3414 963 
Q 3302 634 3094 403 
Q 2886 173 2588 54 
Q 2291 -64 1926 -64 
Q 1587 -64 1299 54 
Q 1011 173 800 403 
Q 589 634 470 963 
Q 352 1293 352 1722 
Q 352 2291 544 2684 
Q 736 3078 1094 3286 
Q 1453 3494 1946 3494 
Q 2413 3494 2768 3286 
Q 3123 3078 3324 2684 
Q 3526 2291 3526 1722 
z
M 934 1722 
Q 934 1318 1040 1020 
Q 1146 723 1370 563 
Q 1594 403 1939 403 
Q 2285 403 2509 563 
Q 2733 723 2838 1020 
Q 2944 1318 2944 1722 
Q 2944 2131 2835 2419 
Q 2726 2707 2505 2864 
Q 2285 3021 1933 3021 
Q 1408 3021 1171 2675 
Q 934 2330 934 1722 
z
" transform="scale(0.015625)"/>
       <path id="NotoSans-Regular-72" d="M 2144 3494 
Q 2240 3494 2352 3484 
Q 2464 3475 2547 3456 
L 2477 2938 
Q 2394 2957 2294 2969 
Q 2195 2982 2106 2982 
Q 1907 2982 1728 2899 
Q 1549 2816 1408 2665 
Q 1267 2515 1187 2304 
Q 1107 2093 1107 1830 
L 1107 0 
L 544 0 
L 544 3430 
L 1005 3430 
L 1069 2803 
L 1094 2803 
Q 1203 2995 1356 3152 
Q 1510 3309 1708 3401 
Q 1907 3494 2144 3494 
z
" transform="scale(0.015625)"/>
       <path id="NotoSans-Regular-6d" d="M 4307 3494 
Q 4890 3494 5178 3196 
Q 5466 2899 5466 2234 
L 5466 0 
L 4909 0 
L 4909 2208 
Q 4909 2611 4739 2816 
Q 4570 3021 4211 3021 
Q 3712 3021 3497 2733 
Q 3283 2445 3283 1894 
L 3283 0 
L 2726 0 
L 2726 2208 
Q 2726 2477 2649 2659 
Q 2573 2842 2419 2931 
Q 2266 3021 2022 3021 
Q 1677 3021 1478 2877 
Q 1280 2733 1193 2457 
Q 1107 2182 1107 1779 
L 1107 0 
L 544 0 
L 544 3430 
L 998 3430 
L 1082 2963 
L 1114 2963 
Q 1222 3142 1379 3260 
Q 1536 3379 1728 3436 
Q 1920 3494 2125 3494 
Q 2522 3494 2787 3353 
Q 3053 3213 3174 2918 
L 3206 2918 
Q 3379 3213 3676 3353 
Q 3974 3494 4307 3494 
z
" transform="scale(0.015625)"/>
      </defs>
      <use xlink:href="#NotoSans-Italic-45" transform="translate(0 0.59375)"/>
      <use xlink:href="#NotoSans-Regular-20" transform="translate(51.399994 0.59375)"/>
      <use xlink:href="#NotoSans-Regular-28" transform="translate(77.399979 0.59375)"/>
      <use xlink:href="#NotoSans-Regular-6e" transform="translate(107.399963 0.59375)"/>
      <use xlink:href="#NotoSans-Regular-6f" transform="translate(169.199951 0.59375)"/>
      <use xlink:href="#NotoSans-Regular-72" transform="translate(229.699936 0.59375)"/>
      <use xlink:href="#NotoSans-Regular-6d" transform="translate(270.999924 0.59375)"/>
      <use xlink:href="#NotoSans-Regular-2e" transform="translate(364.499908 0.59375)"/>
      <use xlink:href="#NotoSans-Regular-29" transform="translate(391.299896 0.59375)"/>
     </g>
    </g>
   </g>
   <g id="line2d_17">
    <path d="M 49.911214 111.102101 
L 50.442335 111.29385 
L 50.973457 111.838663 
L 52.035699 113.590598 
L 52.566821 114.489111 
L 53.097942 115.134028 
L 53.629063 115.32687 
L 54.160185 115.049652 
L 54.691306 114.422051 
L 55.222428 113.485891 
L 55.753549 112.230021 
L 56.815792 108.879182 
L 59.471399 99.477746 
L 61.064763 95.129486 
L 62.658127 90.852305 
L 63.72037 87.408805 
L 65.313734 81.253034 
L 67.438219 71.841272 
L 71.68719 51.887625 
L 72.749433 48.256659 
L 75.936161 38.899251 
L 79.12289 27.4355 
L 79.654011 26.265964 
L 80.185132 25.455753 
L 80.716254 24.991416 
L 81.247375 24.834403 
L 81.778496 24.931394 
L 82.309618 25.225508 
L 83.371861 26.219071 
L 84.434103 27.619126 
L 85.496346 29.56474 
L 86.027467 30.864695 
L 87.08971 34.405402 
L 88.151953 39.397677 
L 89.214196 45.64823 
L 95.056531 82.567299 
L 96.118774 87.346954 
L 96.649895 88.762448 
L 97.181016 89.3925 
L 97.712138 89.264462 
L 98.243259 88.50644 
L 99.305502 85.817397 
L 101.429987 79.621943 
L 102.49223 77.423188 
L 103.023352 76.740274 
L 103.554473 76.380973 
L 104.085594 76.354364 
L 104.616716 76.642017 
L 105.147837 77.195927 
L 107.803444 80.92731 
L 108.334565 81.271646 
L 108.865687 81.385306 
L 109.396808 81.291522 
L 110.459051 80.687047 
L 112.052415 79.580735 
L 113.114658 79.100688 
L 114.1769 78.918911 
L 114.708022 78.963677 
L 115.239143 79.122078 
L 115.770265 79.413314 
L 116.301386 79.851518 
L 117.363629 81.175077 
L 118.425872 82.989554 
L 121.081478 87.963664 
L 122.674843 90.299342 
L 124.799328 93.197343 
L 126.923814 96.652541 
L 128.517178 99.199109 
L 130.110542 101.30509 
L 131.172785 102.402547 
L 132.235027 103.263134 
L 133.828391 104.251911 
L 137.01512 106.14853 
L 139.139605 107.423174 
L 141.795212 108.828052 
L 143.388576 110.048587 
L 146.044183 112.354818 
L 147.106426 112.968751 
L 148.168669 113.308518 
L 149.762033 113.490951 
L 156.135489 113.853216 
L 156.135489 113.853216 
" clip-path="url(#p63194f1693)" style="fill: none; stroke: #edb081; stroke-linecap: square"/>
   </g>
   <g id="line2d_18">
    <path d="M 49.911214 113.112152 
L 50.442335 113.226489 
L 50.973457 113.548076 
L 52.566821 114.952645 
L 53.097942 115.150127 
L 53.629063 115.024618 
L 54.160185 114.577199 
L 54.691306 113.841107 
L 55.222428 112.829601 
L 56.28467 110.045909 
L 57.878034 104.738952 
L 59.471399 99.567715 
L 63.72037 87.041249 
L 65.313734 80.870838 
L 67.438219 71.596774 
L 71.68719 51.845143 
L 72.749433 48.21858 
L 75.936161 38.811091 
L 78.591768 28.730195 
L 79.12289 27.212834 
L 79.654011 26.045295 
L 80.185132 25.245799 
L 80.716254 24.799615 
L 81.247375 24.666904 
L 81.778496 24.793337 
L 82.309618 25.121325 
L 83.371861 26.193168 
L 84.434103 27.675844 
L 85.496346 29.68492 
L 86.558589 32.597042 
L 87.620832 36.808936 
L 88.683074 42.408069 
L 90.276438 52.512201 
L 93.994288 76.486947 
L 95.056531 82.588544 
L 95.587652 85.132038 
L 96.118774 87.128052 
L 96.649895 88.43851 
L 97.181016 88.993045 
L 97.712138 88.818225 
L 98.243259 88.029017 
L 98.774381 86.788149 
L 100.367745 81.898915 
L 101.429987 78.781599 
L 102.49223 76.494329 
L 103.023352 75.800552 
L 103.554473 75.451312 
L 104.085594 75.451261 
L 104.616716 75.77616 
L 105.147837 76.371824 
L 107.803444 80.199586 
L 108.334565 80.516513 
L 108.865687 80.585348 
L 109.396808 80.432695 
L 110.459051 79.692522 
L 112.052415 78.444629 
L 113.114658 77.96247 
L 114.1769 77.839597 
L 115.239143 78.11524 
L 115.770265 78.431796 
L 116.832507 79.468716 
L 117.89475 81.013168 
L 120.019236 84.874918 
L 121.6126 87.530924 
L 125.330449 93.037723 
L 128.517178 98.395208 
L 129.57942 99.806009 
L 130.641663 100.967859 
L 132.235027 102.305401 
L 133.828391 103.303654 
L 138.077362 105.766996 
L 142.857455 108.720441 
L 146.575305 111.996938 
L 147.637547 112.454518 
L 149.230911 112.748453 
L 152.41764 112.959229 
L 155.073247 113.160797 
L 156.135489 113.310682 
L 156.135489 113.310682 
" clip-path="url(#p63194f1693)" style="fill: none; stroke: #eca77b; stroke-linecap: square"/>
   </g>
   <g id="line2d_19">
    <path d="M 49.911214 115.521703 
L 50.442335 115.590435 
L 51.504578 116.046306 
L 52.035699 116.304886 
L 52.566821 116.436061 
L 53.097942 116.331505 
L 53.629063 115.988428 
L 54.160185 115.430827 
L 54.691306 114.642945 
L 55.222428 113.605003 
L 56.28467 110.823554 
L 57.878034 105.590513 
L 60.00252 98.779548 
L 63.189248 89.302592 
L 64.782612 83.435283 
L 66.375976 76.743313 
L 68.500462 66.789401 
L 71.156069 54.102182 
L 72.218312 50.067439 
L 73.280554 46.845442 
L 74.873919 42.445673 
L 75.936161 38.879226 
L 78.591768 28.588456 
L 79.12289 27.032601 
L 79.654011 25.828109 
L 80.185132 24.99423 
L 80.716254 24.517588 
L 81.247375 24.359413 
L 81.778496 24.465634 
L 82.309618 24.777953 
L 83.371861 25.827154 
L 84.434103 27.298382 
L 85.496346 29.330055 
L 86.558589 32.335194 
L 87.620832 36.71926 
L 88.683074 42.522482 
L 90.80756 56.322223 
L 93.994288 76.454648 
L 95.056531 82.567972 
L 96.118774 87.184251 
L 96.649895 88.525325 
L 97.181016 89.085758 
L 97.712138 88.883785 
L 98.243259 88.034079 
L 98.774381 86.705004 
L 100.367745 81.467174 
L 101.429987 78.128636 
L 102.49223 75.692699 
L 103.023352 74.960876 
L 103.554473 74.597311 
L 104.085594 74.602473 
L 104.616716 74.94508 
L 105.147837 75.561795 
L 107.272323 78.776212 
L 107.803444 79.263344 
L 108.334565 79.497353 
L 108.865687 79.477754 
L 109.396808 79.239297 
L 110.459051 78.353319 
L 112.052415 76.93793 
L 113.114658 76.345542 
L 114.1769 76.116062 
L 114.708022 76.156783 
L 115.239143 76.321055 
L 115.770265 76.624572 
L 116.301386 77.07718 
L 117.363629 78.417681 
L 118.425872 80.209437 
L 121.081478 84.950713 
L 122.674843 87.204977 
L 124.268207 89.488449 
L 125.861571 92.282691 
L 127.986056 96.119939 
L 129.048299 97.682537 
L 130.110542 98.954886 
L 131.172785 99.981296 
L 132.766149 101.172222 
L 137.546241 104.25501 
L 139.670727 105.688638 
L 141.795212 106.983162 
L 142.857455 107.869266 
L 144.98194 110.132785 
L 146.044183 111.16375 
L 147.106426 111.899283 
L 148.168669 112.334848 
L 149.762033 112.665444 
L 156.135489 113.651916 
L 156.135489 113.651916 
" clip-path="url(#p63194f1693)" style="fill: none; stroke: #eb9c75; stroke-linecap: square"/>
   </g>
   <g id="line2d_20">
    <path d="M 49.911214 115.88172 
L 50.973457 116.034168 
L 52.035699 116.284625 
L 52.566821 116.265635 
L 53.097942 116.047599 
L 53.629063 115.610391 
L 54.160185 114.951928 
L 54.691306 114.065097 
L 55.753549 111.616036 
L 56.815792 108.450961 
L 60.00252 98.435579 
L 62.658127 90.914751 
L 64.251491 85.302925 
L 65.844855 78.746191 
L 67.969341 68.996603 
L 71.156069 53.748097 
L 72.218312 49.760828 
L 73.280554 46.578769 
L 74.873919 42.175522 
L 75.936161 38.570405 
L 78.591768 28.318797 
L 79.12289 26.807077 
L 79.654011 25.651063 
L 80.185132 24.864705 
L 80.716254 24.430338 
L 81.247375 24.306891 
L 81.778496 24.440515 
L 82.309618 24.775631 
L 83.371861 25.875474 
L 84.434103 27.433676 
L 85.496346 29.596702 
L 86.558589 32.748235 
L 87.620832 37.251106 
L 88.683074 43.121308 
L 90.80756 56.968186 
L 93.994288 77.317228 
L 95.056531 83.460286 
L 95.587652 86.018659 
L 96.118774 88.002662 
L 96.649895 89.255881 
L 97.181016 89.697005 
L 97.712138 89.354486 
L 98.243259 88.356075 
L 99.305502 85.110868 
L 101.429987 77.790221 
L 101.961109 76.38635 
L 102.49223 75.29885 
L 103.023352 74.575221 
L 103.554473 74.239496 
L 104.085594 74.285559 
L 104.616716 74.67303 
L 105.678958 76.146856 
L 106.741201 77.801077 
L 107.272323 78.410877 
L 107.803444 78.768067 
L 108.334565 78.841942 
L 108.865687 78.646159 
L 109.396808 78.231819 
L 112.052415 75.432221 
L 113.114658 74.820731 
L 114.1769 74.58725 
L 114.708022 74.614705 
L 115.239143 74.753794 
L 115.770265 75.019587 
L 116.832507 75.965366 
L 117.89475 77.421196 
L 122.143721 84.202915 
L 123.737085 86.422899 
L 124.799328 88.187851 
L 129.048299 95.871474 
L 130.110542 97.227185 
L 131.172785 98.334399 
L 132.766149 99.618243 
L 135.421756 101.252384 
L 137.01512 102.355683 
L 139.670727 104.29331 
L 141.795212 105.74579 
L 142.857455 106.73659 
L 144.98194 109.229686 
L 146.044183 110.352172 
L 147.106426 111.128765 
L 148.168669 111.548933 
L 149.762033 111.8341 
L 154.542125 112.602271 
L 156.135489 112.936424 
L 156.135489 112.936424 
" clip-path="url(#p63194f1693)" style="fill: none; stroke: #e67560; stroke-linecap: square"/>
   </g>
   <g id="line2d_21">
    <path d="M 49.911214 115.033116 
L 51.504578 114.839675 
L 52.566821 114.855197 
L 53.097942 115.060581 
L 53.629063 115.446168 
L 54.691306 116.44919 
L 55.222428 115.979008 
L 55.753549 114.76581 
L 56.815792 111.567971 
L 60.00252 101.225763 
L 62.658127 93.32506 
L 64.251491 87.439134 
L 65.844855 80.612926 
L 67.969341 70.548171 
L 71.156069 54.885835 
L 72.218312 50.79155 
L 73.280554 47.535934 
L 74.873919 43.06715 
L 75.936161 39.411968 
L 78.591768 28.956381 
L 79.12289 27.411618 
L 79.654011 26.233418 
L 80.185132 25.438098 
L 80.716254 25.009432 
L 81.247375 24.906983 
L 81.778496 25.076959 
L 82.309618 25.463462 
L 83.371861 26.708488 
L 84.434103 28.460483 
L 85.496346 30.85071 
L 86.558589 34.2452 
L 87.620832 38.99482 
L 88.683074 45.110112 
L 95.056531 85.698994 
L 95.587652 88.075961 
L 96.118774 89.815805 
L 96.649895 90.756552 
L 97.181016 90.828154 
L 97.712138 90.087067 
L 98.243259 88.693168 
L 99.305502 84.748695 
L 100.898866 78.347998 
L 101.961109 74.99788 
L 102.49223 73.817568 
L 103.023352 73.030128 
L 103.554473 72.653633 
L 104.085594 72.674435 
L 104.616716 73.042871 
L 105.678958 74.452208 
L 106.741201 75.928412 
L 107.272323 76.385671 
L 107.803444 76.547278 
L 108.334565 76.390544 
L 108.865687 75.942711 
L 109.927929 74.46772 
L 111.521294 72.140294 
L 112.583536 71.166985 
L 113.645779 70.704535 
L 114.708022 70.652325 
L 115.239143 70.779767 
L 115.770265 71.024301 
L 116.832507 71.901272 
L 117.89475 73.270549 
L 122.143721 79.746209 
L 123.737085 81.937649 
L 124.799328 83.773498 
L 126.392692 87.089837 
L 127.986056 90.358982 
L 129.048299 92.168796 
L 130.110542 93.651518 
L 131.172785 94.857748 
L 132.766149 96.259876 
L 137.01512 99.394282 
L 140.732969 102.770224 
L 141.795212 103.762848 
L 142.857455 105.010085 
L 146.044183 109.416875 
L 147.106426 110.262725 
L 148.168669 110.66562 
L 151.886518 111.517525 
L 154.011004 112.372762 
L 156.135489 113.41548 
L 156.135489 113.41548 
" clip-path="url(#p63194f1693)" style="fill: none; stroke: #d14a61; stroke-linecap: square"/>
   </g>
   <g id="line2d_22">
    <path d="M 49.911214 112.11738 
L 52.566821 112.038917 
L 53.097942 112.304691 
L 53.629063 112.78542 
L 54.160185 113.510947 
L 55.753549 116.640136 
L 56.28467 115.578405 
L 57.878034 110.026905 
L 60.00252 102.826099 
L 62.658127 94.429548 
L 64.251491 88.257564 
L 66.375976 78.7148 
L 68.500462 68.198617 
L 70.624948 57.46334 
L 71.68719 52.917333 
L 72.749433 49.307447 
L 75.40504 41.718901 
L 76.467283 37.734265 
L 78.060647 31.299691 
L 79.12289 27.947285 
L 79.654011 26.797519 
L 80.185132 26.03204 
L 80.716254 25.634857 
L 81.247375 25.566703 
L 81.778496 25.776022 
L 82.309618 26.21007 
L 83.371861 27.58897 
L 84.434103 29.543006 
L 85.496346 32.200107 
L 86.558589 35.895594 
L 87.620832 40.938897 
L 88.683074 47.309053 
L 94.52541 85.746749 
L 95.587652 90.854384 
L 96.118774 92.476252 
L 96.649895 93.240274 
L 97.181016 93.087578 
L 97.712138 92.102478 
L 98.243259 90.474281 
L 99.305502 86.149416 
L 100.898866 79.410125 
L 101.961109 75.972061 
L 102.49223 74.786257 
L 103.023352 74.014782 
L 103.554473 73.669148 
L 104.085594 73.725855 
L 104.616716 74.122149 
L 105.678958 75.499883 
L 106.741201 76.732483 
L 107.272323 76.973915 
L 107.803444 76.868654 
L 108.334565 76.414499 
L 108.865687 75.663464 
L 111.521294 70.85895 
L 112.052415 70.235471 
L 112.583536 69.78414 
L 113.645779 69.31096 
L 114.708022 69.277808 
L 115.239143 69.415629 
L 115.770265 69.668939 
L 116.832507 70.554776 
L 117.89475 71.912192 
L 121.6126 77.4434 
L 123.205964 79.508041 
L 124.268207 81.2382 
L 125.330449 83.398256 
L 127.986056 89.313595 
L 129.048299 91.210424 
L 130.110542 92.742851 
L 131.172785 93.976432 
L 132.766149 95.412781 
L 136.483998 98.389897 
L 142.857455 105.21009 
L 146.044183 109.871549 
L 147.106426 110.701708 
L 148.168669 111.062191 
L 150.293154 111.514787 
L 151.886518 112.135101 
L 154.011004 113.280596 
L 156.135489 114.600107 
L 156.135489 114.600107 
" clip-path="url(#p63194f1693)" style="fill: none; stroke: #a1386f; stroke-linecap: square"/>
   </g>
   <g id="line2d_23">
    <path d="M 49.911214 109.721112 
L 52.035699 109.612553 
L 52.566821 109.75332 
L 53.097942 110.078512 
L 53.629063 110.636898 
L 54.160185 111.460496 
L 54.691306 112.559742 
L 56.28467 116.51834 
L 56.815792 115.113674 
L 60.533641 101.530742 
L 62.658127 94.204401 
L 64.251491 87.578202 
L 66.375976 77.424111 
L 69.031583 63.458803 
L 70.624948 55.147175 
L 71.68719 50.455465 
L 72.749433 46.759593 
L 75.936161 37.240374 
L 78.591768 27.042858 
L 79.12289 25.580328 
L 79.654011 24.49479 
L 80.185132 23.802033 
L 80.716254 23.486364 
L 81.247375 23.509606 
L 81.778496 23.822152 
L 82.309618 24.373808 
L 83.371861 26.040993 
L 84.434103 28.361224 
L 85.496346 31.449097 
L 86.558589 35.60356 
L 87.620832 41.089967 
L 88.683074 47.855574 
L 93.994288 84.713079 
L 95.056531 90.785533 
L 95.587652 93.124246 
L 96.118774 94.705925 
L 96.649895 95.348832 
L 97.181016 95.004904 
L 97.712138 93.793629 
L 98.774381 89.696265 
L 100.898866 80.263597 
L 101.961109 76.817224 
L 102.49223 75.666202 
L 103.023352 74.945801 
L 103.554473 74.656891 
L 104.085594 74.762989 
L 104.616716 75.186904 
L 106.21008 77.09165 
L 106.741201 77.453089 
L 107.272323 77.485437 
L 107.803444 77.148636 
L 108.334565 76.465436 
L 109.396808 74.396138 
L 110.459051 72.143252 
L 111.521294 70.43859 
L 112.052415 69.887741 
L 112.583536 69.526446 
L 113.114658 69.322742 
L 114.1769 69.25871 
L 115.239143 69.556569 
L 116.301386 70.262867 
L 117.363629 71.428584 
L 118.956993 73.794204 
L 120.550357 76.208925 
L 123.737085 80.64838 
L 124.799328 82.772383 
L 126.923814 87.970383 
L 128.517178 91.505838 
L 129.57942 93.372904 
L 130.641663 94.890832 
L 131.703906 96.125685 
L 133.29727 97.591904 
L 135.952877 99.852752 
L 137.546241 101.67909 
L 139.670727 104.216628 
L 142.326334 107.033185 
L 143.388576 108.485237 
L 146.044183 112.516271 
L 147.106426 113.572501 
L 148.168669 114.095348 
L 152.948761 115.390826 
L 156.135489 116.627175 
L 156.135489 116.627175 
" clip-path="url(#p63194f1693)" style="fill: none; stroke: #722c6e; stroke-linecap: square"/>
   </g>
   <g id="line2d_24">
    <path d="M 49.911214 107.929166 
L 52.035699 107.784657 
L 52.566821 107.921316 
L 53.097942 108.253672 
L 53.629063 108.834368 
L 54.160185 109.698466 
L 54.691306 110.859616 
L 55.753549 114.014304 
L 56.28467 115.923778 
L 56.815792 116.735799 
L 59.471399 106.36031 
L 63.189248 93.32742 
L 64.782612 86.210667 
L 66.907098 75.520871 
L 71.68719 50.642895 
L 72.749433 46.87031 
L 75.936161 37.375669 
L 78.591768 27.266021 
L 79.12289 25.801923 
L 79.654011 24.709199 
L 80.185132 24.006057 
L 80.716254 23.680077 
L 81.247375 23.697051 
L 81.778496 24.011807 
L 82.309618 24.57868 
L 83.371861 26.330473 
L 84.434103 28.817178 
L 85.496346 32.133159 
L 86.558589 36.528401 
L 87.620832 42.221177 
L 88.683074 49.140186 
L 93.463167 82.831596 
L 94.52541 89.312996 
L 95.587652 94.286453 
L 96.118774 95.692774 
L 96.649895 96.129559 
L 97.181016 95.571946 
L 97.712138 94.165191 
L 98.774381 89.773288 
L 100.898866 80.034967 
L 101.961109 76.518278 
L 102.49223 75.34624 
L 103.023352 74.612143 
L 103.554473 74.314908 
L 104.085594 74.415455 
L 104.616716 74.833004 
L 106.21008 76.663128 
L 106.741201 76.965189 
L 107.272323 76.918756 
L 107.803444 76.488458 
L 108.334565 75.705051 
L 109.396808 73.451982 
L 110.459051 71.08733 
L 111.521294 69.373948 
L 112.052415 68.856497 
L 112.583536 68.547884 
L 113.114658 68.408669 
L 114.1769 68.473959 
L 115.239143 68.853834 
L 116.301386 69.573214 
L 117.363629 70.695916 
L 118.956993 72.946747 
L 121.081478 75.968013 
L 122.674843 78.062305 
L 123.737085 79.800717 
L 124.799328 82.054273 
L 126.923814 87.572962 
L 128.517178 91.294858 
L 129.57942 93.236438 
L 130.641663 94.809886 
L 132.235027 96.675876 
L 137.01512 101.583923 
L 139.670727 105.004816 
L 142.857455 108.440433 
L 144.450819 110.792548 
L 146.044183 113.192067 
L 147.106426 114.308162 
L 147.637547 114.638849 
L 148.69979 114.943413 
L 150.824276 115.286208 
L 152.41764 115.787739 
L 156.135489 117.213636 
L 156.135489 117.213636 
" clip-path="url(#p63194f1693)" style="fill: none; stroke: #4b2362; stroke-linecap: square"/>
   </g>
   <g id="line2d_25"/>
   <g id="line2d_26"/>
   <g id="line2d_27"/>
   <g id="line2d_28"/>
   <g id="line2d_29"/>
   <g id="patch_3">
    <path d="M 44.6 121.9 
L 44.6 18.8 
" style="fill: none; stroke: #000000; stroke-width: 0.6; stroke-linejoin: miter; stroke-linecap: square"/>
   </g>
   <g id="patch_4">
    <path d="M 161.446703 121.9 
L 161.446703 18.8 
" style="fill: none; stroke: #000000; stroke-width: 0.6; stroke-linejoin: miter; stroke-linecap: square"/>
   </g>
   <g id="patch_5">
    <path d="M 44.6 121.9 
L 161.446703 121.9 
" style="fill: none; stroke: #000000; stroke-width: 0.6; stroke-linejoin: miter; stroke-linecap: square"/>
   </g>
   <g id="patch_6">
    <path d="M 44.6 18.8 
L 161.446703 18.8 
" style="fill: none; stroke: #000000; stroke-width: 0.6; stroke-linejoin: miter; stroke-linecap: square"/>
   </g>
   <g id="text_11">
    <!-- $T$ = 3 K -->
    <g transform="translate(87.773352 14.8) scale(0.1 -0.1)">
     <defs>
      <path id="NotoSans-Italic-54" d="M 973 0 
L 1830 4064 
L 576 4064 
L 685 4570 
L 3770 4570 
L 3667 4064 
L 2413 4064 
L 1549 0 
L 973 0 
z
" transform="scale(0.015625)"/>
      <path id="NotoSans-Regular-3d" d="M 358 2662 
L 358 3117 
L 3290 3117 
L 3290 2662 
L 358 2662 
z
M 358 1389 
L 358 1843 
L 3290 1843 
L 3290 1389 
L 358 1389 
z
" transform="scale(0.015625)"/>
      <path id="NotoSans-Regular-33" d="M 3155 3501 
Q 3155 3194 3040 2970 
Q 2925 2746 2710 2605 
Q 2496 2464 2208 2406 
L 2208 2381 
Q 2758 2317 3027 2035 
Q 3296 1754 3296 1299 
Q 3296 902 3110 592 
Q 2925 282 2537 109 
Q 2150 -64 1542 -64 
Q 1184 -64 877 -9 
Q 570 45 288 186 
L 288 710 
Q 576 570 909 490 
Q 1242 410 1549 410 
Q 2163 410 2435 650 
Q 2707 890 2707 1312 
Q 2707 1600 2556 1776 
Q 2406 1952 2118 2035 
Q 1830 2118 1427 2118 
L 986 2118 
L 986 2598 
L 1434 2598 
Q 1811 2598 2064 2707 
Q 2317 2816 2448 3011 
Q 2579 3206 2579 3462 
Q 2579 3795 2355 3977 
Q 2131 4160 1747 4160 
Q 1504 4160 1305 4112 
Q 1107 4064 937 3977 
Q 768 3891 595 3776 
L 314 4160 
Q 557 4352 918 4493 
Q 1280 4634 1741 4634 
Q 2458 4634 2806 4314 
Q 3155 3994 3155 3501 
z
" transform="scale(0.015625)"/>
      <path id="NotoSans-Regular-4b" d="M 3962 0 
L 3283 0 
L 1664 2182 
L 1197 1773 
L 1197 0 
L 621 0 
L 621 4570 
L 1197 4570 
L 1197 2317 
Q 1389 2534 1587 2752 
Q 1786 2970 1984 3187 
L 3219 4570 
L 3891 4570 
L 2080 2579 
L 3962 0 
z
" transform="scale(0.015625)"/>
     </defs>
     <use xlink:href="#NotoSans-Italic-54" transform="translate(0 0.59375)"/>
     <use xlink:href="#NotoSans-Regular-20" transform="translate(50.099991 0.59375)"/>
     <use xlink:href="#NotoSans-Regular-3d" transform="translate(76.099976 0.59375)"/>
     <use xlink:href="#NotoSans-Regular-20" transform="translate(133.299973 0.59375)"/>
     <use xlink:href="#NotoSans-Regular-33" transform="translate(159.299957 0.59375)"/>
     <use xlink:href="#NotoSans-Regular-20" transform="translate(216.499954 0.59375)"/>
     <use xlink:href="#NotoSans-Regular-4b" transform="translate(242.499939 0.59375)"/>
    </g>
   </g>
  </g>
  <g id="axes_2">
   <g id="patch_7">
    <path d="M 170.718825 121.9 
L 287.565528 121.9 
L 287.565528 18.8 
L 170.718825 18.8 
z
" style="fill: #ffffff"/>
   </g>
   <g id="PolyCollection_9"/>
   <g id="PolyCollection_10"/>
   <g id="PolyCollection_11"/>
   <g id="PolyCollection_12"/>
   <g id="PolyCollection_13"/>
   <g id="PolyCollection_14"/>
   <g id="PolyCollection_15"/>
   <g id="PolyCollection_16"/>
   <g id="matplotlib.axis_3">
    <g id="xtick_4">
     <g id="line2d_30">
      <g>
       <use xlink:href="#md1537a11e1" x="176.030039" y="121.9" style="stroke: #000000; stroke-width: 0.6"/>
      </g>
     </g>
     <g id="line2d_31">
      <g>
       <use xlink:href="#m0140fec1ce" x="176.030039" y="18.8" style="stroke: #000000; stroke-width: 0.6"/>
      </g>
     </g>
     <g id="text_12">
      <!-- $\mathdefault{0}$ -->
      <g transform="translate(173.130039 133) scale(0.1 -0.1)">
       <use xlink:href="#NotoSans-Regular-30" transform="translate(0 0.5)"/>
      </g>
     </g>
    </g>
    <g id="xtick_5">
     <g id="line2d_32">
      <g>
       <use xlink:href="#md1537a11e1" x="218.540994" y="121.9" style="stroke: #000000; stroke-width: 0.6"/>
      </g>
     </g>
     <g id="line2d_33">
      <g>
       <use xlink:href="#m0140fec1ce" x="218.540994" y="18.8" style="stroke: #000000; stroke-width: 0.6"/>
      </g>
     </g>
     <g id="text_13">
      <!-- $\mathdefault{2}$ -->
      <g transform="translate(215.640994 133) scale(0.1 -0.1)">
       <use xlink:href="#NotoSans-Regular-32" transform="translate(0 0.59375)"/>
      </g>
     </g>
    </g>
    <g id="xtick_6">
     <g id="line2d_34">
      <g>
       <use xlink:href="#md1537a11e1" x="261.051949" y="121.9" style="stroke: #000000; stroke-width: 0.6"/>
      </g>
     </g>
     <g id="line2d_35">
      <g>
       <use xlink:href="#m0140fec1ce" x="261.051949" y="18.8" style="stroke: #000000; stroke-width: 0.6"/>
      </g>
     </g>
     <g id="text_14">
      <!-- $\mathdefault{4}$ -->
      <g transform="translate(258.151949 133) scale(0.1 -0.1)">
       <use xlink:href="#NotoSans-Regular-34" transform="translate(0 0.203125)"/>
      </g>
     </g>
    </g>
    <g id="text_15">
     <!-- $f$ (THz) -->
     <g transform="translate(214.392177 147.1) scale(0.1 -0.1)">
      <use xlink:href="#NotoSans-Italic-66" transform="translate(0 0.5)"/>
      <use xlink:href="#NotoSans-Regular-20" transform="translate(31.799988 0.5)"/>
      <use xlink:href="#NotoSans-Regular-28" transform="translate(57.799973 0.5)"/>
      <use xlink:href="#NotoSans-Regular-54" transform="translate(87.799957 0.5)"/>
      <use xlink:href="#NotoSans-Regular-48" transform="translate(143.399948 0.5)"/>
      <use xlink:href="#NotoSans-Regular-7a" transform="translate(217.499939 0.5)"/>
      <use xlink:href="#NotoSans-Regular-29" transform="translate(264.499924 0.5)"/>
     </g>
    </g>
   </g>
   <g id="matplotlib.axis_4">
    <g id="ytick_6">
     <g id="line2d_36">
      <g>
       <use xlink:href="#mf7ca961596" x="170.718825" y="117.382244" style="stroke: #000000; stroke-width: 0.6"/>
      </g>
     </g>
     <g id="line2d_37">
      <g>
       <use xlink:href="#m8010723535" x="287.565528" y="117.382244" style="stroke: #000000; stroke-width: 0.6"/>
      </g>
     </g>
    </g>
    <g id="ytick_7">
     <g id="line2d_38">
      <g>
       <use xlink:href="#mf7ca961596" x="170.718825" y="96.095035" style="stroke: #000000; stroke-width: 0.6"/>
      </g>
     </g>
     <g id="line2d_39">
      <g>
       <use xlink:href="#m8010723535" x="287.565528" y="96.095035" style="stroke: #000000; stroke-width: 0.6"/>
      </g>
     </g>
    </g>
    <g id="ytick_8">
     <g id="line2d_40">
      <g>
       <use xlink:href="#mf7ca961596" x="170.718825" y="74.807826" style="stroke: #000000; stroke-width: 0.6"/>
      </g>
     </g>
     <g id="line2d_41">
      <g>
       <use xlink:href="#m8010723535" x="287.565528" y="74.807826" style="stroke: #000000; stroke-width: 0.6"/>
      </g>
     </g>
    </g>
    <g id="ytick_9">
     <g id="line2d_42">
      <g>
       <use xlink:href="#mf7ca961596" x="170.718825" y="53.520617" style="stroke: #000000; stroke-width: 0.6"/>
      </g>
     </g>
     <g id="line2d_43">
      <g>
       <use xlink:href="#m8010723535" x="287.565528" y="53.520617" style="stroke: #000000; stroke-width: 0.6"/>
      </g>
     </g>
    </g>
    <g id="ytick_10">
     <g id="line2d_44">
      <g>
       <use xlink:href="#mf7ca961596" x="170.718825" y="32.233407" style="stroke: #000000; stroke-width: 0.6"/>
      </g>
     </g>
     <g id="line2d_45">
      <g>
       <use xlink:href="#m8010723535" x="287.565528" y="32.233407" style="stroke: #000000; stroke-width: 0.6"/>
      </g>
     </g>
    </g>
   </g>
   <g id="line2d_46">
    <path d="M 176.030039 111.102101 
L 176.561161 111.29385 
L 177.092282 111.838663 
L 178.154525 113.590598 
L 178.685646 114.489111 
L 179.216767 115.134028 
L 179.747889 115.32687 
L 180.27901 115.049652 
L 180.810132 114.422051 
L 181.341253 113.485891 
L 181.872374 112.230021 
L 182.934617 108.879182 
L 185.590224 99.477746 
L 187.183588 95.129486 
L 188.776952 90.852305 
L 189.839195 87.408805 
L 191.432559 81.253034 
L 193.557045 71.841272 
L 197.806016 51.887625 
L 198.868258 48.256659 
L 202.054987 38.899251 
L 205.241715 27.4355 
L 205.772836 26.265964 
L 206.303958 25.455753 
L 206.835079 24.991416 
L 207.3662 24.834403 
L 207.897322 24.931394 
L 208.428443 25.225508 
L 209.490686 26.219071 
L 210.552929 27.619126 
L 211.615171 29.56474 
L 212.146293 30.864695 
L 213.208536 34.405402 
L 214.270778 39.397677 
L 215.333021 45.64823 
L 221.175356 82.567299 
L 222.237599 87.346954 
L 222.76872 88.762448 
L 223.299842 89.3925 
L 223.830963 89.264462 
L 224.362085 88.50644 
L 225.424327 85.817397 
L 227.548813 79.621943 
L 228.611056 77.423188 
L 229.142177 76.740274 
L 229.673298 76.380973 
L 230.20442 76.354364 
L 230.735541 76.642017 
L 231.266662 77.195927 
L 233.922269 80.92731 
L 234.453391 81.271646 
L 234.984512 81.385306 
L 235.515633 81.291522 
L 236.577876 80.687047 
L 238.17124 79.580735 
L 239.233483 79.100688 
L 240.295726 78.918911 
L 240.826847 78.963677 
L 241.357969 79.122078 
L 241.88909 79.413314 
L 242.420211 79.851518 
L 243.482454 81.175077 
L 244.544697 82.989554 
L 247.200304 87.963664 
L 248.793668 90.299342 
L 250.918153 93.197343 
L 253.042639 96.652541 
L 254.636003 99.199109 
L 256.229367 101.30509 
L 257.29161 102.402547 
L 258.353853 103.263134 
L 259.947217 104.251911 
L 263.133945 106.14853 
L 265.258431 107.423174 
L 267.914037 108.828052 
L 269.507402 110.048587 
L 272.163009 112.354818 
L 273.225251 112.968751 
L 274.287494 113.308518 
L 275.880858 113.490951 
L 282.254315 113.853216 
L 282.254315 113.853216 
" clip-path="url(#pd0dbbf928e)" style="fill: none; stroke: #edb081; stroke-linecap: square"/>
   </g>
   <g id="line2d_47">
    <path d="M 176.030039 113.112152 
L 176.561161 113.226489 
L 177.092282 113.548076 
L 178.685646 114.952645 
L 179.216767 115.150127 
L 179.747889 115.024618 
L 180.27901 114.577199 
L 180.810132 113.841107 
L 181.341253 112.829601 
L 182.403496 110.045909 
L 183.99686 104.738952 
L 185.590224 99.567715 
L 189.839195 87.041249 
L 191.432559 80.870838 
L 193.557045 71.596774 
L 197.806016 51.845143 
L 198.868258 48.21858 
L 202.054987 38.811091 
L 204.710594 28.730195 
L 205.241715 27.212834 
L 205.772836 26.045295 
L 206.303958 25.245799 
L 206.835079 24.799615 
L 207.3662 24.666904 
L 207.897322 24.793337 
L 208.428443 25.121325 
L 209.490686 26.193168 
L 210.552929 27.675844 
L 211.615171 29.68492 
L 212.677414 32.597042 
L 213.739657 36.808936 
L 214.8019 42.408069 
L 216.395264 52.512201 
L 220.113114 76.486947 
L 221.175356 82.588544 
L 221.706478 85.132038 
L 222.237599 87.128052 
L 222.76872 88.43851 
L 223.299842 88.993045 
L 223.830963 88.818225 
L 224.362085 88.029017 
L 224.893206 86.788149 
L 226.48657 81.898915 
L 227.548813 78.781599 
L 228.611056 76.494329 
L 229.142177 75.800552 
L 229.673298 75.451312 
L 230.20442 75.451261 
L 230.735541 75.77616 
L 231.266662 76.371824 
L 233.922269 80.199586 
L 234.453391 80.516513 
L 234.984512 80.585348 
L 235.515633 80.432695 
L 236.577876 79.692522 
L 238.17124 78.444629 
L 239.233483 77.96247 
L 240.295726 77.839597 
L 241.357969 78.11524 
L 241.88909 78.431796 
L 242.951333 79.468716 
L 244.013575 81.013168 
L 246.138061 84.874918 
L 247.731425 87.530924 
L 251.449275 93.037723 
L 254.636003 98.395208 
L 255.698246 99.806009 
L 256.760489 100.967859 
L 258.353853 102.305401 
L 259.947217 103.303654 
L 264.196188 105.766996 
L 268.97628 108.720441 
L 272.69413 111.996938 
L 273.756373 112.454518 
L 275.349737 112.748453 
L 278.536465 112.959229 
L 281.192072 113.160797 
L 282.254315 113.310682 
L 282.254315 113.310682 
" clip-path="url(#pd0dbbf928e)" style="fill: none; stroke: #eca77b; stroke-linecap: square"/>
   </g>
   <g id="line2d_48">
    <path d="M 176.030039 115.521703 
L 176.561161 115.590435 
L 177.623403 116.046306 
L 178.154525 116.304886 
L 178.685646 116.436061 
L 179.216767 116.331505 
L 179.747889 115.988428 
L 180.27901 115.430827 
L 180.810132 114.642945 
L 181.341253 113.605003 
L 182.403496 110.823554 
L 183.99686 105.590513 
L 186.121345 98.779548 
L 189.308074 89.302592 
L 190.901438 83.435283 
L 192.494802 76.743313 
L 194.619287 66.789401 
L 197.274894 54.102182 
L 198.337137 50.067439 
L 199.39938 46.845442 
L 200.992744 42.445673 
L 202.054987 38.879226 
L 204.710594 28.588456 
L 205.241715 27.032601 
L 205.772836 25.828109 
L 206.303958 24.99423 
L 206.835079 24.517588 
L 207.3662 24.359413 
L 207.897322 24.465634 
L 208.428443 24.777953 
L 209.490686 25.827154 
L 210.552929 27.298382 
L 211.615171 29.330055 
L 212.677414 32.335194 
L 213.739657 36.71926 
L 214.8019 42.522482 
L 216.926385 56.322223 
L 220.113114 76.454648 
L 221.175356 82.567972 
L 222.237599 87.184251 
L 222.76872 88.525325 
L 223.299842 89.085758 
L 223.830963 88.883785 
L 224.362085 88.034079 
L 224.893206 86.705004 
L 226.48657 81.467174 
L 227.548813 78.128636 
L 228.611056 75.692699 
L 229.142177 74.960876 
L 229.673298 74.597311 
L 230.20442 74.602473 
L 230.735541 74.94508 
L 231.266662 75.561795 
L 233.391148 78.776212 
L 233.922269 79.263344 
L 234.453391 79.497353 
L 234.984512 79.477754 
L 235.515633 79.239297 
L 236.577876 78.353319 
L 238.17124 76.93793 
L 239.233483 76.345542 
L 240.295726 76.116062 
L 240.826847 76.156783 
L 241.357969 76.321055 
L 241.88909 76.624572 
L 242.420211 77.07718 
L 243.482454 78.417681 
L 244.544697 80.209437 
L 247.200304 84.950713 
L 248.793668 87.204977 
L 250.387032 89.488449 
L 251.980396 92.282691 
L 254.104882 96.119939 
L 255.167124 97.682537 
L 256.229367 98.954886 
L 257.29161 99.981296 
L 258.884974 101.172222 
L 263.665066 104.25501 
L 265.789552 105.688638 
L 267.914037 106.983162 
L 268.97628 107.869266 
L 271.100766 110.132785 
L 272.163009 111.16375 
L 273.225251 111.899283 
L 274.287494 112.334848 
L 275.880858 112.665444 
L 282.254315 113.651916 
L 282.254315 113.651916 
" clip-path="url(#pd0dbbf928e)" style="fill: none; stroke: #eb9c75; stroke-linecap: square"/>
   </g>
   <g id="line2d_49">
    <path d="M 176.030039 115.88172 
L 177.092282 116.034168 
L 178.154525 116.284625 
L 178.685646 116.265635 
L 179.216767 116.047599 
L 179.747889 115.610391 
L 180.27901 114.951928 
L 180.810132 114.065097 
L 181.872374 111.616036 
L 182.934617 108.450961 
L 186.121345 98.435579 
L 188.776952 90.914751 
L 190.370316 85.302925 
L 191.96368 78.746191 
L 194.088166 68.996603 
L 197.274894 53.748097 
L 198.337137 49.760828 
L 199.39938 46.578769 
L 200.992744 42.175522 
L 202.054987 38.570405 
L 204.710594 28.318797 
L 205.241715 26.807077 
L 205.772836 25.651063 
L 206.303958 24.864705 
L 206.835079 24.430338 
L 207.3662 24.306891 
L 207.897322 24.440515 
L 208.428443 24.775631 
L 209.490686 25.875474 
L 210.552929 27.433676 
L 211.615171 29.596702 
L 212.677414 32.748235 
L 213.739657 37.251106 
L 214.8019 43.121308 
L 216.926385 56.968186 
L 220.113114 77.317228 
L 221.175356 83.460286 
L 221.706478 86.018659 
L 222.237599 88.002662 
L 222.76872 89.255881 
L 223.299842 89.697005 
L 223.830963 89.354486 
L 224.362085 88.356075 
L 225.424327 85.110868 
L 227.548813 77.790221 
L 228.079934 76.38635 
L 228.611056 75.29885 
L 229.142177 74.575221 
L 229.673298 74.239496 
L 230.20442 74.285559 
L 230.735541 74.67303 
L 231.797784 76.146856 
L 232.860027 77.801077 
L 233.391148 78.410877 
L 233.922269 78.768067 
L 234.453391 78.841942 
L 234.984512 78.646159 
L 235.515633 78.231819 
L 238.17124 75.432221 
L 239.233483 74.820731 
L 240.295726 74.58725 
L 240.826847 74.614705 
L 241.357969 74.753794 
L 241.88909 75.019587 
L 242.951333 75.965366 
L 244.013575 77.421196 
L 248.262547 84.202915 
L 249.855911 86.422899 
L 250.918153 88.187851 
L 255.167124 95.871474 
L 256.229367 97.227185 
L 257.29161 98.334399 
L 258.884974 99.618243 
L 261.540581 101.252384 
L 263.133945 102.355683 
L 265.789552 104.29331 
L 267.914037 105.74579 
L 268.97628 106.73659 
L 271.100766 109.229686 
L 272.163009 110.352172 
L 273.225251 111.128765 
L 274.287494 111.548933 
L 275.880858 111.8341 
L 280.660951 112.602271 
L 282.254315 112.936424 
L 282.254315 112.936424 
" clip-path="url(#pd0dbbf928e)" style="fill: none; stroke: #e67560; stroke-linecap: square"/>
   </g>
   <g id="line2d_50">
    <path d="M 176.030039 115.033116 
L 177.623403 114.839675 
L 178.685646 114.855197 
L 179.216767 115.060581 
L 179.747889 115.446168 
L 180.810132 116.44919 
L 181.341253 115.979008 
L 181.872374 114.76581 
L 182.934617 111.567971 
L 186.121345 101.225763 
L 188.776952 93.32506 
L 190.370316 87.439134 
L 191.96368 80.612926 
L 194.088166 70.548171 
L 197.274894 54.885835 
L 198.337137 50.79155 
L 199.39938 47.535934 
L 200.992744 43.06715 
L 202.054987 39.411968 
L 204.710594 28.956381 
L 205.241715 27.411618 
L 205.772836 26.233418 
L 206.303958 25.438098 
L 206.835079 25.009432 
L 207.3662 24.906983 
L 207.897322 25.076959 
L 208.428443 25.463462 
L 209.490686 26.708488 
L 210.552929 28.460483 
L 211.615171 30.85071 
L 212.677414 34.2452 
L 213.739657 38.99482 
L 214.8019 45.110112 
L 221.175356 85.698994 
L 221.706478 88.075961 
L 222.237599 89.815805 
L 222.76872 90.756552 
L 223.299842 90.828154 
L 223.830963 90.087067 
L 224.362085 88.693168 
L 225.424327 84.748695 
L 227.017691 78.347998 
L 228.079934 74.99788 
L 228.611056 73.817568 
L 229.142177 73.030128 
L 229.673298 72.653633 
L 230.20442 72.674435 
L 230.735541 73.042871 
L 231.797784 74.452208 
L 232.860027 75.928412 
L 233.391148 76.385671 
L 233.922269 76.547278 
L 234.453391 76.390544 
L 234.984512 75.942711 
L 236.046755 74.46772 
L 237.640119 72.140294 
L 238.702362 71.166985 
L 239.764604 70.704535 
L 240.826847 70.652325 
L 241.357969 70.779767 
L 241.88909 71.024301 
L 242.951333 71.901272 
L 244.013575 73.270549 
L 248.262547 79.746209 
L 249.855911 81.937649 
L 250.918153 83.773498 
L 252.511518 87.089837 
L 254.104882 90.358982 
L 255.167124 92.168796 
L 256.229367 93.651518 
L 257.29161 94.857748 
L 258.884974 96.259876 
L 263.133945 99.394282 
L 266.851795 102.770224 
L 267.914037 103.762848 
L 268.97628 105.010085 
L 272.163009 109.416875 
L 273.225251 110.262725 
L 274.287494 110.66562 
L 278.005344 111.517525 
L 280.129829 112.372762 
L 282.254315 113.41548 
L 282.254315 113.41548 
" clip-path="url(#pd0dbbf928e)" style="fill: none; stroke: #d14a61; stroke-linecap: square"/>
   </g>
   <g id="line2d_51">
    <path d="M 176.030039 112.11738 
L 178.685646 112.038917 
L 179.216767 112.304691 
L 179.747889 112.78542 
L 180.27901 113.510947 
L 181.872374 116.640136 
L 182.403496 115.578405 
L 183.99686 110.026905 
L 186.121345 102.826099 
L 188.776952 94.429548 
L 190.370316 88.257564 
L 192.494802 78.7148 
L 194.619287 68.198617 
L 196.743773 57.46334 
L 197.806016 52.917333 
L 198.868258 49.307447 
L 201.523865 41.718901 
L 202.586108 37.734265 
L 204.179472 31.299691 
L 205.241715 27.947285 
L 205.772836 26.797519 
L 206.303958 26.03204 
L 206.835079 25.634857 
L 207.3662 25.566703 
L 207.897322 25.776022 
L 208.428443 26.21007 
L 209.490686 27.58897 
L 210.552929 29.543006 
L 211.615171 32.200107 
L 212.677414 35.895594 
L 213.739657 40.938897 
L 214.8019 47.309053 
L 220.644235 85.746749 
L 221.706478 90.854384 
L 222.237599 92.476252 
L 222.76872 93.240274 
L 223.299842 93.087578 
L 223.830963 92.102478 
L 224.362085 90.474281 
L 225.424327 86.149416 
L 227.017691 79.410125 
L 228.079934 75.972061 
L 228.611056 74.786257 
L 229.142177 74.014782 
L 229.673298 73.669148 
L 230.20442 73.725855 
L 230.735541 74.122149 
L 231.797784 75.499883 
L 232.860027 76.732483 
L 233.391148 76.973915 
L 233.922269 76.868654 
L 234.453391 76.414499 
L 234.984512 75.663464 
L 237.640119 70.85895 
L 238.17124 70.235471 
L 238.702362 69.78414 
L 239.764604 69.31096 
L 240.826847 69.277808 
L 241.357969 69.415629 
L 241.88909 69.668939 
L 242.951333 70.554776 
L 244.013575 71.912192 
L 247.731425 77.4434 
L 249.324789 79.508041 
L 250.387032 81.2382 
L 251.449275 83.398256 
L 254.104882 89.313595 
L 255.167124 91.210424 
L 256.229367 92.742851 
L 257.29161 93.976432 
L 258.884974 95.412781 
L 262.602824 98.389897 
L 268.97628 105.21009 
L 272.163009 109.871549 
L 273.225251 110.701708 
L 274.287494 111.062191 
L 276.41198 111.514787 
L 278.005344 112.135101 
L 280.129829 113.280596 
L 282.254315 114.600107 
L 282.254315 114.600107 
" clip-path="url(#pd0dbbf928e)" style="fill: none; stroke: #a1386f; stroke-linecap: square"/>
   </g>
   <g id="line2d_52">
    <path d="M 176.030039 109.721112 
L 178.154525 109.612553 
L 178.685646 109.75332 
L 179.216767 110.078512 
L 179.747889 110.636898 
L 180.27901 111.460496 
L 180.810132 112.559742 
L 182.403496 116.51834 
L 182.934617 115.113674 
L 186.652467 101.530742 
L 188.776952 94.204401 
L 190.370316 87.578202 
L 192.494802 77.424111 
L 195.150409 63.458803 
L 196.743773 55.147175 
L 197.806016 50.455465 
L 198.868258 46.759593 
L 202.054987 37.240374 
L 204.710594 27.042858 
L 205.241715 25.580328 
L 205.772836 24.49479 
L 206.303958 23.802033 
L 206.835079 23.486364 
L 207.3662 23.509606 
L 207.897322 23.822152 
L 208.428443 24.373808 
L 209.490686 26.040993 
L 210.552929 28.361224 
L 211.615171 31.449097 
L 212.677414 35.60356 
L 213.739657 41.089967 
L 214.8019 47.855574 
L 220.113114 84.713079 
L 221.175356 90.785533 
L 221.706478 93.124246 
L 222.237599 94.705925 
L 222.76872 95.348832 
L 223.299842 95.004904 
L 223.830963 93.793629 
L 224.893206 89.696265 
L 227.017691 80.263597 
L 228.079934 76.817224 
L 228.611056 75.666202 
L 229.142177 74.945801 
L 229.673298 74.656891 
L 230.20442 74.762989 
L 230.735541 75.186904 
L 232.328905 77.09165 
L 232.860027 77.453089 
L 233.391148 77.485437 
L 233.922269 77.148636 
L 234.453391 76.465436 
L 235.515633 74.396138 
L 236.577876 72.143252 
L 237.640119 70.43859 
L 238.17124 69.887741 
L 238.702362 69.526446 
L 239.233483 69.322742 
L 240.295726 69.25871 
L 241.357969 69.556569 
L 242.420211 70.262867 
L 243.482454 71.428584 
L 245.075818 73.794204 
L 246.669182 76.208925 
L 249.855911 80.64838 
L 250.918153 82.772383 
L 253.042639 87.970383 
L 254.636003 91.505838 
L 255.698246 93.372904 
L 256.760489 94.890832 
L 257.822731 96.125685 
L 259.416095 97.591904 
L 262.071702 99.852752 
L 263.665066 101.67909 
L 265.789552 104.216628 
L 268.445159 107.033185 
L 269.507402 108.485237 
L 272.163009 112.516271 
L 273.225251 113.572501 
L 274.287494 114.095348 
L 279.067586 115.390826 
L 282.254315 116.627175 
L 282.254315 116.627175 
" clip-path="url(#pd0dbbf928e)" style="fill: none; stroke: #722c6e; stroke-linecap: square"/>
   </g>
   <g id="line2d_53">
    <path d="M 176.030039 107.929166 
L 178.154525 107.784657 
L 178.685646 107.921316 
L 179.216767 108.253672 
L 179.747889 108.834368 
L 180.27901 109.698466 
L 180.810132 110.859616 
L 181.872374 114.014304 
L 182.403496 115.923778 
L 182.934617 116.735799 
L 185.590224 106.36031 
L 189.308074 93.32742 
L 190.901438 86.210667 
L 193.025923 75.520871 
L 197.806016 50.642895 
L 198.868258 46.87031 
L 202.054987 37.375669 
L 204.710594 27.266021 
L 205.241715 25.801923 
L 205.772836 24.709199 
L 206.303958 24.006057 
L 206.835079 23.680077 
L 207.3662 23.697051 
L 207.897322 24.011807 
L 208.428443 24.57868 
L 209.490686 26.330473 
L 210.552929 28.817178 
L 211.615171 32.133159 
L 212.677414 36.528401 
L 213.739657 42.221177 
L 214.8019 49.140186 
L 219.581992 82.831596 
L 220.644235 89.312996 
L 221.706478 94.286453 
L 222.237599 95.692774 
L 222.76872 96.129559 
L 223.299842 95.571946 
L 223.830963 94.165191 
L 224.893206 89.773288 
L 227.017691 80.034967 
L 228.079934 76.518278 
L 228.611056 75.34624 
L 229.142177 74.612143 
L 229.673298 74.314908 
L 230.20442 74.415455 
L 230.735541 74.833004 
L 232.328905 76.663128 
L 232.860027 76.965189 
L 233.391148 76.918756 
L 233.922269 76.488458 
L 234.453391 75.705051 
L 235.515633 73.451982 
L 236.577876 71.08733 
L 237.640119 69.373948 
L 238.17124 68.856497 
L 238.702362 68.547884 
L 239.233483 68.408669 
L 240.295726 68.473959 
L 241.357969 68.853834 
L 242.420211 69.573214 
L 243.482454 70.695916 
L 245.075818 72.946747 
L 247.200304 75.968013 
L 248.793668 78.062305 
L 249.855911 79.800717 
L 250.918153 82.054273 
L 253.042639 87.572962 
L 254.636003 91.294858 
L 255.698246 93.236438 
L 256.760489 94.809886 
L 258.353853 96.675876 
L 263.133945 101.583923 
L 265.789552 105.004816 
L 268.97628 108.440433 
L 270.569644 110.792548 
L 272.163009 113.192067 
L 273.225251 114.308162 
L 273.756373 114.638849 
L 274.818615 114.943413 
L 276.943101 115.286208 
L 278.536465 115.787739 
L 282.254315 117.213636 
L 282.254315 117.213636 
" clip-path="url(#pd0dbbf928e)" style="fill: none; stroke: #4b2362; stroke-linecap: square"/>
   </g>
   <g id="patch_8">
    <path d="M 170.718825 121.9 
L 170.718825 18.8 
" style="fill: none; stroke: #000000; stroke-width: 0.6; stroke-linejoin: miter; stroke-linecap: square"/>
   </g>
   <g id="patch_9">
    <path d="M 287.565528 121.9 
L 287.565528 18.8 
" style="fill: none; stroke: #000000; stroke-width: 0.6; stroke-linejoin: miter; stroke-linecap: square"/>
   </g>
   <g id="patch_10">
    <path d="M 170.718825 121.9 
L 287.565528 121.9 
" style="fill: none; stroke: #000000; stroke-width: 0.6; stroke-linejoin: miter; stroke-linecap: square"/>
   </g>
   <g id="patch_11">
    <path d="M 170.718825 18.8 
L 287.565528 18.8 
" style="fill: none; stroke: #000000; stroke-width: 0.6; stroke-linejoin: miter; stroke-linecap: square"/>
   </g>
   <g id="text_16">
    <!-- $T$ = 50 K -->
    <g transform="translate(211.042177 14.8) scale(0.1 -0.1)">
     <use xlink:href="#NotoSans-Italic-54" transform="translate(0 0.5)"/>
     <use xlink:href="#NotoSans-Regular-20" transform="translate(50.099991 0.5)"/>
     <use xlink:href="#NotoSans-Regular-3d" transform="translate(76.099976 0.5)"/>
     <use xlink:href="#NotoSans-Regular-20" transform="translate(133.299973 0.5)"/>
     <use xlink:href="#NotoSans-Regular-35" transform="translate(159.299957 0.5)"/>
     <use xlink:href="#NotoSans-Regular-30" transform="translate(216.499954 0.5)"/>
     <use xlink:href="#NotoSans-Regular-20" transform="translate(273.699951 0.5)"/>
     <use xlink:href="#NotoSans-Regular-4b" transform="translate(299.699936 0.5)"/>
    </g>
   </g>
  </g>
  <g id="axes_3">
   <g id="patch_12">
    <path d="M 296.837651 121.9 
L 413.684354 121.9 
L 413.684354 18.8 
L 296.837651 18.8 
z
" style="fill: #ffffff"/>
   </g>
   <g id="PolyCollection_17"/>
   <g id="PolyCollection_18"/>
   <g id="PolyCollection_19"/>
   <g id="PolyCollection_20"/>
   <g id="PolyCollection_21"/>
   <g id="PolyCollection_22"/>
   <g id="PolyCollection_23"/>
   <g id="PolyCollection_24"/>
   <g id="matplotlib.axis_5">
    <g id="xtick_7">
     <g id="line2d_54">
      <g>
       <use xlink:href="#md1537a11e1" x="302.148865" y="121.9" style="stroke: #000000; stroke-width: 0.6"/>
      </g>
     </g>
     <g id="line2d_55">
      <g>
       <use xlink:href="#m0140fec1ce" x="302.148865" y="18.8" style="stroke: #000000; stroke-width: 0.6"/>
      </g>
     </g>
     <g id="text_17">
      <!-- $\mathdefault{0}$ -->
      <g transform="translate(299.248865 133) scale(0.1 -0.1)">
       <use xlink:href="#NotoSans-Regular-30" transform="translate(0 0.5)"/>
      </g>
     </g>
    </g>
    <g id="xtick_8">
     <g id="line2d_56">
      <g>
       <use xlink:href="#md1537a11e1" x="344.65982" y="121.9" style="stroke: #000000; stroke-width: 0.6"/>
      </g>
     </g>
     <g id="line2d_57">
      <g>
       <use xlink:href="#m0140fec1ce" x="344.65982" y="18.8" style="stroke: #000000; stroke-width: 0.6"/>
      </g>
     </g>
     <g id="text_18">
      <!-- $\mathdefault{2}$ -->
      <g transform="translate(341.75982 133) scale(0.1 -0.1)">
       <use xlink:href="#NotoSans-Regular-32" transform="translate(0 0.59375)"/>
      </g>
     </g>
    </g>
    <g id="xtick_9">
     <g id="line2d_58">
      <g>
       <use xlink:href="#md1537a11e1" x="387.170775" y="121.9" style="stroke: #000000; stroke-width: 0.6"/>
      </g>
     </g>
     <g id="line2d_59">
      <g>
       <use xlink:href="#m0140fec1ce" x="387.170775" y="18.8" style="stroke: #000000; stroke-width: 0.6"/>
      </g>
     </g>
     <g id="text_19">
      <!-- $\mathdefault{4}$ -->
      <g transform="translate(384.270775 133) scale(0.1 -0.1)">
       <use xlink:href="#NotoSans-Regular-34" transform="translate(0 0.203125)"/>
      </g>
     </g>
    </g>
    <g id="text_20">
     <!-- $f$ (THz) -->
     <g transform="translate(340.511002 147.1) scale(0.1 -0.1)">
      <use xlink:href="#NotoSans-Italic-66" transform="translate(0 0.5)"/>
      <use xlink:href="#NotoSans-Regular-20" transform="translate(31.799988 0.5)"/>
      <use xlink:href="#NotoSans-Regular-28" transform="translate(57.799973 0.5)"/>
      <use xlink:href="#NotoSans-Regular-54" transform="translate(87.799957 0.5)"/>
      <use xlink:href="#NotoSans-Regular-48" transform="translate(143.399948 0.5)"/>
      <use xlink:href="#NotoSans-Regular-7a" transform="translate(217.499939 0.5)"/>
      <use xlink:href="#NotoSans-Regular-29" transform="translate(264.499924 0.5)"/>
     </g>
    </g>
   </g>
   <g id="matplotlib.axis_6">
    <g id="ytick_11">
     <g id="line2d_60">
      <g>
       <use xlink:href="#mf7ca961596" x="296.837651" y="117.382244" style="stroke: #000000; stroke-width: 0.6"/>
      </g>
     </g>
     <g id="line2d_61">
      <g>
       <use xlink:href="#m8010723535" x="413.684354" y="117.382244" style="stroke: #000000; stroke-width: 0.6"/>
      </g>
     </g>
    </g>
    <g id="ytick_12">
     <g id="line2d_62">
      <g>
       <use xlink:href="#mf7ca961596" x="296.837651" y="96.095035" style="stroke: #000000; stroke-width: 0.6"/>
      </g>
     </g>
     <g id="line2d_63">
      <g>
       <use xlink:href="#m8010723535" x="413.684354" y="96.095035" style="stroke: #000000; stroke-width: 0.6"/>
      </g>
     </g>
    </g>
    <g id="ytick_13">
     <g id="line2d_64">
      <g>
       <use xlink:href="#mf7ca961596" x="296.837651" y="74.807826" style="stroke: #000000; stroke-width: 0.6"/>
      </g>
     </g>
     <g id="line2d_65">
      <g>
       <use xlink:href="#m8010723535" x="413.684354" y="74.807826" style="stroke: #000000; stroke-width: 0.6"/>
      </g>
     </g>
    </g>
    <g id="ytick_14">
     <g id="line2d_66">
      <g>
       <use xlink:href="#mf7ca961596" x="296.837651" y="53.520617" style="stroke: #000000; stroke-width: 0.6"/>
      </g>
     </g>
     <g id="line2d_67">
      <g>
       <use xlink:href="#m8010723535" x="413.684354" y="53.520617" style="stroke: #000000; stroke-width: 0.6"/>
      </g>
     </g>
    </g>
    <g id="ytick_15">
     <g id="line2d_68">
      <g>
       <use xlink:href="#mf7ca961596" x="296.837651" y="32.233407" style="stroke: #000000; stroke-width: 0.6"/>
      </g>
     </g>
     <g id="line2d_69">
      <g>
       <use xlink:href="#m8010723535" x="413.684354" y="32.233407" style="stroke: #000000; stroke-width: 0.6"/>
      </g>
     </g>
    </g>
   </g>
   <g id="line2d_70">
    <path d="M 302.148865 111.102101 
L 302.679986 111.29385 
L 303.211107 111.838663 
L 304.27335 113.590598 
L 304.804471 114.489111 
L 305.335593 115.134028 
L 305.866714 115.32687 
L 306.397836 115.049652 
L 306.928957 114.422051 
L 307.460078 113.485891 
L 307.9912 112.230021 
L 309.053442 108.879182 
L 311.709049 99.477746 
L 313.302413 95.129486 
L 314.895778 90.852305 
L 315.95802 87.408805 
L 317.551384 81.253034 
L 319.67587 71.841272 
L 323.924841 51.887625 
L 324.987084 48.256659 
L 328.173812 38.899251 
L 331.36054 27.4355 
L 331.891662 26.265964 
L 332.422783 25.455753 
L 332.953904 24.991416 
L 333.485026 24.834403 
L 334.016147 24.931394 
L 334.547269 25.225508 
L 335.609511 26.219071 
L 336.671754 27.619126 
L 337.733997 29.56474 
L 338.265118 30.864695 
L 339.327361 34.405402 
L 340.389604 39.397677 
L 341.451846 45.64823 
L 347.294182 82.567299 
L 348.356424 87.346954 
L 348.887546 88.762448 
L 349.418667 89.3925 
L 349.949789 89.264462 
L 350.48091 88.50644 
L 351.543153 85.817397 
L 353.667638 79.621943 
L 354.729881 77.423188 
L 355.261002 76.740274 
L 355.792124 76.380973 
L 356.323245 76.354364 
L 356.854366 76.642017 
L 357.385488 77.195927 
L 360.041095 80.92731 
L 360.572216 81.271646 
L 361.103337 81.385306 
L 361.634459 81.291522 
L 362.696702 80.687047 
L 364.290066 79.580735 
L 365.352308 79.100688 
L 366.414551 78.918911 
L 366.945673 78.963677 
L 367.476794 79.122078 
L 368.007915 79.413314 
L 368.539037 79.851518 
L 369.601279 81.175077 
L 370.663522 82.989554 
L 373.319129 87.963664 
L 374.912493 90.299342 
L 377.036979 93.197343 
L 379.161464 96.652541 
L 380.754828 99.199109 
L 382.348193 101.30509 
L 383.410435 102.402547 
L 384.472678 103.263134 
L 386.066042 104.251911 
L 389.25277 106.14853 
L 391.377256 107.423174 
L 394.032863 108.828052 
L 395.626227 110.048587 
L 398.281834 112.354818 
L 399.344077 112.968751 
L 400.406319 113.308518 
L 401.999684 113.490951 
L 408.37314 113.853216 
L 408.37314 113.853216 
" clip-path="url(#p0765a040c4)" style="fill: none; stroke: #edb081; stroke-linecap: square"/>
   </g>
   <g id="line2d_71">
    <path d="M 302.148865 113.112152 
L 302.679986 113.226489 
L 303.211107 113.548076 
L 304.804471 114.952645 
L 305.335593 115.150127 
L 305.866714 115.024618 
L 306.397836 114.577199 
L 306.928957 113.841107 
L 307.460078 112.829601 
L 308.522321 110.045909 
L 310.115685 104.738952 
L 311.709049 99.567715 
L 315.95802 87.041249 
L 317.551384 80.870838 
L 319.67587 71.596774 
L 323.924841 51.845143 
L 324.987084 48.21858 
L 328.173812 38.811091 
L 330.829419 28.730195 
L 331.36054 27.212834 
L 331.891662 26.045295 
L 332.422783 25.245799 
L 332.953904 24.799615 
L 333.485026 24.666904 
L 334.016147 24.793337 
L 334.547269 25.121325 
L 335.609511 26.193168 
L 336.671754 27.675844 
L 337.733997 29.68492 
L 338.79624 32.597042 
L 339.858482 36.808936 
L 340.920725 42.408069 
L 342.514089 52.512201 
L 346.231939 76.486947 
L 347.294182 82.588544 
L 347.825303 85.132038 
L 348.356424 87.128052 
L 348.887546 88.43851 
L 349.418667 88.993045 
L 349.949789 88.818225 
L 350.48091 88.029017 
L 351.012031 86.788149 
L 352.605395 81.898915 
L 353.667638 78.781599 
L 354.729881 76.494329 
L 355.261002 75.800552 
L 355.792124 75.451312 
L 356.323245 75.451261 
L 356.854366 75.77616 
L 357.385488 76.371824 
L 360.041095 80.199586 
L 360.572216 80.516513 
L 361.103337 80.585348 
L 361.634459 80.432695 
L 362.696702 79.692522 
L 364.290066 78.444629 
L 365.352308 77.96247 
L 366.414551 77.839597 
L 367.476794 78.11524 
L 368.007915 78.431796 
L 369.070158 79.468716 
L 370.132401 81.013168 
L 372.256886 84.874918 
L 373.850251 87.530924 
L 377.5681 93.037723 
L 380.754828 98.395208 
L 381.817071 99.806009 
L 382.879314 100.967859 
L 384.472678 102.305401 
L 386.066042 103.303654 
L 390.315013 105.766996 
L 395.095106 108.720441 
L 398.812955 111.996938 
L 399.875198 112.454518 
L 401.468562 112.748453 
L 404.65529 112.959229 
L 407.310897 113.160797 
L 408.37314 113.310682 
L 408.37314 113.310682 
" clip-path="url(#p0765a040c4)" style="fill: none; stroke: #eca77b; stroke-linecap: square"/>
   </g>
   <g id="line2d_72">
    <path d="M 302.148865 115.521703 
L 302.679986 115.590435 
L 303.742229 116.046306 
L 304.27335 116.304886 
L 304.804471 116.436061 
L 305.335593 116.331505 
L 305.866714 115.988428 
L 306.397836 115.430827 
L 306.928957 114.642945 
L 307.460078 113.605003 
L 308.522321 110.823554 
L 310.115685 105.590513 
L 312.240171 98.779548 
L 315.426899 89.302592 
L 317.020263 83.435283 
L 318.613627 76.743313 
L 320.738113 66.789401 
L 323.39372 54.102182 
L 324.455962 50.067439 
L 325.518205 46.845442 
L 327.111569 42.445673 
L 328.173812 38.879226 
L 330.829419 28.588456 
L 331.36054 27.032601 
L 331.891662 25.828109 
L 332.422783 24.99423 
L 332.953904 24.517588 
L 333.485026 24.359413 
L 334.016147 24.465634 
L 334.547269 24.777953 
L 335.609511 25.827154 
L 336.671754 27.298382 
L 337.733997 29.330055 
L 338.79624 32.335194 
L 339.858482 36.71926 
L 340.920725 42.522482 
L 343.045211 56.322223 
L 346.231939 76.454648 
L 347.294182 82.567972 
L 348.356424 87.184251 
L 348.887546 88.525325 
L 349.418667 89.085758 
L 349.949789 88.883785 
L 350.48091 88.034079 
L 351.012031 86.705004 
L 352.605395 81.467174 
L 353.667638 78.128636 
L 354.729881 75.692699 
L 355.261002 74.960876 
L 355.792124 74.597311 
L 356.323245 74.602473 
L 356.854366 74.94508 
L 357.385488 75.561795 
L 359.509973 78.776212 
L 360.041095 79.263344 
L 360.572216 79.497353 
L 361.103337 79.477754 
L 361.634459 79.239297 
L 362.696702 78.353319 
L 364.290066 76.93793 
L 365.352308 76.345542 
L 366.414551 76.116062 
L 366.945673 76.156783 
L 367.476794 76.321055 
L 368.007915 76.624572 
L 368.539037 77.07718 
L 369.601279 78.417681 
L 370.663522 80.209437 
L 373.319129 84.950713 
L 374.912493 87.204977 
L 376.505857 89.488449 
L 378.099222 92.282691 
L 380.223707 96.119939 
L 381.28595 97.682537 
L 382.348193 98.954886 
L 383.410435 99.981296 
L 385.003799 101.172222 
L 389.783892 104.25501 
L 391.908377 105.688638 
L 394.032863 106.983162 
L 395.095106 107.869266 
L 397.219591 110.132785 
L 398.281834 111.16375 
L 399.344077 111.899283 
L 400.406319 112.334848 
L 401.999684 112.665444 
L 408.37314 113.651916 
L 408.37314 113.651916 
" clip-path="url(#p0765a040c4)" style="fill: none; stroke: #eb9c75; stroke-linecap: square"/>
   </g>
   <g id="line2d_73">
    <path d="M 302.148865 115.88172 
L 303.211107 116.034168 
L 304.27335 116.284625 
L 304.804471 116.265635 
L 305.335593 116.047599 
L 305.866714 115.610391 
L 306.397836 114.951928 
L 306.928957 114.065097 
L 307.9912 111.616036 
L 309.053442 108.450961 
L 312.240171 98.435579 
L 314.895778 90.914751 
L 316.489142 85.302925 
L 318.082506 78.746191 
L 320.206991 68.996603 
L 323.39372 53.748097 
L 324.455962 49.760828 
L 325.518205 46.578769 
L 327.111569 42.175522 
L 328.173812 38.570405 
L 330.829419 28.318797 
L 331.36054 26.807077 
L 331.891662 25.651063 
L 332.422783 24.864705 
L 332.953904 24.430338 
L 333.485026 24.306891 
L 334.016147 24.440515 
L 334.547269 24.775631 
L 335.609511 25.875474 
L 336.671754 27.433676 
L 337.733997 29.596702 
L 338.79624 32.748235 
L 339.858482 37.251106 
L 340.920725 43.121308 
L 343.045211 56.968186 
L 346.231939 77.317228 
L 347.294182 83.460286 
L 347.825303 86.018659 
L 348.356424 88.002662 
L 348.887546 89.255881 
L 349.418667 89.697005 
L 349.949789 89.354486 
L 350.48091 88.356075 
L 351.543153 85.110868 
L 353.667638 77.790221 
L 354.19876 76.38635 
L 354.729881 75.29885 
L 355.261002 74.575221 
L 355.792124 74.239496 
L 356.323245 74.285559 
L 356.854366 74.67303 
L 357.916609 76.146856 
L 358.978852 77.801077 
L 359.509973 78.410877 
L 360.041095 78.768067 
L 360.572216 78.841942 
L 361.103337 78.646159 
L 361.634459 78.231819 
L 364.290066 75.432221 
L 365.352308 74.820731 
L 366.414551 74.58725 
L 366.945673 74.614705 
L 367.476794 74.753794 
L 368.007915 75.019587 
L 369.070158 75.965366 
L 370.132401 77.421196 
L 374.381372 84.202915 
L 375.974736 86.422899 
L 377.036979 88.187851 
L 381.28595 95.871474 
L 382.348193 97.227185 
L 383.410435 98.334399 
L 385.003799 99.618243 
L 387.659406 101.252384 
L 389.25277 102.355683 
L 391.908377 104.29331 
L 394.032863 105.74579 
L 395.095106 106.73659 
L 397.219591 109.229686 
L 398.281834 110.352172 
L 399.344077 111.128765 
L 400.406319 111.548933 
L 401.999684 111.8341 
L 406.779776 112.602271 
L 408.37314 112.936424 
L 408.37314 112.936424 
" clip-path="url(#p0765a040c4)" style="fill: none; stroke: #e67560; stroke-linecap: square"/>
   </g>
   <g id="line2d_74">
    <path d="M 302.148865 115.033116 
L 303.742229 114.839675 
L 304.804471 114.855197 
L 305.335593 115.060581 
L 305.866714 115.446168 
L 306.928957 116.44919 
L 307.460078 115.979008 
L 307.9912 114.76581 
L 309.053442 111.567971 
L 312.240171 101.225763 
L 314.895778 93.32506 
L 316.489142 87.439134 
L 318.082506 80.612926 
L 320.206991 70.548171 
L 323.39372 54.885835 
L 324.455962 50.79155 
L 325.518205 47.535934 
L 327.111569 43.06715 
L 328.173812 39.411968 
L 330.829419 28.956381 
L 331.36054 27.411618 
L 331.891662 26.233418 
L 332.422783 25.438098 
L 332.953904 25.009432 
L 333.485026 24.906983 
L 334.016147 25.076959 
L 334.547269 25.463462 
L 335.609511 26.708488 
L 336.671754 28.460483 
L 337.733997 30.85071 
L 338.79624 34.2452 
L 339.858482 38.99482 
L 340.920725 45.110112 
L 347.294182 85.698994 
L 347.825303 88.075961 
L 348.356424 89.815805 
L 348.887546 90.756552 
L 349.418667 90.828154 
L 349.949789 90.087067 
L 350.48091 88.693168 
L 351.543153 84.748695 
L 353.136517 78.347998 
L 354.19876 74.99788 
L 354.729881 73.817568 
L 355.261002 73.030128 
L 355.792124 72.653633 
L 356.323245 72.674435 
L 356.854366 73.042871 
L 357.916609 74.452208 
L 358.978852 75.928412 
L 359.509973 76.385671 
L 360.041095 76.547278 
L 360.572216 76.390544 
L 361.103337 75.942711 
L 362.16558 74.46772 
L 363.758944 72.140294 
L 364.821187 71.166985 
L 365.88343 70.704535 
L 366.945673 70.652325 
L 367.476794 70.779767 
L 368.007915 71.024301 
L 369.070158 71.901272 
L 370.132401 73.270549 
L 374.381372 79.746209 
L 375.974736 81.937649 
L 377.036979 83.773498 
L 378.630343 87.089837 
L 380.223707 90.358982 
L 381.28595 92.168796 
L 382.348193 93.651518 
L 383.410435 94.857748 
L 385.003799 96.259876 
L 389.25277 99.394282 
L 392.97062 102.770224 
L 394.032863 103.762848 
L 395.095106 105.010085 
L 398.281834 109.416875 
L 399.344077 110.262725 
L 400.406319 110.66562 
L 404.124169 111.517525 
L 406.248655 112.372762 
L 408.37314 113.41548 
L 408.37314 113.41548 
" clip-path="url(#p0765a040c4)" style="fill: none; stroke: #d14a61; stroke-linecap: square"/>
   </g>
   <g id="line2d_75">
    <path d="M 302.148865 112.11738 
L 304.804471 112.038917 
L 305.335593 112.304691 
L 305.866714 112.78542 
L 306.397836 113.510947 
L 307.9912 116.640136 
L 308.522321 115.578405 
L 310.115685 110.026905 
L 312.240171 102.826099 
L 314.895778 94.429548 
L 316.489142 88.257564 
L 318.613627 78.7148 
L 320.738113 68.198617 
L 322.862598 57.46334 
L 323.924841 52.917333 
L 324.987084 49.307447 
L 327.642691 41.718901 
L 328.704933 37.734265 
L 330.298298 31.299691 
L 331.36054 27.947285 
L 331.891662 26.797519 
L 332.422783 26.03204 
L 332.953904 25.634857 
L 333.485026 25.566703 
L 334.016147 25.776022 
L 334.547269 26.21007 
L 335.609511 27.58897 
L 336.671754 29.543006 
L 337.733997 32.200107 
L 338.79624 35.895594 
L 339.858482 40.938897 
L 340.920725 47.309053 
L 346.76306 85.746749 
L 347.825303 90.854384 
L 348.356424 92.476252 
L 348.887546 93.240274 
L 349.418667 93.087578 
L 349.949789 92.102478 
L 350.48091 90.474281 
L 351.543153 86.149416 
L 353.136517 79.410125 
L 354.19876 75.972061 
L 354.729881 74.786257 
L 355.261002 74.014782 
L 355.792124 73.669148 
L 356.323245 73.725855 
L 356.854366 74.122149 
L 357.916609 75.499883 
L 358.978852 76.732483 
L 359.509973 76.973915 
L 360.041095 76.868654 
L 360.572216 76.414499 
L 361.103337 75.663464 
L 363.758944 70.85895 
L 364.290066 70.235471 
L 364.821187 69.78414 
L 365.88343 69.31096 
L 366.945673 69.277808 
L 367.476794 69.415629 
L 368.007915 69.668939 
L 369.070158 70.554776 
L 370.132401 71.912192 
L 373.850251 77.4434 
L 375.443615 79.508041 
L 376.505857 81.2382 
L 377.5681 83.398256 
L 380.223707 89.313595 
L 381.28595 91.210424 
L 382.348193 92.742851 
L 383.410435 93.976432 
L 385.003799 95.412781 
L 388.721649 98.389897 
L 395.095106 105.21009 
L 398.281834 109.871549 
L 399.344077 110.701708 
L 400.406319 111.062191 
L 402.530805 111.514787 
L 404.124169 112.135101 
L 406.248655 113.280596 
L 408.37314 114.600107 
L 408.37314 114.600107 
" clip-path="url(#p0765a040c4)" style="fill: none; stroke: #a1386f; stroke-linecap: square"/>
   </g>
   <g id="line2d_76">
    <path d="M 302.148865 109.721112 
L 304.27335 109.612553 
L 304.804471 109.75332 
L 305.335593 110.078512 
L 305.866714 110.636898 
L 306.397836 111.460496 
L 306.928957 112.559742 
L 308.522321 116.51834 
L 309.053442 115.113674 
L 312.771292 101.530742 
L 314.895778 94.204401 
L 316.489142 87.578202 
L 318.613627 77.424111 
L 321.269234 63.458803 
L 322.862598 55.147175 
L 323.924841 50.455465 
L 324.987084 46.759593 
L 328.173812 37.240374 
L 330.829419 27.042858 
L 331.36054 25.580328 
L 331.891662 24.49479 
L 332.422783 23.802033 
L 332.953904 23.486364 
L 333.485026 23.509606 
L 334.016147 23.822152 
L 334.547269 24.373808 
L 335.609511 26.040993 
L 336.671754 28.361224 
L 337.733997 31.449097 
L 338.79624 35.60356 
L 339.858482 41.089967 
L 340.920725 47.855574 
L 346.231939 84.713079 
L 347.294182 90.785533 
L 347.825303 93.124246 
L 348.356424 94.705925 
L 348.887546 95.348832 
L 349.418667 95.004904 
L 349.949789 93.793629 
L 351.012031 89.696265 
L 353.136517 80.263597 
L 354.19876 76.817224 
L 354.729881 75.666202 
L 355.261002 74.945801 
L 355.792124 74.656891 
L 356.323245 74.762989 
L 356.854366 75.186904 
L 358.447731 77.09165 
L 358.978852 77.453089 
L 359.509973 77.485437 
L 360.041095 77.148636 
L 360.572216 76.465436 
L 361.634459 74.396138 
L 362.696702 72.143252 
L 363.758944 70.43859 
L 364.290066 69.887741 
L 364.821187 69.526446 
L 365.352308 69.322742 
L 366.414551 69.25871 
L 367.476794 69.556569 
L 368.539037 70.262867 
L 369.601279 71.428584 
L 371.194644 73.794204 
L 372.788008 76.208925 
L 375.974736 80.64838 
L 377.036979 82.772383 
L 379.161464 87.970383 
L 380.754828 91.505838 
L 381.817071 93.372904 
L 382.879314 94.890832 
L 383.941557 96.125685 
L 385.534921 97.591904 
L 388.190528 99.852752 
L 389.783892 101.67909 
L 391.908377 104.216628 
L 394.563984 107.033185 
L 395.626227 108.485237 
L 398.281834 112.516271 
L 399.344077 113.572501 
L 400.406319 114.095348 
L 405.186412 115.390826 
L 408.37314 116.627175 
L 408.37314 116.627175 
" clip-path="url(#p0765a040c4)" style="fill: none; stroke: #722c6e; stroke-linecap: square"/>
   </g>
   <g id="line2d_77">
    <path d="M 302.148865 107.929166 
L 304.27335 107.784657 
L 304.804471 107.921316 
L 305.335593 108.253672 
L 305.866714 108.834368 
L 306.397836 109.698466 
L 306.928957 110.859616 
L 307.9912 114.014304 
L 308.522321 115.923778 
L 309.053442 116.735799 
L 311.709049 106.36031 
L 315.426899 93.32742 
L 317.020263 86.210667 
L 319.144749 75.520871 
L 323.924841 50.642895 
L 324.987084 46.87031 
L 328.173812 37.375669 
L 330.829419 27.266021 
L 331.36054 25.801923 
L 331.891662 24.709199 
L 332.422783 24.006057 
L 332.953904 23.680077 
L 333.485026 23.697051 
L 334.016147 24.011807 
L 334.547269 24.57868 
L 335.609511 26.330473 
L 336.671754 28.817178 
L 337.733997 32.133159 
L 338.79624 36.528401 
L 339.858482 42.221177 
L 340.920725 49.140186 
L 345.700817 82.831596 
L 346.76306 89.312996 
L 347.825303 94.286453 
L 348.356424 95.692774 
L 348.887546 96.129559 
L 349.418667 95.571946 
L 349.949789 94.165191 
L 351.012031 89.773288 
L 353.136517 80.034967 
L 354.19876 76.518278 
L 354.729881 75.34624 
L 355.261002 74.612143 
L 355.792124 74.314908 
L 356.323245 74.415455 
L 356.854366 74.833004 
L 358.447731 76.663128 
L 358.978852 76.965189 
L 359.509973 76.918756 
L 360.041095 76.488458 
L 360.572216 75.705051 
L 361.634459 73.451982 
L 362.696702 71.08733 
L 363.758944 69.373948 
L 364.290066 68.856497 
L 364.821187 68.547884 
L 365.352308 68.408669 
L 366.414551 68.473959 
L 367.476794 68.853834 
L 368.539037 69.573214 
L 369.601279 70.695916 
L 371.194644 72.946747 
L 373.319129 75.968013 
L 374.912493 78.062305 
L 375.974736 79.800717 
L 377.036979 82.054273 
L 379.161464 87.572962 
L 380.754828 91.294858 
L 381.817071 93.236438 
L 382.879314 94.809886 
L 384.472678 96.675876 
L 389.25277 101.583923 
L 391.908377 105.004816 
L 395.095106 108.440433 
L 396.68847 110.792548 
L 398.281834 113.192067 
L 399.344077 114.308162 
L 399.875198 114.638849 
L 400.937441 114.943413 
L 403.061926 115.286208 
L 404.65529 115.787739 
L 408.37314 117.213636 
L 408.37314 117.213636 
" clip-path="url(#p0765a040c4)" style="fill: none; stroke: #4b2362; stroke-linecap: square"/>
   </g>
   <g id="patch_13">
    <path d="M 296.837651 121.9 
L 296.837651 18.8 
" style="fill: none; stroke: #000000; stroke-width: 0.6; stroke-linejoin: miter; stroke-linecap: square"/>
   </g>
   <g id="patch_14">
    <path d="M 413.684354 121.9 
L 413.684354 18.8 
" style="fill: none; stroke: #000000; stroke-width: 0.6; stroke-linejoin: miter; stroke-linecap: square"/>
   </g>
   <g id="patch_15">
    <path d="M 296.837651 121.9 
L 413.684354 121.9 
" style="fill: none; stroke: #000000; stroke-width: 0.6; stroke-linejoin: miter; stroke-linecap: square"/>
   </g>
   <g id="patch_16">
    <path d="M 296.837651 18.8 
L 413.684354 18.8 
" style="fill: none; stroke: #000000; stroke-width: 0.6; stroke-linejoin: miter; stroke-linecap: square"/>
   </g>
   <g id="text_21">
    <!-- $T$ = 210 K -->
    <g transform="translate(334.311002 14.8) scale(0.1 -0.1)">
     <use xlink:href="#NotoSans-Italic-54" transform="translate(0 0.5)"/>
     <use xlink:href="#NotoSans-Regular-20" transform="translate(50.099991 0.5)"/>
     <use xlink:href="#NotoSans-Regular-3d" transform="translate(76.099976 0.5)"/>
     <use xlink:href="#NotoSans-Regular-20" transform="translate(133.299973 0.5)"/>
     <use xlink:href="#NotoSans-Regular-32" transform="translate(159.299957 0.5)"/>
     <use xlink:href="#NotoSans-Regular-31" transform="translate(216.499954 0.5)"/>
     <use xlink:href="#NotoSans-Regular-30" transform="translate(273.699951 0.5)"/>
     <use xlink:href="#NotoSans-Regular-20" transform="translate(330.899948 0.5)"/>
     <use xlink:href="#NotoSans-Regular-4b" transform="translate(356.899933 0.5)"/>
    </g>
   </g>
  </g>
  <g id="legend_1">
   <g id="text_22">
    <!-- $E$ (kV/cm) -->
    <g transform="translate(432.402767 43.45) scale(0.1 -0.1)">
     <defs>
      <path id="NotoSans-Regular-6b" d="M 1101 2323 
Q 1101 2221 1091 2054 
Q 1082 1888 1075 1766 
L 1101 1766 
Q 1139 1818 1216 1914 
Q 1293 2010 1373 2109 
Q 1453 2208 1510 2272 
L 2605 3430 
L 3264 3430 
L 1875 1965 
L 3360 0 
L 2682 0 
L 1491 1600 
L 1101 1261 
L 1101 0 
L 544 0 
L 544 4864 
L 1101 4864 
L 1101 2323 
z
" transform="scale(0.015625)"/>
      <path id="NotoSans-Regular-56" d="M 3840 4570 
L 2208 0 
L 1632 0 
L 0 4570 
L 602 4570 
L 1632 1638 
Q 1702 1453 1753 1280 
Q 1805 1107 1846 950 
Q 1888 794 1920 640 
Q 1952 794 1993 954 
Q 2035 1114 2089 1286 
Q 2144 1459 2208 1651 
L 3232 4570 
L 3840 4570 
z
" transform="scale(0.015625)"/>
      <path id="NotoSans-Regular-2f" d="M 2317 4570 
L 614 0 
L 64 0 
L 1766 4570 
L 2317 4570 
z
" transform="scale(0.015625)"/>
      <path id="NotoSans-Regular-63" d="M 1920 -64 
Q 1466 -64 1110 121 
Q 755 307 553 697 
Q 352 1088 352 1696 
Q 352 2330 563 2726 
Q 774 3123 1136 3308 
Q 1498 3494 1958 3494 
Q 2221 3494 2464 3440 
Q 2707 3386 2861 3309 
L 2688 2842 
Q 2534 2899 2329 2950 
Q 2125 3002 1946 3002 
Q 1600 3002 1376 2854 
Q 1152 2707 1043 2419 
Q 934 2131 934 1702 
Q 934 1293 1043 1005 
Q 1152 717 1369 569 
Q 1587 422 1914 422 
Q 2195 422 2409 480 
Q 2624 538 2803 621 
L 2803 122 
Q 2630 32 2422 -16 
Q 2214 -64 1920 -64 
z
" transform="scale(0.015625)"/>
     </defs>
     <use xlink:href="#NotoSans-Italic-45"/>
     <use xlink:href="#NotoSans-Regular-20" transform="translate(51.399994 0)"/>
     <use xlink:href="#NotoSans-Regular-28" transform="translate(77.399979 0)"/>
     <use xlink:href="#NotoSans-Regular-6b" transform="translate(107.399963 0)"/>
     <use xlink:href="#NotoSans-Regular-56" transform="translate(160.799957 0)"/>
     <use xlink:href="#NotoSans-Regular-2f" transform="translate(220.799942 0)"/>
     <use xlink:href="#NotoSans-Regular-63" transform="translate(257.999939 0)"/>
     <use xlink:href="#NotoSans-Regular-6d" transform="translate(305.999924 0)"/>
     <use xlink:href="#NotoSans-Regular-29" transform="translate(399.499908 0)"/>
    </g>
   </g>
   <g id="line2d_78">
    <path d="M 431.302767 54.95 
L 441.302767 54.95 
L 451.302767 54.95 
" style="fill: none; stroke: #e98c6b; stroke-linecap: square"/>
   </g>
   <g id="text_23">
    <!-- $\mathdefault{30}$ -->
    <g transform="translate(459.302767 58.45) scale(0.1 -0.1)">
     <use xlink:href="#NotoSans-Regular-33" transform="translate(0 0.5)"/>
     <use xlink:href="#NotoSans-Regular-30" transform="translate(57.199997 0.5)"/>
    </g>
   </g>
   <g id="line2d_79">
    <path d="M 431.302767 69.95 
L 441.302767 69.95 
L 451.302767 69.95 
" style="fill: none; stroke: #de5d5c; stroke-linecap: square"/>
   </g>
   <g id="text_24">
    <!-- $\mathdefault{60}$ -->
    <g transform="translate(459.302767 73.45) scale(0.1 -0.1)">
     <defs>
      <path id="NotoSans-Regular-36" d="M 352 1952 
Q 352 2349 406 2733 
Q 461 3117 595 3459 
Q 730 3802 966 4067 
Q 1203 4333 1564 4483 
Q 1926 4634 2445 4634 
Q 2579 4634 2742 4621 
Q 2906 4608 3008 4576 
L 3008 4096 
Q 2893 4134 2749 4153 
Q 2605 4173 2458 4173 
Q 2016 4173 1721 4025 
Q 1427 3878 1257 3622 
Q 1088 3366 1011 3033 
Q 934 2701 915 2323 
L 954 2323 
Q 1050 2477 1197 2598 
Q 1344 2720 1552 2790 
Q 1760 2861 2035 2861 
Q 2432 2861 2729 2697 
Q 3027 2534 3193 2224 
Q 3360 1914 3360 1472 
Q 3360 998 3181 652 
Q 3002 307 2678 121 
Q 2355 -64 1907 -64 
Q 1581 -64 1299 57 
Q 1018 179 803 428 
Q 589 678 470 1059 
Q 352 1440 352 1952 
z
M 1901 410 
Q 2304 410 2553 669 
Q 2803 928 2803 1472 
Q 2803 1907 2582 2163 
Q 2362 2419 1920 2419 
Q 1619 2419 1395 2294 
Q 1171 2170 1046 1978 
Q 922 1786 922 1581 
Q 922 1370 982 1165 
Q 1043 960 1168 787 
Q 1293 614 1475 512 
Q 1658 410 1901 410 
z
" transform="scale(0.015625)"/>
     </defs>
     <use xlink:href="#NotoSans-Regular-36" transform="translate(0 0.5)"/>
     <use xlink:href="#NotoSans-Regular-30" transform="translate(57.199997 0.5)"/>
    </g>
   </g>
   <g id="line2d_80">
    <path d="M 431.302767 84.95 
L 441.302767 84.95 
L 451.302767 84.95 
" style="fill: none; stroke: #bd3f69; stroke-linecap: square"/>
   </g>
   <g id="text_25">
    <!-- $\mathdefault{90}$ -->
    <g transform="translate(459.302767 88.45) scale(0.1 -0.1)">
     <defs>
      <path id="NotoSans-Regular-39" d="M 3328 2618 
Q 3328 2227 3273 1840 
Q 3219 1453 3084 1110 
Q 2950 768 2713 502 
Q 2477 237 2112 86 
Q 1747 -64 1229 -64 
Q 1101 -64 931 -48 
Q 762 -32 653 0 
L 653 480 
Q 768 442 921 419 
Q 1075 397 1216 397 
Q 1664 397 1955 544 
Q 2246 691 2419 944 
Q 2592 1197 2669 1533 
Q 2746 1869 2758 2240 
L 2720 2240 
Q 2624 2093 2477 1971 
Q 2330 1850 2122 1779 
Q 1914 1709 1632 1709 
Q 1242 1709 944 1872 
Q 646 2035 483 2342 
Q 320 2650 320 3091 
Q 320 3571 502 3916 
Q 685 4262 1011 4448 
Q 1338 4634 1779 4634 
Q 2106 4634 2387 4509 
Q 2669 4384 2880 4134 
Q 3091 3885 3209 3507 
Q 3328 3130 3328 2618 
z
M 1779 4160 
Q 1382 4160 1129 3897 
Q 877 3635 877 3098 
Q 877 2656 1091 2403 
Q 1306 2150 1754 2150 
Q 2061 2150 2285 2275 
Q 2509 2400 2633 2592 
Q 2758 2784 2758 2989 
Q 2758 3194 2697 3402 
Q 2637 3610 2515 3782 
Q 2394 3955 2208 4057 
Q 2022 4160 1779 4160 
z
" transform="scale(0.015625)"/>
     </defs>
     <use xlink:href="#NotoSans-Regular-39" transform="translate(0 0.5)"/>
     <use xlink:href="#NotoSans-Regular-30" transform="translate(57.199997 0.5)"/>
    </g>
   </g>
   <g id="line2d_81">
    <path d="M 431.302767 99.95 
L 441.302767 99.95 
L 451.302767 99.95 
" style="fill: none; stroke: #8f3371; stroke-linecap: square"/>
   </g>
   <g id="text_26">
    <!-- $\mathdefault{120}$ -->
    <g transform="translate(459.302767 103.45) scale(0.1 -0.1)">
     <use xlink:href="#NotoSans-Regular-31" transform="translate(0 0.5)"/>
     <use xlink:href="#NotoSans-Regular-32" transform="translate(57.199997 0.5)"/>
     <use xlink:href="#NotoSans-Regular-30" transform="translate(114.399994 0.5)"/>
    </g>
   </g>
   <g id="line2d_82">
    <path d="M 431.302767 114.95 
L 441.302767 114.95 
L 451.302767 114.95 
" style="fill: none; stroke: #62296a; stroke-linecap: square"/>
   </g>
   <g id="text_27">
    <!-- $\mathdefault{150}$ -->
    <g transform="translate(459.302767 118.45) scale(0.1 -0.1)">
     <use xlink:href="#NotoSans-Regular-31" transform="translate(0 0.5)"/>
     <use xlink:href="#NotoSans-Regular-35" transform="translate(57.199997 0.5)"/>
     <use xlink:href="#NotoSans-Regular-30" transform="translate(114.399994 0.5)"/>
    </g>
   </g>
  </g>
 </g>
 <defs>
  <clipPath id="p63194f1693">
   <rect x="44.6" y="18.8" width="116.846703" height="103.1"/>
  </clipPath>
  <clipPath id="pd0dbbf928e">
   <rect x="170.718825" y="18.8" width="116.846703" height="103.1"/>
  </clipPath>
  <clipPath id="p0765a040c4">
   <rect x="296.837651" y="18.8" width="116.846703" height="103.1"/>
  </clipPath>
 </defs>
</svg>
