<?xml version="1.0" encoding="utf-8" standalone="no"?>
<!DOCTYPE svg PUBLIC "-//W3C//DTD SVG 1.1//EN"
  "http://www.w3.org/Graphics/SVG/1.1/DTD/svg11.dtd">
<svg xmlns:xlink="http://www.w3.org/1999/xlink" width="487.21875pt" height="156.7pt" viewBox="0 0 487.21875 156.7" xmlns="http://www.w3.org/2000/svg" version="1.1">
 <metadata>
  <rdf:RDF xmlns:dc="http://purl.org/dc/elements/1.1/" xmlns:cc="http://creativecommons.org/ns#" xmlns:rdf="http://www.w3.org/1999/02/22-rdf-syntax-ns#">
   <cc:Work>
    <dc:type rdf:resource="http://purl.org/dc/dcmitype/StillImage"/>
    <dc:date>2024-07-06T12:10:54.437653</dc:date>
    <dc:format>image/svg+xml</dc:format>
    <dc:creator>
     <cc:Agent>
      <dc:title>Matplotlib v3.9.0, https://matplotlib.org/</dc:title>
     </cc:Agent>
    </dc:creator>
   </cc:Work>
  </rdf:RDF>
 </metadata>
 <defs>
  <style type="text/css">*{stroke-linejoin: round; stroke-linecap: butt}</style>
 </defs>
 <g id="figure_1">
  <g id="patch_1">
   <path d="M 0 156.7 
L 487.21875 156.7 
L 487.21875 0 
L 0 0 
z
" style="fill: #ffffff"/>
  </g>
  <g id="axes_1">
   <g id="patch_2">
    <path d="M 30.5 121.9 
L 151.920315 121.9 
L 151.920315 18.8 
L 30.5 18.8 
z
" style="fill: #ffffff"/>
   </g>
   <g id="PolyCollection_1"/>
   <g id="PolyCollection_2"/>
   <g id="PolyCollection_3"/>
   <g id="PolyCollection_4"/>
   <g id="PolyCollection_5"/>
   <g id="PolyCollection_6"/>
   <g id="PolyCollection_7"/>
   <g id="PolyCollection_8"/>
   <g id="matplotlib.axis_1">
    <g id="xtick_1">
     <g id="line2d_1">
      <defs>
       <path id="m7361fb0eb1" d="M 0 0 
L 0 -4 
" style="stroke: #000000; stroke-width: 0.6"/>
      </defs>
      <g>
       <use xlink:href="#m7361fb0eb1" x="36.019105" y="121.9" style="stroke: #000000; stroke-width: 0.6"/>
      </g>
     </g>
     <g id="line2d_2">
      <defs>
       <path id="ma0d63ba654" d="M 0 0 
L 0 4 
" style="stroke: #000000; stroke-width: 0.6"/>
      </defs>
      <g>
       <use xlink:href="#ma0d63ba654" x="36.019105" y="18.8" style="stroke: #000000; stroke-width: 0.6"/>
      </g>
     </g>
     <g id="text_1">
      <!-- $\mathdefault{0}$ -->
      <g transform="translate(33.119105 133) scale(0.1 -0.1)">
       <defs>
        <path id="NotoSans-Regular-30" d="M 3347 2291 
Q 3347 1734 3264 1299 
Q 3181 864 2998 560 
Q 2816 256 2525 96 
Q 2234 -64 1824 -64 
Q 1312 -64 976 217 
Q 640 499 477 1027 
Q 314 1555 314 2291 
Q 314 3034 464 3558 
Q 614 4083 947 4361 
Q 1280 4640 1824 4640 
Q 2336 4640 2675 4361 
Q 3014 4083 3180 3558 
Q 3347 3034 3347 2291 
z
M 877 2291 
Q 877 1664 969 1248 
Q 1062 832 1270 624 
Q 1478 416 1824 416 
Q 2170 416 2378 621 
Q 2586 826 2682 1245 
Q 2778 1664 2778 2291 
Q 2778 2918 2682 3331 
Q 2586 3744 2378 3952 
Q 2170 4160 1824 4160 
Q 1478 4160 1270 3952 
Q 1062 3744 969 3331 
Q 877 2918 877 2291 
z
" transform="scale(0.015625)"/>
       </defs>
       <use xlink:href="#NotoSans-Regular-30" transform="translate(0 0.5)"/>
      </g>
     </g>
    </g>
    <g id="xtick_2">
     <g id="line2d_3">
      <g>
       <use xlink:href="#m7361fb0eb1" x="80.194024" y="121.9" style="stroke: #000000; stroke-width: 0.6"/>
      </g>
     </g>
     <g id="line2d_4">
      <g>
       <use xlink:href="#ma0d63ba654" x="80.194024" y="18.8" style="stroke: #000000; stroke-width: 0.6"/>
      </g>
     </g>
     <g id="text_2">
      <!-- $\mathdefault{2}$ -->
      <g transform="translate(77.294024 133) scale(0.1 -0.1)">
       <defs>
        <path id="NotoSans-Regular-32" d="M 3328 0 
L 307 0 
L 307 467 
L 1504 1677 
Q 1850 2022 2086 2291 
Q 2323 2560 2444 2819 
Q 2566 3078 2566 3386 
Q 2566 3763 2342 3958 
Q 2118 4154 1760 4154 
Q 1427 4154 1174 4038 
Q 922 3923 659 3718 
L 358 4096 
Q 538 4250 752 4371 
Q 966 4493 1219 4563 
Q 1472 4634 1760 4634 
Q 2189 4634 2496 4486 
Q 2803 4339 2972 4067 
Q 3142 3795 3142 3418 
Q 3142 3059 2995 2745 
Q 2848 2432 2585 2128 
Q 2323 1824 1971 1478 
L 1018 538 
L 1018 512 
L 3328 512 
L 3328 0 
z
" transform="scale(0.015625)"/>
       </defs>
       <use xlink:href="#NotoSans-Regular-32" transform="translate(0 0.59375)"/>
      </g>
     </g>
    </g>
    <g id="xtick_3">
     <g id="line2d_5">
      <g>
       <use xlink:href="#m7361fb0eb1" x="124.368942" y="121.9" style="stroke: #000000; stroke-width: 0.6"/>
      </g>
     </g>
     <g id="line2d_6">
      <g>
       <use xlink:href="#ma0d63ba654" x="124.368942" y="18.8" style="stroke: #000000; stroke-width: 0.6"/>
      </g>
     </g>
     <g id="text_3">
      <!-- $\mathdefault{4}$ -->
      <g transform="translate(121.468942 133) scale(0.1 -0.1)">
       <defs>
        <path id="NotoSans-Regular-34" d="M 3533 1037 
L 2867 1037 
L 2867 0 
L 2323 0 
L 2323 1037 
L 134 1037 
L 134 1517 
L 2285 4595 
L 2867 4595 
L 2867 1542 
L 3533 1542 
L 3533 1037 
z
M 2323 2982 
Q 2323 3149 2326 3286 
Q 2330 3424 2336 3545 
Q 2342 3667 2345 3779 
Q 2349 3891 2355 3994 
L 2330 3994 
Q 2278 3872 2201 3731 
Q 2125 3590 2054 3494 
L 685 1542 
L 2323 1542 
L 2323 2982 
z
" transform="scale(0.015625)"/>
       </defs>
       <use xlink:href="#NotoSans-Regular-34" transform="translate(0 0.203125)"/>
      </g>
     </g>
    </g>
    <g id="text_4">
     <!-- $f$ (THz) -->
     <g transform="translate(76.460158 147.1) scale(0.1 -0.1)">
      <defs>
       <path id="NotoSans-Italic-66" d="M -307 -1536 
Q -429 -1536 -531 -1517 
Q -634 -1498 -717 -1472 
L -717 -998 
Q -627 -1024 -544 -1046 
Q -461 -1069 -358 -1069 
Q -128 -1069 0 -880 
Q 128 -691 205 -339 
L 909 3002 
L 314 3002 
L 358 3238 
L 998 3450 
L 1069 3757 
Q 1146 4083 1248 4304 
Q 1350 4525 1488 4656 
Q 1626 4787 1811 4841 
Q 1997 4896 2234 4896 
Q 2394 4896 2563 4861 
Q 2733 4826 2835 4774 
L 2688 4346 
Q 2598 4378 2492 4406 
Q 2387 4435 2259 4435 
Q 2010 4435 1866 4294 
Q 1722 4154 1632 3757 
L 1555 3430 
L 2291 3430 
L 2208 3002 
L 1472 3002 
L 755 -403 
Q 678 -755 547 -1011 
Q 416 -1267 208 -1401 
Q 0 -1536 -307 -1536 
z
" transform="scale(0.015625)"/>
       <path id="NotoSans-Regular-20" transform="scale(0.015625)"/>
       <path id="NotoSans-Regular-28" d="M 256 1754 
Q 256 2278 355 2777 
Q 454 3277 665 3731 
Q 877 4186 1197 4570 
L 1728 4570 
Q 1280 3968 1053 3245 
Q 826 2522 826 1760 
Q 826 1267 928 780 
Q 1030 294 1228 -157 
Q 1427 -608 1722 -1011 
L 1197 -1011 
Q 877 -634 665 -189 
Q 454 256 355 749 
Q 256 1242 256 1754 
z
" transform="scale(0.015625)"/>
       <path id="NotoSans-Regular-54" d="M 2067 0 
L 1491 0 
L 1491 4064 
L 64 4064 
L 64 4570 
L 3488 4570 
L 3488 4064 
L 2067 4064 
L 2067 0 
z
" transform="scale(0.015625)"/>
       <path id="NotoSans-Regular-48" d="M 4115 0 
L 3539 0 
L 3539 2131 
L 1197 2131 
L 1197 0 
L 621 0 
L 621 4570 
L 1197 4570 
L 1197 2637 
L 3539 2637 
L 3539 4570 
L 4115 4570 
L 4115 0 
z
" transform="scale(0.015625)"/>
       <path id="NotoSans-Regular-7a" d="M 2758 0 
L 250 0 
L 250 371 
L 2093 2995 
L 358 2995 
L 358 3430 
L 2714 3430 
L 2714 3008 
L 896 435 
L 2758 435 
L 2758 0 
z
" transform="scale(0.015625)"/>
       <path id="NotoSans-Regular-29" d="M 1664 1754 
Q 1664 1242 1565 749 
Q 1466 256 1258 -189 
Q 1050 -634 723 -1011 
L 198 -1011 
Q 493 -608 691 -157 
Q 890 294 992 780 
Q 1094 1267 1094 1760 
Q 1094 2266 992 2758 
Q 890 3251 691 3712 
Q 493 4173 192 4570 
L 723 4570 
Q 1050 4186 1258 3731 
Q 1466 3277 1565 2777 
Q 1664 2278 1664 1754 
z
" transform="scale(0.015625)"/>
      </defs>
      <use xlink:href="#NotoSans-Italic-66" transform="translate(0 0.5)"/>
      <use xlink:href="#NotoSans-Regular-20" transform="translate(31.799988 0.5)"/>
      <use xlink:href="#NotoSans-Regular-28" transform="translate(57.799973 0.5)"/>
      <use xlink:href="#NotoSans-Regular-54" transform="translate(87.799957 0.5)"/>
      <use xlink:href="#NotoSans-Regular-48" transform="translate(143.399948 0.5)"/>
      <use xlink:href="#NotoSans-Regular-7a" transform="translate(217.499939 0.5)"/>
      <use xlink:href="#NotoSans-Regular-29" transform="translate(264.499924 0.5)"/>
     </g>
    </g>
   </g>
   <g id="matplotlib.axis_2">
    <g id="ytick_1">
     <g id="line2d_7">
      <defs>
       <path id="me58b3dbb4d" d="M 0 0 
L 4 0 
" style="stroke: #000000; stroke-width: 0.6"/>
      </defs>
      <g>
       <use xlink:href="#me58b3dbb4d" x="30.5" y="117.228958" style="stroke: #000000; stroke-width: 0.6"/>
      </g>
     </g>
     <g id="line2d_8">
      <defs>
       <path id="mec22f5eb03" d="M 0 0 
L -4 0 
" style="stroke: #000000; stroke-width: 0.6"/>
      </defs>
      <g>
       <use xlink:href="#mec22f5eb03" x="151.920315" y="117.228958" style="stroke: #000000; stroke-width: 0.6"/>
      </g>
     </g>
     <g id="text_5">
      <!-- $\mathdefault{0}$ -->
      <g transform="translate(21.2 121.028958) scale(0.1 -0.1)">
       <use xlink:href="#NotoSans-Regular-30" transform="translate(0 0.5)"/>
      </g>
     </g>
    </g>
    <g id="ytick_2">
     <g id="line2d_9">
      <g>
       <use xlink:href="#me58b3dbb4d" x="30.5" y="94.895677" style="stroke: #000000; stroke-width: 0.6"/>
      </g>
     </g>
     <g id="line2d_10">
      <g>
       <use xlink:href="#mec22f5eb03" x="151.920315" y="94.895677" style="stroke: #000000; stroke-width: 0.6"/>
      </g>
     </g>
     <g id="text_6">
      <!-- $\mathdefault{1}$ -->
      <g transform="translate(21.2 98.695677) scale(0.1 -0.1)">
       <defs>
        <path id="NotoSans-Regular-31" d="M 2272 0 
L 1722 0 
L 1722 3194 
Q 1722 3379 1725 3507 
Q 1728 3635 1734 3747 
Q 1741 3859 1747 3981 
Q 1645 3878 1561 3808 
Q 1478 3738 1350 3629 
L 864 3232 
L 570 3610 
L 1805 4570 
L 2272 4570 
L 2272 0 
z
" transform="scale(0.015625)"/>
       </defs>
       <use xlink:href="#NotoSans-Regular-31" transform="translate(0 0.59375)"/>
      </g>
     </g>
    </g>
    <g id="ytick_3">
     <g id="line2d_11">
      <g>
       <use xlink:href="#me58b3dbb4d" x="30.5" y="72.562397" style="stroke: #000000; stroke-width: 0.6"/>
      </g>
     </g>
     <g id="line2d_12">
      <g>
       <use xlink:href="#mec22f5eb03" x="151.920315" y="72.562397" style="stroke: #000000; stroke-width: 0.6"/>
      </g>
     </g>
     <g id="text_7">
      <!-- $\mathdefault{2}$ -->
      <g transform="translate(21.2 76.362397) scale(0.1 -0.1)">
       <use xlink:href="#NotoSans-Regular-32" transform="translate(0 0.59375)"/>
      </g>
     </g>
    </g>
    <g id="ytick_4">
     <g id="line2d_13">
      <g>
       <use xlink:href="#me58b3dbb4d" x="30.5" y="50.229116" style="stroke: #000000; stroke-width: 0.6"/>
      </g>
     </g>
     <g id="line2d_14">
      <g>
       <use xlink:href="#mec22f5eb03" x="151.920315" y="50.229116" style="stroke: #000000; stroke-width: 0.6"/>
      </g>
     </g>
     <g id="text_8">
      <!-- $\mathdefault{3}$ -->
      <g transform="translate(21.2 54.029116) scale(0.1 -0.1)">
       <defs>
        <path id="NotoSans-Regular-33" d="M 3155 3501 
Q 3155 3194 3040 2970 
Q 2925 2746 2710 2605 
Q 2496 2464 2208 2406 
L 2208 2381 
Q 2758 2317 3027 2035 
Q 3296 1754 3296 1299 
Q 3296 902 3110 592 
Q 2925 282 2537 109 
Q 2150 -64 1542 -64 
Q 1184 -64 877 -9 
Q 570 45 288 186 
L 288 710 
Q 576 570 909 490 
Q 1242 410 1549 410 
Q 2163 410 2435 650 
Q 2707 890 2707 1312 
Q 2707 1600 2556 1776 
Q 2406 1952 2118 2035 
Q 1830 2118 1427 2118 
L 986 2118 
L 986 2598 
L 1434 2598 
Q 1811 2598 2064 2707 
Q 2317 2816 2448 3011 
Q 2579 3206 2579 3462 
Q 2579 3795 2355 3977 
Q 2131 4160 1747 4160 
Q 1504 4160 1305 4112 
Q 1107 4064 937 3977 
Q 768 3891 595 3776 
L 314 4160 
Q 557 4352 918 4493 
Q 1280 4634 1741 4634 
Q 2458 4634 2806 4314 
Q 3155 3994 3155 3501 
z
" transform="scale(0.015625)"/>
       </defs>
       <use xlink:href="#NotoSans-Regular-33" transform="translate(0 0.59375)"/>
      </g>
     </g>
    </g>
    <g id="ytick_5">
     <g id="line2d_15">
      <g>
       <use xlink:href="#me58b3dbb4d" x="30.5" y="27.895836" style="stroke: #000000; stroke-width: 0.6"/>
      </g>
     </g>
     <g id="line2d_16">
      <g>
       <use xlink:href="#mec22f5eb03" x="151.920315" y="27.895836" style="stroke: #000000; stroke-width: 0.6"/>
      </g>
     </g>
     <g id="text_9">
      <!-- $\mathdefault{4}$ -->
      <g transform="translate(21.2 31.695836) scale(0.1 -0.1)">
       <use xlink:href="#NotoSans-Regular-34" transform="translate(0 0.203125)"/>
      </g>
     </g>
    </g>
    <g id="text_10">
     <!-- $E$ (norm.) -->
     <g transform="translate(14.8 91.45) rotate(-90) scale(0.1 -0.1)">
      <defs>
       <path id="NotoSans-Italic-45" d="M 262 0 
L 1229 4570 
L 3546 4570 
L 3437 4064 
L 1690 4064 
L 1389 2637 
L 3021 2637 
L 2925 2138 
L 1286 2138 
L 934 506 
L 2688 506 
L 2579 0 
L 262 0 
z
" transform="scale(0.015625)"/>
       <path id="NotoSans-Regular-6e" d="M 2195 3494 
Q 2810 3494 3123 3196 
Q 3437 2899 3437 2234 
L 3437 0 
L 2880 0 
L 2880 2195 
Q 2880 2611 2694 2816 
Q 2509 3021 2112 3021 
Q 1542 3021 1324 2701 
Q 1107 2381 1107 1779 
L 1107 0 
L 544 0 
L 544 3430 
L 998 3430 
L 1082 2963 
L 1114 2963 
Q 1229 3142 1398 3260 
Q 1568 3379 1773 3436 
Q 1978 3494 2195 3494 
z
" transform="scale(0.015625)"/>
       <path id="NotoSans-Regular-6f" d="M 3526 1722 
Q 3526 1293 3414 963 
Q 3302 634 3094 403 
Q 2886 173 2588 54 
Q 2291 -64 1926 -64 
Q 1587 -64 1299 54 
Q 1011 173 800 403 
Q 589 634 470 963 
Q 352 1293 352 1722 
Q 352 2291 544 2684 
Q 736 3078 1094 3286 
Q 1453 3494 1946 3494 
Q 2413 3494 2768 3286 
Q 3123 3078 3324 2684 
Q 3526 2291 3526 1722 
z
M 934 1722 
Q 934 1318 1040 1020 
Q 1146 723 1370 563 
Q 1594 403 1939 403 
Q 2285 403 2509 563 
Q 2733 723 2838 1020 
Q 2944 1318 2944 1722 
Q 2944 2131 2835 2419 
Q 2726 2707 2505 2864 
Q 2285 3021 1933 3021 
Q 1408 3021 1171 2675 
Q 934 2330 934 1722 
z
" transform="scale(0.015625)"/>
       <path id="NotoSans-Regular-72" d="M 2144 3494 
Q 2240 3494 2352 3484 
Q 2464 3475 2547 3456 
L 2477 2938 
Q 2394 2957 2294 2969 
Q 2195 2982 2106 2982 
Q 1907 2982 1728 2899 
Q 1549 2816 1408 2665 
Q 1267 2515 1187 2304 
Q 1107 2093 1107 1830 
L 1107 0 
L 544 0 
L 544 3430 
L 1005 3430 
L 1069 2803 
L 1094 2803 
Q 1203 2995 1356 3152 
Q 1510 3309 1708 3401 
Q 1907 3494 2144 3494 
z
" transform="scale(0.015625)"/>
       <path id="NotoSans-Regular-6d" d="M 4307 3494 
Q 4890 3494 5178 3196 
Q 5466 2899 5466 2234 
L 5466 0 
L 4909 0 
L 4909 2208 
Q 4909 2611 4739 2816 
Q 4570 3021 4211 3021 
Q 3712 3021 3497 2733 
Q 3283 2445 3283 1894 
L 3283 0 
L 2726 0 
L 2726 2208 
Q 2726 2477 2649 2659 
Q 2573 2842 2419 2931 
Q 2266 3021 2022 3021 
Q 1677 3021 1478 2877 
Q 1280 2733 1193 2457 
Q 1107 2182 1107 1779 
L 1107 0 
L 544 0 
L 544 3430 
L 998 3430 
L 1082 2963 
L 1114 2963 
Q 1222 3142 1379 3260 
Q 1536 3379 1728 3436 
Q 1920 3494 2125 3494 
Q 2522 3494 2787 3353 
Q 3053 3213 3174 2918 
L 3206 2918 
Q 3379 3213 3676 3353 
Q 3974 3494 4307 3494 
z
" transform="scale(0.015625)"/>
       <path id="NotoSans-Regular-2e" d="M 461 346 
Q 461 582 576 678 
Q 691 774 851 774 
Q 1018 774 1136 678 
Q 1254 582 1254 346 
Q 1254 115 1136 12 
Q 1018 -90 851 -90 
Q 691 -90 576 12 
Q 461 115 461 346 
z
" transform="scale(0.015625)"/>
      </defs>
      <use xlink:href="#NotoSans-Italic-45" transform="translate(0 0.59375)"/>
      <use xlink:href="#NotoSans-Regular-20" transform="translate(51.399994 0.59375)"/>
      <use xlink:href="#NotoSans-Regular-28" transform="translate(77.399979 0.59375)"/>
      <use xlink:href="#NotoSans-Regular-6e" transform="translate(107.399963 0.59375)"/>
      <use xlink:href="#NotoSans-Regular-6f" transform="translate(169.199951 0.59375)"/>
      <use xlink:href="#NotoSans-Regular-72" transform="translate(229.699936 0.59375)"/>
      <use xlink:href="#NotoSans-Regular-6d" transform="translate(270.999924 0.59375)"/>
      <use xlink:href="#NotoSans-Regular-2e" transform="translate(364.499908 0.59375)"/>
      <use xlink:href="#NotoSans-Regular-29" transform="translate(391.299896 0.59375)"/>
     </g>
    </g>
   </g>
   <g id="line2d_17">
    <path d="M 36.019105 115.043052 
L 36.571016 114.865203 
L 37.674837 114.238265 
L 38.226747 114.302095 
L 38.778658 114.739105 
L 39.330568 115.347708 
L 39.882479 115.637602 
L 40.434389 115.387808 
L 40.9863 114.943967 
L 41.53821 114.284127 
L 42.090121 113.185875 
L 44.297763 107.421095 
L 44.849674 105.503083 
L 46.505405 98.872434 
L 47.609226 94.882539 
L 52.576421 75.076157 
L 53.680242 71.077524 
L 54.232153 69.693531 
L 55.887884 67.85354 
L 56.439795 68.177805 
L 56.991705 70.822121 
L 57.543616 75.442295 
L 58.095526 78.665871 
L 58.647437 76.013218 
L 60.303168 50.67824 
L 60.855079 45.396047 
L 61.9589 38.453689 
L 62.51081 35.811418 
L 64.166542 30.380012 
L 65.270363 24.535984 
L 65.822274 23.486364 
L 66.374184 24.40403 
L 66.926095 26.136089 
L 67.478005 27.499576 
L 68.029916 28.519231 
L 68.581826 30.049213 
L 69.685647 34.857451 
L 70.237558 36.572537 
L 70.789468 37.902573 
L 71.341379 40.190673 
L 71.893289 44.326228 
L 72.99711 54.882439 
L 73.549021 58.667765 
L 74.652842 64.858151 
L 75.756663 73.750768 
L 77.964305 91.630441 
L 78.516216 95.510855 
L 79.068126 98.475104 
L 81.275768 107.106943 
L 81.827679 109.038772 
L 82.379589 110.381197 
L 82.9315 111.19009 
L 84.035321 112.423687 
L 85.139142 113.832163 
L 85.691052 114.210894 
L 86.242963 114.215034 
L 86.794873 114.105437 
L 87.346784 114.210876 
L 87.898694 114.667976 
L 89.002516 116.015364 
L 89.554426 116.231536 
L 90.106337 115.982444 
L 90.658247 115.567335 
L 91.210158 115.294848 
L 91.762068 115.446112 
L 92.313979 116.020143 
L 92.865889 116.237376 
L 93.4178 115.648965 
L 93.96971 115.386081 
L 95.073531 116.265003 
L 96.177352 114.889124 
L 96.729263 114.877823 
L 97.281173 115.234002 
L 97.833084 115.135687 
L 98.384994 114.607959 
L 98.936905 114.34537 
L 99.488815 114.527124 
L 100.040726 114.849227 
L 100.592637 114.878057 
L 102.248368 114.079002 
L 102.800279 113.935977 
L 103.352189 113.668878 
L 105.007921 112.46782 
L 105.559831 112.501229 
L 107.215563 113.423229 
L 108.319384 113.676868 
L 109.423205 114.311029 
L 109.975115 114.376386 
L 111.078936 114.138078 
L 111.630847 114.328162 
L 112.734668 115.187163 
L 113.286579 115.309308 
L 113.838489 115.283627 
L 114.3904 115.43777 
L 115.494221 116.145967 
L 116.046131 116.005444 
L 116.598042 115.707958 
L 117.149952 115.653207 
L 118.253773 115.977555 
L 119.357594 115.709241 
L 119.909505 116.006224 
L 120.461415 116.632279 
L 121.013326 117.027437 
L 121.565236 116.602119 
L 122.117147 116.444367 
L 123.220968 116.641256 
L 123.772879 116.927779 
L 124.324789 116.999178 
L 124.8767 116.564356 
L 125.42861 116.386425 
L 125.980521 116.642566 
L 126.532431 117.200789 
L 127.084342 116.552231 
L 127.636252 116.189351 
L 128.188163 116.282506 
L 128.740073 116.675033 
L 129.291984 116.794688 
L 129.843894 116.640297 
L 130.395805 116.745859 
L 130.947715 117.067909 
L 131.499626 117.062999 
L 132.603447 116.843888 
L 133.155357 116.83827 
L 133.707268 116.993972 
L 134.259178 116.987355 
L 134.811089 116.54545 
L 135.363 116.283234 
L 135.91491 116.393718 
L 136.466821 116.8116 
L 137.018731 116.988166 
L 137.570642 116.738875 
L 138.674463 116.635262 
L 139.226373 116.386835 
L 139.778284 116.299579 
L 140.330194 116.514356 
L 140.882105 116.871053 
L 141.434015 116.85144 
L 141.985926 116.651616 
L 143.089747 116.500432 
L 144.193568 116.154221 
L 144.745478 116.181241 
L 145.297389 116.431917 
L 146.40121 117.191859 
L 146.40121 117.191859 
" clip-path="url(#p06ef568108)" style="fill: none; stroke: #edb081; stroke-linecap: square"/>
   </g>
   <g id="line2d_18">
    <path d="M 36.019105 114.59288 
L 36.571016 114.372747 
L 37.122926 114.026822 
L 37.674837 113.980591 
L 39.330568 114.846546 
L 39.882479 115.093002 
L 40.434389 115.583331 
L 40.9863 115.079476 
L 41.53821 113.529104 
L 42.090121 112.331287 
L 42.642032 111.831734 
L 43.193942 111.019926 
L 44.849674 104.974096 
L 45.401584 103.474032 
L 47.057316 96.515604 
L 48.161137 93.791542 
L 50.368779 84.740755 
L 52.02451 77.32957 
L 52.576421 75.646788 
L 54.232153 69.409769 
L 55.335974 68.49903 
L 55.887884 67.6585 
L 56.439795 67.654862 
L 56.991705 69.799429 
L 57.543616 73.294022 
L 58.095526 74.987042 
L 58.647437 72.12905 
L 60.855079 46.138211 
L 61.406989 42.755079 
L 63.062721 35.298164 
L 64.166542 30.946636 
L 65.270363 25.811829 
L 65.822274 24.456148 
L 66.374184 24.838692 
L 67.478005 27.631956 
L 68.029916 28.611172 
L 68.581826 29.966552 
L 70.237558 36.937425 
L 70.789468 38.415421 
L 71.341379 40.595827 
L 71.893289 44.544397 
L 72.99711 55.200008 
L 73.549021 59.249376 
L 74.652842 65.613122 
L 75.756663 74.372615 
L 77.412395 87.803698 
L 78.516216 94.817874 
L 80.723858 104.874447 
L 81.275768 107.078965 
L 81.827679 108.728204 
L 82.9315 111.021647 
L 84.035321 112.832146 
L 85.139142 113.780172 
L 86.242963 114.741625 
L 87.346784 115.706201 
L 87.898694 115.99719 
L 88.450605 116.138427 
L 89.554426 116.022949 
L 90.658247 115.77977 
L 91.210158 115.849102 
L 92.313979 116.328789 
L 92.865889 116.25054 
L 93.4178 116.051609 
L 93.96971 116.029274 
L 94.521621 116.131647 
L 95.073531 116.054569 
L 96.177352 115.661168 
L 96.729263 115.624084 
L 97.281173 115.395287 
L 98.384994 114.618908 
L 100.040726 114.378849 
L 101.144547 113.958295 
L 102.800279 113.929201 
L 106.111742 112.850448 
L 107.215563 112.960915 
L 108.319384 113.065289 
L 108.871294 113.113059 
L 109.423205 113.349742 
L 111.078936 114.598199 
L 112.734668 114.650302 
L 113.838489 115.250633 
L 114.3904 115.551236 
L 115.494221 115.665073 
L 116.046131 115.72049 
L 117.149952 116.130091 
L 118.253773 116.57576 
L 119.357594 116.767735 
L 121.565236 116.634998 
L 122.117147 116.712416 
L 123.772879 116.615256 
L 124.8767 117.180592 
L 125.980521 116.78822 
L 128.188163 116.7969 
L 129.291984 117.057513 
L 130.395805 116.932948 
L 130.947715 117.078904 
L 131.499626 117.069757 
L 132.051536 116.871531 
L 132.603447 116.816017 
L 134.259178 117.112204 
L 135.363 117.050841 
L 137.018731 116.995335 
L 139.226373 116.925198 
L 140.882105 116.945451 
L 141.985926 116.636449 
L 143.089747 116.712996 
L 144.193568 116.860721 
L 145.849299 116.970585 
L 146.40121 116.88063 
L 146.40121 116.88063 
" clip-path="url(#p06ef568108)" style="fill: none; stroke: #eca77b; stroke-linecap: square"/>
   </g>
   <g id="line2d_19">
    <path d="M 36.019105 114.447752 
L 37.122926 114.354856 
L 37.674837 114.552719 
L 38.778658 115.363084 
L 40.434389 116.058978 
L 40.9863 115.133206 
L 42.090121 112.548733 
L 42.642032 111.784276 
L 43.193942 110.740989 
L 43.745853 108.864786 
L 44.849674 104.463011 
L 49.264958 88.649426 
L 52.02451 77.338217 
L 54.232153 69.88565 
L 55.335974 68.78016 
L 55.887884 67.870663 
L 56.439795 67.704116 
L 56.991705 69.090101 
L 57.543616 71.122922 
L 58.095526 71.383988 
L 58.647437 68.152772 
L 60.303168 49.979449 
L 60.855079 45.870459 
L 61.9589 40.792215 
L 64.166542 32.097929 
L 65.270363 26.576163 
L 65.822274 25.365676 
L 66.374184 25.862122 
L 67.478005 28.40672 
L 68.029916 29.304223 
L 68.581826 30.59779 
L 71.341379 41.469589 
L 71.893289 45.284681 
L 73.549021 59.542295 
L 74.652842 65.939154 
L 75.756663 74.557487 
L 77.412395 88.721203 
L 78.516216 95.328608 
L 81.275768 107.787347 
L 81.827679 109.344469 
L 82.9315 111.47662 
L 84.035321 113.195612 
L 85.139142 114.150543 
L 86.794873 115.381976 
L 87.346784 115.619685 
L 87.898694 115.697058 
L 89.554426 115.568456 
L 90.658247 115.834374 
L 91.762068 115.607944 
L 95.073531 116.004765 
L 95.625442 115.9267 
L 98.384994 114.703434 
L 98.936905 114.448054 
L 99.488815 114.368749 
L 101.144547 114.455343 
L 101.696458 114.297999 
L 102.800279 113.622937 
L 103.352189 113.460788 
L 105.007921 113.549085 
L 106.111742 113.372891 
L 107.215563 113.258496 
L 107.767473 113.140751 
L 108.319384 113.144248 
L 108.871294 113.357045 
L 109.975115 113.979897 
L 111.078936 114.157547 
L 112.182758 114.282341 
L 113.286579 114.674157 
L 115.494221 115.73046 
L 116.598042 116.279766 
L 118.805684 116.629435 
L 121.013326 117.079372 
L 122.669057 116.86158 
L 123.772879 117.133555 
L 125.42861 117.041689 
L 127.084342 116.89859 
L 128.188163 116.866288 
L 130.395805 116.986848 
L 131.499626 116.858103 
L 132.603447 117.140962 
L 134.259178 116.755049 
L 134.811089 116.830951 
L 135.91491 117.14258 
L 137.018731 116.73234 
L 138.122552 116.82924 
L 139.226373 116.942094 
L 139.778284 116.973482 
L 140.330194 117.126615 
L 140.882105 117.052619 
L 141.985926 116.566381 
L 142.537836 116.56709 
L 143.641657 117.079079 
L 144.745478 116.587407 
L 145.297389 116.519399 
L 146.40121 116.8328 
L 146.40121 116.8328 
" clip-path="url(#p06ef568108)" style="fill: none; stroke: #eb9c75; stroke-linecap: square"/>
   </g>
   <g id="line2d_20">
    <path d="M 36.019105 115.093329 
L 37.674837 114.984937 
L 38.778658 115.422339 
L 39.882479 115.624849 
L 40.434389 115.839016 
L 40.9863 115.358329 
L 42.090121 112.715135 
L 43.193942 110.583061 
L 43.745853 108.7716 
L 45.953495 100.039931 
L 47.057316 95.908905 
L 48.161137 92.617816 
L 49.816868 85.975273 
L 53.680242 71.21067 
L 54.232153 70.215207 
L 54.784063 69.820383 
L 55.335974 68.869276 
L 55.887884 67.249417 
L 56.439795 66.076678 
L 56.991705 65.767592 
L 57.543616 65.06038 
L 58.095526 62.487752 
L 59.751258 50.167617 
L 60.303168 47.172059 
L 60.855079 44.793893 
L 61.406989 43.047275 
L 63.062721 38.934047 
L 63.614631 37.199018 
L 64.166542 35.067425 
L 65.270363 30.092206 
L 65.822274 28.950114 
L 66.374184 29.450472 
L 67.478005 32.136711 
L 68.029916 33.117191 
L 68.581826 34.538844 
L 70.237558 41.621963 
L 70.789468 43.080968 
L 71.341379 45.094754 
L 71.893289 48.721991 
L 72.99711 58.791051 
L 73.549021 62.692427 
L 74.652842 68.564401 
L 75.756663 76.876727 
L 76.860484 85.762859 
L 77.964305 92.988374 
L 79.068126 98.467042 
L 80.723858 104.898406 
L 81.827679 108.31303 
L 83.48341 111.830031 
L 84.035321 112.794135 
L 84.587231 113.453727 
L 85.691052 114.070132 
L 86.794873 114.751491 
L 87.898694 115.454037 
L 89.002516 115.72836 
L 91.210158 115.885856 
L 93.4178 116.217867 
L 96.177352 115.47994 
L 99.488815 114.436959 
L 101.144547 114.217013 
L 102.800279 113.574866 
L 105.007921 113.336284 
L 107.215563 113.473512 
L 108.319384 113.462797 
L 109.423205 113.867245 
L 110.527026 114.199562 
L 111.630847 114.353607 
L 112.734668 114.831517 
L 113.838489 115.397584 
L 114.94231 115.650662 
L 116.598042 115.994465 
L 120.461415 116.88131 
L 121.565236 116.979382 
L 123.772879 117.056529 
L 125.42861 117.153853 
L 128.188163 117.101203 
L 130.947715 117.213636 
L 133.155357 116.787406 
L 137.570642 116.873392 
L 138.674463 116.658028 
L 146.40121 116.766478 
L 146.40121 116.766478 
" clip-path="url(#p06ef568108)" style="fill: none; stroke: #e67560; stroke-linecap: square"/>
   </g>
   <g id="line2d_21">
    <path d="M 36.019105 115.272029 
L 37.122926 115.12894 
L 37.674837 115.23283 
L 38.778658 115.848913 
L 40.434389 116.065152 
L 40.9863 115.486913 
L 43.745853 108.348516 
L 47.057316 95.555121 
L 48.161137 92.638819 
L 49.264958 88.350325 
L 53.128331 73.437234 
L 53.680242 71.363806 
L 54.232153 70.229702 
L 54.784063 69.565926 
L 55.335974 68.083292 
L 56.439795 63.266752 
L 56.991705 61.506606 
L 57.543616 59.272651 
L 58.095526 55.576377 
L 59.199347 47.258992 
L 59.751258 44.784886 
L 60.303168 43.272174 
L 60.855079 42.191645 
L 62.51081 39.62765 
L 63.614631 36.967663 
L 64.166542 35.282514 
L 65.270363 31.170199 
L 65.822274 30.379086 
L 66.374184 31.231633 
L 67.478005 34.45483 
L 68.029916 35.593171 
L 68.581826 37.224877 
L 70.237558 45.013448 
L 70.789468 46.554302 
L 71.341379 48.719494 
L 71.893289 52.583691 
L 72.99711 62.778153 
L 73.549021 66.429208 
L 74.652842 72.017932 
L 75.756663 80.227537 
L 76.860484 88.411694 
L 77.964305 94.948603 
L 79.068126 99.734304 
L 81.275768 107.322429 
L 82.379589 109.84613 
L 84.035321 112.822782 
L 84.587231 113.467819 
L 87.346784 115.367378 
L 87.898694 115.618908 
L 88.450605 115.670573 
L 90.106337 115.3717 
L 91.210158 115.564354 
L 92.313979 115.924362 
L 92.865889 115.939104 
L 95.625442 115.344429 
L 97.833084 114.797475 
L 100.040726 114.427197 
L 101.696458 114.121129 
L 102.800279 113.764446 
L 103.9041 113.663861 
L 108.319384 113.931155 
L 109.423205 114.255836 
L 110.527026 114.656531 
L 112.734668 115.039003 
L 114.94231 115.834833 
L 116.598042 116.224214 
L 117.701863 116.498395 
L 127.084342 117.101605 
L 131.499626 117.041635 
L 132.051536 117.115511 
L 134.259178 116.97633 
L 137.018731 116.942564 
L 140.882105 116.704156 
L 146.40121 116.99439 
L 146.40121 116.99439 
" clip-path="url(#p06ef568108)" style="fill: none; stroke: #d14a61; stroke-linecap: square"/>
   </g>
   <g id="line2d_22">
    <path d="M 36.019105 115.331172 
L 37.122926 115.38361 
L 38.226747 115.740714 
L 39.882479 116.332084 
L 40.434389 116.397139 
L 40.9863 115.55691 
L 42.642032 111.70303 
L 43.193942 110.377124 
L 44.297763 106.280153 
L 47.057316 95.526944 
L 48.161137 92.518213 
L 49.816868 85.949197 
L 53.128331 73.202694 
L 53.680242 71.00196 
L 54.232153 69.60795 
L 54.784063 68.580533 
L 55.335974 66.687849 
L 56.439795 60.910406 
L 57.543616 55.950416 
L 59.199347 44.226967 
L 59.751258 42.317007 
L 60.303168 41.501076 
L 61.9589 39.996837 
L 62.51081 39.233458 
L 63.614631 37.062546 
L 64.166542 35.499039 
L 65.270363 31.729164 
L 65.822274 31.159942 
L 66.374184 32.174469 
L 67.478005 35.810837 
L 68.029916 37.260835 
L 68.581826 39.09734 
L 70.237558 46.923999 
L 70.789468 48.688646 
L 71.341379 51.078909 
L 71.893289 55.025805 
L 72.99711 65.090104 
L 73.549021 68.749538 
L 74.652842 74.413803 
L 75.756663 82.318845 
L 76.860484 90.011038 
L 77.964305 96.177424 
L 79.068126 100.637316 
L 81.275768 107.547644 
L 82.379589 109.916356 
L 84.035321 112.831072 
L 84.587231 113.480136 
L 87.898694 115.716856 
L 88.450605 115.778871 
L 90.106337 115.330415 
L 91.210158 115.535443 
L 92.313979 115.601983 
L 94.521621 115.306687 
L 96.729263 114.603959 
L 97.833084 114.337505 
L 100.040726 114.164883 
L 103.352189 113.559536 
L 106.663652 113.593862 
L 108.871294 113.739899 
L 110.527026 114.45535 
L 112.182758 114.751442 
L 114.3904 115.582399 
L 117.701863 116.359373 
L 120.461415 116.905586 
L 122.669057 117.050721 
L 123.772879 117.108676 
L 126.532431 117.12312 
L 128.188163 117.170931 
L 132.603447 117.09956 
L 136.466821 116.998629 
L 138.122552 117.064919 
L 140.330194 116.915997 
L 144.745478 116.91098 
L 146.40121 116.842943 
L 146.40121 116.842943 
" clip-path="url(#p06ef568108)" style="fill: none; stroke: #a1386f; stroke-linecap: square"/>
   </g>
   <g id="line2d_23">
    <path d="M 36.019105 115.409803 
L 37.122926 115.385011 
L 37.674837 115.479747 
L 40.434389 116.507058 
L 40.9863 115.74524 
L 42.642032 111.58612 
L 43.193942 110.190314 
L 44.297763 106.021855 
L 45.953495 99.062863 
L 46.505405 96.676118 
L 47.057316 94.787819 
L 48.161137 91.66939 
L 50.920689 80.370721 
L 52.02451 76.23299 
L 52.576421 74.242633 
L 53.680242 69.374825 
L 55.335974 64.435669 
L 56.439795 58.195033 
L 57.543616 52.954446 
L 59.199347 41.479313 
L 59.751258 39.972634 
L 60.303168 39.540042 
L 60.855079 39.338117 
L 61.406989 39.012888 
L 61.9589 38.518859 
L 63.062721 36.932285 
L 63.614631 35.909512 
L 64.166542 34.562528 
L 65.270363 31.269711 
L 65.822274 30.930174 
L 66.374184 32.147423 
L 67.478005 36.058791 
L 68.029916 37.610766 
L 68.581826 39.549672 
L 70.237558 47.715789 
L 70.789468 49.637365 
L 71.341379 52.169894 
L 71.893289 56.206886 
L 72.99711 66.366733 
L 73.549021 70.114719 
L 74.652842 75.953356 
L 77.412395 94.354646 
L 78.516216 99.542542 
L 79.620037 103.397353 
L 80.723858 106.902747 
L 81.275768 108.360638 
L 82.379589 110.454683 
L 84.035321 113.25406 
L 84.587231 113.798317 
L 87.898694 115.538467 
L 88.450605 115.59408 
L 90.106337 115.357543 
L 93.4178 115.46108 
L 97.281173 114.412253 
L 100.592637 113.981107 
L 103.352189 113.441562 
L 105.559831 113.398043 
L 108.871294 113.833295 
L 110.527026 114.422007 
L 112.734668 114.961066 
L 115.494221 115.945825 
L 118.805684 116.65807 
L 121.013326 116.84639 
L 125.42861 117.122864 
L 128.188163 117.027744 
L 130.395805 117.039759 
L 146.40121 116.89862 
L 146.40121 116.89862 
" clip-path="url(#p06ef568108)" style="fill: none; stroke: #722c6e; stroke-linecap: square"/>
   </g>
   <g id="line2d_24">
    <path d="M 36.019105 115.456247 
L 37.674837 115.127159 
L 38.778658 115.749259 
L 40.434389 115.915569 
L 40.9863 115.382183 
L 43.193942 109.794714 
L 44.297763 105.532721 
L 45.953495 98.786759 
L 47.057316 94.399397 
L 48.161137 91.318366 
L 50.920689 80.239488 
L 52.02451 75.94853 
L 52.576421 74.028289 
L 53.680242 69.105165 
L 54.232153 67.447205 
L 54.784063 66.172939 
L 55.335974 63.943144 
L 56.439795 57.446401 
L 57.543616 52.320648 
L 59.199347 40.901928 
L 59.751258 39.528974 
L 60.303168 39.275279 
L 60.855079 39.156754 
L 61.406989 38.806807 
L 61.9589 38.2777 
L 63.062721 36.691925 
L 63.614631 35.665918 
L 64.166542 34.348423 
L 65.270363 31.155147 
L 65.822274 30.840455 
L 66.374184 32.129139 
L 67.478005 36.336779 
L 68.581826 39.852422 
L 70.789468 50.368568 
L 71.341379 52.946156 
L 71.893289 57.005665 
L 72.99711 67.390175 
L 73.549021 71.225043 
L 74.652842 76.970137 
L 75.756663 84.83842 
L 76.860484 92.287715 
L 77.964305 97.939777 
L 79.068126 102.164011 
L 80.723858 107.062964 
L 81.275768 108.453326 
L 82.379589 110.41396 
L 84.035321 112.853588 
L 84.587231 113.322327 
L 86.242963 114.029022 
L 87.346784 114.998442 
L 88.450605 115.988227 
L 89.002516 116.24913 
L 89.554426 116.22956 
L 90.658247 115.949739 
L 91.762068 116.050952 
L 92.865889 116.106707 
L 94.521621 115.823793 
L 96.729263 115.227023 
L 98.936905 114.874998 
L 100.040726 114.667396 
L 101.144547 114.569853 
L 102.800279 114.180023 
L 105.007921 114.288227 
L 106.111742 114.315351 
L 107.215563 114.454146 
L 108.319384 114.432966 
L 109.423205 114.775026 
L 110.527026 115.05538 
L 113.838489 115.298213 
L 118.253773 115.866181 
L 120.461415 115.95571 
L 122.669057 116.181912 
L 127.084342 116.620895 
L 128.188163 116.517093 
L 137.018731 116.737651 
L 146.40121 116.426498 
L 146.40121 116.426498 
" clip-path="url(#p06ef568108)" style="fill: none; stroke: #4b2362; stroke-linecap: square"/>
   </g>
   <g id="line2d_25"/>
   <g id="line2d_26"/>
   <g id="line2d_27"/>
   <g id="line2d_28"/>
   <g id="line2d_29"/>
   <g id="patch_3">
    <path d="M 30.5 121.9 
L 30.5 18.8 
" style="fill: none; stroke: #000000; stroke-width: 0.6; stroke-linejoin: miter; stroke-linecap: square"/>
   </g>
   <g id="patch_4">
    <path d="M 151.920315 121.9 
L 151.920315 18.8 
" style="fill: none; stroke: #000000; stroke-width: 0.6; stroke-linejoin: miter; stroke-linecap: square"/>
   </g>
   <g id="patch_5">
    <path d="M 30.5 121.9 
L 151.920315 121.9 
" style="fill: none; stroke: #000000; stroke-width: 0.6; stroke-linejoin: miter; stroke-linecap: square"/>
   </g>
   <g id="patch_6">
    <path d="M 30.5 18.8 
L 151.920315 18.8 
" style="fill: none; stroke: #000000; stroke-width: 0.6; stroke-linejoin: miter; stroke-linecap: square"/>
   </g>
   <g id="text_11">
    <!-- $T$ = 3 K -->
    <g transform="translate(75.960158 14.8) scale(0.1 -0.1)">
     <defs>
      <path id="NotoSans-Italic-54" d="M 973 0 
L 1830 4064 
L 576 4064 
L 685 4570 
L 3770 4570 
L 3667 4064 
L 2413 4064 
L 1549 0 
L 973 0 
z
" transform="scale(0.015625)"/>
      <path id="NotoSans-Regular-3d" d="M 358 2662 
L 358 3117 
L 3290 3117 
L 3290 2662 
L 358 2662 
z
M 358 1389 
L 358 1843 
L 3290 1843 
L 3290 1389 
L 358 1389 
z
" transform="scale(0.015625)"/>
      <path id="NotoSans-Regular-4b" d="M 3962 0 
L 3283 0 
L 1664 2182 
L 1197 1773 
L 1197 0 
L 621 0 
L 621 4570 
L 1197 4570 
L 1197 2317 
Q 1389 2534 1587 2752 
Q 1786 2970 1984 3187 
L 3219 4570 
L 3891 4570 
L 2080 2579 
L 3962 0 
z
" transform="scale(0.015625)"/>
     </defs>
     <use xlink:href="#NotoSans-Italic-54" transform="translate(0 0.59375)"/>
     <use xlink:href="#NotoSans-Regular-20" transform="translate(50.099991 0.59375)"/>
     <use xlink:href="#NotoSans-Regular-3d" transform="translate(76.099976 0.59375)"/>
     <use xlink:href="#NotoSans-Regular-20" transform="translate(133.299973 0.59375)"/>
     <use xlink:href="#NotoSans-Regular-33" transform="translate(159.299957 0.59375)"/>
     <use xlink:href="#NotoSans-Regular-20" transform="translate(216.499954 0.59375)"/>
     <use xlink:href="#NotoSans-Regular-4b" transform="translate(242.499939 0.59375)"/>
    </g>
   </g>
  </g>
  <g id="axes_2">
   <g id="patch_7">
    <path d="M 161.240011 121.9 
L 282.660326 121.9 
L 282.660326 18.8 
L 161.240011 18.8 
z
" style="fill: #ffffff"/>
   </g>
   <g id="PolyCollection_9"/>
   <g id="PolyCollection_10"/>
   <g id="PolyCollection_11"/>
   <g id="PolyCollection_12"/>
   <g id="PolyCollection_13"/>
   <g id="PolyCollection_14"/>
   <g id="PolyCollection_15"/>
   <g id="PolyCollection_16"/>
   <g id="matplotlib.axis_3">
    <g id="xtick_4">
     <g id="line2d_30">
      <g>
       <use xlink:href="#m7361fb0eb1" x="166.759116" y="121.9" style="stroke: #000000; stroke-width: 0.6"/>
      </g>
     </g>
     <g id="line2d_31">
      <g>
       <use xlink:href="#ma0d63ba654" x="166.759116" y="18.8" style="stroke: #000000; stroke-width: 0.6"/>
      </g>
     </g>
     <g id="text_12">
      <!-- $\mathdefault{0}$ -->
      <g transform="translate(163.859116 133) scale(0.1 -0.1)">
       <use xlink:href="#NotoSans-Regular-30" transform="translate(0 0.5)"/>
      </g>
     </g>
    </g>
    <g id="xtick_5">
     <g id="line2d_32">
      <g>
       <use xlink:href="#m7361fb0eb1" x="210.934034" y="121.9" style="stroke: #000000; stroke-width: 0.6"/>
      </g>
     </g>
     <g id="line2d_33">
      <g>
       <use xlink:href="#ma0d63ba654" x="210.934034" y="18.8" style="stroke: #000000; stroke-width: 0.6"/>
      </g>
     </g>
     <g id="text_13">
      <!-- $\mathdefault{2}$ -->
      <g transform="translate(208.034034 133) scale(0.1 -0.1)">
       <use xlink:href="#NotoSans-Regular-32" transform="translate(0 0.59375)"/>
      </g>
     </g>
    </g>
    <g id="xtick_6">
     <g id="line2d_34">
      <g>
       <use xlink:href="#m7361fb0eb1" x="255.108953" y="121.9" style="stroke: #000000; stroke-width: 0.6"/>
      </g>
     </g>
     <g id="line2d_35">
      <g>
       <use xlink:href="#ma0d63ba654" x="255.108953" y="18.8" style="stroke: #000000; stroke-width: 0.6"/>
      </g>
     </g>
     <g id="text_14">
      <!-- $\mathdefault{4}$ -->
      <g transform="translate(252.208953 133) scale(0.1 -0.1)">
       <use xlink:href="#NotoSans-Regular-34" transform="translate(0 0.203125)"/>
      </g>
     </g>
    </g>
    <g id="text_15">
     <!-- $f$ (THz) -->
     <g transform="translate(207.200168 147.1) scale(0.1 -0.1)">
      <use xlink:href="#NotoSans-Italic-66" transform="translate(0 0.5)"/>
      <use xlink:href="#NotoSans-Regular-20" transform="translate(31.799988 0.5)"/>
      <use xlink:href="#NotoSans-Regular-28" transform="translate(57.799973 0.5)"/>
      <use xlink:href="#NotoSans-Regular-54" transform="translate(87.799957 0.5)"/>
      <use xlink:href="#NotoSans-Regular-48" transform="translate(143.399948 0.5)"/>
      <use xlink:href="#NotoSans-Regular-7a" transform="translate(217.499939 0.5)"/>
      <use xlink:href="#NotoSans-Regular-29" transform="translate(264.499924 0.5)"/>
     </g>
    </g>
   </g>
   <g id="matplotlib.axis_4">
    <g id="ytick_6">
     <g id="line2d_36">
      <g>
       <use xlink:href="#me58b3dbb4d" x="161.240011" y="117.228958" style="stroke: #000000; stroke-width: 0.6"/>
      </g>
     </g>
     <g id="line2d_37">
      <g>
       <use xlink:href="#mec22f5eb03" x="282.660326" y="117.228958" style="stroke: #000000; stroke-width: 0.6"/>
      </g>
     </g>
    </g>
    <g id="ytick_7">
     <g id="line2d_38">
      <g>
       <use xlink:href="#me58b3dbb4d" x="161.240011" y="94.895677" style="stroke: #000000; stroke-width: 0.6"/>
      </g>
     </g>
     <g id="line2d_39">
      <g>
       <use xlink:href="#mec22f5eb03" x="282.660326" y="94.895677" style="stroke: #000000; stroke-width: 0.6"/>
      </g>
     </g>
    </g>
    <g id="ytick_8">
     <g id="line2d_40">
      <g>
       <use xlink:href="#me58b3dbb4d" x="161.240011" y="72.562397" style="stroke: #000000; stroke-width: 0.6"/>
      </g>
     </g>
     <g id="line2d_41">
      <g>
       <use xlink:href="#mec22f5eb03" x="282.660326" y="72.562397" style="stroke: #000000; stroke-width: 0.6"/>
      </g>
     </g>
    </g>
    <g id="ytick_9">
     <g id="line2d_42">
      <g>
       <use xlink:href="#me58b3dbb4d" x="161.240011" y="50.229116" style="stroke: #000000; stroke-width: 0.6"/>
      </g>
     </g>
     <g id="line2d_43">
      <g>
       <use xlink:href="#mec22f5eb03" x="282.660326" y="50.229116" style="stroke: #000000; stroke-width: 0.6"/>
      </g>
     </g>
    </g>
    <g id="ytick_10">
     <g id="line2d_44">
      <g>
       <use xlink:href="#me58b3dbb4d" x="161.240011" y="27.895836" style="stroke: #000000; stroke-width: 0.6"/>
      </g>
     </g>
     <g id="line2d_45">
      <g>
       <use xlink:href="#mec22f5eb03" x="282.660326" y="27.895836" style="stroke: #000000; stroke-width: 0.6"/>
      </g>
     </g>
    </g>
   </g>
   <g id="line2d_46">
    <path d="M 166.759116 115.184481 
L 167.311026 114.59503 
L 167.862937 113.810369 
L 168.414848 113.693952 
L 168.966758 114.356182 
L 169.518669 115.469437 
L 170.070579 116.238547 
L 171.1744 115.672642 
L 171.726311 115.148526 
L 173.382042 110.834888 
L 173.933953 110.020459 
L 174.485863 108.927333 
L 175.037774 107.167461 
L 177.245416 98.374798 
L 178.349237 95.519592 
L 178.901147 93.526376 
L 182.212611 78.691519 
L 183.316432 75.535303 
L 184.420253 70.896793 
L 184.972163 69.602737 
L 186.075984 68.88162 
L 186.627895 68.313139 
L 187.179805 68.796254 
L 187.731716 71.086288 
L 188.283626 73.88088 
L 188.835537 74.412239 
L 189.387447 71.192704 
L 190.491268 58.687717 
L 191.59509 47.122489 
L 192.147 43.260775 
L 192.698911 40.542871 
L 194.906553 32.054828 
L 196.010374 26.250531 
L 196.562284 24.603777 
L 197.114195 25.003353 
L 198.769926 30.653957 
L 199.321837 31.788968 
L 199.873747 33.417058 
L 202.081389 42.056867 
L 202.6333 45.578281 
L 204.289032 60.272785 
L 205.944763 70.635671 
L 208.152405 89.244625 
L 208.704316 92.777999 
L 209.256226 95.52726 
L 210.911958 102.034583 
L 212.015779 107.220594 
L 212.567689 109.093932 
L 213.67151 111.130594 
L 215.327242 114.183169 
L 215.879153 114.713672 
L 216.982974 115.218832 
L 218.086795 115.972955 
L 218.638705 115.987376 
L 219.742526 115.762843 
L 220.846347 115.051531 
L 221.398258 114.999373 
L 222.502079 115.742572 
L 223.6059 115.173529 
L 224.15781 115.41214 
L 224.709721 115.812763 
L 225.261631 115.743129 
L 225.813542 115.529295 
L 226.365453 115.682871 
L 226.917363 116.044314 
L 227.469274 115.915309 
L 228.573095 114.905467 
L 229.676916 114.488128 
L 231.332647 114.052516 
L 231.884558 113.528113 
L 232.436468 112.84349 
L 232.988379 112.384157 
L 233.540289 112.314479 
L 236.299842 113.224466 
L 237.955574 113.068685 
L 241.267037 114.04651 
L 241.818947 114.394313 
L 242.370858 114.546811 
L 244.026589 114.298454 
L 244.5785 114.575431 
L 245.682321 115.600817 
L 246.234231 115.902971 
L 247.889963 115.683844 
L 248.441873 115.87831 
L 249.545695 116.823473 
L 250.097605 116.875277 
L 250.649516 116.419619 
L 251.201426 116.184768 
L 251.753337 116.267948 
L 252.857158 116.873331 
L 253.960979 116.354829 
L 254.512889 116.353844 
L 255.61671 116.928088 
L 256.168621 116.933181 
L 256.720531 116.792269 
L 257.824352 116.965022 
L 258.928173 116.773658 
L 260.031994 117.072466 
L 260.583905 116.62089 
L 261.135816 116.336895 
L 261.687726 116.318565 
L 262.791547 116.580112 
L 263.895368 116.556431 
L 264.999189 116.860933 
L 265.5511 117.082147 
L 266.10301 116.693511 
L 267.206831 115.732707 
L 267.758742 115.563016 
L 268.310652 115.70721 
L 269.414473 116.510737 
L 269.966384 116.473182 
L 270.518294 116.16861 
L 271.070205 116.02277 
L 271.622115 116.119143 
L 273.277847 116.832212 
L 274.381668 116.860178 
L 276.0374 116.815498 
L 276.58931 116.952648 
L 277.141221 117.20776 
L 277.141221 117.20776 
" clip-path="url(#p95a9255ed0)" style="fill: none; stroke: #edb081; stroke-linecap: square"/>
   </g>
   <g id="line2d_47">
    <path d="M 166.759116 114.441164 
L 168.414848 113.94046 
L 168.966758 114.252818 
L 170.070579 115.420455 
L 170.62249 115.777887 
L 171.1744 115.690841 
L 171.726311 114.930153 
L 173.382042 111.24704 
L 173.933953 110.194262 
L 174.485863 108.791771 
L 175.589684 104.846648 
L 177.245416 98.48624 
L 178.901147 93.452776 
L 183.868342 73.35645 
L 184.420253 71.5277 
L 184.972163 70.413598 
L 186.075984 69.046547 
L 186.627895 68.161648 
L 187.179805 68.166864 
L 187.731716 69.753558 
L 188.283626 71.925384 
L 188.835537 72.215437 
L 189.387447 69.024232 
L 191.59509 47.03083 
L 192.147 43.380945 
L 192.698911 40.629857 
L 194.906553 31.885734 
L 196.010374 26.444343 
L 196.562284 25.515279 
L 197.114195 26.244613 
L 198.218016 29.204587 
L 198.769926 30.294055 
L 199.321837 31.799253 
L 200.977568 39.136677 
L 201.529479 40.571931 
L 202.081389 42.517059 
L 202.6333 46.187247 
L 204.289032 61.040396 
L 205.392853 66.921389 
L 205.944763 70.80624 
L 207.600495 84.803496 
L 208.704316 92.01473 
L 209.808137 97.881255 
L 212.015779 107.393982 
L 212.567689 109.367729 
L 213.1196 110.817555 
L 214.223421 112.667281 
L 215.327242 113.985373 
L 215.879153 114.283483 
L 216.982974 114.603274 
L 218.638705 115.712566 
L 219.190616 115.856752 
L 220.294437 115.737862 
L 221.398258 115.606855 
L 221.950168 115.6798 
L 223.053989 116.149031 
L 223.6059 116.429735 
L 224.15781 116.491716 
L 225.261631 116.18554 
L 226.365453 116.05813 
L 226.917363 115.850632 
L 229.125005 114.605017 
L 231.332647 114.0447 
L 232.436468 113.4296 
L 232.988379 113.301374 
L 234.64411 113.49553 
L 236.299842 112.785321 
L 236.851752 112.846388 
L 237.955574 113.098578 
L 239.059395 112.808991 
L 239.611305 112.860754 
L 241.267037 113.812924 
L 242.922768 114.013219 
L 244.026589 114.771913 
L 245.13041 115.425484 
L 246.234231 115.641694 
L 247.338052 115.782144 
L 248.441873 116.116923 
L 249.545695 116.447152 
L 251.201426 116.13615 
L 252.305247 116.446028 
L 253.960979 117.094924 
L 255.0648 116.90806 
L 256.720531 116.896852 
L 257.272442 116.752868 
L 257.824352 116.728693 
L 259.480084 117.120957 
L 262.791547 116.909753 
L 263.895368 117.017632 
L 265.5511 117.000296 
L 266.654921 117.002908 
L 267.758742 116.933623 
L 268.862563 117.148765 
L 269.966384 116.92645 
L 271.070205 116.953042 
L 271.622115 117.060769 
L 272.174026 117.000684 
L 273.277847 116.583576 
L 273.829758 116.555974 
L 274.933579 116.721719 
L 276.58931 116.555364 
L 277.141221 116.588494 
L 277.141221 116.588494 
" clip-path="url(#p95a9255ed0)" style="fill: none; stroke: #eca77b; stroke-linecap: square"/>
   </g>
   <g id="line2d_48">
    <path d="M 166.759116 114.29093 
L 167.862937 113.963152 
L 168.414848 114.038825 
L 169.518669 114.863065 
L 170.070579 115.034982 
L 171.726311 115.015694 
L 172.278221 114.073002 
L 174.485863 108.685624 
L 175.589684 104.712709 
L 177.797326 96.258023 
L 178.349237 94.855371 
L 178.901147 93.059716 
L 180.556879 85.784136 
L 181.6607 81.594565 
L 182.764521 76.965292 
L 184.972163 69.088774 
L 186.075984 68.193033 
L 186.627895 67.532365 
L 187.179805 67.47061 
L 188.283626 69.868793 
L 188.835537 69.312962 
L 189.387447 65.945232 
L 191.043179 50.246804 
L 191.59509 46.41804 
L 192.147 43.679767 
L 194.906553 33.366292 
L 196.010374 28.084704 
L 196.562284 26.716266 
L 197.114195 27.040777 
L 198.218016 29.8051 
L 198.769926 30.766411 
L 199.321837 32.009133 
L 199.873747 34.172067 
L 200.977568 39.046495 
L 201.529479 40.619031 
L 202.081389 42.728091 
L 202.6333 46.556068 
L 203.737121 57.272754 
L 204.289032 61.229067 
L 205.392853 66.822405 
L 205.944763 70.722785 
L 207.600495 84.737562 
L 208.704316 92.204744 
L 209.808137 97.872876 
L 212.567689 109.09663 
L 213.67151 111.375541 
L 214.775332 113.299559 
L 215.327242 113.983871 
L 218.086795 115.810599 
L 218.638705 115.988527 
L 219.190616 115.941643 
L 220.846347 115.217654 
L 221.398258 115.300809 
L 222.502079 115.955752 
L 223.053989 115.970723 
L 224.15781 115.617196 
L 225.813542 115.77277 
L 226.917363 115.226843 
L 228.021184 114.662687 
L 229.125005 114.365115 
L 231.884558 113.774075 
L 232.988379 113.375803 
L 234.0922 113.256042 
L 235.196021 113.128004 
L 236.299842 112.978557 
L 237.955574 113.142392 
L 239.059395 112.931525 
L 239.611305 113.063313 
L 240.715126 113.692766 
L 242.922768 114.388617 
L 244.026589 114.954609 
L 245.13041 115.439128 
L 246.234231 116.020862 
L 247.338052 116.240601 
L 248.993784 116.333428 
L 251.201426 116.721705 
L 253.960979 116.733341 
L 257.272442 117.006711 
L 258.928173 117.154127 
L 262.239637 116.854062 
L 264.447279 117.102286 
L 266.10301 116.854586 
L 267.758742 116.977985 
L 269.414473 116.840328 
L 272.725937 116.750857 
L 273.829758 116.632282 
L 274.933579 116.962931 
L 275.485489 117.180618 
L 277.141221 116.78437 
L 277.141221 116.78437 
" clip-path="url(#p95a9255ed0)" style="fill: none; stroke: #eb9c75; stroke-linecap: square"/>
   </g>
   <g id="line2d_49">
    <path d="M 166.759116 115.213256 
L 168.414848 114.871658 
L 171.1744 115.755003 
L 171.726311 115.233428 
L 173.933953 110.370777 
L 175.589684 104.300863 
L 177.797326 96.038686 
L 178.901147 92.837377 
L 181.10879 83.904994 
L 182.212611 79.062219 
L 183.868342 72.938728 
L 184.420253 70.850758 
L 184.972163 69.779746 
L 185.524074 69.35474 
L 186.075984 68.406552 
L 187.179805 65.399636 
L 187.731716 64.684225 
L 188.283626 63.505878 
L 188.835537 60.703717 
L 190.491268 48.791637 
L 191.043179 45.985446 
L 191.59509 43.903966 
L 193.802732 38.288727 
L 194.354642 36.813599 
L 194.906553 35.005426 
L 196.010374 30.211092 
L 196.562284 29.109395 
L 197.114195 29.783782 
L 198.218016 32.865737 
L 198.769926 33.880547 
L 199.321837 35.291312 
L 200.977568 42.459496 
L 201.529479 43.939325 
L 202.081389 46.006048 
L 202.6333 49.721186 
L 203.737121 59.829693 
L 204.289032 63.60554 
L 205.392853 69.222517 
L 206.496674 77.420502 
L 207.600495 86.203461 
L 208.704316 93.207261 
L 209.808137 98.332541 
L 212.015779 106.965967 
L 212.567689 108.540991 
L 213.67151 110.806436 
L 214.775332 112.775841 
L 215.327242 113.475008 
L 216.431063 114.317977 
L 218.086795 115.41874 
L 218.638705 115.579016 
L 219.742526 115.49589 
L 220.846347 115.460386 
L 224.15781 115.982421 
L 225.261631 115.803638 
L 226.917363 115.20847 
L 228.021184 114.819706 
L 232.436468 113.642134 
L 233.540289 113.25023 
L 235.196021 113.10443 
L 238.507484 113.174006 
L 239.611305 113.448768 
L 242.370858 114.393896 
L 244.026589 115.028577 
L 245.682321 115.740186 
L 247.338052 116.051545 
L 248.993784 116.479046 
L 251.201426 116.585233 
L 252.857158 116.926337 
L 255.0648 117.080156 
L 256.168621 117.152035 
L 260.583905 116.973947 
L 262.239637 116.929219 
L 272.174026 117.017393 
L 273.277847 116.961103 
L 274.381668 116.91162 
L 277.141221 117.064853 
L 277.141221 117.064853 
" clip-path="url(#p95a9255ed0)" style="fill: none; stroke: #e67560; stroke-linecap: square"/>
   </g>
   <g id="line2d_50">
    <path d="M 166.759116 115.116126 
L 167.862937 114.924353 
L 168.414848 115.028102 
L 169.518669 115.672551 
L 171.1744 115.892092 
L 171.726311 115.42322 
L 173.933953 110.162799 
L 175.037774 106.246644 
L 178.349237 93.85352 
L 178.901147 92.138543 
L 182.764521 76.985531 
L 183.868342 73.062961 
L 184.420253 70.987797 
L 184.972163 69.738807 
L 185.524074 68.997256 
L 186.075984 67.562569 
L 188.283626 58.399963 
L 188.835537 54.691465 
L 189.939358 46.359629 
L 190.491268 43.850475 
L 191.043179 42.447166 
L 192.147 40.899329 
L 192.698911 40.116898 
L 193.802732 37.936081 
L 194.354642 36.683653 
L 194.906553 35.074031 
L 196.010374 30.997602 
L 196.562284 30.29784 
L 197.114195 31.248256 
L 198.218016 34.641131 
L 198.769926 35.859149 
L 199.321837 37.488056 
L 200.977568 45.017347 
L 201.529479 46.666285 
L 202.081389 48.944356 
L 202.6333 52.830232 
L 203.737121 62.94414 
L 204.289032 66.624368 
L 205.392853 72.217252 
L 206.496674 80.262135 
L 207.600495 88.400269 
L 208.704316 94.978522 
L 209.808137 99.828854 
L 212.015779 107.535 
L 212.567689 108.995467 
L 214.223421 112.104156 
L 214.775332 113.004353 
L 215.327242 113.641217 
L 218.086795 115.510476 
L 218.638705 115.633112 
L 220.846347 115.277694 
L 221.950168 115.654846 
L 223.053989 115.731079 
L 224.15781 115.579477 
L 225.813542 115.181942 
L 226.917363 114.84261 
L 228.021184 114.472485 
L 229.125005 114.387438 
L 232.988379 113.524766 
L 236.299842 113.314291 
L 237.955574 113.500977 
L 239.059395 113.617702 
L 247.338052 116.224632 
L 250.097605 116.643985 
L 251.753337 116.799283 
L 253.960979 117.063906 
L 259.480084 117.100848 
L 260.583905 117.186917 
L 263.895368 117.000726 
L 271.622115 116.952041 
L 273.277847 116.973232 
L 276.0374 117.07977 
L 277.141221 117.06066 
L 277.141221 117.06066 
" clip-path="url(#p95a9255ed0)" style="fill: none; stroke: #d14a61; stroke-linecap: square"/>
   </g>
   <g id="line2d_51">
    <path d="M 166.759116 115.152753 
L 167.862937 115.263067 
L 168.966758 115.774536 
L 169.518669 116.022723 
L 170.62249 116.222286 
L 171.1744 116.140761 
L 171.726311 115.252577 
L 173.933953 109.842175 
L 175.037774 105.766227 
L 176.693505 98.979785 
L 177.797326 94.701065 
L 178.901147 91.432723 
L 182.764521 76.310294 
L 183.316432 74.45047 
L 184.420253 69.933901 
L 184.972163 68.503709 
L 185.524074 67.452442 
L 186.075984 65.537403 
L 187.179805 59.703453 
L 188.283626 54.675302 
L 189.939358 43.021443 
L 190.491268 41.193205 
L 191.043179 40.494635 
L 192.147 39.769085 
L 192.698911 39.189363 
L 193.802732 37.422398 
L 194.354642 36.333455 
L 194.906553 34.871484 
L 196.010374 31.228421 
L 196.562284 30.759247 
L 197.114195 31.899652 
L 198.218016 35.692296 
L 198.769926 37.145915 
L 199.321837 38.968786 
L 200.977568 46.940505 
L 201.529479 48.825325 
L 202.081389 51.306518 
L 202.6333 55.293925 
L 203.737121 65.39699 
L 204.289032 69.092472 
L 205.392853 74.741609 
L 206.496674 82.564053 
L 207.600495 90.18989 
L 208.704316 96.253296 
L 209.808137 100.837538 
L 212.015779 107.849838 
L 213.1196 110.231804 
L 214.775332 113.257102 
L 215.327242 113.886159 
L 218.086795 115.656975 
L 218.638705 115.773366 
L 219.190616 115.657124 
L 220.294437 115.215411 
L 220.846347 115.141135 
L 221.950168 115.374132 
L 223.053989 115.590829 
L 224.15781 115.451913 
L 228.573095 114.452373 
L 231.884558 113.879428 
L 233.540289 113.498581 
L 236.299842 113.38809 
L 239.611305 113.858413 
L 241.267037 114.554915 
L 242.922768 115.000077 
L 245.682321 116.029034 
L 247.338052 116.430087 
L 249.545695 116.69671 
L 256.720531 116.954059 
L 258.928173 117.084984 
L 262.791547 116.997557 
L 273.829758 117.033839 
L 277.141221 117.060142 
L 277.141221 117.060142 
" clip-path="url(#p95a9255ed0)" style="fill: none; stroke: #a1386f; stroke-linecap: square"/>
   </g>
   <g id="line2d_52">
    <path d="M 166.759116 115.442535 
L 167.862937 115.463753 
L 168.966758 115.836432 
L 170.070579 116.18809 
L 171.1744 116.299801 
L 171.726311 115.456013 
L 174.485863 108.089285 
L 176.141595 101.488781 
L 177.245416 96.611374 
L 178.349237 93.103286 
L 178.901147 91.322021 
L 184.972163 67.137073 
L 185.524074 65.857868 
L 186.075984 63.667493 
L 187.179805 57.319032 
L 188.283626 51.967357 
L 189.939358 40.700592 
L 190.491268 39.164452 
L 191.043179 38.806035 
L 191.59509 38.770445 
L 192.147 38.563148 
L 192.698911 38.068258 
L 193.802732 36.476826 
L 194.354642 35.519449 
L 194.906553 34.203355 
L 196.010374 30.969979 
L 196.562284 30.743838 
L 197.114195 32.082229 
L 198.218016 36.129001 
L 198.769926 37.743469 
L 199.321837 39.748674 
L 200.977568 47.977543 
L 201.529479 49.98922 
L 202.081389 52.63737 
L 202.6333 56.743782 
L 203.737121 66.862927 
L 204.289032 70.590835 
L 205.392853 76.427193 
L 208.152405 94.790439 
L 209.256226 99.804565 
L 210.360047 103.588683 
L 211.463868 106.933736 
L 212.567689 109.546577 
L 214.223421 112.548896 
L 214.775332 113.354642 
L 215.327242 113.896944 
L 218.086795 115.441141 
L 218.638705 115.585532 
L 219.190616 115.541322 
L 220.294437 115.238192 
L 220.846347 115.192481 
L 223.6059 115.480038 
L 225.813542 114.966547 
L 229.125005 114.127041 
L 230.780737 113.835745 
L 234.0922 113.277862 
L 235.747931 113.33175 
L 236.851752 113.329149 
L 239.611305 113.652875 
L 241.267037 114.395935 
L 243.474679 115.009292 
L 245.682321 115.841296 
L 248.441873 116.544854 
L 250.649516 116.857875 
L 252.857158 117.004453 
L 257.824352 117.050451 
L 260.031994 117.122881 
L 277.141221 117.01158 
L 277.141221 117.01158 
" clip-path="url(#p95a9255ed0)" style="fill: none; stroke: #722c6e; stroke-linecap: square"/>
   </g>
   <g id="line2d_53">
    <path d="M 166.759116 114.82435 
L 167.862937 114.613589 
L 168.414848 114.694132 
L 169.518669 115.264682 
L 170.62249 115.248889 
L 171.1744 115.212597 
L 171.726311 114.573905 
L 174.485863 107.247564 
L 176.141595 100.565436 
L 177.245416 95.752717 
L 178.349237 92.353217 
L 178.901147 90.656862 
L 183.868342 70.797782 
L 184.420253 68.312623 
L 186.075984 62.916585 
L 187.179805 56.495715 
L 188.283626 51.151822 
L 189.939358 40.141963 
L 190.491268 38.815939 
L 191.043179 38.669417 
L 191.59509 38.765393 
L 192.147 38.591586 
L 192.698911 38.098222 
L 194.354642 35.846334 
L 194.906553 34.672932 
L 196.010374 31.751442 
L 196.562284 31.710165 
L 197.114195 33.235093 
L 198.218016 37.557308 
L 198.769926 39.244136 
L 199.321837 41.301729 
L 200.977568 49.741612 
L 201.529479 51.851572 
L 202.081389 54.600289 
L 202.6333 58.799243 
L 203.737121 69.026865 
L 204.289032 72.738623 
L 205.392853 78.409205 
L 208.152405 95.869318 
L 209.256226 100.553111 
L 210.360047 103.97617 
L 212.015779 108.341775 
L 213.1196 110.216907 
L 214.775332 112.62102 
L 215.327242 113.082751 
L 216.982974 113.947467 
L 219.190616 116.042229 
L 219.742526 116.218012 
L 221.398258 115.992627 
L 223.053989 116.313281 
L 224.709721 116.055755 
L 226.917363 115.417669 
L 228.573095 114.99394 
L 230.228826 114.727909 
L 231.884558 114.426272 
L 234.0922 114.133243 
L 236.851752 114.298788 
L 239.611305 114.592351 
L 241.267037 115.15828 
L 246.786142 115.908659 
L 248.441873 115.964587 
L 250.097605 116.047539 
L 251.753337 116.193812 
L 256.168621 116.752108 
L 257.824352 116.853707 
L 260.031994 116.749219 
L 261.687726 116.822821 
L 263.343458 116.88456 
L 265.5511 116.883893 
L 273.277847 116.868607 
L 277.141221 116.792166 
L 277.141221 116.792166 
" clip-path="url(#p95a9255ed0)" style="fill: none; stroke: #4b2362; stroke-linecap: square"/>
   </g>
   <g id="patch_8">
    <path d="M 161.240011 121.9 
L 161.240011 18.8 
" style="fill: none; stroke: #000000; stroke-width: 0.6; stroke-linejoin: miter; stroke-linecap: square"/>
   </g>
   <g id="patch_9">
    <path d="M 282.660326 121.9 
L 282.660326 18.8 
" style="fill: none; stroke: #000000; stroke-width: 0.6; stroke-linejoin: miter; stroke-linecap: square"/>
   </g>
   <g id="patch_10">
    <path d="M 161.240011 121.9 
L 282.660326 121.9 
" style="fill: none; stroke: #000000; stroke-width: 0.6; stroke-linejoin: miter; stroke-linecap: square"/>
   </g>
   <g id="patch_11">
    <path d="M 161.240011 18.8 
L 282.660326 18.8 
" style="fill: none; stroke: #000000; stroke-width: 0.6; stroke-linejoin: miter; stroke-linecap: square"/>
   </g>
   <g id="text_16">
    <!-- $T$ = 50 K -->
    <g transform="translate(203.850168 14.8) scale(0.1 -0.1)">
     <defs>
      <path id="NotoSans-Regular-35" d="M 1760 2803 
Q 2227 2803 2572 2643 
Q 2918 2483 3107 2185 
Q 3296 1888 3296 1459 
Q 3296 986 3091 643 
Q 2886 301 2505 118 
Q 2125 -64 1587 -64 
Q 1235 -64 924 0 
Q 614 64 403 186 
L 403 717 
Q 634 576 963 496 
Q 1293 416 1594 416 
Q 1933 416 2185 521 
Q 2438 627 2579 848 
Q 2720 1069 2720 1402 
Q 2720 1850 2445 2090 
Q 2170 2330 1574 2330 
Q 1395 2330 1164 2298 
Q 934 2266 794 2234 
L 512 2413 
L 685 4570 
L 2976 4570 
L 2976 4058 
L 1165 4058 
L 1056 2733 
Q 1165 2752 1350 2777 
Q 1536 2803 1760 2803 
z
" transform="scale(0.015625)"/>
     </defs>
     <use xlink:href="#NotoSans-Italic-54" transform="translate(0 0.5)"/>
     <use xlink:href="#NotoSans-Regular-20" transform="translate(50.099991 0.5)"/>
     <use xlink:href="#NotoSans-Regular-3d" transform="translate(76.099976 0.5)"/>
     <use xlink:href="#NotoSans-Regular-20" transform="translate(133.299973 0.5)"/>
     <use xlink:href="#NotoSans-Regular-35" transform="translate(159.299957 0.5)"/>
     <use xlink:href="#NotoSans-Regular-30" transform="translate(216.499954 0.5)"/>
     <use xlink:href="#NotoSans-Regular-20" transform="translate(273.699951 0.5)"/>
     <use xlink:href="#NotoSans-Regular-4b" transform="translate(299.699936 0.5)"/>
    </g>
   </g>
  </g>
  <g id="axes_3">
   <g id="patch_12">
    <path d="M 291.980021 121.9 
L 413.400337 121.9 
L 413.400337 18.8 
L 291.980021 18.8 
z
" style="fill: #ffffff"/>
   </g>
   <g id="PolyCollection_17"/>
   <g id="PolyCollection_18"/>
   <g id="PolyCollection_19"/>
   <g id="PolyCollection_20"/>
   <g id="PolyCollection_21"/>
   <g id="PolyCollection_22"/>
   <g id="PolyCollection_23"/>
   <g id="PolyCollection_24"/>
   <g id="matplotlib.axis_5">
    <g id="xtick_7">
     <g id="line2d_54">
      <g>
       <use xlink:href="#m7361fb0eb1" x="297.499127" y="121.9" style="stroke: #000000; stroke-width: 0.6"/>
      </g>
     </g>
     <g id="line2d_55">
      <g>
       <use xlink:href="#ma0d63ba654" x="297.499127" y="18.8" style="stroke: #000000; stroke-width: 0.6"/>
      </g>
     </g>
     <g id="text_17">
      <!-- $\mathdefault{0}$ -->
      <g transform="translate(294.599127 133) scale(0.1 -0.1)">
       <use xlink:href="#NotoSans-Regular-30" transform="translate(0 0.5)"/>
      </g>
     </g>
    </g>
    <g id="xtick_8">
     <g id="line2d_56">
      <g>
       <use xlink:href="#m7361fb0eb1" x="341.674045" y="121.9" style="stroke: #000000; stroke-width: 0.6"/>
      </g>
     </g>
     <g id="line2d_57">
      <g>
       <use xlink:href="#ma0d63ba654" x="341.674045" y="18.8" style="stroke: #000000; stroke-width: 0.6"/>
      </g>
     </g>
     <g id="text_18">
      <!-- $\mathdefault{2}$ -->
      <g transform="translate(338.774045 133) scale(0.1 -0.1)">
       <use xlink:href="#NotoSans-Regular-32" transform="translate(0 0.59375)"/>
      </g>
     </g>
    </g>
    <g id="xtick_9">
     <g id="line2d_58">
      <g>
       <use xlink:href="#m7361fb0eb1" x="385.848963" y="121.9" style="stroke: #000000; stroke-width: 0.6"/>
      </g>
     </g>
     <g id="line2d_59">
      <g>
       <use xlink:href="#ma0d63ba654" x="385.848963" y="18.8" style="stroke: #000000; stroke-width: 0.6"/>
      </g>
     </g>
     <g id="text_19">
      <!-- $\mathdefault{4}$ -->
      <g transform="translate(382.948963 133) scale(0.1 -0.1)">
       <use xlink:href="#NotoSans-Regular-34" transform="translate(0 0.203125)"/>
      </g>
     </g>
    </g>
    <g id="text_20">
     <!-- $f$ (THz) -->
     <g transform="translate(337.940179 147.1) scale(0.1 -0.1)">
      <use xlink:href="#NotoSans-Italic-66" transform="translate(0 0.5)"/>
      <use xlink:href="#NotoSans-Regular-20" transform="translate(31.799988 0.5)"/>
      <use xlink:href="#NotoSans-Regular-28" transform="translate(57.799973 0.5)"/>
      <use xlink:href="#NotoSans-Regular-54" transform="translate(87.799957 0.5)"/>
      <use xlink:href="#NotoSans-Regular-48" transform="translate(143.399948 0.5)"/>
      <use xlink:href="#NotoSans-Regular-7a" transform="translate(217.499939 0.5)"/>
      <use xlink:href="#NotoSans-Regular-29" transform="translate(264.499924 0.5)"/>
     </g>
    </g>
   </g>
   <g id="matplotlib.axis_6">
    <g id="ytick_11">
     <g id="line2d_60">
      <g>
       <use xlink:href="#me58b3dbb4d" x="291.980021" y="117.228958" style="stroke: #000000; stroke-width: 0.6"/>
      </g>
     </g>
     <g id="line2d_61">
      <g>
       <use xlink:href="#mec22f5eb03" x="413.400337" y="117.228958" style="stroke: #000000; stroke-width: 0.6"/>
      </g>
     </g>
    </g>
    <g id="ytick_12">
     <g id="line2d_62">
      <g>
       <use xlink:href="#me58b3dbb4d" x="291.980021" y="94.895677" style="stroke: #000000; stroke-width: 0.6"/>
      </g>
     </g>
     <g id="line2d_63">
      <g>
       <use xlink:href="#mec22f5eb03" x="413.400337" y="94.895677" style="stroke: #000000; stroke-width: 0.6"/>
      </g>
     </g>
    </g>
    <g id="ytick_13">
     <g id="line2d_64">
      <g>
       <use xlink:href="#me58b3dbb4d" x="291.980021" y="72.562397" style="stroke: #000000; stroke-width: 0.6"/>
      </g>
     </g>
     <g id="line2d_65">
      <g>
       <use xlink:href="#mec22f5eb03" x="413.400337" y="72.562397" style="stroke: #000000; stroke-width: 0.6"/>
      </g>
     </g>
    </g>
    <g id="ytick_14">
     <g id="line2d_66">
      <g>
       <use xlink:href="#me58b3dbb4d" x="291.980021" y="50.229116" style="stroke: #000000; stroke-width: 0.6"/>
      </g>
     </g>
     <g id="line2d_67">
      <g>
       <use xlink:href="#mec22f5eb03" x="413.400337" y="50.229116" style="stroke: #000000; stroke-width: 0.6"/>
      </g>
     </g>
    </g>
    <g id="ytick_15">
     <g id="line2d_68">
      <g>
       <use xlink:href="#me58b3dbb4d" x="291.980021" y="27.895836" style="stroke: #000000; stroke-width: 0.6"/>
      </g>
     </g>
     <g id="line2d_69">
      <g>
       <use xlink:href="#mec22f5eb03" x="413.400337" y="27.895836" style="stroke: #000000; stroke-width: 0.6"/>
      </g>
     </g>
    </g>
   </g>
   <g id="line2d_70">
    <path d="M 297.499127 115.634447 
L 298.051037 115.782487 
L 298.602948 116.206952 
L 299.154858 116.832332 
L 299.706769 116.924189 
L 300.258679 116.339548 
L 300.81059 116.017186 
L 301.914411 115.935531 
L 302.466321 114.972411 
L 303.570142 112.273017 
L 304.122053 111.216086 
L 304.673963 109.864645 
L 305.777785 106.166366 
L 306.881606 103.541535 
L 307.433516 101.673908 
L 308.537337 97.123864 
L 309.641158 94.096453 
L 310.744979 90.964247 
L 311.8488 87.153947 
L 312.952621 82.717364 
L 315.160263 75.770576 
L 316.815995 69.91698 
L 317.919816 65.017623 
L 319.023637 61.347773 
L 320.127458 56.284874 
L 320.679369 54.743679 
L 321.231279 54.129965 
L 322.3351 53.293656 
L 322.887011 53.25762 
L 323.990832 54.364945 
L 324.542742 54.581972 
L 325.094653 54.542833 
L 325.646563 54.358805 
L 326.198474 53.835213 
L 326.750384 53.100811 
L 327.302295 52.93669 
L 327.854205 54.000037 
L 330.613758 64.332278 
L 331.717579 69.509174 
L 332.8214 73.762381 
L 333.925221 80.439144 
L 334.477132 83.802318 
L 335.029042 86.260878 
L 336.132863 89.90557 
L 337.236684 94.968771 
L 338.340505 99.992537 
L 339.444326 103.510875 
L 340.548148 105.976302 
L 341.100058 106.88219 
L 343.3077 109.792154 
L 344.963432 113.313844 
L 345.515342 114.149175 
L 346.067253 114.685927 
L 346.619163 114.938685 
L 348.274895 115.161294 
L 349.930626 115.826848 
L 350.482537 115.849305 
L 351.586358 115.519105 
L 352.138269 115.685064 
L 352.690179 116.264553 
L 353.24209 116.656391 
L 353.794 115.950474 
L 354.345911 115.450704 
L 354.897821 115.616921 
L 355.449732 116.391543 
L 356.001642 116.439563 
L 356.553553 115.412646 
L 357.105463 114.813518 
L 357.657374 114.864733 
L 358.209284 115.28467 
L 358.761195 115.450101 
L 359.313105 115.269544 
L 359.865016 115.246944 
L 360.416926 115.361737 
L 360.968837 115.067626 
L 361.520747 114.418731 
L 362.072658 113.977776 
L 362.624568 113.988372 
L 364.2803 114.926074 
L 365.384121 115.306094 
L 365.936032 115.219648 
L 367.591763 114.344898 
L 368.143674 114.25564 
L 368.695584 114.318188 
L 369.247495 114.574899 
L 370.351316 115.358645 
L 370.903226 115.412008 
L 371.455137 115.273525 
L 372.007047 115.252155 
L 372.558958 115.459671 
L 374.214689 116.570969 
L 374.7666 116.643106 
L 376.974242 115.912757 
L 378.629974 115.558001 
L 379.181884 115.648519 
L 379.733795 115.986571 
L 380.837616 116.897877 
L 382.493347 117.113299 
L 384.149079 117.011491 
L 384.700989 117.182422 
L 386.356721 116.981856 
L 387.460542 117.176662 
L 388.012453 117.08145 
L 389.668184 116.41302 
L 390.220095 116.546285 
L 390.772005 116.916246 
L 391.323916 116.742682 
L 391.875826 116.260173 
L 392.427737 116.063157 
L 392.979647 116.247554 
L 394.083468 117.058436 
L 395.187289 116.812002 
L 396.29111 116.960923 
L 397.394931 116.785494 
L 398.498753 116.410282 
L 399.602574 115.84266 
L 400.154484 115.758041 
L 400.706395 115.970818 
L 401.810216 117.008343 
L 402.362126 116.977221 
L 402.914037 116.74376 
L 403.465947 116.751757 
L 404.569768 117.079622 
L 405.673589 117.018551 
L 406.77741 116.950297 
L 407.881231 117.115353 
L 407.881231 117.115353 
" clip-path="url(#p0cd090446c)" style="fill: none; stroke: #edb081; stroke-linecap: square"/>
   </g>
   <g id="line2d_71">
    <path d="M 297.499127 116.402991 
L 299.154858 115.750453 
L 299.706769 115.886291 
L 300.258679 116.167387 
L 300.81059 116.28356 
L 301.3625 115.908885 
L 301.914411 115.121478 
L 303.018232 113.150761 
L 304.122053 111.623067 
L 304.673963 110.2975 
L 307.433516 100.543758 
L 307.985427 98.460553 
L 308.537337 96.963012 
L 309.089248 95.823963 
L 309.641158 94.334821 
L 311.29689 88.597116 
L 311.8488 86.837004 
L 313.504532 80.366851 
L 314.056442 78.616995 
L 315.160263 74.475241 
L 316.264084 72.064324 
L 316.815995 69.790846 
L 317.919816 64.134552 
L 319.023637 61.440453 
L 320.679369 54.200794 
L 321.231279 53.83213 
L 321.78319 54.146425 
L 323.438921 54.679136 
L 323.990832 55.078176 
L 324.542742 55.117053 
L 325.094653 54.62179 
L 326.198474 53.027999 
L 326.750384 52.652871 
L 327.302295 53.038582 
L 327.854205 54.297506 
L 330.061848 61.768732 
L 331.165669 66.440196 
L 333.373311 76.504318 
L 334.477132 82.626476 
L 335.580953 87.344679 
L 336.684774 92.079036 
L 338.340505 99.374271 
L 339.444326 103.237371 
L 340.548148 105.856656 
L 342.203879 108.856665 
L 345.515342 113.681175 
L 346.067253 114.066231 
L 347.171074 114.578556 
L 348.826805 115.732113 
L 349.378716 115.876528 
L 349.930626 115.834176 
L 351.034447 115.57668 
L 352.690179 115.816226 
L 353.24209 115.707813 
L 353.794 115.819399 
L 354.345911 116.156862 
L 354.897821 116.237893 
L 356.001642 115.552065 
L 357.105463 115.655657 
L 357.657374 115.45978 
L 358.209284 115.104479 
L 358.761195 114.958692 
L 359.865016 115.285428 
L 360.416926 115.145102 
L 360.968837 114.834345 
L 361.520747 114.718449 
L 362.624568 115.135398 
L 363.176479 115.076219 
L 364.2803 114.58161 
L 365.936032 114.73591 
L 367.039853 114.309028 
L 367.591763 114.301815 
L 370.903226 115.101488 
L 372.558958 115.689601 
L 373.662779 115.697079 
L 374.214689 115.695136 
L 374.7666 115.865981 
L 375.870421 116.501774 
L 376.422332 116.47904 
L 377.526153 116.197351 
L 378.629974 116.426372 
L 380.285705 116.866007 
L 381.389526 116.961049 
L 382.493347 117.028978 
L 383.045258 117.085432 
L 384.700989 116.867781 
L 387.460542 117.127856 
L 388.564363 116.822779 
L 389.116274 116.882415 
L 389.668184 117.086035 
L 390.220095 116.977552 
L 390.772005 116.699741 
L 391.323916 116.561515 
L 391.875826 116.614761 
L 392.979647 116.892517 
L 394.083468 116.756698 
L 395.7392 116.921877 
L 396.843021 116.980195 
L 397.394931 117.115136 
L 399.050663 116.842551 
L 400.706395 117.118222 
L 402.914037 116.983778 
L 404.017858 116.9039 
L 405.121679 117.018674 
L 406.77741 116.77893 
L 407.881231 116.916654 
L 407.881231 116.916654 
" clip-path="url(#p0cd090446c)" style="fill: none; stroke: #eca77b; stroke-linecap: square"/>
   </g>
   <g id="line2d_72">
    <path d="M 297.499127 116.431233 
L 299.154858 116.121572 
L 300.81059 116.304806 
L 301.3625 115.986375 
L 301.914411 115.421305 
L 302.466321 114.594622 
L 304.122053 111.373239 
L 304.673963 110.126128 
L 305.777785 106.719702 
L 308.537337 97.150066 
L 310.193069 93.023265 
L 314.608353 76.961747 
L 315.160263 75.184586 
L 316.264084 72.220307 
L 318.471727 63.53391 
L 319.023637 61.520187 
L 320.679369 54.178056 
L 321.231279 53.213488 
L 321.78319 53.104452 
L 322.3351 53.495847 
L 323.438921 54.480942 
L 323.990832 54.602484 
L 324.542742 54.488896 
L 325.094653 54.233852 
L 325.646563 53.76493 
L 326.198474 53.119576 
L 326.750384 52.753987 
L 327.302295 53.222257 
L 327.854205 54.57607 
L 330.061848 61.702962 
L 331.717579 69.09034 
L 332.8214 73.350472 
L 333.925221 79.625619 
L 335.029042 85.426793 
L 336.684774 91.878259 
L 338.340505 99.518068 
L 339.444326 103.199373 
L 340.548148 105.722758 
L 341.651969 107.816075 
L 345.515342 113.892505 
L 346.619163 114.809432 
L 347.722984 115.553652 
L 348.826805 116.04625 
L 349.378716 116.150633 
L 349.930626 116.079788 
L 351.586358 115.547462 
L 352.138269 115.591355 
L 353.24209 115.895746 
L 355.449732 116.197096 
L 357.105463 115.691592 
L 357.657374 115.699652 
L 358.209284 115.580821 
L 359.313105 115.146325 
L 360.968837 115.261097 
L 362.624568 114.647816 
L 367.039853 114.620238 
L 371.455137 115.547638 
L 372.558958 115.821208 
L 373.662779 115.927365 
L 375.870421 115.918298 
L 377.526153 116.615314 
L 379.181884 116.674002 
L 380.837616 116.658373 
L 381.941437 116.761245 
L 383.045258 117.010156 
L 384.700989 116.739899 
L 385.80481 116.851816 
L 386.908632 116.993829 
L 388.012453 116.880799 
L 389.116274 117.123969 
L 390.772005 116.702577 
L 391.323916 116.782764 
L 392.427737 117.190914 
L 392.979647 117.045178 
L 393.531558 117.02578 
L 394.083468 117.123871 
L 396.29111 116.988788 
L 396.843021 117.115649 
L 398.498753 117.133225 
L 400.154484 116.757627 
L 401.258305 116.858998 
L 402.914037 117.149131 
L 404.017858 117.116052 
L 405.673589 117.010473 
L 407.329321 117.094756 
L 407.881231 116.998207 
L 407.881231 116.998207 
" clip-path="url(#p0cd090446c)" style="fill: none; stroke: #eb9c75; stroke-linecap: square"/>
   </g>
   <g id="line2d_73">
    <path d="M 297.499127 115.500988 
L 298.602948 115.385678 
L 299.154858 115.507319 
L 299.706769 115.773799 
L 300.258679 115.906632 
L 301.3625 115.489767 
L 301.914411 115.214889 
L 302.466321 114.480427 
L 305.225874 108.098816 
L 308.537337 97.065342 
L 309.641158 94.259965 
L 310.744979 90.599743 
L 312.952621 83.078579 
L 314.056442 79.499649 
L 315.160263 74.99494 
L 316.264084 72.500941 
L 316.815995 70.579356 
L 317.919816 65.471922 
L 319.023637 61.846088 
L 320.679369 54.44486 
L 321.231279 53.681658 
L 321.78319 53.766087 
L 323.438921 54.761361 
L 323.990832 54.846329 
L 324.542742 54.736609 
L 325.094653 54.479304 
L 325.646563 54.006976 
L 326.750384 52.761746 
L 327.302295 53.012896 
L 327.854205 54.296585 
L 330.061848 61.807857 
L 331.717579 69.017099 
L 332.8214 73.122899 
L 333.925221 79.98736 
L 334.477132 83.373743 
L 335.029042 85.821304 
L 336.132863 89.670925 
L 338.340505 99.509386 
L 339.444326 103.337284 
L 339.996237 104.907397 
L 340.548148 106.091871 
L 343.859611 111.337601 
L 345.515342 113.499356 
L 346.067253 114.020123 
L 348.274895 115.300032 
L 349.378716 116.221134 
L 349.930626 116.406483 
L 351.034447 116.153978 
L 351.586358 116.038228 
L 352.138269 116.086755 
L 353.24209 116.459673 
L 354.897821 116.281201 
L 356.001642 116.133818 
L 357.657374 115.753539 
L 359.313105 115.562082 
L 360.416926 115.518812 
L 362.072658 115.234041 
L 367.039853 115.044833 
L 368.695584 115.31155 
L 369.799405 115.424931 
L 371.455137 115.838628 
L 378.629974 116.371099 
L 381.389526 116.317151 
L 383.045258 116.424519 
L 385.2529 116.582098 
L 388.564363 116.795573 
L 398.498753 116.910205 
L 399.602574 117.010235 
L 401.258305 116.858591 
L 403.465947 116.854035 
L 404.569768 116.707726 
L 407.881231 116.719122 
L 407.881231 116.719122 
" clip-path="url(#p0cd090446c)" style="fill: none; stroke: #e67560; stroke-linecap: square"/>
   </g>
   <g id="line2d_74">
    <path d="M 297.499127 115.878253 
L 298.602948 116.01804 
L 300.258679 116.316937 
L 301.3625 116.215427 
L 301.914411 115.805504 
L 302.466321 114.886746 
L 304.673963 109.928636 
L 305.777785 106.29961 
L 307.985427 98.195153 
L 310.744979 89.731971 
L 315.712174 72.442195 
L 316.264084 71.175814 
L 316.815995 69.287956 
L 317.919816 64.530387 
L 319.023637 60.899284 
L 320.679369 53.41421 
L 321.231279 52.751245 
L 321.78319 52.929732 
L 322.887011 53.633772 
L 323.990832 54.068637 
L 324.542742 54.083127 
L 325.094653 53.90709 
L 325.646563 53.434048 
L 326.750384 52.095476 
L 327.302295 52.32564 
L 327.854205 53.592522 
L 330.061848 61.027974 
L 331.717579 68.209729 
L 332.8214 72.335305 
L 333.925221 79.25186 
L 334.477132 82.678769 
L 335.029042 85.133703 
L 336.132863 88.903171 
L 338.892416 101.231034 
L 339.996237 104.819341 
L 341.100058 107.150953 
L 343.859611 111.743734 
L 344.963432 113.469612 
L 345.515342 114.154948 
L 346.067253 114.556233 
L 347.722984 115.193002 
L 348.826805 115.87144 
L 349.378716 116.074646 
L 349.930626 116.101332 
L 351.586358 115.836401 
L 354.897821 116.217598 
L 357.105463 115.62891 
L 359.313105 115.149114 
L 360.416926 115.178722 
L 363.72839 114.623006 
L 364.832211 114.553383 
L 369.247495 114.814142 
L 370.351316 115.062914 
L 371.455137 115.369691 
L 374.214689 115.79137 
L 378.078063 116.472729 
L 381.941437 116.73154 
L 383.045258 116.862123 
L 384.149079 117.058077 
L 388.564363 117.038475 
L 390.220095 116.899095 
L 391.875826 116.889763 
L 392.979647 116.804322 
L 396.843021 117.062728 
L 399.050663 117.009137 
L 400.154484 116.99461 
L 401.258305 116.947207 
L 402.914037 117.052806 
L 404.017858 117.034581 
L 405.121679 117.086254 
L 407.329321 117.02036 
L 407.881231 117.030527 
L 407.881231 117.030527 
" clip-path="url(#p0cd090446c)" style="fill: none; stroke: #d14a61; stroke-linecap: square"/>
   </g>
   <g id="line2d_75">
    <path d="M 297.499127 116.189717 
L 298.602948 116.266783 
L 299.706769 116.63715 
L 300.258679 116.859407 
L 300.81059 116.845896 
L 301.3625 116.50011 
L 301.914411 115.831103 
L 303.018232 113.524961 
L 304.673963 109.762614 
L 305.777785 106.017403 
L 308.537337 96.15166 
L 309.641158 93.151265 
L 311.8488 85.292035 
L 313.504532 79.377183 
L 314.608353 75.398816 
L 315.160263 73.292211 
L 316.815995 68.664388 
L 317.919816 63.775912 
L 319.023637 60.288884 
L 320.679369 52.902915 
L 321.231279 52.197396 
L 321.78319 52.410224 
L 322.887011 53.30227 
L 323.438921 53.60919 
L 323.990832 53.775639 
L 324.542742 53.779363 
L 325.094653 53.588282 
L 325.646563 53.092039 
L 326.198474 52.338833 
L 326.750384 51.830932 
L 327.302295 52.226382 
L 327.854205 53.663994 
L 330.613758 63.598873 
L 331.717579 68.326038 
L 332.26949 70.149146 
L 332.8214 72.392367 
L 333.925221 79.30661 
L 334.477132 82.729338 
L 335.029042 85.227705 
L 336.132863 89.103074 
L 338.892416 101.480467 
L 339.996237 104.962255 
L 341.100058 107.380416 
L 342.75579 110.329248 
L 344.963432 113.673343 
L 345.515342 114.275675 
L 346.067253 114.658364 
L 349.378716 116.032702 
L 350.482537 115.809832 
L 351.586358 115.660377 
L 354.345911 115.976708 
L 362.072658 114.729705 
L 365.936032 114.388787 
L 367.591763 114.512448 
L 369.799405 114.774207 
L 373.110868 115.444206 
L 374.7666 115.7059 
L 378.078063 116.620639 
L 380.285705 116.895717 
L 382.493347 116.993029 
L 384.149079 117.037147 
L 391.323916 116.910871 
L 392.979647 116.871681 
L 395.187289 116.812945 
L 401.258305 116.81851 
L 403.465947 116.960737 
L 404.569768 117.003758 
L 406.2255 117.105138 
L 407.881231 117.096916 
L 407.881231 117.096916 
" clip-path="url(#p0cd090446c)" style="fill: none; stroke: #a1386f; stroke-linecap: square"/>
   </g>
   <g id="line2d_76">
    <path d="M 297.499127 115.991334 
L 298.602948 116.104302 
L 300.81059 116.6897 
L 301.3625 116.421592 
L 301.914411 115.783308 
L 302.466321 114.736595 
L 304.673963 109.483594 
L 306.329695 103.587081 
L 308.537337 95.584026 
L 309.641158 92.557931 
L 311.8488 84.489855 
L 312.952621 80.364727 
L 314.056442 76.831047 
L 315.160263 72.491015 
L 316.815995 67.886517 
L 317.919816 62.946072 
L 319.023637 59.454454 
L 320.679369 51.973189 
L 321.231279 51.454489 
L 321.78319 51.857697 
L 322.3351 52.408171 
L 322.887011 52.762833 
L 323.990832 53.045617 
L 324.542742 53.054712 
L 325.094653 52.942516 
L 325.646563 52.569516 
L 326.198474 51.931472 
L 326.750384 51.475985 
L 327.302295 51.858384 
L 327.854205 53.280464 
L 330.613758 63.24559 
L 331.717579 68.009837 
L 332.8214 72.21397 
L 333.925221 78.993943 
L 334.477132 82.436238 
L 335.029042 85.050792 
L 336.132863 89.137265 
L 338.892416 101.726948 
L 339.996237 105.113147 
L 341.100058 107.585202 
L 342.75579 110.568731 
L 344.411521 113.09284 
L 344.963432 113.809695 
L 345.515342 114.342386 
L 346.619163 114.916973 
L 348.274895 115.750707 
L 348.826805 116.003207 
L 349.378716 116.107728 
L 350.482537 115.862092 
L 351.586358 115.61108 
L 352.690179 115.697347 
L 353.794 115.870339 
L 354.897821 115.742233 
L 359.865016 114.937189 
L 365.384121 114.392497 
L 367.039853 114.493169 
L 369.799405 114.786606 
L 372.558958 115.417993 
L 374.214689 115.82382 
L 375.318511 116.100174 
L 380.837616 116.82141 
L 382.493347 116.916474 
L 383.597168 117.045416 
L 387.460542 116.988505 
L 390.772005 117.162265 
L 392.979647 116.976211 
L 396.843021 116.897856 
L 398.498753 116.857021 
L 402.914037 116.77647 
L 406.2255 116.885164 
L 407.881231 116.937053 
L 407.881231 116.937053 
" clip-path="url(#p0cd090446c)" style="fill: none; stroke: #722c6e; stroke-linecap: square"/>
   </g>
   <g id="line2d_77">
    <path d="M 297.499127 116.479291 
L 299.154858 116.344045 
L 300.81059 116.862036 
L 301.3625 116.655819 
L 301.914411 116.179446 
L 302.466321 115.212098 
L 304.673963 109.73678 
L 305.777785 105.862633 
L 308.537337 95.531947 
L 309.641158 92.252797 
L 311.29689 86.004679 
L 315.160263 71.655026 
L 316.264084 69.012012 
L 316.815995 67.015394 
L 317.919816 62.092596 
L 319.023637 58.612492 
L 320.679369 51.150639 
L 321.231279 50.668808 
L 321.78319 51.111508 
L 322.3351 51.704123 
L 322.887011 52.085794 
L 323.438921 52.270595 
L 324.542742 52.33825 
L 325.094653 52.237977 
L 325.646563 51.861362 
L 326.750384 50.663498 
L 327.302295 51.018005 
L 327.854205 52.464529 
L 330.613758 62.571755 
L 331.717579 67.221144 
L 332.26949 69.110187 
L 332.8214 71.440579 
L 333.925221 78.524326 
L 334.477132 82.035423 
L 335.029042 84.643179 
L 336.132863 88.844561 
L 338.892416 101.691308 
L 339.996237 105.153244 
L 341.100058 107.545901 
L 342.75579 110.695077 
L 344.411521 113.048429 
L 345.515342 114.21543 
L 346.619163 114.72178 
L 347.722984 115.234264 
L 349.378716 116.285046 
L 349.930626 116.370119 
L 352.138269 115.910407 
L 354.345911 116.126297 
L 360.416926 114.944524 
L 365.384121 114.345926 
L 369.799405 114.769106 
L 373.662779 115.576773 
L 378.078063 116.444063 
L 381.941437 116.636554 
L 385.80481 116.852778 
L 388.012453 117.037423 
L 390.772005 117.109009 
L 392.979647 117.081408 
L 397.394931 117.008187 
L 399.602574 116.989627 
L 403.465947 116.991194 
L 407.881231 116.955387 
L 407.881231 116.955387 
" clip-path="url(#p0cd090446c)" style="fill: none; stroke: #4b2362; stroke-linecap: square"/>
   </g>
   <g id="patch_13">
    <path d="M 291.980021 121.9 
L 291.980021 18.8 
" style="fill: none; stroke: #000000; stroke-width: 0.6; stroke-linejoin: miter; stroke-linecap: square"/>
   </g>
   <g id="patch_14">
    <path d="M 413.400337 121.9 
L 413.400337 18.8 
" style="fill: none; stroke: #000000; stroke-width: 0.6; stroke-linejoin: miter; stroke-linecap: square"/>
   </g>
   <g id="patch_15">
    <path d="M 291.980021 121.9 
L 413.400337 121.9 
" style="fill: none; stroke: #000000; stroke-width: 0.6; stroke-linejoin: miter; stroke-linecap: square"/>
   </g>
   <g id="patch_16">
    <path d="M 291.980021 18.8 
L 413.400337 18.8 
" style="fill: none; stroke: #000000; stroke-width: 0.6; stroke-linejoin: miter; stroke-linecap: square"/>
   </g>
   <g id="text_21">
    <!-- $T$ = 210 K -->
    <g transform="translate(331.740179 14.8) scale(0.1 -0.1)">
     <use xlink:href="#NotoSans-Italic-54" transform="translate(0 0.5)"/>
     <use xlink:href="#NotoSans-Regular-20" transform="translate(50.099991 0.5)"/>
     <use xlink:href="#NotoSans-Regular-3d" transform="translate(76.099976 0.5)"/>
     <use xlink:href="#NotoSans-Regular-20" transform="translate(133.299973 0.5)"/>
     <use xlink:href="#NotoSans-Regular-32" transform="translate(159.299957 0.5)"/>
     <use xlink:href="#NotoSans-Regular-31" transform="translate(216.499954 0.5)"/>
     <use xlink:href="#NotoSans-Regular-30" transform="translate(273.699951 0.5)"/>
     <use xlink:href="#NotoSans-Regular-20" transform="translate(330.899948 0.5)"/>
     <use xlink:href="#NotoSans-Regular-4b" transform="translate(356.899933 0.5)"/>
    </g>
   </g>
  </g>
  <g id="legend_1">
   <g id="text_22">
    <!-- $E$ (kV/cm) -->
    <g transform="translate(432.11875 43.45) scale(0.1 -0.1)">
     <defs>
      <path id="NotoSans-Regular-6b" d="M 1101 2323 
Q 1101 2221 1091 2054 
Q 1082 1888 1075 1766 
L 1101 1766 
Q 1139 1818 1216 1914 
Q 1293 2010 1373 2109 
Q 1453 2208 1510 2272 
L 2605 3430 
L 3264 3430 
L 1875 1965 
L 3360 0 
L 2682 0 
L 1491 1600 
L 1101 1261 
L 1101 0 
L 544 0 
L 544 4864 
L 1101 4864 
L 1101 2323 
z
" transform="scale(0.015625)"/>
      <path id="NotoSans-Regular-56" d="M 3840 4570 
L 2208 0 
L 1632 0 
L 0 4570 
L 602 4570 
L 1632 1638 
Q 1702 1453 1753 1280 
Q 1805 1107 1846 950 
Q 1888 794 1920 640 
Q 1952 794 1993 954 
Q 2035 1114 2089 1286 
Q 2144 1459 2208 1651 
L 3232 4570 
L 3840 4570 
z
" transform="scale(0.015625)"/>
      <path id="NotoSans-Regular-2f" d="M 2317 4570 
L 614 0 
L 64 0 
L 1766 4570 
L 2317 4570 
z
" transform="scale(0.015625)"/>
      <path id="NotoSans-Regular-63" d="M 1920 -64 
Q 1466 -64 1110 121 
Q 755 307 553 697 
Q 352 1088 352 1696 
Q 352 2330 563 2726 
Q 774 3123 1136 3308 
Q 1498 3494 1958 3494 
Q 2221 3494 2464 3440 
Q 2707 3386 2861 3309 
L 2688 2842 
Q 2534 2899 2329 2950 
Q 2125 3002 1946 3002 
Q 1600 3002 1376 2854 
Q 1152 2707 1043 2419 
Q 934 2131 934 1702 
Q 934 1293 1043 1005 
Q 1152 717 1369 569 
Q 1587 422 1914 422 
Q 2195 422 2409 480 
Q 2624 538 2803 621 
L 2803 122 
Q 2630 32 2422 -16 
Q 2214 -64 1920 -64 
z
" transform="scale(0.015625)"/>
     </defs>
     <use xlink:href="#NotoSans-Italic-45"/>
     <use xlink:href="#NotoSans-Regular-20" transform="translate(51.399994 0)"/>
     <use xlink:href="#NotoSans-Regular-28" transform="translate(77.399979 0)"/>
     <use xlink:href="#NotoSans-Regular-6b" transform="translate(107.399963 0)"/>
     <use xlink:href="#NotoSans-Regular-56" transform="translate(160.799957 0)"/>
     <use xlink:href="#NotoSans-Regular-2f" transform="translate(220.799942 0)"/>
     <use xlink:href="#NotoSans-Regular-63" transform="translate(257.999939 0)"/>
     <use xlink:href="#NotoSans-Regular-6d" transform="translate(305.999924 0)"/>
     <use xlink:href="#NotoSans-Regular-29" transform="translate(399.499908 0)"/>
    </g>
   </g>
   <g id="line2d_78">
    <path d="M 431.01875 54.95 
L 441.01875 54.95 
L 451.01875 54.95 
" style="fill: none; stroke: #e98c6b; stroke-linecap: square"/>
   </g>
   <g id="text_23">
    <!-- $\mathdefault{30}$ -->
    <g transform="translate(459.01875 58.45) scale(0.1 -0.1)">
     <use xlink:href="#NotoSans-Regular-33" transform="translate(0 0.5)"/>
     <use xlink:href="#NotoSans-Regular-30" transform="translate(57.199997 0.5)"/>
    </g>
   </g>
   <g id="line2d_79">
    <path d="M 431.01875 69.95 
L 441.01875 69.95 
L 451.01875 69.95 
" style="fill: none; stroke: #de5d5c; stroke-linecap: square"/>
   </g>
   <g id="text_24">
    <!-- $\mathdefault{60}$ -->
    <g transform="translate(459.01875 73.45) scale(0.1 -0.1)">
     <defs>
      <path id="NotoSans-Regular-36" d="M 352 1952 
Q 352 2349 406 2733 
Q 461 3117 595 3459 
Q 730 3802 966 4067 
Q 1203 4333 1564 4483 
Q 1926 4634 2445 4634 
Q 2579 4634 2742 4621 
Q 2906 4608 3008 4576 
L 3008 4096 
Q 2893 4134 2749 4153 
Q 2605 4173 2458 4173 
Q 2016 4173 1721 4025 
Q 1427 3878 1257 3622 
Q 1088 3366 1011 3033 
Q 934 2701 915 2323 
L 954 2323 
Q 1050 2477 1197 2598 
Q 1344 2720 1552 2790 
Q 1760 2861 2035 2861 
Q 2432 2861 2729 2697 
Q 3027 2534 3193 2224 
Q 3360 1914 3360 1472 
Q 3360 998 3181 652 
Q 3002 307 2678 121 
Q 2355 -64 1907 -64 
Q 1581 -64 1299 57 
Q 1018 179 803 428 
Q 589 678 470 1059 
Q 352 1440 352 1952 
z
M 1901 410 
Q 2304 410 2553 669 
Q 2803 928 2803 1472 
Q 2803 1907 2582 2163 
Q 2362 2419 1920 2419 
Q 1619 2419 1395 2294 
Q 1171 2170 1046 1978 
Q 922 1786 922 1581 
Q 922 1370 982 1165 
Q 1043 960 1168 787 
Q 1293 614 1475 512 
Q 1658 410 1901 410 
z
" transform="scale(0.015625)"/>
     </defs>
     <use xlink:href="#NotoSans-Regular-36" transform="translate(0 0.5)"/>
     <use xlink:href="#NotoSans-Regular-30" transform="translate(57.199997 0.5)"/>
    </g>
   </g>
   <g id="line2d_80">
    <path d="M 431.01875 84.95 
L 441.01875 84.95 
L 451.01875 84.95 
" style="fill: none; stroke: #bd3f69; stroke-linecap: square"/>
   </g>
   <g id="text_25">
    <!-- $\mathdefault{90}$ -->
    <g transform="translate(459.01875 88.45) scale(0.1 -0.1)">
     <defs>
      <path id="NotoSans-Regular-39" d="M 3328 2618 
Q 3328 2227 3273 1840 
Q 3219 1453 3084 1110 
Q 2950 768 2713 502 
Q 2477 237 2112 86 
Q 1747 -64 1229 -64 
Q 1101 -64 931 -48 
Q 762 -32 653 0 
L 653 480 
Q 768 442 921 419 
Q 1075 397 1216 397 
Q 1664 397 1955 544 
Q 2246 691 2419 944 
Q 2592 1197 2669 1533 
Q 2746 1869 2758 2240 
L 2720 2240 
Q 2624 2093 2477 1971 
Q 2330 1850 2122 1779 
Q 1914 1709 1632 1709 
Q 1242 1709 944 1872 
Q 646 2035 483 2342 
Q 320 2650 320 3091 
Q 320 3571 502 3916 
Q 685 4262 1011 4448 
Q 1338 4634 1779 4634 
Q 2106 4634 2387 4509 
Q 2669 4384 2880 4134 
Q 3091 3885 3209 3507 
Q 3328 3130 3328 2618 
z
M 1779 4160 
Q 1382 4160 1129 3897 
Q 877 3635 877 3098 
Q 877 2656 1091 2403 
Q 1306 2150 1754 2150 
Q 2061 2150 2285 2275 
Q 2509 2400 2633 2592 
Q 2758 2784 2758 2989 
Q 2758 3194 2697 3402 
Q 2637 3610 2515 3782 
Q 2394 3955 2208 4057 
Q 2022 4160 1779 4160 
z
" transform="scale(0.015625)"/>
     </defs>
     <use xlink:href="#NotoSans-Regular-39" transform="translate(0 0.5)"/>
     <use xlink:href="#NotoSans-Regular-30" transform="translate(57.199997 0.5)"/>
    </g>
   </g>
   <g id="line2d_81">
    <path d="M 431.01875 99.95 
L 441.01875 99.95 
L 451.01875 99.95 
" style="fill: none; stroke: #8f3371; stroke-linecap: square"/>
   </g>
   <g id="text_26">
    <!-- $\mathdefault{120}$ -->
    <g transform="translate(459.01875 103.45) scale(0.1 -0.1)">
     <use xlink:href="#NotoSans-Regular-31" transform="translate(0 0.5)"/>
     <use xlink:href="#NotoSans-Regular-32" transform="translate(57.199997 0.5)"/>
     <use xlink:href="#NotoSans-Regular-30" transform="translate(114.399994 0.5)"/>
    </g>
   </g>
   <g id="line2d_82">
    <path d="M 431.01875 114.95 
L 441.01875 114.95 
L 451.01875 114.95 
" style="fill: none; stroke: #62296a; stroke-linecap: square"/>
   </g>
   <g id="text_27">
    <!-- $\mathdefault{150}$ -->
    <g transform="translate(459.01875 118.45) scale(0.1 -0.1)">
     <use xlink:href="#NotoSans-Regular-31" transform="translate(0 0.5)"/>
     <use xlink:href="#NotoSans-Regular-35" transform="translate(57.199997 0.5)"/>
     <use xlink:href="#NotoSans-Regular-30" transform="translate(114.399994 0.5)"/>
    </g>
   </g>
  </g>
 </g>
 <defs>
  <clipPath id="p06ef568108">
   <rect x="30.5" y="18.8" width="121.420315" height="103.1"/>
  </clipPath>
  <clipPath id="p95a9255ed0">
   <rect x="161.240011" y="18.8" width="121.420315" height="103.1"/>
  </clipPath>
  <clipPath id="p0cd090446c">
   <rect x="291.980021" y="18.8" width="121.420315" height="103.1"/>
  </clipPath>
 </defs>
</svg>
