<?xml version="1.0" encoding="UTF-8" standalone="no"?>
<!DOCTYPE svg PUBLIC "-//W3C//DTD SVG 1.1//EN" "http://www.w3.org/Graphics/SVG/1.1/DTD/svg11.dtd">
<svg width="100%" height="100%" viewBox="0 0 2040 2040" version="1.1" xmlns="http://www.w3.org/2000/svg" xmlns:xlink="http://www.w3.org/1999/xlink" xml:space="preserve" xmlns:serif="http://www.serif.com/" style="fill-rule:evenodd;clip-rule:evenodd;stroke-linecap:square;stroke-linejoin:round;stroke-miterlimit:10;">
    <g transform="matrix(1,0,0,1,16.9652,0)">
        <g transform="matrix(3.80173,0,0,4.84351,-1763.33,-843.043)">
            <path d="M466.456,380.311C510.197,380.311 515.562,360.296 538.467,395.051C551.226,414.411 564.398,438.272 581.032,411.112C590.476,395.693 603.809,275.081 607.445,252.814C611.711,226.678 615.949,236.557 617.603,251.398C620.874,280.745 639.677,559.313 648.831,540.337C655.934,525.612 668.157,347.015 670.454,317.055C673.141,282.005 680.448,305.714 681.375,311.02C683.683,324.236 693.153,440.377 700.359,439.328C704.242,438.762 702.842,436.695 716.63,360.258C716.841,359.087 721.506,333.434 727.478,350.079C740.181,385.485 739.773,388.179 743.75,388.179C749.319,388.179 754.453,372.578 760.022,372.578C766.647,372.579 767.406,381.695 773.522,381.852C784.377,382.13 785.461,377.611 792.565,377.793C800.899,378.007 799.47,378.314 809.626,381.71C818.799,384.777 828.261,379.718 835.168,380.179C848.563,381.073 919.96,379.963 932.296,379.871" style="fill:none;fill-rule:nonzero;stroke:rgb(51,51,51);stroke-width:2.87px;"/>
        </g>
        <g transform="matrix(3.80173,0,0,3.5438,-1763.33,-348.558)">
            <path d="M466.456,380.311C510.197,380.311 515.562,360.296 538.467,395.051C551.226,414.411 564.398,438.272 581.032,411.112C590.476,395.693 603.283,275.081 606.918,252.814C611.185,226.678 616.212,236.557 617.866,251.398C621.137,280.745 639.677,559.313 648.831,540.337C655.934,525.612 668.157,347.015 670.454,317.055C673.141,282.005 680.448,305.714 681.375,311.02C683.683,324.236 693.153,440.377 700.359,439.328C704.242,438.762 702.842,436.695 716.63,360.258C716.841,359.087 721.506,333.434 727.478,350.079C740.181,385.485 739.773,388.179 743.75,388.179C749.319,388.179 754.453,372.578 760.022,372.578C766.647,372.579 767.406,381.695 773.522,381.852C784.377,382.13 785.461,377.611 792.565,377.793C800.899,378.007 799.47,378.314 809.626,381.71C818.799,384.777 828.261,379.718 835.168,380.179C848.563,381.073 919.96,379.963 932.296,379.871" style="fill:none;fill-rule:nonzero;stroke:rgb(138,138,138);stroke-width:3.4px;"/>
        </g>
        <g transform="matrix(3.80173,0,0,2.42133,-1763.33,77.9975)">
            <path d="M466.456,380.311C510.197,380.311 515.562,360.296 538.467,395.051C551.226,414.411 564.398,438.272 581.032,411.112C590.476,395.693 602.757,275.081 606.392,252.814C610.659,226.678 616.212,236.557 617.866,251.398C621.137,280.745 639.677,559.313 648.831,540.337C655.934,525.612 668.157,347.015 670.454,317.055C673.141,282.005 680.448,305.714 681.375,311.02C683.683,324.236 693.153,440.377 700.359,439.328C704.242,438.762 702.842,436.695 716.63,360.258C716.841,359.087 721.506,333.434 727.478,350.079C740.181,385.485 739.773,388.179 743.75,388.179C749.319,388.179 754.453,372.578 760.022,372.578C766.647,372.579 767.406,381.695 773.522,381.852C784.377,382.13 785.461,377.611 792.565,377.793C800.899,378.007 799.47,378.314 809.626,381.71C818.799,384.777 828.261,379.718 835.168,380.179C848.563,381.073 919.96,379.963 932.296,379.871" style="fill:none;fill-rule:nonzero;stroke:rgb(173,173,173);stroke-width:3.92px;"/>
        </g>
        <g transform="matrix(3.80173,0,0,1.20039,-1763.33,542.847)">
            <path d="M466.456,380.311C510.197,380.311 515.562,360.296 538.467,395.051C551.226,414.411 564.398,438.272 581.032,411.112C590.476,395.693 602.757,275.081 606.392,252.814C610.659,226.678 616.475,236.557 618.129,251.398C621.4,280.745 639.677,559.313 648.831,540.337C655.934,525.612 668.157,347.015 670.454,317.055C673.141,282.005 680.448,305.714 681.375,311.02C683.683,324.236 693.153,440.377 700.359,439.328C704.242,438.762 702.842,436.695 716.63,360.258C716.841,359.087 721.506,333.434 727.478,350.079C740.181,385.485 739.773,388.179 743.75,388.179C749.319,388.179 754.453,372.578 760.022,372.578C766.647,372.579 767.406,381.695 773.522,381.852C784.377,382.13 785.461,377.611 792.565,377.793C800.899,378.007 799.47,378.314 809.626,381.71C818.799,384.777 828.261,379.718 835.168,380.179C848.563,381.073 919.96,379.963 932.296,379.871" style="fill:none;fill-rule:nonzero;stroke:rgb(209,209,209);stroke-width:4.43px;"/>
        </g>
    </g>
    <g transform="matrix(1.05052,0,0,1.05052,92.8676,-39.9041)">
        <g transform="matrix(2.43782,0,0,2.43782,-651.467,44.1088)">
            <rect x="859.552" y="50.121" width="27.654" height="690.259" style="fill:rgb(208,166,166);stroke:black;stroke-width:1.63px;stroke-linecap:butt;"/>
        </g>
        <g transform="matrix(1.57496,0,0,2.43782,114.218,44.1088)">
            <rect x="887.371" y="50.121" width="179.992" height="690.259" style="fill:rgb(246,236,212);stroke:black;stroke-width:1.93px;stroke-linecap:butt;"/>
        </g>
        <g transform="matrix(0.819623,0,0,0.222128,716.795,155.162)">
            <rect x="859.552" y="50.121" width="27.654" height="690.259" style="fill:rgb(219,157,57);stroke:black;stroke-width:6.61px;stroke-linecap:butt;"/>
        </g>
        <g transform="matrix(0.819623,0,0,0.222128,716.795,461.043)">
            <rect x="859.552" y="50.121" width="27.654" height="690.259" style="fill:rgb(219,157,57);stroke:black;stroke-width:6.61px;stroke-linecap:butt;"/>
        </g>
        <g transform="matrix(0.819623,0,0,0.222128,716.795,766.924)">
            <rect x="859.552" y="50.121" width="27.654" height="690.259" style="fill:rgb(219,157,57);stroke:black;stroke-width:6.61px;stroke-linecap:butt;"/>
        </g>
        <g transform="matrix(0.819623,0,0,0.222128,716.795,1072.81)">
            <rect x="859.552" y="50.121" width="27.654" height="690.259" style="fill:rgb(219,157,57);stroke:black;stroke-width:6.61px;stroke-linecap:butt;"/>
        </g>
        <g transform="matrix(0.819623,0,0,0.222128,716.795,1378.69)">
            <rect x="859.552" y="50.121" width="27.654" height="690.259" style="fill:rgb(219,157,57);stroke:black;stroke-width:6.61px;stroke-linecap:butt;"/>
        </g>
        <g transform="matrix(0.819623,0,0,0.222128,716.795,1684.57)">
            <rect x="859.552" y="50.121" width="27.654" height="690.259" style="fill:rgb(219,157,57);stroke:black;stroke-width:6.61px;stroke-linecap:butt;"/>
        </g>
    </g>
</svg>
