<?xml version="1.0" encoding="utf-8" standalone="no"?>
<!DOCTYPE svg PUBLIC "-//W3C//DTD SVG 1.1//EN"
  "http://www.w3.org/Graphics/SVG/1.1/DTD/svg11.dtd">
<svg xmlns:xlink="http://www.w3.org/1999/xlink" width="497.99952pt" height="253.19952pt" viewBox="0 0 497.99952 253.19952" xmlns="http://www.w3.org/2000/svg" version="1.1">
 <metadata>
  <rdf:RDF xmlns:dc="http://purl.org/dc/elements/1.1/" xmlns:cc="http://creativecommons.org/ns#" xmlns:rdf="http://www.w3.org/1999/02/22-rdf-syntax-ns#">
   <cc:Work>
    <dc:type rdf:resource="http://purl.org/dc/dcmitype/StillImage"/>
    <dc:date>2024-07-06T12:15:01.727502</dc:date>
    <dc:format>image/svg+xml</dc:format>
    <dc:creator>
     <cc:Agent>
      <dc:title>Matplotlib v3.9.0, https://matplotlib.org/</dc:title>
     </cc:Agent>
    </dc:creator>
   </cc:Work>
  </rdf:RDF>
 </metadata>
 <defs>
  <style type="text/css">*{stroke-linejoin: round; stroke-linecap: butt}</style>
 </defs>
 <g id="figure_1">
  <g id="patch_1">
   <path d="M 0 253.19952 
L 497.99952 253.19952 
L 497.99952 0 
L 0 0 
z
" style="fill: #ffffff"/>
  </g>
  <g id="axes_1">
   <g id="patch_2">
    <path d="M 33.7 218.39952 
L 243.34952 218.39952 
L 243.34952 22.2 
L 33.7 22.2 
z
" style="fill: #ffffff"/>
   </g>
   <g id="PolyCollection_1"/>
   <g id="PolyCollection_2"/>
   <g id="matplotlib.axis_1">
    <g id="xtick_1">
     <g id="line2d_1">
      <defs>
       <path id="mbeb8f593a4" d="M 0 0 
L 0 -4 
" style="stroke: #000000; stroke-width: 0.6"/>
      </defs>
      <g>
       <use xlink:href="#mbeb8f593a4" x="35.834789" y="218.39952" style="stroke: #000000; stroke-width: 0.6"/>
      </g>
     </g>
     <g id="line2d_2">
      <defs>
       <path id="m610317c047" d="M 0 0 
L 0 4 
" style="stroke: #000000; stroke-width: 0.6"/>
      </defs>
      <g>
       <use xlink:href="#m610317c047" x="35.834789" y="22.2" style="stroke: #000000; stroke-width: 0.6"/>
      </g>
     </g>
     <g id="text_1">
      <!-- $\mathdefault{−2.5}$ -->
      <g transform="translate(27.134789 229.49952) scale(0.1 -0.1)">
       <defs>
        <path id="NotoSans-Regular-2212" d="M 256 1466 
L 256 1965 
L 1805 1965 
L 1805 1466 
L 256 1466 
z
" transform="scale(0.015625)"/>
        <path id="NotoSans-Regular-32" d="M 3328 0 
L 307 0 
L 307 467 
L 1504 1677 
Q 1850 2022 2086 2291 
Q 2323 2560 2444 2819 
Q 2566 3078 2566 3386 
Q 2566 3763 2342 3958 
Q 2118 4154 1760 4154 
Q 1427 4154 1174 4038 
Q 922 3923 659 3718 
L 358 4096 
Q 538 4250 752 4371 
Q 966 4493 1219 4563 
Q 1472 4634 1760 4634 
Q 2189 4634 2496 4486 
Q 2803 4339 2972 4067 
Q 3142 3795 3142 3418 
Q 3142 3059 2995 2745 
Q 2848 2432 2585 2128 
Q 2323 1824 1971 1478 
L 1018 538 
L 1018 512 
L 3328 512 
L 3328 0 
z
" transform="scale(0.015625)"/>
        <path id="NotoSans-Regular-2e" d="M 461 346 
Q 461 582 576 678 
Q 691 774 851 774 
Q 1018 774 1136 678 
Q 1254 582 1254 346 
Q 1254 115 1136 12 
Q 1018 -90 851 -90 
Q 691 -90 576 12 
Q 461 115 461 346 
z
" transform="scale(0.015625)"/>
        <path id="NotoSans-Regular-35" d="M 1760 2803 
Q 2227 2803 2572 2643 
Q 2918 2483 3107 2185 
Q 3296 1888 3296 1459 
Q 3296 986 3091 643 
Q 2886 301 2505 118 
Q 2125 -64 1587 -64 
Q 1235 -64 924 0 
Q 614 64 403 186 
L 403 717 
Q 634 576 963 496 
Q 1293 416 1594 416 
Q 1933 416 2185 521 
Q 2438 627 2579 848 
Q 2720 1069 2720 1402 
Q 2720 1850 2445 2090 
Q 2170 2330 1574 2330 
Q 1395 2330 1164 2298 
Q 934 2266 794 2234 
L 512 2413 
L 685 4570 
L 2976 4570 
L 2976 4058 
L 1165 4058 
L 1056 2733 
Q 1165 2752 1350 2777 
Q 1536 2803 1760 2803 
z
" transform="scale(0.015625)"/>
       </defs>
       <use xlink:href="#NotoSans-Regular-2212" transform="translate(0 0.59375)"/>
       <use xlink:href="#NotoSans-Regular-32" transform="translate(32.199997 0.59375)"/>
       <use xlink:href="#NotoSans-Regular-2e" transform="translate(89.399994 0.59375)"/>
       <use xlink:href="#NotoSans-Regular-35" transform="translate(116.199982 0.59375)"/>
      </g>
     </g>
    </g>
    <g id="xtick_2">
     <g id="line2d_3">
      <g>
       <use xlink:href="#mbeb8f593a4" x="72.515019" y="218.39952" style="stroke: #000000; stroke-width: 0.6"/>
      </g>
     </g>
     <g id="line2d_4">
      <g>
       <use xlink:href="#m610317c047" x="72.515019" y="22.2" style="stroke: #000000; stroke-width: 0.6"/>
      </g>
     </g>
     <g id="text_2">
      <!-- $\mathdefault{0.0}$ -->
      <g transform="translate(65.415019 229.49952) scale(0.1 -0.1)">
       <defs>
        <path id="NotoSans-Regular-30" d="M 3347 2291 
Q 3347 1734 3264 1299 
Q 3181 864 2998 560 
Q 2816 256 2525 96 
Q 2234 -64 1824 -64 
Q 1312 -64 976 217 
Q 640 499 477 1027 
Q 314 1555 314 2291 
Q 314 3034 464 3558 
Q 614 4083 947 4361 
Q 1280 4640 1824 4640 
Q 2336 4640 2675 4361 
Q 3014 4083 3180 3558 
Q 3347 3034 3347 2291 
z
M 877 2291 
Q 877 1664 969 1248 
Q 1062 832 1270 624 
Q 1478 416 1824 416 
Q 2170 416 2378 621 
Q 2586 826 2682 1245 
Q 2778 1664 2778 2291 
Q 2778 2918 2682 3331 
Q 2586 3744 2378 3952 
Q 2170 4160 1824 4160 
Q 1478 4160 1270 3952 
Q 1062 3744 969 3331 
Q 877 2918 877 2291 
z
" transform="scale(0.015625)"/>
       </defs>
       <use xlink:href="#NotoSans-Regular-30" transform="translate(0 0.5)"/>
       <use xlink:href="#NotoSans-Regular-2e" transform="translate(57.199997 0.5)"/>
       <use xlink:href="#NotoSans-Regular-30" transform="translate(83.999985 0.5)"/>
      </g>
     </g>
    </g>
    <g id="xtick_3">
     <g id="line2d_5">
      <g>
       <use xlink:href="#mbeb8f593a4" x="109.195248" y="218.39952" style="stroke: #000000; stroke-width: 0.6"/>
      </g>
     </g>
     <g id="line2d_6">
      <g>
       <use xlink:href="#m610317c047" x="109.195248" y="22.2" style="stroke: #000000; stroke-width: 0.6"/>
      </g>
     </g>
     <g id="text_3">
      <!-- $\mathdefault{2.5}$ -->
      <g transform="translate(102.095248 229.49952) scale(0.1 -0.1)">
       <use xlink:href="#NotoSans-Regular-32" transform="translate(0 0.59375)"/>
       <use xlink:href="#NotoSans-Regular-2e" transform="translate(57.199997 0.59375)"/>
       <use xlink:href="#NotoSans-Regular-35" transform="translate(83.999985 0.59375)"/>
      </g>
     </g>
    </g>
    <g id="xtick_4">
     <g id="line2d_7">
      <g>
       <use xlink:href="#mbeb8f593a4" x="145.875478" y="218.39952" style="stroke: #000000; stroke-width: 0.6"/>
      </g>
     </g>
     <g id="line2d_8">
      <g>
       <use xlink:href="#m610317c047" x="145.875478" y="22.2" style="stroke: #000000; stroke-width: 0.6"/>
      </g>
     </g>
     <g id="text_4">
      <!-- $\mathdefault{5.0}$ -->
      <g transform="translate(138.775478 229.49952) scale(0.1 -0.1)">
       <use xlink:href="#NotoSans-Regular-35" transform="translate(0 0.5)"/>
       <use xlink:href="#NotoSans-Regular-2e" transform="translate(57.199997 0.5)"/>
       <use xlink:href="#NotoSans-Regular-30" transform="translate(83.999985 0.5)"/>
      </g>
     </g>
    </g>
    <g id="xtick_5">
     <g id="line2d_9">
      <g>
       <use xlink:href="#mbeb8f593a4" x="182.555708" y="218.39952" style="stroke: #000000; stroke-width: 0.6"/>
      </g>
     </g>
     <g id="line2d_10">
      <g>
       <use xlink:href="#m610317c047" x="182.555708" y="22.2" style="stroke: #000000; stroke-width: 0.6"/>
      </g>
     </g>
     <g id="text_5">
      <!-- $\mathdefault{7.5}$ -->
      <g transform="translate(175.455708 229.49952) scale(0.1 -0.1)">
       <defs>
        <path id="NotoSans-Regular-37" d="M 870 0 
L 2746 4058 
L 282 4058 
L 282 4570 
L 3347 4570 
L 3347 4134 
L 1491 0 
L 870 0 
z
" transform="scale(0.015625)"/>
       </defs>
       <use xlink:href="#NotoSans-Regular-37" transform="translate(0 0.59375)"/>
       <use xlink:href="#NotoSans-Regular-2e" transform="translate(57.199997 0.59375)"/>
       <use xlink:href="#NotoSans-Regular-35" transform="translate(83.999985 0.59375)"/>
      </g>
     </g>
    </g>
    <g id="xtick_6">
     <g id="line2d_11">
      <g>
       <use xlink:href="#mbeb8f593a4" x="219.235937" y="218.39952" style="stroke: #000000; stroke-width: 0.6"/>
      </g>
     </g>
     <g id="line2d_12">
      <g>
       <use xlink:href="#m610317c047" x="219.235937" y="22.2" style="stroke: #000000; stroke-width: 0.6"/>
      </g>
     </g>
     <g id="text_6">
      <!-- $\mathdefault{10.0}$ -->
      <g transform="translate(209.285937 229.49952) scale(0.1 -0.1)">
       <defs>
        <path id="NotoSans-Regular-31" d="M 2272 0 
L 1722 0 
L 1722 3194 
Q 1722 3379 1725 3507 
Q 1728 3635 1734 3747 
Q 1741 3859 1747 3981 
Q 1645 3878 1561 3808 
Q 1478 3738 1350 3629 
L 864 3232 
L 570 3610 
L 1805 4570 
L 2272 4570 
L 2272 0 
z
" transform="scale(0.015625)"/>
       </defs>
       <use xlink:href="#NotoSans-Regular-31" transform="translate(0 0.5)"/>
       <use xlink:href="#NotoSans-Regular-30" transform="translate(57.199997 0.5)"/>
       <use xlink:href="#NotoSans-Regular-2e" transform="translate(114.399994 0.5)"/>
       <use xlink:href="#NotoSans-Regular-30" transform="translate(141.199982 0.5)"/>
      </g>
     </g>
    </g>
    <g id="text_7">
     <!-- $t$ (ps) -->
     <g transform="translate(127.07476 243.49952) scale(0.1 -0.1)">
      <defs>
       <path id="NotoSans-Italic-74" d="M 1184 -64 
Q 838 -64 601 102 
Q 365 269 365 685 
Q 365 781 381 899 
Q 397 1018 422 1139 
L 813 3002 
L 282 3002 
L 333 3258 
L 909 3501 
L 1306 4211 
L 1638 4211 
L 1466 3430 
L 2330 3430 
L 2240 3002 
L 1382 3002 
L 986 1133 
Q 966 1050 947 944 
Q 928 838 928 749 
Q 928 602 1008 499 
Q 1088 397 1267 397 
Q 1382 397 1491 419 
Q 1600 442 1722 480 
L 1722 51 
Q 1645 13 1485 -25 
Q 1325 -64 1184 -64 
z
" transform="scale(0.015625)"/>
       <path id="NotoSans-Regular-20" transform="scale(0.015625)"/>
       <path id="NotoSans-Regular-28" d="M 256 1754 
Q 256 2278 355 2777 
Q 454 3277 665 3731 
Q 877 4186 1197 4570 
L 1728 4570 
Q 1280 3968 1053 3245 
Q 826 2522 826 1760 
Q 826 1267 928 780 
Q 1030 294 1228 -157 
Q 1427 -608 1722 -1011 
L 1197 -1011 
Q 877 -634 665 -189 
Q 454 256 355 749 
Q 256 1242 256 1754 
z
" transform="scale(0.015625)"/>
       <path id="NotoSans-Regular-70" d="M 2176 3494 
Q 2810 3494 3197 3052 
Q 3584 2611 3584 1722 
Q 3584 1139 3408 739 
Q 3232 339 2915 137 
Q 2598 -64 2170 -64 
Q 1907 -64 1702 6 
Q 1498 77 1354 189 
Q 1210 301 1107 435 
L 1069 435 
Q 1082 326 1094 160 
Q 1107 -6 1107 -128 
L 1107 -1536 
L 544 -1536 
L 544 3430 
L 1005 3430 
L 1082 2963 
L 1107 2963 
Q 1210 3110 1354 3232 
Q 1498 3354 1699 3424 
Q 1901 3494 2176 3494 
z
M 2074 3021 
Q 1728 3021 1517 2889 
Q 1306 2758 1210 2496 
Q 1114 2234 1107 1830 
L 1107 1722 
Q 1107 1299 1196 1004 
Q 1286 710 1500 556 
Q 1715 403 2086 403 
Q 2400 403 2601 576 
Q 2803 749 2902 1046 
Q 3002 1344 3002 1728 
Q 3002 2317 2774 2669 
Q 2547 3021 2074 3021 
z
" transform="scale(0.015625)"/>
       <path id="NotoSans-Regular-73" d="M 2778 947 
Q 2778 614 2611 390 
Q 2445 166 2137 51 
Q 1830 -64 1408 -64 
Q 1050 -64 790 -6 
Q 531 51 333 154 
L 333 666 
Q 538 563 829 476 
Q 1120 390 1421 390 
Q 1850 390 2042 528 
Q 2234 666 2234 896 
Q 2234 1024 2163 1126 
Q 2093 1229 1910 1331 
Q 1728 1434 1389 1562 
Q 1056 1690 819 1818 
Q 582 1946 454 2125 
Q 326 2304 326 2586 
Q 326 3021 681 3257 
Q 1037 3494 1613 3494 
Q 1926 3494 2198 3433 
Q 2470 3373 2707 3264 
L 2515 2816 
Q 2298 2906 2061 2970 
Q 1824 3034 1574 3034 
Q 1229 3034 1046 2922 
Q 864 2810 864 2618 
Q 864 2477 947 2377 
Q 1030 2278 1225 2185 
Q 1421 2093 1747 1965 
Q 2074 1843 2304 1715 
Q 2534 1587 2656 1404 
Q 2778 1222 2778 947 
z
" transform="scale(0.015625)"/>
       <path id="NotoSans-Regular-29" d="M 1664 1754 
Q 1664 1242 1565 749 
Q 1466 256 1258 -189 
Q 1050 -634 723 -1011 
L 198 -1011 
Q 493 -608 691 -157 
Q 890 294 992 780 
Q 1094 1267 1094 1760 
Q 1094 2266 992 2758 
Q 890 3251 691 3712 
Q 493 4173 192 4570 
L 723 4570 
Q 1050 4186 1258 3731 
Q 1466 3277 1565 2777 
Q 1664 2278 1664 1754 
z
" transform="scale(0.015625)"/>
      </defs>
      <use xlink:href="#NotoSans-Italic-74" transform="translate(0 0.59375)"/>
      <use xlink:href="#NotoSans-Regular-20" transform="translate(33.199997 0.59375)"/>
      <use xlink:href="#NotoSans-Regular-28" transform="translate(59.199982 0.59375)"/>
      <use xlink:href="#NotoSans-Regular-70" transform="translate(89.199966 0.59375)"/>
      <use xlink:href="#NotoSans-Regular-73" transform="translate(150.699951 0.59375)"/>
      <use xlink:href="#NotoSans-Regular-29" transform="translate(198.599945 0.59375)"/>
     </g>
    </g>
   </g>
   <g id="matplotlib.axis_2">
    <g id="ytick_1">
     <g id="line2d_13">
      <defs>
       <path id="m68eedcbf45" d="M 0 0 
L 4 0 
" style="stroke: #000000; stroke-width: 0.6"/>
      </defs>
      <g>
       <use xlink:href="#m68eedcbf45" x="33.7" y="218.39952" style="stroke: #000000; stroke-width: 0.6"/>
      </g>
     </g>
     <g id="line2d_14">
      <defs>
       <path id="mf4b19843b7" d="M 0 0 
L -4 0 
" style="stroke: #000000; stroke-width: 0.6"/>
      </defs>
      <g>
       <use xlink:href="#mf4b19843b7" x="243.34952" y="218.39952" style="stroke: #000000; stroke-width: 0.6"/>
      </g>
     </g>
     <g id="text_8">
      <!-- $\mathdefault{−3}$ -->
      <g transform="translate(21.2 222.19952) scale(0.1 -0.1)">
       <defs>
        <path id="NotoSans-Regular-33" d="M 3155 3501 
Q 3155 3194 3040 2970 
Q 2925 2746 2710 2605 
Q 2496 2464 2208 2406 
L 2208 2381 
Q 2758 2317 3027 2035 
Q 3296 1754 3296 1299 
Q 3296 902 3110 592 
Q 2925 282 2537 109 
Q 2150 -64 1542 -64 
Q 1184 -64 877 -9 
Q 570 45 288 186 
L 288 710 
Q 576 570 909 490 
Q 1242 410 1549 410 
Q 2163 410 2435 650 
Q 2707 890 2707 1312 
Q 2707 1600 2556 1776 
Q 2406 1952 2118 2035 
Q 1830 2118 1427 2118 
L 986 2118 
L 986 2598 
L 1434 2598 
Q 1811 2598 2064 2707 
Q 2317 2816 2448 3011 
Q 2579 3206 2579 3462 
Q 2579 3795 2355 3977 
Q 2131 4160 1747 4160 
Q 1504 4160 1305 4112 
Q 1107 4064 937 3977 
Q 768 3891 595 3776 
L 314 4160 
Q 557 4352 918 4493 
Q 1280 4634 1741 4634 
Q 2458 4634 2806 4314 
Q 3155 3994 3155 3501 
z
" transform="scale(0.015625)"/>
       </defs>
       <use xlink:href="#NotoSans-Regular-2212" transform="translate(0 0.59375)"/>
       <use xlink:href="#NotoSans-Regular-33" transform="translate(32.199997 0.59375)"/>
      </g>
     </g>
    </g>
    <g id="ytick_2">
     <g id="line2d_15">
      <g>
       <use xlink:href="#m68eedcbf45" x="33.7" y="185.6996" style="stroke: #000000; stroke-width: 0.6"/>
      </g>
     </g>
     <g id="line2d_16">
      <g>
       <use xlink:href="#mf4b19843b7" x="243.34952" y="185.6996" style="stroke: #000000; stroke-width: 0.6"/>
      </g>
     </g>
     <g id="text_9">
      <!-- $\mathdefault{−2}$ -->
      <g transform="translate(21.2 189.4996) scale(0.1 -0.1)">
       <use xlink:href="#NotoSans-Regular-2212" transform="translate(0 0.59375)"/>
       <use xlink:href="#NotoSans-Regular-32" transform="translate(32.199997 0.59375)"/>
      </g>
     </g>
    </g>
    <g id="ytick_3">
     <g id="line2d_17">
      <g>
       <use xlink:href="#m68eedcbf45" x="33.7" y="152.99968" style="stroke: #000000; stroke-width: 0.6"/>
      </g>
     </g>
     <g id="line2d_18">
      <g>
       <use xlink:href="#mf4b19843b7" x="243.34952" y="152.99968" style="stroke: #000000; stroke-width: 0.6"/>
      </g>
     </g>
     <g id="text_10">
      <!-- $\mathdefault{−1}$ -->
      <g transform="translate(21.2 156.79968) scale(0.1 -0.1)">
       <use xlink:href="#NotoSans-Regular-2212" transform="translate(0 0.59375)"/>
       <use xlink:href="#NotoSans-Regular-31" transform="translate(32.199997 0.59375)"/>
      </g>
     </g>
    </g>
    <g id="ytick_4">
     <g id="line2d_19">
      <g>
       <use xlink:href="#m68eedcbf45" x="33.7" y="120.29976" style="stroke: #000000; stroke-width: 0.6"/>
      </g>
     </g>
     <g id="line2d_20">
      <g>
       <use xlink:href="#mf4b19843b7" x="243.34952" y="120.29976" style="stroke: #000000; stroke-width: 0.6"/>
      </g>
     </g>
     <g id="text_11">
      <!-- $\mathdefault{0}$ -->
      <g transform="translate(24.4 124.09976) scale(0.1 -0.1)">
       <use xlink:href="#NotoSans-Regular-30" transform="translate(0 0.5)"/>
      </g>
     </g>
    </g>
    <g id="ytick_5">
     <g id="line2d_21">
      <g>
       <use xlink:href="#m68eedcbf45" x="33.7" y="87.59984" style="stroke: #000000; stroke-width: 0.6"/>
      </g>
     </g>
     <g id="line2d_22">
      <g>
       <use xlink:href="#mf4b19843b7" x="243.34952" y="87.59984" style="stroke: #000000; stroke-width: 0.6"/>
      </g>
     </g>
     <g id="text_12">
      <!-- $\mathdefault{1}$ -->
      <g transform="translate(24.4 91.39984) scale(0.1 -0.1)">
       <use xlink:href="#NotoSans-Regular-31" transform="translate(0 0.59375)"/>
      </g>
     </g>
    </g>
    <g id="ytick_6">
     <g id="line2d_23">
      <g>
       <use xlink:href="#m68eedcbf45" x="33.7" y="54.89992" style="stroke: #000000; stroke-width: 0.6"/>
      </g>
     </g>
     <g id="line2d_24">
      <g>
       <use xlink:href="#mf4b19843b7" x="243.34952" y="54.89992" style="stroke: #000000; stroke-width: 0.6"/>
      </g>
     </g>
     <g id="text_13">
      <!-- $\mathdefault{2}$ -->
      <g transform="translate(24.4 58.69992) scale(0.1 -0.1)">
       <use xlink:href="#NotoSans-Regular-32" transform="translate(0 0.59375)"/>
      </g>
     </g>
    </g>
    <g id="ytick_7">
     <g id="line2d_25">
      <g>
       <use xlink:href="#m68eedcbf45" x="33.7" y="22.2" style="stroke: #000000; stroke-width: 0.6"/>
      </g>
     </g>
     <g id="line2d_26">
      <g>
       <use xlink:href="#mf4b19843b7" x="243.34952" y="22.2" style="stroke: #000000; stroke-width: 0.6"/>
      </g>
     </g>
     <g id="text_14">
      <!-- $\mathdefault{3}$ -->
      <g transform="translate(24.4 26) scale(0.1 -0.1)">
       <use xlink:href="#NotoSans-Regular-33" transform="translate(0 0.59375)"/>
      </g>
     </g>
    </g>
    <g id="text_15">
     <!-- $\Delta V_\text{EO}$ (V) -->
     <g transform="translate(14.8 138.39976) rotate(-90) scale(0.1 -0.1)">
      <defs>
       <path id="NotoSans-Regular-394" d="M 64 0 
L 64 320 
L 1786 4589 
L 2304 4589 
L 4019 320 
L 4019 0 
L 64 0 
z
M 723 518 
L 3354 518 
L 2285 3309 
Q 2266 3360 2214 3494 
Q 2163 3629 2115 3773 
Q 2067 3917 2042 3994 
Q 2010 3866 1968 3734 
Q 1926 3603 1884 3494 
Q 1843 3386 1818 3309 
L 723 518 
z
" transform="scale(0.015625)"/>
       <path id="NotoSans-Italic-56" d="M 1082 0 
L 589 4570 
L 1152 4570 
L 1440 1677 
Q 1459 1504 1472 1325 
Q 1485 1146 1494 973 
Q 1504 800 1498 646 
L 1510 646 
Q 1606 877 1728 1129 
Q 1850 1382 2003 1683 
L 3488 4570 
L 4122 4570 
L 1690 0 
L 1082 0 
z
" transform="scale(0.015625)"/>
       <path id="NotoSans-Regular-45" d="M 3174 0 
L 621 0 
L 621 4570 
L 3174 4570 
L 3174 4064 
L 1197 4064 
L 1197 2637 
L 3059 2637 
L 3059 2138 
L 1197 2138 
L 1197 506 
L 3174 506 
L 3174 0 
z
" transform="scale(0.015625)"/>
       <path id="NotoSans-Regular-4f" d="M 4608 2291 
Q 4608 1760 4473 1328 
Q 4339 896 4073 582 
Q 3808 269 3414 102 
Q 3021 -64 2502 -64 
Q 1965 -64 1568 105 
Q 1171 275 908 585 
Q 646 896 518 1331 
Q 390 1766 390 2298 
Q 390 3002 620 3526 
Q 851 4051 1321 4345 
Q 1792 4640 2509 4640 
Q 3194 4640 3661 4349 
Q 4128 4058 4368 3530 
Q 4608 3002 4608 2291 
z
M 998 2291 
Q 998 1715 1158 1299 
Q 1318 883 1654 659 
Q 1990 435 2502 435 
Q 3021 435 3350 659 
Q 3680 883 3840 1299 
Q 4000 1715 4000 2291 
Q 4000 3155 3641 3644 
Q 3283 4134 2509 4134 
Q 1990 4134 1654 3913 
Q 1318 3693 1158 3280 
Q 998 2867 998 2291 
z
" transform="scale(0.015625)"/>
       <path id="NotoSans-Regular-56" d="M 3840 4570 
L 2208 0 
L 1632 0 
L 0 4570 
L 602 4570 
L 1632 1638 
Q 1702 1453 1753 1280 
Q 1805 1107 1846 950 
Q 1888 794 1920 640 
Q 1952 794 1993 954 
Q 2035 1114 2089 1286 
Q 2144 1459 2208 1651 
L 3232 4570 
L 3840 4570 
z
" transform="scale(0.015625)"/>
      </defs>
      <use xlink:href="#NotoSans-Regular-394" transform="translate(0 0.296875)"/>
      <use xlink:href="#NotoSans-Italic-56" transform="translate(63.899994 0.296875)"/>
      <use xlink:href="#NotoSans-Regular-45" transform="translate(119.099991 -15.78125) scale(0.7)"/>
      <use xlink:href="#NotoSans-Regular-4f" transform="translate(158.019984 -15.78125) scale(0.7)"/>
      <use xlink:href="#NotoSans-Regular-20" transform="translate(215.369666 0.296875)"/>
      <use xlink:href="#NotoSans-Regular-28" transform="translate(241.36965 0.296875)"/>
      <use xlink:href="#NotoSans-Regular-56" transform="translate(271.369635 0.296875)"/>
      <use xlink:href="#NotoSans-Regular-29" transform="translate(331.36962 0.296875)"/>
     </g>
    </g>
    <g id="text_16">
     <!-- $\times\mathdefault{10^{−3}}\mathdefault{}$ -->
     <g transform="translate(33.7 19.2) scale(0.1 -0.1)">
      <defs>
       <path id="NotoSans-Regular-d7" d="M 2918 3674 
L 3238 3347 
L 2150 2259 
L 3232 1171 
L 2912 845 
L 1818 1926 
L 749 845 
L 416 1171 
L 1498 2259 
L 410 3341 
L 742 3674 
L 1824 2579 
L 2918 3674 
z
" transform="scale(0.015625)"/>
      </defs>
      <use xlink:href="#NotoSans-Regular-d7" transform="translate(0 0.8)"/>
      <use xlink:href="#NotoSans-Regular-31" transform="translate(57.199997 0.8)"/>
      <use xlink:href="#NotoSans-Regular-30" transform="translate(114.399994 0.8)"/>
      <use xlink:href="#NotoSans-Regular-2212" transform="translate(172.537881 38.315625) scale(0.7)"/>
      <use xlink:href="#NotoSans-Regular-33" transform="translate(195.077879 38.315625) scale(0.7)"/>
     </g>
    </g>
   </g>
   <g id="line2d_27">
    <path d="M 43.229524 120.042224 
L 44.285914 119.879897 
L 46.134598 118.79129 
L 48.071314 122.184848 
L 50.536225 118.905246 
L 51.944746 116.675636 
L 52.296876 117.844019 
L 53.969495 123.669496 
L 58.107025 122.089565 
L 59.779643 122.294167 
L 60.571936 121.215593 
L 61.804392 119.598104 
L 64.093238 120.165759 
L 65.765857 120.288525 
L 67.702573 122.071976 
L 70.167484 121.84327 
L 72.280265 121.813497 
L 73.512721 121.663906 
L 75.449437 119.205242 
L 77.386153 120.935087 
L 78.090414 122.703078 
L 79.675 126.489947 
L 81.435651 129.307992 
L 83.284334 130.150448 
L 85.397116 122.968249 
L 87.245799 114.041251 
L 89.182515 113.5992 
L 91.119231 109.978347 
L 93.14398 113.291415 
L 96.665282 125.95354 
L 97.28151 128.473281 
L 98.954128 136.322662 
L 100.890844 134.882059 
L 102.827561 122.737918 
L 103.531821 113.785165 
L 104.940342 96.857602 
L 106.789025 91.747882 
L 108.989839 113.827984 
L 111.014588 139.243508 
L 112.687206 154.087009 
L 114.711955 141.619707 
L 118.67342 96.879758 
L 120.434071 95.084491 
L 120.610136 96.168427 
L 123.16308 117.087659 
L 125.275861 135.185463 
L 126.332252 143.578512 
L 126.684382 142.408956 
L 128.357 136.220187 
L 132.318465 107.48821 
L 134.167149 101.567428 
L 136.191897 110.15012 
L 138.392711 125.168096 
L 140.06533 133.563594 
L 142.002046 133.119451 
L 145.963511 116.628631 
L 147.988259 112.670723 
L 149.836943 112.471916 
L 154.502668 124.332276 
L 155.823156 127.752588 
L 157.67184 128.058579 
L 159.872654 118.488429 
L 162.1615 112.284653 
L 163.481988 108.255256 
L 163.570021 108.312847 
L 165.9469 118.767681 
L 167.619518 124.344918 
L 169.468202 127.805087 
L 171.316885 128.079694 
L 171.49295 127.717049 
L 174.838187 118.366769 
L 175.366383 117.066704 
L 177.655229 116.189085 
L 179.151782 115.9551 
L 179.41588 116.53275 
L 181.264563 120.964939 
L 183.113247 121.93248 
L 185.049963 126.566372 
L 185.666191 125.57477 
L 187.426842 122.468638 
L 189.011428 119.225504 
L 190.948144 120.288542 
L 193.060925 118.606317 
L 194.821576 118.302998 
L 195.173707 119.125691 
L 196.846325 123.119874 
L 198.783041 119.812402 
L 200.719757 122.338958 
L 202.832538 120.559248 
L 205.121385 117.319015 
L 206.617938 115.737974 
L 209.08285 120.205953 
L 210.579403 123.211944 
L 213.044314 123.53401 
L 214.452835 123.816554 
L 216.389551 119.375244 
L 218.590365 120.715744 
L 220.527081 121.161499 
L 222.287732 122.079019 
L 224.224448 118.404212 
L 226.33723 119.192442 
L 228.097881 120.637036 
L 228.450011 120.113253 
L 230.122629 117.542166 
L 232.059345 119.846397 
L 233.819996 117.138982 
L 233.819996 117.138982 
" clip-path="url(#p75b7eec5f5)" style="fill: none; stroke: #66c2a5; stroke-linecap: square"/>
   </g>
   <g id="line2d_28">
    <path d="M 43.229524 119.240851 
L 44.285914 119.32998 
L 46.134598 118.708732 
L 48.159346 120.315023 
L 50.00803 119.954226 
L 51.944746 116.415261 
L 52.208844 117.299837 
L 53.969495 123.681498 
L 56.610471 121.465752 
L 58.107025 120.562246 
L 60.043741 120.269557 
L 61.804392 120.647226 
L 63.741108 122.56666 
L 65.677824 119.079198 
L 67.61454 122.98283 
L 68.230768 122.093754 
L 69.639289 119.909129 
L 71.576005 114.265087 
L 73.512721 120.473845 
L 75.449437 117.012628 
L 78.442544 128.001553 
L 79.586967 131.941703 
L 81.347618 135.617971 
L 83.284334 133.68307 
L 85.661213 115.479346 
L 87.333832 100.737369 
L 89.182515 92.677485 
L 91.295296 110.746815 
L 93.232013 133.538249 
L 94.992664 144.801691 
L 95.080696 144.54202 
L 97.369542 125.445023 
L 99.042161 109.292716 
L 100.890844 103.956241 
L 102.47543 116.506745 
L 103.091658 120.702398 
L 104.852309 129.217022 
L 106.789025 125.056449 
L 108.989839 114.725776 
L 110.662458 109.640484 
L 110.926555 111.199456 
L 112.775239 122.886495 
L 114.623922 127.978438 
L 118.497355 116.379723 
L 118.585387 116.426951 
L 120.522103 118.830521 
L 122.458819 125.553835 
L 124.571601 121.17996 
L 126.772414 118.756071 
L 128.357 116.721313 
L 130.293716 118.559925 
L 132.230433 124.910335 
L 134.255181 123.193441 
L 136.27993 119.682632 
L 138.480744 118.030583 
L 140.41746 116.272806 
L 142.002046 115.370342 
L 144.20286 119.443839 
L 145.963511 121.450596 
L 147.900227 128.952737 
L 150.981366 118.654761 
L 151.949724 115.543147 
L 153.710375 112.714056 
L 153.798408 112.77638 
L 155.735124 116.635818 
L 157.759872 124.361084 
L 159.696588 125.774788 
L 161.545272 125.588205 
L 161.897402 123.815843 
L 163.570021 115.038254 
L 166.122965 117.297586 
L 167.619518 118.250566 
L 169.380169 118.185216 
L 169.908364 119.317528 
L 171.49295 122.605793 
L 173.429666 123.433081 
L 175.894578 122.542839 
L 179.327847 121.679582 
L 181.176531 118.805606 
L 183.113247 119.596182 
L 185.049963 123.720063 
L 185.754224 122.212431 
L 187.162744 119.371974 
L 189.011428 118.396892 
L 190.948144 121.86525 
L 193.148958 119.48977 
L 194.909609 116.940158 
L 196.934358 117.742598 
L 198.783041 117.224207 
L 200.80779 121.010282 
L 202.744506 121.788245 
L 204.681222 120.768929 
L 206.617938 116.842762 
L 209.170882 120.466358 
L 210.49137 122.033837 
L 211.107598 121.272288 
L 212.516119 119.564741 
L 214.540868 120.116806 
L 216.389551 119.526196 
L 218.4143 123.951041 
L 220.791179 124.137921 
L 222.1997 124.493372 
L 222.375765 123.915659 
L 224.224448 115.684359 
L 229.858532 118.554708 
L 231.090987 119.14276 
L 232.059345 119.550187 
L 233.819996 118.161489 
L 233.819996 118.161489 
" clip-path="url(#p75b7eec5f5)" style="fill: none; stroke: #fc8d62; stroke-linecap: square"/>
   </g>
   <g id="line2d_29"/>
   <g id="line2d_30"/>
   <g id="patch_3">
    <path d="M 33.7 218.39952 
L 33.7 22.2 
" style="fill: none; stroke: #000000; stroke-width: 0.6; stroke-linejoin: miter; stroke-linecap: square"/>
   </g>
   <g id="patch_4">
    <path d="M 243.34952 218.39952 
L 243.34952 22.2 
" style="fill: none; stroke: #000000; stroke-width: 0.6; stroke-linejoin: miter; stroke-linecap: square"/>
   </g>
   <g id="patch_5">
    <path d="M 33.7 218.39952 
L 243.34952 218.39952 
" style="fill: none; stroke: #000000; stroke-width: 0.6; stroke-linejoin: miter; stroke-linecap: square"/>
   </g>
   <g id="patch_6">
    <path d="M 33.7 22.2 
L 243.34952 22.2 
" style="fill: none; stroke: #000000; stroke-width: 0.6; stroke-linejoin: miter; stroke-linecap: square"/>
   </g>
   <g id="text_17">
    <!-- a -->
    <g transform="translate(20.679688 14.8) scale(0.1 -0.1)">
     <defs>
      <path id="NotoSans-Bold-61" d="M 1933 3565 
Q 2637 3565 3011 3261 
Q 3386 2957 3386 2330 
L 3386 0 
L 2720 0 
L 2534 474 
L 2509 474 
Q 2362 288 2205 166 
Q 2048 45 1846 -9 
Q 1645 -64 1350 -64 
Q 1043 -64 796 54 
Q 550 173 409 419 
Q 269 666 269 1043 
Q 269 1600 659 1865 
Q 1050 2131 1830 2157 
L 2438 2176 
L 2438 2330 
Q 2438 2605 2294 2733 
Q 2150 2861 1894 2861 
Q 1638 2861 1395 2787 
Q 1152 2714 909 2605 
L 595 3251 
Q 877 3398 1219 3481 
Q 1562 3565 1933 3565 
z
M 2067 1606 
Q 1606 1594 1427 1440 
Q 1248 1286 1248 1037 
Q 1248 819 1376 726 
Q 1504 634 1709 634 
Q 2016 634 2227 816 
Q 2438 998 2438 1331 
L 2438 1619 
L 2067 1606 
z
" transform="scale(0.015625)"/>
     </defs>
     <use xlink:href="#NotoSans-Bold-61"/>
    </g>
   </g>
   <g id="legend_1">
    <g id="patch_7">
     <path d="M 140.19327 79.2 
L 238.34952 79.2 
L 238.34952 27.2 
L 140.19327 27.2 
z
" style="fill: #ffffff; opacity: 0.9"/>
    </g>
    <g id="text_18">
     <!-- Pump polarization -->
     <g transform="translate(146.19327 40.8) scale(0.1 -0.1)">
      <defs>
       <path id="NotoSans-Regular-50" d="M 1830 4570 
Q 2726 4570 3136 4218 
Q 3546 3866 3546 3226 
Q 3546 2944 3453 2685 
Q 3360 2426 3149 2221 
Q 2938 2016 2586 1897 
Q 2234 1779 1722 1779 
L 1197 1779 
L 1197 0 
L 621 0 
L 621 4570 
L 1830 4570 
z
M 1779 4077 
L 1197 4077 
L 1197 2272 
L 1658 2272 
Q 2093 2272 2381 2365 
Q 2669 2458 2809 2662 
Q 2950 2867 2950 3200 
Q 2950 3642 2668 3859 
Q 2387 4077 1779 4077 
z
" transform="scale(0.015625)"/>
       <path id="NotoSans-Regular-75" d="M 3411 3430 
L 3411 0 
L 2950 0 
L 2867 454 
L 2842 454 
Q 2733 275 2560 160 
Q 2387 45 2182 -9 
Q 1978 -64 1754 -64 
Q 1344 -64 1065 67 
Q 787 198 646 473 
Q 506 749 506 1184 
L 506 3430 
L 1075 3430 
L 1075 1222 
Q 1075 813 1260 608 
Q 1446 403 1837 403 
Q 2221 403 2441 547 
Q 2662 691 2755 969 
Q 2848 1248 2848 1645 
L 2848 3430 
L 3411 3430 
z
" transform="scale(0.015625)"/>
       <path id="NotoSans-Regular-6d" d="M 4307 3494 
Q 4890 3494 5178 3196 
Q 5466 2899 5466 2234 
L 5466 0 
L 4909 0 
L 4909 2208 
Q 4909 2611 4739 2816 
Q 4570 3021 4211 3021 
Q 3712 3021 3497 2733 
Q 3283 2445 3283 1894 
L 3283 0 
L 2726 0 
L 2726 2208 
Q 2726 2477 2649 2659 
Q 2573 2842 2419 2931 
Q 2266 3021 2022 3021 
Q 1677 3021 1478 2877 
Q 1280 2733 1193 2457 
Q 1107 2182 1107 1779 
L 1107 0 
L 544 0 
L 544 3430 
L 998 3430 
L 1082 2963 
L 1114 2963 
Q 1222 3142 1379 3260 
Q 1536 3379 1728 3436 
Q 1920 3494 2125 3494 
Q 2522 3494 2787 3353 
Q 3053 3213 3174 2918 
L 3206 2918 
Q 3379 3213 3676 3353 
Q 3974 3494 4307 3494 
z
" transform="scale(0.015625)"/>
       <path id="NotoSans-Regular-6f" d="M 3526 1722 
Q 3526 1293 3414 963 
Q 3302 634 3094 403 
Q 2886 173 2588 54 
Q 2291 -64 1926 -64 
Q 1587 -64 1299 54 
Q 1011 173 800 403 
Q 589 634 470 963 
Q 352 1293 352 1722 
Q 352 2291 544 2684 
Q 736 3078 1094 3286 
Q 1453 3494 1946 3494 
Q 2413 3494 2768 3286 
Q 3123 3078 3324 2684 
Q 3526 2291 3526 1722 
z
M 934 1722 
Q 934 1318 1040 1020 
Q 1146 723 1370 563 
Q 1594 403 1939 403 
Q 2285 403 2509 563 
Q 2733 723 2838 1020 
Q 2944 1318 2944 1722 
Q 2944 2131 2835 2419 
Q 2726 2707 2505 2864 
Q 2285 3021 1933 3021 
Q 1408 3021 1171 2675 
Q 934 2330 934 1722 
z
" transform="scale(0.015625)"/>
       <path id="NotoSans-Regular-6c" d="M 1107 0 
L 544 0 
L 544 4864 
L 1107 4864 
L 1107 0 
z
" transform="scale(0.015625)"/>
       <path id="NotoSans-Regular-61" d="M 1843 3488 
Q 2470 3488 2771 3213 
Q 3072 2938 3072 2336 
L 3072 0 
L 2662 0 
L 2554 486 
L 2528 486 
Q 2381 301 2224 176 
Q 2067 51 1865 -6 
Q 1664 -64 1376 -64 
Q 1069 -64 822 45 
Q 576 154 435 381 
Q 294 608 294 954 
Q 294 1466 697 1744 
Q 1101 2022 1939 2048 
L 2522 2067 
L 2522 2272 
Q 2522 2701 2336 2867 
Q 2150 3034 1811 3034 
Q 1542 3034 1299 2954 
Q 1056 2874 845 2771 
L 672 3194 
Q 896 3315 1203 3401 
Q 1510 3488 1843 3488 
z
M 2010 1658 
Q 1370 1632 1123 1453 
Q 877 1274 877 947 
Q 877 659 1053 524 
Q 1229 390 1504 390 
Q 1939 390 2227 630 
Q 2515 870 2515 1370 
L 2515 1677 
L 2010 1658 
z
" transform="scale(0.015625)"/>
       <path id="NotoSans-Regular-72" d="M 2144 3494 
Q 2240 3494 2352 3484 
Q 2464 3475 2547 3456 
L 2477 2938 
Q 2394 2957 2294 2969 
Q 2195 2982 2106 2982 
Q 1907 2982 1728 2899 
Q 1549 2816 1408 2665 
Q 1267 2515 1187 2304 
Q 1107 2093 1107 1830 
L 1107 0 
L 544 0 
L 544 3430 
L 1005 3430 
L 1069 2803 
L 1094 2803 
Q 1203 2995 1356 3152 
Q 1510 3309 1708 3401 
Q 1907 3494 2144 3494 
z
" transform="scale(0.015625)"/>
       <path id="NotoSans-Regular-69" d="M 1107 3430 
L 1107 0 
L 544 0 
L 544 3430 
L 1107 3430 
z
M 832 4717 
Q 960 4717 1059 4630 
Q 1158 4544 1158 4358 
Q 1158 4179 1059 4089 
Q 960 4000 832 4000 
Q 691 4000 595 4089 
Q 499 4179 499 4358 
Q 499 4544 595 4630 
Q 691 4717 832 4717 
z
" transform="scale(0.015625)"/>
       <path id="NotoSans-Regular-7a" d="M 2758 0 
L 250 0 
L 250 371 
L 2093 2995 
L 358 2995 
L 358 3430 
L 2714 3430 
L 2714 3008 
L 896 435 
L 2758 435 
L 2758 0 
z
" transform="scale(0.015625)"/>
       <path id="NotoSans-Regular-74" d="M 1690 397 
Q 1818 397 1952 419 
Q 2086 442 2170 467 
L 2170 38 
Q 2080 -6 1913 -35 
Q 1747 -64 1594 -64 
Q 1325 -64 1097 29 
Q 870 122 729 352 
Q 589 582 589 998 
L 589 2995 
L 102 2995 
L 102 3264 
L 595 3488 
L 819 4218 
L 1152 4218 
L 1152 3430 
L 2144 3430 
L 2144 2995 
L 1152 2995 
L 1152 1011 
Q 1152 698 1302 547 
Q 1453 397 1690 397 
z
" transform="scale(0.015625)"/>
       <path id="NotoSans-Regular-6e" d="M 2195 3494 
Q 2810 3494 3123 3196 
Q 3437 2899 3437 2234 
L 3437 0 
L 2880 0 
L 2880 2195 
Q 2880 2611 2694 2816 
Q 2509 3021 2112 3021 
Q 1542 3021 1324 2701 
Q 1107 2381 1107 1779 
L 1107 0 
L 544 0 
L 544 3430 
L 998 3430 
L 1082 2963 
L 1114 2963 
Q 1229 3142 1398 3260 
Q 1568 3379 1773 3436 
Q 1978 3494 2195 3494 
z
" transform="scale(0.015625)"/>
      </defs>
      <use xlink:href="#NotoSans-Regular-50"/>
      <use xlink:href="#NotoSans-Regular-75" x="60.499985"/>
      <use xlink:href="#NotoSans-Regular-6d" x="122.299973"/>
      <use xlink:href="#NotoSans-Regular-70" x="215.799957"/>
      <use xlink:href="#NotoSans-Regular-20" x="277.299942"/>
      <use xlink:href="#NotoSans-Regular-70" x="303.299927"/>
      <use xlink:href="#NotoSans-Regular-6f" x="364.799911"/>
      <use xlink:href="#NotoSans-Regular-6c" x="425.299896"/>
      <use xlink:href="#NotoSans-Regular-61" x="451.099884"/>
      <use xlink:href="#NotoSans-Regular-72" x="507.199875"/>
      <use xlink:href="#NotoSans-Regular-69" x="548.499863"/>
      <use xlink:href="#NotoSans-Regular-7a" x="574.29985"/>
      <use xlink:href="#NotoSans-Regular-61" x="621.299835"/>
      <use xlink:href="#NotoSans-Regular-74" x="677.399826"/>
      <use xlink:href="#NotoSans-Regular-69" x="713.499817"/>
      <use xlink:href="#NotoSans-Regular-6f" x="739.299805"/>
      <use xlink:href="#NotoSans-Regular-6e" x="799.799789"/>
     </g>
    </g>
    <g id="line2d_31">
     <path d="M 152.021395 52.3 
L 162.021395 52.3 
L 172.021395 52.3 
" style="fill: none; stroke: #66c2a5; stroke-linecap: square"/>
    </g>
    <g id="text_19">
     <!-- $y$, aligned -->
     <g transform="translate(180.021395 55.8) scale(0.1 -0.1)">
      <defs>
       <path id="NotoSans-Italic-79" d="M -160 -1536 
Q -314 -1536 -413 -1517 
Q -512 -1498 -602 -1472 
L -602 -1018 
Q -512 -1043 -409 -1059 
Q -307 -1075 -192 -1075 
Q 70 -1075 252 -915 
Q 435 -755 602 -448 
L 826 -51 
L 307 3430 
L 870 3430 
L 1094 1734 
Q 1126 1530 1142 1283 
Q 1158 1037 1168 816 
Q 1178 595 1178 461 
L 1197 461 
Q 1242 563 1328 768 
Q 1414 973 1516 1190 
Q 1619 1408 1696 1549 
L 2694 3430 
L 3296 3430 
L 1120 -576 
Q 947 -896 768 -1110 
Q 589 -1325 365 -1430 
Q 141 -1536 -160 -1536 
z
" transform="scale(0.015625)"/>
       <path id="NotoSans-Regular-2c" d="M 1229 672 
Q 1171 448 1081 185 
Q 992 -77 886 -336 
Q 781 -595 678 -826 
L 262 -826 
Q 326 -582 387 -304 
Q 448 -26 499 246 
Q 550 518 582 742 
L 1184 742 
L 1229 672 
z
" transform="scale(0.015625)"/>
       <path id="NotoSans-Regular-67" d="M 1760 3494 
Q 2099 3494 2371 3366 
Q 2643 3238 2835 2976 
L 2867 2976 
L 2944 3430 
L 3392 3430 
L 3392 -58 
Q 3392 -544 3225 -873 
Q 3059 -1203 2720 -1369 
Q 2381 -1536 1856 -1536 
Q 1485 -1536 1174 -1481 
Q 864 -1427 621 -1318 
L 621 -800 
Q 864 -928 1190 -998 
Q 1517 -1069 1888 -1069 
Q 2330 -1069 2582 -809 
Q 2835 -550 2835 -102 
L 2835 32 
Q 2835 109 2841 253 
Q 2848 397 2854 454 
L 2829 454 
Q 2650 192 2384 64 
Q 2118 -64 1766 -64 
Q 1101 -64 726 403 
Q 352 870 352 1709 
Q 352 2528 726 3011 
Q 1101 3494 1760 3494 
z
M 1837 3021 
Q 1549 3021 1347 2867 
Q 1146 2714 1040 2419 
Q 934 2125 934 1702 
Q 934 1069 1168 733 
Q 1402 397 1850 397 
Q 2112 397 2297 464 
Q 2483 531 2604 675 
Q 2726 819 2784 1043 
Q 2842 1267 2842 1574 
L 2842 1709 
Q 2842 2176 2736 2464 
Q 2630 2752 2406 2886 
Q 2182 3021 1837 3021 
z
" transform="scale(0.015625)"/>
       <path id="NotoSans-Regular-65" d="M 1869 3494 
Q 2310 3494 2627 3302 
Q 2944 3110 3113 2761 
Q 3283 2413 3283 1946 
L 3283 1606 
L 934 1606 
Q 947 1024 1232 720 
Q 1517 416 2029 416 
Q 2355 416 2608 477 
Q 2861 538 3130 653 
L 3130 160 
Q 2867 45 2611 -9 
Q 2355 -64 2003 -64 
Q 1517 -64 1142 134 
Q 768 333 560 726 
Q 352 1120 352 1690 
Q 352 2253 541 2656 
Q 730 3059 1072 3276 
Q 1414 3494 1869 3494 
z
M 1862 3034 
Q 1459 3034 1225 2774 
Q 992 2515 947 2054 
L 2694 2054 
Q 2694 2349 2604 2566 
Q 2515 2784 2332 2909 
Q 2150 3034 1862 3034 
z
" transform="scale(0.015625)"/>
       <path id="NotoSans-Regular-64" d="M 1760 -64 
Q 1120 -64 736 381 
Q 352 826 352 1709 
Q 352 2592 739 3043 
Q 1126 3494 1766 3494 
Q 2035 3494 2233 3427 
Q 2432 3360 2579 3245 
Q 2726 3130 2829 2989 
L 2867 2989 
Q 2861 3072 2845 3235 
Q 2829 3398 2829 3494 
L 2829 4864 
L 3392 4864 
L 3392 0 
L 2938 0 
L 2854 461 
L 2829 461 
Q 2726 314 2579 195 
Q 2432 77 2230 6 
Q 2029 -64 1760 -64 
z
M 1850 403 
Q 2394 403 2614 700 
Q 2835 998 2835 1600 
L 2835 1702 
Q 2835 2342 2624 2684 
Q 2413 3027 1843 3027 
Q 1389 3027 1161 2665 
Q 934 2304 934 1696 
Q 934 1082 1161 742 
Q 1389 403 1850 403 
z
" transform="scale(0.015625)"/>
      </defs>
      <use xlink:href="#NotoSans-Italic-79"/>
      <use xlink:href="#NotoSans-Regular-2c" transform="translate(46.699997 0)"/>
      <use xlink:href="#NotoSans-Regular-20" transform="translate(73.499985 0)"/>
      <use xlink:href="#NotoSans-Regular-61" transform="translate(99.499969 0)"/>
      <use xlink:href="#NotoSans-Regular-6c" transform="translate(155.59996 0)"/>
      <use xlink:href="#NotoSans-Regular-69" transform="translate(181.399948 0)"/>
      <use xlink:href="#NotoSans-Regular-67" transform="translate(207.199936 0)"/>
      <use xlink:href="#NotoSans-Regular-6e" transform="translate(268.699921 0)"/>
      <use xlink:href="#NotoSans-Regular-65" transform="translate(330.499908 0)"/>
      <use xlink:href="#NotoSans-Regular-64" transform="translate(386.899902 0)"/>
     </g>
    </g>
    <g id="line2d_32">
     <path d="M 152.021395 67.3 
L 162.021395 67.3 
L 172.021395 67.3 
" style="fill: none; stroke: #fc8d62; stroke-linecap: square"/>
    </g>
    <g id="text_20">
     <!-- $x$, crossed -->
     <g transform="translate(180.021395 70.8) scale(0.1 -0.1)">
      <defs>
       <path id="NotoSans-Italic-78" d="M -237 0 
L 1248 1766 
L 506 3430 
L 1075 3430 
L 1606 2163 
L 2611 3430 
L 3264 3430 
L 1837 1741 
L 2624 0 
L 2054 0 
L 1472 1331 
L 416 0 
L -237 0 
z
" transform="scale(0.015625)"/>
       <path id="NotoSans-Regular-63" d="M 1920 -64 
Q 1466 -64 1110 121 
Q 755 307 553 697 
Q 352 1088 352 1696 
Q 352 2330 563 2726 
Q 774 3123 1136 3308 
Q 1498 3494 1958 3494 
Q 2221 3494 2464 3440 
Q 2707 3386 2861 3309 
L 2688 2842 
Q 2534 2899 2329 2950 
Q 2125 3002 1946 3002 
Q 1600 3002 1376 2854 
Q 1152 2707 1043 2419 
Q 934 2131 934 1702 
Q 934 1293 1043 1005 
Q 1152 717 1369 569 
Q 1587 422 1914 422 
Q 2195 422 2409 480 
Q 2624 538 2803 621 
L 2803 122 
Q 2630 32 2422 -16 
Q 2214 -64 1920 -64 
z
" transform="scale(0.015625)"/>
      </defs>
      <use xlink:href="#NotoSans-Italic-78"/>
      <use xlink:href="#NotoSans-Regular-2c" transform="translate(48.299988 0)"/>
      <use xlink:href="#NotoSans-Regular-20" transform="translate(75.099976 0)"/>
      <use xlink:href="#NotoSans-Regular-63" transform="translate(101.09996 0)"/>
      <use xlink:href="#NotoSans-Regular-72" transform="translate(149.099945 0)"/>
      <use xlink:href="#NotoSans-Regular-6f" transform="translate(190.399933 0)"/>
      <use xlink:href="#NotoSans-Regular-73" transform="translate(250.899918 0)"/>
      <use xlink:href="#NotoSans-Regular-73" transform="translate(298.799911 0)"/>
      <use xlink:href="#NotoSans-Regular-65" transform="translate(346.699905 0)"/>
      <use xlink:href="#NotoSans-Regular-64" transform="translate(403.099899 0)"/>
     </g>
    </g>
   </g>
  </g>
  <g id="axes_2">
   <g id="patch_8">
    <path d="M 281.15 218.39952 
L 490.79952 218.39952 
L 490.79952 22.2 
L 281.15 22.2 
z
" style="fill: #ffffff"/>
   </g>
   <g id="PolyCollection_3"/>
   <g id="PolyCollection_4"/>
   <g id="matplotlib.axis_3">
    <g id="xtick_7">
     <g id="line2d_33">
      <g>
       <use xlink:href="#mbeb8f593a4" x="321.640317" y="218.39952" style="stroke: #000000; stroke-width: 0.6"/>
      </g>
     </g>
     <g id="line2d_34">
      <g>
       <use xlink:href="#m610317c047" x="321.640317" y="22.2" style="stroke: #000000; stroke-width: 0.6"/>
      </g>
     </g>
     <g id="text_21">
      <!-- $\mathdefault{0.5}$ -->
      <g transform="translate(314.540317 229.49952) scale(0.1 -0.1)">
       <use xlink:href="#NotoSans-Regular-30" transform="translate(0 0.5)"/>
       <use xlink:href="#NotoSans-Regular-2e" transform="translate(57.199997 0.5)"/>
       <use xlink:href="#NotoSans-Regular-35" transform="translate(83.999985 0.5)"/>
      </g>
     </g>
    </g>
    <g id="xtick_8">
     <g id="line2d_35">
      <g>
       <use xlink:href="#mbeb8f593a4" x="374.85279" y="218.39952" style="stroke: #000000; stroke-width: 0.6"/>
      </g>
     </g>
     <g id="line2d_36">
      <g>
       <use xlink:href="#m610317c047" x="374.85279" y="22.2" style="stroke: #000000; stroke-width: 0.6"/>
      </g>
     </g>
     <g id="text_22">
      <!-- $\mathdefault{1.0}$ -->
      <g transform="translate(367.75279 229.49952) scale(0.1 -0.1)">
       <use xlink:href="#NotoSans-Regular-31" transform="translate(0 0.5)"/>
       <use xlink:href="#NotoSans-Regular-2e" transform="translate(57.199997 0.5)"/>
       <use xlink:href="#NotoSans-Regular-30" transform="translate(83.999985 0.5)"/>
      </g>
     </g>
    </g>
    <g id="xtick_9">
     <g id="line2d_37">
      <g>
       <use xlink:href="#mbeb8f593a4" x="428.065263" y="218.39952" style="stroke: #000000; stroke-width: 0.6"/>
      </g>
     </g>
     <g id="line2d_38">
      <g>
       <use xlink:href="#m610317c047" x="428.065263" y="22.2" style="stroke: #000000; stroke-width: 0.6"/>
      </g>
     </g>
     <g id="text_23">
      <!-- $\mathdefault{1.5}$ -->
      <g transform="translate(420.965263 229.49952) scale(0.1 -0.1)">
       <use xlink:href="#NotoSans-Regular-31" transform="translate(0 0.59375)"/>
       <use xlink:href="#NotoSans-Regular-2e" transform="translate(57.199997 0.59375)"/>
       <use xlink:href="#NotoSans-Regular-35" transform="translate(83.999985 0.59375)"/>
      </g>
     </g>
    </g>
    <g id="xtick_10">
     <g id="line2d_39">
      <g>
       <use xlink:href="#mbeb8f593a4" x="481.277736" y="218.39952" style="stroke: #000000; stroke-width: 0.6"/>
      </g>
     </g>
     <g id="line2d_40">
      <g>
       <use xlink:href="#m610317c047" x="481.277736" y="22.2" style="stroke: #000000; stroke-width: 0.6"/>
      </g>
     </g>
     <g id="text_24">
      <!-- $\mathdefault{2.0}$ -->
      <g transform="translate(474.177736 229.49952) scale(0.1 -0.1)">
       <use xlink:href="#NotoSans-Regular-32" transform="translate(0 0.5)"/>
       <use xlink:href="#NotoSans-Regular-2e" transform="translate(57.199997 0.5)"/>
       <use xlink:href="#NotoSans-Regular-30" transform="translate(83.999985 0.5)"/>
      </g>
     </g>
    </g>
    <g id="text_25">
     <!-- $f$ (THz) -->
     <g transform="translate(371.22476 243.59952) scale(0.1 -0.1)">
      <defs>
       <path id="NotoSans-Italic-66" d="M -307 -1536 
Q -429 -1536 -531 -1517 
Q -634 -1498 -717 -1472 
L -717 -998 
Q -627 -1024 -544 -1046 
Q -461 -1069 -358 -1069 
Q -128 -1069 0 -880 
Q 128 -691 205 -339 
L 909 3002 
L 314 3002 
L 358 3238 
L 998 3450 
L 1069 3757 
Q 1146 4083 1248 4304 
Q 1350 4525 1488 4656 
Q 1626 4787 1811 4841 
Q 1997 4896 2234 4896 
Q 2394 4896 2563 4861 
Q 2733 4826 2835 4774 
L 2688 4346 
Q 2598 4378 2492 4406 
Q 2387 4435 2259 4435 
Q 2010 4435 1866 4294 
Q 1722 4154 1632 3757 
L 1555 3430 
L 2291 3430 
L 2208 3002 
L 1472 3002 
L 755 -403 
Q 678 -755 547 -1011 
Q 416 -1267 208 -1401 
Q 0 -1536 -307 -1536 
z
" transform="scale(0.015625)"/>
       <path id="NotoSans-Regular-54" d="M 2067 0 
L 1491 0 
L 1491 4064 
L 64 4064 
L 64 4570 
L 3488 4570 
L 3488 4064 
L 2067 4064 
L 2067 0 
z
" transform="scale(0.015625)"/>
       <path id="NotoSans-Regular-48" d="M 4115 0 
L 3539 0 
L 3539 2131 
L 1197 2131 
L 1197 0 
L 621 0 
L 621 4570 
L 1197 4570 
L 1197 2637 
L 3539 2637 
L 3539 4570 
L 4115 4570 
L 4115 0 
z
" transform="scale(0.015625)"/>
      </defs>
      <use xlink:href="#NotoSans-Italic-66" transform="translate(0 0.5)"/>
      <use xlink:href="#NotoSans-Regular-20" transform="translate(31.799988 0.5)"/>
      <use xlink:href="#NotoSans-Regular-28" transform="translate(57.799973 0.5)"/>
      <use xlink:href="#NotoSans-Regular-54" transform="translate(87.799957 0.5)"/>
      <use xlink:href="#NotoSans-Regular-48" transform="translate(143.399948 0.5)"/>
      <use xlink:href="#NotoSans-Regular-7a" transform="translate(217.499939 0.5)"/>
      <use xlink:href="#NotoSans-Regular-29" transform="translate(264.499924 0.5)"/>
     </g>
    </g>
   </g>
   <g id="matplotlib.axis_4">
    <g id="ytick_8">
     <g id="line2d_41">
      <g>
       <use xlink:href="#m68eedcbf45" x="281.15" y="218.39952" style="stroke: #000000; stroke-width: 0.6"/>
      </g>
     </g>
     <g id="line2d_42">
      <g>
       <use xlink:href="#mf4b19843b7" x="490.79952" y="218.39952" style="stroke: #000000; stroke-width: 0.6"/>
      </g>
     </g>
     <g id="text_26">
      <!-- $\mathdefault{0.0}$ -->
      <g transform="translate(263.45 222.19952) scale(0.1 -0.1)">
       <use xlink:href="#NotoSans-Regular-30" transform="translate(0 0.5)"/>
       <use xlink:href="#NotoSans-Regular-2e" transform="translate(57.199997 0.5)"/>
       <use xlink:href="#NotoSans-Regular-30" transform="translate(83.999985 0.5)"/>
      </g>
     </g>
    </g>
    <g id="ytick_9">
     <g id="line2d_43">
      <g>
       <use xlink:href="#m68eedcbf45" x="281.15" y="179.159616" style="stroke: #000000; stroke-width: 0.6"/>
      </g>
     </g>
     <g id="line2d_44">
      <g>
       <use xlink:href="#mf4b19843b7" x="490.79952" y="179.159616" style="stroke: #000000; stroke-width: 0.6"/>
      </g>
     </g>
     <g id="text_27">
      <!-- $\mathdefault{0.2}$ -->
      <g transform="translate(263.45 182.959616) scale(0.1 -0.1)">
       <use xlink:href="#NotoSans-Regular-30" transform="translate(0 0.5)"/>
       <use xlink:href="#NotoSans-Regular-2e" transform="translate(57.199997 0.5)"/>
       <use xlink:href="#NotoSans-Regular-32" transform="translate(83.999985 0.5)"/>
      </g>
     </g>
    </g>
    <g id="ytick_10">
     <g id="line2d_45">
      <g>
       <use xlink:href="#m68eedcbf45" x="281.15" y="139.919712" style="stroke: #000000; stroke-width: 0.6"/>
      </g>
     </g>
     <g id="line2d_46">
      <g>
       <use xlink:href="#mf4b19843b7" x="490.79952" y="139.919712" style="stroke: #000000; stroke-width: 0.6"/>
      </g>
     </g>
     <g id="text_28">
      <!-- $\mathdefault{0.4}$ -->
      <g transform="translate(263.45 143.719712) scale(0.1 -0.1)">
       <defs>
        <path id="NotoSans-Regular-34" d="M 3533 1037 
L 2867 1037 
L 2867 0 
L 2323 0 
L 2323 1037 
L 134 1037 
L 134 1517 
L 2285 4595 
L 2867 4595 
L 2867 1542 
L 3533 1542 
L 3533 1037 
z
M 2323 2982 
Q 2323 3149 2326 3286 
Q 2330 3424 2336 3545 
Q 2342 3667 2345 3779 
Q 2349 3891 2355 3994 
L 2330 3994 
Q 2278 3872 2201 3731 
Q 2125 3590 2054 3494 
L 685 1542 
L 2323 1542 
L 2323 2982 
z
" transform="scale(0.015625)"/>
       </defs>
       <use xlink:href="#NotoSans-Regular-30" transform="translate(0 0.5)"/>
       <use xlink:href="#NotoSans-Regular-2e" transform="translate(57.199997 0.5)"/>
       <use xlink:href="#NotoSans-Regular-34" transform="translate(83.999985 0.5)"/>
      </g>
     </g>
    </g>
    <g id="ytick_11">
     <g id="line2d_47">
      <g>
       <use xlink:href="#m68eedcbf45" x="281.15" y="100.679808" style="stroke: #000000; stroke-width: 0.6"/>
      </g>
     </g>
     <g id="line2d_48">
      <g>
       <use xlink:href="#mf4b19843b7" x="490.79952" y="100.679808" style="stroke: #000000; stroke-width: 0.6"/>
      </g>
     </g>
     <g id="text_29">
      <!-- $\mathdefault{0.6}$ -->
      <g transform="translate(263.45 104.479808) scale(0.1 -0.1)">
       <defs>
        <path id="NotoSans-Regular-36" d="M 352 1952 
Q 352 2349 406 2733 
Q 461 3117 595 3459 
Q 730 3802 966 4067 
Q 1203 4333 1564 4483 
Q 1926 4634 2445 4634 
Q 2579 4634 2742 4621 
Q 2906 4608 3008 4576 
L 3008 4096 
Q 2893 4134 2749 4153 
Q 2605 4173 2458 4173 
Q 2016 4173 1721 4025 
Q 1427 3878 1257 3622 
Q 1088 3366 1011 3033 
Q 934 2701 915 2323 
L 954 2323 
Q 1050 2477 1197 2598 
Q 1344 2720 1552 2790 
Q 1760 2861 2035 2861 
Q 2432 2861 2729 2697 
Q 3027 2534 3193 2224 
Q 3360 1914 3360 1472 
Q 3360 998 3181 652 
Q 3002 307 2678 121 
Q 2355 -64 1907 -64 
Q 1581 -64 1299 57 
Q 1018 179 803 428 
Q 589 678 470 1059 
Q 352 1440 352 1952 
z
M 1901 410 
Q 2304 410 2553 669 
Q 2803 928 2803 1472 
Q 2803 1907 2582 2163 
Q 2362 2419 1920 2419 
Q 1619 2419 1395 2294 
Q 1171 2170 1046 1978 
Q 922 1786 922 1581 
Q 922 1370 982 1165 
Q 1043 960 1168 787 
Q 1293 614 1475 512 
Q 1658 410 1901 410 
z
" transform="scale(0.015625)"/>
       </defs>
       <use xlink:href="#NotoSans-Regular-30" transform="translate(0 0.5)"/>
       <use xlink:href="#NotoSans-Regular-2e" transform="translate(57.199997 0.5)"/>
       <use xlink:href="#NotoSans-Regular-36" transform="translate(83.999985 0.5)"/>
      </g>
     </g>
    </g>
    <g id="ytick_12">
     <g id="line2d_49">
      <g>
       <use xlink:href="#m68eedcbf45" x="281.15" y="61.439904" style="stroke: #000000; stroke-width: 0.6"/>
      </g>
     </g>
     <g id="line2d_50">
      <g>
       <use xlink:href="#mf4b19843b7" x="490.79952" y="61.439904" style="stroke: #000000; stroke-width: 0.6"/>
      </g>
     </g>
     <g id="text_30">
      <!-- $\mathdefault{0.8}$ -->
      <g transform="translate(263.45 65.239904) scale(0.1 -0.1)">
       <defs>
        <path id="NotoSans-Regular-38" d="M 1824 4634 
Q 2227 4634 2534 4509 
Q 2842 4384 3018 4141 
Q 3194 3898 3194 3539 
Q 3194 3264 3075 3059 
Q 2957 2854 2758 2697 
Q 2560 2541 2323 2419 
Q 2605 2285 2835 2115 
Q 3066 1946 3203 1722 
Q 3341 1498 3341 1184 
Q 3341 800 3155 521 
Q 2970 243 2634 89 
Q 2298 -64 1843 -64 
Q 1350 -64 1008 83 
Q 666 230 490 502 
Q 314 774 314 1165 
Q 314 1478 445 1708 
Q 576 1939 793 2105 
Q 1011 2272 1261 2387 
Q 1037 2515 854 2678 
Q 672 2842 566 3053 
Q 461 3264 461 3546 
Q 461 3898 640 4138 
Q 819 4378 1126 4506 
Q 1434 4634 1824 4634 
z
M 864 1158 
Q 864 826 1101 605 
Q 1338 384 1830 384 
Q 2298 384 2544 605 
Q 2790 826 2790 1178 
Q 2790 1402 2672 1571 
Q 2554 1741 2339 1875 
Q 2125 2010 1830 2118 
L 1728 2157 
Q 1446 2035 1254 1894 
Q 1062 1754 963 1574 
Q 864 1395 864 1158 
z
M 1818 4179 
Q 1466 4179 1238 4009 
Q 1011 3840 1011 3520 
Q 1011 3283 1123 3123 
Q 1235 2963 1427 2851 
Q 1619 2739 1850 2637 
Q 2074 2733 2250 2848 
Q 2426 2963 2531 3126 
Q 2637 3290 2637 3520 
Q 2637 3840 2413 4009 
Q 2189 4179 1818 4179 
z
" transform="scale(0.015625)"/>
       </defs>
       <use xlink:href="#NotoSans-Regular-30" transform="translate(0 0.5)"/>
       <use xlink:href="#NotoSans-Regular-2e" transform="translate(57.199997 0.5)"/>
       <use xlink:href="#NotoSans-Regular-38" transform="translate(83.999985 0.5)"/>
      </g>
     </g>
    </g>
    <g id="ytick_13">
     <g id="line2d_51">
      <g>
       <use xlink:href="#m68eedcbf45" x="281.15" y="22.2" style="stroke: #000000; stroke-width: 0.6"/>
      </g>
     </g>
     <g id="line2d_52">
      <g>
       <use xlink:href="#mf4b19843b7" x="490.79952" y="22.2" style="stroke: #000000; stroke-width: 0.6"/>
      </g>
     </g>
     <g id="text_31">
      <!-- $\mathdefault{1.0}$ -->
      <g transform="translate(263.45 26) scale(0.1 -0.1)">
       <use xlink:href="#NotoSans-Regular-31" transform="translate(0 0.5)"/>
       <use xlink:href="#NotoSans-Regular-2e" transform="translate(57.199997 0.5)"/>
       <use xlink:href="#NotoSans-Regular-30" transform="translate(83.999985 0.5)"/>
      </g>
     </g>
    </g>
    <g id="text_32">
     <!-- $|\Delta t/t|$ -->
     <g transform="translate(256.95 134.19976) rotate(-90) scale(0.1 -0.1)">
      <defs>
       <path id="NotoSans-Regular-7c" d="M 1530 4864 
L 1997 4864 
L 1997 -1542 
L 1530 -1542 
L 1530 4864 
z
" transform="scale(0.015625)"/>
       <path id="NotoSans-Regular-2f" d="M 2317 4570 
L 614 0 
L 64 0 
L 1766 4570 
L 2317 4570 
z
" transform="scale(0.015625)"/>
      </defs>
      <use xlink:href="#NotoSans-Regular-7c"/>
      <use xlink:href="#NotoSans-Regular-394" transform="translate(55.099991 0)"/>
      <use xlink:href="#NotoSans-Italic-74" transform="translate(118.999985 0)"/>
      <use xlink:href="#NotoSans-Regular-2f" transform="translate(152.199982 0)"/>
      <use xlink:href="#NotoSans-Italic-74" transform="translate(189.399979 0)"/>
      <use xlink:href="#NotoSans-Regular-7c" transform="translate(222.599976 0)"/>
     </g>
    </g>
   </g>
   <g id="line2d_53">
    <path d="M 290.679524 205.849851 
L 291.646988 204.861962 
L 292.614452 204.502254 
L 293.581917 204.632047 
L 294.549381 205.137656 
L 297.451774 207.366867 
L 300.354167 209.069069 
L 301.321631 209.864455 
L 302.289096 210.870571 
L 303.25656 212.107744 
L 306.158953 216.351292 
L 307.126417 216.017151 
L 310.02881 211.722413 
L 310.996275 210.675028 
L 311.963739 209.913333 
L 312.931203 209.441728 
L 313.898668 209.279509 
L 314.866132 209.462257 
L 315.833596 210.023526 
L 316.801061 210.959576 
L 319.703453 214.750519 
L 320.670918 215.398278 
L 321.638382 215.238394 
L 324.540775 213.327617 
L 325.508239 213.118168 
L 326.475704 213.310053 
L 327.443168 213.92475 
L 328.410632 214.910142 
L 329.378097 216.106072 
L 330.345561 217.010881 
L 331.313025 216.508915 
L 333.247954 213.963153 
L 334.215418 212.907034 
L 335.182883 212.177277 
L 336.150347 211.846013 
L 337.117811 211.948622 
L 338.085276 212.471941 
L 339.05274 213.345658 
L 340.987669 215.533014 
L 341.955133 216.217849 
L 342.922597 216.004611 
L 344.857526 214.162344 
L 346.792455 212.492034 
L 347.759919 211.897098 
L 349.694848 211.058121 
L 351.629776 210.290627 
L 353.564705 209.315063 
L 357.434562 207.237494 
L 359.369491 206.215877 
L 360.336955 205.57101 
L 361.30442 204.732897 
L 362.271884 203.621915 
L 363.239348 202.175403 
L 364.206813 200.354147 
L 365.174277 198.136033 
L 366.141741 195.501842 
L 367.109206 192.422143 
L 368.07667 188.852298 
L 369.044134 184.74037 
L 370.979063 174.840961 
L 372.913992 164.030635 
L 373.881456 159.815457 
L 374.84892 157.609058 
L 375.816385 157.884868 
L 376.783849 160.34737 
L 377.751313 164.204754 
L 381.621171 181.693332 
L 383.556099 189.079279 
L 385.491028 195.41612 
L 386.458492 198.138332 
L 387.425956 200.494207 
L 388.393421 202.431805 
L 389.360885 203.927262 
L 390.328349 205.002143 
L 391.295814 205.722991 
L 392.263278 206.182997 
L 394.198207 206.690405 
L 397.1006 207.351652 
L 401.937921 208.803067 
L 402.905386 208.848102 
L 403.87285 208.736231 
L 405.807779 208.130272 
L 407.742707 207.390901 
L 408.710172 207.14349 
L 409.677636 207.058083 
L 410.6451 207.174091 
L 411.612565 207.508575 
L 412.580029 208.055753 
L 413.547493 208.789742 
L 415.482422 210.633989 
L 417.417351 212.49159 
L 418.384815 213.13679 
L 419.352279 213.404319 
L 420.319744 213.249111 
L 421.287208 212.778385 
L 424.189601 211.04261 
L 426.12453 210.344385 
L 428.059458 210.021761 
L 430.961851 209.685518 
L 431.929316 209.378897 
L 432.89678 208.851968 
L 433.864244 208.080109 
L 435.799173 206.042003 
L 437.734102 204.050937 
L 438.701566 203.310407 
L 439.66903 202.844693 
L 440.636495 202.741288 
L 441.603959 203.112556 
L 442.571423 204.104777 
L 443.538888 205.890591 
L 444.506352 208.618079 
L 446.441281 216.191741 
L 447.408745 214.910319 
L 448.376209 211.243928 
L 449.343674 208.529057 
L 450.311138 207.042504 
L 451.278602 206.724249 
L 452.246067 207.409701 
L 453.213531 208.892564 
L 455.148459 212.939001 
L 456.115924 214.105151 
L 457.083388 213.680491 
L 458.050852 212.653402 
L 459.018317 212.175616 
L 459.985781 212.736823 
L 460.953245 214.433725 
L 461.92071 217.128141 
L 462.888174 215.999801 
L 464.823103 207.339862 
L 466.758031 198.684841 
L 467.725496 195.520204 
L 468.69296 193.9682 
L 469.660424 194.563179 
L 470.627889 197.403792 
L 471.595353 201.960579 
L 472.562817 207.108643 
L 473.530282 210.828787 
L 474.497746 210.282145 
L 476.432675 203.69514 
L 477.400139 201.640272 
L 478.367603 201.311608 
L 479.335068 202.791926 
L 480.302532 204.741291 
L 481.269996 203.273579 
L 481.269996 203.273579 
" clip-path="url(#pf095785348)" style="fill: none; stroke: #66c2a5; stroke-linecap: square"/>
   </g>
   <g id="line2d_54">
    <path d="M 290.679524 209.264965 
L 291.646988 207.888215 
L 292.614452 207.10672 
L 294.549381 206.349848 
L 295.516845 205.522563 
L 297.451774 202.691428 
L 298.419238 201.755007 
L 299.386703 201.571746 
L 300.354167 202.095193 
L 301.321631 203.206803 
L 302.289096 204.818065 
L 303.25656 206.878131 
L 304.224024 209.34239 
L 307.126417 217.479984 
L 308.093882 215.857585 
L 309.061346 213.709351 
L 310.02881 212.030455 
L 310.996275 210.844903 
L 311.963739 210.105163 
L 312.931203 209.760547 
L 313.898668 209.785117 
L 314.866132 210.182691 
L 315.833596 210.970493 
L 316.801061 212.144369 
L 319.703453 216.682639 
L 320.670918 216.540749 
L 323.573311 212.667631 
L 324.540775 211.865436 
L 325.508239 211.476632 
L 326.475704 211.507888 
L 329.378097 212.471185 
L 330.345561 212.108412 
L 331.313025 211.277896 
L 333.247954 209.362504 
L 334.215418 208.771171 
L 335.182883 208.622174 
L 336.150347 208.964982 
L 337.117811 209.748136 
L 339.05274 211.710445 
L 340.020204 212.060146 
L 340.987669 211.578802 
L 341.955133 210.492335 
L 343.890062 208.06337 
L 344.857526 207.228525 
L 345.82499 206.818237 
L 346.792455 206.874081 
L 347.759919 207.368748 
L 350.662312 209.912937 
L 351.629776 210.236153 
L 352.597241 209.989499 
L 353.564705 209.306915 
L 355.499634 207.633535 
L 356.467098 207.02045 
L 357.434562 206.682477 
L 358.402027 206.633208 
L 359.369491 206.825475 
L 361.30442 207.42989 
L 362.271884 207.477244 
L 363.239348 207.149933 
L 364.206813 206.436997 
L 368.07667 202.65621 
L 369.044134 202.262582 
L 370.011599 202.335166 
L 370.979063 202.982587 
L 371.946527 204.293771 
L 372.913992 206.255796 
L 373.881456 208.549296 
L 374.84892 210.246131 
L 375.816385 210.151649 
L 376.783849 208.487165 
L 377.751313 206.439537 
L 378.718778 204.664671 
L 379.686242 203.33046 
L 380.653706 202.416312 
L 381.621171 201.852138 
L 382.588635 201.565726 
L 383.556099 201.494535 
L 384.523564 201.586225 
L 386.458492 202.094534 
L 388.393421 202.874338 
L 390.328349 203.928097 
L 392.263278 205.424071 
L 394.198207 207.499482 
L 397.1006 211.141601 
L 398.068064 211.967554 
L 399.035528 212.229083 
L 400.002993 211.859602 
L 400.970457 211.039112 
L 403.87285 208.108522 
L 405.807779 206.724847 
L 409.677636 204.512321 
L 411.612565 202.832123 
L 414.514958 200.061965 
L 415.482422 199.412316 
L 416.449886 199.053446 
L 417.417351 199.066921 
L 418.384815 199.509333 
L 419.352279 200.383073 
L 422.254672 203.931711 
L 423.222137 204.253251 
L 424.189601 203.639774 
L 425.157065 202.21224 
L 428.059458 196.440978 
L 429.026923 194.97904 
L 429.994387 194.088214 
L 430.961851 193.901395 
L 431.929316 194.461375 
L 432.89678 195.647467 
L 433.864244 197.10831 
L 434.831709 198.280115 
L 435.799173 198.579694 
L 436.766637 197.721252 
L 437.734102 195.844252 
L 438.701566 193.304194 
L 443.538888 179.217007 
L 444.506352 177.569265 
L 445.473816 177.247526 
L 446.441281 178.777893 
L 447.408745 182.279107 
L 448.376209 187.258426 
L 450.311138 198.403313 
L 451.278602 203.248276 
L 452.246067 206.840586 
L 453.213531 208.4338 
L 454.180995 207.807661 
L 456.115924 203.995203 
L 457.083388 202.692305 
L 458.050852 202.414445 
L 459.018317 203.259524 
L 459.985781 205.08095 
L 461.92071 210.367473 
L 462.888174 213.118851 
L 463.855638 215.468016 
L 464.823103 216.784374 
L 465.790567 216.485365 
L 467.725496 215.102508 
L 468.69296 213.55142 
L 469.660424 210.879375 
L 471.595353 204.293066 
L 472.562817 201.655412 
L 473.530282 200.014503 
L 474.497746 199.568863 
L 475.46521 200.439143 
L 476.432675 202.71291 
L 478.367603 210.25358 
L 479.335068 208.896747 
L 480.302532 200.542474 
L 481.269996 190.604283 
L 481.269996 190.604283 
" clip-path="url(#pf095785348)" style="fill: none; stroke: #fc8d62; stroke-linecap: square"/>
   </g>
   <g id="patch_9">
    <path d="M 281.15 218.39952 
L 281.15 22.2 
" style="fill: none; stroke: #000000; stroke-width: 0.6; stroke-linejoin: miter; stroke-linecap: square"/>
   </g>
   <g id="patch_10">
    <path d="M 490.79952 218.39952 
L 490.79952 22.2 
" style="fill: none; stroke: #000000; stroke-width: 0.6; stroke-linejoin: miter; stroke-linecap: square"/>
   </g>
   <g id="patch_11">
    <path d="M 281.15 218.39952 
L 490.79952 218.39952 
" style="fill: none; stroke: #000000; stroke-width: 0.6; stroke-linejoin: miter; stroke-linecap: square"/>
   </g>
   <g id="patch_12">
    <path d="M 281.15 22.2 
L 490.79952 22.2 
" style="fill: none; stroke: #000000; stroke-width: 0.6; stroke-linejoin: miter; stroke-linecap: square"/>
   </g>
   <g id="text_33">
    <!-- b -->
    <g transform="translate(267.985156 14.8) scale(0.1 -0.1)">
     <defs>
      <path id="NotoSans-Bold-62" d="M 1453 3731 
Q 1453 3533 1440 3341 
Q 1427 3149 1414 3040 
L 1453 3040 
Q 1594 3258 1830 3408 
Q 2067 3558 2445 3558 
Q 3034 3558 3398 3100 
Q 3763 2643 3763 1754 
Q 3763 1158 3593 752 
Q 3424 346 3123 141 
Q 2822 -64 2419 -64 
Q 2035 -64 1814 73 
Q 1594 211 1453 384 
L 1389 384 
L 1229 0 
L 499 0 
L 499 4864 
L 1453 4864 
L 1453 3731 
z
M 2138 2797 
Q 1888 2797 1741 2694 
Q 1594 2592 1526 2384 
Q 1459 2176 1453 1862 
L 1453 1760 
Q 1453 1254 1603 982 
Q 1754 710 2150 710 
Q 2445 710 2617 982 
Q 2790 1254 2790 1766 
Q 2790 2278 2614 2537 
Q 2438 2797 2138 2797 
z
" transform="scale(0.015625)"/>
     </defs>
     <use xlink:href="#NotoSans-Bold-62"/>
    </g>
   </g>
  </g>
 </g>
 <defs>
  <clipPath id="p75b7eec5f5">
   <rect x="33.7" y="22.2" width="209.64952" height="196.19952"/>
  </clipPath>
  <clipPath id="pf095785348">
   <rect x="281.15" y="22.2" width="209.64952" height="196.19952"/>
  </clipPath>
 </defs>
</svg>
