<?xml version="1.0" encoding="utf-8" standalone="no"?>
<!DOCTYPE svg PUBLIC "-//W3C//DTD SVG 1.1//EN"
  "http://www.w3.org/Graphics/SVG/1.1/DTD/svg11.dtd">
<svg xmlns:xlink="http://www.w3.org/1999/xlink" width="253.19952pt" height="253.19952pt" viewBox="0 0 253.19952 253.19952" xmlns="http://www.w3.org/2000/svg" version="1.1">
 <metadata>
  <rdf:RDF xmlns:dc="http://purl.org/dc/elements/1.1/" xmlns:cc="http://creativecommons.org/ns#" xmlns:rdf="http://www.w3.org/1999/02/22-rdf-syntax-ns#">
   <cc:Work>
    <dc:type rdf:resource="http://purl.org/dc/dcmitype/StillImage"/>
    <dc:date>2024-07-06T12:15:01.220250</dc:date>
    <dc:format>image/svg+xml</dc:format>
    <dc:creator>
     <cc:Agent>
      <dc:title>Matplotlib v3.9.0, https://matplotlib.org/</dc:title>
     </cc:Agent>
    </dc:creator>
   </cc:Work>
  </rdf:RDF>
 </metadata>
 <defs>
  <style type="text/css">*{stroke-linejoin: round; stroke-linecap: butt}</style>
 </defs>
 <g id="figure_1">
  <g id="patch_1">
   <path d="M 0 253.19952 
L 253.19952 253.19952 
L 253.19952 0 
L 0 0 
z
" style="fill: #ffffff"/>
  </g>
  <g id="axes_1">
   <g id="patch_2">
    <path d="M 28.1 232.49952 
L 245.99952 232.49952 
L 245.99952 17.8 
L 28.1 17.8 
z
" style="fill: #ffffff"/>
   </g>
   <g id="matplotlib.axis_1">
    <g id="xtick_1">
     <g id="line2d_1">
      <defs>
       <path id="m78602e0aae" d="M 0 0 
L 0 -4 
" style="stroke: #000000; stroke-width: 0.6"/>
      </defs>
      <g>
       <use xlink:href="#m78602e0aae" x="37.95497" y="232.49952" style="stroke: #000000; stroke-width: 0.6"/>
      </g>
     </g>
     <g id="line2d_2">
      <defs>
       <path id="m64458c434a" d="M 0 0 
L 0 4 
" style="stroke: #000000; stroke-width: 0.6"/>
      </defs>
      <g>
       <use xlink:href="#m64458c434a" x="37.95497" y="17.8" style="stroke: #000000; stroke-width: 0.6"/>
      </g>
     </g>
     <g id="text_1">
      <!-- $\mathdefault{−5}$ -->
      <g transform="translate(33.45497 243.59952) scale(0.1 -0.1)">
       <defs>
        <path id="NotoSans-Regular-2212" d="M 256 1466 
L 256 1965 
L 1805 1965 
L 1805 1466 
L 256 1466 
z
" transform="scale(0.015625)"/>
        <path id="NotoSans-Regular-35" d="M 1760 2803 
Q 2227 2803 2572 2643 
Q 2918 2483 3107 2185 
Q 3296 1888 3296 1459 
Q 3296 986 3091 643 
Q 2886 301 2505 118 
Q 2125 -64 1587 -64 
Q 1235 -64 924 0 
Q 614 64 403 186 
L 403 717 
Q 634 576 963 496 
Q 1293 416 1594 416 
Q 1933 416 2185 521 
Q 2438 627 2579 848 
Q 2720 1069 2720 1402 
Q 2720 1850 2445 2090 
Q 2170 2330 1574 2330 
Q 1395 2330 1164 2298 
Q 934 2266 794 2234 
L 512 2413 
L 685 4570 
L 2976 4570 
L 2976 4058 
L 1165 4058 
L 1056 2733 
Q 1165 2752 1350 2777 
Q 1536 2803 1760 2803 
z
" transform="scale(0.015625)"/>
       </defs>
       <use xlink:href="#NotoSans-Regular-2212" transform="translate(0 0.59375)"/>
       <use xlink:href="#NotoSans-Regular-35" transform="translate(32.199997 0.59375)"/>
      </g>
     </g>
    </g>
    <g id="xtick_2">
     <g id="line2d_3">
      <g>
       <use xlink:href="#m78602e0aae" x="99.896957" y="232.49952" style="stroke: #000000; stroke-width: 0.6"/>
      </g>
     </g>
     <g id="line2d_4">
      <g>
       <use xlink:href="#m64458c434a" x="99.896957" y="17.8" style="stroke: #000000; stroke-width: 0.6"/>
      </g>
     </g>
     <g id="text_2">
      <!-- $\mathdefault{0}$ -->
      <g transform="translate(96.996957 243.59952) scale(0.1 -0.1)">
       <defs>
        <path id="NotoSans-Regular-30" d="M 3347 2291 
Q 3347 1734 3264 1299 
Q 3181 864 2998 560 
Q 2816 256 2525 96 
Q 2234 -64 1824 -64 
Q 1312 -64 976 217 
Q 640 499 477 1027 
Q 314 1555 314 2291 
Q 314 3034 464 3558 
Q 614 4083 947 4361 
Q 1280 4640 1824 4640 
Q 2336 4640 2675 4361 
Q 3014 4083 3180 3558 
Q 3347 3034 3347 2291 
z
M 877 2291 
Q 877 1664 969 1248 
Q 1062 832 1270 624 
Q 1478 416 1824 416 
Q 2170 416 2378 621 
Q 2586 826 2682 1245 
Q 2778 1664 2778 2291 
Q 2778 2918 2682 3331 
Q 2586 3744 2378 3952 
Q 2170 4160 1824 4160 
Q 1478 4160 1270 3952 
Q 1062 3744 969 3331 
Q 877 2918 877 2291 
z
" transform="scale(0.015625)"/>
       </defs>
       <use xlink:href="#NotoSans-Regular-30" transform="translate(0 0.5)"/>
      </g>
     </g>
    </g>
    <g id="xtick_3">
     <g id="line2d_5">
      <g>
       <use xlink:href="#m78602e0aae" x="161.838943" y="232.49952" style="stroke: #000000; stroke-width: 0.6"/>
      </g>
     </g>
     <g id="line2d_6">
      <g>
       <use xlink:href="#m64458c434a" x="161.838943" y="17.8" style="stroke: #000000; stroke-width: 0.6"/>
      </g>
     </g>
     <g id="text_3">
      <!-- $\mathdefault{5}$ -->
      <g transform="translate(158.938943 243.59952) scale(0.1 -0.1)">
       <use xlink:href="#NotoSans-Regular-35" transform="translate(0 0.59375)"/>
      </g>
     </g>
    </g>
    <g id="xtick_4">
     <g id="line2d_7">
      <g>
       <use xlink:href="#m78602e0aae" x="223.780929" y="232.49952" style="stroke: #000000; stroke-width: 0.6"/>
      </g>
     </g>
     <g id="line2d_8">
      <g>
       <use xlink:href="#m64458c434a" x="223.780929" y="17.8" style="stroke: #000000; stroke-width: 0.6"/>
      </g>
     </g>
     <g id="text_4">
      <!-- $\mathdefault{10}$ -->
      <g transform="translate(218.030929 243.59952) scale(0.1 -0.1)">
       <defs>
        <path id="NotoSans-Regular-31" d="M 2272 0 
L 1722 0 
L 1722 3194 
Q 1722 3379 1725 3507 
Q 1728 3635 1734 3747 
Q 1741 3859 1747 3981 
Q 1645 3878 1561 3808 
Q 1478 3738 1350 3629 
L 864 3232 
L 570 3610 
L 1805 4570 
L 2272 4570 
L 2272 0 
z
" transform="scale(0.015625)"/>
       </defs>
       <use xlink:href="#NotoSans-Regular-31" transform="translate(0 0.5)"/>
       <use xlink:href="#NotoSans-Regular-30" transform="translate(57.199997 0.5)"/>
      </g>
     </g>
    </g>
   </g>
   <g id="matplotlib.axis_2">
    <g id="ytick_1">
     <g id="line2d_9">
      <defs>
       <path id="me375b54938" d="M 0 0 
L 4 0 
" style="stroke: #000000; stroke-width: 0.6"/>
      </defs>
      <g>
       <use xlink:href="#me375b54938" x="28.1" y="221.066865" style="stroke: #000000; stroke-width: 0.6"/>
      </g>
     </g>
     <g id="line2d_10">
      <defs>
       <path id="m344a241be7" d="M 0 0 
L -4 0 
" style="stroke: #000000; stroke-width: 0.6"/>
      </defs>
      <g>
       <use xlink:href="#m344a241be7" x="245.99952" y="221.066865" style="stroke: #000000; stroke-width: 0.6"/>
      </g>
     </g>
     <g id="text_5">
      <!-- $\mathdefault{−2.0}$ -->
      <g transform="translate(7.2 224.866865) scale(0.1 -0.1)">
       <defs>
        <path id="NotoSans-Regular-32" d="M 3328 0 
L 307 0 
L 307 467 
L 1504 1677 
Q 1850 2022 2086 2291 
Q 2323 2560 2444 2819 
Q 2566 3078 2566 3386 
Q 2566 3763 2342 3958 
Q 2118 4154 1760 4154 
Q 1427 4154 1174 4038 
Q 922 3923 659 3718 
L 358 4096 
Q 538 4250 752 4371 
Q 966 4493 1219 4563 
Q 1472 4634 1760 4634 
Q 2189 4634 2496 4486 
Q 2803 4339 2972 4067 
Q 3142 3795 3142 3418 
Q 3142 3059 2995 2745 
Q 2848 2432 2585 2128 
Q 2323 1824 1971 1478 
L 1018 538 
L 1018 512 
L 3328 512 
L 3328 0 
z
" transform="scale(0.015625)"/>
        <path id="NotoSans-Regular-2e" d="M 461 346 
Q 461 582 576 678 
Q 691 774 851 774 
Q 1018 774 1136 678 
Q 1254 582 1254 346 
Q 1254 115 1136 12 
Q 1018 -90 851 -90 
Q 691 -90 576 12 
Q 461 115 461 346 
z
" transform="scale(0.015625)"/>
       </defs>
       <use xlink:href="#NotoSans-Regular-2212" transform="translate(0 0.5)"/>
       <use xlink:href="#NotoSans-Regular-32" transform="translate(32.199997 0.5)"/>
       <use xlink:href="#NotoSans-Regular-2e" transform="translate(89.399994 0.5)"/>
       <use xlink:href="#NotoSans-Regular-30" transform="translate(116.199982 0.5)"/>
      </g>
     </g>
    </g>
    <g id="ytick_2">
     <g id="line2d_11">
      <g>
       <use xlink:href="#me375b54938" x="28.1" y="195.90147" style="stroke: #000000; stroke-width: 0.6"/>
      </g>
     </g>
     <g id="line2d_12">
      <g>
       <use xlink:href="#m344a241be7" x="245.99952" y="195.90147" style="stroke: #000000; stroke-width: 0.6"/>
      </g>
     </g>
     <g id="text_6">
      <!-- $\mathdefault{−1.5}$ -->
      <g transform="translate(7.2 199.70147) scale(0.1 -0.1)">
       <use xlink:href="#NotoSans-Regular-2212" transform="translate(0 0.59375)"/>
       <use xlink:href="#NotoSans-Regular-31" transform="translate(32.199997 0.59375)"/>
       <use xlink:href="#NotoSans-Regular-2e" transform="translate(89.399994 0.59375)"/>
       <use xlink:href="#NotoSans-Regular-35" transform="translate(116.199982 0.59375)"/>
      </g>
     </g>
    </g>
    <g id="ytick_3">
     <g id="line2d_13">
      <g>
       <use xlink:href="#me375b54938" x="28.1" y="170.736074" style="stroke: #000000; stroke-width: 0.6"/>
      </g>
     </g>
     <g id="line2d_14">
      <g>
       <use xlink:href="#m344a241be7" x="245.99952" y="170.736074" style="stroke: #000000; stroke-width: 0.6"/>
      </g>
     </g>
     <g id="text_7">
      <!-- $\mathdefault{−1.0}$ -->
      <g transform="translate(7.2 174.536074) scale(0.1 -0.1)">
       <use xlink:href="#NotoSans-Regular-2212" transform="translate(0 0.5)"/>
       <use xlink:href="#NotoSans-Regular-31" transform="translate(32.199997 0.5)"/>
       <use xlink:href="#NotoSans-Regular-2e" transform="translate(89.399994 0.5)"/>
       <use xlink:href="#NotoSans-Regular-30" transform="translate(116.199982 0.5)"/>
      </g>
     </g>
    </g>
    <g id="ytick_4">
     <g id="line2d_15">
      <g>
       <use xlink:href="#me375b54938" x="28.1" y="145.570679" style="stroke: #000000; stroke-width: 0.6"/>
      </g>
     </g>
     <g id="line2d_16">
      <g>
       <use xlink:href="#m344a241be7" x="245.99952" y="145.570679" style="stroke: #000000; stroke-width: 0.6"/>
      </g>
     </g>
     <g id="text_8">
      <!-- $\mathdefault{−0.5}$ -->
      <g transform="translate(7.2 149.370679) scale(0.1 -0.1)">
       <use xlink:href="#NotoSans-Regular-2212" transform="translate(0 0.5)"/>
       <use xlink:href="#NotoSans-Regular-30" transform="translate(32.199997 0.5)"/>
       <use xlink:href="#NotoSans-Regular-2e" transform="translate(89.399994 0.5)"/>
       <use xlink:href="#NotoSans-Regular-35" transform="translate(116.199982 0.5)"/>
      </g>
     </g>
    </g>
    <g id="ytick_5">
     <g id="line2d_17">
      <g>
       <use xlink:href="#me375b54938" x="28.1" y="120.405283" style="stroke: #000000; stroke-width: 0.6"/>
      </g>
     </g>
     <g id="line2d_18">
      <g>
       <use xlink:href="#m344a241be7" x="245.99952" y="120.405283" style="stroke: #000000; stroke-width: 0.6"/>
      </g>
     </g>
     <g id="text_9">
      <!-- $\mathdefault{0.0}$ -->
      <g transform="translate(10.4 124.205283) scale(0.1 -0.1)">
       <use xlink:href="#NotoSans-Regular-30" transform="translate(0 0.5)"/>
       <use xlink:href="#NotoSans-Regular-2e" transform="translate(57.199997 0.5)"/>
       <use xlink:href="#NotoSans-Regular-30" transform="translate(83.999985 0.5)"/>
      </g>
     </g>
    </g>
    <g id="ytick_6">
     <g id="line2d_19">
      <g>
       <use xlink:href="#me375b54938" x="28.1" y="95.239888" style="stroke: #000000; stroke-width: 0.6"/>
      </g>
     </g>
     <g id="line2d_20">
      <g>
       <use xlink:href="#m344a241be7" x="245.99952" y="95.239888" style="stroke: #000000; stroke-width: 0.6"/>
      </g>
     </g>
     <g id="text_10">
      <!-- $\mathdefault{0.5}$ -->
      <g transform="translate(10.4 99.039888) scale(0.1 -0.1)">
       <use xlink:href="#NotoSans-Regular-30" transform="translate(0 0.5)"/>
       <use xlink:href="#NotoSans-Regular-2e" transform="translate(57.199997 0.5)"/>
       <use xlink:href="#NotoSans-Regular-35" transform="translate(83.999985 0.5)"/>
      </g>
     </g>
    </g>
    <g id="ytick_7">
     <g id="line2d_21">
      <g>
       <use xlink:href="#me375b54938" x="28.1" y="70.074492" style="stroke: #000000; stroke-width: 0.6"/>
      </g>
     </g>
     <g id="line2d_22">
      <g>
       <use xlink:href="#m344a241be7" x="245.99952" y="70.074492" style="stroke: #000000; stroke-width: 0.6"/>
      </g>
     </g>
     <g id="text_11">
      <!-- $\mathdefault{1.0}$ -->
      <g transform="translate(10.4 73.874492) scale(0.1 -0.1)">
       <use xlink:href="#NotoSans-Regular-31" transform="translate(0 0.5)"/>
       <use xlink:href="#NotoSans-Regular-2e" transform="translate(57.199997 0.5)"/>
       <use xlink:href="#NotoSans-Regular-30" transform="translate(83.999985 0.5)"/>
      </g>
     </g>
    </g>
    <g id="ytick_8">
     <g id="line2d_23">
      <g>
       <use xlink:href="#me375b54938" x="28.1" y="44.909097" style="stroke: #000000; stroke-width: 0.6"/>
      </g>
     </g>
     <g id="line2d_24">
      <g>
       <use xlink:href="#m344a241be7" x="245.99952" y="44.909097" style="stroke: #000000; stroke-width: 0.6"/>
      </g>
     </g>
     <g id="text_12">
      <!-- $\mathdefault{1.5}$ -->
      <g transform="translate(10.4 48.709097) scale(0.1 -0.1)">
       <use xlink:href="#NotoSans-Regular-31" transform="translate(0 0.59375)"/>
       <use xlink:href="#NotoSans-Regular-2e" transform="translate(57.199997 0.59375)"/>
       <use xlink:href="#NotoSans-Regular-35" transform="translate(83.999985 0.59375)"/>
      </g>
     </g>
    </g>
    <g id="ytick_9">
     <g id="line2d_25">
      <g>
       <use xlink:href="#me375b54938" x="28.1" y="19.743702" style="stroke: #000000; stroke-width: 0.6"/>
      </g>
     </g>
     <g id="line2d_26">
      <g>
       <use xlink:href="#m344a241be7" x="245.99952" y="19.743702" style="stroke: #000000; stroke-width: 0.6"/>
      </g>
     </g>
     <g id="text_13">
      <!-- $\mathdefault{2.0}$ -->
      <g transform="translate(10.4 23.543702) scale(0.1 -0.1)">
       <use xlink:href="#NotoSans-Regular-32" transform="translate(0 0.5)"/>
       <use xlink:href="#NotoSans-Regular-2e" transform="translate(57.199997 0.5)"/>
       <use xlink:href="#NotoSans-Regular-30" transform="translate(83.999985 0.5)"/>
      </g>
     </g>
    </g>
    <g id="text_14">
     <!-- $\times\mathdefault{10^{−3}}\mathdefault{}$ -->
     <g transform="translate(28.1 14.8) scale(0.1 -0.1)">
      <defs>
       <path id="NotoSans-Regular-d7" d="M 2918 3674 
L 3238 3347 
L 2150 2259 
L 3232 1171 
L 2912 845 
L 1818 1926 
L 749 845 
L 416 1171 
L 1498 2259 
L 410 3341 
L 742 3674 
L 1824 2579 
L 2918 3674 
z
" transform="scale(0.015625)"/>
       <path id="NotoSans-Regular-33" d="M 3155 3501 
Q 3155 3194 3040 2970 
Q 2925 2746 2710 2605 
Q 2496 2464 2208 2406 
L 2208 2381 
Q 2758 2317 3027 2035 
Q 3296 1754 3296 1299 
Q 3296 902 3110 592 
Q 2925 282 2537 109 
Q 2150 -64 1542 -64 
Q 1184 -64 877 -9 
Q 570 45 288 186 
L 288 710 
Q 576 570 909 490 
Q 1242 410 1549 410 
Q 2163 410 2435 650 
Q 2707 890 2707 1312 
Q 2707 1600 2556 1776 
Q 2406 1952 2118 2035 
Q 1830 2118 1427 2118 
L 986 2118 
L 986 2598 
L 1434 2598 
Q 1811 2598 2064 2707 
Q 2317 2816 2448 3011 
Q 2579 3206 2579 3462 
Q 2579 3795 2355 3977 
Q 2131 4160 1747 4160 
Q 1504 4160 1305 4112 
Q 1107 4064 937 3977 
Q 768 3891 595 3776 
L 314 4160 
Q 557 4352 918 4493 
Q 1280 4634 1741 4634 
Q 2458 4634 2806 4314 
Q 3155 3994 3155 3501 
z
" transform="scale(0.015625)"/>
      </defs>
      <use xlink:href="#NotoSans-Regular-d7" transform="translate(0 0.8)"/>
      <use xlink:href="#NotoSans-Regular-31" transform="translate(57.199997 0.8)"/>
      <use xlink:href="#NotoSans-Regular-30" transform="translate(114.399994 0.8)"/>
      <use xlink:href="#NotoSans-Regular-2212" transform="translate(172.537881 38.315625) scale(0.7)"/>
      <use xlink:href="#NotoSans-Regular-33" transform="translate(195.077879 38.315625) scale(0.7)"/>
     </g>
    </g>
   </g>
   <g id="line2d_27">
    <path d="M 38.004524 170.736074 
L 72.568152 170.736074 
L 72.642482 173.240657 
L 72.716813 173.114356 
L 74.352081 170.446501 
L 75.98735 170.177205 
L 77.548288 168.3424 
L 77.622618 168.41428 
L 79.257887 173.637549 
L 81.339137 168.589677 
L 82.528424 165.157925 
L 82.825745 166.956267 
L 84.238022 175.922676 
L 87.65722 173.474317 
L 89.143828 173.80581 
L 89.812801 172.145698 
L 90.853426 169.656106 
L 92.637356 170.525528 
L 94.123963 170.5878 
L 95.833562 173.46382 
L 97.766152 173.102479 
L 99.475751 173.107977 
L 100.739368 172.835729 
L 102.374636 169.051424 
L 104.009904 171.713951 
L 104.604547 174.435194 
L 105.942494 180.263835 
L 107.429102 184.60129 
L 108.99004 185.897974 
L 110.8483 174.171128 
L 112.334907 161.103154 
L 113.970176 160.422763 
L 115.605444 154.849648 
L 117.315043 159.949028 
L 121.328884 187.817863 
L 122.220848 195.398071 
L 122.295179 195.297283 
L 123.856117 193.180736 
L 125.491385 174.488818 
L 126.160359 158.954531 
L 127.275315 134.654568 
L 128.761922 126.76068 
L 128.836253 126.789832 
L 130.694512 160.774899 
L 132.478441 201.155623 
L 133.816388 222.740451 
L 135.525987 203.551132 
L 138.870854 134.68867 
L 140.357462 131.925446 
L 140.506123 133.59381 
L 142.736034 167.0144 
L 144.594294 195.800783 
L 145.337598 206.566071 
L 145.411928 206.213474 
L 147.047197 195.240344 
L 150.392064 151.016899 
L 151.953002 141.903799 
L 153.662601 155.114036 
L 155.595191 178.920137 
L 156.933138 191.151392 
L 157.007468 191.12156 
L 158.568406 190.467779 
L 161.987604 164.805225 
L 163.622872 158.993676 
L 165.18381 158.687678 
L 169.197651 177.327446 
L 170.238276 182.207256 
L 171.724884 182.769144 
L 171.799214 182.678229 
L 173.657474 167.948124 
L 175.664394 157.985986 
L 176.70502 152.197515 
L 176.77935 152.286157 
L 178.78627 168.377942 
L 180.272878 177.224923 
L 181.759486 182.288061 
L 183.320424 182.710728 
L 183.469085 182.152555 
L 186.4423 166.972898 
L 186.739622 165.759846 
L 188.523551 164.45141 
L 189.935828 164.048896 
L 190.158819 164.937999 
L 191.719757 171.7599 
L 193.280695 173.24911 
L 194.915964 180.381465 
L 195.436276 178.85522 
L 196.997215 173.787965 
L 198.260831 169.08261 
L 199.896099 170.718808 
L 201.680029 168.129575 
L 203.166636 167.662714 
L 203.538288 169.268207 
L 204.876235 175.076714 
L 206.511504 169.985946 
L 208.146772 173.87475 
L 209.930701 171.13547 
L 211.863291 166.148196 
L 213.126908 163.714702 
L 215.208159 170.59169 
L 216.471775 175.218425 
L 218.330035 175.605224 
L 219.667982 176.258719 
L 219.742312 176.149024 
L 221.37758 169.313085 
L 221.451911 169.403382 
L 223.16151 171.351869 
L 224.796778 171.983626 
L 226.283386 173.559881 
L 226.357716 173.474659 
L 227.992985 167.8185 
L 228.067315 167.863489 
L 229.702583 168.920548 
L 231.263521 171.255199 
L 231.560843 170.449008 
L 232.97312 166.491663 
L 234.608389 170.038271 
L 236.094996 165.871094 
L 236.094996 165.871094 
" clip-path="url(#p8d50b39cf5)" style="fill: none; stroke: #1f77b4; stroke-linecap: square"/>
   </g>
   <g id="line2d_28">
    <path d="M 38.004524 170.736074 
L 113.152542 170.662184 
L 113.449863 170.179918 
L 113.821515 169.087899 
L 114.416158 166.451248 
L 116.200087 157.745219 
L 116.571739 156.967272 
L 116.79473 156.817377 
L 117.017722 156.92976 
L 117.240713 157.31867 
L 117.538034 158.281703 
L 117.984017 160.681499 
L 118.504329 164.841708 
L 119.247633 172.797159 
L 121.254553 195.578179 
L 121.774866 198.885597 
L 122.146518 200.031236 
L 122.369509 200.177661 
L 122.51817 200.040004 
L 122.741161 199.473957 
L 123.038483 198.044616 
L 123.484465 194.486086 
L 124.004778 188.360252 
L 124.748081 176.701957 
L 127.052323 138.236687 
L 127.572636 133.504624 
L 127.944288 131.740921 
L 128.167279 131.384079 
L 128.31594 131.447249 
L 128.538931 131.997961 
L 128.836253 133.580144 
L 129.207905 136.882601 
L 129.728217 143.781943 
L 130.471521 157.338469 
L 132.998754 207.673192 
L 133.519067 213.087528 
L 133.890719 215.086403 
L 134.11371 215.487328 
L 134.262371 215.414997 
L 134.485362 214.795616 
L 134.708353 213.37506 
L 135.154335 208.413425 
L 135.748978 198.96084 
L 136.715273 179.240415 
L 138.201881 149.094485 
L 138.870854 139.616052 
L 139.391167 135.054688 
L 139.762819 133.470119 
L 139.98581 133.205796 
L 140.134471 133.314151 
L 140.357462 133.896278 
L 140.654784 135.430106 
L 141.100766 139.237707 
L 141.695409 146.704952 
L 142.587374 161.308206 
L 144.222642 188.551409 
L 144.891615 196.259294 
L 145.411928 199.950669 
L 145.78358 201.217855 
L 146.006571 201.416982 
L 146.155232 201.317224 
L 146.378223 200.824925 
L 146.675545 199.550135 
L 147.121527 196.409185 
L 147.71617 190.274947 
L 148.608135 178.31362 
L 150.243403 156.071595 
L 150.912377 149.803818 
L 151.432689 146.816856 
L 151.804341 145.803994 
L 152.027332 145.655065 
L 152.250323 145.847394 
L 152.547645 146.620799 
L 152.919297 148.373553 
L 153.43961 152.131073 
L 154.182913 159.517724 
L 156.635816 185.891658 
L 157.230459 189.462641 
L 157.676441 190.898415 
L 157.973763 191.233207 
L 158.196754 191.157237 
L 158.419745 190.806336 
L 158.717067 189.926554 
L 159.163049 187.78987 
L 159.757692 183.650846 
L 160.649657 175.62661 
L 162.284925 160.802232 
L 162.953899 156.658344 
L 163.474211 154.703318 
L 163.845863 154.057257 
L 164.068854 153.976238 
L 164.291846 154.122984 
L 164.589167 154.66325 
L 164.960819 155.861696 
L 165.481132 158.405036 
L 166.224436 163.372312 
L 168.677338 180.954041 
L 169.271981 183.304096 
L 169.717964 184.233737 
L 170.015285 184.437252 
L 170.238276 184.371501 
L 170.535598 183.999605 
L 170.90725 183.100801 
L 171.427562 181.118175 
L 172.096536 177.592393 
L 174.84676 161.778292 
L 175.367073 160.273806 
L 175.738725 159.692691 
L 176.036046 159.534584 
L 176.333368 159.647889 
L 176.630689 160.024537 
L 177.076672 161.050605 
L 177.671315 163.161665 
L 178.488949 167.038955 
L 180.421539 176.563337 
L 181.090512 178.685978 
L 181.610825 179.626152 
L 181.982477 179.88404 
L 182.279799 179.839788 
L 182.57712 179.578361 
L 182.948772 178.962702 
L 183.469085 177.619754 
L 184.212388 174.950697 
L 186.739622 165.081365 
L 187.334265 163.827478 
L 187.780247 163.344125 
L 188.151899 163.254311 
L 188.523551 163.445694 
L 188.895203 163.904219 
L 189.415515 164.948234 
L 190.084489 166.838716 
L 191.571096 171.98236 
L 192.537391 174.862999 
L 193.206365 176.192589 
L 193.726678 176.741965 
L 194.09833 176.85636 
L 194.469981 176.73972 
L 194.915964 176.309487 
L 195.436276 175.449875 
L 196.17958 173.70328 
L 198.855474 166.798236 
L 199.450117 166.029927 
L 199.896099 165.763282 
L 200.342082 165.770479 
L 200.788064 166.043068 
L 201.308377 166.665929 
L 201.97735 167.858943 
L 203.092306 170.397666 
L 204.355922 173.139477 
L 205.099226 174.244267 
L 205.619539 174.68592 
L 206.065521 174.82473 
L 206.511504 174.740753 
L 207.031816 174.376575 
L 207.626459 173.655375 
L 208.444094 172.280487 
L 210.599675 168.445373 
L 211.268648 167.733439 
L 211.788961 167.445983 
L 212.309274 167.406929 
L 212.829586 167.610591 
L 213.424229 168.110222 
L 214.167533 169.046695 
L 216.992088 172.976272 
L 217.661061 173.382422 
L 218.255704 173.464774 
L 218.850347 173.286627 
L 219.519321 172.809272 
L 220.411285 171.837972 
L 222.789858 169.064462 
L 223.533162 168.620038 
L 224.127805 168.501623 
L 224.722448 168.598515 
L 225.391421 168.942303 
L 226.283386 169.696483 
L 228.95928 172.200765 
L 229.702583 172.508921 
L 230.371557 172.552341 
L 231.04053 172.378118 
L 231.858164 171.915499 
L 233.121781 170.885115 
L 234.608389 169.735902 
L 235.500353 169.336922 
L 236.094996 169.244029 
L 236.094996 169.244029 
" clip-path="url(#p8d50b39cf5)" style="fill: none; stroke: #000000; stroke-linecap: square"/>
   </g>
   <g id="line2d_29">
    <path d="M 38.004524 70.074492 
L 72.568152 70.074492 
L 72.716813 68.338451 
L 74.500742 68.250485 
L 75.98735 68.631155 
L 77.622618 67.625627 
L 79.332217 70.097985 
L 80.893155 69.542656 
L 82.528424 64.095582 
L 82.825745 65.965537 
L 84.238022 75.279567 
L 86.393603 71.963029 
L 87.65722 70.505823 
L 89.292488 70.002503 
L 90.853426 70.609302 
L 92.488695 73.563641 
L 94.123963 68.195837 
L 95.759232 74.204198 
L 96.279545 72.835757 
L 97.468831 69.473245 
L 99.104099 60.786094 
L 100.739368 70.34244 
L 102.374636 65.015032 
L 105.199191 83.965438 
L 105.868164 87.993441 
L 107.354772 93.651849 
L 108.99004 90.673704 
L 111.071291 61.408573 
L 112.483568 39.345046 
L 113.970176 27.559069 
L 115.754105 55.370871 
L 117.463704 91.317618 
L 118.875981 107.787171 
L 118.950312 107.387493 
L 120.957232 76.624524 
L 122.295179 53.132763 
L 123.856117 44.919011 
L 125.417055 67.468191 
L 125.788707 71.372825 
L 127.200984 83.799689 
L 128.836253 77.395854 
L 130.694512 61.495174 
L 132.106789 53.668037 
L 132.404111 56.961734 
L 133.965049 74.440887 
L 135.451657 81.893296 
L 138.722194 64.040883 
L 138.870854 64.272627 
L 140.431792 67.813082 
L 142.067061 78.161416 
L 143.85099 71.429271 
L 145.70925 67.69849 
L 147.047197 64.566648 
L 148.682465 67.396588 
L 150.317734 77.170958 
L 150.392064 77.061941 
L 152.027332 74.528365 
L 153.736931 69.124626 
L 155.595191 66.581839 
L 157.156129 63.954439 
L 158.568406 62.487272 
L 160.426666 68.757083 
L 161.913273 71.845827 
L 163.548542 83.392909 
L 166.224436 67.062199 
L 166.967739 62.753249 
L 168.454347 58.398792 
L 168.528678 58.494719 
L 170.238276 64.974437 
L 171.873545 76.325568 
L 173.508813 78.5015 
L 175.069751 78.214317 
L 175.367073 75.486348 
L 176.77935 61.976131 
L 178.934931 65.453631 
L 180.124217 66.925461 
L 181.685155 66.819846 
L 182.131138 68.562669 
L 183.469085 73.623874 
L 185.030023 74.952251 
L 187.036943 73.588815 
L 189.415515 72.71672 
L 189.935828 72.555589 
L 190.23315 71.767156 
L 191.645427 67.774733 
L 193.280695 68.991566 
L 194.915964 75.338927 
L 195.510607 73.018422 
L 196.699893 68.64647 
L 198.260831 67.145651 
L 199.896099 72.484051 
L 201.754359 68.827778 
L 203.240967 64.903488 
L 204.876235 66.180687 
L 206.511504 65.340688 
L 208.221102 71.168108 
L 209.856371 72.365527 
L 211.491639 70.796624 
L 213.126908 64.753578 
L 215.282489 70.330916 
L 216.397445 72.743534 
L 216.843427 71.744395 
L 218.107043 68.943172 
L 219.816642 69.792895 
L 221.37758 68.883844 
L 223.087179 75.694441 
L 224.945439 75.913694 
L 226.283386 76.529182 
L 226.432046 75.639982 
L 227.992985 62.970599 
L 228.067315 63.036811 
L 232.527138 67.15523 
L 233.642094 68.169936 
L 234.608389 68.920771 
L 236.094996 66.783327 
L 236.094996 66.783327 
" clip-path="url(#p8d50b39cf5)" style="fill: none; stroke: #ff7f0e; stroke-linecap: square"/>
   </g>
   <g id="line2d_30">
    <path d="M 38.004524 70.074492 
L 105.12486 70.074348 
L 105.347851 69.792773 
L 105.496512 70.050145 
L 105.719503 71.050867 
L 106.091155 74.123401 
L 106.685798 81.477435 
L 107.800754 95.436341 
L 108.246736 98.375964 
L 108.469727 98.935451 
L 108.618388 98.939378 
L 108.767049 98.639374 
L 108.99004 97.614253 
L 109.361692 94.401452 
L 109.807674 88.274642 
L 110.476648 75.56548 
L 112.186247 40.998458 
L 112.706559 34.888538 
L 113.078211 32.694428 
L 113.301202 32.309724 
L 113.449863 32.445844 
L 113.672854 33.231937 
L 113.970176 35.328889 
L 114.416158 40.524413 
L 115.010801 50.515693 
L 117.463704 95.767691 
L 117.909686 99.463295 
L 118.207008 100.664139 
L 118.429999 100.892696 
L 118.57866 100.729866 
L 118.801651 100.027213 
L 119.098972 98.280408 
L 119.544955 94.119806 
L 120.213928 85.261221 
L 121.997857 59.784756 
L 122.5925 54.943114 
L 123.038483 52.997258 
L 123.335804 52.498074 
L 123.558795 52.521964 
L 123.781786 52.865354 
L 124.079108 53.776753 
L 124.52509 55.970942 
L 125.194064 60.576605 
L 127.126654 74.676651 
L 127.721297 77.282193 
L 128.167279 78.406173 
L 128.538931 78.794718 
L 128.836253 78.765215 
L 129.133574 78.458627 
L 129.505226 77.73362 
L 130.099869 75.958955 
L 131.214825 71.660463 
L 132.18112 68.270302 
L 132.850093 66.66434 
L 133.370406 65.956777 
L 133.742058 65.748989 
L 134.11371 65.775675 
L 134.559692 66.083444 
L 135.080005 66.750583 
L 135.897639 68.217552 
L 137.458577 71.044708 
L 138.127551 71.813643 
L 138.722194 72.167852 
L 139.242506 72.223383 
L 139.837149 72.03022 
L 140.580453 71.500821 
L 143.330677 69.220696 
L 144.073981 69.017789 
L 144.817285 69.048849 
L 145.70925 69.325267 
L 148.905456 70.560995 
L 149.946082 70.591755 
L 151.209698 70.38728 
L 154.108583 69.834512 
L 155.595191 69.840381 
L 161.467291 70.162105 
L 166.224436 70.020081 
L 173.880465 70.069019 
L 182.948772 70.077837 
L 214.613515 70.074526 
L 236.094996 70.074493 
L 236.094996 70.074493 
" clip-path="url(#p8d50b39cf5)" style="fill: none; stroke: #000000; stroke-linecap: square"/>
   </g>
   <g id="patch_3">
    <path d="M 28.1 232.49952 
L 28.1 17.8 
" style="fill: none; stroke: #000000; stroke-width: 0.6; stroke-linejoin: miter; stroke-linecap: square"/>
   </g>
   <g id="patch_4">
    <path d="M 245.99952 232.49952 
L 245.99952 17.8 
" style="fill: none; stroke: #000000; stroke-width: 0.6; stroke-linejoin: miter; stroke-linecap: square"/>
   </g>
   <g id="patch_5">
    <path d="M 28.1 232.49952 
L 245.99952 232.49952 
" style="fill: none; stroke: #000000; stroke-width: 0.6; stroke-linejoin: miter; stroke-linecap: square"/>
   </g>
   <g id="patch_6">
    <path d="M 28.1 17.8 
L 245.99952 17.8 
" style="fill: none; stroke: #000000; stroke-width: 0.6; stroke-linejoin: miter; stroke-linecap: square"/>
   </g>
  </g>
 </g>
 <defs>
  <clipPath id="p8d50b39cf5">
   <rect x="28.1" y="17.8" width="217.89952" height="214.69952"/>
  </clipPath>
 </defs>
</svg>
